<?xml version="1.0" encoding="utf-8"?>
<!-- Generator: Adobe Illustrator 22.0.1, SVG Export Plug-In . SVG Version: 6.00 Build 0)  -->
<svg version="1.1" id="Layer_1" xmlns="http://www.w3.org/2000/svg" xmlns:xlink="http://www.w3.org/1999/xlink" x="0px" y="0px"
	 viewBox="0 0 576.4 383.1" style="enable-background:new 0 0 576.4 383.1;" xml:space="preserve">
<style type="text/css">
	.st0{fill:#333031;}
	.st1{fill:#66C6C6;}
</style>
<g>
	<path class="st0" d="M531.2,374.8c-4.5,6.4-23.6,0.8-42.8-12.5c-19.2-13.4-31-29.4-26.5-35.8l2.8-4c4.5-6.4,23.6-0.8,42.8,12.5
		c19.2,13.4,31,29.4,26.5,35.8L531.2,374.8z"/>
	
		<ellipse transform="matrix(0.5731 -0.8195 0.8195 0.5731 -69.1912 557.563)" class="st1" cx="500.6" cy="345.2" rx="12.3" ry="42.2"/>
</g>
<path class="st0" d="M467.2,335.6L467.2,335.6c-3.9-4.5-7-7.1-12.5-8.1c-3.6-0.7-6.7-0.9-10.1-0.6c-3.2,0.3-6.5,0.5-9.7,0.5
	c-1.5-0.1-3-0.1-4-0.1c-6.4-1.1-8.7-2-12.2-4.2c-9.8-5.5-13.8-15.3-16.6-25.7c-0.8-3-1.5-6.2-1.4-9.1l0,0c-0.1-1-0.3-2.1-0.4-3.1
	c-1.2-8.8,1.2-18,9.5-22.4c7.3-3.9,17-4.6,24.9-1.4c8.4,3.3,15.9,10.1,22.6,16c6.9,6.2,14.8,11.8,20.8,19
	c5.7,6.8,8.3,15.3,11.9,23.4c3.9,8.6,7.5,19.1,13.9,26.2c2.7,3,8.1,7.1,12.3,7c3.3,0,5.3-3.6,6.4-6.3c3.2-8-1.1-17.3-3.7-24.8
	c-3.1-9.1-4.7-18.5-6.4-27.8c-1.6-9.5-3.4-18.1-9.8-25.5c-5.9-7-11.9-13.7-19-19.4c-4.2-3.3-7.9-7.2-12-10.6
	c-0.6-0.5-2.2-1.4-2.4-2.4c-0.5-1-0.2-2.5,1.2-2.5c4.4-0.1,8.2,2.6,12.3,3.7c4.8,1.3,7.9,2.1,13.4,3.7c1.3,0.4,2.6,0.9,4,1.4
	c5.8,2.4,9.3,3.5,13.3,8.3c4.7,5.8,7.7,13.1,12.2,19.2c4.5,6.2,9.9,11.5,15.9,15.6l0,0c1.2,0.3,2.4,0.6,3.8,0.5c4-0.2,6.6-3.5,6-7.5
	c-1.5-9.5-5.8-16.9-9-26c0-0.1-0.1-0.3-0.2-0.6c-0.5-1.5-1.2-3-2-4.4c-2-3.2-5.5-9.4-8-12.8c-4.4-6.2-10-13.1-16.8-16.9
	c-12.3-6.8-27.3-5.8-39.6-12.5c-0.5-0.2-0.8-0.7-0.8-1.1c-0.2-0.3-0.2-0.9,0.2-1.5c0.7-0.9,2.1-0.5,3-0.4c4.3,0.5,8.6,2.9,12.9,3.7
	c3.1,0.6,6.4,1.1,9.6,1.6l0,0c7.1,2.1,14.1,4.8,20,9.2c2.2,1.7,4.2,3.6,6.2,5.4c0.6,0.4,1.1,1,1.6,1.6c1.5,1.5,2.7,3.1,4,4.8
	c0.9,1.3,2.1,2.4,3.8,2.9c3.8,1.2,7.1,2.5,10.9,3.4c4,0.9,8.2,0.9,12.1-0.4c1.8-0.6,3.5-1.5,5.1-2.9c14.3-12.4-25.9-27.7-32.1-30.7
	c-8.9-4.1-17.1-8.8-26.6-11.7c-6.7-2-13.9-5.9-21-5.9c-1.8,0.1-4.4,1.2-6,0.6c-1.2-0.3-2.7-1.9-1.5-3.2c0.8-0.8,6.8-0.7,8.1-0.7
	c9.2,0.3,17.2,4.5,25.6,7.5c14.9,5.4,30.8,18.6,44.8,5.2c3.3-3.3,3.8-8.3,0.4-12.1c-3.9-4.3-6.6-4.9-11.1-6
	c-7.1-1.8-11-2.1-16.2-3.5c-3.7-1-7.4-2.3-10.9-3.9c-8.9-3.9-18.8-6.7-28.4-8.3c-9.1-1.4-15.9,2-23.8,6.1c-7.9,4.2-16.7,10.4-26,9.1
	c-10.3-1.4-20.6-3.5-31-5c-9.6-1.5-19.1-1.6-28.8-2.5c-9.5-1-19-0.6-28.5-0.3c-9.3,0.2-17.4-0.7-25.3-3.5
	c-7.7-2.7-14.4-5.2-27.5-15.6c-12.3-9.6-20.7-15.7-32.3-24.6c-14.4-10.8-21.4-17.5-36.7-31.3C215,78.1,148.1,10.6,140,3
	c-1.4-1.3-3.4-1.6-5.1-0.9L1.7,55.2c-1.1,0.5-1.2,1.9-0.2,2.5c5.2,3,42.2,38.6,89.5,73.3c32,23,65.4,40.9,94.3,56.6
	c15.8,8.5,31.7,17.2,47.5,25.7c13.9,7.5,27.2,15.8,40.4,24.2c17.9,11.5,34.7,24.8,50.6,38.9c7.6,6.8,15.9,12.7,22.2,20.8
	c6.4,8.1,11.3,16.6,18.8,23.8s14.6,14.1,22.8,20.2c7.5,5.6,15.4,10.2,24.7,13.1c0.2,0,0.5,0.2,0.7,0.2c7.2,2.3,15,2.3,22.3,0.1
	c0.6-0.2,1-0.2,1.4-0.4c10-2.3,17.4-5.2,27.7-8.9c0.2-0.1,0.5-0.2,0.8-0.3l3-1.2c1.7-1,2.2-3.6,1.1-5.2L467.2,335.6z"/>
</svg>
