<?xml version="1.0" encoding="utf-8"?>
<!-- Generator: Adobe Illustrator 22.0.1, SVG Export Plug-In . SVG Version: 6.00 Build 0)  -->
<svg version="1.1" id="Layer_1" xmlns="http://www.w3.org/2000/svg" xmlns:xlink="http://www.w3.org/1999/xlink" x="0px" y="0px"
	 viewBox="0 0 18.7 19" style="enable-background:new 0 0 18.7 19;" xml:space="preserve">
<title>Page 1</title>
<desc>Created with Sketch.</desc>
<g>
	<g>
		<path d="M16,7.2h-1.2V5.6c0-3-2.5-5.5-5.5-5.5S3.9,2.6,3.9,5.6v1.6H2.7c-0.2,0-0.4,0.2-0.4,0.4v9.8c0,0.9,0.7,1.6,1.6,1.6h11
			c0.9,0,1.6-0.7,1.6-1.6V7.5C16.4,7.3,16.2,7.2,16,7.2z M10.5,15.3c0,0.1,0,0.2-0.1,0.3c-0.1,0.1-0.2,0.1-0.3,0.1H8.6
			c-0.1,0-0.2,0-0.3-0.1c-0.1-0.1-0.1-0.2-0.1-0.3l0.2-2.2c-0.4-0.3-0.6-0.8-0.6-1.3c0-0.9,0.7-1.6,1.6-1.6c0.9,0,1.6,0.7,1.6,1.6
			c0,0.5-0.2,1-0.6,1.3L10.5,15.3z M12.5,7.2H6.2V5.6c0-1.7,1.4-3.1,3.1-3.1s3.1,1.4,3.1,3.1V7.2z"/>
	</g>
</g>
</svg>
