<?xml version="1.0" encoding="utf-8"?>
<!-- Generator: Adobe Illustrator 22.0.1, SVG Export Plug-In . SVG Version: 6.00 Build 0)  -->
<svg version="1.1" id="Layer_1" xmlns="http://www.w3.org/2000/svg" xmlns:xlink="http://www.w3.org/1999/xlink" x="0px" y="0px"
	 viewBox="0 0 18.7 19" style="enable-background:new 0 0 18.7 19;" xml:space="preserve">
<title>Page 1</title>
<desc>Created with Sketch.</desc>
<g>
	<path d="M9.4,10.8L9.4,10.8c0.1,0,0.3,0,0.4-0.1l0,0c0,0,0,0,0,0l0.3-0.3l8.3-6.9c0,0,0,0-0.1,0H0.3c0,0,0,0-0.1,0L9,10.7
		C9.1,10.8,9.2,10.8,9.4,10.8z M0.2,4.4v10.2l6.2-5L0.2,4.4z M12.3,9.6l6.2,5V4.5L12.3,9.6z M10.3,11.2c-0.2,0.2-0.6,0.3-0.9,0.3
		c-0.3,0-0.7-0.1-0.9-0.3l-1.4-1.2l-6.8,5.5v0c0,0.1,0,0.1,0.1,0.1h18.1c0.1,0,0.1,0,0.1-0.1v0l-6.8-5.5L10.3,11.2z"/>
</g>
</svg>
