<?xml version="1.0" encoding="utf-8"?>
<!-- Generator: Adobe Illustrator 22.0.1, SVG Export Plug-In . SVG Version: 6.00 Build 0)  -->
<svg version="1.1" id="Layer_1" xmlns="http://www.w3.org/2000/svg" xmlns:xlink="http://www.w3.org/1999/xlink" x="0px" y="0px"
	 viewBox="0 0 20.7 20.7" style="enable-background:new 0 0 20.7 20.7;" xml:space="preserve">
<style type="text/css">
	.st0{fill-rule:evenodd;clip-rule:evenodd;}
</style>
<g>
	<path class="st0" d="M20.5,10c-1.7-4.1-5.6-6.8-10.1-6.8C5.8,3.2,1.9,5.9,0.2,10l-0.1,0.3l0.1,0.3c1.7,4.1,5.6,6.8,10.1,6.8
		c4.5,0,8.5-2.7,10.1-6.8l0.1-0.3L20.5,10z M10.3,15.7c-3.6,0-6.8-2.1-8.3-5.3C3.5,7.1,6.7,5,10.3,5c3.6,0,6.8,2.1,8.3,5.3
		C17.2,13.6,14,15.7,10.3,15.7z"/>
	<path class="st0" d="M10.3,6.8c-2,0-3.6,1.6-3.6,3.6c0,2,1.6,3.6,3.6,3.6c2,0,3.6-1.6,3.6-3.6C13.9,8.4,12.3,6.8,10.3,6.8z
		 M11.2,10.4c-0.5,0-0.9-0.4-0.9-0.9c0-0.5,0.4-0.9,0.9-0.9c0.5,0,0.9,0.4,0.9,0.9C12.1,9.9,11.7,10.4,11.2,10.4z"/>
</g>
</svg>
