<?xml version="1.0" encoding="utf-8"?>
<!-- Generator: Adobe Illustrator 22.0.1, SVG Export Plug-In . SVG Version: 6.00 Build 0)  -->
<svg version="1.1" id="Layer_1" xmlns="http://www.w3.org/2000/svg" xmlns:xlink="http://www.w3.org/1999/xlink" x="0px" y="0px"
	 viewBox="0 0 20.7 20.7" style="enable-background:new 0 0 20.7 20.7;" xml:space="preserve">
<g>
	<path id="SVGID_1_" d="M0.2,11l3.3-4l2.9,4H4.5c0,0,0.4,5,4.5,5.7c4.9,0.8,7.1-2.5,7.1-2.5l1.7,1.3c0,0-2.8,4.4-8.8,3.6
		c-6.6-0.9-6.9-8-6.9-8L0.2,11z"/>
</g>
<g>
	<path id="SVGID_3_" d="M20.5,9.7l-3.3,4l-2.9-4h1.9c0,0-0.4-5-4.5-5.7C6.8,3.2,4.6,6.5,4.6,6.5L2.9,5.2c0,0,2.8-4.4,8.8-3.6
		c6.6,0.9,6.9,8,6.9,8L20.5,9.7z"/>
</g>
</svg>
