<?xml version="1.0" encoding="utf-8"?>
<!-- Generator: Adobe Illustrator 22.0.1, SVG Export Plug-In . SVG Version: 6.00 Build 0)  -->
<svg version="1.1" id="Layer_1" xmlns="http://www.w3.org/2000/svg" xmlns:xlink="http://www.w3.org/1999/xlink" x="0px" y="0px"
	 viewBox="0 0 20.7 20.7" style="enable-background:new 0 0 20.7 20.7;" xml:space="preserve">
<style type="text/css">
	.st0{fill:#231F20;}
</style>
<path class="st0" d="M9.5,13.8c0-0.4,0.4-0.8,0.8-0.8s0.8,0.4,0.8,0.8s-0.4,0.8-0.8,0.8S9.5,14.2,9.5,13.8z M8.7,8.4H7.6
	c0-0.7,0.3-1.4,0.8-1.9s1.2-0.7,1.9-0.7c1.3,0.1,2.4,1.2,2.5,2.5c0.1,1.1-0.6,2.1-1.6,2.5c-0.3,0.1-0.4,0.4-0.4,0.7v0.4H9.7v-0.4
	c0-0.7,0.4-1.4,1.1-1.7c0.6-0.2,1-0.8,0.9-1.5c0-0.8-0.7-1.4-1.4-1.4C9.9,6.8,9.5,7,9.2,7.3C8.9,7.6,8.7,8,8.7,8.4z M20.2,10.3
	c0-5.5-4.4-9.9-9.9-9.9c-5.5,0-9.9,4.4-9.9,9.9s4.4,9.9,9.9,9.9C15.8,20.2,20.2,15.8,20.2,10.3z"/>
</svg>
