<?xml version="1.0" encoding="utf-8"?>
<!-- Generator: Adobe Illustrator 22.0.1, SVG Export Plug-In . SVG Version: 6.00 Build 0)  -->
<svg version="1.1" id="Layer_1" xmlns="http://www.w3.org/2000/svg" xmlns:xlink="http://www.w3.org/1999/xlink" x="0px" y="0px"
	 viewBox="0 0 17.7 11.4" style="enable-background:new 0 0 17.7 11.4;" xml:space="preserve">
<style type="text/css">
	.st0{fill:#231F20;}
</style>
<title>Page 1</title>
<desc>Created with Sketch.</desc>
<title>Group 27</title>
<desc>Created with Sketch.</desc>
<g id="Symbols">
	<g id="taskbar_home" transform="translate(-324.000000, -19.000000)">
		<g id="Group-27" transform="translate(325.000000, 20.000000)">
			<g id="Oval-2">
				<circle class="st0" cx="1.3" cy="4.7" r="1.6"/>
				<path class="st0" d="M1.3,6.7c-1.1,0-2-0.9-2-2s0.9-2,2-2s2,0.9,2,2S2.3,6.7,1.3,6.7z M1.3,3.4C0.5,3.4-0.1,4-0.1,4.7
					C-0.1,5.4,0.5,6,1.3,6s1.3-0.6,1.3-1.3C2.6,4,2,3.4,1.3,3.4z"/>
			</g>
			<g id="Oval-2-Copy">
				<circle class="st0" cx="7.9" cy="4.7" r="1.6"/>
				<path class="st0" d="M7.9,6.7c-1.1,0-2-0.9-2-2s0.9-2,2-2s2,0.9,2,2S8.9,6.7,7.9,6.7z M7.9,3.4C7.1,3.4,6.5,4,6.5,4.7
					C6.5,5.4,7.1,6,7.9,6c0.7,0,1.3-0.6,1.3-1.3C9.2,4,8.6,3.4,7.9,3.4z"/>
			</g>
			<g id="Oval-2-Copy-2">
				<circle class="st0" cx="14.4" cy="4.7" r="1.6"/>
				<path class="st0" d="M14.4,6.7c-1.1,0-2-0.9-2-2s0.9-2,2-2s2,0.9,2,2S15.5,6.7,14.4,6.7z M14.4,3.4c-0.7,0-1.3,0.6-1.3,1.3
					c0,0.7,0.6,1.3,1.3,1.3c0.7,0,1.3-0.6,1.3-1.3C15.8,4,15.2,3.4,14.4,3.4z"/>
			</g>
		</g>
	</g>
</g>
</svg>
