<?xml version="1.0" encoding="utf-8"?>
<!-- Generator: Adobe Illustrator 22.0.1, SVG Export Plug-In . SVG Version: 6.00 Build 0)  -->
<svg version="1.1" id="Layer_1" xmlns="http://www.w3.org/2000/svg" xmlns:xlink="http://www.w3.org/1999/xlink" x="0px" y="0px"
	 viewBox="0 0 18.7 19" style="enable-background:new 0 0 18.7 19;" xml:space="preserve">
<style type="text/css">
	.st0{fill:#010002;}
</style>
<title>Page 1</title>
<desc>Created with Sketch.</desc>
<g>
	<path class="st0" d="M18.4,9.3c0.3-0.4,0.3-0.9-0.1-1.3L10,0.7c-0.4-0.3-1-0.3-1.4,0L0.3,8.4c-0.4,0.3-0.4,0.9,0,1.3l0.2,0.2
		c0.3,0.4,0.9,0.4,1.3,0.1l0.6-0.6v8.2c0,0.5,0.4,0.9,0.9,0.9h3.3c0.5,0,0.9-0.4,0.9-0.9v-5.7h4.2v5.7c0,0.5,0.4,0.9,0.9,0.9h3.5
		c0.5,0,0.9-0.4,0.9-0.9V9.5c0,0,0.2,0.2,0.4,0.3c0.2,0.2,0.7,0,1-0.3L18.4,9.3z"/>
</g>
</svg>
