<?xml version="1.0" encoding="utf-8"?>
<!-- Generator: Adobe Illustrator 22.0.1, SVG Export Plug-In . SVG Version: 6.00 Build 0)  -->
<svg version="1.1" id="Layer_1" xmlns="http://www.w3.org/2000/svg" xmlns:xlink="http://www.w3.org/1999/xlink" x="0px" y="0px"
	 viewBox="0 0 20.7 20.7" style="enable-background:new 0 0 20.7 20.7;" xml:space="preserve">
<g>
	<g>
		<path d="M8.5,2.9h-5c-0.2,0-0.3,0.1-0.4,0.2C2.9,3.2,2.9,3.3,2.9,3.5v13.7c0,0.2,0.1,0.3,0.2,0.4c0.1,0.1,0.3,0.2,0.4,0.2h5
			c0.2,0,0.3-0.1,0.4-0.2c0.1-0.1,0.2-0.3,0.2-0.4V3.5c0-0.2-0.1-0.3-0.2-0.4C8.8,2.9,8.6,2.9,8.5,2.9z"/>
		<path d="M17.6,3.1c-0.1-0.1-0.3-0.2-0.4-0.2h-5c-0.2,0-0.3,0.1-0.4,0.2c-0.1,0.1-0.2,0.3-0.2,0.4v13.7c0,0.2,0.1,0.3,0.2,0.4
			c0.1,0.1,0.3,0.2,0.4,0.2h5c0.2,0,0.3-0.1,0.4-0.2c0.1-0.1,0.2-0.3,0.2-0.4V3.5C17.8,3.3,17.8,3.2,17.6,3.1z"/>
	</g>
</g>
</svg>
