<?xml version="1.0" encoding="utf-8"?>
<!-- Generator: Adobe Illustrator 22.0.1, SVG Export Plug-In . SVG Version: 6.00 Build 0)  -->
<svg version="1.1" id="Layer_1" xmlns="http://www.w3.org/2000/svg" xmlns:xlink="http://www.w3.org/1999/xlink" x="0px" y="0px"
	 viewBox="0 0 20.7 20.7" style="enable-background:new 0 0 20.7 20.7;" xml:space="preserve">
<style type="text/css">
	.st0{fill:#231F20;}
</style>
<path class="st0" d="M10.3,13.5c-1.3,0-2.4-0.8-2.9-1.9C7,10.4,7.2,9,8.1,8.1C9,7.2,10.4,7,11.5,7.5c1.2,0.5,1.9,1.6,1.9,2.9
	c0,0.8-0.3,1.6-0.9,2.2S11.2,13.5,10.3,13.5z M19.1,8.5h-1.5c-0.2-0.7-0.4-1.3-0.8-1.9l1.1-1.1c0.2-0.2,0.4-0.6,0.4-0.9
	c0-0.3-0.1-0.6-0.4-0.9L17,2.8c-0.2-0.2-0.6-0.4-0.9-0.4s-0.6,0.1-0.9,0.4l-1.1,1.1c-0.6-0.4-1.3-0.6-1.9-0.8V1.6
	c0-0.7-0.6-1.2-1.2-1.2H9.7C9,0.3,8.5,0.9,8.5,1.6v1.5C7.8,3.3,7.1,3.5,6.5,3.9L5.5,2.8C5.2,2.6,4.9,2.5,4.6,2.5S3.9,2.6,3.7,2.8
	L2.8,3.7C2.6,3.9,2.5,4.3,2.5,4.6c0,0.3,0.1,0.6,0.4,0.9l1.1,1.1C3.5,7.1,3.3,7.8,3.1,8.5H1.6C0.9,8.5,0.3,9,0.3,9.7V11
	c0,0.7,0.6,1.2,1.2,1.2h1.5c0.2,0.7,0.4,1.3,0.8,1.9l-1.1,1.1c-0.2,0.2-0.4,0.6-0.4,0.9c0,0.3,0.1,0.6,0.4,0.9l0.9,0.9
	c0.2,0.2,0.6,0.4,0.9,0.4c0.3,0,0.6-0.1,0.9-0.4l1.1-1.1c0.6,0.4,1.3,0.6,1.9,0.8v1.5c0,0.7,0.6,1.2,1.2,1.2H11
	c0.7,0,1.2-0.6,1.2-1.2v-1.5c0.7-0.2,1.3-0.4,1.9-0.8l1.1,1.1c0.2,0.2,0.6,0.4,0.9,0.4c0.3,0,0.6-0.1,0.9-0.4l0.9-0.9
	c0.2-0.2,0.4-0.6,0.4-0.9c0-0.3-0.1-0.6-0.4-0.9l-1.1-1.1c0.4-0.6,0.6-1.3,0.8-1.9h1.5c0.7,0,1.2-0.6,1.2-1.2V9.7
	C20.3,9,19.8,8.5,19.1,8.5z"/>
</svg>
