<?xml version="1.0" encoding="utf-8"?>
<!-- Generator: Adobe Illustrator 22.0.1, SVG Export Plug-In . SVG Version: 6.00 Build 0)  -->
<svg version="1.1" id="Layer_1" xmlns="http://www.w3.org/2000/svg" xmlns:xlink="http://www.w3.org/1999/xlink" x="0px" y="0px"
	 viewBox="0 0 18.7 19" style="enable-background:new 0 0 18.7 19;" xml:space="preserve">
<style type="text/css">
	.st0{fill:#231F20;}
</style>
<title>Page 1</title>
<desc>Created with Sketch.</desc>
<path class="st0" d="M16.8,2.7C16.7,2.7,16.7,2.7,16.8,2.7L16.8,2.7h-5.6L6.9,0.5C6.7,0.4,6.4,0.4,6.3,0.6L4.7,2.7H2.1l0,0l0,0
	C1.7,2.7,1.4,3,1.4,3.4l0,0v10.2l0,0c0,0.2,0.1,0.5,0.3,0.6l0,0l0,0l0,0L9,18.6l0,0l0,0l0.4,0.2l0.3-0.2l0,0l7.3-4.4
	c0.2-0.1,0.3-0.4,0.3-0.6l0,0V3.4l0,0C17.4,3,17.1,2.7,16.8,2.7z M6.7,1L10,2.7H5.5L6.7,1z"/>
</svg>
