<?xml version="1.0" encoding="utf-8"?>
<!-- Generator: Adobe Illustrator 22.0.1, SVG Export Plug-In . SVG Version: 6.00 Build 0)  -->
<svg version="1.1" id="Layer_1" xmlns="http://www.w3.org/2000/svg" xmlns:xlink="http://www.w3.org/1999/xlink" x="0px" y="0px"
	 viewBox="0 0 378.4 309.7" style="enable-background:new 0 0 378.4 309.7;" xml:space="preserve">
<style type="text/css">
	.st0{fill:#231F20;}
	.st1{fill:#FFFFFF;}
	.st2{fill:#231F20;stroke:#333333;stroke-width:1.3237;stroke-linecap:round;stroke-miterlimit:10;}
</style>
<g>
	<g>
		<path class="st0" d="M324.6,306.4c-1.4,0-2.6-0.4-3.7-1.2c-4.2-0.6-7.5-5.9-9.8-9.9c-0.4-0.7-0.8-1.4-1.2-1.9
			c-7.8-11.9-15.2-22.5-22.5-32.3c-0.7-1-1.5-2-2.2-3c-3.5-4.8-7.2-9.7-11.2-14.1c-2.1-2.4-4.5-4.6-6.8-6.7c-2-1.9-4.1-3.9-6-5.9
			l-4.6-4.9c-6.8-7.2-13.8-14.6-20.8-21.7c-4-4-8.7-7.3-13.3-10.4c-4-2.7-8.1-5.6-11.8-9c-2.2-2.1-4.7-4-7.4-5.7l-0.1,0l-0.1-0.1
			c-2.3-2.6-5.4-4.5-8.4-6.4c-1-0.6-1.9-1.2-2.8-1.8c-0.4-0.2-1.9-1.3-1.9-1.3L190,170c-2.2-2.8-4.8-5.4-7.2-7.9
			c-5.7-5.8-11.5-11.9-13.9-20.4c-0.2-0.8-0.4-1.6-0.6-2.4l-0.1-0.6l0.6-0.2c5.1-1.8,10.3-3.8,15.9-5.9c-3.4-5.8-3.9-15.1-4.3-21.3
			c-0.1-0.9-0.1-1.7-0.2-2.5c-1.4-19.5-2.3-35.9-2.4-52.3c0-6.7,0.1-15.4,0.8-24.2c0.3-3.1,0.2-6.3,0.1-9.5
			c-0.1-4.1-0.3-8.4,0.4-12.4c0.7-3.8,3.9-8.1,8.5-8.5c0.2,0,0.3,0,0.5,0c4.4,0,6.5,5.9,7.2,7.8c0.1,0.3,0.2,0.6,0.2,0.8
			c0.4-1.5,1.1-2.9,2-4.2c1.8-2.5,4.5-5.7,7.7-5.7c1.3,0,2.6,0.6,3.8,1.7c2.5,2.4,3,5.4,3.4,8.5l0,0.2c0.7,4.3,1.3,8.7,1.9,13
			l0.2,1.4c0.6,4.5,0.9,9.1,1.2,13.5c0.3,5.3,0.7,10.8,1.7,16.2l0.1,0.4c0,0.3,0.1,0.6,0.1,0.7l0.2,0.4l-0.4,0.2c-1.1,0.9-2.1,2-3,3
			c1-0.9,2.2-1.6,3.6-2.2c1.8-0.8,3.4-1.2,4.8-1.2c2.5,0,5.6,1.4,5.7,8c0,1.2,0,2.4,0,3.6c0,0.9,0,1.8,0,2.7
			c0.1,1.2,0.1,2.4,0.2,3.6c0.2,2.1,0.4,4,0.9,5.8c0.4,1,0.8,2,1.3,3c0.4,0.9,0.8,1.8,1.2,2.8c0.9,2.3,1.6,4.8,2.4,8.1
			c2.9,2.8,4.9,6.7,6.3,9.9l0.1,0.3c2.5,5.5,5.1,11.2,6.5,17.1c4.7,11.9,11.2,23.5,19.8,35.4c9.3,12.7,23.2,21.3,36.7,29.6
			c5.6,3.4,11.4,7,16.7,10.8c8.3,5.9,16.6,12.1,24.7,18.1l3.8,2.8c2.4,1.8,4.9,3.7,7.2,5.5c6.4,4.9,12.9,10,19.9,14.1
			c0.9,0.5,1.4,1.4,1.3,2.4c0.1,0.3,0.1,0.6,0,0.9c-0.4,3.1-1.5,6.1-2.6,9c-0.4,1.2-0.9,2.3-1.3,3.5c-1.1,3.4-2.9,6.7-5.2,10.2
			c-5.2,7.6-11.2,14.7-18.4,21.8c-0.7,0.7-1.9,2-3.2,3.5C341.3,295.5,331.7,306.4,324.6,306.4L324.6,306.4z M210,79.8
			c0-0.2,0-0.5,0-0.7L210,79.8C210,79.7,210,79.7,210,79.8z M194.8,20.9c-0.4,8.1-0.4,16.2-0.4,24c0.4,7.1,0.7,13.1,0.7,19.3
			c0,0.2,0,0.7,0,1.4l0,0.4l0,0.2l0.1,0.5l0.3,1.2c0,0.2,0.1,0.6,0.2,1.2c0.1,0.8,0.3,2.7,0.7,4c0.1-0.6,0.2-1.2,0.3-1.8
			c-0.1-1.3-0.2-2.5-0.4-3.8c-0.2-2.3-0.5-4.6-0.7-7c-0.7-8.2-0.6-16.5-0.5-24.6c0-3.1,0.1-6.3,0.1-9.4c0-1.4-0.1-2.8-0.2-4.4
			C194.9,21.6,194.8,21.2,194.8,20.9z"/>
		<path class="st1" d="M205.2,1.3c1.1,0,2.2,0.4,3.4,1.5c2.4,2.3,2.8,5.2,3.3,8.4c0.7,4.8,1.4,9.6,2.1,14.4
			c1.4,9.9,1.1,19.9,2.9,29.8c0,0.2,0.2,1.1,0.2,1.2c-2.9,2.5-5.1,5.5-6.6,8.9c-1.4,3.3-1.3,6.4-1.1,9.7c0,1.6,0,3.1,0.1,4.7
			c0.1,0.1,0.1,0.2,0.1,0.4c0.1,4.8,0.1,9.6,0.4,14.5c0.4,5.8,0.8,11.6,1.2,17.4c0,0.4,0.4,0.6,0.7,0.6c0.3,0,0.6-0.2,0.6-0.6
			c-0.8-10-2-20.3-1.7-30.4c0.1-4.5-1.1-9.6,0.2-14c0.6-2.2,1.7-4.4,3.1-6.4c1.1-1.1,2.5-2.1,4.3-2.9c1.8-0.8,3.3-1.2,4.5-1.2
			c3.4,0,5,2.7,5.1,7.4c0.1,2.2,0,4.2,0.1,6.3c0.1,1.2,0.1,2.5,0.2,3.7c0.1,1.9,0.4,3.9,0.9,5.9c0.7,2,1.7,3.8,2.5,5.9
			c1,2.7,1.8,5.4,2.4,8.2c2.8,2.7,4.8,6.5,6.3,9.8c2.5,5.5,5.1,11.3,6.6,17.2c4.9,12.6,11.6,24.3,19.9,35.6
			c13.3,18.2,35.5,27.7,53.5,40.5c9.6,6.8,19,13.9,28.4,20.9c8.9,6.6,17.6,14,27.2,19.6c0.8,0.5,1,1.2,0.9,1.9
			c0.1,0.2,0.1,0.5,0,0.7c-0.5,4.2-2.5,8.3-3.9,12.3c-1.2,3.6-3,6.8-5.1,10c-5.4,7.8-11.6,15-18.3,21.7
			c-3.9,3.9-16.6,20.7-25.1,20.7c-1.2,0-2.4-0.4-3.4-1.2c-4.8-0.5-8.5-8.2-10.7-11.5c-7.2-11-14.6-21.8-22.6-32.3
			c-4.3-5.8-8.6-11.8-13.5-17.1c-4-4.4-8.7-8.3-12.8-12.7c-8.4-8.9-16.8-17.9-25.4-26.6c-7.5-7.7-17.3-12.2-25.1-19.4
			c-2.3-2.1-4.8-4.1-7.5-5.8c-3.1-3.5-7.6-5.8-11.4-8.4c-0.6-0.4-1.2-0.8-1.8-1.2c-7.4-9.3-17.6-16.1-21-28.1
			c-0.2-0.8-0.4-1.6-0.6-2.3c5.6-2,11.1-4.1,16.6-6.2c-4.2-6.4-4.3-18.2-4.7-24.2c-1.2-17.3-2.3-34.9-2.4-52.2
			c0-8,0.1-16.1,0.8-24.1c0.6-7.1-0.7-14.8,0.5-21.8c0.7-3.8,3.8-7.6,7.9-8c0.1,0,0.3,0,0.4,0c3.6,0,5.5,4.5,6.6,7.4
			c0.2,0.5,0.2,0.8,0.1,1.3c0,0.5,0,0.5-0.1,0.8c-0.9,10.7-1,21.8-1,32.6c0.3,6.4,0.7,12.8,0.7,19.3c0,0.2,0,0.9-0.1,1.8
			c0,0.1,0,0.2,0,0.2c0.1,0.6,0.3,1.2,0.4,1.8c0.2,0.9,0.5,6.1,1.7,6.9c0.3-1,0.5-2.3,0.7-3.7c-0.3-3.6-0.7-7.2-1.1-10.8
			c-1-11.3-0.4-22.7-0.4-34c0-6.2-1.7-14,2.3-19.5C199.8,4.2,202.4,1.3,205.2,1.3 M205.2,0C205.2,0,205.2,0,205.2,0
			c-3.5,0-6.4,3.4-8.3,6c-0.6,0.8-1,1.6-1.4,2.5c-1-2.6-3.2-7.2-7.4-7.2c-0.2,0-0.3,0-0.5,0c-4.9,0.5-8.4,5-9.1,9.1
			c-0.7,4-0.6,8.3-0.4,12.5c0.1,3.1,0.2,6.4-0.1,9.4c-0.8,8.8-0.9,17.5-0.8,24.2c0,16.4,1,32.8,2.4,52.3c0.1,0.7,0.1,1.6,0.2,2.5
			c0.3,6,0.9,14.9,4,20.9c-5.3,2-10.2,3.9-15.2,5.6l-1.1,0.4l0.3,1.1c0.2,0.9,0.4,1.7,0.6,2.4c2.5,8.7,8.4,14.8,14.1,20.7
			c2.4,2.5,5,5.1,7.2,7.9l0.1,0.2l0.2,0.1l0.7,0.5c0.4,0.3,0.7,0.5,1.1,0.7c0.9,0.6,1.9,1.3,2.9,1.9c3,1.9,6,3.8,8.3,6.3l0.1,0.1
			l0.2,0.1c2.7,1.7,5.2,3.6,7.3,5.6c3.7,3.4,7.8,6.3,11.9,9c4.5,3.1,9.2,6.3,13.2,10.3c7,7.1,14,14.5,20.8,21.7
			c1.5,1.6,3.1,3.2,4.6,4.9c1.9,2.1,4,4,6,5.9c2.3,2.2,4.6,4.4,6.7,6.7c4,4.4,7.6,9.3,11.2,14.1c0.7,1,1.5,2,2.2,3
			c7.3,9.8,14.7,20.3,22.5,32.3c0.3,0.5,0.8,1.2,1.2,1.9c2.4,4,5.7,9.4,10.1,10.2c1.2,0.8,2.5,1.2,3.9,1.2c7.5,0,17.1-11,22.9-17.6
			c1.3-1.5,2.4-2.8,3.2-3.5c7.2-7.2,13.3-14.3,18.5-21.9c2.4-3.5,4.1-6.9,5.3-10.3c0.4-1.1,0.8-2.3,1.3-3.5c1.1-2.9,2.3-6,2.7-9.1
			c0-0.3,0-0.7,0-1c0.1-1.2-0.5-2.3-1.6-2.9c-6.9-4-13.5-9.1-19.8-14c-2.4-1.8-4.8-3.7-7.2-5.5l-3.7-2.8c-8.1-6-16.4-12.2-24.7-18.2
			c-5.3-3.8-11.1-7.4-16.8-10.8c-13.4-8.2-27.2-16.8-36.5-29.4c-8.6-11.8-15.1-23.3-19.8-35.2c-1.5-5.9-4-11.6-6.5-17.1l-0.1-0.3
			c-1.4-3.1-3.4-7.1-6.3-9.9c-0.8-3.3-1.5-5.8-2.4-8c-0.4-1-0.8-1.9-1.2-2.8c-0.5-1-0.9-2-1.3-3c-0.4-1.7-0.7-3.5-0.9-5.6
			c0-1.2-0.1-2.5-0.2-3.7c0-0.9,0-1.8,0-2.7c0-1.2,0-2.4,0-3.6c-0.1-3.2-1-8.7-6.4-8.7c-1.3,0-2.7,0.3-4.3,0.9l-0.3-0.8
			c0-0.1-0.1-0.4-0.1-0.6c0-0.2-0.1-0.3-0.1-0.4c-1-5.3-1.3-10.8-1.7-16.2c-0.3-4.4-0.6-9-1.2-13.6l-0.2-1.2
			c-0.6-4.3-1.3-8.8-1.9-13.2l0-0.2c-0.5-3.1-0.9-6.3-3.6-8.9C208.2,0.6,206.7,0,205.2,0L205.2,0L205.2,0z"/>
	</g>
	<g>
		<path class="st0" d="M53.8,309c-7.2,0-16.7-10.9-22.4-17.4c-1.3-1.5-2.4-2.8-3.2-3.5c-7.1-7.1-13.1-14.1-18.2-21.6
			c-2.4-3.4-4.2-7-5.5-10.7c-0.4-1-0.8-2.1-1.2-3.1c-1.1-2.9-2.3-5.9-2.6-9c0-0.3,0-0.6,0-0.9c-0.1-1,0.4-1.9,1.3-2.4
			c7-4.1,13.5-9.1,19.9-14.1c2.4-1.8,4.8-3.7,7.2-5.5l3.8-2.8c8.1-6,16.4-12.2,24.7-18.1c5.3-3.8,11.1-7.4,16.7-10.8
			c13.4-8.3,27.3-16.8,36.7-29.6c13.7-18.6,22-36.5,26.1-56.3c1.3-6.3,2.2-12.8,3-19.1c0.4-3,0.8-6.2,1.2-9.3
			c1.6-10.9,2.4-22.1,2.3-33.3l0-0.4c0-0.6,0-1,0.2-2c0.7-2.1,1.5-3,2.9-4.6c1.5-1.6,3.2-3.4,5.3-4.2l1-0.4l-0.1,1.1
			c-0.4,3.4-1.1,6.7-1.9,10.1l-0.5,2c-0.8,3.4-0.7,6.9-0.6,10.5c0,0.1,0,0.2,0,0.4c-0.1-4.2-0.1-8.6,1.2-13.2c0.9-3,1.7-6.2,2-9.5
			l0,0l0-0.6l0.1-0.5c0-0.8,0.1-1.5,0.1-2.3l0-0.4c0.2-5.1,0.4-10.9,1.8-15.8c1-3.4,3.4-5.5,6.2-5.5c1.3,0,3.3,0.5,5.2,2.8l0.1,0.1
			l0.1,0.2l0,0.2c0,0.5-0.1,1-0.1,1.5c0.8-4.7,2-7.9,3.7-9.4l0.1-0.1l1-0.3l0.1,0c3.2,0.1,5.9,2,8.3,5.7c1,1.6,2,3.1,2,4.8
			c0,0.8-0.2,1.6-0.3,2.4c-0.1,0.6-0.3,1.1-0.3,1.6l0,0c0.2-0.7,0.3-1.4,0.5-2.1l0-0.1l0.2-0.3c0-0.1,0-0.1,0.1-0.2
			c0.2-0.4,0.3-0.8,0.4-1.1c0.5-1.6,0.9-3,3.6-3.2c0.2,0,0.3,0,0.5,0c2.2,0,4.2,1,5.8,2.9c1.9,2.2,3.4,5.2,4,8.1
			c0.1,0.5,0.2,1,0.2,1.7c1.1,3.5,1.6,7.7,1.4,12.2c-0.1,2.1-0.2,4.1-0.3,6.2c-0.4,8.8-0.9,17.9-1,26.8l0,0.3
			c-0.2,2.6-0.4,5.2-0.5,7.8l0,0.1l0,0.1c-0.3,1.2-0.6,2.4-0.9,3.6l0,0c1.3-3.2,2.9-6.4,4.3-9.1l0.1-0.2c1.9-3.7,4.4-5.6,7.4-5.6
			c0.8,0,1.7,0.1,2.6,0.4c2.1,0.6,3.8,1.8,5.1,3.5l0.1,0.2v0.2c0,4.2,0,8.6-0.2,13.2c-0.2,4.6-0.3,8.8,0,13l0,0.1l0,0.1
			c-0.5,2.8-1.1,5.7-1.3,8.8c-0.3,4.3-0.4,7.8-0.2,11c-0.1,1.8-0.2,3.6-0.2,5.6l-0.1,1.1c-0.1,1-0.2,1.9-0.4,2.9
			c-0.2,1.7-0.3,3.4-0.5,5c-0.5,5.2-1,10.5-2.4,15.6c-2.4,8.6-8.3,14.6-13.9,20.4c-2.4,2.5-5,5.1-7.2,7.9l-0.1,0.1
			c0,0-1.5,1-1.9,1.3c-0.9,0.6-1.9,1.2-2.8,1.8c-3,1.9-6.1,3.9-8.4,6.4l-0.1,0.1l-0.1,0c-2.7,1.7-5.2,3.7-7.4,5.7
			c-3.6,3.4-7.8,6.2-11.8,9c-4.6,3.1-9.3,6.3-13.3,10.4c-7,7.1-14,14.5-20.8,21.7l-4.6,4.9c-1.9,2-4,4-6,5.9
			c-2.3,2.2-4.6,4.4-6.8,6.7c-4,4.4-7.7,9.3-11.2,14.1c-0.7,1-1.5,2-2.2,3c-7.3,9.8-14.7,20.4-22.5,32.3c-0.4,0.5-0.8,1.2-1.2,1.9
			c-2.4,3.9-5.6,9.3-9.8,9.9C56.4,308.6,55.2,309,53.8,309C53.8,309,53.8,309,53.8,309z M149.9,55.4c0,2.5-0.2,4.9-0.5,7.3
			c0,0,0,0.1,0,0.1c0-0.1,0-0.1,0-0.2C149.7,60.3,150,57.8,149.9,55.4z M175.9,55c-0.3,2.5-0.5,5-0.6,7.4
			C175.3,59.9,175.6,57.5,175.9,55z M164.4,35.2c-0.3,1.6-0.7,3.3-1.1,4.9c-0.1,0.5-0.3,1-0.4,1.5c0.2-0.9,0.5-1.7,0.7-2.6
			C163.8,37.7,164.1,36.4,164.4,35.2z"/>
		<path class="st1" d="M171.5,1.9c3.4,0.1,5.8,2.4,7.8,5.4c0.9,1.3,1.9,2.9,1.9,4.5c0,1.3-0.6,2.7-0.6,4l0,0
			c-0.9,4.1-1.3,8.3-2,12.4c-0.9,5.8-1.6,11.6-2.2,17.4c-0.6,5.7-1.7,11.2-1.8,16.9c0,6,0.7,12,0.8,18.1c0,0.4,0.3,0.6,0.7,0.6
			c0.3,0,0.7-0.2,0.7-0.6c-0.1-5.8-0.8-11.6-0.8-17.4c0-6.5,1.4-12.9,1.9-19.4c0.4-4.9,1-9.7,1.8-14.5c0.9-5.1,1.3-10.4,2.7-15.4
			c0.1-0.1,0.1-0.2,0.2-0.3c0-0.1,0-0.1,0.1-0.2c0.8-2.1,0.7-3.7,3.4-3.9c0.2,0,0.3,0,0.5,0c2.1,0,4,1.1,5.3,2.7
			c1.8,2.1,3.3,5,3.9,7.8c0.1,0.6,0.2,1.1,0.2,1.7c1.2,3.7,1.6,7.8,1.4,12.1c-0.5,11-1.1,22-1.3,33c0,0.1,0,0.2,0,0.3
			c-0.2,2.6-0.4,5.2-0.5,7.8c-2,7.3-2.4,15-1.1,22.5c-0.1,0.1-0.2,0.2-0.2,0.3c-2.2,7.8-7.3,14.6-7.5,22.9c0,0.4,0.3,0.6,0.6,0.6
			c0.3,0,0.7-0.2,0.7-0.6c0.2-8.2,5.3-14.9,7.5-22.5c0-0.1,0-0.1,0-0.2c0.2-0.1,0.3-0.4,0.2-0.6c-1.1-6.1-1-12.3,0.2-18.3
			c1.4-3.3,3-6.5,4.4-9.3c1.5-3.1,3.7-5.2,6.8-5.2c0.8,0,1.6,0.1,2.5,0.4c2.1,0.6,3.6,1.8,4.7,3.3c0,4.4,0,8.8-0.2,13.2
			c-0.2,4.4-0.3,8.7,0,13c-0.6,2.9-1.1,5.9-1.3,8.8c-0.3,3.7-0.4,7.4-0.2,11.1c-0.1,1.9-0.2,3.7-0.2,5.6c-0.2,1.3-0.3,2.6-0.5,4
			c-0.8,6.8-1,13.9-2.9,20.6c-3.4,12.1-13.6,18.9-21,28.1c-0.6,0.4-1.2,0.8-1.8,1.2c-3.8,2.6-8.2,4.9-11.4,8.4
			c-2.7,1.7-5.3,3.7-7.5,5.8c-7.7,7.2-17.5,11.7-25.1,19.4c-8.6,8.7-17,17.7-25.4,26.6c-4.1,4.4-8.7,8.2-12.8,12.7
			c-4.9,5.4-9.1,11.4-13.5,17.1c-7.9,10.6-15.3,21.3-22.6,32.3c-2.2,3.4-6,11.1-10.7,11.5c-1,0.8-2.2,1.2-3.4,1.2
			c-8.5,0-21.2-16.8-25.1-20.7c-6.7-6.6-12.8-13.8-18.2-21.5c-2.3-3.3-4.1-6.8-5.4-10.6c-1.4-3.9-3.3-7.8-3.8-12c0-0.3,0-0.5,0-0.7
			c-0.1-0.7,0.2-1.4,0.9-1.9c9.6-5.6,18.3-13,27.2-19.6c9.4-7,18.9-14.1,28.4-20.9c18-12.8,40.2-22.3,53.5-40.5
			c12.7-17.4,21.8-35.4,26.2-56.5c2-9.4,2.8-18.9,4.2-28.4c1.6-10.9,2.4-22.3,2.3-33.4c0-0.8-0.1-1.1,0.2-2.3
			c0.6-1.8,1.3-2.7,2.7-4.3c1.3-1.5,3.1-3.3,5-4c-0.4,4.1-1.5,7.9-2.4,11.9c-1,4.1-0.7,8.2-0.6,12.4c0.1,4.8-1,9.5-1,14.3
			c0,0.4,0.3,0.6,0.7,0.6c0.3,0,0.7-0.2,0.7-0.6c-0.1-4.8,1.1-9.5,1-14.3c-0.1-5-0.2-9.5,1.2-14.4c1-3.4,1.8-6.8,2.1-10.2
			c0,0,0,0,0,0c0,0,0,0,0,0c0.1-0.9,0.1-1.9,0.2-2.8c0.2-5.2,0.4-11.1,1.8-16c0.9-3.1,3.1-5.1,5.6-5.1c1.6,0,3.2,0.8,4.7,2.6
			c0,0,0,0,0,0c-0.3,4.1-0.1,8.3-0.5,12.5c-0.6,6-1.4,12.1-3,17.9c-1.3,5-3,10-3.4,15.2c-0.4,5.8,0.4,11.6-0.3,17.5
			c0,0.4,0.3,0.6,0.6,0.6c0.3,0,0.7-0.2,0.7-0.6c0.7-5.8-0.2-11.6,0.3-17.5c0.4-5.5,2.3-10.7,3.7-16c1.2-4.8,1.9-9.7,2.4-14.6
			c0.5-4.1,0.4-8.2,0.6-12.3c0-0.3,0-0.6,0.1-0.9c0.2-1.4,1.1-6.9,3.5-9.1C171,2.1,171.3,2,171.5,1.9 M153.8,30.8
			C153.8,30.8,153.8,30.8,153.8,30.8C153.8,30.8,153.8,30.8,153.8,30.8C153.8,30.8,153.8,30.8,153.8,30.8 M171.3,0.6l-0.2,0.1
			l-0.4,0.1l-0.4,0.1L170.1,1l-0.2,0.2c-1.4,1.3-2.5,3.5-3.3,6.9c-1.9-2-3.9-2.5-5.2-2.5c-3.1,0-5.8,2.4-6.8,6
			c-1.4,5-1.7,10.8-1.9,16l0,0.4c0,0.5,0,1-0.1,1.5l-0.8,0.3c-2.2,0.8-4,2.7-5.6,4.4c-1.4,1.6-2.3,2.6-3,4.7l0,0.1l0,0.1
			c-0.2,1.1-0.2,1.6-0.2,2.2c0,0.1,0,0.2,0,0.4c0,11.2-0.7,22.4-2.3,33.2c-0.5,3.1-0.9,6.3-1.2,9.3c-0.8,6.2-1.6,12.7-2.9,19
			c-4.1,19.7-12.4,37.5-26,56c-9.3,12.6-23.1,21.2-36.5,29.4c-5.6,3.5-11.4,7-16.8,10.8c-8.3,5.9-16.7,12.2-24.7,18.2l-3.7,2.8
			c-2.4,1.8-4.9,3.7-7.2,5.5c-6.3,4.9-12.9,10-19.8,14c-1.1,0.6-1.7,1.7-1.6,2.9c-0.1,0.3-0.1,0.7,0,1c0.4,3.2,1.6,6.2,2.7,9.1
			c0.4,1,0.8,2.1,1.2,3.1c1.3,3.8,3.2,7.4,5.6,10.9c5.2,7.5,11.2,14.6,18.3,21.7c0.7,0.7,1.9,2,3.2,3.5c5.8,6.6,15.4,17.6,22.9,17.6
			c1.5,0,2.8-0.4,3.9-1.2c4.4-0.7,7.7-6.2,10.1-10.2c0.4-0.7,0.8-1.4,1.2-1.9c7.8-11.9,15.2-22.5,22.5-32.3c0.7-1,1.5-2,2.2-3
			c3.5-4.7,7.2-9.7,11.2-14.1c2.1-2.3,4.5-4.6,6.7-6.7c2-1.9,4.1-3.9,6-5.9c1.5-1.6,3.1-3.2,4.6-4.9c6.8-7.2,13.8-14.6,20.8-21.7
			c3.9-4,8.6-7.2,13.2-10.3c4-2.8,8.2-5.6,11.9-9c2.2-2,4.6-3.9,7.3-5.6l0.2-0.1l0.1-0.1c2.3-2.5,5.3-4.5,8.3-6.3
			c0.9-0.6,1.9-1.2,2.9-1.9c0.4-0.2,0.7-0.5,1.1-0.7l0.7-0.5l0.2-0.1l0.1-0.2c2.2-2.8,4.7-5.4,7.2-7.9c5.7-5.9,11.6-12,14.1-20.7
			c1.4-5.1,1.9-10.5,2.4-15.7c0.2-1.7,0.3-3.4,0.5-5c0.1-1,0.2-1.9,0.4-2.9l0.1-1l0-0.1l0-0.1c0-2,0.1-3.8,0.2-5.5l0-0.1l0-0.1
			c-0.2-3.2-0.1-6.7,0.2-11c0.2-3,0.8-5.9,1.3-8.7l0-0.2l0-0.2c-0.3-4.1-0.2-8.3,0-12.9c0.2-4.6,0.2-9,0.2-13.2l0-0.4l-0.3-0.4
			c-1.3-1.8-3.2-3.1-5.4-3.7c-1-0.3-1.9-0.5-2.8-0.5c-3.3,0-6,2-8,6l-0.1,0.2c-0.7,1.3-1.4,2.7-2.1,4.2c0.1-1.9,0.3-3.9,0.4-6.3
			l0-0.1l0-0.2l0,0l0,0c0.1-8.9,0.6-18,1-26.8c0.1-2.1,0.2-4.1,0.3-6.2c0.2-4.6-0.2-8.8-1.4-12.4c0-0.7-0.1-1.2-0.2-1.7
			c-0.6-3-2.2-6.1-4.2-8.4c-1.8-2-4-3.1-6.3-3.1c-0.2,0-0.4,0-0.6,0c-2.1,0.2-3.1,1.1-3.6,2.2c-0.4-1.5-1.3-2.8-1.9-3.7
			c-2.6-3.9-5.5-5.8-8.9-6L171.3,0.6L171.3,0.6z"/>
	</g>
	<line class="st2" x1="189.3" y1="193.6" x2="189.3" y2="216"/>
	<line class="st2" x1="202.5" y1="199" x2="205.8" y2="210.6"/>
	<line class="st2" x1="177.4" y1="199.6" x2="171.5" y2="210.1"/>
	<line class="st2" x1="121.7" y1="27.5" x2="105.9" y2="11.7"/>
	<line class="st2" x1="108.5" y1="33" x2="98" y2="27.1"/>
	<line class="st2" x1="125.9" y1="14.9" x2="122.7" y2="3.3"/>
	<line class="st2" x1="244.1" y1="27.9" x2="260" y2="12"/>
	<line class="st2" x1="238.6" y1="14.7" x2="244.5" y2="4.2"/>
	<line class="st2" x1="256.7" y1="32.1" x2="268.3" y2="28.9"/>
</g>
</svg>
