<svg xmlns="http://www.w3.org/2000/svg" viewBox="0 0 360 360"><title>illustr--Artboard 3</title><path d="M265.9,91.1c-1.3-.7-2.6-1.1-6.2-1.1H100.3c-3.6,0-4.9.4-6.2,1.1a7.2,7.2,0,0,0-3,3c-.7,1.3-1.1,2.6-1.1,6.2V259.7c0,3.6.4,4.9,1.1,6.2a7.2,7.2,0,0,0,3,3c1.3.7,2.6,1.1,6.2,1.1H259.7c3.6,0,4.9-.4,6.2-1.1a7.2,7.2,0,0,0,3-3c.7-1.3,1.1-2.6,1.1-6.2V100.3c0-3.6-.4-4.9-1.1-6.2A7.2,7.2,0,0,0,265.9,91.1ZM269,259.7c0,3.7-.4,4.7-1,5.7a5.5,5.5,0,0,1-2.6,2.6c-1,.6-2,1-5.7,1H100.3c-3.7,0-4.7-.4-5.7-1a5.5,5.5,0,0,1-2.6-2.6c-.6-1-1-2-1-5.7V100.3c0-3.7.4-4.7,1-5.7A5.5,5.5,0,0,1,94.6,92c1-.6,2-1,5.7-1H259.7c3.7,0,4.7.4,5.7,1a5.5,5.5,0,0,1,2.6,2.6c.6,1,1,2,1,5.7Z" style="fill:#afadad"/><path d="M339.9,245.5l-2.6-.9-7.6-3.6c-5.5-2.7-10.5-4.9-15.3-6.8s-9.6-3.5-13.7-4.8a37.5,37.5,0,0,1-6-2.4,23,23,0,0,0-3.4-1.2l-2.8-1-3.3-1.5a38.6,38.6,0,0,0-9.1-3.3l-2.5-.3-3-.5a18.9,18.9,0,0,1-3.4-.9l-3.3-.8c-1.7-.4-3.5-.6-5.2-.9a44.5,44.5,0,0,1-8.1-1.5l-2.3-.6a27.7,27.7,0,0,0-8-1.6,12.1,12.1,0,0,0-3.8.6l-2.2,1a26.8,26.8,0,0,1-3,1.2l-5.6,1.1-1.2.2a17.8,17.8,0,0,1-4.1.4l-4.6-.2h-1.1l-4-1.3-.9-.4,1.1-.6c2.8-1.5,5.8-3,8.6-4.6l.5-.2c2.6-1.4,5.4-2.9,5.9-5.8h0a11,11,0,0,1,.2-1.8c0-.4.1-.7.1-1.1a6.3,6.3,0,0,0-.6-2.7l-.6-2a5.6,5.6,0,0,1,.3-2.4h.1a2.5,2.5,0,0,1,.2-.7l.2-.4c-.1-3.3-1.1-5.5-3-6.8h-.1a8.2,8.2,0,0,0-2.5.6,8.3,8.3,0,0,1-2.1.6l-1.5.3,1-1.1a21.2,21.2,0,0,0,2.6-3.5,19,19,0,0,1,3.4-4.2h.1l.2-.2.6-.2,1-.4,2.8-1.5h.1l3.7-1.9h0l.9-.4h0c-2.2.9-4.4,2.1-6.5,3.2l-3,1.6a3.4,3.4,0,0,0-1.4.9h0l-.7.6a3.8,3.8,0,0,1-.4,1.3h-.1l-.4.6-1.8,2.8h0a29.4,29.4,0,0,1-8,5.7,6.3,6.3,0,0,1-2.7.6,5.9,5.9,0,0,1-4.2-1.8,8.3,8.3,0,0,1-2.2-5.9c0-2.1.9-4.9,2.7-8.6h.1l.6-.8h.1a22,22,0,0,0,2.3-3.7,11.1,11.1,0,0,1,.7-1.6v-.3l-.2.4c-1,2.1-1.9,4.4-3.7,6a6.1,6.1,0,0,1-4.4,1.6l-2.2-.2h-1.1l-.8-.2-1.4-.4h-.3c-2.2-1.6-3.4-5.9-1.4-10.1.4-1,.9-2,1.4-3a14.1,14.1,0,0,1,2.7-4,7.9,7.9,0,0,1,1.3-1.3,16.2,16.2,0,0,1,5.3-2.5l2.5-.8a22.5,22.5,0,0,1,8.3-1.5h.2a13.4,13.4,0,0,1,4.5,1l3.3.9c5.4.6,10,2.5,14.9,4.5l1.8.8a32.2,32.2,0,0,1,5.5,3l3.6,2.1,2.4,1.2q2.5,1.2,5.1,2.7l.9.5a33.4,33.4,0,0,0,8.4,4.3,46.6,46.6,0,0,0,7.3,1.3l2.8.4,9.5,1.5,11.5,1.9,7.3,1.1a120.8,120.8,0,0,0,14.7,2,60.1,60.1,0,0,1,6.3.8l3.5.5,7.1.6,3.6.3c3.8.3,7.3.4,10.6.5h.5v.7c1.9,11.2,3.9,22.8,1.9,34.2a71.3,71.3,0,0,1-11,26.5l-.2.3ZM204.8,161.7a13.3,13.3,0,0,1,4.5.7,2.7,2.7,0,0,1,1.4,1.2l.2.4-.3.2a7.5,7.5,0,0,0-1.5,2l-.9,2h0a27,27,0,0,1,1.8-2.5,16.6,16.6,0,0,1,1.8-2.4h.2l-1,.2h-.4V163a10.2,10.2,0,0,0-5.3-1.4l-2.7.3h0Zm17-3.3a9,9,0,0,1-1.9,1.5,9.5,9.5,0,0,0,2-1.5Z" style="fill:#333031"/><path d="M214.4,152.5c2.8,0,5,1.5,7.8,1.8,5.9.7,11.1,3.1,16.5,5.3,3.3,1.4,6,3.6,9.1,5.2s5,2.4,7.4,3.8,6,3.8,9.5,4.8a70.2,70.2,0,0,0,10.2,1.8c7,1,13.9,2.4,20.9,3.4s14.7,2.7,22.1,3.1c3.3.2,6.4.9,9.7,1.3s7.2.6,10.8.9l10.6.5c2,11.3,4,22.9,2,34.3A69.1,69.1,0,0,1,340.1,245l-2.6-.9c-2.5-1.1-5.1-2.3-7.6-3.6-5-2.4-10.1-4.8-15.3-6.8s-9.1-3.3-13.7-4.8a43.6,43.6,0,0,1-6-2.3c-2-1-4.2-1.4-6.2-2.3-3.9-1.6-8.4-4.1-12.5-4.8-1.8-.3-3.7-.4-5.5-.8s-4.4-1.3-6.7-1.7c-4.4-.9-9-1.2-13.3-2.3s-6.9-2.3-10.4-2.3a13.2,13.2,0,0,0-3.9.6c-1.8.6-3.4,1.7-5.2,2.2l-6.8,1.3a18.1,18.1,0,0,1-4,.4c-1.9,0-3.7-.2-5.6-.3a19.8,19.8,0,0,1-3.9-1.3l8.9-4.6c2.9-1.6,6-3.1,6.6-6.5V204c-.1-.9.3-1.8.3-2.8s-.9-3.1-1.2-4.8a5.3,5.3,0,0,1,.2-2.2V194h0l.5-1.2c-.1-2.9-.8-5.8-3.4-7.4h-.2c-1.5,0-3.1,1-4.7,1.2a15.2,15.2,0,0,0,2.6-3.5,19.6,19.6,0,0,1,3.4-4.2h.1l1.6-.6,2.9-1.6,3.7-1.9.9-.4c.5-.2.3-1-.1-1h-.2c-3.4,1.4-6.5,3.2-9.7,4.8a8.5,8.5,0,0,0-1.4,1,3,3,0,0,0-.8.8c-.1.5-.3.9-.4,1.3l-.5.8a21.1,21.1,0,0,1-1.8,2.7,25.9,25.9,0,0,1-7.8,5.5,5.7,5.7,0,0,1-2.5.6c-3.4,0-6-3.5-5.9-7.2s1.4-5.9,2.7-8.4l.7-.9h0a18.3,18.3,0,0,0,2.3-3.8,15.4,15.4,0,0,0,.8-1.9l1.8-2.6a24.6,24.6,0,0,1,1.7-2.2,15.7,15.7,0,0,1,3-1.2c2.6-.9,5.1-1.7,7.1-3.7.4-.3,0-.8-.4-.8l-.3.2c-2.6,2.5-6.3,2.9-9.3,4.4l-1.3.3c0-.1-.1-.2-.2-.3a10.7,10.7,0,0,0-5.5-1.4l-2.8.3c-.6.1-.5,1,0,1h.1l2.3-.2a12.1,12.1,0,0,1,4.3.7c.6.3,1,.5,1.2,1a6.4,6.4,0,0,0-1.6,2c-1.5,2.8-2.4,6.2-4.8,8.3a5.3,5.3,0,0,1-4,1.5l-3.1-.3h-.1a15.5,15.5,0,0,0-2.3-.6c-2.7-1.9-2.7-6.5-1.3-9.5.5-.9.9-1.9,1.4-2.9a14.1,14.1,0,0,1,2.7-4l1.2-1.3c2.1-1.6,5.3-2.2,7.7-3.2a22.3,22.3,0,0,1,8.1-1.4h.2m0-1h-.2a23.9,23.9,0,0,0-8.5,1.5l-2.4.9a14.6,14.6,0,0,0-5.5,2.5l-1.4,1.3a20.5,20.5,0,0,0-2.8,4.2l-1.4,3a11.1,11.1,0,0,0-.9,5.7,6.7,6.7,0,0,0,2.5,5l.3.2h.2l1.4.3.8.3h3.4a6.7,6.7,0,0,0,3.4-.7c-1.4,3.2-2.2,5.7-2.2,7.6a8.4,8.4,0,0,0,2.4,6.2,6.2,6.2,0,0,0,4.5,2,6.6,6.6,0,0,0,3-.7,37.8,37.8,0,0,0,5.1-3.1l2.1-.4,2.2-.6a7.3,7.3,0,0,1,2.2-.6c1.7,1.2,2.6,3.2,2.7,6.3l-.2.3a2.5,2.5,0,0,1-.2.7h-.1v.2a6.9,6.9,0,0,0-.3,2.6,10.3,10.3,0,0,0,.7,2.1,6,6,0,0,1,.5,2.6c0,.3-.1.7-.1,1a11.1,11.1,0,0,0-.2,1.9h0c-.5,2.6-3,3.9-5.7,5.4l-.4.2-8.7,4.6h-.1l-1.9,1,2,.8a17,17,0,0,0,4,1.3h1.2a34.4,34.4,0,0,0,4.6.3,18.7,18.7,0,0,0,4.2-.4l1.2-.2,5.6-1.2a11.7,11.7,0,0,0,3.1-1.2,14.5,14.5,0,0,1,2.2-.9,10.5,10.5,0,0,1,3.6-.6,27.8,27.8,0,0,1,7.9,1.6l2.3.6a72.3,72.3,0,0,0,8.1,1.5l5.3.9,3.2.8a33.7,33.7,0,0,0,3.4.9l3.1.5,2.4.3a37.9,37.9,0,0,1,9,3.3l3.3,1.5a15.2,15.2,0,0,0,2.8.9l3.4,1.3a51.8,51.8,0,0,0,6.1,2.4c4,1.3,8.8,2.8,13.6,4.7s9.8,4.1,15.3,6.8l7.6,3.6,2.7,1,.7.2.4-.6A70.8,70.8,0,0,0,352,218.9c2-11.5,0-23.1-1.9-34.4v-1.1H349c-3.3-.1-6.7-.2-10.5-.5l-3.7-.3c-2.3-.1-4.7-.3-7-.6l-3.5-.5c-2-.3-4.2-.7-6.3-.8a146,146,0,0,1-14.8-1.9c-2.4-.5-4.8-.9-7.3-1.2l-11.4-1.9-9.5-1.5-2.8-.4a41.6,41.6,0,0,1-7.2-1.3,36.7,36.7,0,0,1-8.4-4.2l-.8-.5c-1.7-1-3.5-1.9-5.2-2.7l-2.4-1.2-3.6-2.1a32.6,32.6,0,0,0-5.5-3.1l-1.8-.7c-4.7-2-9.6-4-15-4.6l-3.3-.9a13.5,13.5,0,0,0-4.6-1Z" style="fill:#fff"/><path d="M201.1,191.1a9.6,9.6,0,0,1-2.7-.4,5,5,0,0,1-1.3-.3h-.4c-3-.8-3.6-4.4-4-6.8v-.4a8.1,8.1,0,0,1,.3-3.5c.1-.4.1-.8.2-1.2s.1-.4.1-.6a3.2,3.2,0,0,1,.8-2.3l.6-.3.7-.2h.3l1.2.4h5.4l.9.3a1.1,1.1,0,0,1,.4,1.1,3.3,3.3,0,0,1-.5,1.2,1.4,1.4,0,0,0-.2.6,9.7,9.7,0,0,0-.8,4.3,10.9,10.9,0,0,0,.3,2.6,4.6,4.6,0,0,0,.7,1.6,11.5,11.5,0,0,1,.6,1.7,1.6,1.6,0,0,1-.2,1.5,2.9,2.9,0,0,1-2.3.8Z" style="fill:#333031"/><path d="M195.3,175.5h.2l1.6.5h4.1l1-.2.6.2a.5.5,0,0,1,.2.6,12.2,12.2,0,0,1-.7,1.7,11.6,11.6,0,0,0-.8,4.5,12.4,12.4,0,0,0,.3,2.7c.2,1.2,1.1,2.2,1.4,3.3s-.8,1.7-2.1,1.7a14.3,14.3,0,0,1-2.6-.3l-1.4-.5h-.3c-2.7-.7-3.3-4.4-3.7-6.7s.2-3,.5-4.6,0-2,.7-2.6l.5-.2h.1l.4-.2m0-1h0a1.6,1.6,0,0,0-.9.3,1,1,0,0,0-.7.4,3.7,3.7,0,0,0-1,2.6,4.3,4.3,0,0,1-.1.5,5,5,0,0,1-.2,1.2,10.9,10.9,0,0,0-.3,3.7v.3c.4,2.4,1.1,6.4,4.4,7.3h.4l1.3.3a15.5,15.5,0,0,0,2.8.4,3.4,3.4,0,0,0,2.7-1,1.9,1.9,0,0,0,.3-1.9,5.6,5.6,0,0,0-.7-1.8,4.7,4.7,0,0,1-.6-1.5,11.6,11.6,0,0,1,.4-6.6l.3-.5a5.8,5.8,0,0,0,.5-1.4,1.5,1.5,0,0,0-.6-1.6,1.9,1.9,0,0,0-1.2-.4H197l-1.3-.4Z" style="fill:#fff"/><path d="M202.3,204.4l-1.3-.2c-2.4-.8-5.1-4-6.4-7.5s-.9-5.1.1-6.7l.4-.4h.5a19.7,19.7,0,0,0,5,1.1h3l2.2.2h.1a2.1,2.1,0,0,0,1.2.3h1.6a11.2,11.2,0,0,0,2.6-1.1l.5-.2,1.8-1h.1l1.5-.6,2.4-.9a30.4,30.4,0,0,1,3.5-1.3l1-.2,1.2.3a6.5,6.5,0,0,1,1.8,2.9l.3.7a4.5,4.5,0,0,1,.5,3c-.8,3.9-3,5.2-6.2,6.8l-1.6.8a40.3,40.3,0,0,1-7.7,3.2l-3.3.4h-1.6l-1.3.2a10.8,10.8,0,0,1-1.9.3Z" style="fill:#333031"/><path d="M222.1,186.2l.9.3c.9.5,1.6,2.5,1.9,3.3a3.7,3.7,0,0,1,.5,2.7c-.7,3.7-2.8,4.9-6,6.5s-5.9,3.1-9.1,3.9a40.7,40.7,0,0,1-4.9.5c-1,.1-2.1.5-3.1.5l-1.2-.2c-4-1.3-8.4-9.5-5.9-13.4,0-.1.1-.2.2-.3a18.9,18.9,0,0,0,5.1,1.2h3.1l2.1.2a2.9,2.9,0,0,0,1.4.3h1.7a13,13,0,0,0,3.2-1.4l1.8-1,1.6-.5c1.9-.7,4-1.6,5.9-2.2l.8-.2m0-1h0l-1.1.2-3.6,1.3-2.4,1-1.5.5h-.2l-1.7.9-.5.3a10,10,0,0,1-2.5,1h-1.5l-1-.2h-.2l-2.3-.2h-3a21,21,0,0,1-4.9-1.1l-.4-.2-.4.3c-.3.1-.4.3-.6.5-1.1,1.8-1.2,4.3-.2,7.1s4.1,7,6.7,7.9l1.5.2a12,12,0,0,0,2-.3l1.2-.2h1.6a19.9,19.9,0,0,0,3.4-.5,31.9,31.9,0,0,0,7.9-3.2l1.5-.7c3.3-1.6,5.7-3.1,6.5-7.2a4.5,4.5,0,0,0-.6-3.3c-.1-.2-.1-.4-.2-.6s-1.1-2.6-2.1-3.2a2.3,2.3,0,0,0-1.4-.4Z" style="fill:#fff"/><path d="M209.2,215.5h-.8a7,7,0,0,1-3.7-1.4l-.4-.3-.7-.4a18.5,18.5,0,0,1-3.7-3.1,6.1,6.1,0,0,1-.6-4.4,2.3,2.3,0,0,1,.5-1,.9.9,0,0,1,.3-.7,1.2,1.2,0,0,1,.8-.4h.5l.6.2h1.1a16.7,16.7,0,0,0,3.9-.6l1.2-.2,1.3-.3a43.1,43.1,0,0,0,4.9-1.1A17.3,17.3,0,0,0,218,200a17.8,17.8,0,0,1,4.4-2.1h1.1a2.5,2.5,0,0,1,2.5,1.7c1,2.3,0,6.4-1.5,8s-4.2,2.9-6.4,4.1l-3.2,1.7-.6.4c-1.7,1-3,1.8-5.1,1.8Z" style="fill:#333031"/><path d="M223.5,198.3c3.7,0,2.5,6.9.6,8.8s-6.4,3.9-9.4,5.7-3.3,2.2-5.5,2.2h-.8a6.1,6.1,0,0,1-3.4-1.3l-.4-.3c-1.3-.9-3.3-2-4.3-3.4a5.5,5.5,0,0,1-.5-4,1.6,1.6,0,0,1,.5-.9c0-.4.2-.8.6-.8h.5l.4.2H203a26.6,26.6,0,0,0,5.3-.9,61.9,61.9,0,0,0,6.2-1.3c2.8-.9,5.2-3.2,8-3.9h1m0-1h-1.3a22.3,22.3,0,0,0-4.4,2.1,20.2,20.2,0,0,1-3.6,1.8,37.2,37.2,0,0,1-4.8,1.1l-1.3.3-1.2.2a15.9,15.9,0,0,1-3.7.6h-1l-.8-.2h-.5a1.3,1.3,0,0,0-1.1.5,1.4,1.4,0,0,0-.5.8,2.8,2.8,0,0,0-.5,1.1,6.7,6.7,0,0,0,.7,4.8,15.2,15.2,0,0,0,3.9,3.2l.7.4h.1l.3.2a6.5,6.5,0,0,0,3.9,1.5h.8a9.4,9.4,0,0,0,5.3-1.9l.7-.4,3.1-1.7a21.3,21.3,0,0,0,6.5-4.2c1.6-1.6,2.7-6,1.7-8.5a3.1,3.1,0,0,0-3-2Z" style="fill:#fff"/><path d="M21.1,245.1c-7.2-6.8-12-14.3-14.2-22.3S5.2,203.7,9.3,193v-.3l1.2-.2,1.4-.2,5.4-1a32.7,32.7,0,0,1,4.5-.4h2.8l5.6-.8,7.8-1.2a61.7,61.7,0,0,1,6.2-.9c2.3-.3,4.7-.6,7-1.1s4.4-.8,6.5-1.1,4.6-.6,6.9-1.1l7.4-1.6c5.3-1.1,10.9-2.3,16.3-3.8a60.5,60.5,0,0,1,12.6-2.3h1.2l4.9-.4a10.1,10.1,0,0,0,1.9-1.7l1.5-1.5a16.4,16.4,0,0,1,2.2-1.4l1.6-1a39.7,39.7,0,0,0,8.5-7.4l.9-1.1c2.5-3.2,5.4-6.9,9.8-6.9l1.5.2a22.9,22.9,0,0,1,2.8.9l1.3.6a10.2,10.2,0,0,0,3.2.5l2.9-.2,3.2-.7a14.5,14.5,0,0,1,4.7-.9h.1a23.4,23.4,0,0,1,5.4.9,16.5,16.5,0,0,0,3.2.7,16.9,16.9,0,0,1,3.9,1,8.9,8.9,0,0,1,6.5,4.6,14.3,14.3,0,0,1,1.1,10,12.5,12.5,0,0,1-1.7,3.5,11.2,11.2,0,0,1,.6,4.5c-.3,3.4-2.7,6.1-4.7,8.4v.3a4.9,4.9,0,0,0-.1,1.7c0,.2.1.4.1.6a5.9,5.9,0,0,1,.2,1.3,8.5,8.5,0,0,1-1.3,4.7l-.7.9a6,6,0,0,0-1.3,2.8c0,.4.1.9.1,1.3a5.2,5.2,0,0,1,.2,1.1,12.2,12.2,0,0,1-.6,4.6c-1,2.5-3.7,4.5-8.1,6.1a38.3,38.3,0,0,1-11.9,2.1h-2.3c-3.4,0-6.8-.2-10.2-.4s-6.7-.3-10.1-.3h-4.1a102.6,102.6,0,0,0-16.2,1.8l-2.5.5-3.5.6-.2.2a172.1,172.1,0,0,1-18.3,8L72.6,229a243.2,243.2,0,0,1-24.1,7.9,21.5,21.5,0,0,0-3.2,1.3l-2.4.9-2.5.8-3,1a78.9,78.9,0,0,1-9.8,2.8l-2.5.5-3.5,1h-.5Z" style="fill:#333031"/><path d="M133.5,155.9l1.4.2a17.4,17.4,0,0,1,4,1.5,10,10,0,0,0,3.4.5l2.9-.2c2.7-.4,5.2-1.6,7.9-1.6h.1c3,.1,5.6,1.2,8.5,1.6a19.1,19.1,0,0,1,3.8,1,8.4,8.4,0,0,1,6.3,4.4,13.8,13.8,0,0,1,1,9.6,16.2,16.2,0,0,1-1.7,3.5,11.4,11.4,0,0,1,.6,4.5c-.3,3.3-2.6,5.9-4.6,8.3a8.2,8.2,0,0,0-.2,2.3l.3,1.9a7.8,7.8,0,0,1-1.3,4.4c-.8,1.2-1.9,2.3-2,3.9a19.7,19.7,0,0,0,.3,2.4,10.9,10.9,0,0,1-.6,4.4c-1.1,3-4.9,4.8-7.8,5.8a33.2,33.2,0,0,1-11.7,2.1h-2.3c-6.8,0-13.5-.7-20.3-.7h-4.1a111.4,111.4,0,0,0-16.3,1.8l-6.2,1.2-.2.2c-7.2,3.9-14.7,6.5-22.3,9.5a250,250,0,0,1-24,8c-2,.5-3.7,1.5-5.7,2.2l-5.4,1.7A89.4,89.4,0,0,1,25,243.7l-3.6,1c-6.4-6.1-11.6-13.3-14-22s-1.2-20.1,2.4-29.5l.9-.2c2.2-.4,4.5-.9,6.8-1.2s5.4-.2,7.3-.6c4.5-.7,9-1.1,13.4-1.9s8.8-1.1,13.2-2,9-1.2,13.4-2.2c7.9-1.8,15.9-3.2,23.7-5.4a68.1,68.1,0,0,1,12.6-2.3l6.2-.5c1.4-.9,2.3-2.3,3.5-3.3s2.5-1.5,3.8-2.4a41,41,0,0,0,8.6-7.5c2.7-3.3,5.7-7.8,10.3-7.8m0-1h0c-4.6,0-7.6,3.8-10.2,7.1l-.9,1.1a41.6,41.6,0,0,1-8.4,7.3l-1.5.9-2.4,1.5-1.5,1.6a7.5,7.5,0,0,1-1.6,1.5l-4.9.4H101a67.3,67.3,0,0,0-12.7,2.3c-5.4,1.5-11,2.7-16.3,3.8l-7.4,1.6c-2.3.5-4.6.8-6.9,1.1s-4.3.6-6.5,1.1-4.7.8-7,1.1l-6.2.9-7.8,1.2-5.5.8H21.9a32.7,32.7,0,0,0-4.5.4l-5.5,1-1.4.2H9.1l-.2.5c-4.2,10.8-5,20.9-2.5,30.1s7.1,15.7,14.4,22.5l.4.4.5-.2,3.5-.9,2.5-.6a69.1,69.1,0,0,0,9.9-2.7l3-1,2.5-.8,2.4-1a30.3,30.3,0,0,1,3.2-1.2,226.9,226.9,0,0,0,24.1-8l4.1-1.6a133.6,133.6,0,0,0,18.3-8h.2a18.6,18.6,0,0,1,3.4-.6l2.5-.5a100.2,100.2,0,0,1,16.1-1.8h4.1c3.4,0,6.8.1,10.1.3s6.8.4,10.2.4h2.3a39.1,39.1,0,0,0,12.1-2.1c4.5-1.7,7.3-3.8,8.4-6.4a13.2,13.2,0,0,0,.6-4.8,3.6,3.6,0,0,0-.2-1.1c0-.5-.1-.9-.1-1.3a5.8,5.8,0,0,1,1.2-2.5l.7-.9a8.8,8.8,0,0,0,1.4-5c-.1-.5-.1-.9-.2-1.4s-.1-.4-.1-.6a3.8,3.8,0,0,1,.1-1.5v-.2c2-2.3,4.4-5.1,4.7-8.6a13.5,13.5,0,0,0-.5-4.5,17.4,17.4,0,0,0,1.6-3.4,14.6,14.6,0,0,0-1.2-10.3,9.6,9.6,0,0,0-6.8-4.9,17.3,17.3,0,0,0-3.9-.9l-3.2-.8a30.1,30.1,0,0,0-5.5-.9h-.1a18.6,18.6,0,0,0-4.8.9l-3.2.7-2.8.2a8.5,8.5,0,0,1-3-.5l-1.3-.5a12.4,12.4,0,0,0-2.9-1l-1.6-.2Z" style="fill:#fff"/><line x1="180.6" y1="120.3" x2="180.6" y2="101.7" style="fill:none;stroke:#66c6c6;stroke-linecap:round;stroke-linejoin:round;stroke-width:3px"/><line x1="193.6" y1="123.7" x2="199.8" y2="117.4" style="fill:none;stroke:#66c6c6;stroke-linecap:round;stroke-linejoin:round;stroke-width:3px"/><line x1="167.3" y1="123.5" x2="161.2" y2="117.2" style="fill:none;stroke:#66c6c6;stroke-linecap:round;stroke-linejoin:round;stroke-width:3px"/><line x1="180.3" y1="244.8" x2="180.3" y2="263.5" style="fill:none;stroke:#66c6c6;stroke-linecap:round;stroke-linejoin:round;stroke-width:3px"/><line x1="167.3" y1="241.4" x2="161.2" y2="247.7" style="fill:none;stroke:#66c6c6;stroke-linecap:round;stroke-linejoin:round;stroke-width:3px"/><line x1="193.6" y1="241.7" x2="199.8" y2="248" style="fill:none;stroke:#66c6c6;stroke-linecap:round;stroke-linejoin:round;stroke-width:3px"/></svg>