<svg xmlns="http://www.w3.org/2000/svg" viewBox="0 0 432 432"><title>illustr--Artboard 5</title><path d="M301.9,127.1c-1.3-.7-2.6-1.1-6.2-1.1H136.3c-3.6,0-4.9.4-6.2,1.1a7.2,7.2,0,0,0-3,3c-.7,1.3-1.1,2.6-1.1,6.2V295.7c0,3.6.4,4.9,1.1,6.2a7.2,7.2,0,0,0,3,3c1.3.7,2.6,1.1,6.2,1.1H295.7c3.6,0,4.9-.4,6.2-1.1a7.2,7.2,0,0,0,3-3c.7-1.3,1.1-2.6,1.1-6.2V136.3c0-3.6-.4-4.9-1.1-6.2A7.2,7.2,0,0,0,301.9,127.1ZM305,295.7c0,3.7-.4,4.7-1,5.7a5.5,5.5,0,0,1-2.6,2.6c-1,.6-2,1-5.7,1H136.3c-3.7,0-4.7-.4-5.7-1a5.5,5.5,0,0,1-2.6-2.6c-.6-1-1-2-1-5.7V136.3c0-3.7.4-4.7,1-5.7a5.5,5.5,0,0,1,2.6-2.6c1-.6,2-1,5.7-1H295.7c3.7,0,4.7.4,5.7,1a5.5,5.5,0,0,1,2.6,2.6c.6,1,1,2,1,5.7Z" style="fill:#afadad"/><rect x="158.5" y="139" width="125.5" height="154.3" rx="8.6" ry="8.6" style="fill:#66c8c7"/><path d="M281,294.5H161.5a4.1,4.1,0,0,1-4.1-4.1V142a4.1,4.1,0,0,1,4.1-4.1H281a4.1,4.1,0,0,1,4.1,4.1V290.4A4.1,4.1,0,0,1,281,294.5ZM161.5,140.2a1.9,1.9,0,0,0-1.9,1.8V290.4a1.9,1.9,0,0,0,1.9,1.8H281a1.8,1.8,0,0,0,1.8-1.8V142a1.8,1.8,0,0,0-1.8-1.8Z" style="fill:#fff"/><polygon points="267.1 279.6 170.2 278.7 170.2 157.5 267.1 158.4 267.1 279.6" style="fill:#66c8c7"/><path d="M267.1,280.5h0l-96.9-.9a.9.9,0,0,1-.9-.9V157.5a.7.7,0,0,1,.3-.6l.6-.3h0l96.9,1a.9.9,0,0,1,.9.8V279.6a1.4,1.4,0,0,1-.2.7Zm-96-2.7,95.1.9V159.3l-95.1-.9Z" style="fill:#fff"/><polygon points="170.2 157.5 175.2 152.3 272.1 153.3 267.1 158.4 170.2 157.5" style="fill:#66c8c7"/><path d="M267.1,159.3h0l-96.9-.9a.9.9,0,0,1-.6-1.5l5-5.2a.7.7,0,0,1,.6-.3l96.9,1a1.1,1.1,0,0,1,.9.5,1.2,1.2,0,0,1-.2,1l-5,5.2Zm-94.8-2.7,94.5.9,3.3-3.4-94.5-.9Z" style="fill:#fff"/><polygon points="267.1 279.6 272.1 274.4 272.1 153.3 267.1 158.4 267.1 279.6" style="fill:#66c8c7"/><path d="M267.1,280.5h-.3a.9.9,0,0,1-.6-.8V158.4a.9.9,0,0,1,.3-.6l5-5.2a1.1,1.1,0,0,1,1-.2,1,1,0,0,1,.5.8V274.4a.8.8,0,0,1-.2.6l-5,5.2A.9.9,0,0,1,267.1,280.5Zm.9-121.7V277.4l3.2-3.3V155.4Z" style="fill:#fff"/><polygon points="262.5 181.6 262.5 197.2 286.4 197.5 286.4 181.9 262.5 181.6" style="fill:#66c8c7"/><path d="M286.4,198.6h0l-23.9-.3a1.1,1.1,0,0,1-1.1-1.1V181.6a.9.9,0,0,1,.4-.8,1.1,1.1,0,0,1,.8-.3l23.8.2a1.3,1.3,0,0,1,1.1,1.2v15.6a1,1,0,0,1-1.1,1.1Zm-22.7-2.5,21.6.3V183l-21.6-.2Z" style="fill:#fff"/><polygon points="262.5 251.2 262.5 266.8 286.4 267.1 286.4 251.4 262.5 251.2" style="fill:#66c8c7"/><path d="M286.4,268.2h0l-23.9-.3a1.1,1.1,0,0,1-1.1-1.1V251.2a.9.9,0,0,1,.4-.8,1.2,1.2,0,0,1,.8-.4l23.8.3a1.1,1.1,0,0,1,1.1,1.1v15.7a1,1,0,0,1-1.1,1.1Zm-22.7-2.5,21.6.2V252.5l-21.6-.2Z" style="fill:#fff"/><circle cx="248.3" cy="225.5" r="12.3" style="fill:#66c8c7"/><path d="M248.3,238.7a13.2,13.2,0,1,1,13.2-13.2A13.2,13.2,0,0,1,248.3,238.7Zm0-24.6a11.4,11.4,0,1,0,11.4,11.4A11.4,11.4,0,0,0,248.3,214.1Z" style="fill:#fff"/><polygon points="252.5 222.7 244.1 222.3 245.2 266.7 251.7 267.5 252.5 222.7" style="fill:#66c8c7"/><path d="M251.7,268.4h-.2l-6.4-.7a1.1,1.1,0,0,1-.8-.9l-1.1-44.4a.9.9,0,0,1,.3-.7.7.7,0,0,1,.6-.2l8.5.4a.8.8,0,0,1,.8.9l-.9,44.8a.7.7,0,0,1-.3.6A.5.5,0,0,1,251.7,268.4Zm-5.6-2.5,4.7.6.8-43-6.6-.3Z" style="fill:#fff"/><path d="M316.7,286.9c0-2.4-5.8-4.3-12.9-4.3s-12.9,2-12.8,4.4v1.5c0,2.4,5.7,4.3,12.8,4.3s12.9-2,12.9-4.4Z" style="fill:#333031"/><ellipse cx="303.8" cy="286.4" rx="12.9" ry="3.8" style="fill:#fac432"/><path d="M316.7,283.3c0-2.4-5.8-4.3-12.9-4.3s-12.9,2-12.8,4.4v1.5c0,2.4,5.7,4.3,12.8,4.3s12.9-2,12.9-4.4Z" style="fill:#333031"/><ellipse cx="303.8" cy="282.8" rx="12.9" ry="3.8" style="fill:#fac432"/><path d="M316.7,279.7c0-2.4-5.8-4.3-12.9-4.3s-12.9,1.9-12.8,4.3v1.5c0,2.4,5.7,4.4,12.8,4.3s12.9-1.9,12.9-4.3Z" style="fill:#333031"/><ellipse cx="303.8" cy="279.1" rx="12.9" ry="3.8" style="fill:#fac432"/><path d="M316.7,276.4c0-2.4-5.8-4.4-12.9-4.4s-12.9,2-12.8,4.4v1.5c0,2.4,5.7,4.3,12.8,4.3s12.9-1.9,12.9-4.3Z" style="fill:#333031"/><ellipse cx="303.8" cy="275.8" rx="12.9" ry="3.8" style="fill:#fac432"/><path d="M151,286.2c-.1-2.4-5.8-4.3-12.9-4.3s-12.9,2-12.9,4.4v1.5c0,2.4,5.8,4.3,12.9,4.3s12.9-2,12.9-4.4Z" style="fill:#333031"/><ellipse cx="138.1" cy="285.7" rx="12.9" ry="3.8" style="fill:#fac432"/><path d="M151,282.6c-.1-2.4-5.8-4.3-12.9-4.3s-12.9,1.9-12.9,4.3v1.5c0,2.4,5.8,4.4,12.9,4.4s12.9-2,12.9-4.4Z" style="fill:#333031"/><ellipse cx="138.1" cy="282" rx="12.9" ry="3.8" style="fill:#fac432"/><path d="M151,279.3c-.1-2.4-5.8-4.4-12.9-4.4s-12.9,2-12.9,4.4v1.5c0,2.4,5.8,4.3,12.9,4.3s12.9-1.9,12.9-4.3Z" style="fill:#333031"/><ellipse cx="138.1" cy="278.7" rx="12.9" ry="3.8" style="fill:#fac432"/><path d="M151,275.7c-.1-2.4-5.8-4.4-12.9-4.4s-12.9,2-12.9,4.4v1.5c0,2.4,5.8,4.3,12.9,4.3s12.9-2,12.9-4.3Z" style="fill:#333031"/><ellipse cx="138.1" cy="275.1" rx="12.9" ry="3.8" style="fill:#fac432"/><path d="M151,272c-.1-2.4-5.8-4.3-12.9-4.3s-12.9,2-12.9,4.4v1.5c0,2.4,5.8,4.3,12.9,4.3s12.9-2,12.9-4.4Z" style="fill:#333031"/><ellipse cx="138.1" cy="271.5" rx="12.9" ry="3.8" style="fill:#fac432"/><path d="M151,268.7c-.1-2.4-5.8-4.3-12.9-4.3s-12.9,1.9-12.9,4.3v1.5c0,2.4,5.8,4.4,12.9,4.3s12.9-1.9,12.9-4.3Z" style="fill:#333031"/><ellipse cx="138.1" cy="268.1" rx="12.9" ry="3.8" style="fill:#fac432"/><path d="M151,265.1c-.1-2.4-5.8-4.3-12.9-4.3s-12.9,1.9-12.9,4.3v1.5c0,2.4,5.8,4.4,12.9,4.3S151,269,151,266.6Z" style="fill:#333031"/><ellipse cx="138.1" cy="264.5" rx="12.9" ry="3.8" style="fill:#fac432"/><path d="M133.5,291.2c0-2.4-5.8-4.4-12.9-4.4s-12.9,2-12.9,4.4v1.5c0,2.4,5.8,4.3,12.9,4.3s12.9-1.9,12.9-4.3Z" style="fill:#333031"/><ellipse cx="120.6" cy="290.6" rx="12.9" ry="3.8" style="fill:#fac432"/><path d="M133.5,287.5c0-2.4-5.8-4.3-12.9-4.3s-12.9,2-12.9,4.4v1.5c0,2.4,5.8,4.3,12.9,4.3s12.9-2,12.9-4.4Z" style="fill:#333031"/><ellipse cx="120.6" cy="287" rx="12.9" ry="3.8" style="fill:#fac432"/><path d="M133.5,284.2c0-2.4-5.8-4.3-12.9-4.3s-12.9,1.9-12.9,4.3v1.5c0,2.4,5.8,4.4,12.9,4.3s12.9-1.9,12.9-4.3Z" style="fill:#333031"/><ellipse cx="120.6" cy="283.6" rx="12.9" ry="3.8" style="fill:#fac432"/><path d="M133.5,280.6c0-2.4-5.8-4.3-12.9-4.3s-12.9,1.9-12.9,4.3v1.5c0,2.4,5.8,4.4,12.9,4.3s12.9-1.9,12.9-4.3Z" style="fill:#333031"/><ellipse cx="120.6" cy="280" rx="12.9" ry="3.8" style="fill:#fac432"/><path d="M316.7,272.7c0-2.3-5.8-4.3-12.9-4.3s-12.9,2-12.8,4.4v1.5c0,2.4,5.7,4.3,12.8,4.3s12.9-2,12.9-4.3Z" style="fill:#333031"/><ellipse cx="303.8" cy="272.2" rx="12.9" ry="3.8" style="fill:#fac432"/><circle cx="206.1" cy="194.7" r="18.9" style="fill:#66c8c7"/><path d="M206.1,214.5a19.8,19.8,0,1,1,19.8-19.8A19.8,19.8,0,0,1,206.1,214.5Zm0-37.8a18.1,18.1,0,1,0,18,18A18.1,18.1,0,0,0,206.1,176.7Z" style="fill:#fff"/><path d="M206.1,200.7a6,6,0,0,1-6-6,6,6,0,0,1,12,0A6,6,0,0,1,206.1,200.7Zm0-10.3a4.3,4.3,0,0,0-4.3,4.3,4.4,4.4,0,0,0,4.3,4.4,4.4,4.4,0,0,0,4.4-4.4A4.4,4.4,0,0,0,206.1,190.4Z" style="fill:#fff"/><path d="M221.5,195.5h-7a.8.8,0,0,1-.8-.8.7.7,0,0,1,.8-.8h7a.8.8,0,0,1,.9.8A.9.9,0,0,1,221.5,195.5Z" style="fill:#fff"/><path d="M206.1,187.2a.9.9,0,0,1-.9-.8v-7.1a.9.9,0,0,1,.9-.8.9.9,0,0,1,.8.8v7.1A.9.9,0,0,1,206.1,187.2Z" style="fill:#fff"/><path d="M206.1,200.7a6,6,0,0,1-6-6,6,6,0,0,1,12,0A6,6,0,0,1,206.1,200.7Zm0-10.3a4.3,4.3,0,0,0-4.3,4.3,4.4,4.4,0,0,0,4.3,4.4,4.4,4.4,0,0,0,4.4-4.4A4.4,4.4,0,0,0,206.1,190.4Z" style="fill:#fff"/><path d="M197.7,195.6h-7a.8.8,0,0,1,0-1.6h7a.8.8,0,1,1,0,1.6Z" style="fill:#fff"/><path d="M206.1,211a.9.9,0,0,1-.8-.8v-7.1a.9.9,0,0,1,.8-.8.8.8,0,0,1,.8.8v7.1A.8.8,0,0,1,206.1,211Z" style="fill:#fff"/><path d="M217.1,206.4l-.6-.2-5-5a.8.8,0,0,1,1.2-1.2l4.9,5a.7.7,0,0,1,0,1.2Z" style="fill:#fff"/><path d="M212,189.6l-.6-.2a.9.9,0,0,1,0-1.2l5-5a.8.8,0,0,1,1.2,1.2l-5,5Z" style="fill:#fff"/><path d="M200.2,189.7a.6.6,0,0,1-.6-.3l-5-4.9a.8.8,0,1,1,1.2-1.2l4.9,5a.7.7,0,0,1,0,1.1A.5.5,0,0,1,200.2,189.7Z" style="fill:#fff"/><path d="M195.2,206.5l-.6-.3a.8.8,0,0,1,0-1.1l5-5a.8.8,0,0,1,1.2,1.2l-5,4.9A.9.9,0,0,1,195.2,206.5Z" style="fill:#fff"/><path d="M58.6,265.7a38.1,38.1,0,0,1-2.2-4.6,74.7,74.7,0,0,1-5.7-22.4c-.8-8.9.5-16.6,3.7-22.7v-.3h.3l5.6-.3c5.3-.2,12-.5,16.1-1.3l1.6-.3a150.1,150.1,0,0,0,15.7-3.5l5.1-1.4c2.9-.9,5.7-1.7,9.3-2.6,5.8-1.6,8-2.9,10.6-4.6a27.2,27.2,0,0,0,6.5-6.6l.5-.7a70.4,70.4,0,0,1,5.9-7.6c1-1,1.9-2.1,2.8-3.1s2.8-3.3,4.4-4.8,2.4-2.4,3.6-3.5,3.2-3,4.7-4.6,2.3-4.9,2.7-7.8l.3-1.6c.5-3,1-6.1,3.6-8.6a50.6,50.6,0,0,1,8.8-6.6,23.6,23.6,0,0,0,3.5-2.3l2-1.7,2.6-2.3h.2a6.6,6.6,0,0,1,4.3-1.9h.4a3.6,3.6,0,0,1,3.6,3.2c.7,5.9-3.8,8.2-8.2,10.5l-3.5,2-1.9,1.2a20,20,0,0,0-5.8,4.6,6.9,6.9,0,0,0-1.5,2.2h.5c.2-.1.4-.6.6-1l.5-.8a14.6,14.6,0,0,1,4.5-3.6l2-1.3a49.2,49.2,0,0,1,7-4.1l2.4-1.2,1-.5c2.5-1.5,8.6-4.9,12.3-4.9,2.1,0,3.4,1.1,3.5,3.1a9.9,9.9,0,0,1-.3,2.4,9.2,9.2,0,0,1-2.7,3.9l-2.3,1.7-1.2.8a3.6,3.6,0,0,1-1.9.5h-3l-1,.2-2,.4a24.1,24.1,0,0,0-6.9,3.8h0l-2.6,2.5-1.9,1.3a10.8,10.8,0,0,0-2,1.6h-.1l-.4.5h.3a25.3,25.3,0,0,0,6-4.3,28.9,28.9,0,0,1,6.4-4.6,19.8,19.8,0,0,1,7.8-1.2h1.1a48.6,48.6,0,0,1,5.6.5l1.8.4h.2l3.2.8a27.3,27.3,0,0,1,6.6,2.3,3.3,3.3,0,0,1,1.5,1.8,2.8,2.8,0,0,1-.5,2.3,2.9,2.9,0,0,1-1.1,1.1h-.1a24.3,24.3,0,0,1-7.9,1.2h-.4a23.4,23.4,0,0,1-3.8-.3,26.6,26.6,0,0,0-3.9-.3h-.6a8.7,8.7,0,0,0-4.7,1.7l-.5.3-1.2.8-2.7,2L176,173a7.8,7.8,0,0,1-1.5,1,7.2,7.2,0,0,0-2.2,1.7h1.2l2.7-.6a17,17,0,0,0,3.1-.6,58.3,58.3,0,0,1,10-1.3h.8c3.3,0,6.1,1.3,9.1,2.8a71.8,71.8,0,0,0,9.5,4.3l1.2.4c2.7.8,5.7,1.7,7.2,4.2s1.1,2.9.4,3.8-3.8,2.1-5.1,2.2h-1.2a34.5,34.5,0,0,1-7.7-1.3l-2-.5-2.3-.6a28.5,28.5,0,0,0-6.5-1.1h-.6a42.1,42.1,0,0,0-7.1,1.2l-3.1.7h0c-3.2.7-6.8,1.4-9.5,3a10.7,10.7,0,0,0-4.9,7.4c-.4,2.8,1.1,5.5,4.2,7.2l1.1.6h0a11.1,11.1,0,0,0,2.9,1.6,19.9,19.9,0,0,0,6.9,1.6,11,11,0,0,0,4-.8,8.7,8.7,0,0,0,3.7-2.6l.9-1.1a21.7,21.7,0,0,0,2-2.9,13.7,13.7,0,0,1,2.5-3c1.6-1.5,3.2-1.8,5.4-2h1.4a2.7,2.7,0,0,1,1.4.7,2.2,2.2,0,0,1,.4,1.3h0l-.3,1.1c0,.1-.1.2-.1.4l-.7,2.2a57.7,57.7,0,0,1-2.9,7.9,4.3,4.3,0,0,0-.1.5,14.4,14.4,0,0,1-5.2,6.7l-.2.2a33.4,33.4,0,0,1-9.5,4.4,79.4,79.4,0,0,1-9.7,2l-1.3.2a34.9,34.9,0,0,1-5,.4h-6.2a36.1,36.1,0,0,0-8.1,1.3l-2.9.6a141.5,141.5,0,0,0-22.6,6.3c-4.8,1.7-10.4,3.9-16.1,6.5l-18.1,8.2-11,5c-7.3,3.2-14.9,6.6-22.1,10.2l-3,1.4-.4.2Z" style="fill:#333031"/><path d="M175.6,138.4a3.1,3.1,0,0,1,3.1,2.8c.9,7.1-6.6,8.8-11.4,12-2.8,1.8-5.8,3.3-7.9,5.9-.3.4-1.7,2.1-1.6,2.5s.3.5.6.5l.7-.2c.5-.4.8-1.4,1.1-1.9,1.6-2.1,4.3-3.3,6.4-4.9a86.2,86.2,0,0,1,9.4-5.2c1.6-.8,8.9-5.3,13.1-5.3,1.7,0,2.9.7,3,2.7a4.7,4.7,0,0,1-.2,2.1,8.1,8.1,0,0,1-2.6,3.7l-3.4,2.5a3.4,3.4,0,0,1-1.7.5h-3.1c-1,.2-2,.3-3,.6a24.3,24.3,0,0,0-7.1,3.8h0a30.1,30.1,0,0,1-2.6,2.5c-1.2,1.1-2.9,1.9-4,3s-.6.6-.5,1,.2.4.4.4h.5c4.6-2.1,7.7-6.8,12.4-8.9a19.3,19.3,0,0,1,7.6-1.2h1.1l5.6.6,1.7.3h.2c3.4,1.1,6.5,1.4,9.7,3.1a2.3,2.3,0,0,1,.9,3.4,5.5,5.5,0,0,1-1,1.1h0a25.4,25.4,0,0,1-7.8,1.2h-.4c-2.5-.1-5.2-.7-7.7-.7h-.6c-2.3.1-3.5.9-5.4,2.1a5.7,5.7,0,0,0-1.3.8l-4.1,3.2c-1.2.9-2.8,1.4-3.8,2.7a.6.6,0,0,0,.5.9h.3l.9-.3,5.8-1.1a47.1,47.1,0,0,1,9.9-1.3h.8c3.2,0,6,1.3,8.9,2.8a63.8,63.8,0,0,0,9.6,4.3c2.8.9,6.5,1.7,8.1,4.4.6.9,1.2,2.3.4,3.3s-3.3,1.9-4.7,2.1h-1.2c-3.2,0-6.6-1-9.6-1.7s-5.9-1.8-8.9-1.8h-.6c-3.5.1-6.9,1.2-10.3,1.9s-6.8,1.3-9.7,3a11.7,11.7,0,0,0-5.1,7.7c-.5,3.4,1.7,6.2,4.5,7.8l1,.5a12.4,12.4,0,0,0,3,1.6,20.5,20.5,0,0,0,7.1,1.7,10.6,10.6,0,0,0,4.2-.9,9.2,9.2,0,0,0,3.9-2.7l.9-1.1,2-3a15.5,15.5,0,0,1,2.4-2.8,7.3,7.3,0,0,1,5.2-1.9h1.3a1.4,1.4,0,0,1,1.3,1.5l-.3,1.1v.3a85.1,85.1,0,0,1-3.6,10.1l-.2.5a14.4,14.4,0,0,1-4.9,6.5l-.3.2a30.2,30.2,0,0,1-9.3,4.3,97.4,97.4,0,0,1-11,2.3,40.3,40.3,0,0,1-4.9.3H163c-3.7.1-7.3,1.2-11,2a149.5,149.5,0,0,0-22.7,6.2c-5.4,2-10.8,4.1-16,6.5l-18.2,8.3c-11,5.1-22.2,9.8-33.1,15.2l-3,1.4c-.8-1.5-1.5-3-2.2-4.6-5.5-13-8.9-31.5-2-44.7,5.8-.4,16-.5,21.8-1.6,7.4-1.4,11-2.1,17.3-3.8l14.4-4.1c6-1.6,8.3-3,10.7-4.6a26.7,26.7,0,0,0,6.7-6.7,73.3,73.3,0,0,1,6.4-8.3c2.4-2.6,4.5-5.4,7.1-7.9l8.3-8c2.5-2.5,2.6-6.5,3.1-9.7s1.1-6,3.5-8.4a50.6,50.6,0,0,1,8.7-6.5,31.7,31.7,0,0,0,3.6-2.3c1.6-1.3,2.5-2.3,4.6-4a6.9,6.9,0,0,1,4.2-1.9h.4m0-1h-.4a7.1,7.1,0,0,0-4.6,2h-.2c-1.1.8-1.9,1.6-2.6,2.2a11.2,11.2,0,0,1-2,1.7,22.4,22.4,0,0,1-3.4,2.3,44.2,44.2,0,0,0-8.9,6.7c-2.8,2.6-3.3,5.8-3.8,8.8-.1.6-.1,1.1-.2,1.7-.4,2.8-.8,5.7-2.6,7.5l-4.7,4.6-3.7,3.4-4.4,4.9-2.7,3.1a87,87,0,0,0-6,7.6l-.5.8a24.3,24.3,0,0,1-6.4,6.4,29.5,29.5,0,0,1-10.4,4.5l-9.4,2.6-5,1.5c-5.9,1.6-9.4,2.3-15.7,3.5l-1.6.3c-4.1.8-10.7,1.1-16,1.3l-5.7.3h-.5l-.2.5c-3.3,6.2-4.6,13.9-3.8,22.9A75.4,75.4,0,0,0,56,261.3a38.1,38.1,0,0,0,2.2,4.6l.4.8.8-.4,3-1.4c7.2-3.6,14.8-6.9,22-10.2l11.1-4.9,12.2-5.6,5.9-2.7c5.7-2.6,11.3-4.7,16-6.5a141.8,141.8,0,0,1,22.6-6.2l2.9-.7a44.5,44.5,0,0,1,8-1.3h6.2a35.3,35.3,0,0,0,5-.3l1.4-.2a85.7,85.7,0,0,0,9.8-2.1,29.4,29.4,0,0,0,9.6-4.5h.2a14.9,14.9,0,0,0,5.3-7c.1-.2.1-.3.2-.4a68.2,68.2,0,0,0,2.8-7.9,20.2,20.2,0,0,0,.7-2.3c.1-.1.1-.2.1-.4l.3-1.1h.1a2.7,2.7,0,0,0-.6-1.7,2.1,2.1,0,0,0-1.6-.8h-1.5a7.9,7.9,0,0,0-5.7,2.1,17.4,17.4,0,0,0-2.6,3,24,24,0,0,1-1.9,2.9l-.9,1.1a9.3,9.3,0,0,1-3.6,2.4h0a9.6,9.6,0,0,1-3.8.8,18.9,18.9,0,0,1-6.7-1.7,10.4,10.4,0,0,1-2.8-1.4H173l-1-.6c-3-1.6-4.4-4.1-4-6.8a10.3,10.3,0,0,1,4.6-7c2.7-1.6,6.3-2.3,9.4-2.9h0l3.1-.7a42.7,42.7,0,0,1,7-1.2h.6a24.6,24.6,0,0,1,6.4,1.1l2.3.6,2,.5a35.3,35.3,0,0,0,7.8,1.3h1.3c1.3-.1,4.2-.8,5.4-2.4s.7-2.6-.4-4.4-4.8-3.6-7.4-4.4l-1.2-.4a56.3,56.3,0,0,1-9.5-4.2c-3-1.6-5.8-2.9-9.3-2.9h-.8a51.1,51.1,0,0,0-10.1,1.4l-3.1.6-2.7.5h0l1.4-.8,1.5-1,1.4-1.1,2.6-2,1.3-.8.5-.3a8,8,0,0,1,4.4-1.7h.6a25.8,25.8,0,0,1,3.8.4l3.9.3h.4a23.3,23.3,0,0,0,8.1-1.3h.2a6.8,6.8,0,0,0,1.2-1.2,3.3,3.3,0,0,0,.5-2.7,3.2,3.2,0,0,0-1.7-2.1,24.2,24.2,0,0,0-6.7-2.3l-3.1-.9h-.2l-1.9-.4-5.7-.5.5-.3,1.1-.7,2.4-1.8a8.7,8.7,0,0,0,2.8-4.1,6.9,6.9,0,0,0,.4-2.5,3.6,3.6,0,0,0-4-3.6c-3.6,0-9,3-12,4.6a7.8,7.8,0,0,0,2.5-7.1,4,4,0,0,0-4-3.7Z" style="fill:#fff"/></svg>