<svg xmlns="http://www.w3.org/2000/svg" viewBox="0 0 360 360"><title>illustr--Artboard 6</title><path d="M265.9,91.1c-1.3-.7-2.6-1.1-6.2-1.1H100.3c-3.6,0-4.9.4-6.2,1.1a7.2,7.2,0,0,0-3,3c-.7,1.3-1.1,2.6-1.1,6.2V259.7c0,3.6.4,4.9,1.1,6.2a7.2,7.2,0,0,0,3,3c1.3.7,2.6,1.1,6.2,1.1H259.7c3.6,0,4.9-.4,6.2-1.1a7.2,7.2,0,0,0,3-3c.7-1.3,1.1-2.6,1.1-6.2V100.3c0-3.6-.4-4.9-1.1-6.2A7.2,7.2,0,0,0,265.9,91.1ZM269,259.7c0,3.7-.4,4.7-1,5.7a5.5,5.5,0,0,1-2.6,2.6c-1,.6-2,1-5.7,1H100.3c-3.7,0-4.7-.4-5.7-1a5.5,5.5,0,0,1-2.6-2.6c-.6-1-1-2-1-5.7V100.3c0-3.7.4-4.7,1-5.7A5.5,5.5,0,0,1,94.6,92c1-.6,2-1,5.7-1H259.7c3.7,0,4.7.4,5.7,1a5.5,5.5,0,0,1,2.6,2.6c.6,1,1,2,1,5.7Z" style="fill:#afadad"/><path d="M340.2,260.5l-13.6-8.3-10.7-6.5-17.4-10.8c-5.5-3.4-11-6.3-15.6-8.7a154.2,154.2,0,0,0-22.3-9.4l-3-1a43.5,43.5,0,0,0-8-2.4l-3.8-.4a42.7,42.7,0,0,1-7.7-1.3l-1.3-.4a85.2,85.2,0,0,1-9.7-3.3,33.7,33.7,0,0,1-9.1-5.7l-.2-.2a15.5,15.5,0,0,1-4.4-7.5.7.7,0,0,0-.1-.5,64.8,64.8,0,0,1-1.9-8.5c-.1-.7-.3-1.5-.4-2.4v-1.5h0a1.8,1.8,0,0,1,1.8-1.7h.2l1.4.2a7.8,7.8,0,0,1,5.2,2.7,14.5,14.5,0,0,1,2.2,3.3,34.8,34.8,0,0,0,1.7,3.3,5.2,5.2,0,0,1,.7,1.2,11.1,11.1,0,0,0,3.6,3.2,11,11,0,0,0,5.5,1.4,20.7,20.7,0,0,0,5.8-.9,10,10,0,0,0,3.1-1.2h.1l1.1-.4c3.4-1.4,5.4-4,5.3-7a10.8,10.8,0,0,0-4-8.2c-2.7-2.1-6.3-3.3-9.4-4.3H235l-3-1.1a44.8,44.8,0,0,0-7.1-2.2h-.8a5,5,0,0,0-2.7,1.1l-3.2,2.3a22,22,0,0,1-6.3,3.9,9.6,9.6,0,0,1-3.3.6,5.4,5.4,0,0,1-2.4-.5c-1-.6-1.4-1.8-1.2-3.7s2.8-5.1,4.9-7l1-.8a62.4,62.4,0,0,0,7.1-8.1c1.3-1.6,3.5-2.4,6.5-2.4a25,25,0,0,1,5.1.6,52.6,52.6,0,0,1,10,2.6l3.1,1.1,2.7.8.3.2.6.2h.4v-.2a8.4,8.4,0,0,0-2.1-2.1l-1.4-1.1a8,8,0,0,0-1.3-1.3l-2.4-2.4-1.2-1.1-.4-.3a10.2,10.2,0,0,0-4.6-2.4,30.2,30.2,0,0,0-4.2-.2h-1a21.1,21.1,0,0,1-3.5-.2,23.6,23.6,0,0,1-8.3-2.3h-.1a3.8,3.8,0,0,1-.9-1.3,3,3,0,0,1-.2-2.3,2.9,2.9,0,0,1,1.8-1.6,28.5,28.5,0,0,1,6.9-1.5l3.4-.5h.2l1.9-.2a57.2,57.2,0,0,1,5.8.2,22.7,22.7,0,0,1,8.9,2.4,26.2,26.2,0,0,1,6,5.5,25.1,25.1,0,0,0,5.6,5.2h.3a.1.1,0,0,0,.1-.1,1.7,1.7,0,0,0-.3-.6h-.1a11.4,11.4,0,0,0-1.9-1.9,12.9,12.9,0,0,1-1.7-1.6l-2.4-2.9a23.9,23.9,0,0,0-6.6-4.8l-1.9-.6-1-.4-.8-.2-2.3-.4a2.6,2.6,0,0,1-1.9-.8l-1.1-.9-2.1-2.1a9.1,9.1,0,0,1-2.3-4.3,9.6,9.6,0,0,1,0-2.4,3.1,3.1,0,0,1,3.2-2.7c3.8,0,10,4.6,12.7,6.6l.9.7,2.3,1.5a47.4,47.4,0,0,1,6.7,5.1l1.8,1.5a16,16,0,0,1,4.2,4.4l.3.8a3.8,3.8,0,0,0,.5,1.1.6.6,0,0,0,.5.2h.2a15.5,15.5,0,0,0-1.2-2.5,21.7,21.7,0,0,0-5.5-5.4l-1.8-1.5c-1-.8-2.1-1.7-3.3-2.5-4.1-2.9-8.4-5.9-6.9-11.7a3.5,3.5,0,0,1,3.5-2.8h.8a7,7,0,0,1,4.2,2.5h.1l2.4,2.6c.6.7,1.1,1.4,1.8,2.1l3.3,2.8a43.7,43.7,0,0,1,8.2,7.9c2.3,2.9,2.5,6.1,2.6,9.2v1.7c0,3,.1,6.1,1.8,8.4l4.3,5.3,3.2,3.9c1.4,1.8,2.7,3.7,3.9,5.6s1.5,2.3,2.4,3.5a74,74,0,0,1,5,8.6l.5.7A25.5,25.5,0,0,0,298,194c2.4,2.1,4.5,3.8,10.2,6.1,3.6,1.4,6.4,2.6,9.3,3.9l5,2.1c5.8,2.4,9.3,3.6,15.6,5.6l1.6.5c4.3,1.4,6.5,2,8.4,2.5l4,1.1a2.2,2.2,0,0,1,1.5,1.8v.4h0c.2,9.1.3,19.3-4.3,29.3a64.4,64.4,0,0,1-8.5,13.2l-.3.2Z" style="fill:#333031"/><path d="M247.7,121.8h.8a7.1,7.1,0,0,1,4,2.5c2,2,2.8,3.2,4.3,4.7a30.4,30.4,0,0,0,3.3,2.8,46,46,0,0,1,8.1,7.8c2.2,2.7,2.3,5.7,2.5,9s-.3,7.5,1.9,10.3,5,6.2,7.5,9.3,4.1,6,6.2,9a78.4,78.4,0,0,1,5.5,9.3,26.1,26.1,0,0,0,6,7.7c2.3,2,4.4,3.8,10.3,6.1l14.2,6.1c6.3,2.6,9.8,3.7,17.3,6.1s8.3,2.3,12.3,3.6a1.8,1.8,0,0,1,1.3,1.5v.3c.2,10,.2,19.6-4.3,29.1a58.8,58.8,0,0,1-8.5,13.1c-8-5.1-16.2-9.9-24.3-14.9l-17.4-10.8c-5.1-3.1-10.3-5.9-15.6-8.7a151.1,151.1,0,0,0-22.4-9.3c-3.7-1.3-7.2-2.9-11.1-3.5s-7.6-.6-11.3-1.7a83.6,83.6,0,0,1-11-3.7,30.2,30.2,0,0,1-9-5.6l-.2-.2a15.1,15.1,0,0,1-4.3-7.3.7.7,0,0,0-.1-.5,73.8,73.8,0,0,1-2.3-10.8v-1.6a1.4,1.4,0,0,1,1.4-1.3h.1l1.4.2h0c2.2.4,3.7.9,5,2.6a11.1,11.1,0,0,1,2.1,3.2c.5,1.1,1.1,2.2,1.7,3.3l.8,1.2c1.6,2,2.3,2.6,3.7,3.3a10.6,10.6,0,0,0,5.7,1.5,24.9,24.9,0,0,0,5.9-.9,12.4,12.4,0,0,0,3.2-1.2h0l1.2-.4c3.1-1.3,5.6-3.9,5.5-7.4a11.3,11.3,0,0,0-4.2-8.5c-2.7-2.1-6.3-3.3-9.5-4.4s-6.7-2.7-10.2-3.3h-.9a5.6,5.6,0,0,0-3,1.2c-3,1.9-5.9,5-9.4,6.2a13.4,13.4,0,0,1-3.1.5,3.8,3.8,0,0,1-2.2-.5c-1.1-.6-1.1-2.1-1-3.3.4-3.2,3.5-5.5,5.8-7.5a70.4,70.4,0,0,0,7.2-8.2c1.3-1.6,3.7-2.2,6.1-2.2a26.3,26.3,0,0,1,5,.6,49,49,0,0,1,10,2.6l5.7,1.9a3.6,3.6,0,0,0,1.1.4h.2a.6.6,0,0,0,.6-.9c-.8-1.4-2.4-2.2-3.6-3.3l-3.7-3.7-1.2-1.1c-1.9-1.4-2.9-2.4-5.3-2.8a29.5,29.5,0,0,0-4.2-.2h-1a19.4,19.4,0,0,1-3.4-.2,22.8,22.8,0,0,1-8.2-2.3h0l-.9-1.1a2.5,2.5,0,0,1,1.4-3.4c3.4-1.4,6.7-1.3,10.3-2h.2l1.8-.2h0l5.8.2c2.9.3,6.2.8,8.7,2.4,4.6,2.7,7.1,7.9,11.6,10.7h.5c.2,0,.3-.1.5-.4s-.3-.8-.5-1-2.5-2.3-3.6-3.6l-2.4-2.9h0a23.3,23.3,0,0,0-6.8-4.8l-2.9-1-.8-.3-2.4-.4a2.1,2.1,0,0,1-1.6-.7l-3.2-2.9a8.7,8.7,0,0,1-2.2-4.1,8.9,8.9,0,0,1,0-2.3,2.6,2.6,0,0,1,2.8-2.4c4.3,0,11.8,6.1,13.4,7.2a81.1,81.1,0,0,1,8.9,6.5c1.9,1.9,4.6,3.5,5.9,5.9.3.5.5,1.6,1,2a1.1,1.1,0,0,0,.7.3.5.5,0,0,0,.6-.4,8.8,8.8,0,0,0-1.3-2.8c-1.8-2.9-4.7-4.8-7.3-7-4.6-3.9-11.9-6.6-10.1-13.8a3.1,3.1,0,0,1,3.1-2.5m0-.8a4,4,0,0,0-3.9,3.1c-1,3.8.5,6.5,2.7,8.7l-.8-.5c-4.4-3.4-9.4-6.7-12.9-6.7a3.5,3.5,0,0,0-3.6,3,11.3,11.3,0,0,0,0,2.6,9,9,0,0,0,2.4,4.5,21.8,21.8,0,0,0,2.2,2.1l1,.9a3.5,3.5,0,0,0,1.2.7h-.9a57.2,57.2,0,0,0-5.8-.2l-1.9.2h-.3l-3.3.5a30,30,0,0,0-7.1,1.5,3.2,3.2,0,0,0-1.9,1.9,3,3,0,0,0,.1,2.6,4.9,4.9,0,0,0,1.1,1.4h.2a21.7,21.7,0,0,0,8.4,2.4,21.1,21.1,0,0,0,3.5.2h1a27.5,27.5,0,0,1,4.1.2,8.5,8.5,0,0,1,4.4,2.3l.5.4,1.1,1,2.5,2.4,1.3,1.3,1.4,1.2a8.3,8.3,0,0,1,1.7,1.5h-.6l-2.7-.9-3-1.1a57.8,57.8,0,0,0-10.1-2.6,26.8,26.8,0,0,0-5.2-.6c-3.2,0-5.5.9-6.8,2.5a62.4,62.4,0,0,1-7.1,8.1l-1,.8c-2.2,2-4.7,4.2-5,7.2s.2,3.5,1.4,4.1a4.8,4.8,0,0,0,2.6.6,9.7,9.7,0,0,0,3.4-.6,21.5,21.5,0,0,0,6.4-4l3.2-2.3a4.8,4.8,0,0,1,2.5-1h.7a36.4,36.4,0,0,1,7.1,2.2l3,1.1h.1c3.1,1,6.6,2.2,9.2,4.2a10.5,10.5,0,0,1,3.9,7.9c.1,2.8-1.8,5.3-5,6.6l-1.1.4h-.2a12.7,12.7,0,0,1-3,1.1,20,20,0,0,1-5.7.9,9.6,9.6,0,0,1-5.3-1.4h-.1a9.7,9.7,0,0,1-3.3-3,10.5,10.5,0,0,1-.8-1.3A30.7,30.7,0,0,1,222,186a22.5,22.5,0,0,0-2.2-3.5c-1.5-1.8-3.2-2.4-5.5-2.8h-.1l-1.4-.2h-.2a2.2,2.2,0,0,0-2.2,2.1h0v1.2c0,.2.1.3.1.4s.3,1.6.4,2.4a64.8,64.8,0,0,0,1.9,8.5c.1.1.1.3.2.4a15.2,15.2,0,0,0,4.4,7.8l.2.2a35.1,35.1,0,0,0,9.3,5.8,79.1,79.1,0,0,0,9.7,3.3l1.3.4a42.4,42.4,0,0,0,7.8,1.3l3.7.4a45.9,45.9,0,0,1,8,2.4l2.9,1a156,156,0,0,1,22.3,9.3c4.6,2.4,10.1,5.4,15.6,8.7l2.8,1.8,14.6,9,10.7,6.5c4.5,2.7,9.1,5.5,13.6,8.4l.6.3.5-.5a60.5,60.5,0,0,0,8.6-13.3c4.6-10,4.5-20.3,4.3-29.4h0v-.3a2.7,2.7,0,0,0-1.8-2.2l-4-1.1c-1.9-.5-4.1-1-8.4-2.4l-1.6-.6a143.3,143.3,0,0,1-15.6-5.6l-5-2.1c-2.9-1.3-5.6-2.5-9.2-3.9-5.7-2.3-7.7-3.8-10.1-6a25.8,25.8,0,0,1-5.8-7.4l-.4-.8a70.4,70.4,0,0,0-5.1-8.7l-2.4-3.5c-1.2-1.8-2.5-3.7-3.9-5.5l-3.2-4c-1.5-1.7-2.9-3.5-4.3-5.3s-1.7-5.2-1.7-8.1v-1.7c-.1-3.2-.3-6.5-2.7-9.5a47,47,0,0,0-8.2-7.9c-1.3-1-2.3-1.9-3.3-2.8l-1.8-2-2.4-2.7H253a7.7,7.7,0,0,0-4.4-2.6Zm7.3,30.9a29.1,29.1,0,0,1-4.7-4.6,39.7,39.7,0,0,0-4.1-4.1,20.7,20.7,0,0,1,3.1,2.7l2.4,2.8a13.7,13.7,0,0,0,1.7,1.7,11.7,11.7,0,0,1,1.6,1.5Z" style="fill:#fff"/><path d="M18.4,260.5a64.4,64.4,0,0,1-8.5-13.2c-4.6-10-4.5-20.2-4.3-29.3h0v-.4a2.1,2.1,0,0,1,1.6-1.8l3.9-1.1c1.9-.5,4.1-1.1,8.4-2.5l1.6-.5c6.3-2,9.8-3.2,15.6-5.6l5-2.1c2.9-1.3,5.7-2.5,9.3-3.9,5.7-2.3,7.8-4,10.2-6.1a25.5,25.5,0,0,0,5.8-7.6l.5-.7a74,74,0,0,1,5-8.6c.9-1.2,1.7-2.4,2.4-3.5s2.5-3.8,3.9-5.6l3.2-3.9,4.3-5.3c1.7-2.3,1.8-5.4,1.8-8.4v-1.7c.2-3.1.3-6.3,2.6-9.2a43.7,43.7,0,0,1,8.2-7.9l3.3-2.8c.7-.7,1.2-1.4,1.8-2.1l2.4-2.6h.1a7,7,0,0,1,4.2-2.5h.8a3.5,3.5,0,0,1,3.5,2.8c1.5,5.8-2.8,8.8-6.9,11.7-1.2.8-2.3,1.7-3.3,2.5l-1.8,1.5a21.7,21.7,0,0,0-5.5,5.4,12.2,12.2,0,0,0-1.2,2.6h.2a.6.6,0,0,0,.5-.2,2.3,2.3,0,0,0,.5-1.1l.3-.8a16,16,0,0,1,4.2-4.4l1.8-1.5a53.9,53.9,0,0,1,6.7-5.1l2.3-1.5.9-.7c2.7-2,8.9-6.6,12.7-6.6a3.1,3.1,0,0,1,3.2,2.7,9.6,9.6,0,0,1,0,2.4,9.1,9.1,0,0,1-2.3,4.3l-2.1,2.1-1.1.9a2.6,2.6,0,0,1-1.9.8l-2.3.4-.8.2-1,.4-1.9.6a25.5,25.5,0,0,0-6.6,4.8l-2.4,2.9a12.9,12.9,0,0,1-1.7,1.6,11.4,11.4,0,0,0-1.9,1.9h-.1l-.3.6a.1.1,0,0,0,.1.1h.3a25.1,25.1,0,0,0,5.6-5.2,26.2,26.2,0,0,1,6-5.5,22.7,22.7,0,0,1,8.9-2.4,57.2,57.2,0,0,1,5.8-.2l1.9.2h.2l3.4.5a30.3,30.3,0,0,1,7,1.5,3,3,0,0,1,1.7,1.6,2.6,2.6,0,0,1-.2,2.3,3.8,3.8,0,0,1-.9,1.3h-.1a23.6,23.6,0,0,1-8.3,2.3,21.1,21.1,0,0,1-3.5.2h-1a28.2,28.2,0,0,0-4.1.2,10.1,10.1,0,0,0-4.7,2.4l-.4.3-1.2,1.1-2.4,2.4-1.3,1.3-1.4,1.1a8.4,8.4,0,0,0-2.1,2.1v.2h.4l.6-.2.3-.2,2.7-.8,3.1-1.1a52.6,52.6,0,0,1,10-2.6,25,25,0,0,1,5.1-.6c3,0,5.2.8,6.5,2.4a62.4,62.4,0,0,0,7.1,8.1l1,.8c2.1,1.9,4.6,4.1,4.9,7s-.2,3.1-1.2,3.7a5.4,5.4,0,0,1-2.4.5,9.6,9.6,0,0,1-3.3-.6,22,22,0,0,1-6.3-3.9l-3.2-2.3a4.8,4.8,0,0,0-2.7-1.1h-.8a44.8,44.8,0,0,0-7.1,2.2l-3,1.1h-.1c-3.1,1-6.7,2.2-9.4,4.3a10.8,10.8,0,0,0-4,8.2c-.1,3,1.9,5.6,5.3,7l1.1.4h.1a10,10,0,0,0,3.1,1.2,21.3,21.3,0,0,0,5.8.9,11,11,0,0,0,5.5-1.4,11.1,11.1,0,0,0,3.6-3.2c.2-.3.4-.8.7-1.2a34.8,34.8,0,0,0,1.7-3.3,14.5,14.5,0,0,1,2.2-3.3,7.8,7.8,0,0,1,5.2-2.7l1.4-.2h.2a1.8,1.8,0,0,1,1.8,1.7h0v1.5c-.1.9-.3,1.7-.4,2.4a64.8,64.8,0,0,1-1.9,8.5.7.7,0,0,0-.1.5,14.7,14.7,0,0,1-4.4,7.5l-.2.2a33.7,33.7,0,0,1-9.1,5.7,85.2,85.2,0,0,1-9.7,3.3l-1.3.4a42.7,42.7,0,0,1-7.7,1.3l-3.8.4a43.5,43.5,0,0,0-8,2.4l-3,1a154.2,154.2,0,0,0-22.3,9.4c-4.6,2.4-10.1,5.3-15.6,8.7L43.3,245.7l-10.7,6.5L19,260.5l-.3.2Z" style="fill:#333031"/><path d="M111.5,121.8a3,3,0,0,1,3.1,2.5c1.8,7.2-5.5,9.9-10.1,13.8-2.6,2.2-5.5,4.1-7.3,7a8.8,8.8,0,0,0-1.3,2.8.5.5,0,0,0,.6.4,1.1,1.1,0,0,0,.7-.3c.5-.4.7-1.5,1-2,1.3-2.4,4-4,5.9-5.9a81.1,81.1,0,0,1,8.9-6.5c1.6-1.1,9.1-7.2,13.4-7.2a2.6,2.6,0,0,1,2.8,2.4,8.9,8.9,0,0,1,0,2.3,8.7,8.7,0,0,1-2.2,4.1l-3.2,2.9a2.1,2.1,0,0,1-1.6.7l-2.4.4-.8.3-2.9,1a23.3,23.3,0,0,0-6.8,4.8h0l-2.4,2.9c-1.1,1.3-2.6,2.3-3.6,3.6s-.6.7-.5,1,.3.4.5.4h.5c4.5-2.8,7-8,11.6-10.7,2.5-1.6,5.8-2.1,8.7-2.4l5.8-.2h0l1.8.2h.2c3.6.7,6.9.6,10.3,2a2.5,2.5,0,0,1,1.4,3.4l-.9,1.1h0a22.8,22.8,0,0,1-8.2,2.3,19.4,19.4,0,0,1-3.4.2h-1a29.5,29.5,0,0,0-4.2.2c-2.4.4-3.4,1.4-5.3,2.8l-1.2,1.1c-1.6,1.5-2.4,2.4-3.7,3.7s-2.8,1.9-3.6,3.3a.6.6,0,0,0,.6.9h.2a3.6,3.6,0,0,0,1.1-.4l5.7-1.9a49,49,0,0,1,10-2.6,26.3,26.3,0,0,1,5-.6c2.4,0,4.8.6,6.1,2.2A70.4,70.4,0,0,0,148,166c2.3,2,5.4,4.3,5.8,7.5.1,1.2.1,2.7-1,3.3a3.8,3.8,0,0,1-2.2.5,13.4,13.4,0,0,1-3.1-.5c-3.5-1.2-6.4-4.3-9.4-6.2a5.6,5.6,0,0,0-3-1.2h-.9c-3.5.6-6.8,2.2-10.2,3.3s-6.8,2.3-9.5,4.4a11.3,11.3,0,0,0-4.2,8.5c-.1,3.5,2.4,6.1,5.5,7.4l1.2.4h0a12.4,12.4,0,0,0,3.2,1.2,24.9,24.9,0,0,0,5.9.9,10.6,10.6,0,0,0,5.7-1.5c1.4-.7,2.1-1.3,3.7-3.3l.8-1.2c.6-1.1,1.2-2.2,1.7-3.3a11.1,11.1,0,0,1,2.1-3.2c1.3-1.7,2.8-2.2,5-2.6h0l1.4-.2h.1a1.4,1.4,0,0,1,1.4,1.3v1.6a73.8,73.8,0,0,1-2.3,10.8,4.3,4.3,0,0,0-.1.5,15.1,15.1,0,0,1-4.3,7.3l-.2.2a30.2,30.2,0,0,1-9,5.6,87.4,87.4,0,0,1-10.9,3.7c-3.8,1.1-7.6,1.2-11.4,1.7s-7.4,2.2-11.1,3.5a151.1,151.1,0,0,0-22.4,9.3c-5.3,2.8-10.5,5.6-15.6,8.7L43.1,245.3c-8.1,5-16.3,9.8-24.3,14.9a58.8,58.8,0,0,1-8.5-13.1C5.8,237.6,5.8,228,6,218v-.3a1.8,1.8,0,0,1,1.3-1.5c4-1.3,5.2-1.3,12.3-3.6s11-3.5,17.3-6.1l14.2-6.1c5.9-2.3,8-4.1,10.3-6.1a26.1,26.1,0,0,0,6-7.7,78.4,78.4,0,0,1,5.5-9.3c2.1-3,3.9-6.1,6.2-9s5.1-6.1,7.5-9.3,1.8-6.9,1.9-10.3.3-6.3,2.5-9a46,46,0,0,1,8.1-7.8l3.4-2.8c1.4-1.5,2.2-2.7,4.2-4.7a7.1,7.1,0,0,1,4-2.5h.8m0-.8h-.9a7.7,7.7,0,0,0-4.4,2.6h-.1l-2.4,2.7-1.8,2c-1,.9-2,1.8-3.3,2.8a47,47,0,0,0-8.2,7.9c-2.4,3-2.5,6.3-2.7,9.5v1.7c0,2.9-.1,6-1.7,8.1s-2.8,3.6-4.3,5.3l-3.2,4c-1.4,1.8-2.7,3.7-3.9,5.5l-2.4,3.5a85.7,85.7,0,0,0-5.1,8.7l-.4.8a25.8,25.8,0,0,1-5.8,7.4c-2.4,2.2-4.4,3.7-10.1,6-3.6,1.4-6.3,2.6-9.2,3.9l-5,2.1A143.3,143.3,0,0,1,21,211.3l-1.6.6c-4.3,1.4-6.5,1.9-8.4,2.4l-4,1.1a2.7,2.7,0,0,0-1.8,2.2v.3h0c-.2,9.1-.3,19.4,4.3,29.4a60.5,60.5,0,0,0,8.6,13.3l.5.5.6-.3c4.5-2.9,9.1-5.7,13.6-8.4L43.5,246l14.8-9.1,2.6-1.7c5.5-3.3,11-6.3,15.6-8.7a156,156,0,0,1,22.3-9.3l2.9-1a45.9,45.9,0,0,1,8-2.4l3.7-.4a42.4,42.4,0,0,0,7.8-1.3l1.3-.4a79.1,79.1,0,0,0,9.7-3.3,35.1,35.1,0,0,0,9.3-5.8l.2-.2a15.2,15.2,0,0,0,4.4-7.8c.1-.1.1-.3.2-.4a64.8,64.8,0,0,0,1.9-8.5c.1-.8.3-1.6.4-2.4s.1-.2.1-.4v-1.2h0a2.2,2.2,0,0,0-2.2-2.1h-.2l-1.4.2h-.1c-2.3.4-4,1-5.5,2.8a22.5,22.5,0,0,0-2.2,3.5,30.7,30.7,0,0,1-1.6,3.1,10.5,10.5,0,0,1-.8,1.3,9.7,9.7,0,0,1-3.3,3h-.1a9.3,9.3,0,0,1-5.3,1.4,20,20,0,0,1-5.7-.9,12.7,12.7,0,0,1-3-1.1h-.2l-1.1-.4c-3.2-1.3-5.1-3.8-5-6.6a10.5,10.5,0,0,1,3.9-7.9c2.6-2,6.1-3.2,9.2-4.2h.1l3-1.1a36.4,36.4,0,0,1,7.1-2.2h.7a4.8,4.8,0,0,1,2.5,1l3.2,2.3a21.5,21.5,0,0,0,6.4,4,9.7,9.7,0,0,0,3.4.6,4.8,4.8,0,0,0,2.6-.6c1.2-.6,1.7-2,1.4-4.1s-2.8-5.2-5-7.2l-1-.8a62.4,62.4,0,0,1-7.1-8.1c-1.3-1.6-3.6-2.5-6.8-2.5a26.8,26.8,0,0,0-5.2.6,57.8,57.8,0,0,0-10.1,2.6l-3,1.1-2.7.9h-.6a8.3,8.3,0,0,1,1.7-1.5l1.4-1.2,1.3-1.3,2.5-2.4,1.1-1,.5-.4a8.5,8.5,0,0,1,4.4-2.3,27.5,27.5,0,0,1,4.1-.2h1a21.1,21.1,0,0,0,3.5-.2,21.7,21.7,0,0,0,8.4-2.4h.2a4.9,4.9,0,0,0,1.1-1.4,3,3,0,0,0,.1-2.6,3.2,3.2,0,0,0-1.9-1.9,30,30,0,0,0-7.1-1.5l-3.3-.5h-.2l-2-.2a57.2,57.2,0,0,0-5.8.2h-.8a4.1,4.1,0,0,0,1.1-.7l1-.9a21.8,21.8,0,0,0,2.2-2.1,9,9,0,0,0,2.4-4.5,11.3,11.3,0,0,0,0-2.6,3.5,3.5,0,0,0-3.6-3c-3.5,0-8.5,3.3-12.9,6.7l-.8.5c2.3-2.2,3.7-4.9,2.7-8.7a4,4,0,0,0-3.9-3.1Zm-1.6,24.9a20.7,20.7,0,0,1,3.1-2.7,39.7,39.7,0,0,0-4.1,4.1,29.1,29.1,0,0,1-4.7,4.6,11.7,11.7,0,0,1,1.6-1.5,13.7,13.7,0,0,0,1.7-1.7l2.4-2.8Z" style="fill:#fff"/><path d="M145.4,196.3c.2-.5.3-1.1.5-1.7a.6.6,0,0,1,.1-.4,64.8,64.8,0,0,0,1.9-8.5c.1-.7.3-1.5.4-2.4s.1-.2.1-.3v-1.3h0a2,2,0,0,0-1.9-1.9h-.2l-1.4.2c-2.3.5-3.9,1.1-5.3,2.8l-1,1.2V162.1a1.8,1.8,0,0,1,1.7-1.7h81a1.8,1.8,0,0,1,1.7,1.7v26.8a24.3,24.3,0,0,1-1.4-2.8,14.5,14.5,0,0,0-2.2-3.3c-1.4-1.7-3-2.3-5.3-2.8h-1.6a2,2,0,0,0-1.9,1.9h0V183c0,.1.1.2.1.3s.3,1.7.4,2.4a64.8,64.8,0,0,0,1.9,8.5.7.7,0,0,1,.1.5c.2.5.3,1.1.5,1.6Z" style="fill:#66c6c6"/><path d="M221.4,160.9a1.1,1.1,0,0,1,1.1,1.2v24.6l-.3-.8a17,17,0,0,0-2.3-3.4c-1.5-1.9-3.2-2.5-5.6-3h-.1l-1.4-.2h-.2a2.4,2.4,0,0,0-2.4,2.4h0V183c0,.2.1.3.1.4s.3,1.6.4,2.4a64.8,64.8,0,0,0,1.9,8.5c.1.1.1.2.1.5l.3,1h-67l.3-1a2,2,0,0,1,.1-.5,64.8,64.8,0,0,0,1.9-8.5c.1-.8.3-1.5.4-2.4s.1-.2.1-.4v-1.2h0a2.4,2.4,0,0,0-2.4-2.4h-.2l-1.4.2h-.1c-2.4.5-4.1,1.1-5.6,3h0V162.1a1.1,1.1,0,0,1,1.1-1.2h81m0-1h-81a2.2,2.2,0,0,0-2.2,2.2v23.7a14.8,14.8,0,0,1,1.9-2.7c1.3-1.6,2.8-2.1,5-2.6h1.5a1.4,1.4,0,0,1,1.4,1.3v1.5a71.1,71.1,0,0,1-2.3,10.8c0,.2-.1.3-.1.5a22.5,22.5,0,0,1-.8,2.4h70a22.5,22.5,0,0,1-.8-2.4.9.9,0,0,0-.1-.5,71.1,71.1,0,0,1-2.3-10.8v-1.5a1.4,1.4,0,0,1,1.4-1.3h1.5c2.2.5,3.7,1,5,2.6a13.1,13.1,0,0,1,2.1,3.3,32.4,32.4,0,0,0,1.7,3.2l.7,1.1V162.1a2.2,2.2,0,0,0-2.2-2.2Z" style="fill:#fff"/><path d="M149.2,192.7a7.2,7.2,0,0,0-1.8-4.4c.2-.8.3-1.7.5-2.6s.3-1.5.4-2.4.1-.2.1-.3v-1.3h0a2,2,0,0,0-1.9-1.9h-.2l-1.4.2a9.8,9.8,0,0,0-2.9.9v-9.7a7.7,7.7,0,0,0,7.1-7.1H212a7.7,7.7,0,0,0,7.1,7.1v11.1c-1.3-1.4-2.8-1.9-4.9-2.3h-1.6a2,2,0,0,0-1.9,1.9h0V183c0,.1.1.2.1.3s.3,1.6.4,2.4a45.2,45.2,0,0,0,1.1,5.3,10.5,10.5,0,0,0-.4,1.7Z" style="fill:#66c6c6"/><path d="M211.6,164.6a8.2,8.2,0,0,0,7,7.1v9.5a11.1,11.1,0,0,0-4.3-1.7h-.1l-1.4-.2h-.2a2.4,2.4,0,0,0-2.4,2.4h0V183c0,.2.1.3.1.4s.3,1.6.4,2.4.6,3.5,1,5.2a5,5,0,0,0-.2,1.2H149.7a8,8,0,0,0-1.7-4c.1-.8.3-1.6.4-2.4s.3-1.6.4-2.4.1-.2.1-.4v-1.2h0a2.4,2.4,0,0,0-2.4-2.4h-.2l-1.4.2h-.1l-2.3.6v-8.4a8.3,8.3,0,0,0,7.1-7.1h61.9m.9-1H148.7a7.1,7.1,0,0,1-7.1,7.1v11a11.1,11.1,0,0,1,3.5-1.2h1.5a1.4,1.4,0,0,1,1.4,1.3v1.5c-.3,1.9-.6,3.6-.9,5.2a7.5,7.5,0,0,1,1.8,4.8h63.8a7.8,7.8,0,0,1,.4-2.2c-.6-2.5-1-4.8-1.5-7.8v-1.5a1.4,1.4,0,0,1,1.4-1.3h1.5c2.2.5,3.7,1,5,2.6l.5.7V170.7a7.1,7.1,0,0,1-7.1-7.1Z" style="fill:#fff"/><path d="M141.6,164.1h0l-.5.3v-.5l.7-.4h.5v3.2h-.6Z" style="fill:#fff"/><path d="M144.9,165.1c0,1-.4,1.7-1.2,1.7s-1.1-.7-1.1-1.7.4-1.6,1.2-1.6S144.9,164.2,144.9,165.1Zm-1.7,0c0,.8.2,1.2.5,1.2s.6-.4.6-1.2-.2-1.2-.6-1.2S143.2,164.3,143.2,165.1Z" style="fill:#fff"/><path d="M147.4,165.1c0,1-.4,1.7-1.2,1.7s-1.1-.7-1.1-1.7.4-1.6,1.2-1.6S147.4,164.2,147.4,165.1Zm-1.7,0q0,1.2.6,1.2c.3,0,.5-.4.5-1.2s-.2-1.2-.5-1.2S145.7,164.3,145.7,165.1Z" style="fill:#fff"/><path d="M215.6,164.1h0l-.6.3v-.5l.8-.4h.5v3.2h-.6Z" style="fill:#fff"/><path d="M218.8,165.1c0,1-.4,1.7-1.1,1.7s-1.1-.7-1.1-1.7.4-1.6,1.1-1.6S218.8,164.2,218.8,165.1Zm-1.6,0c0,.8.2,1.2.5,1.2s.5-.4.5-1.2-.1-1.2-.5-1.2S217.2,164.3,217.2,165.1Z" style="fill:#fff"/><path d="M221.4,165.1c0,1-.4,1.7-1.2,1.7s-1.1-.7-1.1-1.7.4-1.6,1.1-1.6S221.4,164.2,221.4,165.1Zm-1.7,0c0,.8.2,1.2.5,1.2s.6-.4.6-1.2-.2-1.2-.6-1.2S219.7,164.3,219.7,165.1Z" style="fill:#fff"/><path d="M180.6,190.6c-5,0-9.1-5.5-9.1-12.2s4.1-12.2,9.1-12.2,9.2,5.5,9.2,12.2S185.7,190.6,180.6,190.6Zm0-23.4c-4.4,0-8.1,5-8.1,11.2s3.7,11.1,8.1,11.1,8.1-5,8.1-11.1S185.1,167.2,180.6,167.2Z" style="fill:#fff"/><rect x="196.7" y="177.9" width="12.5" height="1.03" style="fill:#fff"/><rect x="196.7" y="175" width="12.5" height="1.03" style="fill:#fff"/><rect x="196.7" y="180.7" width="12.5" height="1.03" style="fill:#fff"/><rect x="153.3" y="177.9" width="12.5" height="1.03" style="fill:#fff"/><rect x="153.3" y="175" width="12.5" height="1.03" style="fill:#fff"/><rect x="153.3" y="180.7" width="12.5" height="1.03" style="fill:#fff"/><line x1="180.8" y1="151.4" x2="180.8" y2="139.4" style="fill:none;stroke:#66c6c6;stroke-linecap:round;stroke-linejoin:round;stroke-width:2px"/><line x1="189.3" y1="153.7" x2="194" y2="148.9" style="fill:none;stroke:#66c6c6;stroke-linecap:round;stroke-linejoin:round;stroke-width:2px"/><line x1="172.6" y1="153.7" x2="168" y2="148.9" style="fill:none;stroke:#66c6c6;stroke-linecap:round;stroke-linejoin:round;stroke-width:2px"/><line x1="181.1" y1="205.3" x2="181.1" y2="217.3" style="fill:none;stroke:#66c6c6;stroke-linecap:round;stroke-linejoin:round;stroke-width:2px"/><line x1="172.6" y1="203" x2="168" y2="207.8" style="fill:none;stroke:#66c6c6;stroke-linecap:round;stroke-linejoin:round;stroke-width:2px"/><line x1="189.3" y1="203" x2="194" y2="207.8" style="fill:none;stroke:#66c6c6;stroke-linecap:round;stroke-linejoin:round;stroke-width:2px"/></svg>