<svg xmlns="http://www.w3.org/2000/svg" viewBox="0 0 360 360"><title>illustr--oneTimePlan</title><path d="M288.2,60.6c-1.6-.9-3.3-1.4-7.8-1.4H80.1c-4.6,0-6.2.5-7.8,1.4a8.7,8.7,0,0,0-3.8,3.8c-.9,1.6-1.4,3.2-1.4,7.8V272.5c0,4.5.5,6.2,1.4,7.8a9.3,9.3,0,0,0,3.8,3.8c1.6.9,3.2,1.4,7.8,1.4H280.4c4.5,0,6.2-.5,7.8-1.4a9.9,9.9,0,0,0,3.8-3.8c.9-1.6,1.4-3.3,1.4-7.8V72.2c0-4.6-.5-6.2-1.4-7.8A9.3,9.3,0,0,0,288.2,60.6Zm3.9,211.9c0,4.7-.5,5.9-1.2,7.2a7.5,7.5,0,0,1-3.3,3.3c-1.3.7-2.5,1.2-7.2,1.2H80.1c-4.7,0-5.9-.5-7.2-1.2a7.5,7.5,0,0,1-3.3-3.3c-.7-1.3-1.2-2.5-1.2-7.2V72.2c0-4.7.5-6,1.2-7.2a7.5,7.5,0,0,1,3.3-3.3c1.3-.7,2.5-1.2,7.2-1.2H280.4c4.7,0,5.9.5,7.2,1.2a7.5,7.5,0,0,1,3.3,3.3c.7,1.2,1.2,2.5,1.2,7.2Z" style="fill:#afadad"/><path d="M188.6,126c-2.8,3.3-.2,9.7,1.8,12.8a29.6,29.6,0,0,0,6.9,7.6,2.5,2.5,0,0,1,.2-1.3,48.5,48.5,0,0,0-1.2-14.7,12.3,12.3,0,0,0-3.3-5.6C191.4,124.7,189.7,124.7,188.6,126Z" style="fill:#231f20"/><path d="M161.5,140.1a67.4,67.4,0,0,1,6,11.2l.8,1.7a22.1,22.1,0,0,1,2.5,7.9v.5a11,11,0,0,1-.2,2.5v.3h.2a10.4,10.4,0,0,0,4.4,1.4,6.2,6.2,0,0,0,3.8-1.2,8.1,8.1,0,0,0,2.8-4.8c1-8.4.7-17.3-2.6-25.2a56.9,56.9,0,0,0-5.5-8.9,11.3,11.3,0,0,0-2.9-2.4l-2.3-1.2h-.2c-3.5-1.3-7.4-1.5-10.9-2.6h-.3c-3.6-.3-5.8,1.1-8.7,3.1l-.2.2a7.4,7.4,0,0,1-1.3.8c-3.5,2.1-4.3,4.5-4.5,8.4v1.2h.7A17.9,17.9,0,0,1,161.5,140.1Z" style="fill:#231f20"/><path d="M171.4,122.7h.2c.3.2.7.4.8.7a12.6,12.6,0,0,1,2,2,36.1,36.1,0,0,1,4.4,6.6,35,35,0,0,1,2.7,6.4,17.3,17.3,0,0,0,.8,2.1,19.8,19.8,0,0,1,.7,4c.1,2.3.8,5.1.6,7.4a15.3,15.3,0,0,1-.3,3c0,1.4-.2,2.8-.3,4.2.9,4.5,9.8-.9,11.5-3.1a11,11,0,0,0,1.5-2.6,29.6,29.6,0,0,0,.6-5c0-.3-.1-.8-.5-.9a46.1,46.1,0,0,1-9.2-10.8,16.9,16.9,0,0,1-1.5-7.2c0-5.4,2.3-6.9,5.5-6.9l-.7-.8c-2.6-3.5-4.9-6.8-8.6-9.1s-6.9-3.6-10.7-3c-2.1.4-5.2,1.7-6.7,3.7a40.6,40.6,0,0,0-5.1,4.2.9.9,0,0,0,0,1.2C163.4,120,167.8,120.2,171.4,122.7Z" style="fill:#231f20"/><path d="M180,110.8h0c2.8.5,4.9,3.3,6.9,5A32.6,32.6,0,0,1,191,120c.9,1,1.5,2,2.3,3,4.8,1.2,10.6,4.5,14.4,5.1a20,20,0,0,0-.7-5.4,22.3,22.3,0,0,1-.3-2.7c-.4-2.3-1-3.1-2.8-4.7a32.5,32.5,0,0,0-5.6-5.5h0a42.1,42.1,0,0,0-5.5-3.9c-4.4-2.3-9.8.5-13.3,3.4C178.7,110,179.3,111,180,110.8Z" style="fill:#231f20"/><path d="M266.1,330.5h0s-9.2-19.7-16.6-34.7h0c-11-22.6-23.6-48.1-25.2-53.6a114.1,114.1,0,0,1-3.5-14.9v-.4c-1.1-5.7-2.1-11.2-.3-17.1L222,206a18.4,18.4,0,0,0,2-6.4c.1-1.2.1-2.1.3-3.3v-.5c.2-1.3.3-2.8.5-4.1.8-4.8,2-9.4,2.8-12.9,1.6-6.2,2.6-11.2,1.5-17.1a113.8,113.8,0,0,0-5-16.3l-.5-1.1a24.2,24.2,0,0,1-1-4.5,33.5,33.5,0,0,0-2.9-4.4c-2-2.2-4.3-2.8-6.9-3.7a70.1,70.1,0,0,1-10.6-3.9v.2a28.1,28.1,0,0,0-10.2-3.8c-3.1-.5-5.1,1.1-5.6,4.2a8.6,8.6,0,0,0,.7,4.5c.6,3.8,3.1,6.4,5.7,9.2s5.8,6.4,9.3,8.6a3.8,3.8,0,0,1,.6,1.3,20.7,20.7,0,0,1-.3,3.5,9.9,9.9,0,0,1-2.3,4.1,7.5,7.5,0,0,0-1.3,1.8c-2,3.1-2.5,7.1-2.8,10.4,0,.8-.2,1.4-.2,2.3v.3c-.2,1-.2,2.1-.3,3.1s-.2,1-.2,1.5v.2a3,3,0,0,1-.2,1.3v4.8h0v1.5a15.4,15.4,0,0,0,.4,3c0,.3.1.6.1,1a1.1,1.1,0,0,1-.1.5h-.8c-.2-.2-.2-.2-.2-.4-1-5.1-.5-10.3,0-15.6.2-1,.2-2,.3-3a32.7,32.7,0,0,1,1.8-9l2.3-4.3a22.7,22.7,0,0,0,1.8-2.8,5.2,5.2,0,0,0,.4-2.8,5.6,5.6,0,0,0-2.5-3.3.3.3,0,0,0-.5.2,22.1,22.1,0,0,1-1.1,5.1l-.9,1.3c-.1.3-.5.6-.6.8a6.8,6.8,0,0,0-1.2,1.2,14.8,14.8,0,0,1-7.7,2.9,4.6,4.6,0,0,1-3.6-1.3,9.1,9.1,0,0,1-1.9,3.8l-.4.5h-.2l-.7.5c-.1,0-.1.2-.3.2l-.2.2h-.1l-.2.2c-.2,0-.2.2-.3.2h-.2s-.2,0-.2.1l-.3.2c-.1,0-.1,0-.1.2h-.5c-.2,0-.4,0-.5.2h-.7a11.2,11.2,0,0,1-3.1-.3l-.4-.2-.4-.2h-.4l-.3-.2h0c-.2,0-.2-.2-.3-.2l-1.2-.5-.2.4a6.3,6.3,0,0,1-6.4,3.6l-1-.2-1.3-.3h-.1a11.5,11.5,0,0,1-2.5-1.2h-.3a12.6,12.6,0,0,1-3.3-2.8c-.2-.2-.2-.4-.4-.5l-.3-.5-.3-.3-.5-.7-.4-.3v.3a11,11,0,0,1-2.2,2.1l-.3.2-1,.7h-.1a12,12,0,0,1-6.6,2.3h-.4a.6.6,0,0,1-.1-.4,1.1,1.1,0,0,1,.1-.5h1.2l1.2-.2h0l.9-.3h.2l1.2-.5.9-.5.2-.2a2.7,2.7,0,0,0,1-.6h0l.3-.4a18.5,18.5,0,0,0,2.8-2.8h.2l-.2-.2a4.1,4.1,0,0,1-.8-1.3l-.3-.5c-.4-.3-.5-.8-.8-1.1l-.4-.5a10.9,10.9,0,0,1-.8-1.5l-1-1.7H148v-.4h.2c.3-.2.7-.2.8.1h0c.4.4.5.9.9,1.2v.2c3,4.7,6.3,10.2,11.5,12a6.6,6.6,0,0,0,5-.2,6.2,6.2,0,0,0,2.8-3.3h0c1-3.8-.7-7.4-2.3-10.8V153a7.6,7.6,0,0,0-.7-1.3c-.5-1.2-1-2.2-1.5-3.2a7.6,7.6,0,0,0-1.1-1.6l-2.2-3.5a23.2,23.2,0,0,0-2.8-4.4c-.1-.2-.3-.3-.4-.7a17.4,17.4,0,0,0-10.1-4.6h-2.5l-1.9.2h-1.4l-.4.2h-.2a26.8,26.8,0,0,0-6.8,2.6c-2.1,1.5-3.1,3.5-3.4,6.6s-.4,6.8-.5,10.2h0c0,1.7-.2,3.5-.2,5.5s-.1,3.3-.1,4.8c-.2,3.6-.2,7.4-.7,11v.3a74.2,74.2,0,0,0,7.1,16.7c3.8,6.4,9,12.6,12.3,19.6a83.3,83.3,0,0,0,8.6,13.8,107.3,107.3,0,0,1,8.2,12.5c5.5,10,7.9,21.7,10.7,32.8s5.5,24.3,7.9,36.7c1.7,7.9,3.2,16,5,23.9S195,343,195,343h0v.2c1.2.7,2.7.5,3.8.7l6.5.8a98.7,98.7,0,0,0,12.1,1,219.7,219.7,0,0,0,24.3-1.2,58.9,58.9,0,0,0,21.2-6.6,5.9,5.9,0,0,0,3.5-5.9A3,3,0,0,0,266.1,330.5Z" style="fill:#231f20"/><path d="M208,130.4c-4.1-.3-7.9-2.9-11.7-4.3l-1.2-.5a13.7,13.7,0,0,1,2.7,7,94.8,94.8,0,0,1,.3,13.1c0,.5-.2,1-.2,1.5a3.1,3.1,0,0,0,1,.8c.9.9,2.2,1.5,3.2,2.5,0-.6.1-1.1.1-1.8s.2-2,.4-2.8a16.9,16.9,0,0,1,1.9,5.6,22.9,22.9,0,0,1-1,2.3,6.2,6.2,0,0,1-.4,2.3c.1.2.4.3.8,0a4.3,4.3,0,0,0,1.8-3.4,49.5,49.5,0,0,0,1.8-6.6c.5-4,1.2-8.6.8-12.5A15.8,15.8,0,0,0,208,130.4Z" style="fill:#231f20"/><path d="M224.5,143.9a9.8,9.8,0,0,1-.5-1.6,19.1,19.1,0,0,0-2.8-6.6l-.7-.8a6.9,6.9,0,0,0-2.5-2l21.4-7.4-11.3-3.3L346.5,89.7l-96.2,37.6,27.8-.3-53.5,17.6Z" style="fill:#66c8c7"/><path d="M332.8,94.4l-79,30.8-7.8,2.9h8.3l18.9-.4-48.2,16-.5-1.5a21.8,21.8,0,0,0-3-6.9,2.9,2.9,0,0,0-.7-.8,8,8,0,0,0-1.3-1.3l17.8-6.1,4.5-1.5-4.7-1.3-6.5-1.8,102.2-28M360,85.3,225.3,122.2l11.7,3.3-20.9,7.2a7.9,7.9,0,0,1,3.7,2.7l.7.8a18.3,18.3,0,0,1,2.8,6.2l.5,1.9.5,1.1v.2l58.8-19.5-28.7.4L360,85.3Z" style="fill:#fff"/><path d="M116.8,176.5H92.9L150,156.6c2.2,3.5,4.6,7.4,8.1,9.9l-27.7,9.2L148,178,14.5,221Z" style="fill:#66c8c7"/><path d="M149.7,157.6c1.8,3,3.9,6.3,6.9,8.7l-23.4,7.8L127,176l6.4.9,11,1.4L28.5,215.6l85.1-37.1,6.6-3h-23l52.5-17.9m.5-1.8L88.4,177.4l24.7-.2L.2,226.3l151-48.6-17.6-2.3,26.1-8.6c-4.1-2.5-6.9-6.9-9.5-11Z" style="fill:#fff"/></svg>