<svg xmlns="http://www.w3.org/2000/svg" viewBox="0 0 504 504"><title>illustr--Artboard 16 copyv 2</title><path d="M390.9,112.7c-2.1-1.1-4.2-1.7-10-1.7H121.2c-5.8,0-7.9.6-10.1,1.7a12.8,12.8,0,0,0-4.9,4.9c-1.1,2.2-1.7,4.3-1.7,10.1V387.4c0,5.8.6,7.9,1.7,10a12.4,12.4,0,0,0,4.9,5c2.2,1.1,4.3,1.7,10.1,1.7H380.9c5.8,0,7.9-.6,10-1.7a12.1,12.1,0,0,0,5-5c1.1-2.1,1.7-4.2,1.7-10V127.7c0-5.8-.6-7.9-1.7-10.1A12.4,12.4,0,0,0,390.9,112.7ZM396,387.4c0,5.9-.7,7.6-1.6,9.3a10.6,10.6,0,0,1-4.2,4.2c-1.7.9-3.4,1.6-9.3,1.6H121.2c-5.9,0-7.6-.7-9.3-1.6a10,10,0,0,1-4.2-4.2c-.9-1.7-1.6-3.4-1.6-9.3V127.7c0-5.9.7-7.7,1.6-9.3a9.5,9.5,0,0,1,4.2-4.2c1.7-.9,3.4-1.6,9.3-1.6H380.9c5.9,0,7.6.7,9.3,1.6a10,10,0,0,1,4.2,4.2c.9,1.6,1.6,3.4,1.6,9.3Z" style="fill:#afadad"/><path d="M404.5,222.6l-16.1-1.4V221a95.6,95.6,0,0,0-53.7-58.9,63,63,0,0,0-4.3-16.4c-1.7-4.1-3.8-10.9-9.4-10.5s-13.2,6.3-18,9.3-7.3,4.9-10.7,7.5l-69.2-13.2v.2a97.1,97.1,0,0,0-15.8-1.3,112.2,112.2,0,0,0-105.1,72.9,8.3,8.3,0,0,1-12.4-3.2c-1.3-2.7-1.7-6.2,0-8.9s5.6-3.9,6.4-.1,8.5,2.9,7.5-2-7.5-9.2-13.1-7.8-10.2,9.3-9.6,15.9a17.2,17.2,0,0,0,18.2,15.3,112.2,112.2,0,0,0,51.6,127c-1.4,6.5-4.6,16.7-4.9,23.3-.1,3.9.2,7.7,3.6,10.2s11.9,3.6,17.2,4.2a97.1,97.1,0,0,0,12.1.7,6.7,6.7,0,0,0,3.8-1.3c5.2-3.6,9.6-8.7,13.3-14.2a11.8,11.8,0,0,0,1-1.6,24.9,24.9,0,0,1,2.7-4.5c6.3,0,43.2-1.9,55.1-3.7,16.2-2.4,21.5-4.1,30.3-8.5,3.9,9.4,0,0,6,14.9,1.5,3.5,2.3,7.3,5.2,10s10.7,4.2,16.7,4.5a53.7,53.7,0,0,0,6.8-.1,11.4,11.4,0,0,0,9.7-9.3c1.7-10.4.1-28.4,1.3-31.5a1.9,1.9,0,0,0,.2-.7A95.1,95.1,0,0,0,380.4,297l17.2,1.5a7.1,7.1,0,0,0,7.8-6.5l5.6-61.6A7.3,7.3,0,0,0,404.5,222.6Z" style="fill:#333031"/><path d="M287.4,267.4c0-5.1-12.3-9.2-27.5-9.1s-27.4,4.1-27.4,9.3v3.2c0,5.1,12.3,9.2,27.4,9.2s27.5-4.2,27.5-9.3Z" style="fill:#333031"/><ellipse cx="259.9" cy="266.3" rx="27.4" ry="8" style="fill:#66c8c7"/><path d="M287.4,259.8c0-5.2-12.3-9.3-27.5-9.2s-27.4,4.2-27.4,9.3v3.2c0,5.1,12.3,9.2,27.4,9.2s27.5-4.2,27.5-9.3Z" style="fill:#333031"/><ellipse cx="259.9" cy="258.6" rx="27.4" ry="8" style="fill:#66c8c7"/><path d="M287.4,252c0-5.1-12.3-9.2-27.5-9.2s-27.4,4.2-27.4,9.3v3.2c0,5.1,12.3,9.2,27.4,9.2s27.5-4.2,27.5-9.3Z" style="fill:#333031"/><ellipse cx="259.9" cy="250.8" rx="27.4" ry="8" style="fill:#66c8c7"/><path d="M287.4,244.9c0-5.1-12.3-9.2-27.5-9.2s-27.4,4.2-27.4,9.3v3.2c0,5.1,12.3,9.2,27.4,9.2s27.5-4.2,27.5-9.3Z" style="fill:#333031"/><ellipse cx="259.9" cy="243.7" rx="27.4" ry="8" style="fill:#66c8c7"/><path d="M287.4,237.2c0-5.1-12.3-9.2-27.5-9.2s-27.4,4.2-27.4,9.3v3.2c0,5.1,12.3,9.2,27.4,9.2s27.5-4.2,27.5-9.3Z" style="fill:#333031"/><ellipse cx="259.9" cy="236" rx="27.4" ry="8" style="fill:#66c8c7"/><path d="M287.4,229.4c0-5.1-12.3-9.2-27.5-9.2s-27.4,4.2-27.4,9.3v3.2c0,5.1,12.3,9.3,27.4,9.2s27.5-4.2,27.5-9.3Z" style="fill:#333031"/><ellipse cx="259.9" cy="228.3" rx="27.4" ry="8" style="fill:#66c8c7"/><path d="M287.4,222.3c0-5.1-12.3-9.2-27.5-9.2s-27.4,4.2-27.4,9.3v3.2c0,5.1,12.3,9.2,27.4,9.2s27.5-4.2,27.5-9.3Z" style="fill:#333031"/><ellipse cx="259.9" cy="221.1" rx="27.4" ry="8" style="fill:#66c8c7"/><path d="M287.4,214.6c0-5.1-12.3-9.2-27.5-9.2s-27.4,4.2-27.4,9.3v3.2c0,5.1,12.3,9.3,27.4,9.2s27.5-4.2,27.5-9.3Z" style="fill:#333031"/><ellipse cx="259.9" cy="213.4" rx="27.4" ry="8" style="fill:#66c8c7"/><path d="M212.4,271c0-5.1-12.3-9.2-27.4-9.2s-27.5,4.2-27.5,9.3v3.2c0,5.1,12.3,9.2,27.5,9.2s27.4-4.2,27.4-9.3Z" style="fill:#333031"/><ellipse cx="185" cy="269.8" rx="27.4" ry="8" style="fill:#66c8c7"/><path d="M212.4,263.3c0-5.1-12.3-9.2-27.4-9.2s-27.5,4.2-27.5,9.3v3.2c0,5.1,12.3,9.2,27.5,9.2s27.4-4.2,27.4-9.3Z" style="fill:#333031"/><ellipse cx="185" cy="262.1" rx="27.4" ry="8" style="fill:#66c8c7"/><path d="M212.4,255.5c0-5.1-12.3-9.2-27.4-9.2s-27.5,4.2-27.5,9.3v3.2c0,5.1,12.3,9.3,27.5,9.2s27.4-4.2,27.4-9.3Z" style="fill:#333031"/><ellipse cx="185" cy="254.4" rx="27.4" ry="8" style="fill:#66c8c7"/><path d="M212.4,248.4c0-5.1-12.3-9.2-27.4-9.2s-27.5,4.2-27.5,9.3v3.2c0,5.1,12.3,9.2,27.5,9.2s27.4-4.2,27.4-9.3Z" style="fill:#333031"/><ellipse cx="185" cy="247.2" rx="27.4" ry="8" style="fill:#66c8c7"/><path d="M212.4,240.7c0-5.1-12.3-9.2-27.4-9.2s-27.5,4.2-27.5,9.3V244c0,5.1,12.3,9.3,27.5,9.2s27.4-4.2,27.4-9.3Z" style="fill:#333031"/><ellipse cx="185" cy="239.6" rx="27.4" ry="8" style="fill:#66c8c7"/><path d="M212.4,233c0-5.2-12.3-9.3-27.4-9.2s-27.5,4.2-27.5,9.3v3.2c0,5.1,12.3,9.2,27.5,9.2s27.4-4.2,27.4-9.3Z" style="fill:#333031"/><ellipse cx="185" cy="231.8" rx="27.4" ry="8" style="fill:#66c8c7"/><path d="M212.4,225.8c0-5.1-12.3-9.2-27.4-9.2s-27.5,4.2-27.5,9.3v3.3c0,5.1,12.3,9.2,27.5,9.1s27.4-4.1,27.4-9.3Z" style="fill:#333031"/><ellipse cx="185" cy="224.7" rx="27.4" ry="8" style="fill:#66c8c7"/><path d="M212.4,218.1c0-5.1-12.3-9.2-27.4-9.1s-27.5,4.1-27.5,9.3v3.2c0,5.1,12.3,9.2,27.5,9.2s27.4-4.2,27.4-9.3Z" style="fill:#333031"/><ellipse cx="185" cy="217" rx="27.4" ry="8" style="fill:#66c8c7"/><path d="M212.4,210.4c0-5.1-12.3-9.2-27.4-9.2s-27.5,4.2-27.5,9.3v3.2c0,5.1,12.3,9.2,27.5,9.2s27.4-4.2,27.4-9.3Z" style="fill:#333031"/><ellipse cx="185" cy="209.2" rx="27.4" ry="8" style="fill:#66c8c7"/><path d="M212.4,203.3c0-5.1-12.3-9.3-27.4-9.2s-27.5,4.2-27.5,9.3v3.2c0,5.1,12.3,9.2,27.5,9.2s27.4-4.2,27.4-9.3Z" style="fill:#333031"/><ellipse cx="185" cy="202.1" rx="27.4" ry="8" style="fill:#66c8c7"/><path d="M212.4,195.6c0-5.1-12.3-9.2-27.4-9.2s-27.5,4.2-27.5,9.3v3.2c0,5.1,12.3,9.2,27.5,9.2s27.4-4.2,27.4-9.3Z" style="fill:#333031"/><ellipse cx="185" cy="194.4" rx="27.4" ry="8" style="fill:#66c8c7"/><path d="M262.4,287.7c0-5.1-12.3-9.2-27.5-9.2s-27.4,4.2-27.4,9.3V291c0,5.1,12.3,9.2,27.5,9.2s27.4-4.2,27.4-9.3Z" style="fill:#333031"/><ellipse cx="234.9" cy="286.5" rx="27.4" ry="8" style="fill:#66c8c7"/><path d="M262.4,280c0-5.1-12.3-9.2-27.5-9.2s-27.4,4.2-27.4,9.3v3.2c0,5.1,12.3,9.2,27.5,9.2s27.4-4.2,27.4-9.3Z" style="fill:#333031"/><ellipse cx="234.9" cy="278.8" rx="27.4" ry="8" style="fill:#66c8c7"/><path d="M262.4,272.2c0-5.1-12.3-9.2-27.5-9.2s-27.4,4.2-27.4,9.3v3.2c0,5.1,12.3,9.3,27.5,9.2s27.4-4.2,27.4-9.3Z" style="fill:#333031"/><ellipse cx="234.9" cy="271" rx="27.4" ry="8" style="fill:#66c8c7"/><path d="M262.4,265.1c0-5.1-12.3-9.2-27.5-9.2s-27.4,4.2-27.4,9.3v3.2c0,5.1,12.3,9.2,27.5,9.2s27.4-4.2,27.4-9.3Z" style="fill:#333031"/><ellipse cx="234.9" cy="263.9" rx="27.4" ry="8" style="fill:#66c8c7"/><path d="M262.4,257.4c0-5.1-12.3-9.2-27.5-9.2s-27.4,4.2-27.4,9.3v3.2c0,5.1,12.3,9.2,27.5,9.2s27.4-4.2,27.4-9.3Z" style="fill:#333031"/><ellipse cx="234.9" cy="256.2" rx="27.4" ry="8" style="fill:#66c8c7"/><path d="M262.4,249.6c0-5.1-12.3-9.2-27.5-9.1s-27.4,4.1-27.4,9.3V253c0,5.1,12.3,9.2,27.5,9.2s27.4-4.2,27.4-9.3Z" style="fill:#333031"/><ellipse cx="234.9" cy="248.5" rx="27.4" ry="8" style="fill:#66c8c7"/><path d="M262.4,242.5c0-5.1-12.3-9.2-27.5-9.2s-27.4,4.2-27.4,9.3v3.2c0,5.2,12.3,9.3,27.5,9.2s27.4-4.2,27.4-9.3Z" style="fill:#333031"/><ellipse cx="234.9" cy="241.4" rx="27.4" ry="8" style="fill:#66c8c7"/><path d="M262.4,234.8c0-5.1-12.3-9.2-27.5-9.2s-27.4,4.2-27.4,9.3v3.3c0,5.1,12.3,9.2,27.5,9.2s27.4-4.2,27.4-9.3Z" style="fill:#333031"/><ellipse cx="234.9" cy="233.7" rx="27.4" ry="8" style="fill:#66c8c7"/><path d="M313.3,283.6c0-5.1-12.4-9.3-27.7-9.2s-27.7,4.2-27.7,9.3V287c.1,5.1,12.5,9.3,27.7,9.3s27.7-4.3,27.7-9.4Z" style="fill:#333031"/><ellipse cx="285.6" cy="282.5" rx="27.7" ry="8.1" style="fill:#66c8c7"/><path d="M368.9,283.6c0-5.1-12.4-9.3-27.7-9.2s-27.7,4.2-27.7,9.3V287c0,5.1,12.4,9.3,27.7,9.3s27.7-4.3,27.7-9.4Z" style="fill:#333031"/><ellipse cx="341.2" cy="282.5" rx="27.7" ry="8.1" style="fill:#66c8c7"/><path d="M337.1,272.7c0-5.2-12.4-9.3-27.7-9.3s-27.7,4.2-27.7,9.4V276c0,5.2,12.4,9.3,27.7,9.3s27.7-4.2,27.7-9.4Z" style="fill:#333031"/><ellipse cx="309.4" cy="271.5" rx="27.7" ry="8.1" style="fill:#66c8c7"/><path d="M184.2,297.3c0-5.2-12.4-9.3-27.7-9.3s-27.6,4.2-27.6,9.4v3.2c0,5.2,12.4,9.3,27.7,9.3s27.6-4.3,27.6-9.4Z" style="fill:#333031"/><ellipse cx="156.5" cy="296.1" rx="27.7" ry="8.1" style="fill:#66c8c7"/><path d="M234,297.3c0-5.2-12.4-9.3-27.7-9.3s-27.7,4.2-27.7,9.4v3.2c0,5.2,12.4,9.3,27.7,9.3s27.7-4.3,27.7-9.4Z" style="fill:#333031"/><ellipse cx="206.3" cy="296.1" rx="27.7" ry="8.1" style="fill:#66c8c7"/><path d="M211.9,286.3c0-5.1-12.4-9.3-27.7-9.3s-27.7,4.3-27.7,9.4v3.3c.1,5.1,12.5,9.3,27.7,9.2s27.7-4.2,27.7-9.3Z" style="fill:#333031"/><ellipse cx="184.2" cy="285.1" rx="27.7" ry="8.1" style="fill:#66c8c7"/><path d="M233.8,285.7c1-5-10.4-11.5-25.4-14.4s-28-1.1-29,4l-.6,3.1c-1,5.1,10.4,11.5,25.4,14.4s28,1.1,29-3.9Z" style="fill:#333031"/><ellipse cx="206.8" cy="279.3" rx="8.1" ry="27.7" transform="matrix(0.19, -0.98, 0.98, 0.19, -106.78, 429)" style="fill:#66c8c7"/><path d="M254.2,298.3c0-5.1-12.4-9.3-27.7-9.2s-27.6,4.2-27.6,9.3v3.3c0,5.1,12.4,9.3,27.7,9.3s27.6-4.3,27.6-9.4Z" style="fill:#333031"/><ellipse cx="226.6" cy="297.2" rx="27.7" ry="8.1" style="fill:#66c8c7"/><path d="M309.8,298.3c0-5.1-12.4-9.3-27.7-9.2s-27.7,4.2-27.6,9.3v3.3c0,5.1,12.4,9.3,27.7,9.3s27.6-4.3,27.6-9.4Z" style="fill:#333031"/><ellipse cx="282.1" cy="297.2" rx="27.7" ry="8.1" style="fill:#66c8c7"/><path d="M278,287.4c0-5.2-12.4-9.3-27.7-9.3s-27.6,4.3-27.6,9.4v3.2c0,5.2,12.4,9.3,27.7,9.3s27.6-4.2,27.6-9.4Z" style="fill:#333031"/><ellipse cx="250.3" cy="286.2" rx="27.7" ry="8.1" style="fill:#66c8c7"/><path d="M241.6,280.9c-1-5.1-14-6.8-29-3.8s-26.3,9.4-25.3,14.5l.6,3.2c1,5,14,6.7,29,3.7s26.3-9.4,25.3-14.5Z" style="fill:#333031"/><ellipse cx="214.2" cy="285" rx="27.7" ry="8.1" transform="translate(-50.8 46.5) rotate(-11.1)" style="fill:#66c8c7"/><path d="M271.1,281c.8-5.1-10.8-11.2-25.9-13.6s-28-.3-28.8,4.8l-.5,3.2c-.8,5.1,10.8,11.2,25.8,13.6s28,.3,28.9-4.8Z" style="fill:#333031"/><ellipse cx="243.9" cy="275.4" rx="8.1" ry="27.7" transform="translate(-67.1 471.9) rotate(-80.7)" style="fill:#66c8c7"/><path d="M267.1,267.3c.4-5.1-11.7-10.1-26.9-11.2s-27.9,2.1-28.3,7.3l-.2,3.2c-.4,5.1,11.7,10.2,26.9,11.3s27.9-2.2,28.3-7.3Z" style="fill:#333031"/><ellipse cx="239.6" cy="264.1" rx="8.1" ry="27.7" transform="translate(-41.5 483.6) rotate(-85.8)" style="fill:#66c8c7"/><path d="M344.5,296.4c.7-5.1-11-10.9-26.2-12.9s-28,.5-28.6,5.6l-.5,3.2c-.6,5.1,11.1,10.9,26.2,12.9s28-.5,28.7-5.6Z" style="fill:#333031"/><ellipse cx="317.3" cy="291.6" rx="8.1" ry="27.7" transform="translate(-14 567.1) rotate(-82.3)" style="fill:#66c8c7"/><path d="M255.7,251.2c-.3-5.2-13-8.4-28.2-7.3s-27.4,6.1-27,11.3l.3,3.2c.3,5.1,13,8.4,28.2,7.3s27.3-6.2,27-11.3Z" style="fill:#333031"/><ellipse cx="228" cy="251.9" rx="27.7" ry="8.1" transform="matrix(1, -0.07, 0.07, 1, -17.11, 16.62)" style="fill:#66c8c7"/></svg>