<svg xmlns="http://www.w3.org/2000/svg" viewBox="0 0 504 504"><title>illustr--Artboard 16</title><path d="M392.2,100.4c-2.2-1.2-4.3-1.8-10.2-1.8H118.9c-5.9,0-8,.6-10.2,1.8a12,12,0,0,0-5,5c-1.1,2.1-1.7,4.2-1.7,10.1V378.7c0,5.9.6,8,1.7,10.2a12.4,12.4,0,0,0,5,4.9c2.2,1.2,4.3,1.8,10.2,1.8H382c5.9,0,8-.6,10.2-1.8a11.8,11.8,0,0,0,5-4.9c1.1-2.2,1.8-4.3,1.8-10.2V115.5c0-5.9-.7-8-1.8-10.1A11.5,11.5,0,0,0,392.2,100.4Zm5.1,278.3c0,6-.7,7.7-1.6,9.4a10.5,10.5,0,0,1-4.3,4.3c-1.6.9-3.4,1.6-9.4,1.6H118.9c-6,0-7.8-.7-9.4-1.6a10.5,10.5,0,0,1-4.3-4.3c-.9-1.7-1.6-3.4-1.6-9.4V115.5c0-6,.7-7.7,1.6-9.4a10.5,10.5,0,0,1,4.3-4.3c1.6-.9,3.4-1.5,9.4-1.5H382c6,0,7.8.6,9.4,1.5a10.5,10.5,0,0,1,4.3,4.3c.9,1.7,1.6,3.4,1.6,9.4Z" style="fill:#afadad"/><path d="M392.2,352.5c-4.4-3.4-9.5-5.8-13.2-10.1s-6.3-9.8-9.8-14.5c-6.3-8.3-15-14.2-23.6-19.9h-.2a28.9,28.9,0,0,0-11-15.6h.1l-.6-.4-.5-.3-.3-.2-2.4-1.4c-5.9-10.8-15.7-18.1-24.1-26.8-10.3-10.5-19.1-22.3-27.9-34.1a1.2,1.2,0,0,0-.9-.5v-2.3c-.5-8.9-4.8-17-8.4-25.1-.2-1.2-.5-2.5-.8-3.8,4.7,0,10.2-.2,11.8-5.7.9-2.8,0-5.6-.8-8.3-1.3-4.3-2.2-8.1-1.6-12.6a.9.9,0,0,0-.2-.9,13.7,13.7,0,0,1,3.5-3.3l1.9-.9h.2c3.6-1.4,7.9-1.6,11.4-3.5a1.1,1.1,0,0,0,.6-1.2c4.2.2,8.7-.6,12.8-1.1a78.5,78.5,0,0,0,13.5-2.6,1.1,1.1,0,0,0,1.2.9,59,59,0,0,0,27.8-4.4c3.5-1.4,10.5-4.1,8.7-9.2-.2-.4-.5-.9-.9-.9-2.4-.4-4.2.4-6.5,1.2-4.4,1.6-7.9,3.1-12.2,3.8l1.7-1.1c1.3-.8,3.4-1.9,3.8-3.5.9-3.4-1.8-4.7-4.6-4.4s-4.5,1.7-6.4,2.7a62.9,62.9,0,0,1-11.7,5.1,1.1,1.1,0,0,0-.8-.7,21.1,21.1,0,0,1-5.3-2.4c6.4-6.1,12.3-12.8,15.4-21.2,8.8-11.9,6.2-29.7-1.2-41.8-2.7-4.4-6.6-9.1-8.6-13.9s-2.6-9.9,1.6-12.3,5.2-.7,7.3,1.9.4,12.5,6.8,13.2c3.6.4,9.5-3.6,9.7-7.5s-2.7-5.9-3.4-8.4-1.4-7.5-2.9-11c-5.6-13.5-22.6-10.1-32.1-2.9l-.4-.2C302,45,296.6,51.1,295.4,59.7s2,16.3,3.9,24.2c1.1,4.3,3.3,12.8.7,17-3.9,6.3-12.6,1.8-17.6.1a110.2,110.2,0,0,1-28-14.7c-6.6-4.7-13.4-10.2-21.9-10.1s-15.7,5.6-22.4,10.1c-8.4,5.7-16.6,11.6-23.9,18.8a1.3,1.3,0,0,0-.3,1.3c-12.5,4.8-25.1,10.3-35,19.5s-14.6,19.3-18.3,30.7a178.3,178.3,0,0,0-7.6,37.5c-.4,4.4-.4,9.5,3.3,12.5a13.8,13.8,0,0,0,4.2,2.1c2.2.9,4.1,1.8,5.9,2.7-10.7,13.6-17.9,29.4-24.8,45.3C108,269.3,103,282.4,102,296.1c-1.9,9.9-2.8,21.3.5,30.7,1.3,3.6,3.4,5.9,6.1,8.5a37.3,37.3,0,0,1,10.5,17c3.4,10.7,5.1,24.4,11.5,33.6,2.8,1.6,5.5,3.4,8.2,5.3s6,3.2,9.4,4.3h.3c23.2,8.5,48.2,3.6,71.4-3.4a1.5,1.5,0,0,0,1-1.2,42.2,42.2,0,0,0,5.5,5c8.4,5.9,17,11.6,24,19.3a52.9,52.9,0,0,1,8.2,11.6c2,3.8,2.7,7.9,4.3,11.8a12.4,12.4,0,0,0,11.8,8.1,1.2,1.2,0,0,0,1.1.7c10.3.1,23.5-4.4,31.6-10.8,3.6-2.9,5.1-6.4,5.9-10.9s1.6-9.9.7-14.2a1.1,1.1,0,0,0,.3-.8c-.3-3.9-.8-8.8-4.4-11.1-6.7-4.5-16.5,1.9-23.8-1.4s-15.2-12-21.5-17.8l-1.1-1.1c9.1-2.6,19.9-7.8,25.5-15.5a15.2,15.2,0,0,0,4.7,6.3c3.2,2.5,6.9,2.8,10.5,4.4s4.9,3.2,7.7,3.7c-.5,4.1,1.6,7.5,5.2,9.9s7.2,3,10.7,4.6,5.4,2.8,8.5,3c7.1.3,15.7-3.8,22.1-6.4s12.3-5.3,13.6-12.3c0-.4.1-.8.1-1.1,7.7.4,20.7.8,26.1-6S397.2,356.3,392.2,352.5Z" style="fill:#333031"/><path d="M392.2,352.5c-4.4-3.4-9.5-5.8-13.2-10.1s-6.3-9.8-9.8-14.5c-6.3-8.3-15-14.2-23.6-19.9h-.2a28.9,28.9,0,0,0-11-15.6h.1l-.6-.4-.5-.3-.3-.2-2.4-1.4c-5.9-10.8-15.7-18.1-24.1-26.8-10.3-10.5-19.1-22.3-27.9-34.1a1.2,1.2,0,0,0-.9-.5v-2.3c-.5-8.9-4.8-17-8.4-25.1-.2-1.2-.5-2.5-.8-3.8,4.7,0,10.2-.2,11.8-5.7.9-2.8,0-5.6-.8-8.3-1.3-4.3-2.2-8.1-1.6-12.6a.9.9,0,0,0-.2-.9,13.7,13.7,0,0,1,3.5-3.3l1.9-.9h.2c3.6-1.4,7.9-1.6,11.4-3.5a1.1,1.1,0,0,0,.6-1.2c4.2.2,8.7-.6,12.8-1.1a78.5,78.5,0,0,0,13.5-2.6,1.1,1.1,0,0,0,1.2.9,59,59,0,0,0,27.8-4.4c3.5-1.4,10.5-4.1,8.7-9.2-.2-.4-.5-.9-.9-.9-2.4-.4-4.2.4-6.5,1.2-4.4,1.6-7.9,3.1-12.2,3.8l1.7-1.1c1.3-.8,3.4-1.9,3.8-3.5.9-3.4-1.8-4.7-4.6-4.4s-4.5,1.7-6.4,2.7a62.9,62.9,0,0,1-11.7,5.1,1.1,1.1,0,0,0-.8-.7,21.1,21.1,0,0,1-5.3-2.4c6.4-6.1,12.3-12.8,15.4-21.2,8.8-11.9,6.2-29.7-1.2-41.8-2.7-4.4-6.6-9.1-8.6-13.9s-2.6-9.9,1.6-12.3,5.2-.7,7.3,1.9.4,12.5,6.8,13.2c3.6.4,9.5-3.6,9.7-7.5s-2.7-5.9-3.4-8.4-1.4-7.5-2.9-11c-5.6-13.5-22.6-10.1-32.1-2.9l-.4-.2C302,45,296.6,51.1,295.4,59.7s2,16.3,3.9,24.2c1.1,4.3,3.3,12.8.7,17-3.9,6.3-12.6,1.8-17.6.1a110.2,110.2,0,0,1-28-14.7c-6.6-4.7-13.4-10.2-21.9-10.1s-15.7,5.6-22.4,10.1c-8.4,5.7-16.6,11.6-23.9,18.8a1.3,1.3,0,0,0-.3,1.3c-12.5,4.8-25.1,10.3-35,19.5s-14.6,19.3-18.3,30.7a178.3,178.3,0,0,0-7.6,37.5c-.4,4.4-.4,9.5,3.3,12.5a13.8,13.8,0,0,0,4.2,2.1c2.2.9,4.1,1.8,5.9,2.7-10.7,13.6-17.9,29.4-24.8,45.3C108,269.3,103,282.4,102,296.1c-1.9,9.9-2.8,21.3.5,30.7,1.3,3.6,3.4,5.9,6.1,8.5a37.3,37.3,0,0,1,10.5,17c3.5,10.7,5.1,24.6,11.6,33.7.2.1,5.2,4.2,7.6,5.6.4.3,9.5,4,9.6,4a60.3,60.3,0,0,0,6.1,1.5c21.6,6,44.5,1.3,65.9-5.1a1.5,1.5,0,0,0,1-1.2,42.2,42.2,0,0,0,5.5,5c8.4,5.9,17,11.6,24,19.3a52.9,52.9,0,0,1,8.2,11.6c2,3.8,2.7,7.9,4.3,11.8a12.4,12.4,0,0,0,11.8,8.1,1.2,1.2,0,0,0,1.1.7c10.3.1,23.5-4.4,31.6-10.8,3.6-2.9,5.1-6.4,5.9-10.9s1.6-9.9.7-14.2a1.1,1.1,0,0,0,.3-.8c-.3-3.9-.8-8.8-4.4-11.1-6.7-4.5-16.5,1.9-23.8-1.4s-15.2-12-21.5-17.8l-1.1-1.1c9.1-2.6,19.9-7.8,25.5-15.5a15.2,15.2,0,0,0,4.7,6.3c3.2,2.5,6.9,2.8,10.5,4.4s4.9,3.2,7.7,3.7c-.5,4.1,1.6,7.5,5.2,9.9s7.2,3,10.7,4.6,5.4,2.8,8.5,3c7.1.3,15.7-3.8,22.1-6.4s12.3-5.3,13.6-12.3c0-.4.1-.8.1-1.1,7.7.4,20.7.8,26.1-6S397.2,356.3,392.2,352.5Zm-90.9-90.9c8,8.6,17.9,15.9,24.6,25.7l-5.3-2.5c-7.8-3.2-15.8-5.3-23.2-9.5a87.5,87.5,0,0,1-24.9-21.6c2.3-6.9,4.6-14.2,5.2-21.5A370.2,370.2,0,0,0,301.3,261.6ZM277.9,191c-1.5,4.3-6.4,3.8-9.9,3.7-.6-3.1-1-6.2-.4-8.9s5.2-7.1,7.3-11a.8.8,0,0,1,.2-.5,28.5,28.5,0,0,0,1.3,8.1C277.3,185.1,278.9,188.2,277.9,191ZM347,149.8l5.3-2.1,2-1.1c1.5-.8,2.8,1.5,1.3,2.3a53.6,53.6,0,0,1-12.7,5.1,1.1,1.1,0,0,1-.8-.1l-3.3.7a52.4,52.4,0,0,1-12.5,1l3.5-1.4,5.1-2.7h.6A34.2,34.2,0,0,0,347,149.8Zm-15.6-2.9c1.3-.6,3-2,4.6-2.8s.5-.6.8-.6h.2l.4-.5a14.5,14.5,0,0,1,2.9-1.1,1.3,1.3,0,0,1,1.3,2.2l-.6.5h.2l-4.2,2.5a71.7,71.7,0,0,1-15,7.3,85.7,85.7,0,0,1-15.1,2.9c-4.3.5-9.9,1.6-14.5.4a1,1,0,0,0-.7-.9c-5.4-2.6.4-9.2,3.9-8.8.6.1,1,1.1,1.6,1.2a59.7,59.7,0,0,0,10.3,1.6C315.9,151.5,323.8,150.8,331.4,146.9Zm-13.2,1.3h-1.1a29,29,0,0,1-5.1.1l2.5-2.3.3.3A36.5,36.5,0,0,0,318.2,148.2ZM307.5,372.5c-.6-.1-1.1-.8-1.7-1.1-4-2.1-8-.9-11.7-4.5a16.8,16.8,0,0,1-3.4-6.1,1.3,1.3,0,0,0-.5-1.2c-.4-1-.8-2.1-1.3-3.1-1.4-3-3.9-4.9-5.6-7.6-3.6-6.1-.7-9.7,4.7-12.6,3.3-1.8,6.6-3.3,9.7-5.3s9.6-5.4,9.3-10.2a1.3,1.3,0,0,0-1.3-1.3l-19.5.3c-6.7.1-13.9,1-20.5-.4-3.8-.8-6.4-1.3-10.3-.5-6,1.2-11.9,2.5-18.1,2.4-7.8-.2-10.9-3.7-15.7-9.2s-7.2-8.3-10.6-12.6c-7.8-9.7-14.8-19.9-19.9-31.3-.7-1.6-3-.2-2.3,1.4,8.2,18.1,21.2,34.3,34.7,48.8,5.5,5.8,11.9,5.9,19.6,5.3a93.5,93.5,0,0,0,11.8-1.9c5.8-1.3,10.5.7,16.2.9,3.4.1,31.8-1.4,31.9.2s-9.7,7.7-12.2,9-6.7,2.9-9.3,5.4c-4.2,3.9-3.7,8.7-.4,13.1a53.8,53.8,0,0,1,6.6,10.4c-5.1,8.2-17.2,13.8-26.5,16.3l-16.8-15.9c-6.4-6.1-12.8-12.3-18.3-19.2-4.2-5.3-7.5-11.8-13-15.8s-11-3.8-17-3.7-13.5.5-19.7,3.8c-1.5.8-.2,3.1,1.3,2.3,6.7-3.5,14.2-3.6,21.5-3.4,9.4.2,14.4,4.1,19.7,11.4,8,11.1,17.3,20.5,27.3,29.9l12.7,12.1a1.3,1.3,0,0,0,1.5,1.4c5.8,5.5,11.8,10.8,18.1,15.8,3.6,2.9,6.8,5.7,11.5,5.9s7.3-.6,11-.5,7.1.2,9,2.3a7.6,7.6,0,0,1,1.3,3.4c-3.1-1.6-7.8.9-10.2,3.8-3.8,4.5-8.3,8.3-11.9,12.9a94,94,0,0,0-9.2,15.6c-.8,1.6,1.5,2.9,2.3,1.4,3.4-6.9,7-13.7,12.4-19.2,2.2-2.2,4.5-4.2,6.5-6.6s2.1-3.3,3.6-4.1,2.4-1.6,3.9.4c2.4.3,3.3,1.6,2.7,3.7,1.4,8.4-1.9,17.7-9.3,21.8s-16.6,7.9-25.6,8a1.1,1.1,0,0,0-1.1-.6c-10.9.2-11.5-13.9-16-21.4s-9.5-12.3-15.5-17.3-14-9.6-20.5-15c-4.7-4.1-7.7-9.8-14.1-11.4-1.7-.4-2.4,2.2-.7,2.6,4.1,1,7.5,4.4,10.9,7.9h-.3c-24.4,7.3-50.9,12.7-74.9,1.3-.5-.2-9-3.5-11.9-6.6-7.2-10.5-8.1-27.6-12.9-38.5a34.7,34.7,0,0,0-4.6-7.9c-3.3-4-7.9-6.5-9.8-11.6a36.9,36.9,0,0,1-2-10.6,1.4,1.4,0,0,1-.5-1,81,81,0,0,1,2-16.5c0-.5.1-1.1.1-1.6s.3-1.3.4-2a1.4,1.4,0,0,0-.1-.9c1.4-13.1,6.5-25.5,11.9-37.7,6.6-15,13.5-30,23.8-43v-.2l3.7,2.1a18.5,18.5,0,0,0,13.2,2.6c3.9-.6,7.6-2.3,11.5-3.2a54.1,54.1,0,0,1,14.5-1.3c7.6.2,15.1,1.1,22.6.7a138.8,138.8,0,0,0,24-3.4c8.2-1.7,25.2-3,26-14.4.3-4.1-2-7.6-4.4-10.6-5.2-6.6-11.8-12.4-17.6-18.4s-11.3-12.3-18-17.1c-3.3-2.3-6.8-4.1-10-6.6s-6.1-6.6-9-10.3c-4.8-6-15.1-12-20.6-3.3-1,1.4,1.3,2.8,2.3,1.3,7.7-11.9,20.1,10.2,25.5,14.3,3.3,2.6,7.1,4.5,10.4,7,5.1,3.6,9.4,8.3,13.8,12.8l12.9,13.3c4.7,4.8,15.4,13.1,10.7,20.6-2.9,4.7-9,5.7-14.1,6.9s-12.3,2.8-18.5,3.8c-12.6,2-24.6.9-37.3.7a55.1,55.1,0,0,0-15.1,1.7c-7.1,1.9-13.5,4.9-20.6,1.1-3.6-2-6.6-4.5-10.5-5.9s-8.5-4-8.7-9.2a49,49,0,0,1,1-9.3c1.5-9.8,3.2-19.7,6.1-29.2,3.5-11.4,8.8-22.3,17.4-30.7s22.6-15,35.1-19.8a1.5,1.5,0,0,0,.9-1.8h.1c7.9-7.9,17.1-14.3,26.4-20.4s19.9-10.4,31.3-3.1c8,5.2,15.3,11,23.9,15.1a107.7,107.7,0,0,0,14.9,6.4c-5,2.9-9.7,8.3-9,13.9.1,1.6,2.8,1.7,2.6,0-.6-5.5,5.4-11.1,10.2-12.7l2.2.5a18.3,18.3,0,0,0-5.9,12.7c-.1,1.8,2.6,1.7,2.7,0a15.6,15.6,0,0,1,6.4-12l.2-.2h.6c-.2.5-.3.9-.5,1.3a17.9,17.9,0,0,0-.8,7.3c.1,1.7,2.8,1.7,2.6,0a16.2,16.2,0,0,1,.3-4.9,17.1,17.1,0,0,1,1.3-3.8c10.7-1.9,4.4-23.6,2.8-29.9-2.8-10.4-4.2-20.7,3.7-29.4a38.8,38.8,0,0,1,4.2-3.9,1.6,1.6,0,0,0,1.3-.3c7.1-6.3,22.5-11.6,28.5-1,1.9,3.5,2.3,7.7,3.3,11.4s2.7,5.7,2.3,8.7-5,6.8-7,2.7c-.2-.4.8-1.2.6-1.7a22.4,22.4,0,0,0-2.3-5.3c-1.8-3.1-3.1-7.6-7.5-7.4s-8.5,3.4-10,6.9,1.4,9.2,3.7,13c4.5,7.3,10.1,14.4,12,22.8s2.6,17.8-1.7,25.4a1.4,1.4,0,0,0-1.3.9l-.6,1.9-.7.9a1.2,1.2,0,0,0-.2,1.4c-4.2,9.5-12.4,16.8-20,23.6l-.3.4-3.2-.3a24.1,24.1,0,0,1-7.6-1.8c-.7-.2-.7-1.3-1.6-1.5-5.8-1.2-11,7.9-7.8,12.6a1.2,1.2,0,0,0,.4,1.9,14,14,0,0,0,3.6,1.3c-3.1,1.4-5.8,1.5-9.2,2.4l-1.5.4c-5.6.1-9.1-2.3-13.2-6.2-2-2-3.9-3.8-6.6-4.8-5-1.8-9.8-.2-12.4,4.3-.8,1.5,1.5,2.9,2.3,1.4,6.1-10.8,14.4,1.9,19.5,5.2a15.7,15.7,0,0,0,7.1,2.6c-2.9,2.9-4.3,5.8-6.5,9.5s-6.6,5.5-7.7,9.1.8,6,1.2,8.3l2,10.2a1.1,1.1,0,0,0,.5.9c3.6,8,7.6,16,7.5,25s-2.2,15.2-4.6,22.5a124.9,124.9,0,0,1-8.5-12.9c-.8-1.5-3.1-.2-2.3,1.3a110.5,110.5,0,0,0,9.8,14.7v.2c-.4,1,.6,1.7,1.5,1.6A86,86,0,0,0,312,284.5a98.3,98.3,0,0,1,21.4,10.3c6.2,4.7,10.4,11.8,10.4,19.7s-4.7,15.7-10.9,21.7c-8.9,8.5-12,17.6-13.9,29.4a1.2,1.2,0,0,0-1,1.6c1.7,3.2.3,4.7-4.4,4.5C311.1,374.3,309,374.6,307.5,372.5Zm61.9,2.8c-1.9,10.5-17.2,14-26.4,16.4-6.5,1.6-10.1.2-15.8-2.3s-14.1-3.9-12.5-11.3c4.8-.9,7.2-5.6,6.3-10.2a1,1,0,0,0,.4-.7c1.4-9.1,3.1-18.2,9.5-25.3,1.9-2.1,4-4.1,6-6.1,4.2,4.2,6.8,9.6,11.7,13.2,2.4,1.8,4.2,2.1,6.9,2.6s4.9.4,7.1,1.7a7.8,7.8,0,0,0-2.2-.3c-16.1-1.3-19,19.2-22.1,30.3a1.3,1.3,0,1,0,2.5.7c2.6-9,3.5-22.1,13-27C366.4,350.4,371.1,365.8,369.4,375.3Zm24.6-5.4c-1.7,1.2-4.5,1.8-6.5,2.2a51.1,51.1,0,0,1-15.1,1c.3-5.2-.5-11.1-3.3-15.2a1.4,1.4,0,0,0,0-1.9c-3.9-4.6-6.8-6.6-12.7-7.1-9.1-.9-12-9.4-17.6-15a29.4,29.4,0,0,0,5.6-8.4,26.9,26.9,0,0,0,1.8-13.9c6.1,4.1,12.2,8.3,17.3,13.7s8.1,12.4,12.9,18.2,11.4,8,16.4,13C396.1,359.7,400.5,364.9,394,369.9Z" style="fill:#fff"/><path d="M249.8,116.6a14.6,14.6,0,0,0-8.7,1.9,1.8,1.8,0,0,0-1.2.3,11.3,11.3,0,0,0-2.8,3.4,6.2,6.2,0,0,0-1,2.2c-.5,1.7,2,2.3,2.6.7s.3-.7.4-1.1c1.6,1.3,3.7,2.4,5.7,1.5s2.5-3.6,2.5-5.8c0-.2,0-.3-.1-.4h2.6C251.5,119.5,251.5,116.8,249.8,116.6Z" style="fill:#fff"/><path d="M331.4,146.9c1.3-.6,3-2,4.6-2.8s.5-.6.8-.6h.2l.4-.5a14.5,14.5,0,0,1,2.9-1.1,1.3,1.3,0,0,1,1.3,2.2l-.6.5h.2l-4.2,2.5a71.7,71.7,0,0,1-15,7.3,85.7,85.7,0,0,1-15.1,2.9c-4.3.5-9.9,1.6-14.5.4a1,1,0,0,0-.7-.9c-5.4-2.6.4-9.2,3.9-8.8.6.1,1,1.1,1.6,1.2a59.7,59.7,0,0,0,10.3,1.6C315.9,151.5,323.8,150.8,331.4,146.9Z" style="fill:#66c8c7"/><path d="M318.2,148.2h-1.1a29,29,0,0,1-5.1.1l2.5-2.3.3.3A36.5,36.5,0,0,0,318.2,148.2Z" style="fill:#66c8c7"/><path d="M347,149.8l5.3-2.1,2-1.1c1.5-.8,2.8,1.5,1.3,2.3a53.6,53.6,0,0,1-12.7,5.1,1.1,1.1,0,0,1-.8-.1l-3.3.7a52.4,52.4,0,0,1-12.5,1l3.5-1.4,5.1-2.7h.6A34.2,34.2,0,0,0,347,149.8Z" style="fill:#66c8c7"/></svg>