<svg xmlns="http://www.w3.org/2000/svg" xmlns:xlink="http://www.w3.org/1999/xlink" viewBox="0 0 360 428.7"><defs><clipPath id="a"><path d="M139.4,191.9l17.5-25.7a1.3,1.3,0,0,1,1.8-.4l44.1,26.9a1.4,1.4,0,0,1-.7,2.6l-61.5-1.2a1.4,1.4,0,0,1-1.2-2.2" style="fill:none;clip-rule:evenodd"/></clipPath><clipPath id="b"><rect x="-716.2" y="-253.2" width="1784.1" height="1339.34" style="fill:none"/></clipPath><clipPath id="c"><path d="M236.5,278.9l-56,33.4a5.4,5.4,0,0,1-5.5,0l-55.9-33.4a5.2,5.2,0,0,1-2.7-4.6V196.7a5.4,5.4,0,0,1,5.4-5.4H233.7a5.4,5.4,0,0,1,5.4,5.4v77.6a5.3,5.3,0,0,1-2.6,4.6" style="fill:none;clip-rule:evenodd"/></clipPath></defs><title>illustr--splashPage</title><path d="M287.2,129.3c-1.6-.9-3.2-1.4-7.8-1.4H79.1c-4.5,0-6.2.5-7.8,1.4a9,9,0,0,0-3.8,3.7c-.9,1.7-1.4,3.3-1.4,7.8V341.2c0,4.5.5,6.1,1.4,7.8a9,9,0,0,0,3.8,3.7c1.6.9,3.3,1.4,7.8,1.4H279.4c4.6,0,6.2-.5,7.8-1.4A8.5,8.5,0,0,0,291,349c.9-1.7,1.4-3.3,1.4-7.8V140.8c0-4.5-.5-6.1-1.4-7.8A8.5,8.5,0,0,0,287.2,129.3Zm3.9,211.9c0,4.6-.5,5.9-1.2,7.1a7,7,0,0,1-3.3,3.3c-1.3.8-2.5,1.3-7.2,1.3H79.1c-4.7,0-5.9-.5-7.2-1.3a7,7,0,0,1-3.3-3.3c-.7-1.2-1.2-2.5-1.2-7.1V140.8c0-4.6.5-5.9,1.2-7.1a7,7,0,0,1,3.3-3.3c1.3-.8,2.5-1.3,7.2-1.3H279.4c4.7,0,5.9.5,7.2,1.3a7,7,0,0,1,3.3,3.3c.7,1.2,1.2,2.5,1.2,7.1Z" style="fill:#afadad"/><g style="clip-path:url(#a)"><g style="clip-path:url(#b)"><rect x="133" y="159.4" width="76.7" height="42.08" style="fill:#66c6c6"/></g></g><path d="M201.2,197.9h0l-58.7-1a2,2,0,0,1-1.8-1.1,1.8,1.8,0,0,1,.2-2l16.6-24a2,2,0,0,1,2.7-.6l42,25.1a1.9,1.9,0,0,1,.9,2.2A1.9,1.9,0,0,1,201.2,197.9ZM142,194.6a.7.7,0,0,0-.1.6c.1.1.2.4.6.4l58.7,1a.5.5,0,0,0,.6-.5.6.6,0,0,0-.3-.7l-42-25.1a.7.7,0,0,0-.9.2Z" style="fill:#fff"/><path d="M172.8,214.8a9.2,9.2,0,0,1-5.1-1.5c-5.2-3.5-5.9-11.9-1.5-18.8a16.4,16.4,0,0,1,10.2-7.5,9.7,9.7,0,0,1,7.5,1.2c5.2,3.4,5.9,11.9,1.5,18.8h0a16.4,16.4,0,0,1-10.2,7.5Zm5.9-26.8-2.1.3c-3.5.7-6.9,3.3-9.3,6.9-4,6.3-3.5,13.9,1.2,17a8.4,8.4,0,0,0,6.5,1,15.9,15.9,0,0,0,9.3-6.9h0c4-6.4,3.5-14-1.2-17A8.1,8.1,0,0,0,178.7,188Z" style="fill:#fff"/><g style="clip-path:url(#c)"><g style="clip-path:url(#b)"><rect x="110.3" y="185.1" width="135" height="134.1" style="fill:#231f20"/></g></g><path d="M177.8,313.7a6.5,6.5,0,0,1-3.1-.8l-56-33.4a6,6,0,0,1-2.9-5.2V196.7a6,6,0,0,1,6-6H233.7a6,6,0,0,1,6.1,6v77.6a6.1,6.1,0,0,1-3,5.2l-55.9,33.4A7.1,7.1,0,0,1,177.8,313.7ZM121.8,192a4.7,4.7,0,0,0-4.7,4.7v77.6a4.9,4.9,0,0,0,2.3,4.1l56,33.3a4.6,4.6,0,0,0,4.8,0l55.9-33.3a4.7,4.7,0,0,0,2.3-4.1V196.7a4.7,4.7,0,0,0-4.7-4.7Z" style="fill:#fff"/><path d="M160,181.1c-3.4,0-6.3-2.6-6.4-2.7l.9-1c0,.1,3.3,3,6.6,2.3s3.9-2.3,5.2-5.4l1.2.5c-1.5,3.5-3.5,5.6-6.1,6.2Z" style="fill:#fff"/><path d="M231.2,202.7a.5.5,0,0,1-.5-.5v-2a.5.5,0,0,1,1,0v2A.5.5,0,0,1,231.2,202.7Z" style="fill:#fff"/><path d="M177.3,304.6h0a4.1,4.1,0,0,1-1.6-.2c-.3-.1-.5-.4-.4-.6a.6.6,0,0,1,.7-.4,3,3,0,0,0,1.3.2h1a.5.5,0,0,1,.6.4c.1.2-.1.5-.3.6Zm3.5-1.3a.5.5,0,0,1-.4-.2.5.5,0,0,1,.1-.7l2.3-1.4a.6.6,0,0,1,.7.2.4.4,0,0,1-.2.7l-2.2,1.4Zm-7.3-.2h-.3l-2.3-1.4a.6.6,0,0,1-.2-.7.5.5,0,0,1,.7-.1l2.3,1.3a.5.5,0,0,1,.2.7A.4.4,0,0,1,173.5,303.1Zm11.9-2.5c-.2,0-.4-.1-.4-.2a.5.5,0,0,1,.1-.7l2.3-1.4a.6.6,0,0,1,.7.2.5.5,0,0,1-.2.7l-2.3,1.3C185.6,300.6,185.5,300.6,185.4,300.6Zm-16.5-.2h-.3l-2.3-1.4a.5.5,0,0,1,.6-.8l2.2,1.3a.4.4,0,0,1,.2.7Zm21.1-2.5-.5-.2a.6.6,0,0,1,.2-.7l2.3-1.4a.5.5,0,0,1,.7.2.7.7,0,0,1-.2.7l-2.3,1.3Zm-25.7-.2h-.2l-2.3-1.4c-.3-.1-.3-.4-.2-.7a.6.6,0,0,1,.7-.2l2.3,1.4a.5.5,0,0,1,.1.7Zm30.2-2.5a.5.5,0,0,1-.4-.3.4.4,0,0,1,.2-.6l2.3-1.4a.5.5,0,0,1,.7.2.7.7,0,0,1-.2.7l-2.3,1.3Zm-34.8-.2h-.2l-2.3-1.3a.5.5,0,1,1,.5-.9l2.3,1.4a.6.6,0,0,1,.2.7Zm39.4-2.5c-.2,0-.3-.1-.4-.3s-.1-.5.2-.7l2.2-1.3a.4.4,0,0,1,.7.2.4.4,0,0,1-.1.6l-2.3,1.4Zm-43.9-.2h-.3l-2.3-1.3a.7.7,0,0,1-.2-.7.5.5,0,0,1,.7-.2l2.3,1.4c.3.1.3.4.2.7Zm48.5-2.5c-.2,0-.3-.1-.4-.3a.5.5,0,0,1,.1-.7l2.3-1.3a.5.5,0,0,1,.7.1c.1.3.1.6-.2.7l-2.3,1.4Zm-53.1-.2h-.3l-2.3-1.3a.5.5,0,0,1-.1-.7.4.4,0,0,1,.6-.2l2.3,1.4c.3.1.4.4.2.6S150.8,289.6,150.6,289.6Zm57.7-2.6c-.2,0-.4,0-.5-.2a.7.7,0,0,1,.2-.7l2.3-1.3a.5.5,0,0,1,.7.1.6.6,0,0,1-.2.7l-2.3,1.4Zm-62.3-.1h-.2l-2.3-1.4c-.3-.1-.4-.4-.2-.6a.4.4,0,0,1,.7-.2l2.3,1.3a.5.5,0,0,1,.1.7C146.3,286.8,146.2,286.9,146,286.9Zm66.8-2.6-.4-.2a.6.6,0,0,1,.2-.7l2.3-1.4a.7.7,0,0,1,.7.2.6.6,0,0,1-.2.7l-2.3,1.4Zm-71.4-.1h-.2l-2.3-1.4c-.3-.1-.3-.4-.2-.7a.5.5,0,0,1,.7-.1l2.3,1.3a.7.7,0,0,1,.2.7A.5.5,0,0,1,141.4,284.2Zm76-2.6a.5.5,0,0,1-.4-.2c-.1-.3-.1-.6.2-.7l2.3-1.4a.5.5,0,0,1,.5.9l-2.3,1.3Zm-80.5-.2h-.3l-2.3-1.4a.6.6,0,0,1-.2-.7.5.5,0,0,1,.7-.1l2.3,1.3a.7.7,0,0,1,.2.7A.4.4,0,0,1,136.9,281.4Zm85.1-2.5-.4-.2a.5.5,0,0,1,.1-.7l2.3-1.4a.6.6,0,0,1,.7.2c.2.2.1.5-.2.7l-2.2,1.3Zm-89.7-.2H132l-2.3-1.4a.5.5,0,0,1-.1-.7.5.5,0,0,1,.6-.2l2.3,1.4c.3.1.3.4.2.7Zm94.3-2.5a.5.5,0,0,1-.5-.3.5.5,0,0,1,.2-.6l2.3-1.4a.5.5,0,1,1,.5.9l-2.3,1.3Zm-98.9-.2h-.3l-2-1.2h-.3a.5.5,0,0,1-.1-.7.5.5,0,0,1,.7-.2l.2.2,2.1,1.2a.5.5,0,0,1,.1.7A.5.5,0,0,1,127.7,276Zm103-3.1h-.3a.6.6,0,0,1-.2-.7,4.1,4.1,0,0,0,.5-1.9v-.4a.5.5,0,0,1,1,0v.4a5.3,5.3,0,0,1-.6,2.4A.5.5,0,0,1,230.7,272.9Zm-107-.3a.5.5,0,0,1-.4-.3,4.5,4.5,0,0,1-.4-2v-.8a.5.5,0,0,1,.5-.5.5.5,0,0,1,.5.5v.8a4.1,4.1,0,0,0,.3,1.6.5.5,0,0,1-.3.7Zm107.5-4.9a.5.5,0,0,1-.5-.5v-2.7a.5.5,0,0,1,1,0v2.7A.5.5,0,0,1,231.2,267.7Zm-107.8-.3a.5.5,0,0,1-.5-.5v-2.7a.5.5,0,0,1,.5-.5.5.5,0,0,1,.5.5v2.7A.6.6,0,0,1,123.4,267.4Zm107.8-5a.5.5,0,0,1-.5-.5v-2.7a.5.5,0,0,1,1,0v2.7A.5.5,0,0,1,231.2,262.4ZM123.4,262a.5.5,0,0,1-.5-.5v-2.6a.5.5,0,0,1,.5-.5.5.5,0,0,1,.5.5v2.6A.5.5,0,0,1,123.4,262Zm107.8-4.9a.5.5,0,0,1-.5-.5v-2.7a.5.5,0,0,1,1,0v2.7A.5.5,0,0,1,231.2,257.1Zm-107.8-.4a.5.5,0,0,1-.5-.5v-2.6a.5.5,0,0,1,.5-.5.5.5,0,0,1,.5.5v2.6A.5.5,0,0,1,123.4,256.7Zm107.8-5a.5.5,0,0,1-.5-.5v-2.6a.5.5,0,1,1,1,0v2.6A.5.5,0,0,1,231.2,251.7Zm-107.8-.3a.5.5,0,0,1-.5-.5v-2.7a.5.5,0,0,1,.5-.5.6.6,0,0,1,.5.5v2.7A.5.5,0,0,1,123.4,251.4Zm107.8-5a.5.5,0,0,1-.5-.5v-2.6a.5.5,0,0,1,1,0v2.6A.5.5,0,0,1,231.2,246.4Zm-107.8-.3a.5.5,0,0,1-.5-.5v-2.7a.5.5,0,0,1,.5-.5.5.5,0,0,1,.5.5v2.7A.6.6,0,0,1,123.4,246.1Zm107.8-5a.5.5,0,0,1-.5-.5v-2.7a.5.5,0,0,1,1,0v2.7A.5.5,0,0,1,231.2,241.1Zm-107.8-.3a.5.5,0,0,1-.5-.5v-2.7a.5.5,0,0,1,.5-.5.5.5,0,0,1,.5.5v2.7A.6.6,0,0,1,123.4,240.8Zm107.8-5a.5.5,0,0,1-.5-.5v-2.7a.5.5,0,1,1,1,0v2.7A.5.5,0,0,1,231.2,235.8Zm-107.8-.4a.5.5,0,0,1-.5-.5v-2.6a.5.5,0,0,1,.5-.5.5.5,0,0,1,.5.5v2.6A.5.5,0,0,1,123.4,235.4Zm107.8-4.9a.5.5,0,0,1-.5-.5v-2.7a.5.5,0,0,1,1,0V230A.5.5,0,0,1,231.2,230.5Zm-107.8-.4a.5.5,0,0,1-.5-.5V227a.5.5,0,0,1,.5-.5.5.5,0,0,1,.5.5v2.6A.5.5,0,0,1,123.4,230.1Zm107.8-5a.5.5,0,0,1-.5-.5V222a.5.5,0,0,1,1,0v2.6A.5.5,0,0,1,231.2,225.1Zm-107.8-.3a.5.5,0,0,1-.5-.5v-2.7a.5.5,0,0,1,.5-.5.6.6,0,0,1,.5.5v2.7A.5.5,0,0,1,123.4,224.8Zm107.8-5a.5.5,0,0,1-.5-.5v-2.6a.5.5,0,0,1,1,0v2.6A.5.5,0,0,1,231.2,219.8Zm-107.8-.3a.5.5,0,0,1-.5-.5v-2.7a.5.5,0,0,1,.5-.5.5.5,0,0,1,.5.5V219A.6.6,0,0,1,123.4,219.5Zm107.8-5a.5.5,0,0,1-.5-.5v-2.7a.5.5,0,0,1,1,0V214A.5.5,0,0,1,231.2,214.5Zm-107.8-.4a.5.5,0,0,1-.5-.5V211a.5.5,0,0,1,.5-.5.5.5,0,0,1,.5.5v2.6A.5.5,0,0,1,123.4,214.1Zm107.8-4.9a.5.5,0,0,1-.5-.5V206a.5.5,0,0,1,1,0v2.7A.5.5,0,0,1,231.2,209.2Zm-107.8-.4a.5.5,0,0,1-.5-.5v-2.6a.5.5,0,0,1,.5-.5.5.5,0,0,1,.5.5v2.6A.5.5,0,0,1,123.4,208.8Z" style="fill:#fff"/><path d="M123.4,202.7a.5.5,0,0,1-.5-.5v-2a.5.5,0,0,1,.5-.5.6.6,0,0,1,.5.5v2A.5.5,0,0,1,123.4,202.7Z" style="fill:#fff"/><path d="M117.9,7.5a66.5,66.5,0,0,1,16.9-5.4c12.2-2.2,23.3,1,33.1,3.8l.4.2a2.5,2.5,0,0,1,1.6,2.2v4.6c0,2.2-.1,4.7.2,9.8v1.9a185.9,185.9,0,0,0,1.6,18.7c.3,2.2.6,4.1.9,6,.5,3.6,1,6.9,1.5,11.2.8,6.9,2,9.7,3.6,12.9a30,30,0,0,0,6.5,8.6l.8.7a84.3,84.3,0,0,1,7.8,8,37.3,37.3,0,0,0,3.2,3.6c1.6,1.9,3.3,3.8,4.8,5.9s2.3,3.1,3.4,4.7l4.5,6.1c2,2.6,5.4,3.5,8.6,4.5l1.9.5c3.3,1,6.8,2.1,9.3,5.5a50.2,50.2,0,0,1,6.1,11.1,37.7,37.7,0,0,0,2.2,4.5c.5.9,1.1,1.7,1.7,2.6s1.3,1.9,2.1,3.3v.2a8.2,8.2,0,0,1,1.5,5.2c0,.4-.1.7-.1,1a4.2,4.2,0,0,1-4.1,3c-6.8-.1-8.8-5.6-10.8-11a27.5,27.5,0,0,0-1.7-4.3,24.4,24.4,0,0,1-1-2.4c-1.3-2.7-2.4-5.3-4.4-7.5a10.8,10.8,0,0,0-2.4-2.1s-.1,0-.1.2a.6.6,0,0,0,0,.6,5.3,5.3,0,0,0,1.1.9l.8.6a18,18,0,0,1,3.5,5.8c.4.8.8,1.7,1.2,2.4a73.9,73.9,0,0,1,3.6,8.8c.3.9.6,1.9,1,2.9a5.1,5.1,0,0,0,.5,1.2c1.3,3.5,4.6,11.6,3.5,15.7a3.6,3.6,0,0,1-4,2.7,8.4,8.4,0,0,1-2.6-.7,9.5,9.5,0,0,1-4-3.7,28.5,28.5,0,0,1-1.6-3l-.7-1.3a4,4,0,0,1-.4-2.4,12.2,12.2,0,0,0,.3-2.6v-.9a4.9,4.9,0,0,1-.1-1.2,16.4,16.4,0,0,0-.2-2.2,25.7,25.7,0,0,0-3.2-8.7c-.8-1.1-1.7-2.2-2.5-3.4l-1.2-2.3a17.3,17.3,0,0,0-1.5-2.7H211c-.1-.1-.3-.5-.5-.5a.1.1,0,0,0-.1.1v.2h0a28.2,28.2,0,0,0,4,7.7,27.9,27.9,0,0,1,4.2,8c1,3.3.6,7.1,0,10.4a60.1,60.1,0,0,1-1.4,6.4,11.9,11.9,0,0,1-.8,2v.3l-1.5,3.5a29.7,29.7,0,0,1-3.6,7.1,3.3,3.3,0,0,1-2.3,1.4,3.3,3.3,0,0,1-2.5-.8,7.6,7.6,0,0,1-1.1-1.4h0a29,29,0,0,1-.2-9.8c.2-1.3.6-2.6.9-3.8l.3-1.1a22.1,22.1,0,0,0,.9-4.6,10.3,10.3,0,0,0-1.2-5.7l-.3-.6a10.1,10.1,0,0,0-.7-1.5c-.8-1.4-1.4-2.4-1.9-3.4l-1.1-1.8a14.2,14.2,0,0,1-.8-1.8,8.2,8.2,0,0,0-1.7-2.9h-.2v.2H199c-.1.2,0,.6,0,.8a.6.6,0,0,1,.1.4c.1,1,.1,2.1.2,3.1s.1,2.5.2,3.7a65.3,65.3,0,0,1,0,11.7,36.5,36.5,0,0,1-.9,5.6c-.9,3.4-2.4,5.5-4.5,6.4a85.1,85.1,0,0,0-10.9,5.4l-1.2.8c-2.7,1.8-5.7,3.9-9,3.4s-3.3-1.1-3.7-2.4a5.5,5.5,0,0,1,.2-2.8,14.7,14.7,0,0,1,1.5-3.4,28.2,28.2,0,0,1,6.2-5.7c1.2-1,2.4-1.8,3.4-2.8s1.8-2,1.9-2.6a3.6,3.6,0,0,0,.2-1,46.1,46.1,0,0,0-.3-8.3l-.3-3.6c-.2-3.9-.5-8.1-2-11.6a12.4,12.4,0,0,0-7.7-6.8c-3.2-.9-6.6.5-9.1,3.8a4.4,4.4,0,0,0-.8,1.1,16.6,16.6,0,0,0-2.3,3.1,30.2,30.2,0,0,0-2.7,6,12,12,0,0,0,0,6.5c.4,1.7.8,2.5,2.4,4.8l1.2,1.2a25.2,25.2,0,0,0,3,2.7,16.2,16.2,0,0,1,3,3.3,9.2,9.2,0,0,1,1.4,6.5l-.2,1.7h0a2.3,2.3,0,0,1-2.5,1.5l-1.3-.5-.3-.2-2.5-1.2a65.3,65.3,0,0,1-8.7-4.5l-.5-.3a16.4,16.4,0,0,1-6.9-6.9v-.3a35.1,35.1,0,0,1-3.6-11.6,88.9,88.9,0,0,1-.8-11.5v-1.6a41.4,41.4,0,0,1,.8-8.7c.2-1.4.5-2.8.6-4.2a43,43,0,0,0-.2-9.5l-.3-3.5a176.5,176.5,0,0,0-3.6-27c-1.3-5.7-2.9-12.6-5-19.5l-6.6-22.1c-1.4-4.5-2.7-9.1-4-13.6s-3.3-11.5-5.1-17.2V7.7Z" style="fill:#231f20;fill-rule:evenodd"/></svg>