<svg xmlns="http://www.w3.org/2000/svg" viewBox="0 0 504 504"><title>illustr--v copy</title><path d="M393.3,109.7c-2.1-1.1-4.2-1.7-10-1.7H123.6c-5.8,0-7.9.6-10.1,1.7a12.2,12.2,0,0,0-4.9,4.9c-1.1,2.1-1.7,4.3-1.7,10.1V384.4c0,5.8.6,7.9,1.7,10a12.2,12.2,0,0,0,4.9,4.9c2.2,1.2,4.3,1.8,10.1,1.8H383.3c5.8,0,7.9-.6,10-1.8a11.8,11.8,0,0,0,5-4.9c1.1-2.1,1.7-4.2,1.7-10V124.7c0-5.8-.6-8-1.7-10.1A11.8,11.8,0,0,0,393.3,109.7Zm5.1,274.7c0,5.9-.7,7.6-1.6,9.2a10.3,10.3,0,0,1-4.2,4.3c-1.7.9-3.4,1.6-9.3,1.6H123.6c-5.9,0-7.6-.7-9.3-1.6a9.7,9.7,0,0,1-4.2-4.3c-.9-1.6-1.6-3.3-1.6-9.2V124.7c0-5.9.7-7.7,1.6-9.3a10.2,10.2,0,0,1,4.2-4.3c1.7-.8,3.4-1.5,9.3-1.5H383.3c5.9,0,7.6.7,9.3,1.5a10.9,10.9,0,0,1,4.2,4.3c.9,1.6,1.6,3.4,1.6,9.3Z" style="fill:#afadad"/><path d="M379.7,151.3a15.7,15.7,0,0,0-14.7-.7,30.1,30.1,0,0,0-9.8,7.1l-1,1v.2c-.1,6.3,2.6,11.7,5.1,17.3.1.1.1.3.2.4l.4.8c.2.4.3.8.5,1.3h.1l1.2,2.9h0v.2c1.5,4,2.5,8,3.7,12,3-5.6,6-11.1,8.7-16.8s5.6-12.4,8.2-18.6C383.7,155.1,382.8,153.1,379.7,151.3Z" style="fill:#333031"/><path d="M363.4,200.9a3.7,3.7,0,0,1-.2-2.3c-1.4-4-2.5-8.2-3.9-12.3h0a1.4,1.4,0,0,0-.2-.7l-.3-.9-.6-1.8c-2.9-7.8-7.5-14.8-7.6-23.4-1.5-3-3-6-4.6-9a76.3,76.3,0,0,0-10.2-15c-1.8-2-3.4-2.4-5.8-1.4l-.7.2c-5.1,4.9-7.3,12.1-8.3,19a41.9,41.9,0,0,0,2.2,23c2.8,7,6.7,13.6,7.4,21.2.2,2.2,1.3,7.3.4,10.2a51.6,51.6,0,0,1,7.4,2.9l1.1.5h.1a21.2,21.2,0,0,1,3.6,2.1h.2a2.7,2.7,0,0,1,.8.7l.3.2.7.6.4.3.6.6.3.3.9,1,.6.7.2.3.3.5.2.2.3.5v.3l.3.5.2.3c0,.2.1.3.2.5a.4.4,0,0,1,.1.3l.3.5a.4.4,0,0,0,.1.3,1.4,1.4,0,0,0,.2.6v.2a1.4,1.4,0,0,0,.2.6v.2c.1.2.1.5.2.7v.2a6.4,6.4,0,0,1,.2.7h0c.1.3.1.5.2.8h0c0,.2.1.5.1.8h0c0,.2.1.5.1.8h0a2.8,2.8,0,0,0,.1.9h0v.9h0v1a62.1,62.1,0,0,1-2,13.8c-.7,2.6-1.3,5.3-1.9,7.9,5.6-8.3,11.3-16.6,16.8-25a18.3,18.3,0,0,0,2-16.7C365.4,207.5,364.5,204.2,363.4,200.9Z" style="fill:#333031"/><path d="M327.1,200.2a33.8,33.8,0,0,0-1.7-9.4,12.2,12.2,0,0,0-.7-1.7v-.2c-.2-.5-.5-1-.7-1.6h0c-.3-.9-.7-1.7-1.1-2.6-4,6.6-11.1,10.2-16.1,16.1l2.8.6,5.1,1.3h.2l1.5.5h.4l1.5.5h.5l1.4.5h.3l3.3,1,3.6,1.1v-.4c-.2-.4,0-1.1,0-1.5Z" style="fill:#333031"/><path d="M348,229.3h0a18.5,18.5,0,0,0-.8-4.7c-1.8-6.3-7.3-9.4-13-11.7s-10.1-3.5-15.2-5.1-12.2-3.7-18.5-4.2-10.2.8-15.1,2.2c-3.4,1-7.7,2.2-10.7,4.4l8.9.4,2.1.2h.1l4.1.5h.3l1.7.3h.4l3.8,1,.6.2,1.4.5.5.2,1.9.9c4.8,2.3,9.2,5.6,13.5,8.7s7.6,5.2,11,8.4c7,6.6,7.7,14.1,5.6,23.2-2.7,11.3-4.1,22.9-7.2,34.2a.4.4,0,0,1-.1.3c0,.1,0,.1-.1.1s0,.2-.1.2a.1.1,0,0,1-.1.1c0,.1-.1.1-.1.2h-1a1.8,1.8,0,0,1-2-2.2c2.6-9.8,3.5-20,6-29.8,1.1-4.4,2.7-9,2.3-13.6s-3.3-8.2-6.7-11.2-6.9-5.2-10.4-7.8a85.6,85.6,0,0,0-12.5-8c-7.8-3.7-16.1-3.6-24.5-3.8l-.6.2c-5.1.9-9.7,3-14.3,5s-10.3,3.2-7.5,8.4c4.9,8.8,16.7,8.8,25.2,10.5,3.7.7,6.6,1.7,9.2,4.6a37.8,37.8,0,0,1,5.6,9,19.6,19.6,0,0,1,2.3,8.5c0,4.7-.7,9.4.3,14,.5,2.3-3,3.3-3.5,1a35,35,0,0,1-.6-9.7c-4.5,3-9.5,5-14.5,7.2-2.8,4.4-2.9,9.2-2.9,14.4,0,2.3-3.7,2.3-3.6,0,0-5,.1-9.9,2.3-14.3l-.3-.5c-3.8-.6-7.1-2.5-10.8-3.9a72.4,72.4,0,0,0-15.2-4c-10.5-1.7-22-2.8-32.4-.3-2.3.6-3.3-3-1-3.5,10.1-2.5,20.9-1.6,31.1-.2a87.7,87.7,0,0,1,15.8,3.5c5,1.7,10,5.1,15.5,5h.8a110.5,110.5,0,0,0,11-5.2.5.5,0,0,1,.4-.2l2-1.3h.7a1.3,1.3,0,0,1,1.2.3v-2.2a7.6,7.6,0,0,0-.1-1.5h0c-.1-.4-.1-.9-.2-1.3a.1.1,0,0,0-.1-.1l-.3-1.3h0c-.2-.4-.3-.9-.5-1.3h0a11.5,11.5,0,0,0-1.2-2.5h0a7.5,7.5,0,0,0-.7-1.2h0l-.7-1.1v-.2l-.7-1.1c-1.2-1.8-2.6-4-4.6-5.2l-1-.5h0a30.7,30.7,0,0,0-6.7-1.4c-4.3-.7-8.6-1.1-12.7-2.5l-1.8-.7c-5.2-2.3-14.2-8.9-10.9-15.8a8.8,8.8,0,0,1,3.4-3.5h0a31.2,31.2,0,0,1,4.9-2.3l2.4-.9.3-.2,3.1-1.3.6-.2,1.3-.6,1.7-.6,3.1-1c0-.2.1-.3.2-.5,4.6-7.1,16.2-9.5,24-10.7l1.7-.2h0a32.3,32.3,0,0,1,4.4-.1h0l3.6.2c.1-.1.1-.2.2-.4,5.2-6.8,14.4-10.6,17.8-18.7a1,1,0,0,1,.4-.5,21.4,21.4,0,0,1-1.2-2.8l-.3-.6-.3-1a.8.8,0,0,1-.2-.5l-.6-1.4v-.2a9.3,9.3,0,0,1-.4-1.3l-.2-.5-.3-1a.7.7,0,0,0-.1-.5,4.3,4.3,0,0,1-.2-1.1.9.9,0,0,1-.1-.5l-.3-1.5c-.1-.6-.1-1.3-.2-1.9v-.5a11.1,11.1,0,0,1-.2-1.9v-4.8c0-.6.1-1.2.1-1.7v-.6a13.6,13.6,0,0,0,.2-2,.7.7,0,0,0,.1-.5c.1-.5.1-1,.2-1.6a1.3,1.3,0,0,0,.1-.6c.1-.6.3-1.3.4-1.9a4.3,4.3,0,0,1,.1-.5c.1-.6.3-1.1.4-1.6s.1-.4.1-.6l.6-1.8a1.4,1.4,0,0,1,.2-.6,33,33,0,0,1,6.3-11.5,12.4,12.4,0,0,0-8.2,1.2,19.6,19.6,0,0,0-8,7.9c-4.9,8.3-11.6,15.2-18.7,21.7-13.6,12.4-28.5,23.2-43.9,33.4a16.6,16.6,0,0,1-4.5,2.5,100.2,100.2,0,0,0-26.5,12.9c-13.1,9-23.5,20.3-30.6,34.5a138.3,138.3,0,0,1-14.4,23.2c-6.4,11.7-68.7,64.5-79.8,72.1,0,.2.1.4.1.6a2.1,2.1,0,0,0-1.4,1.5c-4.8,15.5,5.6,37.9,17.4,47.5,6.7,5.5,14.3,9.6,21.9,13.6s19.9,9.2,28.9,8.3a2.6,2.6,0,0,0,2.3-2.1c3.8-4.9,54.9-60.5,59.6-64.1a73.9,73.9,0,0,1,37.8-21.1c7.6-1.7,15.4-2.8,23-4.3a245.5,245.5,0,0,0,26.9-6.6,16.8,16.8,0,0,0,7.2-4.6,28,28,0,0,1,4.1-3.5l6.7-4.3c3.5-2.5,6.3-5.6,7.5-9.8,2.5-8.4,5-16.9,7.2-25.4a45,45,0,0,1,2.8-8.3c1-5.8,2.3-11.6,3.7-17.5.4-1.7.8-3.5,1.1-5.4h0l.3-1.8V235c.1-.6.1-1.2.2-1.8h0A24.1,24.1,0,0,0,348,229.3Z" style="fill:#333031"/><line x1="339" y1="126" x2="350" y2="94" style="fill:none;stroke:#66c8c7;stroke-linecap:round;stroke-miterlimit:10;stroke-width:5px"/><line x1="324.6" y1="119.4" x2="316.5" y2="101.5" style="fill:none;stroke:#66c8c7;stroke-linecap:round;stroke-miterlimit:10;stroke-width:5px"/><line x1="369.5" y1="122.4" x2="351.7" y2="130.5" style="fill:none;stroke:#66c8c7;stroke-linecap:round;stroke-miterlimit:10;stroke-width:5px"/></svg>