<svg xmlns="http://www.w3.org/2000/svg" xmlns:xlink="http://www.w3.org/1999/xlink" viewBox="0 0 360 360"><defs><clipPath id="a"><path d="M20.9,109.8V250.2a37.4,37.4,0,0,0,18.8,32.4l121.6,70.2a37.3,37.3,0,0,0,37.4,0l121.6-70.2a37.4,37.4,0,0,0,18.8-32.4V109.8a37.4,37.4,0,0,0-18.8-32.4L198.7,7.2a37.3,37.3,0,0,0-37.4,0L39.7,77.4A37.4,37.4,0,0,0,20.9,109.8Z" style="fill:none"/></clipPath></defs><title>illustr--success</title><path d="M20.9,109.8V250.2a37.4,37.4,0,0,0,18.8,32.4l121.6,70.2a37.3,37.3,0,0,0,37.4,0l121.6-70.2a37.4,37.4,0,0,0,18.8-32.4V109.8a37.4,37.4,0,0,0-18.8-32.4L198.7,7.2a37.3,37.3,0,0,0-37.4,0L39.7,77.4A37.4,37.4,0,0,0,20.9,109.8Z" style="fill:none;stroke:#8e8e8e;stroke-miterlimit:10"/><g style="clip-path:url(#a)"><path d="M320.2,380.3a6.1,6.1,0,0,1-3.7-1.2c-4.2-.6-7.4-5.8-9.7-9.8a15.7,15.7,0,0,0-1.2-1.9c-7.7-11.7-15-22.2-22.2-31.9l-2.2-3a164.8,164.8,0,0,0-11.1-13.9,69.4,69.4,0,0,0-6.7-6.6c-2-1.9-4.1-3.9-6-5.9l-4.5-4.8c-6.7-7.1-13.7-14.5-20.6-21.5a92.8,92.8,0,0,0-13.1-10.3,90.3,90.3,0,0,1-11.7-8.9,50.4,50.4,0,0,0-7.3-5.6H200c-2.3-2.6-5.4-4.5-8.3-6.4a26.1,26.1,0,0,1-2.8-1.7l-1.9-1.3h0a89,89,0,0,0-7.1-7.8c-5.7-5.8-11.4-11.8-13.8-20.2l-.6-2.4v-.6l.6-.2,15.8-5.8c-3.4-5.7-3.9-14.9-4.3-21.1-.1-.9-.1-1.7-.2-2.5-1.4-19.2-2.3-35.5-2.4-51.7,0-6.6.1-15.2.8-23.9a73.7,73.7,0,0,0,.1-9.4,63,63,0,0,1,.4-12.3c.7-3.7,3.9-8,8.4-8.4h.5c4.4,0,6.5,5.8,7.2,7.7a3.1,3.1,0,0,1,.2.8,10.3,10.3,0,0,1,1.9-4.1c1.8-2.5,4.5-5.7,7.6-5.7a5.7,5.7,0,0,1,3.8,1.7c2.5,2.4,3,5.3,3.4,8.4v.2q1.1,6.5,1.8,12.9l.2,1.3c.6,4.5.9,9,1.2,13.4a126,126,0,0,0,1.7,16v.4a5.6,5.6,0,0,0,.1.7l.2.4-.4.2a28.3,28.3,0,0,0-3,3,12.8,12.8,0,0,1,3.6-2.2,12.1,12.1,0,0,1,4.8-1.2c2.4,0,5.5,1.4,5.6,7.9v6.3c.1,1.1.1,2.3.2,3.5a33.6,33.6,0,0,0,.9,5.8c.4.9.8,1.9,1.3,2.9l1.2,2.8a83,83,0,0,1,2.3,8,30.9,30.9,0,0,1,6.3,9.8v.3c2.4,5.4,5,11.1,6.4,16.9a155.9,155.9,0,0,0,19.6,35c9.2,12.6,22.9,21.1,36.3,29.3,5.5,3.4,11.3,6.9,16.5,10.7,8.2,5.8,16.4,12,24.4,17.9l3.8,2.8c2.4,1.7,4.8,3.6,7.1,5.4a194.9,194.9,0,0,0,19.7,14,2.2,2.2,0,0,1,1.3,2.3,1.4,1.4,0,0,1,0,.9,38,38,0,0,1-2.6,8.9c-.4,1.2-.9,2.3-1.3,3.5a43.6,43.6,0,0,1-5.1,10.1,149.4,149.4,0,0,1-18.2,21.5l-3.2,3.5c-5.4,6.5-14.9,17.3-21.9,17.3ZM206.8,156.2v0Zm-15-58.3c-.4,8-.4,16-.4,23.7s.7,13,.7,19.1v2.5l.3,1.2a6.8,6.8,0,0,0,.1,1.2,25.1,25.1,0,0,0,.7,3.9l.3-1.7c-.1-1.3-.2-2.5-.4-3.8s-.5-4.6-.7-6.9c-.6-8.1-.5-16.4-.4-24.4,0-3,.1-6.2.1-9.3,0-1.3-.1-2.7-.2-4.3A7.4,7.4,0,0,1,191.8,97.9Z" style="fill:#333031"/><path d="M202,78.5a4.9,4.9,0,0,1,3.4,1.5c2.4,2.3,2.8,5.1,3.3,8.3l2.1,14.2c1.3,9.8,1,19.7,2.8,29.5,0,.2.2,1.1.2,1.2a25.2,25.2,0,0,0-6.5,8.8c-1.4,3.3-1.3,6.3-1.1,9.6,0,1.6,0,3.1.1,4.7.1.1.1.2.1.4.1,4.7.1,9.4.4,14.3l1.2,17.2a.7.7,0,0,0,.7.6.6.6,0,0,0,.6-.6c-.8-9.9-2-20.1-1.7-30.1.1-4.4-1.1-9.5.2-13.8a21.5,21.5,0,0,1,3-6.3,14.1,14.1,0,0,1,4.3-2.9,11.6,11.6,0,0,1,4.5-1.2c3.3,0,4.9,2.7,5,7.3.1,2.2,0,4.2.1,6.3s.1,2.4.2,3.6a31.3,31.3,0,0,0,.9,5.9c.7,1.9,1.7,3.7,2.5,5.8a74.9,74.9,0,0,1,2.3,8.1,31.7,31.7,0,0,1,6.3,9.7c2.4,5.4,5,11.2,6.5,17a151.2,151.2,0,0,0,19.7,35.2c13.1,18,35.1,27.4,52.9,40.1,9.5,6.7,18.8,13.7,28.1,20.7s17.4,13.8,26.9,19.3a1.8,1.8,0,0,1,.9,1.9.9.9,0,0,1,0,.7c-.5,4.2-2.5,8.2-3.9,12.2a43.9,43.9,0,0,1-5,9.9A161.3,161.3,0,0,1,344.9,359c-3.9,3.9-16.4,20.5-24.8,20.5a5.4,5.4,0,0,1-3.4-1.2c-4.8-.5-8.4-8.1-10.6-11.3-7.1-10.9-14.4-21.6-22.3-32-4.3-5.7-8.6-11.7-13.4-16.9s-8.6-8.2-12.7-12.6c-8.3-8.8-16.6-17.7-25.1-26.3s-17.1-12.1-24.8-19.2a58.3,58.3,0,0,0-7.4-5.7c-3.1-3.5-7.6-5.8-11.3-8.3l-1.8-1.2c-7.3-9.2-17.4-15.9-20.8-27.8l-.6-2.3,16.5-6.1c-4.2-6.3-4.3-18-4.7-24-1.2-17.1-2.3-34.5-2.4-51.6,0-7.9.1-15.9.8-23.8s-.7-14.7.5-21.6c.7-3.8,3.8-7.5,7.8-7.9h.4c3.6,0,5.5,4.4,6.6,7.3a2,2,0,0,1,.1,1.3,1.7,1.7,0,0,1-.1.8c-.9,10.6-1,21.6-1,32.2.3,6.4.7,12.7.7,19.1a16.2,16.2,0,0,1-.1,1.8v.2c.1.6.3,1.2.4,1.8s.5,6,1.6,6.8a28.8,28.8,0,0,0,.7-3.6c-.3-3.6-.7-7.2-1.1-10.7-.9-11.2-.3-22.5-.3-33.7,0-6.1-1.7-13.8,2.2-19.2,2.2-2.4,4.8-5.3,7.5-5.3m0-1.3h0c-3.4,0-6.3,3.4-8.2,6a7,7,0,0,0-1.3,2.4c-1-2.5-3.2-7.1-7.4-7.1h-.5c-4.8.5-8.3,5-9,9a56.8,56.8,0,0,0-.4,12.4,72.2,72.2,0,0,1-.1,9.3,229,229,0,0,0-.8,23.9c0,16.2,1,32.5,2.4,51.7.1.7.1,1.6.2,2.5.3,6,.9,14.8,4,20.7-5.3,2-10.1,3.8-15.1,5.5l-1,.4.3,1.1a14.4,14.4,0,0,0,.5,2.4c2.5,8.6,8.4,14.6,14,20.5a89,89,0,0,1,7.1,7.8v.2h.2l.7.5,1.1.7,2.9,1.8a42.5,42.5,0,0,1,8.2,6.3h.3a50.6,50.6,0,0,1,7.2,5.5,84.8,84.8,0,0,0,11.8,8.9c4.4,3.1,9.1,6.2,13,10.2,6.9,7,13.9,14.3,20.6,21.5,1.5,1.6,3.1,3.1,4.5,4.8s4,4,6,5.9,4.5,4.3,6.6,6.6c4,4.3,7.5,9.2,11.1,13.9l2.2,3c7.2,9.7,14.5,20.1,22.2,31.9l1.2,1.9c2.4,4,5.6,9.3,10,10.1a6.9,6.9,0,0,0,3.9,1.2c7.4,0,16.9-10.9,22.6-17.4a43,43,0,0,1,3.2-3.5,156.6,156.6,0,0,0,18.3-21.6,49.2,49.2,0,0,0,5.2-10.2c.4-1.1.8-2.3,1.3-3.5a40.6,40.6,0,0,0,2.7-9v-1a2.8,2.8,0,0,0-1.6-2.8A178.2,178.2,0,0,1,352.6,298c-2.4-1.8-4.7-3.7-7.1-5.4l-3.7-2.8c-8-5.9-16.2-12.1-24.4-18-5.3-3.8-11-7.3-16.6-10.7-13.3-8.1-26.9-16.6-36.1-29.1a152.6,152.6,0,0,1-19.6-34.8,101.7,101.7,0,0,0-6.5-16.9V180a29.9,29.9,0,0,0-6.2-9.8,54.3,54.3,0,0,0-2.4-7.9c-.4-1-.8-1.9-1.1-2.8s-.9-2-1.3-2.9a41,41,0,0,1-.9-5.6c0-1.2-.1-2.5-.2-3.6v-6.3c-.1-3.1-1-8.6-6.4-8.6a12.2,12.2,0,0,0-4.2.9l-.3-.8c0-.1-.1-.4-.1-.6s-.1-.3-.1-.4a142.2,142.2,0,0,1-1.7-16c-.3-4.4-.6-8.9-1.2-13.5l-.2-1.1c-.6-4.3-1.3-8.7-1.8-13.1v-.2c-.5-3.1-.9-6.2-3.6-8.8a9.3,9.3,0,0,0-4.8-1.7Z" style="fill:#fff"/><path d="M52.3,382.9c-7.1,0-16.5-10.8-22.2-17.2a45.7,45.7,0,0,0-3.1-3.5A135.4,135.4,0,0,1,9,340.8a42.3,42.3,0,0,1-5.5-10.5l-1.2-3.1a34.7,34.7,0,0,1-2.5-8.9v-.9A2.5,2.5,0,0,1,1,315c7-4,13.4-9,19.7-13.9l7.2-5.5,3.7-2.7c8-6,16.2-12.1,24.4-17.9,5.3-3.8,11-7.4,16.6-10.7,13.2-8.2,27-16.6,36.3-29.3,13.5-18.4,21.7-36.1,25.8-55.7,1.3-6.2,2.2-12.7,2.9-18.9l1.2-9.2a211.5,211.5,0,0,0,2.3-32.9v-.4a8.3,8.3,0,0,1,.2-2,11.6,11.6,0,0,1,2.9-4.6c1.5-1.5,3.1-3.3,5.2-4.1l1-.4v1.1a92.3,92.3,0,0,1-1.9,10l-.5,2a39.2,39.2,0,0,0-.6,10.3v.4a42.1,42.1,0,0,1,1.2-13,49.1,49.1,0,0,0,2-9.4h0v-1.1c0-.8.1-1.5.1-2.3v-.4c.2-5,.4-10.8,1.8-15.6s3.4-5.4,6.1-5.4a6.6,6.6,0,0,1,5.2,2.7h.1v.4c0,.5-.1,1-.1,1.5.8-4.6,1.9-7.8,3.6-9.3h.1l1-.3h.1c3.2.1,5.8,2,8.2,5.6,1,1.6,2,3.1,2,4.8a19.7,19.7,0,0,1-.3,2.4,11,11,0,0,0-.3,1.6h0c.2-.7.3-1.4.5-2.1h0l.2-.3v-.2a7.6,7.6,0,0,0,.4-1.1c.5-1.6.9-3,3.6-3.2h.4a7.5,7.5,0,0,1,5.8,2.9,18.2,18.2,0,0,1,3.9,8,7.9,7.9,0,0,1,.2,1.7,35.3,35.3,0,0,1,1.4,12.1l-.3,6.1c-.4,8.7-.9,17.7-1,26.5v.3c-.2,2.6-.4,5.1-.5,7.7h0c-.3,1.2-.5,2.4-.8,3.6h0a75.6,75.6,0,0,1,4.2-9v-.2c1.9-3.7,4.4-5.6,7.3-5.6a8.2,8.2,0,0,1,2.6.4,9,9,0,0,1,5,3.5v.4c0,4.1,0,8.5-.2,13a111,111,0,0,0,0,12.9h0a76.1,76.1,0,0,0-1.2,8.7,82.2,82.2,0,0,0-.2,10.9c-.1,1.8-.2,3.5-.2,5.5v1.1a28.9,28.9,0,0,1-.4,2.9c-.2,1.7-.3,3.3-.5,4.9a90.8,90.8,0,0,1-2.4,15.5c-2.4,8.5-8.2,14.4-13.8,20.1-2.3,2.5-4.9,5.1-7.1,7.9h-.1l-1.9,1.2-2.7,1.8c-3,1.9-6.1,3.9-8.3,6.4h-.2a41.5,41.5,0,0,0-7.3,5.6c-3.6,3.4-7.8,6.1-11.7,8.9s-9.2,6.2-13.2,10.3c-6.9,7-13.8,14.3-20.6,21.4l-4.5,4.9c-1.9,2-4,3.9-5.9,5.8s-4.6,4.4-6.8,6.7a163.7,163.7,0,0,0-11,13.9l-2.2,3c-7.2,9.7-14.6,20.1-22.3,31.9a15.7,15.7,0,0,0-1.2,1.9c-2.3,3.9-5.5,9.2-9.7,9.8a5.1,5.1,0,0,1-3.5,1.2Zm95-250.9a55.5,55.5,0,0,1-.5,7.2h0v-.2A40.9,40.9,0,0,0,147.3,132Zm25.8-.4c-.3,2.5-.5,5-.6,7.3A61.5,61.5,0,0,1,173.1,131.6ZM161.7,112c-.3,1.6-.7,3.3-1.1,4.9s-.3,1-.4,1.5.5-1.7.7-2.6S161.4,113.2,161.7,112Z" style="fill:#333031"/><path d="M168.7,79.1c3.4.1,5.7,2.4,7.7,5.3a8.6,8.6,0,0,1,1.9,4.5c0,1.3-.6,2.7-.6,4h0c-.9,4-1.3,8.2-2,12.2-.9,5.8-1.5,11.5-2.1,17.2s-1.7,11.1-1.8,16.7.7,11.9.8,18c0,.3.3.5.7.5s.7-.2.7-.5c-.1-5.8-.8-11.5-.8-17.3s1.3-12.7,1.8-19.2c.4-4.8,1-9.5,1.8-14.3s1.3-10.3,2.7-15.2l.2-.3c0-.1,0-.1.1-.2.8-2.1.7-3.7,3.4-3.9h.4a6.9,6.9,0,0,1,5.3,2.7,16.9,16.9,0,0,1,3.8,7.7,9.9,9.9,0,0,1,.2,1.7,33.3,33.3,0,0,1,1.4,12c-.5,10.8-1.1,21.7-1.3,32.6v.3c-.2,2.6-.4,5.1-.5,7.7a52.3,52.3,0,0,0-1,22.3l-.2.3c-2.2,7.7-7.3,14.4-7.5,22.6a.6.6,0,0,0,.6.6.7.7,0,0,0,.7-.6c.2-8.1,5.3-14.7,7.4-22.2v-.2a.5.5,0,0,0,.2-.6,52.3,52.3,0,0,1,.2-18.1c1.4-3.3,3-6.5,4.4-9.2S201,141,204,141a7.7,7.7,0,0,1,2.5.4,8,8,0,0,1,4.6,3.3c0,4.3,0,8.7-.2,13s-.2,8.6,0,12.9a86.6,86.6,0,0,0-1.2,8.7,80.8,80.8,0,0,0-.2,11c-.1,1.9-.2,3.6-.2,5.5s-.3,2.6-.5,4c-.8,6.7-1,13.7-2.9,20.4-3.4,11.9-13.4,18.7-20.8,27.8l-1.7,1.1c-3.8,2.6-8.2,4.9-11.3,8.4a38.3,38.3,0,0,0-7.4,5.7c-7.7,7.1-17.4,11.6-24.9,19.2s-16.8,17.5-25.1,26.3c-4.1,4.3-8.6,8.1-12.7,12.6s-9,11.2-13.3,16.9c-7.8,10.5-15.1,21-22.4,31.9-2.1,3.4-5.9,11-10.6,11.4a5,5,0,0,1-3.3,1.2c-8.4,0-21-16.6-24.8-20.5a140.9,140.9,0,0,1-18-21.3,41.2,41.2,0,0,1-5.4-10.4C2.8,326.6.9,322.7.4,318.6v-.7a2.2,2.2,0,0,1,.9-1.9c9.5-5.5,18.1-12.8,26.9-19.4s18.7-13.9,28.1-20.7c17.8-12.6,39.8-22,53-40s21.5-35,25.9-55.9c2-9.3,2.7-18.7,4.1-28.1a214.5,214.5,0,0,0,2.3-33,6.6,6.6,0,0,1,.2-2.3,11.1,11.1,0,0,1,2.7-4.3c1.3-1.4,3-3.2,4.9-3.9a98.7,98.7,0,0,1-2.4,11.8c-.9,4-.6,8.1-.5,12.2s-1,9.4-1,14.2c0,.4.3.6.7.6a.6.6,0,0,0,.6-.6c0-4.8,1.1-9.4,1-14.2s-.2-9.4,1.2-14.2a53.5,53.5,0,0,0,2.1-10.1h0c.1-.9.1-1.9.2-2.8.2-5.1.4-11,1.8-15.8.9-3.1,3-5.1,5.5-5.1a6.2,6.2,0,0,1,4.7,2.6h0c-.3,4.1-.1,8.2-.5,12.4a107.3,107.3,0,0,1-3,17.7c-1.3,4.9-3,9.9-3.4,15s.4,11.5-.3,17.3a.6.6,0,0,0,.6.6.7.7,0,0,0,.7-.6c.7-5.7-.2-11.4.3-17.3s2.3-10.6,3.7-15.8a103,103,0,0,0,2.4-14.4c.5-4.1.4-8.2.6-12.2a2.8,2.8,0,0,1,.1-.9c.2-1.4,1-6.8,3.4-9a1.6,1.6,0,0,1,.8-.7m-17.5,28.6h0m17.3-29.9h-1.2l-.2.2c-1.4,1.3-2.4,3.5-3.2,6.8a7.5,7.5,0,0,0-5.2-2.4c-3,0-5.7,2.3-6.7,5.9s-1.7,10.7-1.9,15.8v.4a7.6,7.6,0,0,1-.1,1.5l-.8.3c-2.2.8-3.9,2.7-5.5,4.4a11.2,11.2,0,0,0-3,4.6h0a10.3,10.3,0,0,0-.2,2.2v.4a223.2,223.2,0,0,1-2.3,32.8c-.5,3.1-.8,6.2-1.1,9.2-.8,6.1-1.6,12.6-2.9,18.8-4.1,19.5-12.3,37.1-25.7,55.4-9.2,12.5-22.9,21-36.1,29.1-5.6,3.4-11.3,6.9-16.7,10.7-8.2,5.8-16.5,12-24.4,18l-3.6,2.7-7.2,5.5c-6.2,4.8-12.7,9.9-19.6,13.8a3.1,3.1,0,0,0-1.5,2.9,1.7,1.7,0,0,0,0,1,38.8,38.8,0,0,0,2.6,9l1.2,3.1a43.9,43.9,0,0,0,5.6,10.7,142.4,142.4,0,0,0,18.1,21.5l3.1,3.5c5.8,6.5,15.3,17.4,22.7,17.4a6.2,6.2,0,0,0,3.8-1.2c4.4-.7,7.7-6.1,10-10.1a15.7,15.7,0,0,1,1.2-1.9c7.7-11.8,15.1-22.2,22.3-31.9.7-1,1.5-2,2.1-3,3.5-4.7,7.2-9.6,11.1-13.9,2.1-2.3,4.5-4.6,6.7-6.7s4-3.8,5.9-5.8,3.1-3.2,4.5-4.9c6.8-7.1,13.7-14.4,20.6-21.4,3.9-4,8.5-7.1,13.1-10.2a124.4,124.4,0,0,0,11.7-8.9,52.1,52.1,0,0,1,7.3-5.6h.3a36.8,36.8,0,0,1,8.2-6.2l2.8-1.9,1.1-.7.7-.5h.3c2.2-2.8,4.7-5.4,7.1-7.9,5.7-5.8,11.5-11.8,14-20.4a92,92,0,0,0,2.4-15.6c.2-1.7.3-3.3.5-4.9a28.9,28.9,0,0,1,.4-2.9v-1h0c0-2,.1-3.7.2-5.4h0a82.2,82.2,0,0,1,.2-10.9,77.3,77.3,0,0,1,1.3-8.6V170a109.2,109.2,0,0,1,0-12.8c.2-4.5.2-8.9.2-13v-.4l-.3-.4a9.6,9.6,0,0,0-5.3-3.7,9.7,9.7,0,0,0-2.8-.5c-3.2,0-5.9,2-7.9,6v.2c-.7,1.3-1.4,2.6-2.1,4.1.1-1.8.3-3.8.4-6.2h0V143h0c.1-8.8.6-17.8,1-26.5l.3-6.1a34.2,34.2,0,0,0-1.4-12.3,7.9,7.9,0,0,0-.2-1.7,18.5,18.5,0,0,0-4.1-8.3,8.5,8.5,0,0,0-6.3-3.1h-.5c-2.1.2-3.1,1.1-3.6,2.2a11,11,0,0,0-1.9-3.6c-2.6-3.9-5.4-5.8-8.8-6l-.6.2Z" style="fill:#fff"/><line x1="186.3" y1="268.7" x2="186.3" y2="290.9" style="fill:none;stroke:#66c8c7;stroke-linecap:round;stroke-linejoin:round;stroke-width:2px"/><line x1="199.4" y1="274.1" x2="202.6" y2="285.5" style="fill:none;stroke:#66c8c7;stroke-linecap:round;stroke-linejoin:round;stroke-width:2px"/><line x1="174.5" y1="274.7" x2="168.7" y2="285" style="fill:none;stroke:#66c8c7;stroke-linecap:round;stroke-linejoin:round;stroke-width:2px"/><line x1="119.4" y1="104.4" x2="103.8" y2="88.8" style="fill:none;stroke:#66c8c7;stroke-linecap:round;stroke-linejoin:round;stroke-width:2px"/><line x1="106.4" y1="109.9" x2="96" y2="104" style="fill:none;stroke:#66c8c7;stroke-linecap:round;stroke-linejoin:round;stroke-width:2px"/><line x1="123.6" y1="92" x2="120.4" y2="80.5" style="fill:none;stroke:#66c8c7;stroke-linecap:round;stroke-linejoin:round;stroke-width:2px"/><line x1="240.5" y1="104.8" x2="256.3" y2="89.1" style="fill:none;stroke:#66c8c7;stroke-linecap:round;stroke-linejoin:round;stroke-width:2px"/><line x1="235.1" y1="91.8" x2="240.9" y2="81.4" style="fill:none;stroke:#66c8c7;stroke-linecap:round;stroke-linejoin:round;stroke-width:2px"/><line x1="253" y1="109" x2="264.5" y2="105.8" style="fill:none;stroke:#66c8c7;stroke-linecap:round;stroke-linejoin:round;stroke-width:2px"/></g></svg>