<svg xmlns="http://www.w3.org/2000/svg" viewBox="0 0 360 360"><title>illustr--matchingPlan</title><path d="M288.2,60.6c-1.6-.9-3.3-1.4-7.8-1.4H80.1c-4.6,0-6.2.5-7.8,1.4a8.7,8.7,0,0,0-3.8,3.8c-.9,1.6-1.4,3.2-1.4,7.8V272.5c0,4.5.5,6.2,1.4,7.8a9.3,9.3,0,0,0,3.8,3.8c1.6.9,3.2,1.4,7.8,1.4H280.4c4.5,0,6.2-.5,7.8-1.4a9.9,9.9,0,0,0,3.8-3.8c.9-1.6,1.4-3.3,1.4-7.8V72.2c0-4.6-.5-6.2-1.4-7.8A9.3,9.3,0,0,0,288.2,60.6Zm3.9,211.9c0,4.7-.5,5.9-1.2,7.2a7.5,7.5,0,0,1-3.3,3.3c-1.3.7-2.5,1.2-7.2,1.2H80.1c-4.7,0-5.9-.5-7.2-1.2a7.5,7.5,0,0,1-3.3-3.3c-.7-1.3-1.2-2.5-1.2-7.2V72.2c0-4.7.5-6,1.2-7.2a7.5,7.5,0,0,1,3.3-3.3c1.3-.7,2.5-1.2,7.2-1.2H280.4c4.7,0,5.9.5,7.2,1.2a7.5,7.5,0,0,1,3.3,3.3c.7,1.2,1.2,2.5,1.2,7.2Z" style="fill:#afadad"/><rect x="105.5" y="87.6" width="155.8" height="167.73" rx="2.3" ry="2.3" style="fill:#66c6c6"/><path d="M255.3,256.9H111.5a7.6,7.6,0,0,1-7.6-7.6V93.6a7.6,7.6,0,0,1,7.6-7.5H255.3a7.6,7.6,0,0,1,7.6,7.5V249.3A7.6,7.6,0,0,1,255.3,256.9ZM111.5,89.2a4.4,4.4,0,0,0-4.4,4.4V249.3a4.5,4.5,0,0,0,4.4,4.5H255.3a4.5,4.5,0,0,0,4.5-4.5V93.6a4.5,4.5,0,0,0-4.5-4.4Z" style="fill:#fff"/><rect x="99.2" y="78.1" width="168.4" height="39.17" rx="7.3" ry="7.3" style="fill:#231f20"/><path d="M260.2,118.9H106.6a9,9,0,0,1-8.9-9V85.6a8.9,8.9,0,0,1,8.9-9H260.2a9,9,0,0,1,9,9v24.3A9.1,9.1,0,0,1,260.2,118.9ZM106.6,79.7a5.8,5.8,0,0,0-5.8,5.9v24.3a5.8,5.8,0,0,0,5.8,5.8H260.2a5.9,5.9,0,0,0,5.9-5.8V85.6a5.9,5.9,0,0,0-5.9-5.9Z" style="fill:#fff"/><rect x="236.1" y="200.2" width="17.3" height="17.35" style="fill:#fff"/><rect x="236.1" y="179.9" width="17.3" height="17.34" style="fill:#fff"/><rect x="236.1" y="159.5" width="17.3" height="17.34" style="fill:#fff"/><rect x="236.1" y="139.1" width="17.3" height="17.34" style="fill:#fff"/><path d="M235.5,199.6h18.6v18.6H235.5Zm18,18V200.2H236.1v17.4Z" style="fill:#231f20"/><path d="M235.5,179.3h18.6v18.5H235.5Zm18,17.9V179.9H236.1v17.3Z" style="fill:#231f20"/><path d="M235.8,159.2h18v18h-18Zm17.7,17.6V159.5H236.1v17.3Z" style="fill:#231f20"/><path d="M235.5,138.5h18.6v18.6H235.5Zm18,18V139.1H236.1v17.4Z" style="fill:#231f20"/><path d="M235.5,158.9h18.6v18.6H235.5Zm18.3.3h-18v18h18Z" style="fill:#231f20"/><rect x="216.2" y="220.6" width="17.3" height="17.34" style="fill:#fff"/><rect x="216.2" y="200.2" width="17.3" height="17.35" style="fill:#fff"/><rect x="216.2" y="179.9" width="17.3" height="17.34" style="fill:#fff"/><rect x="216.2" y="159.5" width="17.3" height="17.34" style="fill:#fff"/><rect x="216.2" y="139.1" width="17.3" height="17.34" style="fill:#fff"/><path d="M215.6,220h18.6v18.6H215.6Zm18,17.9V220.6H216.2v17.3Z" style="fill:#231f20"/><path d="M215.6,199.6h18.6v18.6H215.6Zm18,18V200.2H216.2v17.4Z" style="fill:#231f20"/><path d="M215.6,179.3h18.6v18.5H215.6Zm18,17.9V179.9H216.2v17.3Z" style="fill:#231f20"/><path d="M233.6,176.8V159.5H216.2v17.3Zm.3-17.6v18h-18v-18Z" style="fill:#231f20"/><path d="M215.6,138.5h18.6v18.6H215.6Zm18,18V139.1H216.2v17.4Z" style="fill:#231f20"/><path d="M215.6,158.9h18.6v18.6H215.6Zm18.3,18.3v-18h-18v18Z" style="fill:#231f20"/><rect x="196.3" y="220.6" width="17.3" height="17.34" style="fill:#fff"/><rect x="196.3" y="200.2" width="17.3" height="17.35" style="fill:#fff"/><rect x="196.3" y="179.9" width="17.3" height="17.34" style="fill:#fff"/><rect x="196.3" y="159.5" width="17.3" height="17.34" style="fill:#fff"/><rect x="195.4" y="139.1" width="17.3" height="17.34" style="fill:#fff"/><path d="M213.7,237.9V220.6H196.3v17.3Zm.6.7H195.7V220h18.6Z" style="fill:#231f20"/><path d="M213.7,217.6V200.2H196.3v17.4Zm.6.6H195.7V199.6h18.6Z" style="fill:#231f20"/><path d="M213.7,197.2V179.9H196.3v17.3Zm.6.6H195.7V179.3h18.6Z" style="fill:#231f20"/><path d="M213.7,176.8V159.5H196.3v17.3Zm.3-17.6v18H196v-18Z" style="fill:#231f20"/><path d="M214,177.2v-18H196v18Zm.3.3H195.7V158.9h18.6Z" style="fill:#231f20"/><path d="M194.8,138.5h18.5v18.6H194.8Zm.6,18h17.3V139.1H195.4Z" style="fill:#231f20"/><rect x="176.4" y="220.6" width="17.3" height="17.34" style="fill:#fff"/><rect x="176.4" y="200.2" width="17.3" height="17.35" style="fill:#fff"/><rect x="176.4" y="179.9" width="17.3" height="17.34" style="fill:#fff"/><rect x="176.4" y="159.5" width="17.3" height="17.34" style="fill:#fff"/><path d="M193.8,237.9V220.6H176.4v17.3Zm-18,.7V220h18.6v18.6Z" style="fill:#231f20"/><path d="M193.8,217.6V200.2H176.4v17.4Zm-18,.6V199.6h18.6v18.6Z" style="fill:#231f20"/><path d="M193.8,197.2V179.9H176.4v17.3Zm-18,.6V179.3h18.6v18.5Z" style="fill:#231f20"/><path d="M193.8,176.8V159.5H176.4v17.3Zm.3-17.6v18h-18v-18Z" style="fill:#231f20"/><path d="M194.1,177.2v-18h-18v18Zm-18.3.3V158.9h18.6v18.6Z" style="fill:#231f20"/><rect x="156.5" y="220.6" width="17.3" height="17.34" style="fill:#fff"/><rect x="156.5" y="200.2" width="17.3" height="17.35" style="fill:#fff"/><rect x="156.5" y="179.9" width="17.3" height="17.34" style="fill:#fff"/><rect x="156.5" y="159.5" width="17.3" height="17.34" style="fill:#fff"/><path d="M173.8,237.9V220.6H156.5v17.3Zm-17.9.7V220h18.6v18.6Z" style="fill:#231f20"/><path d="M173.8,217.6V200.2H156.5v17.4Zm-17.9.6V199.6h18.6v18.6Z" style="fill:#231f20"/><path d="M173.8,197.2V179.9H156.5v17.3Zm-17.9.6V179.3h18.6v18.5Z" style="fill:#231f20"/><path d="M173.8,176.8V159.5H156.5v17.3Zm-17.6.4v-18h17.9v18Z" style="fill:#231f20"/><path d="M156.2,159.2v18h17.9v-18Zm-.3-.3h18.6v18.6H155.9Z" style="fill:#231f20"/><rect x="136.6" y="220.6" width="17.3" height="17.34" style="fill:#fff"/><rect x="136.6" y="200.2" width="17.3" height="17.35" style="fill:#fff"/><rect x="136.6" y="179.9" width="17.3" height="17.34" style="fill:#fff"/><rect x="136.6" y="159.5" width="17.3" height="17.34" style="fill:#fff"/><path d="M153.9,237.9V220.6H136.6v17.3Zm-17.9.7V220h18.5v18.6Z" style="fill:#231f20"/><path d="M153.9,217.6V200.2H136.6v17.4Zm-17.9.6V199.6h18.5v18.6Z" style="fill:#231f20"/><path d="M153.9,197.2V179.9H136.6v17.3Zm-17.9.6V179.3h18.5v18.5Z" style="fill:#231f20"/><path d="M153.9,176.8V159.5H136.6v17.3Zm.3.4H136.3v-18h17.9Z" style="fill:#231f20"/><path d="M136,158.9h18.5v18.6H136Zm.3,18.3h17.9v-18H136.3Z" style="fill:#231f20"/><rect x="116.7" y="220.6" width="17.3" height="17.34" style="fill:#fff"/><rect x="116.7" y="200.2" width="17.3" height="17.35" style="fill:#fff"/><rect x="116.7" y="179.9" width="17.3" height="17.34" style="fill:#fff"/><rect x="116.7" y="159.5" width="17.3" height="17.34" style="fill:#fff"/><path d="M134,237.9V220.6H116.7v17.3Zm.6.7H116.1V220h18.5Z" style="fill:#231f20"/><path d="M134,217.6V200.2H116.7v17.4Zm.6.6H116.1V199.6h18.5Z" style="fill:#231f20"/><path d="M134,197.2V179.9H116.7v17.3Zm.6.6H116.1V179.3h18.5Z" style="fill:#231f20"/><path d="M134,176.8V159.5H116.7v17.3Zm.3.4H116.4v-18h17.9Z" style="fill:#231f20"/><path d="M116.1,158.9h18.5v18.6H116.1Zm.3,18.3h17.9v-18H116.4Z" style="fill:#231f20"/><path d="M171.5,177.1l-5.8-9.2,6.5-4.1h1.5l.2.2.6.9a12.1,12.1,0,0,1,4.1-1.5c1.5-.2,2.7.2,3.2,1h0c.6.9.4,2.1-.5,3.4a11.4,11.4,0,0,1-3.1,3.1l.4.6h0v.6a.1.1,0,0,1-.1.1c0,.1,0,.2-.1.2v.2l-.2.2h-.2Zm-4.2-8.9,4.5,7.3,5.7-3.6-.9-1.4.5-.3a12.2,12.2,0,0,0,3.3-3,2.5,2.5,0,0,0,.5-2.2h0c-.3-.4-1.1-.6-2.2-.4a9.7,9.7,0,0,0-4.1,1.6l-.5.3-1.2-1.8h-.2Zm11.3,3.4Zm-5.6-7.1h0v0Z" style="fill:#fff"/><path d="M86.3,233.3l-8.2-13,.3-.3.2-.2a.3.3,0,0,1,.1-.2l.7-.4,84.5-53.1h.2l.5-.2.3.4,8,12.7-.4.4h-.2L87.1,233h-.8Zm-6.7-12.8,7.2,11.3,84.5-53.1-7.1-11.4-.3.2Zm84.8-54Z" style="fill:#fff"/><path d="M81.9,233.1h-.5l-.2-.2c-.1,0-.1-.1-.2-.2l-4.7-7.4h0v-.3c0-.1.1-.2.1-.3v-.2a.1.1,0,0,0,.1-.1l.2-.3h.2a.1.1,0,0,1,.1-.1l2.6-1.6,5.8,9.2-2.6,1.5h-.8Zm0-1v0Zm-4.5-7.3,4.5,7.1h.2l1.6-1-4.6-7.2-1.5.9h-.2Zm-1.1.3Zm0-.1Z" style="fill:#fff"/><ellipse cx="175.9" cy="168.2" rx="6.5" ry="2.9" transform="matrix(0.85, -0.53, 0.53, 0.85, -62.52, 119.4)"/><path d="M171.7,176.3l5.3-3.4.6-.4h.3a.1.1,0,0,1,.1-.1h0v-.2l-4.4-7v-.2h-.1c0-.1,0-.1-.1-.1h-.7l-.7.4-5.3,3.3Z" style="fill:#66c8c7"/><path d="M164.4,166.5h-.1l-.7.4L79.7,219.7l-.6.4h-.3l7.8,12.3h.2l.7-.4,83.8-52.7.7-.5h.1l-7.7-12.3Z" style="fill:#66c8c7"/><path d="M81.6,232.4h.8l.7-.5,1.4-.8-5.2-8.2-1.4.8-.6.4H77v.2h-.1v.2H77l4.4,7.1h.2Z" style="fill:#66c8c7"/><path d="M186.1,249c1-3.5,1.3-7.1,2.1-10.6a42.9,42.9,0,0,0,1.3-12.8,8.4,8.4,0,0,0-4.1-7.2c-1.7-1.1-4.1-1-6.3-.7A10.7,10.7,0,0,0,177,219l-.5.7h-.1c0,.1-.1.2-.2.3a1.8,1.8,0,0,0-.5.7l-.5.6-.6.7c-.1.1-.2.2-.2.3l-1.3,1.8-.3.3h0a22.2,22.2,0,0,0-2.9,5.5h0l-.5,1.2c0,.1,0,.2-.1.2h-.9c-.2-.2-.3-.4-.2-.6,1.5-4.9,4.5-8.7,7.6-12.5l.2-.3.2-.2,1.5-1.7a25.3,25.3,0,0,0,1.8-3.7c2.7-6.7,1.1-12.2-4.5-16.7a9.4,9.4,0,0,0-2.2-1.2h-1.6l-2.5.2a10.1,10.1,0,0,0-3,1.3,19,19,0,0,0-4,4c-.1.1-.1.1-.1.2l-.9,1.1v.2a10.5,10.5,0,0,1-.8,1.1c0,.1-.1.1-.1.2l-.8,1.2-1.4,2.2-.9,1.5-.4.6-3.2,5.2h0a56,56,0,0,1-4.9,6.8c-.5.6-1.4-.3-.9-.9,5.2-6.1,8.6-13.5,13.4-19.9,1.7-2.1,3.5-4.4,6.1-5.5l1-.3h.8l2-.3h1a3.8,3.8,0,0,0,.9-3.3c-1-3.6-3.5-7-6.9-8.3a22.4,22.4,0,0,0-8.5-1.1c-2.1,0-4.3-.3-6.4-.1H149a16.5,16.5,0,0,0-6.5,3.5c-3.4,3.1-5.2,7.5-6.6,11.7a32.5,32.5,0,0,1-5.1,10.6,12.4,12.4,0,0,1-1.8,2.2l-3.7,4.2c-.4.5-.9,1-1.3,1.6s-.3.3-.4.4-1.1,1.3-1.6,1.9-1.3-.3-.9-.9c3.3-4.3,7.5-7.9,10.4-12.5s3.2-8.7,5.2-12.9a20.6,20.6,0,0,1,7.1-8.9l1.2-.7.3-.2,1-.4.3-.2,2.7-.9,3.3-.6c3.6-3.1,7.4-6.4,8.4-11a24.5,24.5,0,0,0,.2-2.7,8.5,8.5,0,0,0-5.8-6.1,7.5,7.5,0,0,0-4.7.1,70.5,70.5,0,0,0-7.6,3c-9.2,4.2-19.6,10.7-24.3,20.1a1.1,1.1,0,0,0-.1.5c-2.9,5.5-6,10.8-8.6,16.4s-8,11.5-11.3,17.6c-.1.2-4.9,7.6-5,11.6s1.7,7.9,3.2,12.3,4.7,9.3,6.4,14.3,1.9,8.3,2.5,12.6,1.3,9,.7,13.7a21,21,0,0,1-1.5,6.1c-1.2,2.9-3.3,4.4-5.6,6.4s-5.5,5.3-8.1,8-3.2,3.2-4.9,4.7c-3.9,3.3-7.8,6.8-11.4,10.4s-9.4,8.1-7.4,13.5a30.6,30.6,0,0,0,8.9,12.1c8.6,7.1,20.2,11.2,31,13.1,5.7,1,11.9,1.1,17-1.9s8-7.9,11-12.6c1.7-2.7,3.5-5.4,5.4-8l19.8-23,5.7-7.1c4.4-5.7,9-11.1,13-17.1,1.7-2.5,2.4-5.4,3.4-8.3s2.6-6.7,3.1-10.3c.9-5.9-.3-11.7-.3-17.4Z" style="fill:#231f20"/><path d="M114.2,356.4a41.6,41.6,0,0,1-6.7-.6c-8.9-1.6-21.6-5.2-31.2-13.3a29.9,29.9,0,0,1-9.1-12.3c-1.9-5.1,2.8-9.5,6.2-12.8a15.9,15.9,0,0,1,1.3-1.3c3.3-3.3,7-6.7,11.5-10.4,1.7-1.7,3.3-3.2,4.7-4.7l2.1-2.1c2-2,4-4.1,6.2-6l.6-.5c2-1.7,3.7-3.2,4.8-5.6a22.9,22.9,0,0,0,1.4-6c.6-4.8,0-9.2-.6-13.6l-.3-1.9a57.1,57.1,0,0,0-2.2-10.6c-.9-2.4-2.1-4.7-3.2-7a54,54,0,0,1-3.3-7.3c-.2-.7-.5-1.5-.8-2.3A25.8,25.8,0,0,1,93.3,228c0-3.5,3.4-9.4,4.9-11.8h.1a71.8,71.8,0,0,1,5.2-7.9,60.3,60.3,0,0,0,6-9.7c1.8-3.6,3.7-7.1,5.6-10.5l3-5.7a1.3,1.3,0,0,1,.1-.6c4-7.9,12.3-14.7,24.6-20.4a58.7,58.7,0,0,1,7.7-3,7.9,7.9,0,0,1,5-.2,9.1,9.1,0,0,1,6.3,6.6h0a16.4,16.4,0,0,1-.2,2.2,1.3,1.3,0,0,1-.1.6c-.9,4.6-4.4,7.8-8.6,11.3h-.2l-3.2.7a14.3,14.3,0,0,0-2.7.9h-.3l-.9.4h-.4l-1.1.7a19.5,19.5,0,0,0-6.9,8.6,36.3,36.3,0,0,0-1.9,5.2,33.6,33.6,0,0,1-3.4,7.8,57.3,57.3,0,0,1-6.1,7.7c-1.4,1.6-2.9,3.2-4.2,4.9h0a20.3,20.3,0,0,1,1.5-1.8h.1l.3-.4,1.4-1.6,1-1.1,2.7-3,1.8-2.3c2.3-3,3.6-6.2,5-10.3s3.2-8.9,6.7-12a16,16,0,0,1,6.8-3.7h.1v0l1.2-.2h6.6a22.5,22.5,0,0,1,8.8,1.2c3.4,1.2,6.1,4.5,7.3,8.7h0c.1,1.1.1,2.8-1.2,3.7h-1.3l-1.8.3h-.5l-.2.2h-.1l-1,.4a11.9,11.9,0,0,0-4.4,3.4,29.8,29.8,0,0,1,2.8-2.5,12.6,12.6,0,0,1,3.3-1.4h.9l1.7-.2h2.2a6.7,6.7,0,0,1,2,1.2c5.8,4.6,7.4,10.5,4.6,17.3a25.2,25.2,0,0,1-1.8,3.8h-.1A13.4,13.4,0,0,1,177,218l-.4.5h-.3c-3.3,3.9-6.1,7.5-7.5,12.2h0c.2-.4.3-.8.5-1.3h.1a25,25,0,0,1,2.9-5.6h0l.2-.2v-.2l1.3-1.8.2-.3.6-.7h.1l.4-.5.6-.7.8-1a8.3,8.3,0,0,1,2.2-1.4h.2c2.2-.3,4.8-.4,6.7.8s4.1,4.1,4.4,7.7a41.1,41.1,0,0,1-1.3,12.9c-.4,1.5-.6,3-.9,4.5s-.7,4.1-1.3,6.1h0a1.6,1.6,0,0,1-.4.7c.1,1.9.2,3.8.4,5.7a49.1,49.1,0,0,1,0,11.5,38.1,38.1,0,0,1-2.2,7.5c-.3.9-.6,1.9-1,2.8a7.4,7.4,0,0,1-.4,1.4,31.5,31.5,0,0,1-3,7.1c-3,4.5-6.3,8.6-9.5,12.6l-3.6,4.5c-1.1,1.5-2.3,2.9-3.4,4.3l-2.3,2.9-19.8,23-5.3,7.9-.4.6c-2.9,4.6-6,9.3-10.8,12.1A20,20,0,0,1,114.2,356.4ZM153.4,159a7.3,7.3,0,0,0-2.5.4,75.1,75.1,0,0,0-7.6,2.9c-12.1,5.6-20.2,12.3-24,19.9h0v.4l-3.1,5.8c-1.9,3.4-3.8,6.9-5.5,10.5a60.4,60.4,0,0,1-6.2,9.8c-1.8,2.6-3.6,5.2-5.1,7.9v.2c-1.1,1.7-4.8,7.8-4.8,11.1s1.1,6.5,2.3,9.7c.3.8.5,1.6.8,2.4.9,2.4,2.1,4.8,3.2,7.1a58.8,58.8,0,0,1,3.3,7.2,58.1,58.1,0,0,1,2.2,10.7l.3,2c.6,4.4,1.3,8.9.6,13.9a25.4,25.4,0,0,1-1.4,6.2c-1.2,2.8-3.1,4.4-5.2,6.1l-.6.5a83.5,83.5,0,0,0-6,5.9l-2.1,2.1-4.9,4.7c-4.4,3.8-8.1,7.2-11.4,10.4l-1.3,1.3c-3.4,3.2-7.6,7.3-5.9,11.6A28.8,28.8,0,0,0,77,341.6c9.5,7.9,22,11.5,30.7,13,7,1.3,12.4.7,16.6-1.8s7.6-7.4,10.4-11.8l.4-.6c1.6-2.5,3.4-5.1,5.4-8h0c7.9-9,18.6-21.4,19.8-23l2.3-2.8,3.4-4.3,3.6-4.5c3.2-4,6.5-8.1,9.4-12.5a26.5,26.5,0,0,0,2.9-6.9,6.5,6.5,0,0,0,.4-1.3c.4-1,.7-2,1-2.9a36.2,36.2,0,0,0,2.2-7.3,52.4,52.4,0,0,0-.1-11.2c-.1-2-.3-4.1-.3-6.1v-.4l.3-.2h.1a58,58,0,0,0,1.3-6c.2-1.5.5-3,.8-4.6a38.8,38.8,0,0,0,1.3-12.5c-.2-3.3-1.4-5.3-3.8-6.8s-3.8-.9-5.9-.6a5.7,5.7,0,0,0-1.8,1.2l-.7.9-.6.6-.4.5v.2l-.6.7-.2.2-1.2,1.8-.3.4a23.8,23.8,0,0,0-2.9,5.4h0a8.4,8.4,0,0,0-.4,1.2c-.1.1-.1.3-.2.4h-.1l-.3.2h-.7a.9.9,0,0,1-.7-.3,1.1,1.1,0,0,1-.3-1.2c1.5-4.9,4.4-8.7,7.6-12.5l.3-.5h.2l.4-.4a14.7,14.7,0,0,0,1-1.3,29.4,29.4,0,0,0,1.8-3.5c2.5-6.4,1.1-11.6-4.3-16a7,7,0,0,0-2.1-1.1h-3.8a7.9,7.9,0,0,0-2.8,1.2,14.2,14.2,0,0,0-3.8,3.9H162a10.5,10.5,0,0,1-.8,1.1v.2l-.8,1.2-.9,1.3-1.4,2.2-.9,1.4-1.3,2.2c-.8,1.2-1.6,2.5-2.3,3.8a67.8,67.8,0,0,1-5,6.8,1.1,1.1,0,0,1-1.6.1,1.4,1.4,0,0,1-.1-1.8,79.4,79.4,0,0,0,7.4-10.8c1.9-3,3.8-6.2,6-9s3.4-4.5,6.2-5.7l1-.4h1.1l1.9-.4h.8a3.2,3.2,0,0,0,.6-2.6c-1-3.7-3.5-6.7-6.5-7.8A22.3,22.3,0,0,0,157,181h-7.9a15,15,0,0,0-6.2,3.5c-3.3,2.9-5,7.2-6.4,11.4s-2.8,7.6-5.2,10.7l-1.8,2.3c-.9,1.1-1.9,2.1-2.8,3.1l-.9,1.1-1.4,1.5-.4.5h0l-1.5,1.8a1.1,1.1,0,0,1-1,.5,1.6,1.6,0,0,1-1-.8,1.3,1.3,0,0,1,.2-1.3c1.3-1.7,2.8-3.3,4.2-4.8A63.4,63.4,0,0,0,131,203a39.4,39.4,0,0,0,3.2-7.6,54.4,54.4,0,0,1,1.9-5.2,22.3,22.3,0,0,1,7.3-9.2l1.3-.7h.4l1-.5h.3a13.1,13.1,0,0,1,2.8-.9l3.1-.7c3.9-3.3,7.2-6.4,8.1-10.5a1.3,1.3,0,0,1,.1-.6,12.8,12.8,0,0,0,.1-1.9,8.1,8.1,0,0,0-5.4-5.7A5.5,5.5,0,0,0,153.4,159Zm1,51.2a79.7,79.7,0,0,1-6.7,9.7h0a54,54,0,0,0,4.8-6.7Zm5.7-8.9c-.9,1.3-1.8,2.6-2.6,4a9.9,9.9,0,0,1,.9-1.5l.9-1.3Z" style="fill:#fff"/></svg>