<svg xmlns="http://www.w3.org/2000/svg" viewBox="0 0 504 504"><title>illustr--v_1</title><path d="M397,102.6c-2.2-1.1-4.3-1.7-10.2-1.7H123.6c-5.8,0-8,.6-10.1,1.7a12,12,0,0,0-5,5c-1.2,2.2-1.8,4.3-1.8,10.2V380.9c0,5.9.6,8.1,1.8,10.2a11,11,0,0,0,5,5c2.1,1.2,4.3,1.8,10.1,1.8H386.8c5.9,0,8-.6,10.2-1.8a12,12,0,0,0,5-5c1.1-2.1,1.7-4.3,1.7-10.2V117.8c0-5.9-.6-8-1.7-10.2A13.3,13.3,0,0,0,397,102.6Zm5.1,278.3c0,6-.7,7.8-1.6,9.4a9.4,9.4,0,0,1-4.3,4.3c-1.7.9-3.4,1.6-9.4,1.6H123.6c-5.9,0-7.7-.7-9.3-1.6a9.6,9.6,0,0,1-4.4-4.3c-.8-1.6-1.5-3.4-1.5-9.4V117.8c0-6,.7-7.7,1.5-9.4a10.2,10.2,0,0,1,4.4-4.3c1.6-.9,3.4-1.6,9.3-1.6H386.8c6,0,7.7.7,9.4,1.6a9.9,9.9,0,0,1,4.3,4.3c.9,1.7,1.6,3.4,1.6,9.4Z" style="fill:#afadad"/><path d="M482,362.3c8-14,8-30.3,2.1-44.8a3.3,3.3,0,0,0-2.5-1.9c-12.1-2.3-24.3-4.7-36.2-8-10.4-3-19.8-7.4-27.9-14.7-6.4-5.9-12.7-11.5-20.2-16.1a111.1,111.1,0,0,0-24.2-10.6c-4.9-1.6-9.8-3.1-14.3-5.6s-7.6-5-11.8-6.7a83.1,83.1,0,0,0-12.3-3.6c-3.9-1.5-7.6-3.3-11.6-4.2-2.5-.6-4.4.6-5.7,2.6s-2.4,3.1-2.2,6.1c.5,6.4,5.6,11.5,10.4,15.2a95,95,0,0,0,12.2,7.5c5.1,2.6,14.7,4.6,15.4,11.3-5.9,4.4-12.4,10.3-19.5,13l.5.9a8,8,0,0,1,.5,2.1,6.2,6.2,0,0,1,.1,1.3v.2c0,.4-.1.9-.1,1.4h0a11,11,0,0,1,5-2.3,1.1,1.1,0,0,1,1,.3A13.7,13.7,0,0,1,351,316.6h0c0,.1.1.3,0,.5l-.6,1.9h0c-1.9,6-5.1,12.8-3.4,18.9,2.1-6,5.1-11.6,8.1-17.3v-.2l.3-.3c4-3.1,8.8-2.9,12,.2l.5.5a.2.2,0,0,0,.2.2l.3.5.3.4.3.4.5.9.6,1.5a.3.3,0,0,1,.1.2l.3,1.4v.3a7.7,7.7,0,0,1,.2,1.5h0a7.6,7.6,0,0,1-.1,1.5v.2a7.7,7.7,0,0,1-.2,1.5.3.3,0,0,1-.1.2,9.4,9.4,0,0,1-.4,1.6h0a7.5,7.5,0,0,1-.5,1.6h0l-.6,1.5-1.2,2.3h.3a17.6,17.6,0,0,0,7.9-.4c.7-.3,1.1.3,1.2.9H377v.2a.1.1,0,0,1-.1.1v.2h-.4l-1.1.4h-3.6l2.5,1.9.5.4.9.7.3.3,1.1,1.2.4.3.7.9.4.5.7.8.3.5.7.9.3.4.9,1.4a.4.4,0,0,1,.1.3h0c.1.1,0,.2,0,.3h0c0,.1-.1.2-.1.3s-.1,0-.1.1h-.1l-.3.2a.8.8,0,0,1-1.1-.3,30.7,30.7,0,0,0-8.2-9h-.1l-.5-.3-.5-.3-1.3-.8-.5-.3-.5-.3H368l-1.1-.5h-.2a17.8,17.8,0,0,1-1.7,2.7c.1,2.4.8,4.7,1.1,7.1h0a2.2,2.2,0,0,0,.1.8v.9a.8.8,0,0,1-.1.4h0l-.2.3h-1.1a.7.7,0,0,1-.5-.7,17.3,17.3,0,0,0-.3-3.2h0c-.1-.7-.3-1.4-.4-2.1a4.3,4.3,0,0,1-.1-.5c0-.2-.1-.4-.1-.6s-.1-.6-.1-.8a4.3,4.3,0,0,0-.1-.5c0-.5-.1-.9-.1-1.4s.1-.1.1-.2h.1v-.2c.5-.7,1-1.4,1.4-2.1h0A15.9,15.9,0,0,0,366,338h.1a20.5,20.5,0,0,0,2.8-10.1c-.3-4.5-3.3-7.5-6.9-7.8h0a2.4,2.4,0,0,0-1.2,0h-.2l-1,.2h-.3l-.9.4h-.3l-1,.6a.1.1,0,0,0-.1.1h-.3a15.1,15.1,0,0,1-1.1,2.2l-.3.5a4.7,4.7,0,0,1-.5,1,.8.8,0,0,0-.2.5,3.1,3.1,0,0,0-.5,1l-.3.4a11.7,11.7,0,0,0-.5,1.1l-.2.3-.5,1.1-.2.3a6.1,6.1,0,0,0-.5,1.2.3.3,0,0,0-.1.2l-.6,1.3h-.1a56.4,56.4,0,0,0-4.2,13.4h-.1v.5a.3.3,0,0,0-.1.2c-.7,5.3,4.4,10.5,7.5,14.6,5.8,4.2,12.8,7.1,19.4,7.3a.8.8,0,0,0,.7-.4c13.5.5,26.1-6.3,39.6-6a73.9,73.9,0,0,1,11.3,1.3c12.3,4.6,24.7,9.3,36.6,15a5.6,5.6,0,0,0,5.6-.6C473.1,373.8,478.3,368.8,482,362.3Zm-80.6-40.4c-7.5,2.5-15.3,5.1-20.3,11.7-.6.8-1.6,0-1.5-.8v-.2l.2-.3c5.1-6.8,13.2-9.6,21.1-12.2h.7l.2.2h.1A1,1,0,0,1,401.4,321.9Z" style="fill:#333031"/><path d="M304,331.3a28.1,28.1,0,0,1-.1-2.9v-.7c0-.4.1-.7.1-1.1v-.8a3.8,3.8,0,0,0,.1-1,3.1,3.1,0,0,0,.1-1c.1-.3.1-.6.2-.9a3.6,3.6,0,0,1,.2-1c0-.3.1-.5.1-.8a5.6,5.6,0,0,1,.4-1.2c0-.2.1-.5.1-.7l.6-1.9c.3-.8.6-1.6,1-2.5l.6-1.9.3-.6c.2-.7.5-1.3.7-2s.1-.3.2-.4.6-1.6,1-2.5a23,23,0,0,0-8.5,2.8,53,53,0,0,0-5.5-1,5,5,0,0,0-3.2.4c-5.8-2.5-12.4-3.3-16.8,2-1.5,1.7-2.6,4.1-1.7,6.4a4.8,4.8,0,0,0,1.5,2.2h0a30.5,30.5,0,0,0,8.1,6.3,17.4,17.4,0,0,0,8.2,4.5c3.4.8,8.5,2.6,12.5,2.4-.1-.7-.1-1.4-.2-2.1Z" style="fill:#333031"/><path d="M326.6,324.7c2.1-4.6,3.5-10,6.1-14.4,0-2.7.6-5.2-.8-7.8a12.8,12.8,0,0,0-5.8-5.2,8.8,8.8,0,0,0-4.5-.4c-3.1.7-5.1,3.5-7,5.8l-1,1.2-.9,2.1c-1.9,4.1-3.9,8.4-5.4,12.7h0l-.7,2.2c-.1.6-.3,1.2-.4,1.8v.2a33.6,33.6,0,0,0,0,11.4c1.8,2.9,3.9,5.5,7.2,6.5l.5.3a17.7,17.7,0,0,0,5.6.9,41.4,41.4,0,0,1,1.3-4.3v-.2C322.4,333.1,324.6,328.9,326.6,324.7Z" style="fill:#333031"/><path d="M349.3,358.3a28.8,28.8,0,0,1-3-4.7,11.5,11.5,0,0,1-1.4-7,.4.4,0,0,1,.1-.3c.3-1.8.7-3.6,1.1-5.3a14.3,14.3,0,0,1-1.1-3.9,12.4,12.4,0,0,1-.3-2.7v-.6c0-.2.1-.5.1-.7v-.6a2.2,2.2,0,0,0,.1-.8c0-.2.1-.5.1-.7a5.2,5.2,0,0,0,.2-1.1,6.4,6.4,0,0,1,.2-.7,2.4,2.4,0,0,1,.2-.8c.9-3.9,2.5-7.7,3.5-11.4l-.3-1.2h0l-.6-1.4h0a10.4,10.4,0,0,0-1.5-2.5.1.1,0,0,1-.1-.1l-.9-1h-.2l-1-.9h-.2l-1.2-.7h-.2l-1.3-.6h-.2l-1.5-.4h-.2l-.8.2h-.1l-.8.3h-.1a7.8,7.8,0,0,0-3.3,3.2.7.7,0,0,1-.4.6c-.4.7-.7,1.5-1.1,2.4-1.7,3.7-3.2,7.6-4.9,11.3l-1.5,3.2c-2.5,5.2-5.1,10.5-5.8,16.1.6,2.7,2.1,5.4,4.7,8.5l.3.3h.1c4.1,2.8,8.7,3.1,13.4,4.1s7.9,2.3,12,3.2l-2.1-2.6Z" style="fill:#333031"/><path d="M195.2,208.7h.1a51.5,51.5,0,0,1,6.8,1.5l1.6.8,2.3,1c2.4,1.4,4.6,3.2,7,4.8l4.5,3.2,3.1,3.1.3.3c2,2.3,3.8,4.7,5.9,6.9a24,24,0,0,0,6.4,5,43.4,43.4,0,0,0,5,2,12.9,12.9,0,0,1,1.8,1.6c-5.6-.3-11.2-.6-15-5.4s-6.8-8.8-12.3-10.6a18,18,0,0,0-14.2.6.5.5,0,0,1-.5-.5,28.2,28.2,0,0,0-1-5.8c-.6-2.5-.8-5.1-1.6-7.6h0A.6.6,0,0,1,195.2,208.7Z" style="fill:#66c8c7"/><path d="M224.7,233.8c-3.3-4.3-6.7-8.6-12.1-10.4s-10-1.5-13.9.5h-.2a.9.9,0,0,1-1-1,29.7,29.7,0,0,0-1-5.7l-.6-3.1a20.7,20.7,0,0,0-1-4.3,1.2,1.2,0,0,1-.1-1.4l.2-.3h.3a46.8,46.8,0,0,1,7,1.6h0l1.6.7,2.1,1h.2a30.7,30.7,0,0,1,4.2,2.8l2.8,2a40,40,0,0,1,4.6,3.2h0l1.5,1.5,1.6,1.5.4.4h0l2.1,2.5c1.2,1.4,2.4,3,3.8,4.4a21.7,21.7,0,0,0,6.2,4.8,35,35,0,0,0,4.9,2h.2a15.4,15.4,0,0,1,1.9,1.7l.6.9h-1.1l-5-.4C231,238.5,227.4,237.3,224.7,233.8Zm13.3,3.9a38.9,38.9,0,0,1-5.1-2,23.3,23.3,0,0,1-6.4-5q-2.1-2.2-3.9-4.5l-2-2.4c-.1-.2-.3-.3-.4-.4l-1.6-1.5-1.5-1.5a36.1,36.1,0,0,0-4.4-3.2,28.3,28.3,0,0,1-2.8-2c-1.4-1-2.7-2-4.1-2.8h-.1l-2.2-1-1.6-.7a33.6,33.6,0,0,0-6.1-1.4h0v.2h.1c.4,1.5.7,3,1,4.5a17,17,0,0,0,.6,3.1,30.1,30.1,0,0,1,.9,5.9h0c4.2-2.1,9.3-2.3,14.5-.6s9.1,6.4,12.5,10.8,8.2,4.8,13.4,5.2Z" style="fill:#fff"/><path d="M252.4,239.9a20.3,20.3,0,0,0,5.5-.8h.2a16.7,16.7,0,0,0,5.3-2.4,7.6,7.6,0,0,0,2.9-9.6c-2.3-4.9-8.6-6.7-12.8-9.3s-9.4-8.6-13.6-13.3-6.8-8.7-10.5-12.8h.1l.2-.2a29.6,29.6,0,0,1,7.2-.9c2.9-.2,5.7-1.1,8.5-1.6,5.9-1.1,11.8-2.3,17.6-2.9s11.9-1.3,17.7-2.3,12.5-1.6,18.8-2.5c11.8-1.6,23.8-2.8,35.8-2.4l9.1.2c3.2,0,6.2-.9,9.4-1.3s4.9-1.2,7.1-.9,2.4,1.6,2.8,3.2c2.8,11.3,6.8,22.7,7.6,34.4.4,5.7.1,11.5,0,17.3,0,2.8,0,5.7-.1,8.6s-.4,6.2-.4,9.3c0,1.1.1,2.5-1,3.2s-4.4.5-6.3.4-5.7-.2-8.5-.5-6.2-1-9.4-1.2c-12.3-1-24.6-2.4-36.9-4.1l-10.4-1.5c-3.4-.4-6.9-.6-10.3-1.1l-9.9-1.1L268,242.6h-2.1l-14.8-2.3Z" style="fill:#66c8c7"/><path d="M265.8,243l-8.6-1.3-6.2-1-3-.5,3-.5,1.3-.3h.1a19.1,19.1,0,0,0,5.4-.8h.2a14,14,0,0,0,5.1-2.3,7,7,0,0,0,2.7-9c-1.6-3.4-5.3-5.3-8.9-7.1-1.3-.6-2.5-1.3-3.7-2-4.5-2.7-8-6.8-11.4-10.7l-2.3-2.7c-1.8-2-3.6-4.3-5.3-6.4s-3.3-4.3-5.2-6.4l-.6-.8h.9l.3-.2a35.1,35.1,0,0,1,6.5-.9h.8a48.6,48.6,0,0,0,5.5-1l3-.6,2.7-.5c4.9-.9,9.9-1.9,14.9-2.4,6.6-.7,12.4-1.4,17.7-2.3s7.6-1.1,11.4-1.5l7.3-.9c9.8-1.4,22.7-2.9,35.9-2.5h9.1a26.8,26.8,0,0,0,5.6-.7l3.7-.6,2.4-.4a16,16,0,0,1,4.8-.5c2.2.3,2.9,1.9,3.3,3.6s1.6,6,2.4,8.9c2.3,8.3,4.6,16.9,5.2,25.5.3,4.6.2,9.3.1,13.8-.1,1.2-.1,2.4-.1,3.6V236c0,1.4,0,2.9-.1,4.3s-.1,2.9-.2,4.2-.2,3.4-.2,5v.2c0,1.2,0,2.8-1.2,3.5s-3.5.8-5.3.6h-2.9c-2.3-.1-4.6-.2-6.9-.5l-4.1-.5c-1.7-.2-3.5-.5-5.3-.6-12.7-1.1-25.2-2.5-37-4.1l-6.2-.9-4.1-.6-5.2-.5-5.2-.6-7.7-.9-2.2-.2-3.9-.4-6.1-.7h-2.2Zm22.2,1.3,5.2.6c1.7.2,3.5.3,5.2.6l4.1.5,6.3.9c11.7,1.7,24.2,3,36.9,4.1l5.4.6,4,.6,6.9.4h2.9c1.6.2,3.5.4,4.7-.4s.7-1.6.7-2.7h0c0-1.7.1-3.5.2-5.1l.3-4.2v-8.6c0-1.2.1-2.5.1-3.7.1-4.4.2-9.1-.1-13.6-.5-8.6-2.9-17.1-5.2-25.4l-2.4-8.9c-.4-1.6-.9-2.6-2.3-2.8h-.1a14.5,14.5,0,0,0-4.5.5l-2.5.4-3.6.6a27.1,27.1,0,0,1-5.8.7h-9.1c-13.1-.4-26,1.1-35.8,2.4-2.4.4-4.9.6-7.3.9l-11.4,1.5c-5.2.9-11,1.7-17.7,2.4-4.9.5-10,1.4-14.8,2.3l-2.8.5-2.9.7a50.3,50.3,0,0,1-5.6,1h-.8a30.9,30.9,0,0,0-6,.8c1.7,1.9,3.3,3.9,4.8,5.9s3.4,4.3,5.2,6.4l2.3,2.6c3.4,3.9,6.9,7.9,11.2,10.6a32,32,0,0,0,3.7,1.9c3.7,1.9,7.6,3.9,9.3,7.6a8.2,8.2,0,0,1-3,10.3,17.6,17.6,0,0,1-5.4,2.3l-.2.2a20.2,20.2,0,0,1-3.4.6l2.7.5L266,242h.1l1.9.2,6.3.6,3.8.5,2.2.2,7.6.8Z" style="fill:#fff"/><path d="M215.6,167q2.8,1.5,5.7,3.3l3.4,1.7a82.9,82.9,0,0,1,6.8,4.8c2.2,1.6,4.5,3.4,6.6,5.2s2.3,1.5,3.3,2.5a13.1,13.1,0,0,1,1.9,2.7v.5a122.2,122.2,0,0,1-14.8,1.9l-1.3-2.6a36.2,36.2,0,0,0-2.2-3.2,30.6,30.6,0,0,1-2.9-5.3,26.7,26.7,0,0,0-3.9-6.5,17.1,17.1,0,0,0-2.1-2.6,6.7,6.7,0,0,1-1.4-1.5C214.6,167.4,215.1,166.8,215.6,167Z" style="fill:#333031"/><path d="M244,240.7c3.3,0,6.9.9,10.2,1.4l5.3.7c1.8.3,3.8.9,5.6.6h.2a4.9,4.9,0,0,1,.1,1.2h0c-.1.4-.1.7-.2,1.1s-.7,2.2-.9,3.3h0a9.2,9.2,0,0,1-2.3,2.7c-2.3,1.9-4.7,4-7.7,4.8a19.6,19.6,0,0,1-4.3.4,38.1,38.1,0,0,1-4.8.1,5.5,5.5,0,0,1-4.9-4.1C239.2,249.7,238.6,240.7,244,240.7Z" style="fill:#333031"/><path d="M167.3,214.5c1.4-2.4,4-4.9,6.9-5,4.6-.3,7.6,2.1,11.2,4.6a43.5,43.5,0,0,1,10.3,9.8v.2l.2.2c-1.9.8-2.9,2.8-3.4,4.9l-.3.8a6.6,6.6,0,0,0,.2,5.8l.6,1a22,22,0,0,0,4.8,6.9,104.4,104.4,0,0,0,9.7,9.1,21.4,21.4,0,0,0,4.4,3,1,1,0,0,0,.5.4,10,10,0,0,0,2.8,1.7c0,.1,0,.1.1.1h.3a1.3,1.3,0,0,1,.3,1.8,1.6,1.6,0,0,1-.4.7l-2.6,1.4a14.8,14.8,0,0,1-5.9,1.6,40.9,40.9,0,0,1-6-.7,11.8,11.8,0,0,1-3.5-1.1c0-.1-.2-.1-.3-.2l-.7-.3-.3-.3a51.7,51.7,0,0,0-5.6-4.9,18.4,18.4,0,0,1-2.2-1.7l-1.2-1.1-1.9-1.7A75.1,75.1,0,0,1,178,244l-1.4-1.8-.9-1.4a56.5,56.5,0,0,1-3.8-5.7c-1.9-3.3-3.5-6.8-5.3-10.2a31,31,0,0,1-1.1-4.6A12.3,12.3,0,0,1,167.3,214.5Z" style="fill:#333031"/><path d="M156.8,238.4a50.1,50.1,0,0,1-2.9-6.7l-.6-2.1a17.2,17.2,0,0,1,.6-6.4l.8-1.8.7-1.5c1.4-1.6,3.4-2.1,5.6-2.4h.5a3.8,3.8,0,0,1,2.8.5,31.5,31.5,0,0,0,2.1,9.4h.1a58.2,58.2,0,0,0,6.8,11.8h.1q1.9,2.9,4.2,5.7a83.9,83.9,0,0,0,7.1,7.5l1.3.9,1,.9.9.7,1.5,1.3c1.8,1.3,3.4,2.8,5.1,4.1s2,2.2,1.8,3.7a4.5,4.5,0,0,1-2.4,1.7,17,17,0,0,1-7,1.9,9,9,0,0,1-5.6-1.4,59.1,59.1,0,0,1-6.6-4.5c-4-3.2-7.5-6.3-10.3-10.7a110.2,110.2,0,0,1-6.1-10.5Z" style="fill:#333031"/><path d="M189.4,215.5a23.9,23.9,0,0,0-7.5-5.5l.5-.2h1a52.7,52.7,0,0,1,10.5-.3c.7,4.6,2.1,9.1,3,13.7A88.5,88.5,0,0,0,189.4,215.5Z" style="fill:#333031"/><path d="M199.2,202.7h.4c.5-.1,55.5-14.9,145.1-19.2h.4v.4a17.6,17.6,0,0,0,1.5,4.4c3.2,6.7,9.7,10.7,15.3,9.6h.4v.4c2.3,8.8,4.9,22.2,4.2,35.5v.4h-.4c-9.5-1.2-17.9,4.1-19.3,12.2v.4h-.4c-28.4-4.3-84.4-12-140.5-14.2h-.3ZM346,245.6c1.7-8.2,10.2-13.6,19.8-12.6.6-12.8-1.9-25.7-4.1-34.5-5.9,1-12.5-3.2-15.8-10.1a16.2,16.2,0,0,1-1.5-4.2C259,188.3,205.2,202,200.2,203.3l6,28.1c44,1.8,87.9,6.8,118.4,11.1C332.8,243.6,340,244.6,346,245.6Z" style="fill:#fff"/><path d="M219.1,258.5l-2.3-.9a69.3,69.3,0,0,1-9.3-6.8l-2.5-2.2c-1.8-1.6-3.5-3.3-5.2-5s-2.9-3.2-4.4-4.8l-1.7-2.1a7.4,7.4,0,0,1-.8-3.9,9.4,9.4,0,0,1,4.3-7.5,11.4,11.4,0,0,1,5.3-2.1c3.2-1.3,7.6-.7,10.5.8a21.4,21.4,0,0,1,5.5,3.5,66.2,66.2,0,0,1,5.4,6.3c1.6,1.9,3.1,4.4,5.8,4.9s6.2.9,9.2,1.3a.7.7,0,0,1,.6.7h0a14.2,14.2,0,0,0-.8,1.8,6.7,6.7,0,0,0-.9,3.1,15.4,15.4,0,0,0,1.7,10.2c-1.4,1.9-5.4,1.9-7.2,2.3s-4.8.8-7.3,1A14.5,14.5,0,0,1,219.1,258.5Z" style="fill:#333031"/><path d="M350.8,184.8h0l-.9.5-.2-.8,1.2-.6h.8l.2,5.2h-1Z" style="fill:#fff"/><path d="M356.1,186.2c0,1.7-.6,2.7-1.8,2.8s-1.9-1-1.9-2.6.6-2.7,1.8-2.7S356,184.7,356.1,186.2Zm-2.7.2c0,1.2.4,1.9.9,1.8s.8-.7.8-1.9-.3-1.9-.9-1.9S353.3,185.1,353.4,186.4Z" style="fill:#fff"/><path d="M360.1,186.1c.1,1.7-.5,2.7-1.8,2.8s-1.8-1.1-1.9-2.6.6-2.7,1.8-2.7S360.1,184.6,360.1,186.1Zm-2.7.1c.1,1.3.4,1.9,1,1.9s.8-.7.8-1.9-.4-1.9-1-1.9S357.4,185,357.4,186.2Z" style="fill:#fff"/><path d="M354.3,241.9h0l-1,.4v-.7l1.3-.5h.8l-.4,5.1H354Z" style="fill:#fff"/><path d="M359.4,244c-.1,1.6-.9,2.6-2.1,2.5s-1.7-1.2-1.6-2.8.9-2.6,2.1-2.5S359.5,242.5,359.4,244Zm-2.7-.2c-.1,1.3.2,1.9.7,2s.9-.6,1-1.9-.1-1.9-.7-1.9S356.8,242.5,356.7,243.8Z" style="fill:#fff"/><path d="M363.5,244.4c-.2,1.6-.9,2.6-2.1,2.5s-1.8-1.3-1.6-2.8.9-2.6,2.1-2.5S363.6,242.8,363.5,244.4Zm-2.8-.2c-.1,1.2.2,1.9.8,1.9s.9-.6,1-1.8-.1-1.9-.7-2S360.8,242.9,360.7,244.2Z" style="fill:#fff"/><path d="M276.1,213.7h0c-.1-10.2,6.1-18.6,13.8-18.7s14.1,8.3,14.1,18.5a21.7,21.7,0,0,1-3.9,13.2c-2.6,3.6-6.1,5.6-9.9,5.6h-1.5C281.7,231.2,276.1,223.3,276.1,213.7Zm13.8-17.1c-6.8,0-12.3,7.7-12.3,17.1h0c.1,9.5,5.7,17.1,12.6,17,3.2,0,6.3-1.8,8.6-5a20.2,20.2,0,0,0,3.7-12.1c-.1-8.9-5-16.1-11.3-16.9Z" style="fill:#fff"/><rect x="246.2" y="213.1" width="19.1" height="1.57" transform="translate(-1.6 1.9) rotate(-0.4)" style="fill:#fff"/><rect x="246.2" y="208.8" width="19.1" height="1.57" transform="translate(-1.6 1.9) rotate(-0.4)" style="fill:#fff"/><rect x="246.3" y="217.4" width="19.1" height="1.57" transform="translate(-1.6 1.9) rotate(-0.4)" style="fill:#fff"/><rect x="312.7" y="212.6" width="19.1" height="1.57" transform="translate(-1.6 2.4) rotate(-0.4)" style="fill:#fff"/><rect x="312.7" y="208.3" width="19.1" height="1.57" transform="translate(-1.6 2.4) rotate(-0.4)" style="fill:#fff"/><rect x="312.8" y="216.9" width="19.1" height="1.57" transform="translate(-1.6 2.4) rotate(-0.4)" style="fill:#fff"/><path d="M46.4,221.4c4.4-.1,8.7-.5,13.1-1,9.2-1,18.4-2.2,27.6-2.8a113.1,113.1,0,0,1,15.4.2c4.8.4,10.5.6,14.6,3.5s6,5.4,9.6,7.4,7.8,4.2,11.7,6.2,8.6,3.6,12.3,6.2c1.6,1.1,5,3.9,7,2.2a.8.8,0,0,0,.2-.5,11.3,11.3,0,0,0-1.2-2.1,16,16,0,0,1-1.6-2.3H155l-.5-.9a20.2,20.2,0,0,1-2.2-10.8,19.7,19.7,0,0,1,1.3-5.6,6.5,6.5,0,0,1,3.5-4.1,7.1,7.1,0,0,1,3.2-1c2.9-.3,4.1.5,5.4-1.1s1.8-3.4,3.5-4.5a.5.5,0,0,0,.2-.7h0a72.4,72.4,0,0,1-23.9-4.6c-5.1-1.9-13.4-4.9-13.7-11.4-.1-.6.9-.7.9-.1h0l.3.2c1.3,4,3.9,6.1,8.1,8.2a47.7,47.7,0,0,0,5.2,2.2,62.2,62.2,0,0,0,10.3,2.6l6.3.8,3.6.5,3,.4h.2l3.3.3a79.7,79.7,0,0,0,13.8-.5,26.6,26.6,0,0,1,6.3-.3c2.9.3,5.9.7,8.9,1.3h0l4.8,2.7c3,1.7,5.7,3.8,8.6,5.7a36.7,36.7,0,0,1,7.3,6.9,76.8,76.8,0,0,0,6.1,6.7,14.8,14.8,0,0,0,2.7,1.9,17.4,17.4,0,0,0,5.3,2.6l1.6.8,1,.4a16.6,16.6,0,0,0,2.9,1c5.4,1.1,10.3,2,15.2.6a14.3,14.3,0,0,0,4.4-1.9,9.1,9.1,0,0,0,2.4-2l.7-.8a6.3,6.3,0,0,0,.8-5,1.9,1.9,0,0,0-.2-.7,6.5,6.5,0,0,0-1.1-2.2c-2.3-2.9-6.2-4.4-9.3-6.1a40.1,40.1,0,0,1-8.1-5.9l-2.6-2.6-3-4.1c-2.6-3.3-5.4-6.3-8.2-9.5s-3.1-3.8-4.8-5.7l-.4-.5c-1.1-1.4-1.7-2.9-2.7-4.3s-1.8-2.4-2.6-3.7-2.7-5.9-4.4-8.7a32.3,32.3,0,0,0-4.6-5.9,16.8,16.8,0,0,0-6.5-4.3c-3.5-1.2-6.7-2.9-10.1-4.3s-6.7-2.3-10-3.3c-6.6-2-13.1-3.6-19.6-5.7a75,75,0,0,0-19.9-4.1,67.9,67.9,0,0,0-9,.5c-3.8.3-7.6,0-11.4,1.1a35.5,35.5,0,0,1-6.5,1.2c-3.6.3-7.1,1.3-10.6,1.8s-6.4.2-9.6.6-7,.5-10.6.6c-1.8.1-3.6.1-5.4.3a17.2,17.2,0,0,1-4.5.2l-32.4-6.6s-6.4,23.2-6.4,36.4S46.4,221.4,46.4,221.4Z" style="fill:#333031"/></svg>