<svg xmlns="http://www.w3.org/2000/svg" viewBox="0 0 598.8 598.8"><title>illustr--Artboard 16 copy 2</title><path d="M444.7,148.9c-2.1-1.1-4.3-1.7-10.2-1.7H171.4c-5.9,0-8,.6-10.2,1.7a13.3,13.3,0,0,0-5,5c-1.1,2.2-1.7,4.3-1.7,10.2V427.3c0,5.8.6,8,1.7,10.1a12,12,0,0,0,5,5c2.2,1.2,4.3,1.8,10.2,1.8H434.5c5.9,0,8.1-.6,10.2-1.8a11.5,11.5,0,0,0,5-5c1.1-2.1,1.8-4.3,1.8-10.1V164.1c0-5.9-.7-8-1.8-10.2A12.7,12.7,0,0,0,444.7,148.9Zm5.1,278.4c0,5.9-.7,7.7-1.6,9.3a10.2,10.2,0,0,1-4.3,4.4c-1.6.8-3.4,1.5-9.4,1.5H171.4c-6,0-7.7-.7-9.4-1.5a10.2,10.2,0,0,1-4.3-4.4c-.9-1.6-1.6-3.4-1.6-9.3V164.1c0-6,.7-7.7,1.6-9.4a9.9,9.9,0,0,1,4.3-4.3c1.7-.9,3.4-1.6,9.4-1.6H434.5c6,0,7.8.7,9.4,1.6a9.9,9.9,0,0,1,4.3,4.3c.9,1.7,1.6,3.4,1.6,9.4Z" style="fill:#afadad"/><path d="M546.8,375.6c8.6-17.6,7.5-37.3-.8-54.4a3.9,3.9,0,0,0-3.1-2.2c-14.9-1.9-29.9-3.9-44.5-7-12.9-2.8-24.6-7.4-34.9-15.7-8.2-6.7-16.3-13-25.7-17.9a128.9,128.9,0,0,0-30-11.1c-6.1-1.6-12.2-3.1-17.8-5.8s-9.6-5.4-14.8-7.1a93.4,93.4,0,0,0-15.2-3.5c-4.8-1.6-9.4-3.4-14.4-4.3-3-.5-5.3,1.2-6.7,3.6s-2.6,4-2.1,7.6c1.1,7.7,7.6,13.5,13.7,17.6a97.8,97.8,0,0,0,15.3,8.2c6.4,2.7,18.2,4.4,19.5,12.5-6.8,5.8-14.2,13.4-22.7,17.2l.7,1.1a8.1,8.1,0,0,1,.8,2.5c.1.6.1,1.1.2,1.6v1.8h0c1.6-1.7,3.6-2.4,5.9-3.1a1.1,1.1,0,0,1,1.2.3c6.8,1.3,11.4,5.7,13.3,12.4h0a1.5,1.5,0,0,1,.1.7l-.6,2.4h0c-1.9,7.5-5.3,15.9-2.7,23.2,2.1-7.4,5.3-14.4,8.5-21.6.1,0,.1-.1.2-.2a.5.5,0,0,1,.3-.4c4.6-4.1,10.3-4.2,14.5-.6l.6.6a.2.2,0,0,1,.2.2l.5.6c.2.1.3.3.4.4l.4.5.7,1.1a8.9,8.9,0,0,1,.8,1.7.3.3,0,0,1,.1.2,15.4,15.4,0,0,1,.5,1.7c0,.1.1.2.1.3a11,11,0,0,1,.2,1.8h0a10.9,10.9,0,0,1,.1,1.8v.2a11.1,11.1,0,0,1-.2,1.9v.3a11.6,11.6,0,0,1-.4,1.8h0a14.6,14.6,0,0,1-.5,2h0a10.7,10.7,0,0,1-.7,1.9l-1.2,2.9h.4a19.3,19.3,0,0,0,9.5-1.1,1.1,1.1,0,0,1,1.5,1v.4h0a.4.4,0,0,0-.1.3c-.1,0-.1,0-.1.1l-.4.2-1.3.5-.7.2h-.6l-.9.2h-2.2a22,22,0,0,1,3.2,2.1l.6.4,1.1.9.4.3,1.5,1.3.4.4,1,1,.5.5.9,1,.5.5.8,1.1a1,1,0,0,1,.4.5l1.2,1.6a.8.8,0,0,1,.2.4h0v.3h0c0,.1-.1.2-.1.3H424l-.4.2a1,1,0,0,1-1.3-.3,36.8,36.8,0,0,0-10.6-10.2h-.1l-.7-.4-.6-.3-1.7-.9-.6-.3-.6-.3h-.2l-1.5-.6h-.2q-.9,1.8-1.8,3.3c.2,2.9,1.3,5.7,1.8,8.5h0c0,.3.1.6.1.9s.1.7.2,1.1-.1.3-.1.5h0c-.1.2-.1.3-.2.3s0,.1-.1.1l-.2.2h-1.1a.9.9,0,0,1-.6-.8,23.2,23.2,0,0,0-.6-3.8h0c-.2-.9-.5-1.7-.7-2.6s-.1-.4-.1-.6a6.4,6.4,0,0,1-.2-.7c-.1-.3-.1-.7-.2-1s-.1-.4-.1-.6a8.8,8.8,0,0,1-.2-1.6v-.3h0c0-.1,0-.1.1-.2h0c0-.1,0-.1.1-.2l1.5-2.7h0a25.9,25.9,0,0,0,1.4-2.9h0c1.9-3.9,3.2-8.2,2.7-12.3s-4.5-9-8.9-9h-1.6l-1.3.3-.4.2-1,.5-.4.2-1.1.7h-.4l-1.3,2.8-.3.6a6.1,6.1,0,0,1-.5,1.2l-.3.6c-.2.4-.3.9-.5,1.3l-.3.5c-.2.5-.3.9-.5,1.3s-.2.3-.2.5l-.6,1.4-.2.3a8.8,8.8,0,0,0-.5,1.5l-.2.3-.6,1.6h0a66.3,66.3,0,0,0-4.2,16.6h0a1.3,1.3,0,0,1-.1.6v.3c-.4,6.4,6,12.4,10.2,17,7.3,4.7,16,7.6,24,7.4a.9.9,0,0,0,.8-.4c16.4-.4,31.1-9.7,47.5-10.3a80.3,80.3,0,0,1,13.8.7c15.3,4.7,30.6,9.5,45.5,15.4a6.5,6.5,0,0,0,6.7-1.1C536.9,390.1,542.8,383.6,546.8,375.6Zm-100.6-43c-9,3.6-18.2,7.4-23.7,15.7-.7,1.1-2,.2-1.9-.9h0a.5.5,0,0,1,.2-.4c5.6-8.7,15.3-12.7,24.6-16.4h.4a.1.1,0,0,1,.1.1h.4l.3.2h0A1.1,1.1,0,0,1,446.2,332.6Z" style="fill:#333031"/><path d="M328.9,351.3a21.6,21.6,0,0,1-.3-3.5c0-.3-.1-.6-.1-.9v-3.5a4.9,4.9,0,0,0,.1-1.2c0-.3.1-.7.1-1.1s.1-.8.2-1.2.1-.7.1-1.1l.3-1.4c.1-.3.1-.6.2-.8a10.5,10.5,0,0,1,.6-2.4l.9-3.1a20.2,20.2,0,0,1,.7-2.3c.1-.3.1-.6.2-.8s.5-1.6.8-2.4.1-.4.1-.6l1.1-3c-3.6.8-7.1,1.8-10.1,4a52.8,52.8,0,0,0-6.8-.9,7.2,7.2,0,0,0-3.8.7c-7.2-2.5-15.2-3-20.2,3.7-1.7,2.2-2.8,5.3-1.6,8a8.2,8.2,0,0,0,2,2.5h0a41.7,41.7,0,0,0,10.3,7,20.9,20.9,0,0,0,10.3,4.8c4.1.8,10.4,2.5,15.3,2a21.7,21.7,0,0,1-.4-2.5Z" style="fill:#333031"/><path d="M355.7,341.6c2.2-5.7,3.5-12.4,6.4-17.9-.3-3.2.3-6.4-1.5-9.3a16.1,16.1,0,0,0-7.4-6,10.7,10.7,0,0,0-5.6-.1c-3.6,1-5.9,4.7-8,7.5l-1.1,1.6a26,26,0,0,0-1,2.5c-1.9,5.2-4.1,10.5-5.6,15.9h0l-.6,2.7a15.5,15.5,0,0,0-.4,2.1v.3a40.8,40.8,0,0,0,.9,13.9c2.3,3.3,5.1,6.3,9.2,7.3l.6.3a26.1,26.1,0,0,0,6.9.7c.3-1.7.7-3.5,1.2-5.3a.4.4,0,0,1,.1-.3C351.3,352.1,353.7,346.9,355.7,341.6Z" style="fill:#333031"/><path d="M385.8,380.6a34.3,34.3,0,0,1-4-5.4,15.4,15.4,0,0,1-2.3-8.5c0-.1.1-.2.1-.3a46.4,46.4,0,0,1,1.1-6.5,17.5,17.5,0,0,1-1.8-4.6,18.6,18.6,0,0,1-.4-3.4,1.3,1.3,0,0,1-.1-.6v-1.7c0-.2.1-.5.1-.8a3.1,3.1,0,0,1,.1-1c0-.4.1-.9.1-1.3a2.8,2.8,0,0,0,.1-.9,2.9,2.9,0,0,0,.2-.9c.9-4.8,2.5-9.6,3.5-14.1l-.5-1.5h0c0-.1,0-.1-.1-.1a8.7,8.7,0,0,0-.7-1.7.1.1,0,0,0-.1-.1,12.1,12.1,0,0,0-2-3H379l-1.2-1.1-.2-.2-1.3-.9-.3-.2-1.4-.8h-.3l-1.6-.6h-.2l-2-.5h-.2l-.9.4h-.2l-.9.4h0a10,10,0,0,0-3.9,4,.8.8,0,0,1-.4.8c-.4.9-.8,1.8-1.2,2.9-1.7,4.7-3.2,9.5-5,14.2-.5,1.3-1.1,2.6-1.6,4-2.7,6.4-5.5,13-5.9,19.8.9,3.3,3,6.5,6.4,10,.1.2.2.3.4.3h.1c5.2,3,10.7,3.1,16.5,3.9s9.8,2.2,14.8,3l-2.7-3Z" style="fill:#333031"/><path d="M296,258.2a.4.4,0,0,0,.1-.3c-7-3.1-18.9-7.3-24.5-2.2a8.7,8.7,0,0,0-2.5,3.6,1,1,0,0,1-.2.9,8.1,8.1,0,0,0,1.3,5.1h0l.7.9h0l.7.9h0l.8.9h.1a4.6,4.6,0,0,0,.7.7l.2.2.8.7c.1.1.2.1.2.2l.7.5.4.3.8.6.3.2.7.5h.2a39.7,39.7,0,0,0,9.8,4.4,11.7,11.7,0,0,0,5.4-2.8,14.5,14.5,0,0,0,3.4-15.2Z" style="fill:#333031"/><path d="M254.1,276.9c-4.8-3.9-9.7-7.7-14.6-11.4s-11.6-7.5-18.5-8.9l-1.4-.4h0c-1.7-.3-3.5-.8-5.3-1h-5.4l-.5.2h-1l-.4.2-.5.2-.4.3-.5.3-.3.2a9.4,9.4,0,0,0-1,1c-.1.1-.2.1-.2.2h.1l1.9.5h.1l1.9.6h.1l1.8.7h.1a8,8,0,0,1,1.6.8,66.1,66.1,0,0,1,19.8,14.6l2,2.3h0c3.6,4.1,7.1,9,8.2,14.2a6.8,6.8,0,0,1,.2,1.4.4.4,0,0,1,.1.3v1.3a5.3,5.3,0,0,1-.1,1.3v.3c-.1.3-.1.6-.2.9s0,.3-.1.4l-.3,1.1h0a22,22,0,0,1-1.7,3.9c5.5-2,10.9-4.1,15.5-7.7l1.5-1.3h.7a11.5,11.5,0,0,0,3-8.4C259.9,281.7,257,279.1,254.1,276.9Z" style="fill:#333031"/><path d="M309.9,237.3c-1-1.9-3.8-2.6-5.6-3.4l-11.9-6.2a.6.6,0,0,0-.1-.4c-3.2-4.7-6.6-9.3-12.1-11.5s-15.4-3.6-22.8-4.9c-15.3-2.6-30.7-4.4-46.3-4.3a168,168,0,0,0-21.3,1.2c-7.9,1.1-15.3,4-23.1,4.8-11.2,1.1-22.5,1.3-33.9,1.4-15.9-2-31.7-4.4-47.5-7.2a7.4,7.4,0,0,0-6.7,2.1C67.4,220.2,59,233.7,60.5,250.7c1.2,12.7,6.3,23.2,13.7,32.2a7,7,0,0,0,6.3,2.6c12.4-1.4,24.8-3.1,37.1-5.2,3.9-.4,7.7-.6,11.5-.7,8.7-.2,17.8-.5,25.4,4.4,13,8.4,25,18.9,37.4,28.3l.3.2a31.5,31.5,0,0,0,14.5,5h.5a45.5,45.5,0,0,0,24.1-9.6l4.6-3.7a.1.1,0,0,1,.1-.1l.5-.2c2.6-4.4,4.4-8.7,2.3-14.3a5.4,5.4,0,0,1-.5-1.1h-.1c-2-4.5-5.4-8.6-8.7-12.2a59.2,59.2,0,0,0-12.4-10c-4.5-2.9-11.7-7.9-17.3-6.5s-4.8,6.5-3.6,10.2a10.8,10.8,0,0,0,.8,1.9h0l.9,1.4.4.6.4.6h.2a18.3,18.3,0,0,0,8.9,5.6,1,1,0,0,1,.8.8c.8,4.7,3.7,8.1,6.9,11.3a.9.9,0,0,1,.6.6l2.1,2.1.4.4,2.1,2.3a.8.8,0,0,1,.2.4h0v.4c-.1.8-1.1,1.4-1.7.6l-3.2-3.3h0l-.4-.3-.4-.5a12.5,12.5,0,0,0-3.3,7.8,1.1,1.1,0,0,1-.8.9.5.5,0,0,1-.5,0h-.4l-.2-.3c-.1,0-.1,0-.1-.1s-.1-.2-.1-.4.1-.8.1-1.2.1-.3.1-.4.1-.6.1-.8a.8.8,0,0,0,.1-.4l.3-.8c0-.1.1-.2.1-.4l.3-.9h.1a17.3,17.3,0,0,1,2.7-4.3c-2.7-2.8-5.1-5.7-6.4-9.3-3.8.3-5.9,4.1-8.8,6.3a1,1,0,0,1-.9.1.9.9,0,0,1-.4-.6.1.1,0,0,1-.1-.1v-.5h0a.4.4,0,0,1,.1-.3h0l.3-.3,1.1-.9h0l1-.9c0-.1.1-.1.1-.2l.6-.5a15.9,15.9,0,0,1,1.3-1.3h0l1-.9h.1l1-.7a.1.1,0,0,1,.1-.1l1.1-.5h.1l1.2-.3h.5l-1.5-.6h0l-.9-.4-.3-.2-.7-.4c-.1,0-.2,0-.2-.1l-1-.6H202l-.8-.5a21.1,21.1,0,0,1-6.7-7.6h0l-.6-1.3h0c-.1-.4-.3-.8-.4-1.3h0a10.9,10.9,0,0,1-.3-2.6h0c0-.5.1-.9.1-1.3h0l.3-1.1c0-.1,0-.2.1-.2a5.6,5.6,0,0,1,.4-1.2v-.2a5.4,5.4,0,0,1,.7-1.3l.5-.7.3-.3.2-.3.9-.7h0a6.6,6.6,0,0,1,1.9-.9h0l1.4-.3h1.8a.7.7,0,0,1,.2-.6c3.9-5.3,9.5-4.3,15.2-3.2a70.8,70.8,0,0,1,7.3,1.8c-.1-.1-.1-.3-.2-.5h0a10.8,10.8,0,0,1-.5-2.1h0a1.7,1.7,0,0,1-.1-.7h0a1.3,1.3,0,0,1-.1-.6v-.8h-.1v-.8a1.3,1.3,0,0,0,.1-.6v-.7a.4.4,0,0,0,.1-.3.9.9,0,0,1,.1-.5v-.3c.1-.1.1-.2.1-.4a.4.4,0,0,0,.1-.3.8.8,0,0,0,.1-.4c.1-.1.1-.2.2-.4a.4.4,0,0,1,.1-.3l.2-.4a.3.3,0,0,1,.1-.2l.3-.5v-.2l.4-.6.8-.8h.1l.8-.6c2.4-1.6,5.6-1.5,8.6-1.5h2.2l.5.2c10,5,20,10.1,28.9,16.8l.2-.3a5.4,5.4,0,0,1,.7-1.3c0-.1.1-.1.1-.2l.9-1.1h.1a9.6,9.6,0,0,1,2.2-1.8h0l1.5-.7h0c3.8-1.6,8.8-1.1,13.5.1h.3l.8.2h.4l.7.2h.4l.8.3.6.2.7.2,3.4,1.3A31.9,31.9,0,0,0,288,246l-5-1.1-1-.3-1.7-.5-2.4-.9-.5-.3-2.3-1a48.8,48.8,0,0,1-5.8-3.4l-1.9-1.3h0c-5.9.6-11.9-.9-17.7.9h-.9a.9.9,0,0,1-.4-.6h0a1.1,1.1,0,0,1,.7-1.3l3-.6h0a45.8,45.8,0,0,1,8.3-.2h3.5l3.8-.2h.6a57,57,0,0,0,5,3.1h.1l2.1,1h.1l4.3,1.7h0a89.9,89.9,0,0,0,11.4,3.2c4.5.9,10,3.3,14.7,2.5C308.8,245.4,311.6,240.4,309.9,237.3Z" style="fill:#333031"/><path d="M350.1,274.9c-4.7-.5-9-2.5-13.4-4.5-6.8-3.2-13.8-5.7-20.2-9.5a1.2,1.2,0,0,1-.5-.7A131.4,131.4,0,0,0,346.3,272h.2a11,11,0,0,0,2.6.6,2,2,0,0,1-.6-1.1c-.5-1.6,0-2.3,0-3.9s-1-1.8-1.7-3.2-.4-.6-.6-.7a1.1,1.1,0,0,0-.3-.7v-.2h-.5q-4.9-1.4-10.2-2.4l8.7.3h2c.2-1.5.7-3.3.8-4.4v-.2c1.2-.6.1-2.4-1.2-1.9-8.5,4-21.8-2.3-30.2-4.6l-30.5-8.5c-9.4-2.6-18.9-5.2-28.6-6.5-4.2-.5-10.3-1.8-12.7,2.9s1,9.7,5.2,11.6c7.1,3.4,16.4,2.3,24,3.3,11.9,1.4,25.4,5.3,34.5,13.4,2.5,2.1,3.2,4.1,4.8,5.5a28,28,0,0,1,5.1,13.8,1.2,1.2,0,0,0,1.5,1.1l3.6-1a1.3,1.3,0,0,0,1-.4l.6-.2a1.4,1.4,0,0,1-.2-.6v-.2a16.1,16.1,0,0,0-3-7.5,14.3,14.3,0,0,1,5.6,10.4l.2.2c.4.7,1.5,1.1,2,.1s3.1-1.6,5.3-1.2c-.1-.2.1-1.2,0-1.6-1.5-6-6.5-12-12.1-15.9a29.7,29.7,0,0,1,14.3,17.9h1.5c1.2-.4,2.2-1.3,3.3-1.6,3.9-1.2,8.1-2.8,9.4-7.3A3.7,3.7,0,0,0,350.1,274.9Zm-80.4-29c-4.9.2-15.2.7-18-2.5a1.1,1.1,0,0,1,.4-1.2c3.6-1.2,8.6,1.1,12.1,2l5.3,1.5.7.2Z" style="fill:#66c8c7"/><path d="M271.8,270a14.3,14.3,0,0,1-3.6-3.8,2.1,2.1,0,0,1-.4-.6h0l-.4-.7c0-.1,0-.2-.1-.2s-.1-.3-.1-.5-.1-.2-.1-.4a.4.4,0,0,1-.1-.3.6.6,0,0,1-.1-.4c0-.1-.1-.2-.1-.3v-.5c0-.1-.1-.2-.1-.3v-.7a.9.9,0,0,1,.1-.5v-.3a1.3,1.3,0,0,1,.1-.6l-2.1-1.4-.2-.3-.9-.6-.5-.3-3-2-.3-.2-6.8-4.1-.8-.4-2.7-1.5-.8-.5-3.2-1.6-2-1.1-.7-.3h-.1l-5-2.5h-4.6a9,9,0,0,0-4.9,1.3c-3.2,2.3-3.1,7.9-1.6,11.2a1.1,1.1,0,0,1-.1,1,60.7,60.7,0,0,1,5.9,2.4c0,.1.1.1.2.2h0a39.8,39.8,0,0,1,4.8,2.8l1.8,1.1,2.6,1.9c3.9,3,7.7,6.2,11.8,9.2s5.3,4,7.1,6.8h.1a11.7,11.7,0,0,1,1.4,3.8,1.7,1.7,0,0,0,.1.7v1.8h-.1v.7c-.1.1-.1.1-.1.2s-.1.5-.1.7h0l-.3.8h0l-.3.8h0l-.3.8h0c-.4.8-.9,1.6-1.4,2.4,1.9-.3,3.8-.8,5.7-1.3,3.4-1,7.4-1.7,10.3-3.7s5.9-7.8,5.6-12.2A51.2,51.2,0,0,1,271.8,270Z" style="fill:#333031"/></svg>