<svg xmlns="http://www.w3.org/2000/svg" viewBox="0 0 504 504"><title>illustr--Artboard 16 copy</title><path d="M390.3,111.7c-2.1-1.1-4.2-1.7-10-1.7H120.6c-5.8,0-7.9.6-10.1,1.7a12.2,12.2,0,0,0-4.9,4.9c-1.1,2.2-1.7,4.3-1.7,10.1V386.4c0,5.8.6,7.9,1.7,10a11.8,11.8,0,0,0,4.9,5c2.2,1.1,4.3,1.7,10.1,1.7H380.3c5.8,0,7.9-.6,10-1.7a11.8,11.8,0,0,0,4.9-5c1.2-2.1,1.8-4.2,1.8-10V126.7c0-5.8-.6-7.9-1.8-10.1A12.2,12.2,0,0,0,390.3,111.7Zm5.1,274.7c0,5.9-.7,7.6-1.6,9.3a10.6,10.6,0,0,1-4.2,4.2c-1.7.9-3.4,1.6-9.3,1.6H120.6c-5.9,0-7.7-.7-9.3-1.6a10.9,10.9,0,0,1-4.3-4.2c-.8-1.7-1.5-3.4-1.5-9.3V126.7c0-5.9.7-7.6,1.5-9.3a10.2,10.2,0,0,1,4.3-4.2c1.6-.9,3.4-1.6,9.3-1.6H380.3c5.9,0,7.6.7,9.3,1.6a10,10,0,0,1,4.2,4.2c.9,1.7,1.6,3.4,1.6,9.3Z" style="fill:#afadad"/><path d="M244.9,220.4a6.2,6.2,0,0,1,2.7,1.3c0-2.4,0-4.7.1-7-4.2.8-8.1,2.2-12.1,3.3C238.7,218.8,241.7,219.7,244.9,220.4Z" style="fill:#333031"/><path d="M307.8,168.3c-1.7-2.4-5.6-3.7-8.2-4.8a25.8,25.8,0,0,0-9.1-2.2c-7.1-2.8-13.3-6.9-20.3-10.6l-.5-.2a49.5,49.5,0,0,1-10.2-6.9c-.1,0-.1-.1-.2-.2a60.1,60.1,0,0,0-13.3-8.5l-2.6-1.4c-3.6-1.6-7.2-3.2-10.9-4.6l-1.9-.6a54.6,54.6,0,0,0-12.3-2.3,29,29,0,0,0-5.8.5c-7.1,1.5-13.8,4.4-21.1,4.9a1.7,1.7,0,0,1-.3-3.4c14.3-2,24.8-8.1,38.8-3.8,7,2.2,13.4,5.5,20.1,8.3a36.4,36.4,0,0,0,7.3,1.5,36.9,36.9,0,0,0,7.8-1,24.6,24.6,0,0,0,10.5-6c2.6-2.6,6.3-8.8,2.9-11.8a17.8,17.8,0,0,0-3.3-.9l-1.6-.4c-8.1-2.1-16-4.3-24.2-5.2h-.7c-23.7,2.1-47.9-.2-70,10.4a1.6,1.6,0,0,1-1.5.1l-.8.3-.8.5a13.4,13.4,0,0,1-.1-2l.5-.2a1.6,1.6,0,0,1,.9-1.8c13.6-6.5,27.7-8.4,42.1-9.3l5.5-.4c5.7-.3,11.4-1.2,17.1-.7a14,14,0,0,0,3.7-1.7c1.9-3.4,4.3-9.6,1-12.6s-11.6.3-15.2,1.1a53.2,53.2,0,0,1-6.2,1.4l-1.7.5c-.3,0-40.1,10-42.4,10.3a8.2,8.2,0,0,0-2.5.8c-7.9,1.9-16.1,6.9-22.2,12.6h-.2c-8.9,8.5-19.2,14.9-28.8,22.4a99.8,99.8,0,0,0-12.3,12,46.7,46.7,0,0,0-6,5.7c-3.2,3.1-6.3,6.4-9.2,9.8a34.9,34.9,0,0,1-3,3.7,20.9,20.9,0,0,0-1.4,1.7C86.5,182.7,77,191,65.5,197.4,49,206.6,29.7,211,11.1,215.7a5.3,5.3,0,0,0-3.8,4c-.3,1.2-.5,2.4-.8,3.6-2.2,11.9.1,22.7,5.6,33.5,4.6,8.9,17.5,28,26.7,38.5a6.2,6.2,0,0,0,8.3,1.2c10.1-6.9,20.6-18.9,30.3-24.3,20.8-11.6,26.2-20.7,55.1-16.3h0a53.2,53.2,0,0,0,15.3,2.5c6.7.2,13.5.5,20.2.3,8.9-.3,16.8-2.2,25.3-4.7s15.8-4.8,24-5.8l2.8-.3,3.3-.8,5.2-2c5.2-2.3,10.5-4.2,15.7-6.4,3.6-1.6,7-2.4,9.9-3.4s5.8-1.8,8.6-3.3c-4.8-1.7-3.9-1.4-9.4-2.4a45.2,45.2,0,0,1-6.4-1.2l-2.3-.5a2,2,0,0,1-1.3-1.8v-1.8l-.3-.2c-1.7-.9-6.3-1.1-8.3-1.7l-9.1-2.9h-.2l-1,.3c-8.3,2.5-17.2,2.1-25.9,1.7a10.9,10.9,0,0,1-5.8-2c-13.8-10.8-11.1-23.8-10.9-25.7,1.7-15.7,6.4-21.6,15.3-26a23,23,0,0,1,6.8-1.9c7-.7,13.5-2.3,20.7-3.6,5.1-.9,22,5.3,25.9,5.6a88.9,88.9,0,0,1,11.7,5.6,28.1,28.1,0,0,0,5.3,2.2c4.1,2.8,9.4,4.1,13.9,5.5a24.8,24.8,0,0,0,11.8.9c3.3-.5,7.2-.6,10.4-1.6A8,8,0,0,0,307.8,168.3Z" style="fill:#333031"/><path d="M491.6,374.3a40.3,40.3,0,0,0-4.9.3l5.5-1.5c2.8-.8,1.6-5.2-1.2-4.4-25.2,7.4-51.3,12.2-76.1,21.3l-1.1-.2a2.3,2.3,0,0,0-2.1-2c-4.7-.4-8.9-3.4-13.4-4.7s-11.2-2.8-16.8-4l-32.9-7.5c-10.9-2.4-21.9-4.9-32.9-7.1s-21.3-4.7-31.8-4.3a2,2,0,0,0-1.4.5,2.3,2.3,0,0,0-2-1.6c-1.7-.2-3.4-.9-5.1-1.1a27.8,27.8,0,0,0-5,0,2.2,2.2,0,0,0-2.2,2.3c-2,.5-2.6,3.8-.1,4.3l1.5.4c-1.6.6-2.3,3-.4,3.9l3.5,1.5h-.1a1.8,1.8,0,0,0-2,1.3h-1.4c-2.9-.2-2.9,4.3,0,4.5h.8a1.9,1.9,0,0,0,.4,2.2h-.7c-2.1-.3-3.1,2.9-.9,3.2h.3a2.5,2.5,0,0,0,1.8,1.1h.7a.8.8,0,0,0-.2.4l-3.3-.5c-2.5-.2-2.8,3.3-.9,4.3a2.4,2.4,0,0,0,1.4,3l2.9,1c0,.1.1.1.3.2l.3.2.3.4c-2.7.2-2.6,4.5.2,4.4a108.2,108.2,0,0,1,23.4,2.5l4.2,1.1c2.2.6,4.5,1.1,6.8,1.5,10.9,2.9,21.7,6.4,32.6,8.9l2,.4c9.1,2.1,18.5,3.4,27.7,5.1s17.6,5.7,26.7,6.9a39.9,39.9,0,0,0,6.2,3.1,1.6,1.6,0,0,0,2.1-1.7,2.1,2.1,0,0,0,2.9.6c2.6-1.5,6.7-1.9,9.6-2.6l12.7-2.8c6.6-1.7,13.4-2.5,19.9-4.5,3.7-1.1,7-2.9,10.7-4.1s7.9-1.9,11.8-2.8,10.6-2.2,15.2-4.8l4.7-.9c2.1-.4,1.2-3.7-.9-3.3h-.5l-.6-.8a7.6,7.6,0,0,0,1.9-1.2,1.7,1.7,0,0,0-1.5-2.9,1.7,1.7,0,0,0,.1-1.9l1-.6a1.7,1.7,0,0,0-.1-3l.3-.2a2.3,2.3,0,0,0-3.2-3.2c-4.4,4.4-12.9,5.9-18.7,7.8l-9,2.5,7.9-3.4h.1a1.8,1.8,0,0,0,1.1.3c7.7-.3,14.2-7.4,21.5-9.4,2.1-.5,1.2-3.8-.9-3.2l-1.4.5a1.8,1.8,0,0,0,1-1.4h1.7C494.5,378.8,494.5,374.3,491.6,374.3Zm-50.1,16.5a52.1,52.1,0,0,1-10.8,3.4l-1.8.3Zm-46.5-4-2-.3-3.7-1.1Zm7.1,7.7a2.1,2.1,0,0,0,2.6-1.6l3,.5a2.4,2.4,0,0,0,0,2.6l-3.4,1a2.1,2.1,0,0,0-1.6-2.4c-13.1-3.2-26.3-5.7-39.6-8l17.6,2.6C387.9,390.8,395,392.6,402.1,394.5ZM339,392.9q19,2.4,38.1,5.1l17.8,2.5a3.3,3.3,0,0,0,0,1.4l-2.7-.3a41.2,41.2,0,0,0-4.7-1.3,2,2,0,0,0-2.3.8c-3.2-.3-6.4-.6-9.5-1.1-5.3-.8-10.6-.8-15.8-1.8s-10-3-15.2-3.7c-6.8-.9-13.5-2.1-20.3-3.3Zm-1.8-6.2,1.2.2,12.7,3-9.9-1.3-3.4-.4A2.2,2.2,0,0,0,337.2,386.7Zm-18.4-17c11,2.3,21.9,4.8,32.9,7.2l23.5,5.3-16.4-2.5-21.1-4.4c-14.4-2.9-28.7-6.2-43-9.4a24.2,24.2,0,0,0-3.6-1C300.4,365.6,309.9,367.9,318.8,369.7Zm.2,16.4c-3.6-.5-7.1-.9-10.6-1.5a130.1,130.1,0,0,1-15.1-3,2.6,2.6,0,0,0-.8-1.3l10.6,2.2Q311,384.2,319,386.1Zm68.2,28c-5.7-.7-11.4-2.2-17.1-3.1-7.4-1.3-14.8-2.3-22.2-3.7,8.8,1.5,17.6,2.6,26.4,3.8a82.1,82.1,0,0,1,16.4,3.2l.6.2Zm.7-6.5a1.6,1.6,0,0,0-1.8.8q-3.5-.7-6.9-1.2c-12.2-1.8-24.5-3.1-36.6-5.4s-23.4-5.2-35.1-7.8l-16.4-3.6c5.5.8,11,1.5,16.4,2.4,11.2,1.8,22.2,4.4,33.4,5.8,5.8.7,11.1,2.5,16.8,3.7s9.9,1.2,14.9,1.8,10.8,1.6,16.3,2.2l4,.3a55.4,55.4,0,0,0,12,3.6,2.4,2.4,0,0,0,2.6-1.6h.5a2.4,2.4,0,0,0,.2,2.2h-.5C401.2,410.6,394.4,408.8,387.9,407.6Zm23.8,4.4a2.5,2.5,0,0,0-1.9,3.7h-.3c-1.3.6-1.3,2.2-.7,3.3a19.2,19.2,0,0,0-3.9,1.7,2,2,0,0,0-1.1,2.1c-.1-.2-.4-.3-.7-.4l-1.7-.7c0-.1,0-.2.1-.2,1.8-.2,2.1-2.6,1-3.8h.1c2.5,1.5,4.8-2.4,2.3-3.9h2.8a1.7,1.7,0,0,0,1.4-2.6,2.7,2.7,0,0,0,.9,0h.5a2.3,2.3,0,0,0,1.2.6Zm7.7-1c-.1-.2-.3-.3-.4-.4,4.2-1.2,8.3-2.8,12.5-3.6h.4c8.4-1.4,16.7-3.4,25-5.4a2.2,2.2,0,0,0,1,2.5c-5.1,1.3-10.1,2.5-15.3,3.3C434.9,408.6,427.2,409.9,419.4,411Zm49.1-23.8c-6.5,2.7-12.7,5.6-19.3,7.8l-18.8,6.2-6.6,2.2c-3.4.4-6.9.6-10.4.7a2.3,2.3,0,0,0-2.2,2.7H410l-.8.3a2.3,2.3,0,0,0-1.4-3l-5.3-1.3a24.4,24.4,0,0,0,4.7.1h.2a2.1,2.1,0,0,0,2-.9l1.3-.2.6-.3a2.5,2.5,0,0,0,2.1.8c2.9-.5,5.5-1.7,8.3-2.4s6.6-.8,9.9-1.3c6.6-1.1,12.5-4.5,18.7-6.5s12.4-3.2,18.4-5.1Z" style="fill:#66c8c7"/><path d="M488.1,366.5c-2.7-1.3-5.7-1.7-8.6-2.3s-7.8-1.4-11.8-2.1-7-1.3-10.5-2.1-7.4-2.3-11.3-3a146,146,0,0,1-21.5-5.1c-7.1-2.5-14.2-3.6-21.7-4.6s-14.7-2.5-22.1-3.8a51.1,51.1,0,0,0-9.6-.8c-3.8.1-7.5-.4-11.3-.6s-6.9-.6-10.3-.9-7.5-.4-11.3-.6-6.8-1.2-10.3-1.2-6.9,1-10.3,2c-7.9,2.5-15.3,5.2-23.5,6.2-3.7.4-7.5.5-11.2,1.4l-5.5,1.5c-1.9.4-3.9,1.6-5.8,1.8a.7.7,0,0,0-.5.4c-1.5.5-3.5,1.4-2.5,2.3s2.3.3,3.1.3l3.3.2c3,.6,5.9,1.7,8.9,1.9s8-.8,11.9.2,6.9,2.3,10.5,3,7.8.9,11.6,1.8,7.5,1,11.2,1.7,8.2,2.5,12.4,3.6a44.8,44.8,0,0,0,8.9,1.5c2.1.2,4,0,6.1.6s3.9,1.3,5.9,1.8c3.6.9,7.5,1.3,11.2,1.9s8.5,1.9,12.7,2.9a113.2,113.2,0,0,1,23.1,8.1c2.6,1.2,5.5,2.4,8.4,2.2s7-1.9,10.4-3,6.8-2.8,10.5-3.4a58.1,58.1,0,0,0,10.9-2.8c3.9-1.4,8-2.1,12-3.5a89.4,89.4,0,0,1,12.6-3.2c3.1-.7,6.2-1.4,9.4-1.8,1.3-.2,4.2-.3,4.8-1.8S488.4,366.6,488.1,366.5Z" style="fill:#66c8c7"/><path d="M350.5,414.4a42.5,42.5,0,0,1-9.4-2L336,411a113.4,113.4,0,0,0-15.5-2.2c-.9,0-1.2-.7-1.3-1.3v-.2h-.1a1.1,1.1,0,0,1-.3-.8v-5.9c.1-3.6.2-7.4,0-11-.1-1.9-.2-3.9-.4-5.7a68.5,68.5,0,0,1-.5-9.1c.2-5,1-8.4,2.5-10.2s4-2.5,6.3-3.2l1.7-.6c7.4-2.6,15.1-5,22.5-7.3l6.7-2.2,7.3-2,8.1-2.4,2-.7a46.3,46.3,0,0,1,8.1-2.2h.7l2-.3a24.5,24.5,0,0,1,7.8,1.8l3.2,1.1a98,98,0,0,0,17.7,2.5h.3a1.4,1.4,0,0,1,1.2.7,1.4,1.4,0,0,1,.2,1.4c-1,2.2-4.5,2.9-7.3,3.4l-2.5.6a75.5,75.5,0,0,0-9.7,3.9c-2.5,1.2-5.2,2.4-7.9,3.4s-6.6,2.5-9.8,3.8-5.4,2.3-8.2,3.3a91.5,91.5,0,0,1-10.2,3l-4.4,1.1h-.3v.3a157.9,157.9,0,0,1-1.6,19.7c-.2,2-.5,4-.7,6.1-.5,4.2-1,8.7-1.8,12.9h-.1v.2a1.4,1.4,0,0,1-.2,1.1,1.2,1.2,0,0,1-.9.3Z" style="fill:#333031"/><path d="M385.8,344.1a24.6,24.6,0,0,1,7.7,1.8l3.2,1a91.1,91.1,0,0,0,17.8,2.6h.3a1.2,1.2,0,0,1,.9.5.9.9,0,0,1,.1,1c-.9,2.1-4.2,2.7-6.9,3.3a14.3,14.3,0,0,0-2.6.6,75.5,75.5,0,0,0-9.7,3.9,77.5,77.5,0,0,1-7.9,3.3c-3.4,1.2-6.6,2.6-9.8,3.9l-8.2,3.3a91,91,0,0,1-10.2,2.9l-4.4,1.2h-.6v.6a174.8,174.8,0,0,1-1.5,19.6c-.3,2-.5,4.1-.8,6.1-.5,4.3-1,8.7-1.8,12.8h0v.2h.1a1.5,1.5,0,0,1-.2.8.7.7,0,0,1-.6.3h-.1a37.9,37.9,0,0,1-9.3-2.1l-5.1-1.4a114.9,114.9,0,0,0-15.6-2.2.9.9,0,0,1-.9-.9v-.3l-.2-.2a.7.7,0,0,1-.2-.6v-5.9c.1-3.6.1-7.4,0-11-.1-2-.3-3.9-.4-5.7a69.4,69.4,0,0,1-.5-9.1q.3-7.3,2.4-9.9c1.3-1.7,3.8-2.4,6.1-3.1l1.7-.6c7.4-2.7,15.1-5.1,22.5-7.4l6.8-2.1c2.3-.8,4.8-1.4,7.2-2.1l8.1-2.3,2-.7a46.3,46.3,0,0,1,8.1-2.2h.8l1.8-.2m0-.7a7.1,7.1,0,0,0-2,.2h-.7a59.2,59.2,0,0,0-10.2,2.8c-5.1,1.7-10.3,2.9-15.4,4.5-9.7,3.1-19.6,6-29.2,9.5-2.6.9-6.4,1.6-8.2,3.9s-2.4,7.3-2.5,10.4c-.2,5,.6,9.8.8,14.8s0,11.3,0,16.9a4.1,4.1,0,0,0,2.1,2.8,102,102,0,0,1,15.4,2.2c4.9,1.1,9.5,3.1,14.6,3.4h.1a1.6,1.6,0,0,0,1.5-1.9h0c1.3-6.2,1.8-12.7,2.6-19a161.8,161.8,0,0,0,1.6-19.7c4.8-1.3,9.9-2.4,14.6-4.1s11.9-5,18-7.2,11.4-5.4,17.6-7.2c2.9-.9,8.6-1.1,10-4.3a1.9,1.9,0,0,0-1.7-2.6h-.3c-5.8-.4-12-.9-17.6-2.5-3.5-1-7.4-2.8-11.1-2.8Z" style="fill:#fff"/><path d="M496.1,323.6a42.2,42.2,0,0,0-4.9.4l5.5-1.6c2.8-.8,1.6-5.1-1.2-4.3-25.2,7.3-51.3,12.1-76.1,21.2h-1.1a2.4,2.4,0,0,0-2.1-2.1c-4.7-.4-8.9-3.3-13.4-4.7s-11.2-2.7-16.8-4L353.1,321c-10.9-2.5-21.9-5-32.9-7.1s-21.3-4.7-31.8-4.4a2.6,2.6,0,0,0-1.4.6,2.2,2.2,0,0,0-2-1.7c-1.7-.2-3.4-.9-5.1-1.1a41.7,41.7,0,0,0-5,0,2.2,2.2,0,0,0-2.2,2.3c-2,.6-2.6,3.8-.1,4.4l1.5.3c-1.6.7-2.3,3.1-.4,3.9l3.5,1.5h-.1a1.7,1.7,0,0,0-2,1.2h-1.4c-2.9-.1-2.8,4.4,0,4.5h.8a2,2,0,0,0,.4,2.2h-.7c-2.1-.3-3.1,3-.9,3.3h.3a2.6,2.6,0,0,0,1.8,1.2h.7c-.1.1-.2.2-.2.3l-3.3-.4c-2.5-.3-2.8,3.2-.9,4.2a2.4,2.4,0,0,0,1.4,3l2.9,1,.3.3h.3l.3.4c-2.7.2-2.6,4.5.2,4.5a102.2,102.2,0,0,1,23.4,2.4l4.2,1.2,6.8,1.4c10.9,2.9,21.7,6.5,32.6,8.9l2,.4c9.1,2.1,18.5,3.4,27.7,5.1s17.6,5.7,26.7,7c2.1,1,4,2.4,6.2,3.1s2.1-.7,2.1-1.8a2.2,2.2,0,0,0,2.9.7c2.6-1.5,6.7-2,9.6-2.7l12.7-2.8c6.6-1.6,13.4-2.5,19.9-4.4,3.7-1.1,7-3,10.7-4.1s7.9-2,11.8-2.9,10.6-2.1,15.2-4.8l4.7-.9c2.1-.4,1.2-3.6-.9-3.2h-.5l-.6-.8,1.9-1.3c1.3-1.2-.1-3-1.5-2.8a1.8,1.8,0,0,0,.1-2l1-.6a1.6,1.6,0,0,0-.1-2.9l.3-.3c2.1-2-1.1-5.2-3.2-3.2-4.4,4.4-12.9,5.9-18.7,7.8-3,.9-6,1.8-9,2.5l7.9-3.4h.1a1.8,1.8,0,0,0,1.1.3c7.7-.2,14.2-7.4,21.5-9.3a1.7,1.7,0,0,0-.9-3.3l-1.4.5a1.8,1.8,0,0,0,1-1.3h1.7C499,328.1,499,323.6,496.1,323.6ZM446,340.1a47,47,0,0,1-10.8,3.5l-1.8.2Zm-46.5-3.9-2-.4-3.7-1C395.7,335.2,397.6,335.6,399.5,336.2Zm7.1,7.6a2.1,2.1,0,0,0,2.6-1.6l3,.5a2.6,2.6,0,0,0,0,2.7l-3.4.9a2,2,0,0,0-1.6-2.3c-13.1-3.3-26.3-5.8-39.6-8.1l17.6,2.6C392.4,340.2,399.5,341.9,406.6,343.8Zm-63.1-1.6,38.1,5.1,17.8,2.6a2.9,2.9,0,0,0,0,1.3l-2.7-.2a41.9,41.9,0,0,0-4.7-1.4,2.3,2.3,0,0,0-2.3.8c-3.2-.2-6.4-.5-9.5-1-5.3-.9-10.6-.9-15.8-1.9s-10-2.9-15.2-3.6c-6.8-1-13.5-2.2-20.3-3.4Zm-1.8-6.2,1.2.3,12.7,3-9.9-1.3-3.4-.4A2.5,2.5,0,0,0,341.7,336Zm-18.4-16.9c11,2.2,21.9,4.7,32.9,7.1l23.5,5.4c-5.4-1-10.9-1.8-16.4-2.6l-21.1-4.4c-14.4-2.9-28.7-6.1-43-9.3a24.7,24.7,0,0,0-3.6-1.1C304.9,314.9,314.4,317.2,323.3,319.1Zm.2,16.3L312.9,334c-5.1-.8-10.1-1.8-15.1-3.1a1.6,1.6,0,0,0-.8-1.2l10.6,2.1Zm68.2,28c-5.7-.6-11.4-2.1-17.1-3.1-7.4-1.2-14.8-2.3-22.2-3.7,8.8,1.5,17.6,2.7,26.4,3.8a89.8,89.8,0,0,1,16.4,3.2l.6.2Zm.7-6.5a1.6,1.6,0,0,0-1.8.8q-3.5-.7-6.9-1.2c-12.2-1.8-24.5-3.1-36.6-5.3s-23.4-5.2-35.1-7.8c-5.4-1.2-10.9-2.5-16.4-3.6,5.5.8,11.1,1.4,16.4,2.3,11.2,1.8,22.2,4.4,33.4,5.8,5.8.7,11.1,2.6,16.8,3.7s9.9,1.2,14.9,1.8,10.8,1.6,16.3,2.2l4,.4a69.3,69.3,0,0,0,12,3.6A2.5,2.5,0,0,0,412,358l.5-.2a2.4,2.4,0,0,0,.2,2.2h-.5C405.7,360,398.9,358.2,392.4,356.9Zm23.8,4.4a2.6,2.6,0,0,0-1.9,3.7H414c-1.3.6-1.3,2.2-.6,3.3a24,24,0,0,0-4,1.7,2.1,2.1,0,0,0-1.1,2.2,1.3,1.3,0,0,0-.7-.5l-1.7-.7a.3.3,0,0,0,.1-.2c1.8-.2,2.1-2.5,1-3.8h.2c2.4,1.6,4.7-2.3,2.2-3.9h2.8a1.7,1.7,0,0,0,1.4-2.6H415a1.7,1.7,0,0,0,1.2.6Zm7.7-1c-.1-.1-.2-.3-.4-.4,4.2-1.2,8.3-2.7,12.5-3.6h.4c8.4-1.4,16.7-3.3,25-5.4a2.2,2.2,0,0,0,1,2.5c-5.1,1.3-10.1,2.5-15.3,3.4C439.4,357.9,431.7,359.2,423.9,360.3ZM473,336.5c-6.5,2.7-12.7,5.6-19.3,7.8l-18.8,6.2-6.6,2.3c-3.4.3-6.9.6-10.4.7a2.3,2.3,0,0,0-2.2,2.6l-1.2.2-.8.2a2.3,2.3,0,0,0-1.4-3,50.5,50.5,0,0,0-5.3-1.2,24.6,24.6,0,0,0,4.7,0h.2a2,2,0,0,0,2-.8l1.3-.3.6-.3a2.3,2.3,0,0,0,2.1.8c2.9-.4,5.5-1.6,8.3-2.4s6.6-.8,9.9-1.3c6.6-1,12.5-4.4,18.7-6.5s12.4-3.1,18.4-5.1Z" style="fill:#66c8c7"/><path d="M492.6,315.8c-2.7-1.3-5.7-1.6-8.6-2.2l-11.8-2.2q-5.2-.9-10.5-2.1c-3.8-.9-7.4-2.2-11.3-3a146,146,0,0,1-21.5-5.1c-7.1-2.4-14.2-3.5-21.7-4.6s-14.7-2.5-22.1-3.7a51.2,51.2,0,0,0-9.6-.9,106.9,106.9,0,0,1-11.3-.6c-3.5-.2-6.9-.5-10.3-.9s-7.5-.4-11.3-.5-6.8-1.2-10.3-1.3-6.9,1-10.3,2.1c-7.9,2.4-15.3,5.1-23.5,6.1-3.7.4-7.5.5-11.2,1.4l-5.5,1.5c-1.9.4-3.9,1.7-5.8,1.9a.5.5,0,0,0-.5.3c-1.5.6-3.5,1.4-2.5,2.4s2.3.2,3.1.2l3.3.2a71.1,71.1,0,0,0,8.9,2c4,.2,8-.9,11.9.2s6.9,2.3,10.5,2.9,7.9,1,11.6,1.8,7.5,1,11.2,1.7,8.2,2.5,12.4,3.6a53.6,53.6,0,0,0,8.9,1.6,31.4,31.4,0,0,1,6.1.5c2,.6,3.9,1.4,5.9,1.9,3.6.9,7.5,1.2,11.2,1.9s8.5,1.8,12.7,2.8a119.5,119.5,0,0,1,23.1,8.1,18,18,0,0,0,8.4,2.3c3.6-.3,7-2,10.4-3.1s6.8-2.8,10.5-3.4a66.8,66.8,0,0,0,10.9-2.7c3.9-1.4,8-2.2,12-3.6a89.4,89.4,0,0,1,12.6-3.2c3.1-.7,6.2-1.3,9.4-1.8,1.3-.2,4.2-.3,4.8-1.7A.6.6,0,0,0,492.6,315.8Z" style="fill:#66c8c7"/><path d="M355,363.8a42.7,42.7,0,0,1-9.4-2.1l-5.1-1.4a113.4,113.4,0,0,0-15.5-2.2c-.9,0-1.2-.7-1.3-1.3h-.1a1.2,1.2,0,0,1-.3-.9v-5.9c.1-3.6.2-7.3,0-11-.1-1.9-.2-3.8-.4-5.7a67.5,67.5,0,0,1-.5-9.1c.2-4.9,1-8.4,2.5-10.1s4-2.6,6.3-3.3l1.7-.5c7.4-2.7,15.1-5.1,22.5-7.4l6.8-2.1c2.3-.8,4.8-1.5,7.2-2.1s5.4-1.5,8.1-2.4l2-.6a38.9,38.9,0,0,1,8.1-2.2h.7a7.1,7.1,0,0,1,2-.2,24.5,24.5,0,0,1,7.8,1.8l3.2,1c5.6,1.6,12.1,2.1,17.7,2.6h.3a1.4,1.4,0,0,1,1.2.7,1.6,1.6,0,0,1,.2,1.4c-1,2.2-4.5,2.9-7.3,3.5a15.3,15.3,0,0,0-2.5.6,63.4,63.4,0,0,0-9.7,3.9c-2.5,1.1-5.2,2.4-7.9,3.3s-6.6,2.5-9.8,3.9-5.4,2.3-8.2,3.3a91,91,0,0,1-10.2,2.9l-4.4,1.2h-.3v.3a156.4,156.4,0,0,1-1.6,19.7c-.2,2-.5,4.1-.7,6.1-.5,4.3-1,8.7-1.8,12.9h-.1a1.4,1.4,0,0,1-.2,1.1,1,1,0,0,1-.9.4Z" style="fill:#333031"/><path d="M390.3,293.4a24.6,24.6,0,0,1,7.7,1.8l3.2,1.1a99.1,99.1,0,0,0,17.8,2.5h.3a1.1,1.1,0,0,1,.9.5.9.9,0,0,1,.1,1c-.9,2.1-4.2,2.8-6.9,3.3l-2.6.6a75.5,75.5,0,0,0-9.7,3.9c-2.6,1.2-5.2,2.4-7.9,3.4s-6.6,2.5-9.8,3.8l-8.2,3.3c-3.3,1.2-6.8,2.1-10.2,3l-4.4,1.1-.6.2v.5a178.3,178.3,0,0,1-1.5,19.7c-.3,2-.5,4.1-.8,6.1-.5,4.2-1,8.6-1.8,12.8h-.1v.2a1.9,1.9,0,0,1-.2.8l-.6.2H355a42.9,42.9,0,0,1-9.3-2l-5.1-1.4a101,101,0,0,0-15.6-2.2,1,1,0,0,1-.9-1v-.3l-.2-.2c-.2-.1-.2-.3-.2-.6v-5.8q.2-5.5,0-11.1c-.1-1.9-.3-3.8-.4-5.7a68.5,68.5,0,0,1-.5-9.1c.2-4.8,1-8.2,2.4-9.9s3.8-2.4,6.1-3.1l1.7-.6c7.4-2.6,15.1-5,22.5-7.3l6.8-2.2,7.2-2,8.1-2.4,2-.7a46.3,46.3,0,0,1,8.1-2.2h.8l1.8-.2m0-.7-2,.2h-.7c-3.6.5-6.8,1.8-10.2,2.9-5.1,1.6-10.3,2.8-15.4,4.4-9.7,3.1-19.6,6.1-29.2,9.5-2.6.9-6.4,1.7-8.2,3.9s-2.4,7.3-2.5,10.4c-.2,5,.6,9.9.8,14.8s0,11.3,0,16.9a1.3,1.3,0,0,0,.5,1.1,1.5,1.5,0,0,0,1.6,1.7,100.2,100.2,0,0,1,15.4,2.2c4.9,1.1,9.5,3.1,14.6,3.4h.1a1.6,1.6,0,0,0,1.5-1.9h0c1.3-6.2,1.8-12.8,2.6-19a165.1,165.1,0,0,0,1.6-19.8c4.8-1.3,9.9-2.3,14.6-4.1s11.9-5,18-7.1,11.4-5.4,17.6-7.3c2.9-.9,8.6-1,10-4.3a1.9,1.9,0,0,0-1.7-2.6H419a87,87,0,0,1-17.6-2.6c-3.5-.9-7.4-2.8-11.1-2.8Z" style="fill:#fff"/><path d="M418.4,192.7a39.1,39.1,0,0,0-4.9.3l5.5-1.5c2.7-.8,1.6-5.2-1.2-4.4-25.3,7.4-51.4,12.1-76.1,21.3l-1.2-.2a2.2,2.2,0,0,0-2.1-2c-4.6-.4-8.9-3.4-13.3-4.8s-11.2-2.7-16.9-3.9L275.4,190c-11-2.4-21.9-4.9-32.9-7.1s-21.4-4.7-31.9-4.3a1.9,1.9,0,0,0-1.3.5,2.4,2.4,0,0,0-2-1.6c-1.8-.2-3.4-.9-5.1-1.1a43.4,43.4,0,0,0-5.1-.1,2.3,2.3,0,0,0-2.2,2.4c-2,.5-2.5,3.8-.1,4.3l1.6.4c-1.6.6-2.4,3-.4,3.9l3.5,1.4h-.1a1.9,1.9,0,0,0-2.1,1.3H196c-2.9-.2-2.9,4.3,0,4.5h.7a2.2,2.2,0,0,0,.5,2.2h-.8c-2.1-.3-3,2.9-.9,3.2h.4a2.1,2.1,0,0,0,1.8,1.1h.7l-.3.4-3.2-.5c-2.6-.2-2.9,3.3-.9,4.3a2.3,2.3,0,0,0,1.4,3l2.8,1,.3.2.4.2.3.3c-2.7.3-2.7,4.6.2,4.5a106.6,106.6,0,0,1,23.3,2.5l4.2,1.1q3.4.9,6.9,1.5c10.9,2.9,21.6,6.4,32.5,8.9l2,.4c9.2,2,18.6,3.4,27.7,5s17.7,5.8,26.7,7c2.1,1,4.1,2.4,6.3,3.1a1.5,1.5,0,0,0,2-1.7,2.2,2.2,0,0,0,2.9.6c2.7-1.5,6.7-1.9,9.7-2.6l12.6-2.8c6.6-1.7,13.4-2.6,20-4.5,3.6-1.1,7-3,10.6-4.1s7.9-2,11.9-2.9,10.6-2.1,15.2-4.7l4.6-.9c2.2-.4,1.3-3.7-.9-3.3h-.5a2.1,2.1,0,0,0-.6-.8,6.2,6.2,0,0,0,1.9-1.2,1.7,1.7,0,0,0-1.4-2.9,1.9,1.9,0,0,0,.1-1.9l1-.6a1.7,1.7,0,0,0-.2-3l.4-.3c2-2-1.1-5.2-3.2-3.1-4.5,4.4-13,5.9-18.8,7.7-2.9,1-5.9,1.8-8.9,2.6l7.9-3.4h.1a1.5,1.5,0,0,0,1,.3c7.8-.3,14.2-7.4,21.6-9.4,2.1-.5,1.2-3.8-.9-3.2l-1.5.4a1.5,1.5,0,0,0,1-1.3h1.8C421.3,197.2,421.3,192.7,418.4,192.7Zm-50.1,16.5a54,54,0,0,1-10.8,3.4l-1.9.3Zm-46.5-4-2.1-.3-3.7-1.1Zm7,7.7a2.2,2.2,0,0,0,2.7-1.6l2.9.5a2.4,2.4,0,0,0,.1,2.6l-3.5,1a2,2,0,0,0-1.5-2.4c-13.1-3.3-26.4-5.8-39.6-8.1l17.6,2.7C314.6,209.2,321.7,211,328.8,212.9Zm-63-1.6q19.1,2.4,38.1,5.1l17.8,2.5a3.3,3.3,0,0,0,0,1.4l-2.8-.3-4.6-1.4a2.1,2.1,0,0,0-2.3.9c-3.3-.3-6.5-.6-9.6-1.1-5.2-.8-10.5-.8-15.7-1.9s-10-2.9-15.2-3.6c-6.8-.9-13.6-2.1-20.3-3.3C256.1,210.1,260.9,210.6,265.8,211.3Zm-1.9-6.2,1.2.2,12.7,3-9.9-1.3-3.3-.4A2.3,2.3,0,0,0,263.9,205.1Zm-18.4-17c11,2.3,22,4.8,32.9,7.2l23.5,5.3c-5.4-1-10.8-1.8-16.3-2.5l-21.1-4.4c-14.4-2.9-28.7-6.2-43-9.4a22.4,22.4,0,0,0-3.7-1C227.1,184,236.6,186.3,245.5,188.1Zm.2,16.4c-3.5-.5-7.1-.9-10.6-1.5s-10.1-1.7-15-3a2.2,2.2,0,0,0-.8-1.3l10.5,2.2Q237.8,202.6,245.7,204.5Zm68.2,28c-5.7-.7-11.4-2.2-17.1-3.1-7.3-1.3-14.8-2.3-22.1-3.7,8.7,1.4,17.5,2.6,26.3,3.7a92.7,92.7,0,0,1,16.5,3.3l.6.2Zm.8-6.6a1.9,1.9,0,0,0-1.9.9l-6.8-1.3c-12.3-1.7-24.5-3.1-36.7-5.3s-23.4-5.2-35.1-7.8c-5.3-1.1-10.8-2.5-16.4-3.6,5.6.8,11.1,1.5,16.5,2.4,11.1,1.8,22.2,4.3,33.3,5.8,5.8.7,11.2,2.5,16.9,3.7s9.8,1.2,14.8,1.8,10.9,1.6,16.3,2.2l4,.3c3.9,1.4,7.8,3,12,3.6a2.5,2.5,0,0,0,2.7-1.6h.5a2.6,2.6,0,0,0,.1,2.1h-.4C327.9,229,321.1,227.2,314.7,225.9Zm23.7,4.5a2.5,2.5,0,0,0-1.8,3.7h-.3a2.1,2.1,0,0,0-.7,3.2,35.2,35.2,0,0,0-3.9,1.7,2.1,2.1,0,0,0-1.1,2.2l-.7-.4-1.7-.7v-.3c1.8-.2,2.2-2.5,1-3.7s.2,0,.2.1c2.5,1.5,4.7-2.4,2.3-3.9h2.8c1.5,0,1.9-1.7,1.4-2.7a1.1,1.1,0,0,0,.8.1h.6a2,2,0,0,0,1.1.6Zm7.8-1a1,1,0,0,0-.5-.4c4.2-1.2,8.4-2.8,12.6-3.7h.4c8.4-1.3,16.7-3.3,25-5.3a2,2,0,0,0,.9,2.5,153.9,153.9,0,0,1-15.3,3.3C361.6,227,353.9,228.3,346.2,229.4Zm49-23.8c-6.4,2.6-12.7,5.5-19.3,7.8l-18.8,6.2-6.5,2.2c-3.5.4-7,.6-10.5.7a2.1,2.1,0,0,0-2.1,2.6l-1.3.2-.8.3a2.2,2.2,0,0,0-1.4-3l-5.3-1.3a24.8,24.8,0,0,0,4.7.1h.3a2.2,2.2,0,0,0,2-.9l1.2-.2.6-.3a2.3,2.3,0,0,0,2.1.7c3-.4,5.5-1.6,8.4-2.3s6.6-.8,9.9-1.4c6.5-1,12.4-4.4,18.7-6.4s12.3-3.2,18.4-5.1Z" style="fill:#66c8c7"/><path d="M414.9,184.9c-2.8-1.3-5.7-1.7-8.7-2.3l-11.7-2.1L384,178.4c-3.8-1-7.5-2.3-11.3-3-7.2-1.4-14.6-2.8-21.5-5.1s-14.3-3.6-21.7-4.6-14.8-2.5-22.2-3.8a62,62,0,0,0-7.4-.8,14.6,14.6,0,0,1,4.2,2.3,14.1,14.1,0,0,1,5.8,10.7c.3,7-5.9,9.5-12,9.9-7.8.5-16.3-1.2-23.6-3.9s-13.8-6.4-21.6-7.9c-3.4-.7-6.7-1.2-9.9-2.6l-5.7-2.8c-3.4-.5-6.6-1.4-10-2a45,45,0,0,1-6.4,1.1c-3.7.5-7.5.5-11.1,1.5l-5.5,1.4c-1.9.5-4,1.7-5.9,1.9-.2,0-.3.2-.4.4-1.6.5-3.5,1.4-2.5,2.3s2.3.2,3,.3l3.3.2c3,.6,5.9,1.7,9,1.9s8-.8,11.8.2,6.9,2.3,10.6,3,7.8.9,11.6,1.8,7.4.9,11.1,1.7,8.3,2.5,12.4,3.6a56.4,56.4,0,0,0,9,1.5c2.1.2,3.9,0,6,.6s3.9,1.3,5.9,1.8c3.7.9,7.6,1.2,11.3,1.9s8.4,1.9,12.6,2.9a112,112,0,0,1,23.2,8.1c2.6,1.2,5.4,2.4,8.4,2.2s7-1.9,10.4-3,6.7-2.8,10.5-3.4a57.1,57.1,0,0,0,10.8-2.8c4-1.4,8.1-2.1,12-3.5a105.9,105.9,0,0,1,12.6-3.3c3.2-.6,6.3-1.3,9.5-1.7,1.3-.2,4.2-.3,4.8-1.8S415.2,185,414.9,184.9Z" style="fill:#66c8c7"/><path d="M277.3,232.8a43.4,43.4,0,0,1-9.5-2l-2.3-.7h-.1l-2.7-.7a95.4,95.4,0,0,0-11.7-1.9l-3.8-.3h-.5a2.4,2.4,0,0,1-1.1-.9,5.3,5.3,0,0,1-.1-1.2v-.2c0-1.8.1-3.6.1-5.4v-.9c.1-3.3.1-7,0-10.6-.1-1.9-.3-3.9-.5-5.7s-.5-6.1-.4-9.1q.3-7.5,2.4-10.2c1.4-1.7,4-2.5,6.3-3.2l1.8-.6,8.7-2.9,3.4,1.4a71,71,0,0,0,6.9,2.8,61.6,61.6,0,0,0,21,4.1h2.7c3.9-.3,12.7-1.7,12.4-10.3a14.5,14.5,0,0,0-5.4-10.6,28.3,28.3,0,0,1,5-1.2h.7l2-.2a23.9,23.9,0,0,1,7.7,1.8l3.3,1.1a96.9,96.9,0,0,0,17.6,2.5h.4a1.7,1.7,0,0,1,1.2.7,1.1,1.1,0,0,1,.1,1.3c-1,2.3-4.4,3-7.2,3.5l-2.6.6a80.4,80.4,0,0,0-9.6,3.9c-2.6,1.2-5.2,2.4-8,3.4s-6.5,2.5-9.7,3.8l-8.2,3.3c-3.3,1.2-6.9,2.1-10.3,3l-4.4,1.1h-.2v.3a179.6,179.6,0,0,1-1.6,19.7c-.3,2-.5,4-.7,6.1-.5,4.2-1,8.6-1.9,12.8h0v.2a2,2,0,0,1-.3,1.1,1.1,1.1,0,0,1-.8.3Z" style="fill:#333031"/><path d="M312.6,162.5a23.4,23.4,0,0,1,7.6,1.8l3.3,1c5.6,1.6,12.1,2.2,17.7,2.6h.4a1.2,1.2,0,0,1,.9.5,1.1,1.1,0,0,1,.1,1c-.9,2.1-4.3,2.7-7,3.3l-2.6.5a75.9,75.9,0,0,0-9.7,4c-2.5,1.1-5.2,2.4-7.9,3.3s-6.6,2.5-9.7,3.9-5.5,2.3-8.3,3.3a85.4,85.4,0,0,1-10.2,2.9l-4.4,1.2h-.5v.6a154.9,154.9,0,0,1-1.6,19.6c-.2,2-.5,4.1-.7,6.1-.5,4.3-1,8.7-1.9,12.8h0v.2h0a.8.8,0,0,1-.2.8.5.5,0,0,1-.5.3h-.1a39.7,39.7,0,0,1-9.4-2.1l-2.3-.6-2.8-.8c-3.5-.8-7.7-1.4-11.7-1.9l-3.8-.3h-.5a1.8,1.8,0,0,1-.8-.7,3.1,3.1,0,0,1-.1-1v-.2c0-1.8,0-3.6.1-5.3v-1c0-3.3.1-7-.1-10.6a54.6,54.6,0,0,0-.4-5.8,67,67,0,0,1-.4-9c.1-4.9.9-8.2,2.3-10s3.9-2.4,6.1-3.1l1.8-.5,8.6-2.9,3.2,1.3,6.9,2.9a62.5,62.5,0,0,0,21.2,4H298c8.3-.6,12.9-4.5,12.7-10.7a15.1,15.1,0,0,0-5.1-10.4,27.1,27.1,0,0,1,4.3-1h.9l1.8-.2m0-.8a6.4,6.4,0,0,0-2,.3h-.8a26.3,26.3,0,0,0-5.7,1.3h0a14.1,14.1,0,0,1,5.8,10.7c.3,7-5.9,9.5-12,9.9h-2.7a61.6,61.6,0,0,1-20.9-4l-10.4-4.3c-3,.9-5.9,1.9-8.9,3s-6.3,1.6-8.2,3.9-2.4,7.3-2.5,10.4c-.2,5,.7,9.8.9,14.8s.1,7,0,10.6v6.3h0a4.6,4.6,0,0,0,.1,1.6,3.5,3.5,0,0,0,1.2,1l.7.2,3.8.3a100.3,100.3,0,0,1,11.6,1.9l2.8.7h0c3.9,1.1,7.8,2.5,11.8,2.7h.2a1.5,1.5,0,0,0,1.4-1.9.1.1,0,0,0,.1-.1c1.2-6.2,1.7-12.7,2.6-19a184.5,184.5,0,0,0,1.5-19.7c4.9-1.3,10-2.4,14.7-4.1s11.9-5.1,18-7.2,11.4-5.4,17.5-7.2c2.9-.9,8.7-1.1,10.1-4.3a1.9,1.9,0,0,0-1.7-2.6h-.3a93.3,93.3,0,0,1-17.6-2.5c-3.5-1-7.4-2.9-11.1-2.9Z" style="fill:#fff"/></svg>