<svg xmlns="http://www.w3.org/2000/svg" viewBox="0 0 360 360"><title>illustr--settingsPage</title><path d="M288.2,64.3c-1.6-.9-3.3-1.4-7.8-1.4H80.1c-4.6,0-6.2.5-7.8,1.4A8.5,8.5,0,0,0,68.5,68c-.9,1.7-1.4,3.3-1.4,7.8V276.2c0,4.5.5,6.2,1.4,7.8a9.3,9.3,0,0,0,3.8,3.8c1.6.8,3.2,1.3,7.8,1.3H280.4c4.5,0,6.2-.5,7.8-1.3A9.9,9.9,0,0,0,292,284c.9-1.6,1.4-3.3,1.4-7.8V75.8c0-4.5-.5-6.1-1.4-7.8A9,9,0,0,0,288.2,64.3Zm3.9,211.9c0,4.6-.5,5.9-1.2,7.2a7.3,7.3,0,0,1-3.3,3.2c-1.3.8-2.5,1.3-7.2,1.3H80.1c-4.7,0-5.9-.5-7.2-1.3a7.3,7.3,0,0,1-3.3-3.2c-.7-1.3-1.2-2.6-1.2-7.2V75.8c0-4.6.5-5.9,1.2-7.1a7,7,0,0,1,3.3-3.3c1.3-.8,2.5-1.3,7.2-1.3H280.4c4.7,0,5.9.5,7.2,1.3a7,7,0,0,1,3.3,3.3c.7,1.2,1.2,2.5,1.2,7.1Z" style="fill:#afadad"/><rect x="115" y="76.3" width="133.4" height="203.68" rx="11.2" ry="11.2" style="fill:#66c8c7"/><path d="M237.2,281h-111A12.2,12.2,0,0,1,114,268.8V87.4a12.1,12.1,0,0,1,12.2-12.1h111a12.2,12.2,0,0,1,12.2,12.1V268.8A12.2,12.2,0,0,1,237.2,281ZM126.2,77.3A10.2,10.2,0,0,0,116,87.4V268.8A10.2,10.2,0,0,0,126.2,279h111a10.2,10.2,0,0,0,10.1-10.2V87.4a10.1,10.1,0,0,0-10.1-10.1Z" style="fill:#e8f1f1"/><circle cx="152.4" cy="116.8" r="25.3" style="fill:#66c8c7"/><path d="M152.4,143.1a26.3,26.3,0,1,1,26.3-26.3A26.3,26.3,0,0,1,152.4,143.1Zm0-50.6a24.3,24.3,0,1,0,24.3,24.3A24.3,24.3,0,0,0,152.4,92.5Z" style="fill:#e8f1f1"/><path d="M173,117.7h-9.4a1,1,0,0,1-1-1,1.1,1.1,0,0,1,1-1H173a1,1,0,0,1,1,1A.9.9,0,0,1,173,117.7Z" style="fill:#e8f1f1"/><path d="M152.4,106.6a.9.9,0,0,1-1-1V96.2a.9.9,0,0,1,1-1,1,1,0,0,1,1,1v9.4A1,1,0,0,1,152.4,106.6Z" style="fill:#e8f1f1"/><path d="M152.4,128.2a11.4,11.4,0,1,1,11.4-11.4A11.4,11.4,0,0,1,152.4,128.2Zm0-20.8a9.4,9.4,0,1,0,9.4,9.4A9.4,9.4,0,0,0,152.4,107.4Z" style="fill:#e8f1f1"/><path d="M141.2,117.9h-9.3a1.1,1.1,0,0,1-1.1-1,1,1,0,0,1,1.1-1h9.3a1,1,0,0,1,1.1,1A1.1,1.1,0,0,1,141.2,117.9Z" style="fill:#e8f1f1"/><path d="M152.4,138.4a1.1,1.1,0,0,1-1-1V128a1,1,0,0,1,1-1,1,1,0,0,1,1.1,1v9.4A1.1,1.1,0,0,1,152.4,138.4Z" style="fill:#e8f1f1"/><path d="M167.1,132.3a1.1,1.1,0,0,1-.8-.3l-6.6-6.6a1.1,1.1,0,0,1,0-1.5,1,1,0,0,1,1.4,0l6.7,6.7a1,1,0,0,1,0,1.4A1.1,1.1,0,0,1,167.1,132.3Z" style="fill:#e8f1f1"/><path d="M160.3,109.8a.9.9,0,0,1-.7-.3,1,1,0,0,1,0-1.4l6.6-6.6a1.1,1.1,0,0,1,1.5,0,1,1,0,0,1,0,1.4l-6.7,6.6A.9.9,0,0,1,160.3,109.8Z" style="fill:#e8f1f1"/><path d="M144.5,109.9a.9.9,0,0,1-.7-.3l-6.7-6.6a1,1,0,0,1,1.4-1.4l6.7,6.6a1,1,0,0,1,0,1.4A1.1,1.1,0,0,1,144.5,109.9Z" style="fill:#e8f1f1"/><path d="M137.9,132.4a.9.9,0,0,1-.7-.3,1.1,1.1,0,0,1,0-1.5l6.6-6.6a1,1,0,0,1,1.4,1.4l-6.6,6.7A1.1,1.1,0,0,1,137.9,132.4Z" style="fill:#e8f1f1"/><circle cx="214.1" cy="116.8" r="25.3" style="fill:#66c8c7"/><path d="M214.1,143.1a26.3,26.3,0,1,1,26.3-26.3A26.2,26.2,0,0,1,214.1,143.1Zm0-50.6a24.3,24.3,0,1,0,24.3,24.3A24.2,24.2,0,0,0,214.1,92.5Z" style="fill:#e8f1f1"/><path d="M234.7,117.7h-9.4a1,1,0,0,1-1-1,1.1,1.1,0,0,1,1-1h9.4a1,1,0,0,1,1,1A.9.9,0,0,1,234.7,117.7Z" style="fill:#e8f1f1"/><path d="M214,106.6a1,1,0,0,1-1-1V96.2a1,1,0,0,1,1-1,1,1,0,0,1,1.1,1v9.4A1,1,0,0,1,214,106.6Z" style="fill:#e8f1f1"/><path d="M214.1,128.2a11.4,11.4,0,1,1,11.4-11.4A11.4,11.4,0,0,1,214.1,128.2Zm0-20.8a9.4,9.4,0,1,0,9.4,9.4A9.4,9.4,0,0,0,214.1,107.4Z" style="fill:#e8f1f1"/><path d="M202.9,117.9h-9.4a1.1,1.1,0,0,1-1-1,1,1,0,0,1,1-1h9.4a.9.9,0,0,1,1,1A1,1,0,0,1,202.9,117.9Z" style="fill:#e8f1f1"/><path d="M214.1,138.4a1.1,1.1,0,0,1-1-1V128a1,1,0,0,1,1-1,.9.9,0,0,1,1,1v9.4A1,1,0,0,1,214.1,138.4Z" style="fill:#e8f1f1"/><path d="M228.7,132.3a1.1,1.1,0,0,1-.7-.3l-6.6-6.6a1.1,1.1,0,0,1,0-1.5,1,1,0,0,1,1.4,0l6.6,6.7a1,1,0,0,1,0,1.4A.9.9,0,0,1,228.7,132.3Z" style="fill:#e8f1f1"/><path d="M222,109.8a.9.9,0,0,1-.7-.3,1,1,0,0,1,0-1.4l6.6-6.6a1,1,0,1,1,1.4,1.4l-6.6,6.6A1.1,1.1,0,0,1,222,109.8Z" style="fill:#e8f1f1"/><path d="M206.2,109.9a1.1,1.1,0,0,1-.8-.3l-6.6-6.6a1,1,0,0,1,1.4-1.4l6.7,6.6a1,1,0,0,1,0,1.4A1.1,1.1,0,0,1,206.2,109.9Z" style="fill:#e8f1f1"/><path d="M199.6,132.4a1.1,1.1,0,0,1-.8-.3,1.1,1.1,0,0,1,0-1.5l6.7-6.6a1,1,0,0,1,1.4,1.4l-6.6,6.7A1.1,1.1,0,0,1,199.6,132.4Z" style="fill:#e8f1f1"/><rect x="129.8" y="205.8" width="104.9" height="10.41" rx="1.1" ry="1.1" style="fill:#66c8c7"/><path d="M233.6,217.2H130.9a2.1,2.1,0,0,1-2.1-2.1v-8.2a2.1,2.1,0,0,1,2.1-2.1H233.6a2.1,2.1,0,0,1,2.1,2.1v8.2A2.1,2.1,0,0,1,233.6,217.2ZM130.9,206.8h-.1v8.2H233.7v-8.2H130.9Z" style="fill:#e8f1f1"/><circle cx="229.4" cy="211" r="7.9" style="fill:#66c8c7"/><path d="M229.4,219.9a8.9,8.9,0,1,1,8.8-8.9A8.9,8.9,0,0,1,229.4,219.9Zm0-15.8a6.9,6.9,0,1,0,6.8,6.9A6.9,6.9,0,0,0,229.4,204.1Z" style="fill:#e8f1f1"/><circle cx="229.4" cy="242.8" r="4.7" style="fill:#66c8c7"/><path d="M229.4,248.5a5.7,5.7,0,1,1,5.7-5.7A5.7,5.7,0,0,1,229.4,248.5Zm0-9.4a3.7,3.7,0,0,0,0,7.4,3.7,3.7,0,0,0,0-7.4Z" style="fill:#e8f1f1"/><circle cx="209" cy="242.8" r="4.7" style="fill:#66c8c7"/><path d="M209,248.5a5.7,5.7,0,0,1,0-11.4,5.7,5.7,0,0,1,0,11.4Zm0-9.4a3.7,3.7,0,1,0,0,7.4,3.7,3.7,0,0,0,0-7.4Z" style="fill:#e8f1f1"/><circle cx="188.7" cy="242.8" r="4.7" style="fill:#66c8c7"/><path d="M188.7,248.5a5.7,5.7,0,0,1,0-11.4,5.7,5.7,0,0,1,0,11.4Zm0-9.4a3.7,3.7,0,0,0,0,7.4,3.7,3.7,0,1,0,0-7.4Z" style="fill:#e8f1f1"/><circle cx="168.3" cy="242.8" r="4.7" style="fill:#66c8c7"/><path d="M168.3,248.5a5.7,5.7,0,1,1,5.8-5.7A5.7,5.7,0,0,1,168.3,248.5Zm0-9.4a3.7,3.7,0,0,0,0,7.4,3.7,3.7,0,0,0,0-7.4Z" style="fill:#e8f1f1"/><circle cx="229.4" cy="262.4" r="4.7" style="fill:#66c8c7"/><path d="M229.4,268.1a5.8,5.8,0,1,1,5.7-5.7A5.8,5.8,0,0,1,229.4,268.1Zm0-9.4a3.6,3.6,0,0,0-3.7,3.7,3.7,3.7,0,0,0,3.7,3.7,3.8,3.8,0,0,0,3.7-3.7A3.7,3.7,0,0,0,229.4,258.7Z" style="fill:#e8f1f1"/><circle cx="209" cy="262.4" r="4.7" style="fill:#66c8c7"/><path d="M209,268.1a5.8,5.8,0,1,1,5.7-5.7A5.7,5.7,0,0,1,209,268.1Zm0-9.4a3.7,3.7,0,0,0-3.7,3.7,3.8,3.8,0,0,0,3.7,3.7,3.7,3.7,0,0,0,3.7-3.7A3.6,3.6,0,0,0,209,258.7Z" style="fill:#e8f1f1"/><circle cx="188.7" cy="262.4" r="4.7" style="fill:#66c8c7"/><path d="M188.7,268.1a5.8,5.8,0,0,1,0-11.5,5.8,5.8,0,0,1,0,11.5Zm0-9.4a3.6,3.6,0,0,0-3.7,3.7,3.7,3.7,0,0,0,3.7,3.7,3.8,3.8,0,0,0,3.7-3.7A3.7,3.7,0,0,0,188.7,258.7Z" style="fill:#e8f1f1"/><circle cx="168.3" cy="262.4" r="4.7" style="fill:#66c8c7"/><path d="M168.3,268.1a5.8,5.8,0,1,1,5.8-5.7A5.8,5.8,0,0,1,168.3,268.1Zm0-9.4a3.7,3.7,0,0,0-3.7,3.7,3.8,3.8,0,0,0,3.7,3.7,3.7,3.7,0,0,0,3.7-3.7A3.6,3.6,0,0,0,168.3,258.7Z" style="fill:#e8f1f1"/><rect x="129.8" y="182.8" width="104.9" height="10.41" rx="1.1" ry="1.1" style="fill:#66c8c7"/><path d="M233.6,194.2H130.9a2.1,2.1,0,0,1-2.1-2.1v-8.2a2.1,2.1,0,0,1,2.1-2.1H233.6a2.1,2.1,0,0,1,2.1,2.1v8.2A2.1,2.1,0,0,1,233.6,194.2ZM130.9,183.8h-.1v8.2H233.7v-8.2H130.9Z" style="fill:#e8f1f1"/><circle cx="204.9" cy="188" r="7.9" style="fill:#66c8c7"/><path d="M204.9,196.9a8.9,8.9,0,1,1,8.9-8.9A8.9,8.9,0,0,1,204.9,196.9Zm0-15.8A6.9,6.9,0,0,0,198,188a6.8,6.8,0,0,0,6.9,6.8,6.7,6.7,0,0,0,6.8-6.8A6.8,6.8,0,0,0,204.9,181.1Z" style="fill:#e8f1f1"/><rect x="129.8" y="159.8" width="104.9" height="10.41" rx="1.1" ry="1.1" style="fill:#66c8c7"/><path d="M233.6,171.2H130.9a2.2,2.2,0,0,1-2.1-2.1v-8.2a2.1,2.1,0,0,1,2.1-2.1H233.6a2.1,2.1,0,0,1,2.1,2.1v8.2A2.1,2.1,0,0,1,233.6,171.2ZM130.9,160.8h-.1v8.2H233.7v-8.2H130.9Z" style="fill:#e8f1f1"/><circle cx="219.1" cy="165" r="7.9" style="fill:#66c8c7"/><path d="M219.1,173.9A8.9,8.9,0,1,1,228,165,8.9,8.9,0,0,1,219.1,173.9Zm0-15.8a6.8,6.8,0,0,0-6.8,6.9,6.7,6.7,0,0,0,6.8,6.8A6.8,6.8,0,0,0,226,165,6.9,6.9,0,0,0,219.1,158.1Z" style="fill:#e8f1f1"/><path d="M140.2,176.6c-5.6-.4-7.9-3.6-8.9-8s-3.6-10.7-3.9-15.7c5.4-.5,10.9,0,14.9,1.8s5.9,6.3,7.9,10.1c1.1,2.1,2.5,4.2,3.5,6.3l-.3.4C151.1,175.9,145.2,177.1,140.2,176.6Z" style="fill:#333031"/><path d="M142.1,177.7h-2c-5.4-.5-8.5-3.3-9.8-8.9-.4-1.7-.9-3.5-1.5-5.3a46.6,46.6,0,0,1-2.4-10.5l.9-1.1c5.9-.6,11.5.1,15.5,1.9s5.7,5.2,7.3,8.5l1,2,1.5,2.6c.7,1.2,1.4,2.5,2,3.8l-.2,1.2h-.1C152.1,176.2,146.8,177.7,142.1,177.7Zm-13.6-23.9a54.5,54.5,0,0,0,2.2,9.1c.6,1.9,1.2,3.7,1.6,5.4,1.1,4.8,3.5,7,8,7.3h0c4.5.4,10.1-.6,12.2-4.6h0l-1.7-3.1-1.5-2.6-1-2.1c-1.6-3.2-3-6.1-6.4-7.6S133.7,153.5,128.5,153.8Z" style="fill:#e8f1f1"/><path d="M96.9,198.7l1.7,3.3c.5,1.3,1.3,2.5,1.8,3.8s1.3,5.5,2.3,8.2a82,82,0,0,1,4.4,15.6c.4,2.5.7,5.1,1.3,7.6A55.8,55.8,0,0,1,110,244c.7,5.3-.9,9.6-2.5,14.6-.8,2.5-.7,24.7-.5,26.6-.1,4-1.1,7.6-1.6,11.5a193.8,193.8,0,0,1-3.8,19.9c-.3,1-1.3,4.9-2.5,9.4a5.5,5.5,0,0,0,1.4,5.2c7.9,8.6,20.4,12.9,31.8,14.3a69.4,69.4,0,0,0,24-.8,5.4,5.4,0,0,0,4.2-6.2c-1.9-12-4.2-25.5-4.3-27.3s-.5-13.7-.8-16.3.8-24.1,1.7-27c3.4-10.9,9.3-21,13.6-31.5a120.2,120.2,0,0,0,5-15.4,36.5,36.5,0,0,0,1.4-12.6,1.3,1.3,0,0,0,.1-.6c-.4-4.9,1-10.8.6-14.6s-1-7.4-1.4-11.1.7-8.6,2-12.7-.9-9.1-1.3-12.4a60.1,60.1,0,0,0-1.3-8.5c-1.8-7.2-3.6-15.6-6-22.8,0,0-2.6-4.7-6.9-2.3s-4.7,2.4-6.2,5-1.3,5-1.4,7.7a57.6,57.6,0,0,0,.6,11c.7,3.8.5,7.7,1,11.5s-.2,5.9-1.8,9.8c-.5,1.2-1.3,4.4-2.3,5.2s-14.3,2.5-15.5,1.6c-3.3-2.4-5.9-4.9-6.4-9.1s-.5-6.6-1.4-9.9-1.7-4.4-2.2-6.9-.7-2.9-1-4.4-.7-2.6-.6-3.5,2.2-10.3,2.3-10.6a10.2,10.2,0,0,1,2.6-4.9c.3-.3,8.3-7.8,13.5-15.4s5.9-12.6,1-15.5c-2-1.3-5.2.5-7.3,1.4s-5.7,3.6-8.4,5.8l-.5.5c-1.8,1.6-4.9,4.7-6.3,6.1s-3.8,3.6-5.2,5.1-10.8,15.6-11.4,17.3-2.3,6.6-2.2,8-.7,4.5-1,8-7.8,18.4-8.5,19.4a18,18,0,0,0-3,14.9,41.4,41.4,0,0,0,2.7,7.7C95.3,192.3,95.9,195.5,96.9,198.7Z" style="fill:#333031"/><path d="M142.3,347.2a69.5,69.5,0,0,1-10.1-.7c-8-1-22.8-4.2-32.5-14.6a6.9,6.9,0,0,1-1.6-6.1l.4-1.2c1-4,1.9-7.3,2.1-8.2,1.4-6.5,2.9-13.1,3.8-19.8.2-1.4.4-2.7.7-4a60.6,60.6,0,0,0,.9-7.3c-.2-2.2-.4-24.3.5-27.1l.4-1c1.4-4.5,2.7-8.4,2.1-13a37.8,37.8,0,0,0-1-4.6l-.6-2.2c-.4-1.6-.6-3.4-.9-5a25.1,25.1,0,0,0-.4-2.7,87.6,87.6,0,0,0-4.3-15.3,22.1,22.1,0,0,1-1.2-4.2,23.4,23.4,0,0,0-1.1-4l-.9-1.9c-.3-.6-.7-1.2-1-1.9s-.6-1.4-1-2.1-.6-1.1-.6-1.3h0c-.4-1.1-.7-2.3-1-3.4s-1.2-4.1-1.9-6l-.4-.8a39.5,39.5,0,0,1-2.4-7.1A18.6,18.6,0,0,1,93.5,166c.7-.9,8-15.5,8.3-18.9.1-1.7.4-3.2.6-4.6a10.6,10.6,0,0,0,.4-3.2c-.1-1.5,1-4.8,2.2-8.4.7-2.1,9.1-15,11.7-17.7.8-.9,2-2,3.1-3.1l2.1-2,.5-.5,5.7-5.6.6-.5h.1l.3-.2a34.9,34.9,0,0,1,8.3-5.7l.6-.3c2.3-1.1,5.4-2.5,7.6-1.1a6.9,6.9,0,0,1,3.5,4.6c.7,3.2-.6,7.2-4.1,12.3-2.1,3.2-6.2,8.3-13.3,15.3l-.3.3a9.6,9.6,0,0,0-2.5,4.4v.2c-1.6,6.9-2.2,9.9-2.2,10.3a10.5,10.5,0,0,0,.2,1.3c.1.5.3,1.2.4,2l.6,2.4a12.9,12.9,0,0,0,.4,1.9,26.4,26.4,0,0,0,1.2,4,22.9,22.9,0,0,1,.9,2.8,37.2,37.2,0,0,1,1.3,7.9c.1.7.1,1.4.2,2.1.4,3.7,2.5,5.9,5.9,8.5,1.6.6,12.8,0,14.3-1.5a11.5,11.5,0,0,0,1.5-3.5l.5-1.3.2-.6c1.5-3.5,2.1-4.9,1.6-8.8-.2-1.7-.3-3.4-.4-5a44.8,44.8,0,0,0-.6-6.4,65.9,65.9,0,0,1-.6-11.2v-.4c.1-2.6.1-5.3,1.5-7.7s3.8-4,6.4-5.5h.2c4.1-2.2,7.2.8,8.3,2.7v.2c2,6.1,3.6,13.1,5.1,19.2q.4,2,.9,3.6a68.2,68.2,0,0,1,1.3,8.7c.1,1,.4,2.3.6,3.6.6,3.3,1.3,7.1.6,9.2s-2.3,8.1-1.9,12.3c.2,2,.5,4,.8,5.9l.6,5.2a32.6,32.6,0,0,1-.3,6.8,52.3,52.3,0,0,0-.3,7.8,1.4,1.4,0,0,1-.1.9,40.3,40.3,0,0,1-1.4,12.7,137.7,137.7,0,0,1-5,15.4c-1.7,4-3.6,8-5.4,11.8a160.6,160.6,0,0,0-8.2,19.7c-.9,2.8-1.9,23.8-1.7,26.6s.4,7.3.6,11.6c.1,2.1.1,3.8.2,4.7s1.3,8.5,2.5,16.3c.6,3.5,1.2,7.3,1.8,10.9a6.4,6.4,0,0,1-4.9,7.4A66,66,0,0,1,142.3,347.2ZM97.9,198.4l.5,1,1.1,2.2a15.1,15.1,0,0,0,.9,1.8l1,2a34.5,34.5,0,0,1,1.2,4.3,36.9,36.9,0,0,0,1,3.9,76.4,76.4,0,0,1,4.5,15.8,25.1,25.1,0,0,1,.4,2.7c.3,1.6.5,3.3.9,4.9l.6,2.1a33.9,33.9,0,0,1,1,4.8c.6,5.1-.7,9.4-2.2,13.9l-.3,1.1c-.7,2.2-.7,23.8-.5,26.2h0a46.4,46.4,0,0,1-.9,7.7c-.3,1.3-.5,2.6-.7,3.9-.9,6.8-2.4,13.5-3.9,20-.2.9-1,4.2-2.1,8.3l-.3,1.2a4.3,4.3,0,0,0,1.1,4.2c9.2,9.9,23.5,13.1,31.3,14a68.5,68.5,0,0,0,23.6-.8,4.4,4.4,0,0,0,3.4-5.1c-.5-3.6-1.2-7.3-1.8-10.9-1.5-9.4-2.5-15.2-2.5-16.5s-.1-2.6-.2-4.7c-.2-4.1-.4-9.8-.6-11.5s.8-24.3,1.8-27.4a145.3,145.3,0,0,1,8.3-20c1.8-3.8,3.7-7.7,5.3-11.6a121.5,121.5,0,0,0,4.9-15.2,38.2,38.2,0,0,0,1.4-12.3v-.7h0a55.4,55.4,0,0,1,.3-8.1,30.3,30.3,0,0,0,.3-6.5c-.2-1.7-.4-3.5-.7-5.1s-.5-4-.7-6c-.4-4.6.8-9.4,2-13.1.5-1.7-.1-5.3-.7-8.2-.2-1.4-.5-2.7-.6-3.8a62,62,0,0,0-1.3-8.4l-.9-3.6c-1.4-6.1-3.1-13-5-19-.4-.6-2.4-3.5-5.6-1.8h-.1c-2.6,1.4-4.3,2.3-5.6,4.6s-1.2,4.4-1.3,6.9v.3a60.6,60.6,0,0,0,.6,10.8,50.6,50.6,0,0,1,.6,6.6c.1,1.7.2,3.4.4,5,.5,4.3-.2,6.2-1.7,9.8l-.2.5a10.4,10.4,0,0,0-.4,1.3,12.2,12.2,0,0,1-2.1,4.3c-1.4,1.3-6,1.8-8.7,2.1s-6.9.4-8.1-.5c-3.2-2.3-6.3-5-6.8-9.8-.1-.8-.1-1.5-.2-2.2a46.9,46.9,0,0,0-1.2-7.5l-.9-2.7a30.6,30.6,0,0,1-1.3-4.3c-.1-.6-.3-1.2-.4-1.8l-.6-2.6q-.1-1-.3-1.8a4.4,4.4,0,0,1-.3-1.9c0-.7.8-4.3,2.2-10.6v-.2a9.8,9.8,0,0,1,2.9-5.3l.4-.5a103.6,103.6,0,0,0,13-14.9c3.1-4.6,4.4-8.2,3.8-10.8a5.3,5.3,0,0,0-2.5-3.3c-1.4-.8-4,.4-5.7,1.2l-.7.3a34,34,0,0,0-7.8,5.4l-.3.3h-.2l-.2.2v.2c-1.7,1.4-4.2,4-5.8,5.6l-.5.4-2.1,2.1a28.2,28.2,0,0,0-3,3c-2.6,2.7-10.7,15.4-11.3,17s-2.2,6.3-2.1,7.6a14.1,14.1,0,0,1-.4,3.7c-.2,1.3-.5,2.8-.6,4.4-.3,4-8,19-8.7,19.9a16.8,16.8,0,0,0-2.8,14.1,37.8,37.8,0,0,0,2.3,6.7l.3.8a55.5,55.5,0,0,1,2,6.2C97.2,196.1,97.5,197.3,97.9,198.4Z" style="fill:#e8f1f1"/></svg>