<svg xmlns="http://www.w3.org/2000/svg" xmlns:xlink="http://www.w3.org/1999/xlink" viewBox="0 0 360 360"><defs><clipPath id="a"><path d="M20.9,109.8V250.2a37.4,37.4,0,0,0,18.8,32.4l121.6,70.2a37.3,37.3,0,0,0,37.4,0l121.6-70.2a37.4,37.4,0,0,0,18.8-32.4V109.8a37.4,37.4,0,0,0-18.8-32.4L198.7,7.2a37.3,37.3,0,0,0-37.4,0L39.7,77.4A37.4,37.4,0,0,0,20.9,109.8Z" style="fill:none"/></clipPath></defs><title>illustr--emptyWallet copy 2</title><path d="M20.9,109.8V250.2a37.4,37.4,0,0,0,18.8,32.4l121.6,70.2a37.3,37.3,0,0,0,37.4,0l121.6-70.2a37.4,37.4,0,0,0,18.8-32.4V109.8a37.4,37.4,0,0,0-18.8-32.4L198.7,7.2a37.3,37.3,0,0,0-37.4,0L39.7,77.4A37.4,37.4,0,0,0,20.9,109.8Z" style="fill:none;stroke:#8e8e8e;stroke-miterlimit:10"/><g style="clip-path:url(#a)"><path d="M133.1,179.1h.3l.2.2c.1.1.1,0,.2,0,3.7-4.1,10.7-6.1,14.6-7a29.9,29.9,0,0,0,10.8-4.8c2.3-1.5,4.7-4.2,4.4-6.8a4.6,4.6,0,0,0-4.7-4.1c-3-.2-6.4.6-9.7,1.2l-3.2.6-3.8.4c-2.9.2-6,.4-8,1.9a11.1,11.1,0,0,0-4.7,7.4,15.5,15.5,0,0,0,3.2,11.1Z" style="fill:#333031"/><path d="M137.8,157.1l6.1-1c3.1-.6,6.3-1.2,9.5-1.6s6.1-.7,8.7.9l1.1.5a5,5,0,0,1,2.9,4.7,8.1,8.1,0,0,0,3.6.5H171l5.2.2h4.4c3.5.2,8.3.3,10.9-2s1.5-6.6,1.1-7.9c-1.1-2.9-3.7-3.7-6.6-4.6l-1.3-.4c-8.7-3-18.3-2.7-27.7-2.4h-9.2c-4.6-.2-9.8-.5-12.8,3s-1.3,6.8.4,10Z" style="fill:#333031"/><path d="M153.1,141.6h4.6a55.6,55.6,0,0,1,7.1-.2h1.4l5.9.2a82.2,82.2,0,0,1,20.5,4.9c2.8-2.8,4.4-6.1,4.3-8.9a7.2,7.2,0,0,0-2.8-5.3,16.1,16.1,0,0,0-8.2-3.1l-6.2-.8c-2.8-.4-5.6-.8-8.4-1h-1.4c-3.8-.3-7.4-.7-11.2-.8h-2.2c-2.8-.2-6-.3-8.6.6a14.3,14.3,0,0,0-7,5c-2.1,3.2-1.9,6.1-1.7,9.9C143.9,141.3,148.6,141.5,153.1,141.6Z" style="fill:#333031"/><path d="M146.5,125.1c5.3-1.9,10.8-1.1,16.1-.5h1.1l3.2.4,3.6.4h1.8a48,48,0,0,1,5.2.5l1.9.4a86.3,86.3,0,0,1,9,1.2c2-3.3,2.6-5.5,2.1-7.4s-1.7-3-3.9-4.2c-6.8-3.9-14.1-6-20.2-7.6-3.2-.8-5.8-.5-9.1,0h-1.4c-2.7.3-4.7.6-6.5,2.6a18.6,18.6,0,0,0-3.5,6.1,13.7,13.7,0,0,0,.2,5.3A20.2,20.2,0,0,1,146.5,125.1Z" style="fill:#333031"/><path d="M198,208.5a59.5,59.5,0,0,0,12.5-2.8c2.2-.9,4.4-2,6.5-3l2.4-1.1.6-.2a24.9,24.9,0,0,0,6-3.5l2.6-1.8a105.2,105.2,0,0,0,11.5-8.7c3.8-3.5,6.4-6.5,8.5-11.8,1.5-3.7,2.9-8.5,1-12.4a5.4,5.4,0,0,0-.9-1.5,5.7,5.7,0,0,1-1.4-4.4,5.9,5.9,0,0,1,.5-1.9,4.2,4.2,0,0,0,.4-1.5,7.5,7.5,0,0,0-.5-4.3v-.2h.1a39.1,39.1,0,0,0-2.9-5.8c-1.9-3.1-1.3-5.4-.9-7.9.1-.7.3-1.4.4-2.2.5-2.9-.6-5.4-3.3-8.3a18.5,18.5,0,0,0-4.1-3.4,6.4,6.4,0,0,1-2.9-4.5h0c.6-5.1.7-11.3-3.9-14.7-2.3-1.7-6.2-2.5-10.2-2H219c-1,.1-2.4.1-3,.6a5.2,5.2,0,0,0-1.5,1.8,5.4,5.4,0,0,1-2.5,2.7h-.1v.2h-.1a2.7,2.7,0,0,0-1.1,1A26.5,26.5,0,0,1,204,112a28,28,0,0,1-12.8,3.3h-.4a17.5,17.5,0,0,1-3.6-4.2s-.8-1.4-1-1.9c-.8-3.4,1.5-4.6,3.7-5.8a18.1,18.1,0,0,1,17.9.4,2.5,2.5,0,0,0,3.6-.6,2.7,2.7,0,0,0-1-3.7,15.5,15.5,0,0,0-3.1-1.2l-1.6-.5c-1.2-.5-2.4-.7-3.6-1.1l-1.5-.5-.9-.2a23.2,23.2,0,0,0-9-1.7c-2.6.2-5.3,2.3-7.6,4.1l-2.5,1.9a34.3,34.3,0,0,0-5.3,4.8l-2.8,2.7c-.1.1-.2.1,0,.3v.3c0,.1.2.1.3.1,3.7,0,7.4,2.2,10.8,4.1l1.8,1,1.6.8c2.6,1.2,5.1,2.4,5.3,6.4A17,17,0,0,1,191,127l-.3.9v.2a5.5,5.5,0,0,0,1.5.8,6.7,6.7,0,0,1,1.2.6,10.7,10.7,0,0,1,4.8,6.2c1.3,4.7-1.2,10.2-4.4,13.6h-.1c-.2.1-.2.2-.2.3l.2.6c.9,2.8,2,6.3.3,9.3s-5.2,4.5-10.8,4.5c-3.1,0-6.3-.3-9.3-.5a88.5,88.5,0,0,0-8.9-.5h-.2a.3.3,0,0,0,0,.4l.2.3v.2c-1.9,4.4-7.7,6.9-10.1,7.9l-5.1,1.7-5,1.7a25.7,25.7,0,0,0-8.3,4.8h-.2l-1.9.7a15.1,15.1,0,0,0-3,1,18,18,0,0,0-4.1,2.7l-1.7,1.4-.7.5-.5.2c-.1,0-.2,0-.2.1v.2h-.2a95.7,95.7,0,0,1-10.6,6.7l-5.3,3.1c-7.4,4.1-15.1,8.4-21.9,13.7a90,90,0,0,1-9.8,6.2l-1.3.7-5.3,3.2a96.2,96.2,0,0,1-8.4,4.7,79.1,79.1,0,0,1-16.2,6.1,80.1,80.1,0,0,0-7.9,2.5l-2.9.9a20.6,20.6,0,0,0-3.5,1.2h-.3A307.2,307.2,0,0,0,.7,248.7l-4.8,2L-8,252.3a38.4,38.4,0,0,0-4,2.1,27.5,27.5,0,0,1-3.8,2l-.3.2c-4.5,2.1-9.7,4.4-12.9,8.1-.1.2-.1.2,0,.3l.2.2v.3a11.4,11.4,0,0,0,.4,3.6v.2c.6,1.9,1.2,3.9,2,5.9s1.3,3.9,1.9,5.9c1.6,5.8,2.9,11.8,4.1,17.5.8,3.2,1.4,6.3,2.1,9.5,1.9,7.9,4.1,16.1,9,23h0a18.2,18.2,0,0,0,1.8,3.7,47,47,0,0,0,3.5,4.3l.9,1.1.6,1.5c1.4,3.7,2.8,7.1,5.5,10.1l.2.3v.3a.2.2,0,0,0,.1.3h.3c4.3-4.1,10-7.6,17.9-10.9a87.9,87.9,0,0,0,10.1-5.3l6.8-3.6c2.9-1.5,5.9-2.9,8.8-4.2,8.7-4,17.6-8.3,25.3-14a54,54,0,0,1,8.4-5.2,51.1,51.1,0,0,0,6.2-4.1l2.4-1.9c2.7-1.9,5.2-4.1,7.7-6.2a74.5,74.5,0,0,1,9.2-7.4c5-3.3,9.1-7.9,13-12.4a94.4,94.4,0,0,1,9.9-10.1c3.3-2.6,6-5.9,8.8-8.9s3.3-3.9,5.1-5.6,3.3-3.6,4.9-5.4a62.3,62.3,0,0,1,8.3-8.7h.1v-.3l.3-.2,3.8-3.3a82,82,0,0,0,9-8.7c.9-1,1.7-2.1,2.7-3.1,4.7-5.8,9.2-11.2,17-13.1A79.7,79.7,0,0,1,198,208.5Z" style="fill:#333031"/><path d="M208.1,105.5l-.9-.3V105h-.2c-5.4-2.2-10.1-2.3-14.5-.3-1,.4-3.5,1.6-3.8,3s1.2,3.8,2.3,4.8h.6c3.4,1.7,10.6-2.7,14.6-5l2.2-1.3c.1,0,.2-.1.1-.2v-.4C208.3,105.6,208.1,105.5,208.1,105.5Z" style="fill:#333031"/><path d="M373.5,281a.3.3,0,0,0-.4,0l-.3.2-.3-.3h-.1a34.2,34.2,0,0,1-10.4-4.5,28.2,28.2,0,0,0-7.3-3.8l-4.3-1.6c-1.9-.7-3.8-1.5-5.8-2.1a33.7,33.7,0,0,0-3.4-.9l-4-1c-7-2.2-14.1-6.3-18.9-9.3a42.3,42.3,0,0,0-4.2-2.2c-1.6-.8-3.3-1.7-4.9-2.7a49.1,49.1,0,0,0-4.4-2.5c-1.7-1-3.5-2-5.1-3.1-10.2-7.3-21.9-16-31.9-26.6a134.3,134.3,0,0,0-15-14,53.5,53.5,0,0,0-7.6-4.7l-1.1-.6a40.9,40.9,0,0,1-7.9-6.2l-.2-.2v-.2l-.2-.2h0c-9.8,6.7-18.4,11.1-27.2,13.9a24.8,24.8,0,0,1-5.4,1.2l-2.6.5-1.1.3a48.7,48.7,0,0,0-11.1,2.6,26.7,26.7,0,0,0-9.1,5.7v.4c-.2.1-.1.3-.1.4v.3l-.2.3a.4.4,0,0,0-.1.3v.2a20,20,0,0,0,2.9,1.5,14.6,14.6,0,0,1,4.1,2.5l3.2,2.5a26,26,0,0,1,3.2,2.6A103,103,0,0,1,204.5,243l.6.8,2.9,3.6a127.1,127.1,0,0,0,10.3,11.9,55.2,55.2,0,0,1,6.2,7.4,64.2,64.2,0,0,0,5.8,6.9c2,1.9,3.8,4,5.6,6l4.9,5.3c.9.9,1.8,1.9,2.8,2.8,3.3,3.4,6.6,6.9,9.8,10.4s6,6.5,8.9,9.7,3.3,3.5,4.9,5.2a42.7,42.7,0,0,0,5.4,5l.8.6,1.1.8,1.9,1.5,6.8,5.3,9.3,6.8c2.6,2.1,5.4,4.2,8.2,6.2l1.8,1.3a97.2,97.2,0,0,0,15.6,9.8c3.2,1.5,6.2,3.2,9.3,4.9s5.5,3.1,8.3,4.4h.2v.3c0,.1.1.1.2.2a10.2,10.2,0,0,1,4,2.3c1.5,1.1,2.9,2.2,4.3,2.3s4.2-1.7,6.2-3.1l1.9-1.4c6.3-3.8,9.1-12.5,11.4-19.4l.6-1.6c2.9-8.8,4.3-17.6,5.8-26.8l.3-2.4c1.4-8.9,3.1-19.1,3.1-29Z" style="fill:#333031"/></g></svg>