<?xml version="1.0" encoding="utf-8"?>
<!-- Generator: Adobe Illustrator 22.0.1, SVG Export Plug-In . SVG Version: 6.00 Build 0)  -->
<svg version="1.1" id="Layer_1" xmlns="http://www.w3.org/2000/svg" xmlns:xlink="http://www.w3.org/1999/xlink" x="0px" y="0px"
	 viewBox="0 0 216 216" style="enable-background:new 0 0 216 216;" xml:space="preserve">
<style type="text/css">
	.st0{fill:#231F20;}
	.st1{fill:#FFFFFF;}
</style>
<g>
	<g>
		<path class="st0" d="M176.1,45c0,0-0.1-0.1-0.1-0.1c-0.2-0.4-0.6-0.7-1.2-1c-0.2-0.1-0.5-0.2-0.8-0.2c-3.9-1.3-8.8,1-12.1,4
			c-0.6,0.5-1.1,0.9-1.6,1.5c-2.4,2.5-4.2,5.4-6.5,8c-0.6,0.6-1.2,1.3-1.8,1.8c-0.1,0.2-0.2,0.3-0.4,0.5c-3.5,4.6-6.9,3.5-11.7,6.7
			c-6.4,0.8-12.1-3.1-16-8.1c-0.3-0.3-0.5-0.7-0.7-1c-0.3-0.7-0.6-1.3-0.9-2c-1.4-3.4,4.3-7.7,4.4-11.4c0-5.4-4.9-4.2-2-8.2
			c3.4-3.1,7.6-5.9,12.5-7.8c3-1.1,5.9-2,8.9-2.8c-2.6-0.8-5.3-1.1-7.9-1.7c-1.9-0.4-3.7-1.1-4.6-3c-1.6-3.2,0.8-8,4.7-7.8
			c0.2,0,0.4,0.1,0.5,0.3c1-0.8,1.7-2.1,2.8-2.9c-3.1-0.3-6.3,0-9.4,0.5c-1.5,0.3-3.2,0.4-4.6,0.7c-4.6,1.1-8.7,2.4-12.7,5.1
			c-3,2-5.4,4.7-7.7,7.5l-0.8,1l-8.8,11.4c0,0.1,0,0.2-0.1,0.3c-4.1,4.7-7.1,10.1-10.4,15.4c-2.8,4.4-6.3,8.6-8.3,13.5
			c-1.2,3-1.8,6.2-2.9,9.2c-1.1,2.9-2.3,5.7-3.3,8.6c-0.4,1.2-0.8,2.4-1.2,3.6c-1.1,6.3-2.7,12.4-5.5,18.4
			c-7.2,15.3-21,27.6-30.3,41.2c-2.6,3.8-5.6,7.3-8.6,10.8c-6,6.8-11.5,15.9-18.9,21.7c0,0,0,0,0,0c-1.1,0.5-2,2-1.3,3.4
			c5.3,10.6,13.9,17.2,23.6,23.4c6.6,4.3,18.1,9.2,25.9,7.4c0.5-0.1,0.8-0.3,1-0.6c0.6-0.3,1-0.8,1.1-1.6c1-6.6,4.3-11.9,7.5-17.6
			c3.3-5.9,6-12,8.8-18.1c5.4-11.9,12.1-23,17.6-34.8c6.1-13,12.3-25.7,26.9-30.5c1.7-0.6,3.4-1.2,5.2-1.8c4.3-3.2,9-6,13.2-9.4
			c4.3-3.3,7.5-7,10.8-11.2c3-3.9,6-7.9,9.7-11.3c0.1-0.1,0.1-0.1,0,0c0.4-0.5,0.8-1.2,1.2-1.7c0.6-0.9,2.6-2.8,3.2-3.8
			c1.7-3,3.6-5.8,5.4-8.7c1.2-2,2.6-3.6,3.7-5.2c1.3-1.2,2.3-3,3.1-4.8c0,0,0,0,0,0c0.5-1.2,1-2.4,1.3-3.6
			C176.4,47,176.6,45.9,176.1,45z"/>
	</g>
</g>
<g>
	<path class="st0" d="M133.2,12.7c0,0,33.5-8.5,44.2-9.3c10.7-0.8,18.7,1.7,20.3,2.5c4.4,2.4,5.1,8.2,4.8,11.3
		c-0.3,3.1-12,19.9-12,19.9l-43.2-0.7l-11.9-2.4l-3.8-10.6L133.2,12.7z"/>
	<path class="st1" d="M190.8,37.7l-43.6-0.7l-12.1-2.5l-3.9-11l1.6-11.2l0.3-0.1c0.3-0.1,33.6-8.5,44.3-9.3
		c10.6-0.8,18.8,1.6,20.6,2.6c4.6,2.5,5.3,8.6,5.1,11.8c-0.3,3.1-10.9,18.4-12.1,20.1L190.8,37.7z M147.4,36l42.9,0.7
		c3.3-4.8,11.5-17.1,11.8-19.5c0.3-2.9-0.4-8.5-4.5-10.8c-1.7-0.9-9.7-3.3-20.1-2.5c-10,0.8-40.3,8.4-43.8,9.2l-1.5,10.3l3.7,10.2
		L147.4,36z"/>
</g>
<g>
	<path class="st0" d="M207.8,21.3c-0.3-5.1-1.6-6.8-8.2-6.2c-5.2,0.4-10.2,1.1-15.4,1.7c-5.9,0.7-11,2.1-16.7,3.6
		c-35.8,9.1-34.5-3.5-34.5-4.5c0.1-3.2,2.7-3.6,2.1-3.5c-1.9,0.3-3.4,0.8-4.5,1.8c-0.2,0.2-1.3,1.1-1.7,1.3c-0.6,0.3-1,0.6-1.3,1.1
		c-0.1,0.2-0.2,0.4-0.3,0.6c-0.1,0.2-0.2,0.3-0.3,0.6c-1.5,8.1-3.6,16.1-5,24.2c-1.2,6.6-3,16.2,2.4,22c2.7,2.9,7.7,5,12.7,6.5
		c0.3,0,0.7,0,1-0.1c4.8-3.2,10-6.4,13.5-10.9c0.1-0.2,0.2-0.3,0.4-0.5c0.6-0.5,1.2-1.1,1.8-1.8c2.3-2.6,4.1-5.5,6.5-8
		c0.5-0.5,1.1-1,1.6-1.5c3.3-3,8.1-5.3,12.1-4c0.3,0,0.6,0.1,0.8,0.2c0.6,0.3,0.9,0.6,1.2,1c0,0,0.1,0.1,0.1,0.1
		c0.5,0.9,0.3,2,0,3.1c-0.3,1.2-0.8,2.4-1.3,3.6c0,0,0,0,0,0c-0.8,1.8-1.7,3.6-3.1,4.8c-1.1,1.5-2.4,3.1-3.7,5.2
		c-1.8,2.9-3.7,5.7-5.4,8.7c-0.6,0.9-1.2,1.9-1.9,2.8c-0.1,0.2-0.2,0.3-0.4,0.5c5,0,9.9,0.1,14.9,0.2c0.1,0,0.2,0,0.3-0.1
		c0.9,0,1.9,0,2.8,0c6.6-0.2,18.1-0.4,22.3-5.2c2.1-2.4,2.1-6.2,2.5-8.9c0.7-4.6,1-9.1,1.5-13.7C205.5,37.9,208.2,29.3,207.8,21.3z"
		/>
	<path class="st1" d="M175.3,74.4C175.3,74.4,175.3,74.4,175.3,74.4c-1.6,0-3.2-0.1-4.7-0.1c-3.3-0.1-6.8-0.1-10.2-0.1l-1,0l0.7-0.9
		c0.1-0.1,0.2-0.2,0.3-0.3c0.6-0.9,1.2-1.8,1.9-2.8c1-1.8,2.1-3.5,3.2-5.2c0.7-1.1,1.5-2.3,2.2-3.5c0.8-1.3,1.6-2.4,2.5-3.5
		c0.4-0.6,0.8-1.1,1.2-1.7l0.1-0.1c1.3-1.1,2.2-2.9,2.9-4.5l0-0.1c0.6-1.3,1-2.5,1.3-3.5c0.3-1,0.5-2,0.1-2.7c0,0,0-0.1-0.1-0.1
		c-0.2-0.3-0.5-0.6-1-0.8c-0.2-0.1-0.4-0.1-0.7-0.2l-0.1,0c-3.9-1.3-8.7,1.2-11.6,3.9c-0.6,0.5-1.1,1-1.6,1.4
		c-1.4,1.4-2.6,3-3.7,4.5c-0.9,1.1-1.8,2.3-2.7,3.4c-0.7,0.8-1.2,1.3-1.8,1.8l-0.1,0.1c-0.1,0.1-0.2,0.2-0.3,0.4
		c-3.3,4.3-7.9,7.3-12.4,10.2l-1.3,0.9l-0.1,0c-0.4,0-0.7,0.1-1,0.1l-0.1,0l-0.1,0c-3.5-1-9.7-3.2-13-6.6
		c-5.5-5.9-3.9-15.3-2.6-22.1l0.1-0.4c0.8-4.4,1.7-8.8,2.7-13c0.8-3.7,1.6-7.4,2.3-11.2c0-0.3,0.1-0.5,0.3-0.7
		c0.1-0.2,0.2-0.4,0.3-0.6c0.4-0.6,0.9-0.9,1.5-1.3c0.3-0.2,1.4-1,1.6-1.2c1.1-1,2.6-1.6,4.8-2c0.5-0.1,0.6,0.2,0.6,0.3
		c0,0.1,0.1,0.4-0.3,0.6c-1.4,0.7-1.8,2.1-1.8,3.1l0,0.1c-0.1,2.3,1.1,3.7,2.1,4.6c3.2,2.6,11.2,4.6,31.8-0.7l2-0.5
		c4.9-1.3,9.6-2.5,14.8-3.1l2.2-0.3c4.3-0.5,8.7-1,13.2-1.4c3.5-0.3,5.6,0,6.9,1.2c1.4,1.2,1.7,3.4,1.8,5.5l0,0
		c0.3,5.2-0.7,10.5-1.7,15.7c-0.6,3-1.1,6.1-1.4,9c-0.1,1.2-0.3,2.5-0.4,3.7c-0.3,3.3-0.7,6.7-1.1,10c-0.1,0.5-0.1,1.1-0.2,1.6
		c-0.3,2.6-0.6,5.5-2.4,7.5c-4.2,4.9-15.5,5.2-22.2,5.4l-0.5,0c-0.7,0-1.4,0-2.2,0l-0.5,0C175.5,74.3,175.4,74.4,175.3,74.4z
		 M161.3,73.2c3.1,0,6.2,0.1,9.2,0.1c1.6,0,3.1,0.1,4.7,0.1c0,0,0.1,0,0.1,0l0.1-0.1l0.8,0c0.7,0,1.4,0,2.2,0l0.5,0
		c6.6-0.2,17.5-0.5,21.5-5c1.6-1.8,1.9-4.6,2.1-7c0.1-0.6,0.1-1.1,0.2-1.7c0.5-3.3,0.8-6.7,1.1-10c0.1-1.2,0.2-2.5,0.4-3.7
		c0.3-3,0.9-6.1,1.4-9.1c1-5.1,1.9-10.5,1.7-15.5l0,0c-0.1-2.6-0.6-4-1.5-4.9c-1.1-0.9-2.9-1.2-6.1-0.9c-4.4,0.4-8.8,0.9-13.1,1.4
		l-2.2,0.3c-5.2,0.6-9.8,1.8-14.7,3.1l-2,0.5c-16.6,4.2-27.9,4.4-32.7,0.5c-1.2-1-2.6-2.7-2.4-5.4c0-1.1,0.3-2,0.9-2.7
		c-1.1,0.3-1.9,0.7-2.5,1.3c-0.3,0.2-1.4,1.2-1.8,1.4c-0.6,0.3-0.8,0.5-1.1,0.9c-0.1,0.2-0.2,0.4-0.3,0.6l0,0.1
		c-0.1,0.1-0.1,0.3-0.2,0.4c-0.7,3.8-1.5,7.5-2.3,11.2c-0.9,4.3-1.9,8.6-2.7,13l-0.1,0.4c-1.2,6.6-2.8,15.7,2.4,21.2
		c2.3,2.4,6.7,4.7,12.4,6.3c0.2,0,0.5,0,0.8-0.1l1.2-0.8c4.4-2.9,9-5.9,12.1-10c0.1-0.1,0.1-0.2,0.2-0.3l0.2-0.3
		c0.5-0.4,1.1-1,1.7-1.7c0.9-1.1,1.8-2.3,2.7-3.4c1.2-1.6,2.4-3.2,3.8-4.6c0.5-0.5,1-1,1.7-1.5c3.2-2.9,8.2-5.5,12.5-4.1
		c0.4,0.1,0.7,0.1,0.9,0.3c0.6,0.3,1.1,0.7,1.4,1.1c0,0.1,0.1,0.1,0.1,0.2c0.6,1,0.3,2.2,0,3.4c-0.3,1.1-0.7,2.3-1.4,3.6l0,0.1
		c-0.8,1.7-1.7,3.6-3.2,4.9c-0.4,0.5-0.8,1.1-1.2,1.7c-0.8,1-1.6,2.1-2.4,3.4c-0.7,1.2-1.5,2.3-2.2,3.5c-1.1,1.7-2.2,3.5-3.2,5.2
		C162.4,71.6,161.9,72.4,161.3,73.2z"/>
</g>
</svg>
