<svg xmlns="http://www.w3.org/2000/svg" viewBox="0 0 504 504"><title>illustr--v_1</title><path d="M395.3,101.5c-2.2-1.1-4.3-1.7-10.2-1.7H122c-5.9,0-8.1.6-10.2,1.7a12.7,12.7,0,0,0-5,5c-1.1,2.2-1.8,4.3-1.8,10.2V379.8c0,5.9.7,8.1,1.8,10.2a12.1,12.1,0,0,0,5,5c2.1,1.1,4.3,1.8,10.2,1.8H385.1c5.9,0,8-.7,10.2-1.8a12.7,12.7,0,0,0,5-5c1.1-2.1,1.7-4.3,1.7-10.2V116.7c0-5.9-.6-8-1.7-10.2A13.3,13.3,0,0,0,395.3,101.5Zm5.1,278.3c0,6-.7,7.8-1.6,9.4a9.9,9.9,0,0,1-4.3,4.3c-1.6.9-3.4,1.6-9.4,1.6H122c-6,0-7.8-.7-9.4-1.6a9.9,9.9,0,0,1-4.3-4.3c-.9-1.6-1.6-3.4-1.6-9.4V116.7c0-6,.7-7.7,1.6-9.4a9.9,9.9,0,0,1,4.3-4.3c1.6-.9,3.4-1.6,9.4-1.6H385.1c6,0,7.8.7,9.4,1.6a9.9,9.9,0,0,1,4.3,4.3c.9,1.7,1.6,3.4,1.6,9.4Z" style="fill:#afadad"/><path d="M497.4,328.1c8.6-17.6,7.5-37.2-.8-54.3a3.7,3.7,0,0,0-3.1-2.2c-15-1.9-29.9-3.9-44.5-7-12.9-2.8-24.6-7.5-34.9-15.8-8.2-6.6-16.3-12.9-25.7-17.9a138.6,138.6,0,0,0-30-11.1c-6.1-1.5-12.2-3-17.8-5.7s-9.6-5.4-14.9-7.2a114.9,114.9,0,0,0-15.1-3.5c-4.8-1.5-9.5-3.4-14.4-4.2-3-.5-5.3,1.2-6.7,3.6s-2.7,4-2.1,7.6c1.1,7.7,7.5,13.5,13.7,17.5a90.6,90.6,0,0,0,15.3,8.3c6.3,2.7,18.2,4.4,19.4,12.5-6.8,5.8-14.2,13.4-22.6,17.2l.7,1.1a12.1,12.1,0,0,1,.8,2.5c.1.5.1,1.1.2,1.6v1.8h0c1.6-1.6,3.6-2.3,5.9-3a1.1,1.1,0,0,1,1.2.3c6.8,1.3,11.4,5.6,13.3,12.4h0a1.5,1.5,0,0,1,.1.7l-.6,2.4h0c-1.9,7.5-5.3,15.9-2.7,23.2,2.1-7.4,5.3-14.5,8.5-21.6,0-.1.1-.1.1-.2s.2-.3.4-.4c4.5-4.1,10.3-4.2,14.5-.6l.6.6c.1,0,.1.1.2.2l.5.5.4.5.4.5a6.1,6.1,0,0,0,.7,1c.3.6.5,1.2.8,1.7a.4.4,0,0,0,.1.3,10.9,10.9,0,0,1,.5,1.7.4.4,0,0,0,.1.3,11,11,0,0,1,.2,1.8h0a10.9,10.9,0,0,1,.1,1.8v.2c-.1.6-.1,1.3-.2,1.9v.2a10.6,10.6,0,0,1-.4,1.9h0c-.2.7-.3,1.3-.5,1.9H359a13.9,13.9,0,0,1-.6,1.9l-1.2,2.9h.4a20.7,20.7,0,0,0,9.5-1.1c.8-.4,1.4.3,1.5,1s0,.1-.1.2v.2h0l-.2.2c0,.1,0,.1-.1.1l-.3.3-1.4.5-.6.2h-.6l-.9.2h-2.2a22,22,0,0,1,3.2,2.1l.6.4,1.1.8c.1.2.3.3.4.4l1.5,1.3.4.4a9.4,9.4,0,0,1,1,1c.2.1.3.3.5.5l.9.9.5.6a7.6,7.6,0,0,0,.8,1.1l.4.5,1.2,1.6a.5.5,0,0,1,.2.4h0v.4h0l-.2.3a.1.1,0,0,1-.1.1h0l-.4.2a1,1,0,0,1-1.3-.3,36.8,36.8,0,0,0-10.6-10.2l-.2-.2-.6-.3-.6-.4-1.7-.8-.6-.3-.7-.3h-.1l-1.5-.6h-.2q-.9,1.8-1.8,3.3c.2,2.9,1.3,5.7,1.8,8.5h0c0,.4.1.7.1,1a4.1,4.1,0,0,1,.1,1.1c.1.2,0,.3,0,.4s0,.1-.1.1-.1.2-.1.3H356c-.1,0-.1.1-.2.2h-.2a.1.1,0,0,0-.1.1h-.8a.9.9,0,0,1-.6-.9,23.8,23.8,0,0,0-.6-3.7h0a18.2,18.2,0,0,1-.7-2.5c0-.2-.1-.4-.1-.6a6.4,6.4,0,0,1-.2-.7,3.6,3.6,0,0,1-.2-1,1.3,1.3,0,0,1-.1-.6,9.9,9.9,0,0,1-.2-1.7v-.2h0v-.2h.1c0-.1,0-.1.1-.2l1.5-2.7h0c.5-1,1-1.9,1.4-2.9h0c1.9-3.9,3.2-8.2,2.7-12.4s-4.5-8.9-8.9-9h-.1l-1.4.2h-.2l-1.2.3-.4.2-1,.4-.4.2-1.1.8h-.2l-.3.2-1.2,2.8-.3.6-.5,1.2-.3.6a5,5,0,0,0-.5,1.3l-.3.5a6.9,6.9,0,0,0-.5,1.3c-.1.2-.2.3-.2.5l-.6,1.4-.2.3-.6,1.5a.4.4,0,0,1-.1.3l-.6,1.6h0a66.3,66.3,0,0,0-4.2,16.6h0c0,.2-.1.4-.1.6a.4.4,0,0,1-.1.3c-.3,6.4,6.1,12.3,10.3,17,7.2,4.7,16,7.6,24,7.4a.8.8,0,0,0,.8-.5c16.4-.4,31.1-9.6,47.5-10.3a92.8,92.8,0,0,1,13.8.8c15.3,4.7,30.6,9.5,45.5,15.4a6.5,6.5,0,0,0,6.7-1.1C487.5,342.7,493.4,336.2,497.4,328.1ZM396.8,285.2c-9,3.6-18.2,7.3-23.7,15.7-.7,1.1-2.1.1-1.9-.9v-.2c0-.1.1-.2.1-.3,5.7-8.7,15.4-12.7,24.7-16.4h.9l.2.2h.1A1.2,1.2,0,0,1,396.8,285.2Z" style="fill:#333031"/><path d="M279.5,303.9c-.2-1.2-.3-2.4-.4-3.6V296c0-.4.1-.8.1-1.2s.1-.7.1-1.1a6.9,6.9,0,0,1,.2-1.3,3.8,3.8,0,0,1,.1-1l.3-1.4a2.9,2.9,0,0,1,.2-.9,11.2,11.2,0,0,1,.6-2.3l.9-3.1a15.5,15.5,0,0,1,.7-2.3,1.9,1.9,0,0,1,.2-.8l.7-2.5a.8.8,0,0,0,.2-.5c.3-1,.7-2,1.1-3-3.6.7-7.1,1.7-10.1,4a39.6,39.6,0,0,0-6.8-.9,7,7,0,0,0-3.8.7c-7.3-2.5-15.3-3.1-20.3,3.7-1.6,2.2-2.7,5.2-1.5,7.9a5,5,0,0,0,2,2.5h0a39.9,39.9,0,0,0,10.3,7,20.9,20.9,0,0,0,10.3,4.8c4.1.8,10.4,2.5,15.3,2-.2-.9-.3-1.7-.4-2.5Z" style="fill:#333031"/><path d="M306.3,294.1c2.2-5.6,3.5-12.3,6.4-17.8-.3-3.2.3-6.4-1.6-9.3a15.6,15.6,0,0,0-7.4-6,10.3,10.3,0,0,0-5.5-.1c-3.6,1-5.9,4.6-8,7.5a9.1,9.1,0,0,0-1.1,1.6,26,26,0,0,0-1,2.5c-1.9,5.2-4.1,10.5-5.6,15.9h0l-.6,2.7a15.5,15.5,0,0,0-.4,2.1v.3a37.8,37.8,0,0,0,.9,13.8c2.3,3.4,5.1,6.4,9.2,7.4l.6.3a26.1,26.1,0,0,0,6.9.7,33.3,33.3,0,0,1,1.1-5.3.4.4,0,0,0,.1-.3C301.9,304.7,304.3,299.5,306.3,294.1Z" style="fill:#333031"/><path d="M336.4,333.2a34.3,34.3,0,0,1-4-5.4,15.4,15.4,0,0,1-2.3-8.5.8.8,0,0,1,.1-.4c.2-2.2.6-4.3,1-6.4a21.4,21.4,0,0,1-1.7-4.6,19.9,19.9,0,0,1-.5-3.4v-2.3a2.8,2.8,0,0,1,.1-.9v-.9c.1-.4.1-.9.2-1.3s.1-.6.1-.9.1-.6.2-.9c.9-4.8,2.5-9.6,3.5-14.1-.2-.5-.3-1-.5-1.5h0c0-.1-.1-.1-.1-.2a11.1,11.1,0,0,0-.7-1.6c0-.1-.1-.1-.1-.2a18.7,18.7,0,0,0-2-2.9.1.1,0,0,1-.1-.1l-1.2-1.2h-.2l-1.3-1h-.3l-1.5-.8h-.2l-1.7-.6H323l-1.9-.5h-.2l-.9.4h-.2l-.9.4h0a9.1,9.1,0,0,0-3.9,4.1,1.2,1.2,0,0,1-.4.8c-.4.9-.8,1.8-1.2,2.9-1.7,4.7-3.2,9.5-5,14.2-.5,1.3-1.1,2.6-1.6,4-2.7,6.4-5.5,13-5.9,19.8.9,3.3,2.9,6.5,6.3,10l.5.3a.1.1,0,0,0,.1.1c5.2,3,10.7,3.1,16.5,3.9s9.8,2.2,14.7,3l-2.6-3Z" style="fill:#333031"/><path d="M246.6,210.8a.4.4,0,0,0,.1-.3c-7-3.1-18.9-7.3-24.6-2.2a7.9,7.9,0,0,0-2.4,3.6,1.1,1.1,0,0,1-.2.8,7.8,7.8,0,0,0,1.3,5.1h0a3.5,3.5,0,0,0,.6.9h.1a2.7,2.7,0,0,0,.7.8h0a3,3,0,0,0,.8.8h.1l.7.7.2.2.8.7.2.2.7.5.3.3.9.6.3.2.7.5h.2a38.1,38.1,0,0,0,9.8,4.4,10.4,10.4,0,0,0,5.3-2.9,14.3,14.3,0,0,0,3.5-15.1Z" style="fill:#333031"/><path d="M204.7,229.4c-4.8-3.8-9.7-7.7-14.6-11.4s-11.6-7.5-18.5-8.9l-1.4-.3h0l-5.3-1.1H159l-.5.2H158l-.4.2-.5.2-.4.2a1,1,0,0,0-.5.4l-.3.2-1,1-.2.2h.1l1.9.5h.1l1.9.6a.1.1,0,0,1,.1.1l1.8.7h.1l1.6.8A68.1,68.1,0,0,1,182.1,228l2,2.2h0c3.5,4.2,7.1,9,8.2,14.3a6.9,6.9,0,0,1,.2,1.3c0,.2,0,.3.1.4v1.3a5.7,5.7,0,0,1-.1,1.3v.3c-.1.3-.1.6-.2.9v.4l-.3,1.1h0a32.9,32.9,0,0,1-1.7,3.9c5.4-2,10.9-4.1,15.5-7.7l1.5-1.3h.6c2-2.4,3.4-5.2,3.1-8.4S207.6,231.7,204.7,229.4Z" style="fill:#333031"/><path d="M260.5,189.9c-1-1.9-3.9-2.6-5.6-3.4L243,180.3a.6.6,0,0,0-.1-.4c-3.3-4.7-6.6-9.3-12.1-11.5s-15.4-3.6-22.8-4.9a257.3,257.3,0,0,0-46.3-4.3,170.6,170.6,0,0,0-21.4,1.2c-7.8,1.1-15.2,4-23,4.7-11.2,1.2-22.6,1.3-33.9,1.5-15.9-2-31.7-4.4-47.5-7.2a7.3,7.3,0,0,0-6.7,2.1C18,172.8,9.6,186.3,11.1,203.3c1.2,12.6,6.3,23.2,13.7,32.2a7,7,0,0,0,6.3,2.6c12.4-1.4,24.8-3.2,37.1-5.2,3.8-.4,7.7-.6,11.5-.7,8.7-.2,17.8-.5,25.4,4.4,13,8.4,25,18.9,37.3,28.3l.4.2a31.5,31.5,0,0,0,14.5,5h.5a45.5,45.5,0,0,0,24.1-9.6c1.5-1.2,3.1-2.4,4.6-3.8h.1l.5-.2c2.6-4.4,4.4-8.7,2.2-14.3a3.7,3.7,0,0,0-.5-1.1h0c-2-4.5-5.4-8.6-8.7-12.2a60.8,60.8,0,0,0-12.5-10.1c-4.4-2.9-11.6-7.8-17.2-6.4s-4.8,6.5-3.6,10.2a6.4,6.4,0,0,0,.8,1.9h0a3.8,3.8,0,0,0,.9,1.5,2.1,2.1,0,0,0,.4.6l.4.6h.2a17.9,17.9,0,0,0,8.9,5.6c.4,0,.7.3.8.8.8,4.6,3.7,8.1,6.9,11.3a1.7,1.7,0,0,1,.6.6l2,2.1.5.4,2.1,2.3c.1.1.1.2.2.4h0v.4c-.1.8-1.1,1.4-1.7.6l-3.2-3.4h0l-.4-.3a1.2,1.2,0,0,0-.5-.5,13,13,0,0,0-3.2,7.8,1.1,1.1,0,0,1-.9.9h-.9l-.2-.3h0a.6.6,0,0,1-.1-.4c0-.5.1-.9.1-1.3a.4.4,0,0,1,.1-.3c0-.3.1-.6.1-.9a.4.4,0,0,0,.1-.3l.3-.8a.6.6,0,0,1,.1-.4l.3-.9v-.2a18.8,18.8,0,0,1,2.7-4.2c-2.7-2.8-5.1-5.7-6.4-9.3-3.9.3-5.9,4.1-8.8,6.3a1,1,0,0,1-.9.1.9.9,0,0,1-.4-.6h-.1v-.2a.2.2,0,0,1,0-.3h0c0-.1,0-.2.1-.2h0l.3-.3,1.1-.9h0l1-.8v-.2l.6-.6,1.3-1.2h0l1-.9h0l1.1-.7h0l1.2-.5h0a5,5,0,0,1,1.3-.3h.5l-1.5-.6h0l-.9-.5h-.3l-.8-.4h-.2l-.9-.6h-.2l-.7-.5a20.6,20.6,0,0,1-6.7-7.7H145c-.2-.4-.3-.9-.5-1.3h0l-.4-1.3h0a11.5,11.5,0,0,1-.3-2.6v-.2c0-.4.1-.8.1-1.2h0l.3-1.2h0l.5-1.2c0-.1.1-.2.1-.3l.6-1.2.6-.7.3-.3.2-.3.9-.7h0a6.9,6.9,0,0,1,1.9-1h0l1.4-.2h1.8a.7.7,0,0,1,.2-.6c3.9-5.3,9.5-4.3,15.2-3.2a70.8,70.8,0,0,1,7.3,1.8l-.2-.5h0a12.9,12.9,0,0,1-.5-2.1h0a1.7,1.7,0,0,1-.1-.7h0a1.3,1.3,0,0,1-.1-.6V204c0-.2-.1-.4-.1-.6v-1a1.1,1.1,0,0,1,.1-.5v-1.5a.4.4,0,0,0,.1-.3c0-.1.1-.3.1-.4v-.3c0-.2.1-.3.1-.4s.1-.3.2-.4a.4.4,0,0,1,.1-.3.8.8,0,0,1,.2-.4.4.4,0,0,1,.1-.3.5.5,0,0,0,.2-.4l.2-.2.4-.6.8-.8h.1l.7-.6c2.5-1.6,5.7-1.5,8.7-1.5h2.2l.5.2c10,5,19.9,10.1,28.9,16.8l.2-.3a5.4,5.4,0,0,1,.7-1.3.3.3,0,0,1,.1-.2l.9-1.1h.1a9.6,9.6,0,0,1,2.2-1.8h0l1.4-.7h.1c3.8-1.6,8.8-1.1,13.5.1h.3l.8.3h.4l.7.2h.4l.8.2.6.3.6.2,3.5,1.3a36.1,36.1,0,0,0-6.8-9.1c-1.7-.4-3.4-.7-5-1.2l-1-.2-1.7-.5-2.4-1-.5-.2-2.3-1c-2-1-3.9-2.2-5.8-3.4l-1.9-1.3h0c-6,.6-12-.9-17.8.8h-.8a.9.9,0,0,1-.4-.6h0a1.1,1.1,0,0,1,.7-1.3l2.9-.6h0a47.2,47.2,0,0,1,8.4-.2h3.5l3.7-.2h.7a45.3,45.3,0,0,0,5,3.1h.1l2.1,1h0a40.7,40.7,0,0,0,4.4,1.8h0a75.9,75.9,0,0,0,11.4,3.1c4.4,1,10,3.4,14.7,2.6C259.4,198,262.1,193,260.5,189.9Z" style="fill:#333031"/><path d="M300.7,227.5c-4.7-.6-9-2.5-13.4-4.5-6.8-3.2-13.8-5.7-20.2-9.5a1.2,1.2,0,0,1-.5-.7,136.1,136.1,0,0,0,30.3,11.8h.2a11,11,0,0,0,2.6.6,3,3,0,0,1-.7-1.1c-.4-1.6.1-2.4.1-3.9s-1-1.8-1.7-3.2-.4-.6-.6-.7a.9.9,0,0,0-.3-.7c-.1,0-.1-.1-.1-.2h-.5q-5.1-1.3-10.2-2.4l8.7.3h2c.2-1.5.7-3.3.8-4.5h0c1.2-.6.1-2.5-1.2-1.9-8.5,4-21.8-2.3-30.2-4.6l-30.5-8.5c-9.4-2.6-18.9-5.2-28.6-6.5-4.2-.5-10.4-1.8-12.7,2.9s1,9.6,5.2,11.6c7.1,3.4,16.4,2.3,24,3.3,11.8,1.4,25.4,5.3,34.4,13.4,2.6,2.1,3.3,4.1,4.9,5.5a29,29,0,0,1,5.1,13.8,1.2,1.2,0,0,0,1.4,1.1,28,28,0,0,0,3.7-1,1.3,1.3,0,0,0,1-.4l.5-.2c0-.2-.1-.4-.1-.6v-.2a16.9,16.9,0,0,0-3-7.6,14.7,14.7,0,0,1,5.6,10.5c.1,0,.1.1.2.2s1.5,1.1,2,.1,3.1-1.7,5.2-1.2a8.5,8.5,0,0,0,0-1.6c-1.4-6-6.4-12-12-16a29.9,29.9,0,0,1,14.3,18h1.5c1.2-.4,2.2-1.3,3.3-1.6,3.9-1.2,8-2.8,9.4-7.3A4.6,4.6,0,0,0,300.7,227.5Zm-80.4-29c-5,.2-15.2.7-18-2.5a1.1,1.1,0,0,1,.4-1.2c3.6-1.2,8.6,1.1,12,2l5.3,1.5.7.2Z" style="fill:#66c8c7"/><path d="M222.3,222.6a13.9,13.9,0,0,1-3.5-3.8,2.1,2.1,0,0,1-.4-.6h0a2.5,2.5,0,0,1-.4-.7c0-.1,0-.2-.1-.2a4.3,4.3,0,0,0-.1-.5c-.1-.1-.1-.3-.2-.4a.4.4,0,0,0-.1-.3v-.4a.4.4,0,0,1-.1-.3.9.9,0,0,0-.1-.5v-1.5a.4.4,0,0,0,.1-.3,1.3,1.3,0,0,1,.1-.6l-2.1-1.5-.3-.2-.9-.6-.4-.3a32.8,32.8,0,0,0-3.1-2l-.3-.2c-2.2-1.5-4.5-2.8-6.7-4.1l-.8-.5-2.7-1.4-.9-.5-3.1-1.6-2-1.1-.8-.4h0l-5-2.5h-4.6a8.2,8.2,0,0,0-4.9,1.3c-3.2,2.3-3.1,7.8-1.7,11.2a1.2,1.2,0,0,1,0,1,58.9,58.9,0,0,1,5.8,2.4h.3l4.8,2.7,1.8,1.2,2.6,1.9c3.9,3,7.7,6.2,11.7,9.2a25.9,25.9,0,0,1,7.2,6.8h.1a11.7,11.7,0,0,1,1.4,3.8V239a1.3,1.3,0,0,1-.1.6v.2a1.7,1.7,0,0,1-.1.7v.2c0,.2-.1.4-.1.7h-.1a1.9,1.9,0,0,1-.2.7h0l-.3.8h0l-.3.9h0c-.4.8-.9,1.6-1.4,2.4a39.5,39.5,0,0,0,5.7-1.4c3.4-.9,7.4-1.6,10.3-3.6s5.9-7.8,5.6-12.2A51.9,51.9,0,0,1,222.3,222.6Z" style="fill:#333031"/></svg>