<svg xmlns="http://www.w3.org/2000/svg" viewBox="0 0 432 432"><title>illustr--Artboard 3</title><path d="M301.9,127.1c-1.3-.7-2.6-1.1-6.2-1.1H136.3c-3.6,0-4.9.4-6.2,1.1a7.2,7.2,0,0,0-3,3c-.7,1.3-1.1,2.6-1.1,6.2V295.7c0,3.6.4,4.9,1.1,6.2a7.2,7.2,0,0,0,3,3c1.3.7,2.6,1.1,6.2,1.1H295.7c3.6,0,4.9-.4,6.2-1.1a7.2,7.2,0,0,0,3-3c.7-1.3,1.1-2.6,1.1-6.2V136.3c0-3.6-.4-4.9-1.1-6.2A7.2,7.2,0,0,0,301.9,127.1ZM305,295.7c0,3.7-.4,4.7-1,5.7a5.5,5.5,0,0,1-2.6,2.6c-1,.6-2,1-5.7,1H136.3c-3.7,0-4.7-.4-5.7-1a5.5,5.5,0,0,1-2.6-2.6c-.6-1-1-2-1-5.7V136.3c0-3.7.4-4.7,1-5.7a5.5,5.5,0,0,1,2.6-2.6c1-.6,2-1,5.7-1H295.7c3.7,0,4.7.4,5.7,1a5.5,5.5,0,0,1,2.6,2.6c.6,1,1,2,1,5.7Z" style="fill:#afadad"/><path d="M382.6,283.4a21.5,21.5,0,0,1-2.7-1c-2.6-1.1-5.1-2.3-8-3.7-5.7-2.8-10.9-5.1-15.9-7.1s-10.1-3.6-14.2-4.9a55.1,55.1,0,0,1-6.3-2.5,17.4,17.4,0,0,0-3.6-1.3l-2.9-1-3.4-1.6c-3.2-1.4-6.4-2.9-9.5-3.4l-2.5-.4-3.2-.4-3.5-1-3.4-.9-5.5-.8a59.3,59.3,0,0,1-8.4-1.6l-2.4-.7a30.4,30.4,0,0,0-8.4-1.6,12.7,12.7,0,0,0-3.9.6l-2.3,1a11.7,11.7,0,0,1-3.1,1.2l-5.9,1.3-1.2.2a28.1,28.1,0,0,1-4.3.3l-4.7-.2h-1.2a24.6,24.6,0,0,1-4.1-1.3l-1-.4,1.2-.7,8.9-4.7.5-.2c2.7-1.5,5.6-3,6.2-6.1h0a5.1,5.1,0,0,1,.1-1.8,5,5,0,0,0,.2-1.2,8.2,8.2,0,0,0-.6-2.8,17.2,17.2,0,0,1-.7-2.1,6.1,6.1,0,0,1,.3-2.5h.1l.3-.7c0-.2.1-.3.1-.4-.1-3.5-1.1-5.8-3.1-7.2h-.1a9.2,9.2,0,0,0-2.6.7,14.1,14.1,0,0,1-2.2.6l-1.5.3,1-1.1a28.1,28.1,0,0,0,2.7-3.6,18.7,18.7,0,0,1,3.6-4.5h.3l.6-.2,1.1-.5,2.8-1.5h.1a24,24,0,0,0,3.9-2h0l1-.4h0a53.4,53.4,0,0,0-6.8,3.3l-3.2,1.6a5,5,0,0,0-1.4,1h0l-.7.6a7.4,7.4,0,0,1-.4,1.4h0v.2a2.1,2.1,0,0,0-.4.6l-1.9,2.9h-.1a25.5,25.5,0,0,1-8.2,5.9,6.1,6.1,0,0,1-2.8.7,6.3,6.3,0,0,1-4.4-1.9,9,9,0,0,1-2.4-6.1c.1-2.2,1-5.2,2.9-9h.1l.6-.8v-.2h.1a29.6,29.6,0,0,0,2.4-3.9,12.2,12.2,0,0,1,.7-1.7V203l-.2.4c-1,2.2-2,4.5-3.9,6.2a6.2,6.2,0,0,1-4.5,1.6h-3.5l-.8-.2-1.5-.4h-.2c-2.4-1.7-3.6-6.1-1.5-10.5.4-1,.9-2,1.4-3.1a17.5,17.5,0,0,1,2.9-4.2,8.9,8.9,0,0,1,1.3-1.4,18.3,18.3,0,0,1,5.5-2.5l2.7-.9a23.6,23.6,0,0,1,8.6-1.5h.2a13.5,13.5,0,0,1,4.6,1,13.9,13.9,0,0,0,3.5.9c5.6.6,10.4,2.7,15.6,4.8l1.8.7a34.9,34.9,0,0,1,5.7,3.2l3.8,2.2,2.4,1.2c1.8.9,3.6,1.8,5.4,2.9l.9.5a34.5,34.5,0,0,0,8.8,4.4,46.4,46.4,0,0,0,7.6,1.4l2.9.4,9.9,1.6,11.9,1.9,7.6,1.2a129.7,129.7,0,0,0,15.4,2.1,46.2,46.2,0,0,1,6.5.8l3.6.6,7.4.6,3.8.2,11.1.6h.4v.7c2,11.7,4.1,23.7,2,35.6a73,73,0,0,1-11.4,27.6l-.2.4ZM241.9,196.2a11.4,11.4,0,0,1,4.6.7,3.8,3.8,0,0,1,1.6,1.3v.3l-.3.3a7.5,7.5,0,0,0-1.5,2,20,20,0,0,0-1,2.1h0l1.9-2.7a12.5,12.5,0,0,1,1.8-2.4h.2l-1,.2h-.4v-.3a10.7,10.7,0,0,0-5.5-1.4l-2.8.3h0A9.7,9.7,0,0,1,241.9,196.2Zm17.7-3.5a7.4,7.4,0,0,1-2,1.6,7.4,7.4,0,0,0,2-1.6Z" style="fill:#333031"/><path d="M251.9,186.6c2.9,0,5.2,1.6,8.1,1.9,6.1.7,11.6,3.2,17.2,5.5,3.4,1.4,6.2,3.7,9.4,5.3s5.3,2.6,7.8,4.1a45.3,45.3,0,0,0,9.8,5,78.3,78.3,0,0,0,10.6,1.8c7.3,1.1,14.5,2.5,21.8,3.5s15.3,2.9,23,3.3c3.5.2,6.7.9,10.2,1.4s7.4.6,11.2.8,7.3.5,11,.6c2.1,11.8,4.2,23.8,2.1,35.8a71.9,71.9,0,0,1-11.4,27.3l-2.6-.9-8-3.8c-5.2-2.5-10.5-4.9-15.9-7.1s-9.4-3.4-14.3-4.9a42.3,42.3,0,0,1-6.2-2.5c-2.1-1-4.4-1.4-6.5-2.3-4-1.7-8.7-4.3-13-5-1.9-.4-3.8-.5-5.7-.8s-4.6-1.4-6.9-1.9c-4.6-.9-9.4-1.2-13.9-2.4s-7.2-2.3-10.9-2.3a13.9,13.9,0,0,0-4,.6c-1.9.6-3.5,1.7-5.5,2.2s-4.7,1-7,1.5l-4.2.3-5.8-.3a20.7,20.7,0,0,1-4-1.3l9.2-4.8c3-1.7,6.3-3.3,6.9-6.8v-.2a28.5,28.5,0,0,1,.3-2.9c.1-1.9-.9-3.2-1.2-5a4.4,4.4,0,0,1,.2-2.3v-.2h0c.1-.4.3-.8.4-1.2,0-3-.8-6.1-3.4-7.8h-.3c-1.6,0-3.2,1.1-4.9,1.3a23.3,23.3,0,0,0,2.8-3.6,16.6,16.6,0,0,1,3.5-4.4h.1l1.7-.7a26.9,26.9,0,0,0,2.9-1.6,24,24,0,0,0,3.9-2l1-.4a.6.6,0,0,0-.2-1.1h-.2c-3.5,1.4-6.7,3.3-10,5a4.4,4.4,0,0,0-1.5,1,3.4,3.4,0,0,0-.9.8,5.7,5.7,0,0,1-.4,1.4,5.6,5.6,0,0,0-.5.8c-.5.9-1.2,1.9-1.8,2.8a31.4,31.4,0,0,1-8.1,5.8,6.5,6.5,0,0,1-2.6.6c-3.6,0-6.3-3.7-6.2-7.5s1.5-6.2,2.7-8.8a3.9,3.9,0,0,0,.8-1h0a18.5,18.5,0,0,0,2.4-4l.9-1.9,1.8-2.7a18.6,18.6,0,0,1,1.8-2.4,16.6,16.6,0,0,1,3.1-1.2c2.7-1,5.4-1.7,7.4-3.8a.5.5,0,0,0-.4-.9l-.4.2c-2.6,2.7-6.5,3-9.6,4.7l-1.4.2a.2.2,0,0,0-.2-.2,10.4,10.4,0,0,0-5.7-1.5l-2.9.2c-.6.1-.6,1.1,0,1.1h.1l2.4-.2a12.3,12.3,0,0,1,4.4.7,2.4,2.4,0,0,1,1.3,1,7.6,7.6,0,0,0-1.7,2.2c-1.5,2.9-2.4,6.4-4.9,8.6a5.8,5.8,0,0,1-4.2,1.5l-3.3-.2h0l-2.4-.6c-2.8-2-2.8-6.7-1.4-9.9l1.5-3a17.8,17.8,0,0,1,2.7-4.2l1.4-1.3c2.1-1.7,5.4-2.3,8-3.3a21.9,21.9,0,0,1,8.4-1.5h.2m0-1h-.2a22.7,22.7,0,0,0-8.8,1.5l-2.6.9c-2,.7-4.1,1.3-5.7,2.6l-1.4,1.4a16,16,0,0,0-2.9,4.4c-.6,1.1-1.1,2.2-1.5,3.1a11.9,11.9,0,0,0-1,5.9,7.2,7.2,0,0,0,2.7,5.3h.5l1.4.3.8.2h3.6a7.3,7.3,0,0,0,3.5-.8,22.5,22.5,0,0,0-2.3,8,9.2,9.2,0,0,0,2.5,6.4,6.4,6.4,0,0,0,4.8,2.1,6.6,6.6,0,0,0,3-.7,30.6,30.6,0,0,0,5.4-3.3l2.1-.3,2.3-.7a7.8,7.8,0,0,1,2.3-.6c1.8,1.2,2.7,3.3,2.8,6.5a.4.4,0,0,0-.1.3l-.3.7v.2h-.1v.2a7.4,7.4,0,0,0-.3,2.7,9.5,9.5,0,0,0,.7,2.2,8.2,8.2,0,0,1,.6,2.7c-.1.3-.1.7-.2,1.1a11.1,11.1,0,0,0-.2,1.9h.1c-.6,2.7-3.2,4.1-6,5.6l-.4.2c-3,1.7-6.1,3.3-9.1,4.8h-.1l-1.9,1,2,.9a25.8,25.8,0,0,0,4.2,1.3h1.2l4.8.3a30,30,0,0,0,4.4-.4l1.2-.2,5.9-1.2a15.3,15.3,0,0,0,3.2-1.3l2.3-1a11.5,11.5,0,0,1,3.7-.6c2.8,0,5.6.9,8.3,1.6l2.3.7a63.5,63.5,0,0,0,8.5,1.6l5.5.8,3.3.9,3.6,1,3.2.4,2.5.4c3,.5,6.3,2,9.4,3.4l3.4,1.5a21.2,21.2,0,0,0,2.9,1.1,22,22,0,0,1,3.6,1.3,55.1,55.1,0,0,0,6.3,2.5c4.2,1.3,9.2,2.9,14.2,4.9s10.2,4.3,15.9,7.1c2.9,1.4,5.4,2.6,8,3.7a21.5,21.5,0,0,0,2.7,1l.8.3.4-.7a72.5,72.5,0,0,0,11.5-27.8c2.1-12,0-24.1-2-35.8v-.3l-.2-.8h-.8l-11.1-.6-3.7-.2c-2.5-.2-5-.3-7.4-.7l-3.6-.5a65.7,65.7,0,0,0-6.6-.9,112.4,112.4,0,0,1-15.3-2l-7.6-1.2-11.9-1.9-9.9-1.6-3-.4a62,62,0,0,1-7.5-1.4c-3.1-.9-5.8-2.6-8.7-4.3l-.9-.6a45.2,45.2,0,0,0-5.3-2.8l-2.5-1.3a27.7,27.7,0,0,1-3.7-2.2,35.6,35.6,0,0,0-5.8-3.1l-1.8-.8c-5-2-10.1-4.2-15.7-4.8a13.1,13.1,0,0,1-3.4-.9,14.6,14.6,0,0,0-4.8-1Z" style="fill:#fff"/><path d="M238,226.7a17,17,0,0,1-2.8-.3l-1.4-.4h-.4c-3-.8-3.7-4.7-4.1-7.2v-.3a9,9,0,0,1,.3-3.7c.1-.4.1-.8.2-1.2s.1-.4.1-.7a3.2,3.2,0,0,1,.8-2.3.9.9,0,0,1,.7-.3,1.1,1.1,0,0,1,.7-.3h.3l1.3.4.4.2h5.2l.9.3a1.5,1.5,0,0,1,.5,1.2,3.1,3.1,0,0,1-.6,1.3l-.2.5a9.5,9.5,0,0,0-.8,4.5,11.2,11.2,0,0,0,.3,2.7,6.7,6.7,0,0,0,.7,1.8,8.7,8.7,0,0,1,.7,1.7,1.9,1.9,0,0,1-.3,1.5c-.4.6-1.2.8-2.4.8Z" style="fill:#333031"/><path d="M232,210.5h.2l1.7.5h5.3a.7.7,0,0,1,.6.2.7.7,0,0,1,.3.6c-.2.6-.6,1.2-.8,1.7a9.6,9.6,0,0,0-.8,4.7,12.7,12.7,0,0,0,.3,2.8c.2,1.3,1.1,2.3,1.4,3.5s-.9,1.7-2.2,1.7a17,17,0,0,1-2.7-.3l-1.4-.4h-.3c-2.9-.8-3.4-4.7-3.9-7.1s.2-3.1.5-4.7.1-2.1.8-2.7.3-.2.5-.2h0l.5-.3m0-1h0a1.6,1.6,0,0,0-.9.3l-.8.4a3.7,3.7,0,0,0-1,2.7c0,.2-.1.4-.1.6s-.1.8-.2,1.2a9.9,9.9,0,0,0-.3,3.9v.3c.4,2.5,1.1,6.7,4.5,7.6h.4l1.4.4a16.8,16.8,0,0,0,2.9.4,3.5,3.5,0,0,0,2.8-1,2.4,2.4,0,0,0,.4-2,10.8,10.8,0,0,0-.8-1.9,4.4,4.4,0,0,1-.6-1.6,10.9,10.9,0,0,1-.3-2.6,10.6,10.6,0,0,1,.7-4.2l.3-.6a4.5,4.5,0,0,0,.6-1.4,1.8,1.8,0,0,0-.7-1.7,2.8,2.8,0,0,0-1.2-.4h-5.1l-.3-.2-1.4-.4Z" style="fill:#fff"/><path d="M239.3,240.6l-1.4-.2c-2.5-.8-5.3-4.1-6.6-7.8s-1-5.3.1-7l.4-.4h.5a22.6,22.6,0,0,0,5.2,1.2h3.2a9,9,0,0,1,2.2.2h.1a3.5,3.5,0,0,0,1.3.3h1.6a15.3,15.3,0,0,0,2.7-1.1l.6-.3,1.8-1h.1l1.6-.5,2.5-1,3.7-1.4,1-.2a2.8,2.8,0,0,1,1.2.4c.9.5,1.5,2,1.9,3l.3.7a4,4,0,0,1,.5,3.2c-.8,4-3,5.4-6.4,7l-1.6.8a35.4,35.4,0,0,1-8.1,3.3,21.5,21.5,0,0,1-3.4.5h-1.7l-1.3.2a6.9,6.9,0,0,1-2,.3Z" style="fill:#333031"/><path d="M259.9,221.7a1.4,1.4,0,0,1,1,.3c.9.5,1.6,2.6,1.9,3.4a3.7,3.7,0,0,1,.5,2.9c-.7,3.8-2.9,5.1-6.2,6.7a46.6,46.6,0,0,1-9.5,4,44.3,44.3,0,0,1-5.1.6c-1.1.1-2.2.5-3.2.5l-1.2-.2c-4.2-1.4-8.9-9.9-6.3-14l.3-.2a24,24,0,0,0,5.3,1.2h3.3l2.1.2a3.3,3.3,0,0,0,1.5.3H246a14.3,14.3,0,0,0,3.4-1.4l1.9-1.1,1.6-.5,6.1-2.4h.9m0-1.1h0l-1.2.3a27.2,27.2,0,0,0-3.7,1.3l-2.5,1-1.6.6h-.2l-1.8,1-.5.2a11.2,11.2,0,0,1-2.6,1.1h-1.5a2.2,2.2,0,0,1-1.1-.2H243a10.2,10.2,0,0,0-2.3-.2h-3.2a23.1,23.1,0,0,1-5.1-1.2l-.4-.2-.5.3a1.2,1.2,0,0,0-.5.5c-1.2,1.9-1.3,4.5-.2,7.4s4.2,7.3,7,8.2l1.5.2,2.1-.3,1.2-.2h1.7a22.7,22.7,0,0,0,3.5-.5,34.3,34.3,0,0,0,8.2-3.3l1.6-.8c3.4-1.7,5.9-3.2,6.7-7.4a5.1,5.1,0,0,0-.5-3.5l-.3-.7c-.5-1.1-1.1-2.6-2.1-3.2a3,3,0,0,0-1.5-.5Z" style="fill:#fff"/><path d="M246.5,252.2h-.9a6.4,6.4,0,0,1-3.8-1.5l-.4-.3-.7-.5a11.9,11.9,0,0,1-3.9-3.1,6.2,6.2,0,0,1-.6-4.6,2.2,2.2,0,0,1,.5-1.1,1.1,1.1,0,0,1,.3-.7,1.3,1.3,0,0,1,.9-.4h.4l.7.2h1.1a29.3,29.3,0,0,0,4.1-.7l1.2-.3,1.3-.2a42.1,42.1,0,0,0,5.1-1.2,20.1,20.1,0,0,0,3.9-1.9,16.9,16.9,0,0,1,4.5-2.1l1.1-.2a2.7,2.7,0,0,1,2.7,1.8c1,2.4-.1,6.7-1.7,8.3s-4.3,3.1-6.6,4.3l-3.3,1.7-.7.5c-1.7,1-3,1.9-5.2,1.9Z" style="fill:#333031"/><path d="M261.3,234.2c3.9,0,2.7,7.2.7,9.2s-6.6,4.1-9.8,6-3.4,2.2-5.7,2.2h-.8a6.8,6.8,0,0,1-3.6-1.4l-.4-.3c-1.4-.9-3.5-2.1-4.5-3.5a6.1,6.1,0,0,1-.5-4.2,2.4,2.4,0,0,1,.5-1,.8.8,0,0,1,.7-.7h.4l.5.2H240a28.4,28.4,0,0,0,5.5-1,46.9,46.9,0,0,0,6.5-1.4c2.9-.9,5.4-3.3,8.3-4l1-.2m0-1-1.3.2a16.2,16.2,0,0,0-4.6,2.2,21,21,0,0,1-3.7,1.8,45.4,45.4,0,0,1-5,1.2l-1.4.2-1.2.3a18.5,18.5,0,0,1-3.9.6h-1l-.8-.2h-.5a1.8,1.8,0,0,0-1.3.6,2,2,0,0,0-.4.8,3.3,3.3,0,0,0-.5,1.2,6.3,6.3,0,0,0,.7,5,14.4,14.4,0,0,0,4,3.3l.7.4h.1l.3.2a6.7,6.7,0,0,0,4.1,1.6h.9a9.4,9.4,0,0,0,5.5-2l.7-.4,3.2-1.7a25.6,25.6,0,0,0,6.8-4.4c1.7-1.7,2.9-6.2,1.8-8.9a3.4,3.4,0,0,0-3.2-2.1Z" style="fill:#fff"/><path d="M49.6,283c-7.5-7.1-12.5-14.9-14.8-23.2s-1.7-19.9,2.5-31l.2-.3,1.2-.2,1.4-.3,5.7-1a23.2,23.2,0,0,1,4.6-.4,13.7,13.7,0,0,0,3-.2l5.8-.8,8.1-1.2,6.4-1c2.4-.3,4.9-.6,7.3-1.1s4.6-.8,6.8-1.1,4.8-.7,7.2-1.2l7.6-1.6c5.7-1.2,11.5-2.4,17.1-4a73.4,73.4,0,0,1,13.1-2.4H134l5.2-.4a10.7,10.7,0,0,0,1.9-1.8l1.5-1.5,2.4-1.5,1.6-1.1a39.8,39.8,0,0,0,8.8-7.6l1-1.2c2.6-3.3,5.7-7.1,10.2-7.1h1.6a11.6,11.6,0,0,1,2.8,1l1.4.6a11.6,11.6,0,0,0,3.4.5l3-.2,3.3-.8a20.2,20.2,0,0,1,4.9-.9h.1a24.2,24.2,0,0,1,5.6,1,18.6,18.6,0,0,0,3.4.7l4,1a9.8,9.8,0,0,1,6.8,4.8,14.4,14.4,0,0,1,1.1,10.4,11.8,11.8,0,0,1-1.7,3.6,12.4,12.4,0,0,1,.6,4.7c-.3,3.6-2.8,6.5-4.9,8.8v.3a5.5,5.5,0,0,0-.1,1.8c0,.2.1.4.1.6a6.8,6.8,0,0,1,.2,1.4,8.5,8.5,0,0,1-1.4,4.9l-.6.9a5.6,5.6,0,0,0-1.4,2.9c0,.4.1.9.1,1.4s.1.8.2,1.1a12.9,12.9,0,0,1-.6,4.8c-1,2.6-3.9,4.7-8.4,6.4a36.6,36.6,0,0,1-12.4,2.1h-2.4c-3.6,0-7.2-.2-10.6-.3s-7.1-.4-10.6-.4h-4.3a110.7,110.7,0,0,0-16.8,1.9l-2.6.5-3.7.7h-.2a150,150,0,0,1-19,8.3l-4.3,1.7a230.7,230.7,0,0,1-25.1,8.3,29.2,29.2,0,0,0-3.4,1.3l-2.4,1-2.6.8-3.1,1a71.4,71.4,0,0,1-10.3,2.9l-2.5.6-3.7,1h-.3Z" style="fill:#333031"/><path d="M166.6,190.2h1.5a24.1,24.1,0,0,1,4.2,1.6,10.2,10.2,0,0,0,3.5.5l3-.2c2.8-.4,5.4-1.6,8.2-1.6h.1c3.2,0,5.9,1.2,8.9,1.7a15.7,15.7,0,0,1,4,.9,9.1,9.1,0,0,1,6.5,4.6,14.4,14.4,0,0,1,1,10,11.5,11.5,0,0,1-1.8,3.7,10.6,10.6,0,0,1,.7,4.7c-.3,3.4-2.7,6.1-4.9,8.6a17.7,17.7,0,0,0-.1,2.4l.3,1.9a8.2,8.2,0,0,1-1.3,4.6c-.9,1.3-2,2.4-2.1,4.1a24.6,24.6,0,0,0,.2,2.6,9.8,9.8,0,0,1-.5,4.5c-1.2,3.1-5.2,5-8.1,6.1a36.8,36.8,0,0,1-12.2,2.1h-2.4c-7.1,0-14.1-.7-21.2-.7h-4.3a119.7,119.7,0,0,0-16.9,1.9c-2.1.4-4.3.7-6.4,1.2l-.3.2c-7.4,4.1-15.3,6.8-23.2,9.9A221.8,221.8,0,0,1,78,274c-2.1.6-3.9,1.6-5.9,2.3s-3.8,1.1-5.7,1.8a93.1,93.1,0,0,1-12.8,3.5l-3.7,1c-6.7-6.3-12.1-13.9-14.6-22.9s-1.2-20.9,2.5-30.7l.9-.2c2.4-.5,4.8-1,7.2-1.3s5.5-.2,7.6-.6c4.6-.7,9.3-1.1,13.9-2s9.2-1.2,13.7-2.1,9.4-1.3,14-2.3c8.3-1.8,16.6-3.3,24.7-5.6a64.7,64.7,0,0,1,13-2.4l6.5-.5c1.5-.9,2.4-2.4,3.7-3.4a37.3,37.3,0,0,1,3.9-2.5c3.2-2.3,6.5-4.7,8.9-7.8s6-8.1,10.8-8.1m0-1.1h0c-4.8,0-7.9,3.9-10.6,7.4l-1,1.2a41.6,41.6,0,0,1-8.7,7.5l-1.6,1-2.4,1.6-1.6,1.5A6.9,6.9,0,0,1,139,211l-5,.4h-1.2a60.6,60.6,0,0,0-13.3,2.4c-5.6,1.6-11.4,2.8-17,4l-7.6,1.6q-3.6.8-7.2,1.2c-2.2.3-4.5.6-6.8,1.1s-4.8.8-7.2,1.1l-6.5,1q-4.1.8-8.1,1.2l-5.8.8-2.9.2a24.9,24.9,0,0,0-4.7.4,56.7,56.7,0,0,0-5.7,1l-1.4.3H37.1l-.2.6c-4.4,11.2-5.2,21.8-2.6,31.3s7.3,16.3,14.9,23.4l.5.4h.5l3.7-1,2.5-.6a72.7,72.7,0,0,0,10.4-2.9l3.1-1,2.6-.8,2.4-1a23.7,23.7,0,0,1,3.4-1.3,238.2,238.2,0,0,0,25.1-8.3l4.3-1.7a150,150,0,0,0,19-8.3l.3-.2,3.4-.6,2.7-.5a123.4,123.4,0,0,1,16.8-1.9h4.2c3.5,0,7.1.2,10.5.4s7.1.4,10.7.4h2.4a34.4,34.4,0,0,0,12.5-2.2c4.8-1.7,7.7-3.9,8.8-6.6a14.3,14.3,0,0,0,.6-5,5,5,0,0,0-.2-1.2c0-.4-.1-.9-.1-1.2a5.2,5.2,0,0,1,1.3-2.7l.7-.9a8.9,8.9,0,0,0,1.4-5.2,5.9,5.9,0,0,0-.2-1.4,1.7,1.7,0,0,0-.1-.7,9.2,9.2,0,0,1,.1-1.6v-.2c2.1-2.3,4.6-5.3,4.9-8.9a10.7,10.7,0,0,0-.5-4.7,14.1,14.1,0,0,0,.5-14.3,10.1,10.1,0,0,0-7.1-5.1,30.8,30.8,0,0,0-4.1-1,16,16,0,0,1-3.3-.7,26,26,0,0,0-5.8-1H187a20.1,20.1,0,0,0-5,.9l-3.3.8-2.9.2a10.2,10.2,0,0,1-3.2-.5l-1.3-.6a15.1,15.1,0,0,0-3-1l-1.7-.2Z" style="fill:#fff"/><path d="M216.6,300.5a1.6,1.6,0,0,1-1.6-1.6V280.3a1.6,1.6,0,1,1,3.2,0v18.6A1.6,1.6,0,0,1,216.6,300.5Z" style="fill:#66c8c7"/><path d="M236.1,285.4a2.1,2.1,0,0,1-1.2-.5l-6.8-6.8a1.7,1.7,0,0,1,0-2.3,1.5,1.5,0,0,1,2.3,0l6.9,6.8a1.7,1.7,0,0,1,0,2.3A2.1,2.1,0,0,1,236.1,285.4Z" style="fill:#66c8c7"/><path d="M197.1,285.4a1.6,1.6,0,0,1-1.1-.5,1.5,1.5,0,0,1,0-2.3l6.8-6.8a1.6,1.6,0,0,1,2.3,2.3l-6.8,6.8A2.1,2.1,0,0,1,197.1,285.4Z" style="fill:#66c8c7"/><path d="M216.6,158.1a1.7,1.7,0,0,1-1.6-1.7V137.9a1.6,1.6,0,1,1,3.2,0v18.5A1.7,1.7,0,0,1,216.6,158.1Z" style="fill:#66c8c7"/><path d="M204,161.5a1.7,1.7,0,0,1-1.2-.5l-6.8-6.8a1.6,1.6,0,0,1,2.3-2.3l6.8,6.8a1.5,1.5,0,0,1,0,2.3A1.6,1.6,0,0,1,204,161.5Z" style="fill:#66c8c7"/><path d="M229.3,161.5a1.7,1.7,0,0,1-1.2-.5,1.7,1.7,0,0,1,0-2.3l6.8-6.8a1.6,1.6,0,0,1,2.4,0,1.7,1.7,0,0,1,0,2.3l-6.9,6.8A1.6,1.6,0,0,1,229.3,161.5Z" style="fill:#66c8c7"/></svg>