<svg xmlns="http://www.w3.org/2000/svg" viewBox="0 0 360 360"><title>illustr--dashboardPage</title><path d="M295,64.3c-1.6-.9-3.2-1.4-7.8-1.4H86.9c-4.6,0-6.2.5-7.8,1.4A9,9,0,0,0,75.3,68c-.9,1.7-1.4,3.3-1.4,7.8V276.2c0,4.5.5,6.2,1.4,7.8a9.9,9.9,0,0,0,3.8,3.8c1.6.8,3.2,1.3,7.8,1.3H287.2c4.6,0,6.2-.5,7.8-1.3a9.9,9.9,0,0,0,3.8-3.8c.9-1.6,1.4-3.3,1.4-7.8V75.8c0-4.5-.5-6.1-1.4-7.8A9,9,0,0,0,295,64.3Zm3.9,211.9c0,4.6-.5,5.9-1.2,7.2a7.3,7.3,0,0,1-3.3,3.2c-1.3.8-2.5,1.3-7.2,1.3H86.9c-4.7,0-5.9-.5-7.2-1.3a7.3,7.3,0,0,1-3.3-3.2c-.7-1.3-1.2-2.6-1.2-7.2V75.8c0-4.6.5-5.9,1.2-7.1a7,7,0,0,1,3.3-3.3c1.3-.8,2.5-1.3,7.2-1.3H287.2c4.7,0,5.9.5,7.2,1.3a7,7,0,0,1,3.3,3.3c.7,1.2,1.2,2.5,1.2,7.1Z" style="fill:#afadad"/><path d="M202.5,179.9h0a35.2,35.2,0,0,1,5.6.4l1.3.5,1.9.5c2.1.8,4,2.1,6,3a24.2,24.2,0,0,1,3.9,2.1l2.8,2,.3.3c1.8,1.6,3.5,3.3,5.4,4.8a20.3,20.3,0,0,0,5.5,3.2l4.2,1,1.6,1.1c-4.5.4-8.9.7-12.4-2.7s-6.3-6.1-10.8-7a14.5,14.5,0,0,0-11.1,2.1c-.3,0-.5-.1-.5-.4a22.5,22.5,0,0,0-1.4-4.4c-.7-1.9-1.2-3.9-2.1-5.8h0A.6.6,0,0,1,202.5,179.9Z" style="fill:#66c8c7"/><path d="M237,199.4c-3.1,0-6.1-.5-8.6-3s-6.2-6-10.7-6.9-7.9-.1-10.8,2h-.2a1,1,0,0,1-.9-.7,20.3,20.3,0,0,0-1.4-4.4c-.3-.8-.5-1.6-.8-2.4a21.9,21.9,0,0,0-1.2-3.3.9.9,0,0,1-.2-1.1v-.2h.2a36,36,0,0,1,5.6.4h.1l1.3.4,1.8.5h.2l3.6,1.8,2.4,1.3,3.9,2h0l1.4,1,1.4,1,.3.2h.1l1.9,1.7,3.4,3.1a20.4,20.4,0,0,0,5.4,3.1,30.8,30.8,0,0,0,4.1,1h.2a11.1,11.1,0,0,1,1.6,1.2l.7.6H241Zm-22.5-11a13.7,13.7,0,0,1,3.4.4c4.6.8,7.9,4,11,7s6.9,3,11.1,2.7l-.8-.4a26.4,26.4,0,0,1-4.1-1.1,17.4,17.4,0,0,1-5.7-3.2l-3.5-3.1-1.8-1.7-.4-.3-1.4-1-1.3-1a32.9,32.9,0,0,0-3.8-2l-2.5-1.3-3.5-1.7h-.1l-1.8-.5-1.3-.4a28.9,28.9,0,0,0-5-.4h.1c.5,1.2.9,2.3,1.3,3.5a15.5,15.5,0,0,0,.8,2.3,25.9,25.9,0,0,1,1.4,4.5h0A13.2,13.2,0,0,1,214.5,188.4Zm-11.4-7.9Zm-.6-.6Z" style="fill:#fff"/><path d="M250.9,198.2a15.5,15.5,0,0,0,4.2-1.2h.1a15.2,15.2,0,0,0,4-2.4,6.3,6.3,0,0,0,1.2-7.9c-2.3-3.6-7.5-4.4-11.1-5.9s-8.3-5.8-12.1-9-6.3-6.1-9.7-9h.1l.2-.2a31.7,31.7,0,0,1,5.5-1.5,49.7,49.7,0,0,0,6.5-2.2c4.5-1.4,9-3,13.6-4.1s9.2-2.4,13.6-3.8,9.7-2.6,14.5-3.9a168.7,168.7,0,0,1,27.9-5.8l7.2-.8c2.6-.4,4.7-1.4,7.2-2.1s3.8-1.4,5.5-1.4,2.1.9,2.6,2.2c3.4,8.5,7.8,17,9.7,26.2.9,4.5,1.3,9,1.9,13.6.2,2.2.6,4.5.8,6.8s.3,4.9.7,7.3.3,2-.4,2.7-3.5.8-5,1-4.4.4-6.7.4h-7.5c-9.8.6-19.6.8-29.5.8h-8.3l-8.2.2c-2.7,0-5.3.2-8,.3s-5.3,0-8,.2h-1.7l-11.9-.2Z" style="fill:#66c8c7"/><path d="M261.8,199.2H247.4l2.3-.8,1-.3h.1a16.4,16.4,0,0,0,4.1-1.3h.2a14.3,14.3,0,0,0,3.8-2.3,5.6,5.6,0,0,0,1.1-7.4c-1.6-2.5-4.7-3.6-7.7-4.6l-3.2-1.2c-3.8-1.7-7-4.5-10.1-7.2l-2.1-1.8-4.8-4.5-4.8-4.5-.7-.6h1a21.9,21.9,0,0,1,5-1.4l.6-.2a30.6,30.6,0,0,0,4.3-1.3l2.2-.8,2.1-.7a117,117,0,0,1,11.5-3.5c5.1-1.2,9.6-2.5,13.6-3.7s5.9-1.7,8.8-2.5l5.7-1.5a171.1,171.1,0,0,1,28-5.8h1.3l5.8-.7a22,22,0,0,0,4.4-1.2l2.8-.8,1.8-.6a11,11,0,0,1,3.8-.9h.1c1.6,0,2.3,1.1,2.9,2.4s1.8,4.6,2.8,6.8c2.7,6.2,5.5,12.7,6.9,19.5.7,3.6,1.1,7.2,1.5,10.8l.3,2.8c.2,1.2.3,2.3.5,3.5s.3,2.2.4,3.3.2,2.3.3,3.4.2,2.6.4,3.9v.2c.1.9.3,2.1-.6,2.9s-2.6.9-4.1,1h-1l-1.2.2c-1.8.1-3.7.3-5.6.3h-7.5c-10.1.6-20,.8-29.5.8H279.4l-6.2.2h-4.8l-5,.2h-1.6Zm-9.2-.9h10.8l5-.2h4.8l6.2-.2h16.5c9.5.1,19.4-.2,29.5-.8h7.5l5.5-.4h2.3c1.3,0,2.8-.1,3.6-.8s.4-1.4.3-2.2h0c-.2-1.4-.3-2.7-.4-4.1s-.1-2.2-.2-3.3-.3-2.2-.5-3.3-.3-2.3-.4-3.5-.3-1.9-.4-2.8c-.4-3.6-.8-7.2-1.5-10.8-1.4-6.6-4.1-13.1-6.8-19.3-1-2.2-2-4.5-2.9-6.8s-1-1.9-2.1-1.9h-.1a11.7,11.7,0,0,0-3.5.8l-1.9.6-2.7.9a23.9,23.9,0,0,1-4.6,1.2l-5.9.7h-1.2a172,172,0,0,0-27.9,5.8l-5.7,1.5c-2.9.7-5.9,1.5-8.7,2.4s-8.6,2.5-13.7,3.8-7.7,2.2-11.4,3.4l-2.1.7-2.3.8a30.9,30.9,0,0,1-4.3,1.4h-.6a24.2,24.2,0,0,0-4.6,1.3l4.4,4.1c1.5,1.5,3.1,3.1,4.8,4.5l2.1,1.8c3,2.7,6.2,5.5,9.9,7.1l3.1,1.1c3.2,1.1,6.4,2.2,8.2,5a6.5,6.5,0,0,1-1.3,8.4,12.8,12.8,0,0,1-3.9,2.4h-.2Z" style="fill:#fff"/><path d="M214,144.9l4.9,1.9,2.8,1a64.5,64.5,0,0,1,5.8,3.1,66.5,66.5,0,0,1,5.8,3.3c.9.6,2,1,2.9,1.6a10.6,10.6,0,0,1,1.7,2,.4.4,0,0,1,.1.3,73.8,73.8,0,0,1-11.4,3.1,12.7,12.7,0,0,1-1.3-1.9,22.9,22.9,0,0,0-2.1-2.3,17.8,17.8,0,0,1-2.8-3.8,21.8,21.8,0,0,0-3.8-4.7l-1.9-1.8a4.5,4.5,0,0,1-1.3-1.1C213.2,145.3,213.6,144.8,214,144.9Z" style="fill:#333031"/><path d="M244.3,199.8c2.6-.4,5.6,0,8.2,0h4.3a16.1,16.1,0,0,0,4.4-.2h.1a1.6,1.6,0,0,1,.2,1h0v.8c0,.9-.3,1.8-.3,2.7h0a7.9,7.9,0,0,1-1.5,2.4c-1.7,1.7-3.3,3.6-5.5,4.5a10.5,10.5,0,0,1-3.4.8c-1.2.2-2.5.6-3.7.7a4.6,4.6,0,0,1-4.4-2.7C241.5,207.4,240.1,200.3,244.3,199.8Z" style="fill:#333031"/><path d="M181.1,187.5c.9-2.1,2.6-4.3,5-4.7s6.1.8,9.2,2.4a33.7,33.7,0,0,1,9.2,6.6v.2h.1c-1.4.8-2,2.5-2.2,4.2v.7a4.9,4.9,0,0,0,.7,4.5l.6.7a19.1,19.1,0,0,0,4.5,4.9,89.5,89.5,0,0,0,8.6,6.2,26.4,26.4,0,0,0,3.8,1.8l.4.3a10.1,10.1,0,0,0,2.4,1h.3a.9.9,0,0,1,.5,1.3,1.4,1.4,0,0,1-.2.6,13.3,13.3,0,0,1-1.9,1.4,10.4,10.4,0,0,1-4.5,1.8,25.4,25.4,0,0,1-4.8.2,13.7,13.7,0,0,1-2.8-.5h-.3l-.6-.2-.3-.2a31.7,31.7,0,0,0-4.9-3.2l-1.9-1.1-1.1-.8-1.7-1.1a64.4,64.4,0,0,1-6.5-5.2l-1.3-1.3-.9-.9c-1.2-1.4-2.5-2.7-3.6-4.1s-3.5-5-5.3-7.4a24.8,24.8,0,0,1-1.3-3.5A9.7,9.7,0,0,1,181.1,187.5Z" style="fill:#333031"/><path d="M175.5,207.4a41.4,41.4,0,0,1-3-5,10.1,10.1,0,0,1-.7-1.5,13,13,0,0,1-.2-5.2c.1-.5.3-1,.4-1.4l.4-1.3c.9-1.4,2.5-2,4.1-2.5h.5a3.3,3.3,0,0,1,2.2.2,23.3,23.3,0,0,0,2.7,7.1h0a49.1,49.1,0,0,0,6.7,8.5h0c1.3,1.4,2.6,2.8,4,4.1a62.2,62.2,0,0,0,6.4,5.1l1.1.6.9.6.7.5,1.4.8c1.5.8,2.9,1.8,4.4,2.7a3.7,3.7,0,0,1,1.9,2.7,3.8,3.8,0,0,1-1.7,1.6,13.4,13.4,0,0,1-5.4,2.2,6.4,6.4,0,0,1-4.5-.5,59.4,59.4,0,0,1-5.7-2.7,34.5,34.5,0,0,1-9.2-7.4,74.3,74.3,0,0,1-6-7.6Z" style="fill:#333031"/><path d="M198.7,185.9a20.2,20.2,0,0,0-6.6-3.6l.4-.2h.2l.6-.2a45.4,45.4,0,0,1,8.2-1.4c1.1,3.6,2.7,6.9,3.9,10.5A79,79,0,0,0,198.7,185.9Z" style="fill:#333031"/><path d="M213.1,197.2,205,174.7h.2c.5-.2,42.1-17.8,112.1-30.8h.3v.3a16.6,16.6,0,0,0,1.6,3.3c3.3,4.9,8.8,7.4,13.1,5.8h.3v.3c2.8,6.8,6.3,17,7.1,27.5v.4h-.4c-7.6,0-13.7,5.2-13.9,11.7v.3h-.3c-22.8-.3-67.7-.3-112,4Zm-7.3-22.1,7.8,21.4c44-4.2,88.6-4.3,111.5-4,.4-6.6,6.5-11.8,14.1-12-.8-10.1-4.2-20-6.9-26.6-4.5,1.4-10.2-1.2-13.5-6.3a13,13,0,0,1-1.6-3.1C250.4,157,209.6,173.5,205.8,175.1Z" style="fill:#fff"/><path d="M226.6,216.5l-1.9-.5a68.9,68.9,0,0,1-8-4.3l-2.2-1.5-4.6-3.4c-1.4-1-2.7-2.2-4-3.3a10.7,10.7,0,0,1-1.6-1.4,7.6,7.6,0,0,1-1-3,7.1,7.1,0,0,1,2.5-6.3,8.4,8.4,0,0,1,4-2.3,10.9,10.9,0,0,1,8.3-.5,15.4,15.4,0,0,1,4.7,2.1,52.4,52.4,0,0,1,5,4.4c1.4,1.4,2.9,3.1,5,3.3h7.5a.4.4,0,0,1,.4.4h.1c-.2.5-.3,1.1-.5,1.6a4.6,4.6,0,0,0-.3,2.5,11.8,11.8,0,0,0,2.4,7.8c-.9,1.6-4,2.1-5.4,2.6s-3.7,1.2-5.6,1.6A12.9,12.9,0,0,1,226.6,216.5Z" style="fill:#333031"/><path d="M322.5,144h-.1l-.6.5-.3-.5.9-.7h.7l.6,4H323Z" style="fill:#fff"/><path d="M326.8,144.7c.2,1.3-.2,2.1-1.2,2.3s-1.5-.6-1.7-1.8.2-2.2,1.1-2.4S326.6,143.5,326.8,144.7Zm-2.2.3c.2,1,.5,1.5,1,1.4s.6-.6.4-1.6-.5-1.4-.9-1.4S324.5,144,324.6,145Z" style="fill:#fff"/><path d="M329.9,144.2c.3,1.2-.1,2.1-1.1,2.3s-1.5-.6-1.7-1.8.2-2.2,1.1-2.4S329.8,143,329.9,144.2Zm-2.1.3c.2,1,.5,1.5.9,1.4s.6-.6.5-1.6-.5-1.5-.9-1.4S327.7,143.5,327.8,144.5Z" style="fill:#fff"/><path d="M331.9,188h0l-.7.4-.2-.6,1-.5h.6l.2,4h-.7Z" style="fill:#fff"/><path d="M336.1,189.2c.1,1.3-.4,2.1-1.4,2.1s-1.4-.8-1.5-2,.5-2.1,1.4-2.2S336.1,188,336.1,189.2Zm-2.1.1c0,1,.3,1.5.7,1.4s.7-.5.7-1.5-.3-1.5-.8-1.5S333.9,188.3,334,189.3Z" style="fill:#fff"/><path d="M339.4,189c0,1.3-.5,2.2-1.4,2.2s-1.5-.8-1.6-2,.5-2.2,1.4-2.2S339.3,187.8,339.4,189Zm-2.2.1c0,1,.3,1.5.8,1.5s.6-.6.6-1.5-.3-1.5-.8-1.5S337.2,188.1,337.2,189.1Z" style="fill:#fff"/><path d="M278.5,188.2a9.9,9.9,0,0,1-7.2-3.3,17.1,17.1,0,0,1-4.7-9.8h0a18.5,18.5,0,0,1,1.7-10.8,10.1,10.1,0,0,1,7.2-5.5,9.9,9.9,0,0,1,8.4,3.3,17.1,17.1,0,0,1,4.7,9.8c1.2,8.1-2.8,15.4-8.9,16.2ZM276.7,160h-1a8.8,8.8,0,0,0-6.3,4.8,16,16,0,0,0-1.5,10h0a15.6,15.6,0,0,0,4.3,9.1,8.4,8.4,0,0,0,7.4,2.9c5.3-.8,8.8-7.4,7.8-14.8a17.5,17.5,0,0,0-4.3-9.2A9.4,9.4,0,0,0,276.7,160Z" style="fill:#fff"/><rect x="243.1" y="176.8" width="15.2" height="1.25" transform="translate(-22.9 37.9) rotate(-8.3)" style="fill:#fff"/><rect x="242.6" y="173.4" width="15.2" height="1.25" transform="translate(-22.4 37.8) rotate(-8.3)" style="fill:#fff"/><rect x="243.6" y="180.2" width="15.2" height="1.25" transform="matrix(0.99, -0.14, 0.14, 0.99, -23.38, 38)" style="fill:#fff"/><rect x="295.3" y="169.2" width="15.2" height="1.25" transform="translate(-21.3 45.3) rotate(-8.3)" style="fill:#fff"/><rect x="294.9" y="165.8" width="15.2" height="1.25" transform="translate(-20.8 45.2) rotate(-8.3)" style="fill:#fff"/><rect x="295.8" y="172.6" width="15.2" height="1.25" transform="matrix(0.99, -0.14, 0.14, 0.99, -21.75, 45.43)" style="fill:#fff"/><path d="M9.4,184.7c.5-5.5,1.3-11.1,2-16.6s1.5-10.2,2.5-15.3a6.8,6.8,0,0,1,1.3-3.3c.7-1,1.6-1.9,2.2-2.9s1.9-3.1,3.9-3.2c.3,0,81.8,5.5,84.7,5.5a14.3,14.3,0,0,0,3.5-.6,31,31,0,0,1,4.2-.8,81.5,81.5,0,0,0,8.3-1.7c2.4-.6,5-.8,7.4-1.5s4.9-1.7,7.5-2.4,4.5-1.4,6.7-2.2,5.2-1.1,7.8-1.7,4.7-1.1,7.1-1.4a66,66,0,0,1,16,1.1c5.4,1,10.7,1.5,16.1,2.4a78.5,78.5,0,0,1,8.2,1.5c2.7.7,5.3,1.6,8.1,2.2a13.6,13.6,0,0,1,5.5,2.4,28.5,28.5,0,0,1,4.7,4.5c1.6,2,2.8,4.4,4.4,6.4s1.6,1.7,2.4,2.6,1.6,2.1,2.6,3.1l.4.4c1.5,1.2,2.9,2.6,4.4,3.9s5,4.3,7.4,6.6l2.9,2.9,2.2,1.7a27,27,0,0,0,7.1,3.8c2.6,1,5.8,1.8,7.9,3.8a6.1,6.1,0,0,1,1.2,1.6,1.4,1.4,0,0,1,.2.6,5.1,5.1,0,0,1-.1,4l-.5.7a6.9,6.9,0,0,1-1.6,1.8,13.8,13.8,0,0,1-3.3,2,17.9,17.9,0,0,1-6.5,1.3,21.4,21.4,0,0,1-6.7-.3,6.6,6.6,0,0,1-2-.6l-1.4-.4a17.3,17.3,0,0,1-4.4-1.4,14.1,14.1,0,0,1-2.4-1.3,58.3,58.3,0,0,1-5.5-4.6,29.5,29.5,0,0,0-6.5-4.6c-2.5-1.2-4.8-2.5-7.4-3.6l-4-1.6h0a53.5,53.5,0,0,0-6.9-.1c-2.7.1-5.6,1.1-8.3,1.7s-5.1.8-7.7,1.1l-2.6.2H171.9a58.5,58.5,0,0,1-7.2-.7,26.9,26.9,0,0,1-7.8-2.3,9.2,9.2,0,0,1-5-4.7h-.2c-.1-.5-.9-.3-.8.2,1,5.1,7.9,6.5,12.1,7.5a59.6,59.6,0,0,0,19.3,1h0a.3.3,0,0,1-.1.5c-1.2,1.1-1.5,2.6-2.3,4s-1.1,1-2.1,1.1a9.1,9.1,0,0,0-4.3,1.4,4.9,4.9,0,0,0-2.4,3.6,14.8,14.8,0,0,0-.4,4.6,16.6,16.6,0,0,0,2.9,8.3l.5.6h0l1.6,1.6,1.2,1.6a.8.8,0,0,1-.2.4c-1.4,1.5-4.3-.3-5.7-1-3.2-1.6-7-2.3-10.4-3.5l-9.8-3.6c-3.1-1.3-5.5-3.4-8.4-4.9s-7.7-1.3-11.4-1.1a93,93,0,0,0-11.7,1.3c-7.5,1.5-14.9,3.5-22.3,5.4a121.7,121.7,0,0,1-12.3,2.5l-6.3,1c-1.8.2-58.5,4.1-63.9,4.9a.5.5,0,0,1-.8.1c-1.2-1.1-1.5-2.7-1.8-4.3s-.8-5.5-1.4-8.3A44.4,44.4,0,0,1,9.4,184.7Z" style="fill:#333031"/></svg>