<?xml version="1.0" encoding="utf-8"?>
<!-- Generator: Adobe Illustrator 22.0.1, SVG Export Plug-In . SVG Version: 6.00 Build 0)  -->
<svg version="1.1" id="Layer_1" xmlns="http://www.w3.org/2000/svg" xmlns:xlink="http://www.w3.org/1999/xlink" x="0px" y="0px"
	 viewBox="0 0 504 504" style="enable-background:new 0 0 504 504;" xml:space="preserve">
<style type="text/css">
	.st0{fill:#AFADAD;}
	.st1{fill:#333031;}
	.st2{fill:none;stroke:#66C8C7;stroke-width:5;stroke-linecap:round;stroke-miterlimit:10;}
</style>
<title>illustr--Artboard 16 copy</title>
<path class="st0" d="M390.3,111.7c-2.1-1.1-4.2-1.7-10-1.7H120.6c-5.8,0-7.9,0.6-10.1,1.7c-2.1,1.1-3.8,2.8-4.9,4.9
	c-1.1,2.2-1.7,4.3-1.7,10.1v259.7c0,5.8,0.6,7.9,1.7,10c1.1,2.1,2.8,3.9,4.9,5c2.2,1.1,4.3,1.7,10.1,1.7h259.7c5.8,0,7.9-0.6,10-1.7
	c2.1-1.1,3.8-2.9,4.9-5c1.2-2.1,1.8-4.2,1.8-10V126.7c0-5.8-0.6-7.9-1.8-10.1C394.1,114.5,392.4,112.8,390.3,111.7z M395.4,386.4
	c0,5.9-0.7,7.6-1.6,9.3c-1,1.8-2.4,3.2-4.2,4.2c-1.7,0.9-3.4,1.6-9.3,1.6H120.6c-5.9,0-7.7-0.7-9.3-1.6c-1.8-1-3.3-2.4-4.3-4.2
	c-0.8-1.7-1.5-3.4-1.5-9.3V126.7c0-5.9,0.7-7.6,1.5-9.3c1-1.8,2.5-3.3,4.3-4.2c1.6-0.9,3.4-1.6,9.3-1.6h259.7c5.9,0,7.6,0.7,9.3,1.6
	c1.8,0.9,3.3,2.4,4.2,4.2c0.9,1.7,1.6,3.4,1.6,9.3V386.4z"/>
<g>
	<path class="st1" d="M381.3,149.8c-5.3-3.1-10.9-3.1-16.4-0.7c-4.2,1.8-7.8,4.6-10.9,7.9c-0.4,0.4-0.7,0.7-1,1.1c0,0.1,0,0.1,0,0.2
		c-0.1,7,2.9,13.1,5.7,19.3c0.1,0.2,0.1,0.3,0.2,0.5c0.1,0.3,0.3,0.6,0.4,0.9c0.2,0.5,0.4,0.9,0.6,1.4c0,0,0,0.1,0.1,0.1
		c0.5,1.1,0.9,2.2,1.3,3.3c0,0,0,0,0,0c0,0.1,0.1,0.2,0.1,0.2c1.6,4.4,2.8,8.9,4.1,13.3c3.3-6.2,6.6-12.4,9.7-18.8
		c3.3-6.8,6.2-13.8,9.1-20.8C385.8,154.1,384.8,151.9,381.3,149.8z"/>
	<path class="st1" d="M363.2,205.3c-0.3-0.9-0.4-1.7-0.3-2.6c-1.6-4.6-2.8-9.2-4.3-13.8l0,0c-0.1-0.3-0.2-0.5-0.3-0.8
		c-0.1-0.3-0.2-0.6-0.3-0.9c-0.2-0.7-0.5-1.3-0.7-2c-3.2-8.8-8.4-16.5-8.5-26.1c-1.7-3.3-3.3-6.7-5.1-10c-3.3-6-6.9-11.7-11.5-16.8
		c-2-2.2-3.7-2.7-6.5-1.5c-0.3,0.1-0.5,0.2-0.8,0.2c-5.7,5.5-8.1,13.6-9.3,21.2c-1.4,8.9-0.9,17.2,2.5,25.6
		c3.1,7.8,7.5,15.2,8.2,23.7c0.2,2.5,1.5,8.1,0.4,11.4c2.8,0.9,5.6,1.9,8.2,3.1c0.4,0.2,0.9,0.4,1.3,0.6c0,0,0.1,0,0.1,0.1
		c1.4,0.7,2.7,1.5,4,2.4c0.1,0.1,0.2,0.1,0.2,0.2c0.3,0.2,0.6,0.5,0.9,0.7c0.1,0.1,0.2,0.2,0.4,0.3c0.3,0.2,0.5,0.4,0.8,0.7
		c0.1,0.1,0.2,0.2,0.4,0.3c0.3,0.2,0.5,0.5,0.7,0.7c0.1,0.1,0.2,0.2,0.3,0.3c0.3,0.4,0.7,0.7,1,1.1c0.2,0.3,0.4,0.5,0.6,0.8
		c0.1,0.1,0.1,0.2,0.2,0.3c0.1,0.2,0.3,0.4,0.4,0.6c0.1,0.1,0.1,0.2,0.2,0.3c0.1,0.2,0.2,0.4,0.3,0.6c0.1,0.1,0.1,0.2,0.2,0.3
		c0.1,0.2,0.2,0.4,0.3,0.6c0.1,0.1,0.1,0.2,0.1,0.3c0.1,0.2,0.2,0.4,0.3,0.6c0,0.1,0.1,0.2,0.1,0.3c0.1,0.2,0.2,0.4,0.3,0.6
		c0,0.1,0.1,0.2,0.1,0.3c0.1,0.2,0.2,0.4,0.3,0.7c0,0.1,0.1,0.2,0.1,0.2c0.1,0.2,0.2,0.5,0.2,0.7c0,0.1,0,0.1,0.1,0.2
		c0.1,0.3,0.1,0.5,0.2,0.8c0,0.1,0,0.1,0,0.2c0.1,0.3,0.1,0.5,0.2,0.8c0,0.1,0,0.1,0,0.2c0.1,0.3,0.1,0.6,0.2,0.8c0,0,0,0.1,0,0.1
		c0,0.3,0.1,0.6,0.1,0.9c0,0,0,0.1,0,0.1c0,0.3,0.1,0.6,0.1,0.9c0,0,0,0,0,0.1c0,0.3,0.1,0.6,0.1,1c0,0,0,0,0,0c0,0.3,0,0.7,0,1
		c0,0,0,0,0,0c0,0.3,0,0.7,0,1c0,5.3-1.1,10.7-2.3,15.5c-0.7,2.9-1.4,5.9-2.1,8.8c6.3-9.3,12.6-18.5,18.8-27.9
		c3.8-5.7,4.4-12,2.2-18.6C365.4,212.5,364.4,208.9,363.2,205.3z"/>
	<path class="st1" d="M322.7,204.5c-0.3-3.7-0.7-7-2-10.5c-0.2-0.6-0.5-1.3-0.7-1.9c0-0.1-0.1-0.1-0.1-0.2c-0.2-0.6-0.5-1.2-0.7-1.7
		c0,0,0,0,0,0c0,0,0,0,0,0c-0.4-1-0.8-2-1.3-2.9c-4.5,7.4-12.4,11.3-17.9,18c1,0.2,2.1,0.4,3.1,0.6c1.9,0.4,3.8,0.9,5.7,1.5
		c0.1,0,0.1,0,0.2,0.1c0.6,0.2,1.1,0.3,1.7,0.5c0.2,0,0.3,0.1,0.4,0.1c0.5,0.2,1.1,0.3,1.6,0.5c0.2,0.1,0.3,0.1,0.5,0.2
		c0.5,0.2,1.1,0.3,1.6,0.5c0.1,0,0.2,0.1,0.4,0.1c1.2,0.4,2.4,0.8,3.6,1.2c1.3,0.4,2.7,0.8,4,1.2c0-0.1,0-0.3-0.1-0.5
		c-0.1-0.4,0-1.2,0-1.6C322.9,207.8,322.8,206.1,322.7,204.5z"/>
	<path class="st1" d="M346,236.9L346,236.9c-0.1-1.8-0.4-3.5-0.9-5.3c-2-7-8.2-10.5-14.5-13.1c-5.5-2.2-11.3-3.8-17-5.7
		c-6.7-2.1-13.5-4.2-20.6-4.6c-5.8-0.4-11.5,0.8-17,2.4c-3.7,1.1-8.5,2.4-11.9,5c3.3,0.1,6.6,0.2,9.9,0.4c0.8,0.1,1.6,0.1,2.4,0.2
		c0,0,0,0,0,0c1.5,0.1,3.1,0.3,4.6,0.6c0.1,0,0.3,0,0.4,0.1c0.6,0.1,1.2,0.2,1.8,0.4c0.2,0,0.3,0.1,0.5,0.1c1.4,0.3,2.9,0.7,4.3,1.2
		c0.2,0.1,0.4,0.1,0.6,0.2c0.5,0.2,1,0.4,1.6,0.6c0.2,0.1,0.4,0.2,0.6,0.2c0.7,0.3,1.4,0.6,2.1,0.9c5.4,2.6,10.3,6.3,15.1,9.8
		c4.1,3,8.5,5.8,12.2,9.3c7.9,7.4,8.7,15.7,6.3,25.9c-3,12.6-4.6,25.6-8,38.1c0,0.2-0.1,0.3-0.2,0.4c0,0,0,0.1-0.1,0.1
		c0,0.1-0.1,0.2-0.1,0.2c0,0-0.1,0.1-0.1,0.1c-0.1,0.1-0.1,0.1-0.2,0.2c0,0-0.1,0.1-0.1,0.1c-0.1,0-0.1,0.1-0.2,0.1
		c0,0-0.1,0-0.1,0.1c-0.1,0-0.1,0.1-0.2,0.1c0,0-0.1,0-0.1,0c-0.1,0-0.2,0-0.2,0c0,0-0.1,0-0.1,0c-1.3,0.1-2.6-1-2.2-2.5
		c3-10.9,3.9-22.3,6.7-33.2c1.2-4.9,2.9-10.1,2.6-15.2c-0.4-5.1-3.7-9.2-7.4-12.4c-3.6-3.2-7.7-5.9-11.7-8.7
		c-4.4-3.2-8.9-6.5-13.9-8.9c-8.7-4.2-18-4.1-27.4-4.3c-0.2,0.1-0.4,0.2-0.7,0.2c-5.6,1-10.7,3.4-16,5.6c-4,1.7-11.4,3.6-8.3,9.3
		c5.4,9.9,18.6,9.9,28.1,11.7c4.1,0.8,7.4,1.9,10.2,5.1c2.6,3,4.6,6.5,6.3,10.1c1.5,3.2,2.4,6,2.5,9.5c0.1,5.2-0.8,10.4,0.4,15.6
		c0.6,2.6-3.4,3.7-3.9,1.1c-0.8-3.6-0.8-7.2-0.6-10.8c-5.1,3.3-10.6,5.5-16.1,7.9c-3.1,4.9-3.3,10.3-3.3,16.1c0,2.6-4.1,2.6-4.1,0
		c0-5.6,0.2-11,2.6-15.9c-0.1-0.2-0.2-0.3-0.3-0.5c-4.2-0.7-8-2.9-12.1-4.4c-5.4-2.1-11.2-3.5-16.9-4.4c-11.7-1.9-24.5-3.2-36.2-0.3
		c-2.6,0.6-3.6-3.3-1.1-3.9c11.3-2.7,23.2-1.8,34.6-0.2c6,0.8,11.9,2,17.6,3.9c5.6,1.9,11.2,5.8,17.3,5.6c0.3,0,0.6,0.1,0.9,0.2
		c4.2-1.8,8.4-3.6,12.3-5.9c0.1-0.1,0.2-0.1,0.4-0.2c0.8-0.4,1.5-0.9,2.3-1.4c0.1-0.1,0.2-0.1,0.4-0.2c0,0,0,0,0,0
		c0.1,0,0.2-0.1,0.3-0.1c0,0,0,0,0,0c0.5-0.1,1,0,1.4,0.3c0-0.8,0-1.6,0-2.4c0-0.6-0.1-1.1-0.1-1.7c0,0,0,0,0,0c0,0,0,0,0,0
		c-0.1-0.5-0.2-1-0.3-1.5c0,0,0-0.1,0-0.1c-0.1-0.5-0.2-1-0.4-1.4c0,0,0-0.1,0-0.1c-0.2-0.5-0.3-0.9-0.5-1.4c0,0,0,0,0,0
		c-0.4-1-0.8-1.9-1.3-2.8c0,0,0-0.1-0.1-0.1c-0.2-0.4-0.5-0.9-0.7-1.3c0-0.1-0.1-0.1-0.1-0.2c-0.2-0.4-0.5-0.8-0.7-1.2
		c0-0.1-0.1-0.1-0.1-0.2c-0.3-0.4-0.5-0.8-0.8-1.2c-1.3-2.1-2.9-4.5-5.1-5.8c-0.4-0.2-0.7-0.4-1.1-0.5c0,0,0,0,0,0h0
		c-2.3-1-5.1-1.2-7.5-1.6c-4.8-0.7-9.6-1.2-14.2-2.8c-0.7-0.2-1.3-0.5-2-0.8c-5.9-2.6-15.9-9.9-12.2-17.6c0.8-1.7,2.2-3,3.8-4
		c0,0,0,0,0,0c1.7-1.1,3.7-1.8,5.5-2.5c0.9-0.3,1.7-0.7,2.6-1.1c0.1,0,0.2-0.1,0.3-0.1c1.2-0.5,2.3-1,3.5-1.5
		c0.2-0.1,0.4-0.2,0.7-0.3c0.5-0.2,1-0.4,1.5-0.6c0.6-0.2,1.2-0.5,1.8-0.7c1.1-0.4,2.3-0.8,3.5-1.2c0-0.2,0.1-0.3,0.2-0.5
		c5.1-7.9,18.1-10.6,26.8-11.9c0.6-0.1,1.2-0.2,1.9-0.2c0,0,0,0,0,0c1.7-0.2,3.3-0.2,5-0.2c0,0,0,0,0,0c1.3,0,2.7,0.1,4,0.3
		c0.1-0.1,0.1-0.3,0.2-0.4c5.8-7.6,16-11.9,19.8-20.9c0.1-0.2,0.2-0.4,0.4-0.6c-0.5-1-0.9-2.1-1.3-3.1c-0.1-0.2-0.2-0.4-0.2-0.6
		c-0.1-0.4-0.3-0.7-0.4-1.1c-0.1-0.2-0.1-0.4-0.2-0.5c-0.2-0.5-0.4-1.1-0.6-1.6c0-0.1-0.1-0.2-0.1-0.3c-0.2-0.5-0.3-0.9-0.4-1.4
		c-0.1-0.2-0.1-0.4-0.2-0.6c-0.1-0.4-0.2-0.7-0.3-1.1c-0.1-0.2-0.1-0.4-0.2-0.6c-0.1-0.4-0.2-0.8-0.3-1.2c0-0.2-0.1-0.4-0.1-0.6
		c-0.1-0.6-0.2-1.1-0.3-1.7c-0.1-0.7-0.2-1.4-0.2-2.1c0-0.2,0-0.3,0-0.5c-0.1-0.7-0.1-1.4-0.2-2.1c0-0.1,0-0.1,0-0.2
		c0-0.7,0-1.3-0.1-2c0-0.2,0-0.4,0-0.6c0-0.7,0-1.5,0-2.2c0-0.1,0-0.3,0-0.4c0-0.6,0.1-1.3,0.1-1.9c0-0.2,0-0.4,0-0.7
		c0.1-0.7,0.1-1.4,0.2-2.2c0-0.2,0.1-0.4,0.1-0.6c0.1-0.6,0.2-1.2,0.3-1.8c0-0.2,0.1-0.5,0.1-0.7c0.1-0.7,0.3-1.4,0.4-2.1
		c0-0.2,0.1-0.4,0.1-0.6c0.1-0.6,0.3-1.1,0.4-1.7c0.1-0.2,0.1-0.4,0.2-0.6c0.2-0.7,0.4-1.4,0.6-2.1c0.1-0.2,0.1-0.4,0.2-0.6
		c1.6-4.8,3.9-9.3,7.1-12.9c-3.1-0.7-6.1-0.2-9.1,1.4c-3.9,2-6.8,5.1-8.9,8.7c-5.5,9.3-12.9,17-20.8,24.3
		c-15.2,13.9-31.9,25.9-49,37.3c-1.6,1.1-3.3,2.2-5.1,2.8c-10.6,3.4-20.4,8.1-29.6,14.4c-14.6,10-26.2,22.7-34.1,38.5
		c-4.6,9.1-9.8,17.8-16,25.9c-7.2,13-76.7,71.9-89.1,80.4c0,0.2,0.1,0.4,0.1,0.6c-0.7,0.3-1.3,0.8-1.6,1.8
		c-5.3,17.2,6.3,42.2,19.5,53c7.5,6.1,15.9,10.7,24.4,15.1c8.7,4.5,22.2,10.3,32.3,9.2c1.5-0.1,2.3-1.2,2.6-2.3
		c4.2-5.5,61.2-67.5,66.4-71.5c11.6-12,25.8-19.8,42.2-23.5c8.5-1.9,17.2-3.1,25.7-4.8c10.1-1.9,20.1-4.4,30-7.4
		c3.1-1,5.8-2.7,8-5.1c1.4-1.5,3-2.7,4.6-3.9c2.4-1.7,5-3.2,7.5-4.8c3.9-2.7,7-6.2,8.4-10.9c2.8-9.4,5.6-18.8,8-28.3
		c0.8-3.2,1.6-6.4,3-9.3c1.2-6.5,2.6-13,4.2-19.5c0.5-2,0.9-4,1.3-6.1c0,0,0,0,0,0c0,0,0,0,0,0c0.1-0.7,0.2-1.3,0.3-2
		c0-0.1,0-0.1,0-0.2c0.1-0.7,0.1-1.3,0.2-2c0,0,0-0.1,0-0.1C346.1,239.7,346.1,238.3,346,236.9z"/>
</g>
<line class="st2" x1="336" y1="121.6" x2="348.2" y2="85.9"/>
<line class="st2" x1="319.9" y1="114.2" x2="310.8" y2="94.3"/>
<line class="st2" x1="370" y1="117.6" x2="350.1" y2="126.6"/>
</svg>
