<svg xmlns="http://www.w3.org/2000/svg" xmlns:xlink="http://www.w3.org/1999/xlink" viewBox="0 0 504 504"><defs><clipPath id="a"><path d="M55.4,165.2V338.8a46.2,46.2,0,0,0,23.2,40l150.3,86.8a46,46,0,0,0,46.2,0l150.3-86.8a46.2,46.2,0,0,0,23.2-40V165.2a46.2,46.2,0,0,0-23.2-40L275.1,38.4a46,46,0,0,0-46.2,0L78.6,125.2A46.2,46.2,0,0,0,55.4,165.2Z" style="fill:none"/></clipPath></defs><title>illustr--v copy 2</title><path d="M55.4,165.2V338.8a46.2,46.2,0,0,0,23.2,40l150.3,86.8a46,46,0,0,0,46.2,0l150.3-86.8a46.2,46.2,0,0,0,23.2-40V165.2a46.2,46.2,0,0,0-23.2-40L275.1,38.4a46,46,0,0,0-46.2,0L78.6,125.2A46.2,46.2,0,0,0,55.4,165.2Z" style="fill:#fff;stroke:#8e8e8e;stroke-miterlimit:10"/><g style="clip-path:url(#a)"><path d="M179.7,251.7l.3-.2.3.2c.2.1.3.1.4,0,4.9-5.9,14.4-9.1,19.6-10.5a44.2,44.2,0,0,0,14.8-7.2c3.1-2.4,6.2-6.2,5.7-9.7s-3.1-5.4-6.7-5.5-8.9,1.1-13.4,2.2l-4.4,1.1-5.2.7c-4,.5-8.2.9-11,3a15,15,0,0,0-6,10.6c-.6,5.1,1.3,10.7,5,15.2C179.3,251.8,179.6,251.7,179.7,251.7Z" style="fill:#333031"/><path d="M185,221l8.2-1.7c4.3-1,8.8-2,13.2-2.7s8.3-1.3,12.1.8l1.5.5a7.3,7.3,0,0,1,4.2,6.4c1.2.6,3.4.5,5,.4h15.2c4.8,0,11.5,0,14.9-3.3s1.8-9.3,1.1-11c-1.6-3.9-5.3-4.9-9.2-6l-2-.5c-12-3.6-25.4-2.7-38.3-1.8l-7.8.5h-4.8c-6.4,0-13.7,0-17.5,4.9s-1.5,9.5,1.1,13.7A10.6,10.6,0,0,0,185,221Z" style="fill:#333031"/><path d="M205.4,198.8h2.2l4.2-.2a76.6,76.6,0,0,1,9.7-.6h10.1c8.3.3,17.4,2.1,28.6,5.6,3.7-4.1,5.8-8.7,5.5-12.6a9.6,9.6,0,0,0-4.1-7.1,21.3,21.3,0,0,0-11.6-3.8l-8.5-.8c-3.9-.4-7.8-.8-11.7-1h-2.1c-5.2-.2-10.2-.4-15.4-.3h-3.1c-3.9-.1-8.4-.1-11.9,1.3s-7.3,3.9-9.4,7.2-2.3,8.6-1.8,13.8C192.5,198.9,199,198.9,205.4,198.8Z" style="fill:#333031"/><path d="M195.2,176.3c7.1-2.7,14.8-2.1,22.2-1.5H219l4.4.3,5,.3h2.5c2.4.1,4.8.1,7.2.4l2.7.3c4.8.3,8.8.7,12.5,1.1,2.5-4.6,3.3-7.7,2.5-10.3s-2.5-4.1-5.7-5.7c-9.5-4.9-19.7-7.4-28.3-9.3-4.5-.9-8.1-.4-12.6.4l-1.9.3c-3.7.5-6.5.9-8.9,3.9s-3.9,5.8-4.4,8.6.1,4.8.6,7.3S195.1,175.1,195.2,176.3Z" style="fill:#333031"/><path d="M271,288.6c5.8-1.1,11.7-2.3,17.2-4.6,3-1.4,6-2.9,8.8-4.4l3.3-1.7.9-.5c3.1-1.6,5.8-3,8.1-5.2l3.4-2.6a154.9,154.9,0,0,0,15.4-12.7c5.1-5,8.6-9.4,11.1-16.8,1.8-5.2,3.5-12,.7-17.1a11,11,0,0,0-1.4-2.1,8.4,8.4,0,0,1-2.2-5.9,8.8,8.8,0,0,1,.6-2.8,19.4,19.4,0,0,0,.5-2,11.6,11.6,0,0,0-1-5.9v-.6a47.1,47.1,0,0,0-4.3-7.8c-2.7-4.2-2.2-7.3-1.6-10.9a22.6,22.6,0,0,0,.4-2.9c.5-4.1-1-7.4-5-11.3a26.9,26.9,0,0,0-5.8-4.4,8.7,8.7,0,0,1-4.2-6.1h0c.6-7,.4-15.6-6.3-20.1-3.4-2.2-8.6-3-14.1-2.2h-1.2c-1.5.2-3.3.4-4.2,1.1a7,7,0,0,0-1.9,2.6,9.4,9.4,0,0,1-3.3,3.9l-.2.2v.2l-.2.2a21.1,21.1,0,0,0-1.5,1.5,35.7,35.7,0,0,1-9,7.6,37.4,37.4,0,0,1-17.4,5.1h-.3l-.2-.2a23.8,23.8,0,0,1-5.1-5.5,13.8,13.8,0,0,1-1.4-2.6c-1.4-4.7,1.7-6.5,4.7-8.3a24.8,24.8,0,0,1,24.7-.4c2.3,1.3,4.1.4,4.9-1s.7-3.7-1.6-5.1a22.6,22.6,0,0,0-4.4-1.5l-2.3-.6a45,45,0,0,0-4.9-1.4l-2.2-.5-1.1-.3c-4.1-1.1-8.3-2.2-12.5-1.7s-7.1,3.4-10.3,6.1l-3.3,2.7a50.4,50.4,0,0,0-7.1,6.8c-1.2,1.3-2.4,2.7-3.7,3.9s-.2.2,0,.5l.2.3a.4.4,0,0,0,.3.2c5.1-.2,10.5,2.6,15.3,5l2.4,1.2,2.4,1c3.7,1.6,7.1,3,7.6,8.5.3,3.1-.6,6-1.5,8.9l-.4,1.3v.3a8.8,8.8,0,0,0,2.2,1l1.6.7a14.6,14.6,0,0,1,7,8.2c2.2,6.5-1,14.3-5.2,19.1l-.2.2c-.3.1-.3.3-.2.3l.2.8c1.4,3.9,3.2,8.7,1.1,12.9s-6.9,6.4-14.7,6.8c-4.2.1-8.6,0-12.8-.2s-8.3-.3-12.4-.1h-.3a.7.7,0,0,0,.1.5l.2.4v.3c-2.4,6.1-10.3,10-13.6,11.4l-6.9,2.7c-2.3.8-4.6,1.6-6.9,2.6a35.4,35.4,0,0,0-11.1,7.2l-.2.2-2.6.9c-1.4.5-2.9,1-4.2,1.6a30.8,30.8,0,0,0-5.4,4.1l-2.3,1.9-.9.7-.8.3c-.2.1-.2.1-.2.3v.3H168c-5,3.9-9.7,7.1-14.2,10l-7.2,4.4c-10.1,6.2-20.5,12.6-29.5,20.4a107.7,107.7,0,0,1-13.1,8.9l-1.7,1.1c-2.5,1.5-4.9,3.1-7.2,4.7s-7.4,4.9-11.2,7.1c-6,3.4-12.8,6.2-22.1,9.2-3.6,1.2-7.2,2.4-10.8,4l-3.9,1.4a28.7,28.7,0,0,0-4.7,1.8v.2H42c-14.4,5.6-28.3,12.6-40.6,18.9l-6.5,3.1c-1.7.7-3.5,1.5-5.2,2.4a43.7,43.7,0,0,0-5.5,3.2c-1.6,1-3.3,2.1-5.1,3l-.5.3c-6.2,3.1-13.1,6.6-17.3,11.9a.3.3,0,0,0,0,.5l.3.3v.3a12.1,12.1,0,0,0,.9,4.9v.3a77.1,77.1,0,0,0,3,8c1,2.6,2.1,5.3,3,8.1,2.5,7.9,4.6,16,6.7,23.9l3.5,13.1c3,10.7,6.6,22,13.6,31.2v.2A21.2,21.2,0,0,0-4.9,475a46,46,0,0,0,5,5.9l1.3,1.4.8,1.9c2.2,5,4.3,9.8,8.2,13.6l.4.4-.3.5c-.1.2.1.4.1.4s.4.2.5,0c5.8-5.9,13.5-11,24.2-16.1,4.7-2.3,9.3-5.1,13.7-7.8s6.1-3.7,9.2-5.4,8-4.3,11.9-6.3c11.8-6.1,24-12.4,34.2-20.8a74.5,74.5,0,0,1,11.3-7.7,55.8,55.8,0,0,0,8.2-6l3.4-2.8a108.1,108.1,0,0,0,10.1-9,141.8,141.8,0,0,1,12.3-10.8c6.8-4.8,12.2-11.4,17.4-17.8s8.2-10.2,13.2-14.6a116.6,116.6,0,0,0,11.5-12.8c2.2-2.7,4.4-5.5,6.8-8.1s4.4-5.2,6.4-7.8c3.4-4.4,6.9-8.9,11.1-12.5v-.6l.3-.3,5-4.8a116.2,116.2,0,0,0,11.9-12.4l3.5-4.5c6.2-8.2,12.1-15.9,22.7-19A96.6,96.6,0,0,1,271,288.6Z" style="fill:#333031"/><path d="M279.1,145.8l-1.2-.3-.2-.3-.2-.2c-7.7-2.8-14.1-2.6-20.1.5-1.4.8-4.8,2.5-5.1,4.4s1.9,5.1,3.5,6.5h.8c4.6,2.2,14.5-4.3,19.8-7.7l2.9-1.9c.1,0,.2-.1.1-.3v-.4C279.4,145.9,279.2,145.8,279.1,145.8Z" style="fill:#333031"/><path d="M517.5,378.9H517l-.4.3-.5-.3H516c-5.3-1.2-9.9-2.6-14.6-5.7a35.8,35.8,0,0,0-10.3-4.7l-5.9-2c-2.6-.9-5.4-1.9-8.1-2.6l-4.9-1c-1.9-.4-3.8-.7-5.6-1.2-9.8-2.7-19.9-7.9-26.7-11.7A64.5,64.5,0,0,0,434,347a56.2,56.2,0,0,1-7-3.4c-2-1.3-4.1-2.3-6.2-3.4a71.8,71.8,0,0,1-7.2-3.9c-14.4-9.5-31.1-20.9-45.5-34.9a196.8,196.8,0,0,0-21.6-18.5,74.6,74.6,0,0,0-10.6-6.1l-1.6-.8a54.7,54.7,0,0,1-11.3-8l-.3-.3v-.2q-.1-.3-.3-.3h-.2c-13.1,9.9-24.7,16.5-36.6,20.8a47.6,47.6,0,0,1-7.4,2l-3.5.9-1.6.4a63.5,63.5,0,0,0-15.1,4.4c-5.1,2-7.9,4.2-12.3,8.4v.2l-.3.3a.3.3,0,0,0-.1.5l.2.5-.4.4c-.1.1-.1.2-.1.4s0,.2.2.3a32.3,32.3,0,0,0,4.2,2,23.4,23.4,0,0,1,5.8,3.1,47.1,47.1,0,0,0,4.5,3.3c1.5,1.1,3.1,2.1,4.5,3.3,6.6,5.4,12,11.4,17.6,17.8l1,1.1c1.4,1.5,2.7,3.1,4.1,4.7a184.4,184.4,0,0,0,14.8,15.8,93.6,93.6,0,0,1,9.1,9.9,102.9,102.9,0,0,0,8.3,9.2c2.8,2.6,5.5,5.4,8,8s4.7,4.8,7.1,7.1l4,3.8c4.7,4.5,9.6,9.1,14.2,13.8s8.6,8.7,12.9,12.8c2.3,2.4,4.7,4.7,7,7a58.9,58.9,0,0,0,7.7,6.5l1.2.8,1.5,1.1,2.7,2c3.1,2.3,6.3,4.8,9.7,6.9l13.2,9c3.8,2.7,7.7,5.5,11.7,8.1l2.5,1.7c7,4.7,14.3,9.5,22.1,12.6,4.5,1.8,8.9,4.1,13.1,6.2s7.9,4,11.9,5.7h.3v.3c0,.2.1.2.2.2,2,.4,3.9,1.8,5.7,3.1s4.1,2.8,6,2.9,5.8-2.6,8.4-4.7l2.7-2c8.4-5.7,11.8-17.7,14.6-27.4l.7-2.4c3.5-12.3,5-24.5,6.5-37.4l.3-3.4c1.5-12.4,3.1-26.4,2.6-40.1C517.7,379,517.6,378.9,517.5,378.9Z" style="fill:#333031"/></g></svg>