<svg xmlns="http://www.w3.org/2000/svg" viewBox="0 0 360 360"><title>illustr--Artboard 4</title><path d="M265.9,91.1c-1.3-.7-2.6-1.1-6.2-1.1H100.3c-3.6,0-4.9.4-6.2,1.1a7.2,7.2,0,0,0-3,3c-.7,1.3-1.1,2.6-1.1,6.2V259.7c0,3.6.4,4.9,1.1,6.2a7.2,7.2,0,0,0,3,3c1.3.7,2.6,1.1,6.2,1.1H259.7c3.6,0,4.9-.4,6.2-1.1a7.2,7.2,0,0,0,3-3c.7-1.3,1.1-2.6,1.1-6.2V100.3c0-3.6-.4-4.9-1.1-6.2A7.2,7.2,0,0,0,265.9,91.1ZM269,259.7c0,3.7-.4,4.7-1,5.7a5.5,5.5,0,0,1-2.6,2.6c-1,.6-2,1-5.7,1H100.3c-3.7,0-4.7-.4-5.7-1a5.5,5.5,0,0,1-2.6-2.6c-.6-1-1-2-1-5.7V100.3c0-3.7.4-4.7,1-5.7A5.5,5.5,0,0,1,94.6,92c1-.6,2-1,5.7-1H259.7c3.7,0,4.7.4,5.7,1a5.5,5.5,0,0,1,2.6,2.6c.6,1,1,2,1,5.7Z" style="fill:#afadad"/><path d="M129.5,245.4a20.4,20.4,0,0,1-13.9-5.4,10.6,10.6,0,0,1-2.7-5.4l-.3-1.3a11.8,11.8,0,0,0-.7-2c-.4-1.5-.9-3-1.2-4.5h0a20.9,20.9,0,0,1,.3-5.7,24.6,24.6,0,0,1,1.6-4.8,12.4,12.4,0,0,1,4.6-4.5l.2-.2a23.6,23.6,0,0,1,2.3-1.3,28,28,0,0,1,4.5-1.8,20,20,0,0,0,2.9-1.5,12.2,12.2,0,0,1,4.6-1.9h.6l-1.6-.3-2.3-.5c-2.5-.8-3.7-1.5-4-4.1v-.2h.1a5.5,5.5,0,0,0-.4-3.7,24.2,24.2,0,0,0-2.1-3.7v-.4a2.2,2.2,0,0,1,.3-1c1-2.4,3.5-4.3,5.7-5.9l2-1.5.2-.2a39.7,39.7,0,0,0,5.5-5.3,1.8,1.8,0,0,1,.5-.7,9.3,9.3,0,0,1,2.1-2.4,2.1,2.1,0,0,1,1-.4h1.2a15.1,15.1,0,0,0,3.9.7l3.3.4,2.9.9a26.7,26.7,0,0,0,6.8,1.5h13.3c13.3-.2,26.9-2.3,40-4.2l4.5-.7c7-1,13.5-2.6,19.9-4.1,3.2-.8,6.5-1.4,9.7-2.1l11.4-2.4a284.1,284.1,0,0,1,43.1-7.9l3.3-.4,17.9-1.7h1.5l.2.2c13.3,17.1,12.6,41.3,9.7,58.6-.3,1.6-.5,3.1-.7,4.5v.4h-.4a57.4,57.4,0,0,1-6.7.9c-7,.7-14.2,1.4-21.4,1.4h-.1c-12.1,0-24.3-1-36.1-1.9l-6.7-.5-5.3-.5c-4.8-.4-9.3-.8-14-.8h-.8a206.9,206.9,0,0,0-20.8.9l-10.8,1-9,.8-5.5.4a63.5,63.5,0,0,0-10.6,1.1c-7.8,2.8-15.1,7.2-22.2,11.5-4.5,2.7-9.2,5.5-14,7.9C140.1,243.8,134.5,245.4,129.5,245.4Zm.6-22.4a.5.5,0,0,1,.2.4,1.9,1.9,0,0,1-.1,1.8,13.6,13.6,0,0,0-1.8,3.4h.1a11.4,11.4,0,0,0,1.8-3,18.2,18.2,0,0,1,1.5-2.7l-1.1.2Zm5.9-16.1a15.1,15.1,0,0,1,2.8,5.7,4.3,4.3,0,0,1-.3,3.8,12.8,12.8,0,0,1-2.3,2.4l-1,1,1.1-.7h.2c2.1-1.3,2.5-1.6,2.7-4.2s.3-4.7-1.8-6.6l-.7-.7Z" style="fill:#333031"/><path d="M321.6,155.3c12.2,15.8,12.9,38.1,9.5,58.1-.2,1.4-.4,2.9-.7,4.5l-6.6.9c-7.1.7-14.3,1.3-21.4,1.3h-.1c-14.3,0-28.5-1.3-42.8-2.4-6.5-.5-12.8-1.2-19.3-1.2h-.8a208.7,208.7,0,0,0-20.9.9l-19.8,1.8c-5.3.5-10.8.3-16.1,1.5-12.9,4.6-24.1,13.3-36.3,19.4-5.4,2.6-11.2,4.7-16.8,4.7a19.2,19.2,0,0,1-13.5-5.3c-2-1.8-2.2-3.9-2.9-6.3s-1.4-4.3-1.8-6.5a17,17,0,0,1,.3-5.6,19,19,0,0,1,1.5-4.6c1-2,2.9-3.3,4.7-4.5l2.1-1.3a30.2,30.2,0,0,1,4.5-1.8c2.4-.8,4.9-3.1,7.4-3.4h.5c3.4,0,5.2,4.5,6,7.3a3.5,3.5,0,0,1-.3,3.3c-.7,1.2-2.6,2.6-3.5,3.6a10.9,10.9,0,0,1-1.8,1.9,2.9,2.9,0,0,1-2,.9l-1.8-.3-2.7-.3c-.8,0-1.2.2,0,.7a24.8,24.8,0,0,0,2.7.3,1.3,1.3,0,0,1,.9,1.9,24.9,24.9,0,0,0-2.2,4.3,10.4,10.4,0,0,0-.8,2,20.8,20.8,0,0,1,2.1-2.2c1.5-1.8,2-4,3.4-5.8a14.6,14.6,0,0,1,4.5-3.7c2.2-1.3,2.7-1.7,3-4.5s.3-5-2-7.1c-.6-.5-1.4-1.4-2-1.8-2.3-1.8-4.7-1.7-7.2-2.5s-3.4-1.4-3.7-3.6a5.4,5.4,0,0,0-.4-4.1,18.6,18.6,0,0,0-2.2-3.8,4.6,4.6,0,0,0,.3-.9c1.3-3.1,5.2-5.2,7.6-7.2a43.1,43.1,0,0,0,5.7-5.6,11.6,11.6,0,0,1,2.5-2.9,1.1,1.1,0,0,1,.7-.3h1c2.1.9,5,.6,7.3,1.2s6.3,2.2,9.8,2.4h13.3c14.9-.3,29.9-2.8,44.5-4.9,6.9-1.1,13.3-2.6,20-4.2s14.1-2.7,21.2-4.5a297.1,297.1,0,0,1,42.9-7.9l21.2-2h1.3m.5-1.2h-1.9L302.4,156l-3.4.3a311.2,311.2,0,0,0-43.1,7.9c-3.8,1-7.7,1.7-11.4,2.5l-9.8,2.1c-6.3,1.5-12.8,3-19.8,4.1l-4.5.6c-13.1,2-26.6,4-39.9,4.2H157.3a25.1,25.1,0,0,1-6.7-1.5l-2.9-.9a19.7,19.7,0,0,0-3.5-.5,14.3,14.3,0,0,1-3.7-.6l-.8-.2h-.6a1.9,1.9,0,0,0-1.4.5,12,12,0,0,0-2.2,2.4,1.8,1.8,0,0,1-.5.7,30.2,30.2,0,0,1-5.4,5.3h-.2l-2,1.6c-2.2,1.6-4.7,3.5-5.8,6.1l-.4,1.1v.5l.2.4a19,19,0,0,1,2.1,3.5,4.5,4.5,0,0,1,.4,3.3v.6c.4,2.8,1.8,3.7,4.4,4.5l1.5.4-2.9,1.4a12.2,12.2,0,0,1-2.8,1.4,43.1,43.1,0,0,0-4.6,1.9h0l-2.3,1.4-.2.2c-1.8,1.2-3.8,2.5-4.8,4.7a18.7,18.7,0,0,0-1.6,4.9,21.6,21.6,0,0,0-.4,5.9h.1c.3,1.6.8,3.1,1.2,4.5l.6,2.1a5.6,5.6,0,0,1,.4,1.2,10.4,10.4,0,0,0,2.9,5.7,20.4,20.4,0,0,0,14.2,5.5c5.1,0,10.7-1.6,17.3-4.8,4.8-2.4,9.4-5.2,14-7.9,7-4.3,14.3-8.6,22.1-11.4a60.3,60.3,0,0,1,10.4-1.2,50.7,50.7,0,0,0,5.5-.3l9.1-.8,10.7-1a206.9,206.9,0,0,1,20.8-.9h.8c4.7,0,9.2.4,14,.8l5.2.4,6.8.6c11.8.9,24,1.8,36.1,1.9h.1c7.2,0,14.5-.8,21.5-1.4l6.7-.9h.8v-.8c.2-1.4.5-2.9.7-4.5,1.9-11.3,2.3-21.7,1.1-31-1.4-11.1-5.1-20.5-10.9-28l-.3-.5Z" style="fill:#fff"/><path d="M156.9,179.5c-1.6-1.1-4.1-1.4-5.9-1.9s-10.7-3.4-12.6-3.6-5,.1-7.5.1c-4.7.2-9.4,1.2-14.1,1.8-2.5.3-4.9.7-7.4,1.2a16.3,16.3,0,0,0-6.4,2.6,17.2,17.2,0,0,0-7.1,11.4c-.6,4.1,3,8.2,6.5,9.9,1.8.9,3.8.8,5.8,1.1l3.2.4c1.3.1,2.5-.1,3.8.1a16.3,16.3,0,0,0,3.1.1,36.7,36.7,0,0,0,4.6.3l1.6-.2a7.6,7.6,0,0,1,1.5.1,9.2,9.2,0,0,0,2.9-1.1c2.3-1,3.5-3.2,4.6-5.3s3.2-4.8,4.7-7.3a32.4,32.4,0,0,1,2.4-3.1,27.8,27.8,0,0,1,2.7-3.3,8.1,8.1,0,0,0,2.2-4.9l3.9,1.5,2.8.8c1.2.4,2.5.4,3.6,1.1S158,180.3,156.9,179.5Z" style="fill:#333031"/><path d="M124.6,211.3l-.9-.2L97.5,194.8a1.7,1.7,0,0,1-.5-2.2l40.5-65a1.4,1.4,0,0,1,2.1-.5l26.2,16.3a1.3,1.3,0,0,1,.7.9,1.7,1.7,0,0,1-.2,1.2l-40.4,65.1a1.7,1.7,0,0,1-1.3.7Z" style="fill:#66c6c6"/><path d="M138.8,127.3l.5.2,7.2,4.4,15.8,9.9,3.2,2a.7.7,0,0,1,.5.6,1.1,1.1,0,0,1-.1.8l-3.4,5.5-34.9,56.2-2.1,3.4a1.2,1.2,0,0,1-.9.5l-.6-.2-7.1-4.4L101,196.3l-3.2-2a1,1,0,0,1-.4-1.4l3.4-5.5,35-56.2,2.1-3.4a1.1,1.1,0,0,1,.9-.5m0-1a2.2,2.2,0,0,0-1.8,1l-2.1,3.4L100,186.9l-3.4,5.5a2,2,0,0,0,.7,2.8l3.2,2,15.9,9.8,7.1,4.5a2,2,0,0,0,1.1.3,2.2,2.2,0,0,0,1.7-1l2.1-3.4,34.9-56.2,3.4-5.5a2.1,2.1,0,0,0-.6-2.8l-3.2-2L147,131.1l-7.2-4.4a1.4,1.4,0,0,0-1-.4Z" style="fill:#fff"/><path d="M106.7,196.4a7.5,7.5,0,0,0-.9-8.1l-.7-.7H105l-.5-.3,31.4-50.5h.5l.3.2h3.8a7.1,7.1,0,0,0,4.6-2.9l11.6,7.2a7.3,7.3,0,0,0,.8,8.1,4.6,4.6,0,0,1,.7.7h.2l.4.4-31.3,50.4h-.2c-.1,0-.2,0-.2-.1h-.2l-.3-.2h-3.8a7.4,7.4,0,0,0-4.6,2.9Z" style="fill:#66c6c6"/><path d="M145.2,135.2l2.7,1.7,7,4.3,1.1.7a7.7,7.7,0,0,0,1.2,8.2l.7.8h.3l-30.9,49.7h-4.6a7.8,7.8,0,0,0-4.6,2.7l-2.7-1.7-7-4.3-1.1-.7a7.9,7.9,0,0,0-1.1-8.2l-.8-.7c0-.1-.1-.1-.2-.2h0L136,137.3h1.2l.5.2h2.9a7.5,7.5,0,0,0,4.6-2.7m-.2-1.3a6.8,6.8,0,0,1-4.6,3h-4.1l-.6-.4-31.8,51.3.7.6h.2l.6.7a6.6,6.6,0,0,1,.6,7.9l1.9,1.1,7,4.4,3.5,2.1a6.7,6.7,0,0,1,4.5-3h3.9c.1.1.2.1.2.2l.6.3,31.9-51.3a2.4,2.4,0,0,1-.8-.6h-.1l-.7-.6a6.8,6.8,0,0,1-.6-7.9l-1.9-1.2-7-4.4-3.4-2.1Z" style="fill:#fff"/><path d="M100.6,193.4h0v.6l-.4-.2v-.8l.3-.4,2.5,1.6-.3.5Z" style="fill:#fff"/><path d="M103,191.4c.9.5,1.2,1.1.8,1.7s-1.1.6-1.9.1-1.1-1.1-.7-1.7S102.3,190.9,103,191.4Zm-.8,1.3c.6.4,1.1.4,1.2.2s0-.7-.7-1.1-1-.4-1.2-.1S101.6,192.3,102.2,192.7Z" style="fill:#fff"/><path d="M104.3,189.3c.8.5,1.1,1.2.7,1.8s-1,.6-1.8.1-1.1-1.2-.8-1.8S103.5,188.9,104.3,189.3Zm-.8,1.4c.6.4,1,.4,1.2.2s-.1-.7-.7-1.1-1-.4-1.2-.1S102.8,190.3,103.5,190.7Z" style="fill:#fff"/><path d="M137.5,134.1h0v.6l-.4-.2v-.8l.3-.4,2.5,1.6-.3.5Z" style="fill:#fff"/><path d="M139.9,132c.9.5,1.2,1.1.8,1.7s-1.1.6-1.9.1-1.1-1.1-.7-1.7S139.2,131.5,139.9,132Zm-.8,1.3c.6.4,1.1.4,1.2.2s0-.7-.7-1-1-.5-1.2-.2S138.5,132.9,139.1,133.3Z" style="fill:#fff"/><path d="M141.2,129.9c.8.6,1.1,1.2.8,1.8s-1.1.6-1.9.1-1.1-1.2-.8-1.8S140.4,129.5,141.2,129.9Zm-.8,1.4c.6.4,1,.4,1.2.2s-.1-.7-.7-1.1-1-.4-1.2-.1S139.7,130.9,140.4,131.3Z" style="fill:#fff"/><path d="M121.8,206.6h0v.6h-.4v-.8l.2-.4,2.6,1.6-.3.4Z" style="fill:#fff"/><path d="M124.2,204.5c.8.5,1.2,1.2.8,1.8s-1.1.6-1.9.1-1.1-1.2-.7-1.8S123.5,204.1,124.2,204.5Zm-.8,1.4c.6.4,1.1.4,1.2.1s-.1-.6-.7-1-1-.4-1.2-.1S122.8,205.5,123.4,205.9Z" style="fill:#fff"/><path d="M125.5,202.5c.8.5,1.1,1.2.7,1.8s-1.1.5-1.8.1-1.2-1.2-.8-1.8S124.7,202,125.5,202.5Zm-.8,1.4c.6.4,1,.4,1.2.1s-.1-.6-.7-1-1-.5-1.2-.2S124,203.5,124.7,203.9Z" style="fill:#fff"/><path d="M158.7,147.2h0v.6h-.4v-.8l.2-.4,2.6,1.6-.3.4Z" style="fill:#fff"/><path d="M161.1,145.1c.8.5,1.2,1.2.8,1.8s-1.1.6-1.9.1-1.1-1.2-.7-1.8S160.4,144.7,161.1,145.1Zm-.8,1.4c.6.4,1.1.4,1.2.1s-.1-.6-.7-1-1-.4-1.2-.1S159.7,146.1,160.3,146.5Z" style="fill:#fff"/><path d="M162.4,143.1c.8.5,1.1,1.2.7,1.8s-1.1.5-1.8.1-1.1-1.2-.8-1.8S161.6,142.6,162.4,143.1Zm-.8,1.4c.6.4,1,.4,1.2.1s-.1-.6-.7-1-1-.4-1.2-.2S160.9,144.1,161.6,144.5Z" style="fill:#fff"/><path d="M134.3,178.8a13.2,13.2,0,0,1-7.3-2.2,13.7,13.7,0,0,1-5.6-6.4,7.2,7.2,0,0,1,6.5-10.4,13.2,13.2,0,0,1,8.2,2.2h0a13.5,13.5,0,0,1,5.6,6.3,8,8,0,0,1-.4,7.1,7.7,7.7,0,0,1-6.1,3.4Zm-5.5-18.1H128a6.3,6.3,0,0,0-5.7,9.1,13.5,13.5,0,0,0,12.8,7.9,6.8,6.8,0,0,0,5.4-2.9,6.7,6.7,0,0,0,.2-6.2,12.5,12.5,0,0,0-5.1-5.9h0A12.6,12.6,0,0,0,128.8,160.7Z" style="fill:#fff"/><rect x="136.8" y="150.8" width="11.8" height="0.97" transform="translate(-61.1 192.6) rotate(-58.1)" style="fill:#fff"/><rect x="134.5" y="149.4" width="11.8" height="0.97" transform="translate(-61 190) rotate(-58.1)" style="fill:#fff"/><rect x="139" y="152.2" width="11.8" height="0.97" transform="translate(-61.3 195.2) rotate(-58.1)" style="fill:#fff"/><rect x="115.1" y="185.7" width="11.8" height="0.97" transform="translate(-101 190.7) rotate(-58.1)" style="fill:#fff"/><rect x="112.8" y="184.3" width="11.8" height="0.97" transform="translate(-100.9 188.1) rotate(-58.1)" style="fill:#fff"/><rect x="117.4" y="187.1" width="11.8" height="0.97" transform="translate(-101.1 193.3) rotate(-58.1)" style="fill:#fff"/><path d="M121.5,198.7h-.2l-30.5-4.5a1.5,1.5,0,0,1-1.3-1.8l11.2-75.7a1.6,1.6,0,0,1,1.5-1.4c.1,0,.2,0,.2.1l30.6,4.5a1.3,1.3,0,0,1,1,.6,2,2,0,0,1,.3,1.1l-11.2,75.8A1.5,1.5,0,0,1,121.5,198.7Z" style="fill:#66c6c6"/><path d="M102.2,115.8h.2l8.3,1.3,18.5,2.7,3.7.6a1,1,0,0,1,.9,1.2l-.9,6.3-9.7,65.5-.6,3.9a1,1,0,0,1-1.1.9h-.1l-8.3-1.2-18.5-2.7-3.8-.6a.8.8,0,0,1-.6-.4.8.8,0,0,1-.2-.8l.9-6.4,9.7-65.4.6-4a1.1,1.1,0,0,1,1-.9m0-.9a2,2,0,0,0-2,1.7l-.6,3.9L89.9,186l-.9,6.4a2,2,0,0,0,1.7,2.3l3.7.5,18.5,2.8,8.3,1.2h.3a2,2,0,0,0,2-1.7l.6-4,9.7-65.4,1-6.4a2.1,2.1,0,0,0-1.7-2.3l-3.8-.6-18.5-2.7-8.3-1.2Z" style="fill:#fff"/><path d="M99.8,192.1a7.2,7.2,0,0,0-4-7.1l-.9-.4h-.2l-.5-.2,8.7-58.7h2.8l.6-.2h0l.6-.3.5-.3a7.4,7.4,0,0,0,3.1-4.5l13.4,2a7.5,7.5,0,0,0,4,7.1l1,.3h.7l-8.7,58.8H118l-.5.2h-.1l-.5.2-.6.4a7.2,7.2,0,0,0-3,4.4Z" style="fill:#66c6c6"/><path d="M110.8,120.6l3.2.4,8.2,1.2,1.2.2a7.8,7.8,0,0,0,4.3,7.1l1,.4h.4l-8.6,57.9h-1.9l-.6.2h-.1l-.6.2h0l-.6.3h-.1l-.5.4a7.3,7.3,0,0,0-3.2,4.3l-3.1-.5-8.2-1.2-1.3-.2a7.6,7.6,0,0,0-4.3-7l-1-.4h-.3l8.6-57.9h1.9l.5-.2h.2l.5-.2h.1l.6-.2h0l.6-.3a7.9,7.9,0,0,0,3.1-4.3m-.7-1.1a6.9,6.9,0,0,1-2.9,4.6l-.5.3h-.1l-.5.2h0l-.5.2h-3.1l-8.9,59.7,1,.2h.1l.9.4a6.6,6.6,0,0,1,3.7,7l2.2.3,8.1,1.2,4.1.6a6.7,6.7,0,0,1,2.9-4.6l.5-.3h0l.5-.3h.1l.5-.2h.1l.5-.2h2.5l8.8-59.7-.9-.2H129a2,2,0,0,1-.8-.4,6.5,6.5,0,0,1-3.7-7l-2.2-.3-8.2-1.2-4-.6Z" style="fill:#fff"/><path d="M93.1,191.8h0l.2.6h-.5l-.2-.8v-.5l2.9.5v.5Z" style="fill:#fff"/><path d="M94.5,188.9c.9.1,1.5.6,1.4,1.3s-.8,1-1.7.8-1.5-.6-1.4-1.3S93.6,188.8,94.5,188.9Zm-.2,1.6c.7.1,1.1-.1,1.1-.4s-.3-.5-1-.6-1.1,0-1.2.3S93.5,190.4,94.3,190.5Z" style="fill:#fff"/><path d="M94.8,186.5c1,.2,1.5.6,1.4,1.3s-.8,1-1.7.9-1.4-.6-1.3-1.3S94,186.4,94.8,186.5Zm-.2,1.6c.7.1,1.2,0,1.2-.3s-.3-.6-1-.7-1.2,0-1.2.3S93.9,188,94.6,188.1Z" style="fill:#fff"/><path d="M103.3,122.6h0l.2.6h-.4l-.3-.8V122l3,.4v.6Z" style="fill:#fff"/><path d="M104.7,119.7c1,.2,1.5.6,1.4,1.3s-.8,1-1.7.9-1.4-.7-1.3-1.4S103.8,119.6,104.7,119.7Zm-.2,1.6c.7.1,1.1,0,1.2-.4s-.3-.5-1-.6-1.2,0-1.2.3S103.8,121.2,104.5,121.3Z" style="fill:#fff"/><path d="M105.1,117.4c.9.1,1.5.6,1.4,1.3s-.8.9-1.7.8-1.5-.6-1.4-1.3S104.2,117.2,105.1,117.4Zm-.2,1.5c.7.1,1.1,0,1.1-.3s-.3-.6-1-.7-1.1,0-1.2.4S104.1,118.8,104.9,118.9Z" style="fill:#fff"/><path d="M117.8,195.4h0v.6h-.4l-.2-.7v-.5l3,.4v.6Z" style="fill:#fff"/><path d="M119.2,192.5c.9.2,1.5.6,1.4,1.4s-.8.9-1.7.8-1.5-.6-1.4-1.3S118.3,192.4,119.2,192.5Zm-.2,1.6c.7.1,1.1,0,1.1-.3s-.3-.6-1-.7-1.1,0-1.2.3S118.2,194,119,194.1Z" style="fill:#fff"/><path d="M119.5,190.2c1,.1,1.5.6,1.4,1.3s-.8,1-1.7.8-1.5-.6-1.4-1.3S118.6,190.1,119.5,190.2Zm-.2,1.6c.7.1,1.1-.1,1.2-.4s-.4-.5-1.1-.7-1.1.1-1.1.4S118.6,191.7,119.3,191.8Z" style="fill:#fff"/><path d="M128,126.2h0l.2.5h-.5l-.2-.8v-.5l2.9.5v.5Z" style="fill:#fff"/><path d="M129.4,123.4c1,.1,1.5.6,1.4,1.3s-.8.9-1.7.8-1.5-.6-1.4-1.3S128.5,123.2,129.4,123.4Zm-.2,1.5c.7.2,1.1,0,1.2-.3s-.4-.6-1.1-.7-1.1,0-1.1.4S128.5,124.8,129.2,124.9Z" style="fill:#fff"/><path d="M129.7,121c1,.2,1.5.6,1.4,1.3s-.7,1-1.6.9-1.5-.7-1.4-1.4S128.9,120.9,129.7,121Zm-.2,1.6c.8.1,1.2,0,1.2-.4s-.3-.5-1-.6-1.1,0-1.2.3S128.8,122.5,129.5,122.6Z" style="fill:#fff"/><path d="M112.8,166a8.2,8.2,0,0,1-2.2-.2c-6.3-.9-10.8-5.5-10.1-10.2s6.3-7.8,12.6-6.8a13.8,13.8,0,0,1,7.7,3.6,7.4,7.4,0,0,1-1.8,12.2A13.8,13.8,0,0,1,112.8,166Zm-1.9-16.4c-4.9,0-8.9,2.5-9.5,6.2s3.6,8.2,9.3,9.1a12.7,12.7,0,0,0,7.8-1.2,6.9,6.9,0,0,0,3.8-4.9,6.7,6.7,0,0,0-2.2-5.7,12.5,12.5,0,0,0-7.1-3.4Z" style="fill:#fff"/><rect x="109" y="135.9" width="11.8" height="0.97" transform="translate(-36.8 230.1) rotate(-81.6)" style="fill:#fff"/><rect x="106.4" y="135.5" width="11.8" height="0.97" transform="translate(-38.7 227.2) rotate(-81.6)" style="fill:#fff"/><rect x="111.7" y="136.3" width="11.8" height="0.97" transform="translate(-34.9 233) rotate(-81.6)" style="fill:#fff"/><rect x="103" y="176.5" width="11.8" height="0.97" transform="translate(-82.1 258.8) rotate(-81.6)" style="fill:#fff"/><rect x="100.4" y="176.1" width="11.8" height="0.97" transform="translate(-84 255.9) rotate(-81.6)" style="fill:#fff"/><rect x="105.7" y="176.9" width="11.8" height="0.97" transform="translate(-80.3 261.8) rotate(-81.6)" style="fill:#fff"/><path d="M84.2,199.3a1.6,1.6,0,0,1-1.5-1.2L63.3,124a1.4,1.4,0,0,1,.1-1.1,1.4,1.4,0,0,1,1-.7l29.8-7.9h.4a1.5,1.5,0,0,1,1.5,1.1l19.5,74.1a1.7,1.7,0,0,1-.2,1.2,1.3,1.3,0,0,1-.9.7l-29.9,7.8Z" style="fill:#66c6c6"/><path d="M94.6,114.8a1,1,0,0,1,1,.7l1.7,6.3,16.8,64,1,3.8a1.1,1.1,0,0,1-.8,1.3l-8.1,2.2-18.1,4.7-3.6,1h-.3a1,1,0,0,1-1-.8l-1.7-6.2-16.8-64-1-3.9a1.2,1.2,0,0,1,.8-1.3l8.1-2.1,18.1-4.7,3.7-1h.2m0-1h-.5l-3.7.9-18,4.8-8.2,2.1a2.1,2.1,0,0,0-1.4,2.5l1,3.8,16.8,64,1.6,6.3a2.1,2.1,0,0,0,2,1.5h.5l3.7-.9,18.1-4.8,8.1-2.1a2,2,0,0,0,1.4-2.5l-1-3.9-16.8-64-1.6-6.2a2.1,2.1,0,0,0-2-1.5Z" style="fill:#fff"/><path d="M92.1,193.7a7.3,7.3,0,0,0-6.5-4.9H83.9L68.8,131.5h.6l.3-.2h.5l.4-.2.2-.2.4-.3h.1c.1-.1.3-.2.4-.4h0l.4-.5.4-.5a7.2,7.2,0,0,0,1.1-5.3l13.2-3.5a7,7,0,0,0,6.4,4.9h1.7L110,182.1h-.8l-.3.2h-.1c-.1,0-.2,0-.2.1l-.4.2H108l-.4.4h-.1a.8.8,0,0,1-.4.4h0l-.4.4-.4.6a7.5,7.5,0,0,0-1.1,5.3Z" style="fill:#66c6c6"/><path d="M86.5,120.4a7.4,7.4,0,0,0,6.7,4.8h1.4l14.8,56.6H109l-.4.2h-.1c0,.1-.1.1-.2.1l-.4.3h-.2c-.1.1-.2.3-.4.4h-.1l-.4.4h-.1l-.4.5h0a1,1,0,0,0-.4.5,7.9,7.9,0,0,0-1.2,5.2l-3.1.8-8,2.1-1.2.3a7.8,7.8,0,0,0-6.7-4.8H84.2L69.4,131.8h.5l.3-.2h.3l.4-.2h.2l.4-.3h.1c.2-.1.3-.3.4-.4h.1l.4-.5h0l.4-.5a7.5,7.5,0,0,0,1.2-5.2l3.1-.9,8-2,1.3-.4m.6-1.1-2.1.5-8,2.1-4,1a6.7,6.7,0,0,1-.9,5.4l-.3.5h0l-.4.5h-.1l-.3.4c-.1,0-.1,0-.1.1l-.4.3h-.1a.5.5,0,0,0-.4.2h-.2l-.4.2h-.3l-.3.2-.6.2,15.3,58.3h2.1a6.7,6.7,0,0,1,6.1,5l2.2-.5,7.9-2.1,4-1.1a6.8,6.8,0,0,1,.9-5.4l.3-.4h.1l.3-.4h.1a.8.8,0,0,1,.4-.4h0l.4-.3h.2l.3-.2.3-.2h.3l.3-.2h.3l.6-.2L95.3,124l-1,.2H93.2a6.8,6.8,0,0,1-6.1-5Z" style="fill:#fff"/><path d="M85.8,196.1h0l.4.5-.4.2-.6-.6v-.5l2.9-.8.2.6Z" style="fill:#fff"/><path d="M85.9,192.9c1-.2,1.6,0,1.8.7s-.3,1.2-1.2,1.4-1.6,0-1.8-.7S85.1,193.1,85.9,192.9Zm.5,1.5c.7-.1,1-.4.9-.7s-.5-.4-1.2-.2-1.1.4-1,.7S85.6,194.6,86.4,194.4Z" style="fill:#fff"/><path d="M85.3,190.6c1-.2,1.6,0,1.8.7s-.3,1.2-1.2,1.4-1.6,0-1.8-.7S84.5,190.8,85.3,190.6Zm.4,1.5c.8-.1,1.1-.4,1-.7s-.5-.4-1.2-.2-1.1.4-1,.7S85,192.3,85.7,192.1Z" style="fill:#fff"/><path d="M68,128.5h0l.4.4-.4.2-.5-.6v-.4l2.9-.8v.5Z" style="fill:#fff"/><path d="M68.2,125.3c.9-.3,1.6-.1,1.8.6s-.4,1.2-1.3,1.5-1.6,0-1.7-.7S67.3,125.5,68.2,125.3Zm.4,1.5c.7-.2,1-.5.9-.8s-.5-.4-1.2-.2-1,.5-.9.8S67.9,127,68.6,126.8Z" style="fill:#fff"/><path d="M67.6,123c.9-.3,1.6-.1,1.8.6s-.4,1.2-1.3,1.5-1.6,0-1.7-.7S66.7,123.2,67.6,123Zm.4,1.5c.7-.2,1-.5.9-.8s-.5-.4-1.2-.2-1,.5-.9.8S67.3,124.7,68,124.5Z" style="fill:#fff"/><path d="M109.9,189.8h0l.4.4-.4.2-.5-.6v-.4l2.9-.8v.5Z" style="fill:#fff"/><path d="M110.1,186.6c.9-.3,1.6-.1,1.7.6s-.3,1.2-1.2,1.5-1.6,0-1.8-.7S109.2,186.8,110.1,186.6Zm.4,1.5c.7-.2,1-.5.9-.8s-.5-.4-1.2-.2-1,.5-.9.8S109.8,188.3,110.5,188.1Z" style="fill:#fff"/><path d="M109.4,184.3c1-.3,1.7-.1,1.8.6s-.3,1.2-1.2,1.5-1.6,0-1.8-.7S108.6,184.5,109.4,184.3Zm.5,1.5c.7-.2,1-.5.9-.8s-.5-.4-1.2-.2-1,.5-.9.8S109.2,186,109.9,185.8Z" style="fill:#fff"/><path d="M92.1,122.1h0l.4.4-.3.2-.6-.6v-.5l2.9-.7v.5Z" style="fill:#fff"/><path d="M92.3,118.9c.9-.2,1.6,0,1.8.7s-.3,1.2-1.2,1.4-1.6,0-1.8-.6S91.4,119.2,92.3,118.9Zm.4,1.6c.7-.2,1.1-.5,1-.8s-.5-.4-1.2-.2-1.1.4-1,.8S92,120.7,92.7,120.5Z" style="fill:#fff"/><path d="M91.7,116.6c.9-.2,1.6,0,1.8.7s-.3,1.2-1.2,1.4-1.6,0-1.8-.6S90.8,116.9,91.7,116.6Zm.4,1.6c.7-.2,1-.5,1-.8s-.6-.4-1.2-.2-1.1.4-1,.8S91.4,118.4,92.1,118.2Z" style="fill:#fff"/><path d="M87.9,165.9a11.9,11.9,0,0,1-4.7-.9,7.8,7.8,0,0,1-4.9-5,8.3,8.3,0,0,1,1.8-6.9,13.6,13.6,0,0,1,7.2-4.4h0a13.6,13.6,0,0,1,8.5.3,8,8,0,0,1,4.8,5.1c1.2,4.6-2.8,9.7-8.9,11.3A17.3,17.3,0,0,1,87.9,165.9Zm3.2-16.7a15.3,15.3,0,0,0-3.6.4h0a12.5,12.5,0,0,0-6.6,4.1,6.7,6.7,0,0,0-1.6,6,6.5,6.5,0,0,0,4.3,4.4,12.1,12.1,0,0,0,7.8.4c5.7-1.5,9.4-6.1,8.3-10.1a6.6,6.6,0,0,0-4.3-4.5A12.1,12.1,0,0,0,91.1,149.2Z" style="fill:#fff"/><rect x="83.6" y="130.7" width="1" height="11.82" transform="translate(-31.9 25.8) rotate(-14.7)" style="fill:#fff"/><rect x="81" y="131.3" width="1" height="11.82" transform="translate(-32.2 25.2) rotate(-14.7)" style="fill:#fff"/><rect x="86.2" y="130" width="1" height="11.82" transform="matrix(0.97, -0.25, 0.25, 0.97, -31.66, 26.45)" style="fill:#fff"/><rect x="94.1" y="170.4" width="1" height="11.82" transform="translate(-41.7 29.8) rotate(-14.7)" style="fill:#fff"/><rect x="91.5" y="171.1" width="1" height="11.82" transform="translate(-41.9 29.1) rotate(-14.7)" style="fill:#fff"/><rect x="96.6" y="169.7" width="1" height="11.82" transform="translate(-41.4 30.4) rotate(-14.7)" style="fill:#fff"/><path d="M94.9,203.5a1.9,1.9,0,0,1-1-.3L34.6,154.8a1.4,1.4,0,0,1-.6-1.1,2,2,0,0,1,.3-1.1l19.5-23.9a1.6,1.6,0,0,1,1.2-.6,1.3,1.3,0,0,1,1,.4l59.4,48.4a1.7,1.7,0,0,1,.6,1,1.5,1.5,0,0,1-.4,1.1L96.1,203a1.7,1.7,0,0,1-1.2.5Z" style="fill:#66c6c6"/><path d="M55,128.6a1,1,0,0,1,.7.2l5,4.1L112,174.7l3.1,2.5a1.1,1.1,0,0,1,.1,1.5l-5.3,6.5L98.1,199.7l-2.4,2.9a.9.9,0,0,1-.8.4,1.1,1.1,0,0,1-.7-.2l-5-4.1L38,156.9l-3.1-2.5a.8.8,0,0,1-.4-.7,1.1,1.1,0,0,1,.2-.8l5.3-6.5,11.8-14.5,2.4-2.9a.9.9,0,0,1,.8-.4m0-1a1.9,1.9,0,0,0-1.5.8l-2.4,2.9L39.3,145.8,34,152.3a2.1,2.1,0,0,0,.3,2.9l3,2.5,51.3,41.8,5,4.1a2.2,2.2,0,0,0,1.3.4,2,2,0,0,0,1.6-.7l2.4-3,11.8-14.5,5.3-6.5a2,2,0,0,0-.3-2.8l-3.1-2.5L61.3,132.2l-5-4.1a2.1,2.1,0,0,0-1.3-.5Z" style="fill:#fff"/><path d="M43.4,157.5c.1,0,.1-.1.1-.2h.2V157l.2-.3v-.3h.1v-.2c0-.1.1-.3.1-.4h.1a.9.9,0,0,0,.1-.5h.1a1.3,1.3,0,0,1,.1-.6h0V153a7.4,7.4,0,0,0-2.2-4.9l8.6-10.6a6.8,6.8,0,0,0,4.1,1.4,6.7,6.7,0,0,0,3.9-1.2l.9-.6h.1l.4-.4,46,37.5v.4h-.1v.3l-.2.3h0v.2c-.1.1-.1.3-.2.4h-.1a.7.7,0,0,1-.1.5h0a1.3,1.3,0,0,0-.1.6h0c0,.2-.1.4-.1.6v.6a6.9,6.9,0,0,0,2.3,4.9l-8.6,10.6a7,7,0,0,0-4.2-1.3,7.7,7.7,0,0,0-3.9,1.1l-.8.6v.2l-.4.4Z" style="fill:#66c6c6"/><path d="M60.5,137.2l45.4,37h-.1l-.2.3c0,.1-.1.2-.1.3h-.1v.2c0,.2-.1.3-.1.5h-.1v.2c-.1.1-.1.3-.2.5h0c0,.2-.1.4-.1.6h0c0,.2-.1.4-.1.7h0v.7a8.3,8.3,0,0,0,2.1,4.9l-2,2.4-5.2,6.4-.8,1a8.1,8.1,0,0,0-4.1-1.1,7.9,7.9,0,0,0-4.2,1.2l-.8.7h-.3l-45.3-37h0l.2-.3.2-.4h0c.1,0,.1-.1.1-.2l.2-.4h.1c0-.2.1-.4.1-.6h0a1.3,1.3,0,0,0,.1-.6h.1v-.6h0V153a7.3,7.3,0,0,0-2.1-4.9l2-2.5,5.2-6.4.9-1a8,8,0,0,0,4,1.1,7.6,7.6,0,0,0,4.2-1.2l.9-.6v-.2c.1,0,.1,0,.1-.1m-.1-1.3-.6.7h-.2l-.7.6a7,7,0,0,1-3.7,1.1,6.6,6.6,0,0,1-4.2-1.5l-1.4,1.7L44.4,145l-2.6,3.2a6.6,6.6,0,0,1,2.4,4.8.6.6,0,0,1,0,.6h0v.6h0a4.3,4.3,0,0,0-.1.5h0l-.2.5h0l-.2.4a.4.4,0,0,1-.1.3c0,.1-.1.2-.1.3s-.2.2-.2.3l-.2.3-.4.5,46.8,38.1.7-.7h.1l.8-.6a6.8,6.8,0,0,1,3.6-1,6.5,6.5,0,0,1,4.3,1.5l1.4-1.7,5.2-6.4,2.6-3.2a6.7,6.7,0,0,1-2.5-4.9V178h0a1.3,1.3,0,0,1,.1-.6h0a1.3,1.3,0,0,1,.1-.6h0v-.4c0-.1,0-.2.1-.2s.1-.3.1-.4a.4.4,0,0,0,.1-.3l.2-.3.2-.3a.3.3,0,0,1,.1-.2l.4-.6L60.4,135.9Z" style="fill:#fff"/><path d="M95.2,199.7h0l.6.2-.2.4-.8-.2-.3-.3,1.9-2.3.4.3Z" style="fill:#fff"/><path d="M93.4,197.1c.7-.8,1.3-1,1.9-.6s.4,1.2-.2,1.9-1.3,1-1.8.5S92.9,197.7,93.4,197.1Zm1.3.9c.5-.5.5-.9.3-1.1s-.6-.1-1.1.5-.6,1-.3,1.2S94.2,198.6,94.7,198Z" style="fill:#fff"/><path d="M91.6,195.5c.6-.7,1.3-.9,1.8-.5s.5,1.2-.1,1.9-1.3,1-1.8.5S91,196.2,91.6,195.5Zm1.3,1c.4-.5.5-1,.3-1.2s-.7,0-1.1.6-.6,1-.4,1.2S92.4,197.1,92.9,196.5Z" style="fill:#fff"/><path d="M41,155.6h.6l-.2.4-.8-.2-.3-.3,1.8-2.3.5.3Z" style="fill:#fff"/><path d="M39.2,152.9c.7-.8,1.3-1,1.9-.5s.4,1.1-.2,1.8-1.3,1-1.8.5S38.7,153.6,39.2,152.9Zm1.3,1c.5-.6.5-1,.3-1.2s-.7,0-1.1.5-.6,1-.3,1.2S40,154.4,40.5,153.9Z" style="fill:#fff"/><path d="M37.4,151.4c.6-.8,1.3-1,1.8-.5s.5,1.1-.1,1.8-1.3,1-1.8.5S36.8,152.1,37.4,151.4Zm1.2,1c.5-.6.6-1,.4-1.2s-.7,0-1.2.5-.5,1-.3,1.2S38.2,152.9,38.6,152.4Z" style="fill:#fff"/><path d="M111,180.4h.6l-.2.4-.8-.2-.4-.3,1.9-2.3.4.4Z" style="fill:#fff"/><path d="M109.2,177.7c.6-.7,1.3-1,1.8-.5s.5,1.1-.1,1.9-1.3.9-1.8.5S108.6,178.4,109.2,177.7Zm1.3,1q.6-.9.3-1.2c-.3-.2-.7,0-1.1.6s-.6.9-.4,1.1S110,179.3,110.5,178.7Z" style="fill:#fff"/><path d="M107.4,176.2c.6-.7,1.2-1,1.8-.5s.4,1.1-.1,1.9-1.3.9-1.9.5S106.8,176.9,107.4,176.2Zm1.2,1q.8-.9.3-1.2c-.2-.2-.6,0-1.1.6s-.6.9-.3,1.1S108.1,177.8,108.6,177.2Z" style="fill:#fff"/><path d="M56.8,136.2h0l.6.2-.2.4-.8-.2-.4-.3,1.9-2.4.4.4Z" style="fill:#fff"/><path d="M55,133.5c.6-.7,1.3-.9,1.8-.5s.5,1.2-.1,1.9-1.3.9-1.8.5S54.4,134.2,55,133.5Zm1.3,1c.4-.5.5-1,.3-1.2s-.7,0-1.1.6-.6,1-.4,1.2S55.8,135.1,56.3,134.5Z" style="fill:#fff"/><path d="M53.2,132c.6-.7,1.2-.9,1.8-.5s.4,1.2-.1,1.9-1.3.9-1.9.5S52.6,132.7,53.2,132Zm1.2,1c.5-.5.6-1,.3-1.2s-.6,0-1.1.6-.6,1-.3,1.2S53.9,133.6,54.4,133Z" style="fill:#fff"/><path d="M72.5,176.4a7.5,7.5,0,0,1-4.6-1.5,7.8,7.8,0,0,1-2.6-6.5,13.9,13.9,0,0,1,3.2-7.9h0a14.1,14.1,0,0,1,7-4.7,8,8,0,0,1,7,1.2,7.9,7.9,0,0,1,2.6,6.6,14.1,14.1,0,0,1-3.2,7.8A12.4,12.4,0,0,1,72.5,176.4Zm5.4-19.9a7.6,7.6,0,0,0-2.1.3,12.7,12.7,0,0,0-6.6,4.3h0a12.5,12.5,0,0,0-2.9,7.3,7.1,7.1,0,0,0,2.2,5.8c3.3,2.6,9,1.1,12.6-3.4a12.6,12.6,0,0,0,3-7.3,6.9,6.9,0,0,0-2.2-5.7A6.2,6.2,0,0,0,77.9,156.5Z" style="fill:#fff"/><rect x="58.3" y="146.7" width="1" height="11.82" transform="matrix(0.63, -0.78, 0.78, 0.63, -96.66, 101.77)" style="fill:#fff"/><rect x="56.6" y="148.8" width="1" height="11.82" transform="translate(-98.9 101.2) rotate(-50.8)" style="fill:#fff"/><rect x="60" y="144.6" width="1" height="11.82" transform="translate(-94.4 102.3) rotate(-50.8)" style="fill:#fff"/><rect x="90.1" y="172.7" width="1" height="11.82" transform="translate(-105 136) rotate(-50.8)" style="fill:#fff"/><rect x="88.5" y="174.7" width="1" height="11.82" transform="translate(-107.3 135.5) rotate(-50.8)" style="fill:#fff"/><rect x="91.8" y="170.6" width="1" height="11.82" transform="translate(-102.8 136.5) rotate(-50.8)" style="fill:#fff"/><path d="M100.4,210.7h-.3L25.3,194.2a1.4,1.4,0,0,1-1.2-1.8l6.6-30.1a1.7,1.7,0,0,1,1.5-1.3h.4l74.8,16.4a1.6,1.6,0,0,1,.9.7,1.7,1.7,0,0,1,.3,1.2l-6.7,30.1a1.5,1.5,0,0,1-1.5,1.2Z" style="fill:#66c6c6"/><path d="M32.2,161.5h.3l6.3,1.3,64.6,14.2,3.9.9a1.1,1.1,0,0,1,.8,1.3l-1.8,8.2-4,18.2-.8,3.7a1.2,1.2,0,0,1-1.1.8h-.2l-6.3-1.4L29.3,194.6l-3.9-.8a1.8,1.8,0,0,1-.7-.5,1.1,1.1,0,0,1-.1-.8l1.8-8.2,4-18.3.8-3.6a1.1,1.1,0,0,1,1-.9m0-.9a2.1,2.1,0,0,0-2,1.5l-.8,3.7-4,18.3-1.8,8.2a2.1,2.1,0,0,0,1.6,2.4l3.9.9,64.6,14.2,6.3,1.4h.4a1.9,1.9,0,0,0,2-1.6l.8-3.7,4-18.2,1.8-8.2a2.1,2.1,0,0,0-1.5-2.5l-3.9-.8L39,162l-6.3-1.4Z" style="fill:#fff"/><path d="M34.4,192.7v-1.3h0v-.2c0-.1-.1-.3-.1-.4v-.2a4.3,4.3,0,0,0-.1-.5v-.2l-.2-.5h0l-.3-.5-.3-.6a6.8,6.8,0,0,0-4.2-3.4l2.9-13.3h1.1a7.2,7.2,0,0,0,6.2-3.6l.5-.9v-.2c.1-.2.2-.3.2-.5l58,12.8v.4h0v.7h0v.7h0a.1.1,0,0,0,.1.1.9.9,0,0,0,.1.5h0a1.4,1.4,0,0,0,.2.6h0a1.4,1.4,0,0,0,.2.6h0l.3.6a7.3,7.3,0,0,0,4.2,3.3l-2.9,13.3H99.3a7.2,7.2,0,0,0-6.2,3.5,10.4,10.4,0,0,0-.4,1h-.1c-.1.2-.1.4-.2.6Z" style="fill:#66c6c6"/><path d="M40.5,166.9l57.2,12.5h0v.7h0v.7h.1v.2a.9.9,0,0,0,.1.5h0l.2.5h0l.3.6h0l.3.6a7.8,7.8,0,0,0,4.1,3.5l-.7,3.1-1.8,8.1-.3,1.2h-.7a7.6,7.6,0,0,0-6.6,3.8l-.5,1v.2h-.1L34.9,192.3H35v-.8h0v-.2a1.1,1.1,0,0,1-.1-.5h0a1.3,1.3,0,0,1-.1-.6h-.1a1.4,1.4,0,0,0-.2-.6h0a1.4,1.4,0,0,0-.2-.6h0l-.3-.6a8,8,0,0,0-4.1-3.4l.7-3.1,1.7-8.1.3-1.2h.7a7.7,7.7,0,0,0,6.6-3.8,3.1,3.1,0,0,0,.5-1V167h0m-.6-1.2-.3,1h-.1a3.6,3.6,0,0,1-.4.9,6.8,6.8,0,0,1-5.8,3.3H31.9l-.5,2.1-1.8,8.1-.9,4a6.4,6.4,0,0,1,4.4,3.2l.3.5h0c.1.1.1.3.2.5h0c.1.2.1.4.2.6h0a.6.6,0,0,1,.1.4v.2a.9.9,0,0,1,.1.5v1.2c-.1.2-.1.5-.2.7l59,12.9.3-.9v-.2a3,3,0,0,0,.4-.8,6.6,6.6,0,0,1,5.8-3.3h1.5l.5-2.1,1.7-8.1.9-4a6.8,6.8,0,0,1-4.4-3.3.8.8,0,0,1-.2-.5h-.1c0-.2-.1-.3-.2-.5h0a4.3,4.3,0,0,1-.1-.5.1.1,0,0,1-.1-.1.9.9,0,0,0-.1-.5v-.6c0-.1,0-.2-.1-.2v-1.1a1.3,1.3,0,0,1,.1-.6l-58.9-13Z" style="fill:#fff"/><path d="M99.7,207h0l.6-.2v.4l-.8.2H99l.7-2.9h.5Z" style="fill:#fff"/><path d="M96.9,205.4c.2-.9.7-1.4,1.4-1.3s.9.9.7,1.8-.7,1.4-1.4,1.3S96.7,206.3,96.9,205.4Zm1.5.4c.2-.8.1-1.2-.2-1.2s-.6.3-.8,1,0,1.1.3,1.1S98.3,206.5,98.4,205.8Z" style="fill:#fff"/><path d="M94.6,204.9c.2-.9.7-1.4,1.4-1.3s.9.9.7,1.8-.7,1.4-1.4,1.3S94.4,205.8,94.6,204.9Zm1.5.3c.2-.7.1-1.1-.2-1.1s-.6.2-.8.9-.1,1.2.3,1.2S96,206,96.1,205.2Z" style="fill:#fff"/><path d="M31.4,192H32v.4l-.8.2h-.5l.7-2.9h.5Z" style="fill:#fff"/><path d="M28.6,190.4c.2-.9.7-1.4,1.4-1.3s.9.9.7,1.8-.7,1.4-1.4,1.3S28.4,191.3,28.6,190.4Zm1.6.3c.1-.7,0-1.1-.3-1.1s-.6.2-.7.9-.1,1.2.2,1.2S30,191.5,30.2,190.7Z" style="fill:#fff"/><path d="M26.3,189.9c.2-.9.7-1.4,1.4-1.3s.9.9.7,1.8-.7,1.4-1.4,1.2S26.1,190.8,26.3,189.9Zm1.5.3c.2-.7.1-1.1-.2-1.2s-.6.3-.8,1,0,1.2.3,1.2S27.7,191,27.8,190.2Z" style="fill:#fff"/><path d="M105,182.7h0l.6-.2v.5l-.8.2h-.4l.6-3,.6.2Z" style="fill:#fff"/><path d="M102.2,181.1c.3-1,.8-1.5,1.4-1.3s1,.8.8,1.7-.8,1.5-1.4,1.3S102.1,181.9,102.2,181.1Zm1.6.3c.2-.7,0-1.1-.3-1.2s-.5.3-.7,1-.1,1.1.3,1.2S103.6,182.1,103.8,181.4Z" style="fill:#fff"/><path d="M99.9,180.6c.2-1,.7-1.5,1.4-1.3s.9.8.7,1.7-.7,1.4-1.4,1.3S99.7,181.4,99.9,180.6Zm1.6.3q.1-1.1-.3-1.2c-.3-.1-.6.3-.7,1s-.1,1.1.2,1.2S101.3,181.6,101.5,180.9Z" style="fill:#fff"/><path d="M36.7,167.7h0l.6-.2v.5l-.8.2h-.4l.6-3h.6Z" style="fill:#fff"/><path d="M34,166.1c.2-1,.7-1.5,1.4-1.3s.9.8.7,1.7-.8,1.4-1.4,1.3S33.8,166.9,34,166.1Zm1.5.3q.3-1.1-.3-1.2c-.3-.1-.5.3-.7,1s-.1,1.1.3,1.2S35.4,167.1,35.5,166.4Z" style="fill:#fff"/><path d="M31.6,165.6c.2-1,.7-1.5,1.4-1.3s.9.8.7,1.7-.7,1.4-1.4,1.3S31.4,166.4,31.6,165.6Zm1.6.3q.1-1.1-.3-1.2c-.3-.1-.6.3-.7,1s-.1,1.1.2,1.2S33,166.6,33.2,165.9Z" style="fill:#fff"/><path d="M65.5,197.3H64.1c-4.6-1-7.3-6.9-6-13.1a14.3,14.3,0,0,1,4.2-7.4,7.8,7.8,0,0,1,6.8-2c4.6,1,7.3,6.9,5.9,13.1a13.5,13.5,0,0,1-4.1,7.4A8.4,8.4,0,0,1,65.5,197.3Zm2.1-21.8a7.6,7.6,0,0,0-4.7,1.9,13.4,13.4,0,0,0-3.8,6.9c-1.3,5.7,1.1,11,5.2,11.9a6.5,6.5,0,0,0,5.9-1.8,12.2,12.2,0,0,0,3.9-6.8c1.2-5.7-1.1-11.1-5.3-12Z" style="fill:#fff"/><rect x="45.4" y="175.5" width="1" height="11.82" transform="translate(-141.1 187.3) rotate(-77.6)" style="fill:#fff"/><rect x="44.9" y="178.1" width="1" height="11.82" transform="translate(-144.1 188.8) rotate(-77.6)" style="fill:#fff"/><rect x="46" y="172.9" width="1" height="11.82" transform="translate(-138.1 185.8) rotate(-77.6)" style="fill:#fff"/><rect x="85.6" y="184.3" width="1" height="11.82" transform="translate(-118.2 233.4) rotate(-77.6)" style="fill:#fff"/><rect x="85" y="186.9" width="1" height="11.82" transform="translate(-121.2 234.9) rotate(-77.6)" style="fill:#fff"/><rect x="86.1" y="181.7" width="1" height="11.82" transform="translate(-115.2 231.9) rotate(-77.6)" style="fill:#fff"/><path d="M95.8,225.6a1.7,1.7,0,0,1-1.3-.5l-2.9-2.9h-.2v-.2L90.1,219a12.6,12.6,0,0,1-.1-6.7,7.6,7.6,0,0,0,.4-1.1h0a30,30,0,0,1,6-8l2.1-2.2,1.6-1.8c2.4-2.6,4.6-5.1,8.2-6.3a28.9,28.9,0,0,1,7.8-1.5h.2a6.2,6.2,0,0,1,3.2.8,12.4,12.4,0,0,1,3.6,2.2h.1c.9,1.5,2.1,3.7,1,5.7h-.4a2.1,2.1,0,0,1-1.2.4h-2a12.5,12.5,0,0,0-5,1.1l-2.3,1-.8.3c-2.2,2.6-5.6,4.3-8.6,5.8l-1.4.7c-2.6,1.4-4.7,2.6-5.5,5.3a10.5,10.5,0,0,0-.5,3.6l.2.4a6.8,6.8,0,0,1,.2,1.5c.1.4.1.8.2,1.2l.3.7a1.7,1.7,0,0,1,.2,1.8,2.1,2.1,0,0,1-1.8,1.2Z" style="fill:#333031"/><path d="M116.3,192a7,7,0,0,1,3,.7,10.8,10.8,0,0,1,3.4,2.1c1,1.5,1.9,3.5,1,5.2h-.2a1.5,1.5,0,0,1-.9.2h-.9c-2.3.3-4.2.3-6.3,1.3l-3.2,1.4c-2.6,2.9-6.6,4.7-10,6.4s-4.8,2.7-5.7,5.6a10.5,10.5,0,0,0-.5,3.9l.2.5c.2.6.2,1.8.4,2.6l.3.9a1.4,1.4,0,0,1-1.1,2.2,1.1,1.1,0,0,1-.9-.4,39.6,39.6,0,0,1-2.9-2.8l-.2-.3a27.9,27.9,0,0,1-1.1-2.8,10.4,10.4,0,0,1-.1-6.3l.3-1.1a27.7,27.7,0,0,1,5.9-7.8,22.9,22.9,0,0,0,2.1-2.3c3-3.2,5.3-6.5,9.6-7.9a24.9,24.9,0,0,1,7.6-1.4h.2m0-1.1h-.2a30,30,0,0,0-8,1.4c-3.8,1.3-6,3.9-8.4,6.5l-1.6,1.8h0a21.3,21.3,0,0,1-2.1,2.2h0c-2.2,2.3-4.7,5-6.1,8.2h0a8.3,8.3,0,0,0-.4,1.2,12.8,12.8,0,0,0,.1,7l1.2,2.9.2.3h.2l2.9,2.9a2.3,2.3,0,0,0,1.7.7,2.5,2.5,0,0,0,2.3-1.6,2.1,2.1,0,0,0-.2-2.3l-.3-.6c0-.3-.1-.7-.1-1a8.6,8.6,0,0,0-.3-1.7c0-.1-.1-.2-.1-.3a9.6,9.6,0,0,1,.4-3.4c.8-2.4,2.7-3.6,5.2-4.9l1.4-.7c3-1.5,6.4-3.2,8.8-5.8l.6-.3,2.3-1a13.5,13.5,0,0,1,4.9-1.1h1.9a2.4,2.4,0,0,0,1.5-.4h.2l.2-.2.2-.2c1.2-2.3,0-4.7-1-6.3h-.2a13.4,13.4,0,0,0-3.7-2.3,7.9,7.9,0,0,0-3.5-.8Z" style="fill:#fff"/><path d="M90.6,225h-.3l-2-.2c-2.5-.3-5.1-.5-6.9-2.6s-1.9-5.2-2.1-8c-.1-.9-.1-1.7-.2-2.5v-.3c-.3-2.5-.6-5.2,1.1-7.4a31.3,31.3,0,0,1,6.5-6.2l1.3-.9c2-1.4,4.5-3.2,7-3.2H95a4.6,4.6,0,0,1,3.5,1.4,4,4,0,0,1,.9,3.2,6.3,6.3,0,0,1-1,2.9h-.1a17.2,17.2,0,0,1-2.7,2.7h-.1c-2.9,3.1-5.6,6.4-5.9,10.9a7.7,7.7,0,0,0,.3,2.7,10.5,10.5,0,0,0,1.1,3.1,1.1,1.1,0,0,0,.3.6,7.2,7.2,0,0,0,.9,2l.3.3-.2.4A2.2,2.2,0,0,1,90.6,225Z" style="fill:#333031"/><path d="M94.9,194.2H95c2.7,0,4.1,1.3,3.8,3.9a5.1,5.1,0,0,1-.9,2.7,22.3,22.3,0,0,1-2.6,2.7l-.2.2c-3,3.2-5.8,6.6-6,11.3a8.8,8.8,0,0,0,.2,2.8,9.6,9.6,0,0,0,1.2,3.2,12.9,12.9,0,0,0,1.3,2.7,1.5,1.5,0,0,1-1.2.7h-.2c-3-.5-6.4-.2-8.6-2.7s-1.8-7-2.2-10.1-.7-5.2.9-7.3a28.5,28.5,0,0,1,6.4-6.1c2.2-1.5,5.2-4,8-4m0-1.1c-2.6,0-5.2,1.8-7.3,3.3l-1.3.9a30.1,30.1,0,0,0-6.7,6.3c-1.8,2.4-1.4,5.2-1.1,7.7v.4a16.6,16.6,0,0,1,.2,2.4c.2,2.9.4,6.2,2.3,8.4s4.8,2.5,7.3,2.7l1.9.3h.4a2.5,2.5,0,0,0,2.1-1.1l.4-.7-.4-.6a6.6,6.6,0,0,1-.9-1.9,1.3,1.3,0,0,1-.3-.7,11.5,11.5,0,0,1-1.1-2.9h0a6.2,6.2,0,0,1-.2-2.4h0c.2-4.3,2.8-7.5,5.7-10.6h.2l2.7-2.6h.1a7.6,7.6,0,0,0,1.1-3.2,4.7,4.7,0,0,0-1-3.6,5.1,5.1,0,0,0-4-1.5Z" style="fill:#fff"/><path d="M110.7,233.5h-.3c-2.6-.4-5.3-1.8-7.8-3.1l-2-1a4.7,4.7,0,0,1-2.9-3.7v-.5c-.1-.5-.3-1-.4-1.5-1.3-4.4-2.6-8.6,2.4-11.9l5.2-3.1,3.5-2.1,2.7-1.7a34.3,34.3,0,0,1,6.9-4,6.9,6.9,0,0,1,2.2-.3c2.9,0,6.8,1.5,8,4.1a3,3,0,0,1,.2,1v.2h-.2c-1.2,1.4-3,2-4.8,2.6l-2.3.9c-1.3.6-5.6,2.8-7.7,5.6s-2.5,5.9-2.6,8.6a24.2,24.2,0,0,0,1.3,8.9l.2.4-.4.2a1.5,1.5,0,0,1-1.1.4Z" style="fill:#333031"/><path d="M120.1,201c2.8,0,6.4,1.6,7.5,3.8a1.9,1.9,0,0,1,.1.8c-1.7,1.9-4.8,2.2-7,3.3s-6,3.4-7.8,5.7-2.7,6.2-2.8,9a23.5,23.5,0,0,0,1.4,9.1l-.8.2h-.2c-3.3-.6-6.7-2.7-9.6-4.1s-2.2-1.7-2.8-3.9c-1.4-5-3.3-9.3,1.8-12.7,2.8-1.9,5.9-3.4,8.7-5.2s6.2-4.4,9.5-5.7a6,6,0,0,1,2-.3m0-1.1a6.1,6.1,0,0,0-2.4.4,32.5,32.5,0,0,0-7,4L108,206a25,25,0,0,1-3.5,2.1c-1.7,1-3.5,2-5.2,3.2-5.3,3.5-4,8.1-2.7,12.5.2.5.3,1,.5,1.4a4.3,4.3,0,0,0,.1.5c.5,2,.9,3,3.2,4.1l2,1a28.5,28.5,0,0,0,7.9,3.2h.4a2.3,2.3,0,0,0,1.4-.4l.8-.5-.4-.8a21.3,21.3,0,0,1-1.2-8.7,15.5,15.5,0,0,1,2.5-8.3c2-2.7,6.2-4.8,7.4-5.4l2.3-.9a11,11,0,0,0,5.1-2.7l.2-.3v-.4a3,3,0,0,0-.2-1.3c-1.3-2.7-5.4-4.4-8.5-4.4Z" style="fill:#fff"/><path d="M149.7,224.5c-3.4-2.3-6.7-4.6-9.9-7.2l-.4-.4c-.4,1.1-1.1,1.6-2.6,2.5a14.6,14.6,0,0,0-4.5,3.7c-1.4,1.8-1.9,4-3.4,5.8a20.8,20.8,0,0,0-2.1,2.2,10.4,10.4,0,0,1,.8-2,24.9,24.9,0,0,1,2.2-4.3,1.3,1.3,0,0,0-.9-1.9,24.8,24.8,0,0,1-2.7-.3c-2.6-1.1,2.1-.5,2.7-.4s2.3.6,3.8-.6a10.9,10.9,0,0,0,1.8-1.9c.9-1,2.8-2.4,3.5-3.6a3.5,3.5,0,0,0,.3-3.3c-.9-2.9-2.8-7.7-6.5-7.3s-5,2.6-7.4,3.4a30.2,30.2,0,0,0-4.5,1.8l-2.1,1.3c-1.8,1.2-3.7,2.5-4.7,4.5a19,19,0,0,0-1.5,4.6,17,17,0,0,0-.3,5.6c.4,2.2,1.2,4.3,1.8,6.5s.9,4.5,2.9,6.3c9,8.3,20.4,5.5,30.3.6,4.5-2.3,8.9-4.9,13.3-7.5C157.8,229.1,152.7,226.6,149.7,224.5Z" style="fill:#333031"/></svg>