<svg xmlns="http://www.w3.org/2000/svg" viewBox="0 0 360 360"><title>illustr--managingPlanPage</title><path d="M288.2,64.3c-1.6-.9-3.3-1.4-7.8-1.4H80.1c-4.6,0-6.2.5-7.8,1.4A8.5,8.5,0,0,0,68.5,68c-.9,1.7-1.4,3.3-1.4,7.8V276.2c0,4.5.5,6.2,1.4,7.8a9.3,9.3,0,0,0,3.8,3.8c1.6.8,3.2,1.3,7.8,1.3H280.4c4.5,0,6.2-.5,7.8-1.3A9.9,9.9,0,0,0,292,284c.9-1.6,1.4-3.3,1.4-7.8V75.8c0-4.5-.5-6.1-1.4-7.8A9,9,0,0,0,288.2,64.3Zm3.9,211.9c0,4.6-.5,5.9-1.2,7.2a7.3,7.3,0,0,1-3.3,3.2c-1.3.8-2.5,1.3-7.2,1.3H80.1c-4.7,0-5.9-.5-7.2-1.3a7.3,7.3,0,0,1-3.3-3.2c-.7-1.3-1.2-2.6-1.2-7.2V75.8c0-4.6.5-5.9,1.2-7.1a7,7,0,0,1,3.3-3.3c1.3-.8,2.5-1.3,7.2-1.3H280.4c4.7,0,5.9.5,7.2,1.3a7,7,0,0,1,3.3,3.3c.7,1.2,1.2,2.5,1.2,7.1Z" style="fill:#afadad"/><rect x="103.5" y="89.5" width="155.8" height="167.73" rx="2.3" ry="2.3" style="fill:#66c6c6"/><path d="M253.3,258.8H109.5a7.7,7.7,0,0,1-7.6-7.6V95.6a7.7,7.7,0,0,1,7.6-7.6H253.3a7.6,7.6,0,0,1,7.6,7.6V251.2A7.6,7.6,0,0,1,253.3,258.8ZM109.5,91.1a4.5,4.5,0,0,0-4.4,4.5V251.2a4.5,4.5,0,0,0,4.4,4.5H253.3a4.5,4.5,0,0,0,4.5-4.5V95.6a4.5,4.5,0,0,0-4.5-4.5Z" style="fill:#fff"/><rect x="97.2" y="80.1" width="168.4" height="39.17" rx="7.3" ry="7.3" style="fill:#231f20"/><path d="M258.2,120.8H104.7a9,9,0,0,1-9-9V87.5a9,9,0,0,1,9-9H258.2a9,9,0,0,1,9,9v24.3A9.1,9.1,0,0,1,258.2,120.8ZM104.7,81.6a5.8,5.8,0,0,0-5.9,5.9v24.3a5.9,5.9,0,0,0,5.9,5.9H258.2a6,6,0,0,0,5.9-5.9V87.5a5.9,5.9,0,0,0-5.9-5.9Z" style="fill:#fff"/><rect x="234.1" y="202.2" width="17.3" height="17.35" style="fill:#fff"/><rect x="234.1" y="181.8" width="17.3" height="17.34" style="fill:#fff"/><rect x="234.1" y="161.4" width="17.3" height="17.34" style="fill:#fff"/><rect x="234.1" y="141.1" width="17.3" height="17.34" style="fill:#fff"/><path d="M233.5,201.5h18.6v18.6H233.5Zm18,18V202.2H234.1v17.3Z" style="fill:#231f20"/><path d="M233.5,181.2h18.6v18.6H233.5Zm18,17.9V181.8H234.1v17.3Z" style="fill:#231f20"/><path d="M233.8,161.1h18v18h-18Zm17.7,17.7V161.4H234.1v17.4Z" style="fill:#231f20"/><path d="M233.5,140.4h18.6V159H233.5Zm18,18V141.1H234.1v17.3Z" style="fill:#231f20"/><path d="M233.5,160.8h18.6v18.6H233.5Zm18.3.3h-18v18h18Z" style="fill:#231f20"/><rect x="214.2" y="222.5" width="17.3" height="17.34" style="fill:#fff"/><rect x="214.2" y="202.2" width="17.3" height="17.35" style="fill:#fff"/><rect x="214.2" y="181.8" width="17.3" height="17.34" style="fill:#fff"/><rect x="214.2" y="161.4" width="17.3" height="17.34" style="fill:#fff"/><rect x="214.2" y="141.1" width="17.3" height="17.34" style="fill:#fff"/><path d="M213.6,221.9h18.6v18.6H213.6Zm18,18V222.5H214.2v17.4Z" style="fill:#231f20"/><path d="M213.6,201.5h18.6v18.6H213.6Zm18,18V202.2H214.2v17.3Z" style="fill:#231f20"/><path d="M213.6,181.2h18.6v18.6H213.6Zm18,17.9V181.8H214.2v17.3Z" style="fill:#231f20"/><path d="M231.6,178.8V161.4H214.2v17.4Zm.3-17.7v18h-18v-18Z" style="fill:#231f20"/><path d="M213.6,140.4h18.6V159H213.6Zm18,18V141.1H214.2v17.3Z" style="fill:#231f20"/><path d="M213.6,160.8h18.6v18.6H213.6Zm18.3,18.3v-18h-18v18Z" style="fill:#231f20"/><rect x="194.3" y="222.5" width="17.3" height="17.34" style="fill:#fff"/><rect x="194.3" y="202.2" width="17.3" height="17.35" style="fill:#fff"/><rect x="194.3" y="181.8" width="17.3" height="17.34" style="fill:#fff"/><rect x="194.3" y="161.4" width="17.3" height="17.34" style="fill:#fff"/><rect x="193.4" y="141.1" width="17.3" height="17.34" style="fill:#fff"/><path d="M211.7,239.9V222.5H194.3v17.4Zm.6.6H193.7V221.9h18.6Z" style="fill:#231f20"/><path d="M211.7,219.5V202.2H194.3v17.3Zm.6.6H193.7V201.5h18.6Z" style="fill:#231f20"/><path d="M211.7,199.1V181.8H194.3v17.3Zm.6.7H193.7V181.2h18.6Z" style="fill:#231f20"/><path d="M211.7,178.8V161.4H194.3v17.4Zm.3-17.7v18H194v-18Z" style="fill:#231f20"/><path d="M212,179.1v-18H194v18Zm.3.3H193.7V160.8h18.6Z" style="fill:#231f20"/><path d="M192.8,140.4h18.5V159H192.8Zm.6,18h17.3V141.1H193.4Z" style="fill:#231f20"/><rect x="174.4" y="222.5" width="17.3" height="17.34" style="fill:#fff"/><rect x="174.4" y="202.2" width="17.3" height="17.35" style="fill:#fff"/><rect x="174.4" y="181.8" width="17.3" height="17.34" style="fill:#fff"/><rect x="174.4" y="161.4" width="17.3" height="17.34" style="fill:#fff"/><path d="M191.8,239.9V222.5H174.4v17.4Zm-18,.6V221.9h18.6v18.6Z" style="fill:#231f20"/><path d="M191.8,219.5V202.2H174.4v17.3Zm-18,.6V201.5h18.6v18.6Z" style="fill:#231f20"/><path d="M191.8,199.1V181.8H174.4v17.3Zm-18,.7V181.2h18.6v18.6Z" style="fill:#231f20"/><path d="M191.8,178.8V161.4H174.4v17.4Zm.3-17.7v18h-18v-18Z" style="fill:#231f20"/><path d="M192.1,179.1v-18h-18v18Zm-18.3.3V160.8h18.6v18.6Z" style="fill:#231f20"/><rect x="154.5" y="222.5" width="17.3" height="17.34" style="fill:#fff"/><rect x="154.5" y="202.2" width="17.3" height="17.35" style="fill:#fff"/><rect x="154.5" y="181.8" width="17.3" height="17.34" style="fill:#fff"/><rect x="154.5" y="161.4" width="17.3" height="17.34" style="fill:#fff"/><path d="M171.8,239.9V222.5H154.5v17.4Zm-17.9.6V221.9h18.6v18.6Z" style="fill:#231f20"/><path d="M171.8,219.5V202.2H154.5v17.3Zm-17.9.6V201.5h18.6v18.6Z" style="fill:#231f20"/><path d="M171.8,199.1V181.8H154.5v17.3Zm-17.9.7V181.2h18.6v18.6Z" style="fill:#231f20"/><path d="M171.8,178.8V161.4H154.5v17.4Zm-17.6.3v-18h18v18Z" style="fill:#231f20"/><path d="M154.2,161.1v18h18v-18Zm-.3-.3h18.6v18.6H153.9Z" style="fill:#231f20"/><rect x="134.6" y="222.5" width="17.3" height="17.34" style="fill:#fff"/><rect x="134.6" y="202.2" width="17.3" height="17.35" style="fill:#fff"/><rect x="134.6" y="181.8" width="17.3" height="17.34" style="fill:#fff"/><rect x="134.6" y="161.4" width="17.3" height="17.34" style="fill:#fff"/><path d="M151.9,239.9V222.5H134.6v17.4Zm-17.9.6V221.9h18.6v18.6Z" style="fill:#231f20"/><path d="M151.9,219.5V202.2H134.6v17.3Zm-17.9.6V201.5h18.6v18.6Z" style="fill:#231f20"/><path d="M151.9,199.1V181.8H134.6v17.3Zm-17.9.7V181.2h18.6v18.6Z" style="fill:#231f20"/><path d="M151.9,178.8V161.4H134.6v17.4Zm.3.3H134.3v-18h17.9Z" style="fill:#231f20"/><path d="M134,160.8h18.6v18.6H134Zm.3,18.3h17.9v-18H134.3Z" style="fill:#231f20"/><rect x="114.7" y="222.5" width="17.3" height="17.34" style="fill:#fff"/><rect x="114.7" y="202.2" width="17.3" height="17.35" style="fill:#fff"/><rect x="114.7" y="181.8" width="17.3" height="17.34" style="fill:#fff"/><rect x="114.7" y="161.4" width="17.3" height="17.34" style="fill:#fff"/><path d="M132,239.9V222.5H114.7v17.4Zm.6.6H114.1V221.9h18.5Z" style="fill:#231f20"/><path d="M132,219.5V202.2H114.7v17.3Zm.6.6H114.1V201.5h18.5Z" style="fill:#231f20"/><path d="M132,199.1V181.8H114.7v17.3Zm.6.7H114.1V181.2h18.5Z" style="fill:#231f20"/><path d="M132,178.8V161.4H114.7v17.4Zm.3.3H114.4v-18h17.9Z" style="fill:#231f20"/><path d="M114.1,160.8h18.5v18.6H114.1Zm.3,18.3h17.9v-18H114.4Z" style="fill:#231f20"/><path d="M169.5,179l-5.8-9.2,6.5-4.1h1.5l.2.2.6.9a12.1,12.1,0,0,1,4.1-1.5,3.4,3.4,0,0,1,3.3,1h0c.5.9.3,2.1-.5,3.4a13.5,13.5,0,0,1-3.2,3.1l.4.6h0v.3c.1.1,0,.2,0,.3h0l-.2.2a.4.4,0,0,1-.1.3H176Zm-4.2-8.9,4.6,7.3,5.6-3.6-.9-1.4.5-.3a10.8,10.8,0,0,0,3.3-3c.6-.9.8-1.7.5-2.1h0c-.3-.5-1.1-.7-2.2-.5a9.7,9.7,0,0,0-4.1,1.6l-.5.3-1.1-1.8h-.2Zm11.3,3.4h0Zm-5.6-7.1h0v0Z" style="fill:#fff"/><path d="M84.3,235.2l-8.2-13,.3-.3.2-.2h.1l.7-.5L162,168h.2l.4-.2.3.4,8,12.7-.4.4h-.2L85.2,234.9h-.9Zm-6.7-12.8,7.2,11.4,84.6-53.2-7.2-11.4-.3.2Zm84.8-54Z" style="fill:#fff"/><path d="M79.9,235h-.7l-.2-.2-4.7-7.5h0v-.3c-.1-.1,0-.2,0-.3v-.2h.1l.2-.3h.3l2.6-1.6,5.8,9.2-2.5,1.6h-.9Zm0-1v0Zm-4.5-7.3,4.5,7.2h.3l1.5-1-4.6-7.2-1.5.9h-.2Zm-1.1.3Zm0-.1h0Z" style="fill:#fff"/><ellipse cx="173.9" cy="170.1" rx="6.5" ry="2.9" transform="matrix(0.85, -0.53, 0.53, 0.85, -63.85, 118.63)" style="fill:#231f20"/><path d="M169.7,178.2l5.3-3.3.6-.5h.1l.2-.2h.2c0-.1,0-.1-.1-.1h0v-.2l-4.4-7v-.2h-.9l-.7.4-5.3,3.4Z" style="fill:#66c8c7"/><path d="M162.4,168.4h-.1l-.7.4L77.7,221.6l-.6.4h-.3l7.8,12.3h.2l.7-.4,83.9-52.7.6-.5h.1l-7.7-12.4Z" style="fill:#66c8c7"/><path d="M79.6,234.3h.8l.7-.4,1.4-.9-5.2-8.2-1.4.8-.6.5H75c0,.1,0,.1-.1.2h-.1c0,.1,0,.1.1.1h0v.2l4.4,7v.2Z" style="fill:#66c8c7"/><path d="M184.1,250.9c1-3.5,1.3-7.1,2.1-10.6a42.3,42.3,0,0,0,1.3-12.8,8.4,8.4,0,0,0-4.1-7.2c-1.7-1.1-4.1-1-6.3-.7A7.7,7.7,0,0,0,175,221l-.5.6h0l-.3.3-.5.7-.5.6-.6.7-.2.3-1.3,1.8-.3.4h0a26.2,26.2,0,0,0-2.9,5.5h0l-.5,1.2c0,.1,0,.2-.1.2h-.5l-.4-.2h0a.7.7,0,0,1-.2-.6c1.5-4.9,4.5-8.7,7.6-12.4l.2-.3.2-.2,1.5-1.8a25.3,25.3,0,0,0,1.8-3.7c2.7-6.7,1.1-12.2-4.5-16.6a4.8,4.8,0,0,0-2.2-1.2h-1.6l-2.5.2a10.1,10.1,0,0,0-3,1.3,19,19,0,0,0-4,4v.2a7.6,7.6,0,0,0-.8,1.1l-.2.2-.8,1.2a.1.1,0,0,1-.1.1l-.8,1.2-1.4,2.2-.9,1.5-.4.6-3.2,5.3h0a63.8,63.8,0,0,1-4.9,6.7c-.5.7-1.4-.2-.9-.9,5.2-6.1,8.6-13.5,13.4-19.9,1.7-2.1,3.5-4.4,6.1-5.5l1-.3h0l.2-.2h.6l2-.4h1c.9-.7,1-2,.9-3.2-1-3.7-3.5-7.1-6.9-8.4a24.6,24.6,0,0,0-8.5-1.1c-2.1,0-4.3-.3-6.4-.1h-.3a2.2,2.2,0,0,0-1.1.2H147a17.2,17.2,0,0,0-6.5,3.5c-3.4,3.1-5.2,7.5-6.6,11.8a35,35,0,0,1-5,10.5,20,20,0,0,1-1.9,2.2c-1.2,1.5-2.4,2.8-3.7,4.2s-.9,1-1.3,1.6a1,1,0,0,0-.4.5l-1.6,1.8c-.4.7-1.3-.2-.8-.9,3.3-4.2,7.4-7.9,10.3-12.5s3.2-8.6,5.2-12.9a20.6,20.6,0,0,1,7.1-8.9l1.2-.7h.3l1-.5h.3l2.8-1a30.3,30.3,0,0,1,3.2-.6c3.6-3.1,7.4-6.4,8.4-11a24.5,24.5,0,0,0,.2-2.7,8.5,8.5,0,0,0-5.8-6.1,8.3,8.3,0,0,0-4.7.1c-2.5.9-5.2,1.9-7.6,3-9.2,4.2-19.6,10.7-24.3,20.2a.6.6,0,0,0-.1.4c-2.9,5.5-6,10.8-8.6,16.4s-8,11.5-11.3,17.7c-.1.1-4.9,7.5-4.9,11.5s1.6,8,3.1,12.3,4.7,9.3,6.4,14.3,1.9,8.3,2.5,12.6,1.3,9,.7,13.7a21,21,0,0,1-1.5,6.1c-1.2,2.9-3.3,4.5-5.5,6.4a104.5,104.5,0,0,0-8.2,8.1L84.5,308c-3.9,3.4-7.8,6.8-11.4,10.4s-9.4,8.2-7.4,13.6a30.2,30.2,0,0,0,8.9,12c8.6,7.1,20.2,11.2,31.1,13.1,5.7,1.1,11.8,1.1,17-1.9s7.9-7.9,10.9-12.6c1.7-2.7,3.5-5.3,5.4-8l19.8-23,5.7-7.1c4.4-5.7,9-11,13-17.1,1.7-2.5,2.4-5.4,3.4-8.3s2.6-6.6,3.1-10.3c.9-5.9-.3-11.6-.3-17.4Z" style="fill:#231f20"/><path d="M112.2,358.3a41.6,41.6,0,0,1-6.7-.6c-8.9-1.6-21.6-5.2-31.2-13.3a30.2,30.2,0,0,1-9.1-12.2c-1.9-5.1,2.8-9.6,6.2-12.9l1.3-1.3c3.3-3.3,7-6.7,11.5-10.4l4.7-4.6,2.1-2.2c2-2,4-4.1,6.2-6l.6-.5c2-1.7,3.7-3.1,4.8-5.6a22.1,22.1,0,0,0,1.4-5.9,50.6,50.6,0,0,0-.6-13.6l-.3-2a54.5,54.5,0,0,0-2.2-10.5,55.5,55.5,0,0,0-3.2-7,68.1,68.1,0,0,1-3.3-7.3,15.5,15.5,0,0,0-.8-2.3c-1.3-3.4-2.3-6.3-2.3-10.2s3.4-9.4,4.9-11.7h.1a73.2,73.2,0,0,1,5.2-8,64.1,64.1,0,0,0,6-9.6c1.8-3.7,3.7-7.2,5.6-10.6l3-5.7a1.4,1.4,0,0,1,.2-.6c3.9-7.9,12.2-14.7,24.5-20.4a58.7,58.7,0,0,1,7.7-3,7.8,7.8,0,0,1,5-.1,8.8,8.8,0,0,1,6.3,6.5h0a16.4,16.4,0,0,1-.2,2.2,1.3,1.3,0,0,1-.1.6c-.9,4.6-4.4,7.8-8.5,11.3h-.3l-3.2.7-2.7.9h-.3l-.9.5h-.3l-1.2.7a20,20,0,0,0-6.9,8.7,31.3,31.3,0,0,0-1.9,5.1,35.8,35.8,0,0,1-3.3,7.8,68.5,68.5,0,0,1-6.2,7.8c-1.4,1.5-2.9,3.1-4.2,4.8h0l1.5-1.8h.1l.3-.4,1.4-1.6,1-1.1,2.7-3,1.8-2.2a35.9,35.9,0,0,0,5-10.4c1.4-4.4,3.2-8.9,6.7-12a18.4,18.4,0,0,1,6.8-3.7h.1v0a2.3,2.3,0,0,1,1.2-.1h.2a17.8,17.8,0,0,1,4,0H155a24.4,24.4,0,0,1,8.7,1.2c3.4,1.2,6.2,4.6,7.3,8.7h0c.1,1.2.1,2.8-1.2,3.7v.2h-1.2l-1.8.3h-.8l-1,.4a11.2,11.2,0,0,0-4.4,3.5,17,17,0,0,1,2.9-2.6,8.6,8.6,0,0,1,3.2-1.3h4.8v.2a6.4,6.4,0,0,1,2,1.1c5.8,4.7,7.4,10.5,4.7,17.3a33.6,33.6,0,0,1-1.9,3.8h0l-1.2,1.3-.4.5h-.3c-3.3,3.9-6.1,7.5-7.5,12.3h0c.2-.4.3-.8.5-1.3h.1a25,25,0,0,1,2.9-5.6h0l.2-.2v-.2l1.3-1.8.2-.2.6-.7v-.2l.4-.5.6-.7.8-1a11.8,11.8,0,0,1,2.2-1.4h.2c2.3-.3,4.8-.5,6.7.7s4.1,4.1,4.4,7.7a41.1,41.1,0,0,1-1.3,12.9c-.4,1.5-.6,3-.9,4.5a45.6,45.6,0,0,1-1.3,6.2h0a2.1,2.1,0,0,1-.4.6c.1,1.9.2,3.8.4,5.7a49.1,49.1,0,0,1,0,11.5,38.1,38.1,0,0,1-2.2,7.5c-.3.9-.6,1.9-1,2.9a9.3,9.3,0,0,1-.4,1.3,31.5,31.5,0,0,1-3,7.1c-3,4.5-6.3,8.6-9.5,12.6l-3.6,4.5c-1.1,1.5-2.3,2.9-3.4,4.3l-2.3,2.9c-1.3,1.6-11.8,13.9-19.8,23l-5.3,7.9-.4.6c-2.9,4.6-6,9.3-10.7,12.2A20.6,20.6,0,0,1,112.2,358.3Zm39.2-197.4a7.7,7.7,0,0,0-2.5.4,75.1,75.1,0,0,0-7.6,2.9c-12.1,5.6-20.2,12.3-24,19.9h0v.4c-1,2-2.1,3.9-3.1,5.8-1.9,3.4-3.8,7-5.5,10.6a70.6,70.6,0,0,1-6.2,9.8,80.4,80.4,0,0,0-5.1,7.8.3.3,0,0,0-.1.2c-1.1,1.8-4.8,7.8-4.8,11.1s1.1,6.5,2.3,9.8a15.5,15.5,0,0,1,.8,2.3,65.1,65.1,0,0,0,3.3,7.1,78.4,78.4,0,0,1,3.2,7.2,58.1,58.1,0,0,1,2.2,10.7l.3,2a45.5,45.5,0,0,1,.6,13.9,21.5,21.5,0,0,1-1.4,6.2c-1.2,2.8-3.1,4.4-5.1,6.1l-.7.5a83.5,83.5,0,0,0-6,5.9l-2.1,2.2c-1.5,1.4-3,3-4.9,4.7-4.4,3.7-8.1,7.1-11.4,10.3l-1.3,1.4c-3.4,3.2-7.5,7.2-5.9,11.6A29.1,29.1,0,0,0,75,343.5c9.5,7.9,22,11.5,30.8,13.1,6.9,1.2,12.4.6,16.6-1.9s7.5-7.4,10.3-11.8l.4-.6c1.6-2.5,3.4-5.1,5.4-8h0c7.9-9,18.6-21.4,19.8-22.9l2.3-2.9c1.1-1.4,2.3-2.8,3.4-4.3l3.6-4.5c3.2-4,6.5-8.1,9.4-12.5a26.5,26.5,0,0,0,2.9-6.9,6.5,6.5,0,0,0,.4-1.3l1.1-2.9a43.8,43.8,0,0,0,2.1-7.3,52.4,52.4,0,0,0-.1-11.2c-.1-2-.3-4.1-.3-6.1V251h.3a.3.3,0,0,0,.1-.2h0a58,58,0,0,0,1.3-6c.2-1.5.5-3,.8-4.6a38.5,38.5,0,0,0,1.3-12.5,7.9,7.9,0,0,0-3.8-6.8c-1.6-1-3.8-.9-5.9-.6a5.7,5.7,0,0,0-1.8,1.2l-.7.9-.6.6a1,1,0,0,1-.4.5v.2a1.8,1.8,0,0,0-.5.7l-.3.2-1.2,1.8-.3.4a28.5,28.5,0,0,0-2.9,5.4h0c-.2.5-.3.9-.4,1.2l-.2.4h-.1l-.3.2h-.7a.9.9,0,0,1-.7-.3,1.1,1.1,0,0,1-.3-1.2c1.5-4.9,4.4-8.7,7.6-12.5l.3-.5h.2l.4-.5,1-1.2a40,40,0,0,0,1.8-3.6c2.5-6.4,1.1-11.6-4.3-16a7,7,0,0,0-2.1-1.1h-3.8a10.3,10.3,0,0,0-2.8,1.2,14.2,14.2,0,0,0-3.8,3.9H160a4.4,4.4,0,0,1-.8,1.1v.3a10.5,10.5,0,0,0-.8,1.1l-.9,1.3-1.4,2.2-.9,1.4-1.3,2.2c-.8,1.3-1.6,2.5-2.3,3.8a69.9,69.9,0,0,1-4.9,6.8,1.2,1.2,0,0,1-1.7.1,1.2,1.2,0,0,1-.1-1.7,87.1,87.1,0,0,0,7.4-10.9c1.9-3,3.8-6.1,6-9s3.4-4.5,6.2-5.7l1-.3.3-.2h.8l1.9-.4h.8c.6-.5.7-1.3.6-2.5-1-3.8-3.5-6.8-6.5-7.9a22.3,22.3,0,0,0-8.3-1.1h-2.5c-1.3,0-2.5-.1-3.7,0h-1.7a13.9,13.9,0,0,0-6.2,3.4c-3.3,2.9-5,7.2-6.4,11.4a36.1,36.1,0,0,1-5.2,10.8l-1.8,2.2c-.9,1.1-1.9,2.1-2.8,3.1l-.9,1.1-1.4,1.6-.3.4H122l-1.5,1.9a1,1,0,0,1-1,.4,1.6,1.6,0,0,1-1-.8,1.3,1.3,0,0,1,.2-1.2c1.3-1.7,2.8-3.4,4.2-4.9a49.6,49.6,0,0,0,6.1-7.6,41.3,41.3,0,0,0,3.2-7.5c.6-1.8,1.2-3.6,1.9-5.3a21.3,21.3,0,0,1,7.3-9.1l1.3-.8h.4l1-.4h.3a22.9,22.9,0,0,1,2.8-.9l3.1-.7c4-3.3,7.3-6.3,8.1-10.5a1.1,1.1,0,0,1,.1-.5,14.1,14.1,0,0,0,.1-2,7.8,7.8,0,0,0-5.4-5.6Zm1,51.2a79.7,79.7,0,0,1-6.7,9.7h0a53.7,53.7,0,0,0,4.8-6.6Zm5.7-8.9c-.9,1.3-1.8,2.6-2.6,4l.9-1.5.9-1.3A8.3,8.3,0,0,0,158.1,203.2Z" style="fill:#fff"/></svg>