<svg xmlns="http://www.w3.org/2000/svg" viewBox="0 0 504 504"><title>illustr--Artboard 16 copy</title><path d="M390.3,111.7c-2.1-1.1-4.2-1.7-10-1.7H120.6c-5.8,0-7.9.6-10.1,1.7a12.2,12.2,0,0,0-4.9,4.9c-1.1,2.2-1.7,4.3-1.7,10.1V386.4c0,5.8.6,7.9,1.7,10a11.8,11.8,0,0,0,4.9,5c2.2,1.1,4.3,1.7,10.1,1.7H380.3c5.8,0,7.9-.6,10-1.7a11.8,11.8,0,0,0,4.9-5c1.2-2.1,1.8-4.2,1.8-10V126.7c0-5.8-.6-7.9-1.8-10.1A12.2,12.2,0,0,0,390.3,111.7Zm5.1,274.7c0,5.9-.7,7.6-1.6,9.3a10.6,10.6,0,0,1-4.2,4.2c-1.7.9-3.4,1.6-9.3,1.6H120.6c-5.9,0-7.7-.7-9.3-1.6a10.9,10.9,0,0,1-4.3-4.2c-.8-1.7-1.5-3.4-1.5-9.3V126.7c0-5.9.7-7.6,1.5-9.3a10.2,10.2,0,0,1,4.3-4.2c1.6-.9,3.4-1.6,9.3-1.6H380.3c5.9,0,7.6.7,9.3,1.6a10,10,0,0,1,4.2,4.2c.9,1.7,1.6,3.4,1.6,9.3Z" style="fill:#afadad"/><path d="M230,230.4a6.2,6.2,0,0,1,2.3,1.1v-5.9c-3.4.7-6.7,1.8-10.1,2.8Z" style="fill:#333031"/><path d="M282.9,186.7c-1.5-2.1-4.7-3.2-6.9-4.1a20.6,20.6,0,0,0-7.6-1.8c-6-2.4-11.2-5.9-17.1-8.9l-.4-.3a37.8,37.8,0,0,1-8.6-5.7c-.1,0-.1-.1-.2-.2a54.8,54.8,0,0,0-11.2-7.2l-2.2-1.1c-3-1.3-6-2.7-9.1-3.9L218,153a43.6,43.6,0,0,0-10.3-1.9,27.7,27.7,0,0,0-4.9.4c-6,1.2-11.6,3.7-17.8,4.2-1.8.1-2-2.6-.2-2.9,12-1.7,20.9-6.8,32.6-3.2,5.9,1.8,11.3,4.6,16.9,7a41.1,41.1,0,0,0,6.1,1.2,22.4,22.4,0,0,0,6.6-.9,21.3,21.3,0,0,0,8.8-4.9c2.2-2.2,5.3-7.5,2.5-10a14.3,14.3,0,0,0-2.8-.7l-1.4-.4c-6.8-1.8-13.4-3.6-20.3-4.4l-.5.2c-20,1.7-40.3-.3-58.9,8.7a1.3,1.3,0,0,1-1.2,0l-.7.3-.7.4a8.6,8.6,0,0,1-.1-1.6l.4-.2a1.3,1.3,0,0,1,.8-1.5c11.4-5.5,23.3-7.1,35.4-7.8l4.6-.4c4.8-.3,9.6-1,14.4-.5a14,14,0,0,0,3-1.5c1.6-2.9,3.6-8.1.9-10.6s-9.8.2-12.8.9c-1.3.3-3.3.9-5.2,1.2l-1.4.4c-.3.1-33.7,8.5-35.7,8.7l-2.1.6c-6.5,1.6-13.5,5.9-18.6,10.7h-.1c-7.5,7.1-16.2,12.5-24.3,18.8a81.9,81.9,0,0,0-10.3,10.1,32.2,32.2,0,0,0-5,4.7c-2.7,2.7-5.3,5.4-7.8,8.3-.9,1-1.2,1.6-2.5,3.1l-1.2,1.4c-7.3,7.7-15.3,14.7-24.9,20.1-13.9,7.7-30.1,11.4-45.8,15.4a4.5,4.5,0,0,0-3.2,3.3l-.6,3.1c-1.8,10,.1,19.1,4.7,28.1s14.7,23.6,22.4,32.4a5.3,5.3,0,0,0,7,.9c8.5-5.7,17.3-15.8,25.5-20.4,17.4-9.7,21.9-17.4,46.2-13.6h.1a42.9,42.9,0,0,0,12.8,2.1c5.7.2,11.3.5,17,.3a81.8,81.8,0,0,0,21.3-4c6.6-1.9,13.3-4,20.1-4.8l2.4-.3,2.7-.7,4.4-1.6c4.4-2,8.9-3.6,13.2-5.5s5.9-1.9,8.3-2.8,4.9-1.5,7.3-2.8c-4.1-1.4-3.3-1.1-7.9-1.9-.4-.1-5.1-.8-5.4-1l-1.9-.5a1.7,1.7,0,0,1-1.1-1.5v-1.5l-.2-.2c-1.5-.7-5.3-.9-7-1.4s-5.1-1.7-7.7-2.4h-.1l-.8.3c-7,2.1-14.5,1.8-21.8,1.4a7.9,7.9,0,0,1-4.9-1.7c-11.6-9-9.3-20-9.2-21.5,1.5-13.3,5.5-18.2,12.9-21.9a20.1,20.1,0,0,1,5.8-1.6c5.8-.6,11.3-1.9,17.3-3,4.3-.8,18.5,4.5,21.8,4.6a80.6,80.6,0,0,1,9.8,4.8,30.4,30.4,0,0,0,4.5,1.9c3.4,2.3,7.8,3.3,11.7,4.6a19.5,19.5,0,0,0,9.9.7c2.8-.4,6-.5,8.7-1.4A6.6,6.6,0,0,0,282.9,186.7Z" style="fill:#333031"/><path d="M437.3,359.7l-4.1.3,4.6-1.3a1.9,1.9,0,1,0-1-3.6c-21.2,6.2-43.1,10.1-63.9,17.8h-1a1.9,1.9,0,0,0-1.7-1.7c-4-.3-7.5-2.8-11.2-4s-9.5-2.3-14.2-3.3c-9.2-2.1-18.4-4.3-27.6-6.3s-18.4-4.1-27.7-6-17.9-3.9-26.7-3.6a2.1,2.1,0,0,0-1.2.4,2,2,0,0,0-1.7-1.3c-1.4-.2-2.8-.8-4.3-.9a29.5,29.5,0,0,0-4.2-.1,1.8,1.8,0,0,0-1.8,2c-1.7.4-2.2,3.2-.1,3.6l1.3.3c-1.3.6-2,2.6-.3,3.3l2.9,1.2h-.1a1.5,1.5,0,0,0-1.7,1.1h-1.1c-2.5-.2-2.5,3.6,0,3.7h.6a1.6,1.6,0,0,0,.3,1.8h-.6c-1.7-.3-2.5,2.5-.7,2.7h.3a1.7,1.7,0,0,0,1.5.9h.6l-.2.3-2.8-.4c-2.1-.2-2.3,2.7-.7,3.6a1.9,1.9,0,0,0,1.2,2.5l2.3.9.3.2h.3c.1.1.1.2.3.3-2.3.2-2.3,3.8.1,3.8a85.3,85.3,0,0,1,19.6,2l3.6,1a57.8,57.8,0,0,0,5.7,1.2c9.2,2.5,18.2,5.5,27.4,7.5l1.6.4c7.7,1.7,15.6,2.8,23.3,4.2s14.9,4.8,22.5,5.9a50.4,50.4,0,0,0,5.2,2.6,1.4,1.4,0,0,0,1.8-1.5,1.7,1.7,0,0,0,2.4.5c2.2-1.2,5.6-1.6,8.1-2.2l10.6-2.3c5.6-1.4,11.3-2.2,16.8-3.8,3.1-.9,5.9-2.5,9-3.4s6.6-1.7,9.9-2.4,8.9-1.8,12.8-4l3.9-.8c1.8-.3,1-3.1-.8-2.7h-.4l-.5-.6a9.1,9.1,0,0,0,1.6-1.1c1.1-1-.1-2.5-1.2-2.4a1.8,1.8,0,0,0,.1-1.6l.8-.5a1.5,1.5,0,0,0-.1-2.5l.3-.2c1.7-1.7-1-4.4-2.7-2.7-3.8,3.7-10.9,5-15.8,6.5l-7.5,2.2,6.6-2.9h.1a1.2,1.2,0,0,0,.9.3c6.5-.2,12-6.2,18.1-7.9a1.4,1.4,0,0,0-.7-2.7l-1.2.4a2.1,2.1,0,0,0,.8-1.1h1.4A1.9,1.9,0,0,0,437.3,359.7Zm-42.1,13.9a41.1,41.1,0,0,1-9,2.9l-1.6.2Zm-39-3.3-1.7-.3-3.2-.9C353,369.5,354.6,369.8,356.2,370.3Zm5.9,6.4a1.7,1.7,0,0,0,2.2-1.3l2.5.4a2.2,2.2,0,0,0,0,2.2l-2.9.8a1.6,1.6,0,0,0-1.3-2c-11-2.7-22.1-4.8-33.3-6.8l14.9,2.2C350.2,373.6,356.1,375.1,362.1,376.7Zm-53-1.3c10.7,1.3,21.4,2.8,32,4.3l15,2.1a2,2,0,0,0,0,1.1l-2.3-.2-3.9-1.1a1.9,1.9,0,0,0-2,.6c-2.7-.2-5.4-.4-8-.8-4.4-.7-8.8-.8-13.2-1.6s-8.4-2.5-12.8-3.1-11.4-1.7-17-2.8Zm-1.6-5.2,1.1.2,10.6,2.5-8.3-1.1-2.8-.3A1.6,1.6,0,0,0,307.5,370.2Zm-15.4-14.3,27.6,6,19.8,4.5q-6.7-1.2-13.8-2.1L308,360.6c-12.1-2.5-24.1-5.2-36.1-7.9a28,28,0,0,0-3.1-.9C276.6,352.4,284.6,354.4,292.1,355.9Zm.2,13.7c-3-.3-6-.7-8.9-1.2a109.6,109.6,0,0,1-12.7-2.5,1.9,1.9,0,0,0-.7-1.1l8.9,1.8Zm57.3,23.6c-4.8-.6-9.6-1.8-14.4-2.6l-18.6-3.1c7.3,1.2,14.7,2.2,22.1,3.1a81.3,81.3,0,0,1,13.9,2.7l.5.2Zm.6-5.5a1.3,1.3,0,0,0-1.5.7c-2-.4-3.9-.8-5.8-1-10.3-1.5-20.6-2.6-30.8-4.5s-19.7-4.4-29.5-6.6l-13.8-3c4.7.7,9.3,1.2,13.9,2,9.3,1.5,18.6,3.7,28,4.8,4.8.7,9.3,2.2,14.1,3.2s8.3,1,12.5,1.5,9.1,1.3,13.7,1.8l3.4.3a49.1,49.1,0,0,0,10.1,3,2,2,0,0,0,2.2-1.3h.4a2.2,2.2,0,0,0,.1,1.8h-.3C361.3,390.3,355.6,388.8,350.2,387.7Zm20,3.7a2.1,2.1,0,0,0-1.6,3.1h-.2a1.9,1.9,0,0,0-.6,2.8,12.2,12.2,0,0,0-3.3,1.4,1.6,1.6,0,0,0-.9,1.8l-.6-.4-1.5-.5a.3.3,0,0,0,.1-.2c1.5-.2,1.8-2.2.8-3.2h.2c2.1,1.3,4-2,1.9-3.3h2.4a1.4,1.4,0,0,0,1.1-2.2h1.2a1.2,1.2,0,0,0,1,.5Zm6.5-.8c-.1-.2-.3-.3-.4-.4,3.5-1,7-2.3,10.5-3h.4c7.1-1.1,14-2.8,21-4.5a1.8,1.8,0,0,0,.8,2.1c-4.2,1.1-8.5,2.1-12.9,2.8C389.7,388.5,383.2,389.7,376.7,390.6Zm41.2-20c-5.4,2.2-10.7,4.7-16.2,6.5l-15.8,5.2-5.5,1.9c-2.9.3-5.9.5-8.8.6a1.8,1.8,0,0,0-1.8,2.2l-1.1.2-.6.2a1.9,1.9,0,0,0-1.2-2.5,36.9,36.9,0,0,0-4.5-1.1,26.7,26.7,0,0,0,4,.1h.2a1.8,1.8,0,0,0,1.7-.7l1-.2.5-.2a2.3,2.3,0,0,0,1.8.6c2.5-.3,4.6-1.3,7-2s5.6-.7,8.3-1.1c5.5-.9,10.5-3.7,15.7-5.4s10.4-2.7,15.5-4.3Z" style="fill:#66c8c7"/><path d="M434.4,353.2a30.2,30.2,0,0,0-7.3-1.9c-3.2-.7-6.5-1.2-9.8-1.8s-5.9-1.1-8.8-1.8-6.3-1.9-9.6-2.5a124,124,0,0,1-18-4.3,103.6,103.6,0,0,0-18.2-3.9c-6.3-.8-12.4-2.1-18.7-3.1a36.1,36.1,0,0,0-8-.7c-3.2,0-6.3-.3-9.5-.5l-8.7-.8c-3.2-.4-6.3-.3-9.5-.5s-5.7-1-8.6-1-5.8.8-8.7,1.7c-6.6,2.1-12.8,4.3-19.7,5.2a60.4,60.4,0,0,0-9.4,1.2c-1.6.3-3.1.8-4.7,1.2s-3.3,1.4-4.8,1.6-.4.1-.4.3-3,1.2-2.1,2,1.9.1,2.5.2h2.8a50.6,50.6,0,0,0,7.5,1.7c3.3.2,6.7-.7,10,.1a69.2,69.2,0,0,0,8.9,2.5c3.2.6,6.5.8,9.7,1.5s6.2.9,9.4,1.5,6.9,2.1,10.4,3a49.1,49.1,0,0,0,7.5,1.3,22.1,22.1,0,0,1,5.1.5c1.7.4,3.3,1.1,4.9,1.5s6.4,1,9.5,1.6,7.1,1.6,10.6,2.4a95.9,95.9,0,0,1,19.5,6.8c2.2,1,4.6,2,7.1,1.9s5.9-1.6,8.7-2.6,5.7-2.3,8.8-2.8a55.1,55.1,0,0,0,9.1-2.3c3.4-1.2,6.8-1.8,10.1-3a65.9,65.9,0,0,1,10.6-2.7c2.6-.6,5.3-1.1,7.9-1.5s3.6-.2,4.1-1.5A.4.4,0,0,0,434.4,353.2Z" style="fill:#66c8c7"/><path d="M318.8,393.4a30.1,30.1,0,0,1-7.9-1.7l-4.3-1.2a79.5,79.5,0,0,0-13.1-1.8,1.2,1.2,0,0,1-1-1.1h-.1a1.4,1.4,0,0,1-.2-.7v-4.9q.2-4.7,0-9.3c-.1-1.6-.2-3.2-.4-4.8a64.4,64.4,0,0,1-.3-7.6c.1-4.2.8-7,2-8.5s3.3-2.1,5.3-2.7l1.4-.5c6.2-2.2,12.7-4.2,18.9-6.2l5.7-1.8,6.1-1.7,6.8-2,1.6-.6a41.2,41.2,0,0,1,6.9-1.8h.6l1.7-.2a22.6,22.6,0,0,1,6.5,1.5l2.6.9a77.5,77.5,0,0,0,14.9,2.1h.3a1.1,1.1,0,0,1,1,.6,1.3,1.3,0,0,1,.1,1.1c-.8,1.8-3.7,2.4-6.1,2.9l-2.1.5a56.8,56.8,0,0,0-8.1,3.2c-2.2,1-4.4,2.1-6.7,2.9s-5.5,2.1-8.2,3.2l-6.9,2.8c-2.8,1-5.7,1.7-8.6,2.5l-3.7.9h-.3v.3a123,123,0,0,1-1.3,16.5l-.6,5.1c-.4,3.6-.8,7.3-1.5,10.8h-.1v.2a.8.8,0,0,1-.2.8.7.7,0,0,1-.6.3Z" style="fill:#333031"/><path d="M348.5,334.5h0a18.6,18.6,0,0,1,6.3,1.5l2.7.9a78.5,78.5,0,0,0,15,2.1h.3a1.3,1.3,0,0,1,.7.4.9.9,0,0,1,0,.7c-.7,1.7-3.5,2.3-5.7,2.7l-2.2.5a66.8,66.8,0,0,0-8.2,3.3,65.4,65.4,0,0,1-6.6,2.8l-8.2,3.2c-2.3,1-4.6,2-6.9,2.8a84.7,84.7,0,0,1-8.6,2.5l-3.7,1h-.5v.6c-.1,5.1-.6,10.6-1.3,16.5-.3,1.7-.5,3.4-.7,5.1-.4,3.6-.8,7.2-1.5,10.7h0v.2h.1a1.1,1.1,0,0,1-.2.6c0,.1-.1.1-.3.1h-.1a30.3,30.3,0,0,1-7.8-1.7l-4.4-1.1a92.5,92.5,0,0,0-13-1.9.7.7,0,0,1-.7-.7v-.3l-.2-.2a.5.5,0,0,1-.2-.4c0-1.6.1-3.3.1-4.9,0-3.1.1-6.2,0-9.3-.1-1.6-.2-3.3-.4-4.8a64.5,64.5,0,0,1-.4-7.6c.2-4.1.8-6.9,2-8.3s3.2-2,5.1-2.6l1.4-.5c6.3-2.2,12.7-4.2,18.9-6.1l5.7-1.8c2-.7,4.1-1.2,6.1-1.8s4.5-1.2,6.8-2l1.7-.5a31.6,31.6,0,0,1,6.7-1.8h2.3m0-.8-1.7.2h-.7a48.7,48.7,0,0,0-8.5,2.4c-4.3,1.4-8.7,2.4-12.9,3.8-8.2,2.6-16.5,5.1-24.6,7.9-2.2.8-5.4,1.4-6.9,3.3s-2,6.1-2.1,8.8.5,8.2.7,12.4,0,9.5,0,14.2a1.3,1.3,0,0,0,.4,1,1.5,1.5,0,0,0,1.3,1.4,81.3,81.3,0,0,1,13,1.8c4.1.9,8,2.6,12.3,2.9h.1a1.3,1.3,0,0,0,1.2-1.6h0c1.1-5.2,1.5-10.7,2.2-15.9a154.6,154.6,0,0,0,1.3-16.6,124.1,124.1,0,0,0,12.3-3.5c5.1-1.8,10-4.2,15.1-6s9.6-4.5,14.8-6.1c2.4-.7,7.3-.9,8.4-3.6a1.6,1.6,0,0,0-1.4-2.2h-.2a82.4,82.4,0,0,1-14.9-2.2c-2.8-.8-6.1-2.4-9.2-2.4Z" style="fill:#fff"/><path d="M441.1,317.2l-4.1.3,4.6-1.4a1.9,1.9,0,0,0-1-3.6c-21.2,6.2-43.1,10.2-63.9,17.9l-1-.2a1.9,1.9,0,0,0-1.8-1.7c-3.9-.3-7.4-2.8-11.2-4s-9.4-2.3-14.1-3.3L321,314.9c-9.2-2-18.4-4.1-27.7-5.9s-17.9-4-26.7-3.7a1.7,1.7,0,0,0-1.2.5,1.9,1.9,0,0,0-1.7-1.4c-1.4-.2-2.8-.7-4.3-.9a29.5,29.5,0,0,0-4.2-.1,1.8,1.8,0,0,0-1.8,2c-1.7.4-2.2,3.2-.1,3.6l1.3.3c-1.4.6-2,2.6-.4,3.3a18.8,18.8,0,0,0,3,1.2h-.1a1.6,1.6,0,0,0-1.7,1.1h-1.1c-2.5-.1-2.5,3.6,0,3.8h.6a1.7,1.7,0,0,0,.3,1.9h-.6c-1.8-.2-2.5,2.5-.7,2.8h.3a1.7,1.7,0,0,0,1.5.9h.5l-.2.3-2.7-.4c-2.1-.2-2.4,2.8-.7,3.6a1.9,1.9,0,0,0,1.2,2.5l2.3.9.3.2h.3c0,.1.1.2.2.3-2.2.3-2.2,3.9.2,3.8a85.3,85.3,0,0,1,19.6,2.1l3.6.9,5.7,1.3c9.2,2.4,18.2,5.4,27.4,7.4l1.6.4c7.7,1.7,15.6,2.8,23.3,4.2s14.8,4.8,22.5,5.9a50.4,50.4,0,0,0,5.2,2.6,1.3,1.3,0,0,0,1.7-1.5,2,2,0,0,0,2.5.6c2.2-1.3,5.6-1.7,8.1-2.3l10.6-2.3c5.6-1.4,11.3-2.1,16.8-3.8,3.1-.9,5.9-2.5,8.9-3.4s6.7-1.7,10-2.4,8.9-1.8,12.8-4l3.9-.8c1.8-.3,1-3.1-.8-2.7h-.4a1.8,1.8,0,0,0-.5-.7,5.7,5.7,0,0,0,1.6-1.1c1.1-1-.1-2.5-1.3-2.4a1.6,1.6,0,0,0,.2-1.6l.8-.5a1.5,1.5,0,0,0-.1-2.5c.1-.1.2-.1.2-.2,1.8-1.7-.9-4.4-2.6-2.7-3.8,3.7-10.9,5-15.8,6.6-2.5.8-5,1.4-7.5,2.1l6.6-2.8h.1a1.2,1.2,0,0,0,.9.3c6.5-.2,11.9-6.2,18.1-7.9,1.8-.4,1-3.2-.8-2.7l-1.2.4a1.9,1.9,0,0,0,.9-1.1h1.4A1.9,1.9,0,1,0,441.1,317.2ZM399,331a41.1,41.1,0,0,1-9,2.9l-1.6.2Zm-39-3.3-1.8-.3-3.1-.9Zm5.9,6.4a1.7,1.7,0,0,0,2.2-1.3l2.5.4a2.2,2.2,0,0,0,0,2.2l-2.9.8a1.6,1.6,0,0,0-1.3-1.9c-11-2.8-22.1-4.9-33.3-6.8l14.9,2.2C353.9,331.1,359.9,332.5,365.9,334.1Zm-53-1.3c10.7,1.3,21.4,2.8,32,4.3l15,2.1a2.4,2.4,0,0,0,0,1.2l-2.3-.3-4-1.1a1.7,1.7,0,0,0-1.9.7c-2.7-.2-5.4-.5-8-.9-4.4-.7-8.9-.7-13.2-1.6s-8.5-2.4-12.8-3-11.4-1.8-17-2.8Zm-1.6-5.2,1.1.2,10.6,2.5-8.3-1.1-2.8-.3A1.6,1.6,0,0,0,311.3,327.6Zm-15.4-14.3c9.2,1.9,18.4,4,27.6,6.1l19.8,4.4c-4.6-.8-9.1-1.5-13.8-2.1L311.8,318c-12.1-2.5-24.1-5.2-36.1-7.9l-3.1-.8C280.4,309.8,288.4,311.8,295.9,313.3Zm.2,13.8-9-1.2c-4.2-.7-8.4-1.5-12.6-2.6a1.9,1.9,0,0,0-.7-1.1l8.9,1.8Zm57.3,23.5c-4.8-.5-9.6-1.8-14.4-2.6s-12.4-1.9-18.6-3.1c7.3,1.2,14.7,2.2,22.1,3.2a67,67,0,0,1,13.9,2.7h.5Zm.6-5.5a1.6,1.6,0,0,0-1.6.7,56.7,56.7,0,0,0-5.7-1c-10.3-1.5-20.6-2.6-30.8-4.5s-19.7-4.4-29.5-6.5l-13.8-3.1,13.8,2c9.4,1.5,18.7,3.7,28.1,4.9,4.8.6,9.3,2.1,14.1,3.1s8.3,1,12.5,1.5,9.1,1.3,13.7,1.8a18.4,18.4,0,0,0,3.3.3,59,59,0,0,0,10.1,3.1,2.3,2.3,0,0,0,2.3-1.4h.4a1.9,1.9,0,0,0,.1,1.8h-.4C365.1,347.7,359.4,346.2,354,345.1Zm19.9,3.7a2.1,2.1,0,0,0-1.5,3.1h-.3a1.9,1.9,0,0,0-.5,2.8,16.4,16.4,0,0,0-3.3,1.4,1.7,1.7,0,0,0-.9,1.8c-.2-.1-.4-.3-.6-.3l-1.5-.6a.3.3,0,0,1,.1-.2c1.5-.2,1.8-2.1.8-3.2h.2c2,1.3,3.9-2,1.9-3.3-.1,0-.2,0-.2-.1h2.5a1.4,1.4,0,0,0,1.2-2.2H373a1.1,1.1,0,0,0,1,.5Zm6.6-.8-.4-.3c3.5-1,7-2.4,10.5-3.1h.4c7-1.1,14-2.8,21-4.5a1.7,1.7,0,0,0,.8,2.1c-4.3,1.1-8.5,2.1-12.9,2.8C393.5,346,387,347.1,380.5,348Zm41.2-20c-5.4,2.2-10.7,4.7-16.2,6.6l-15.8,5.2-5.5,1.8a65.1,65.1,0,0,1-8.8.6,1.8,1.8,0,0,0-1.8,2.2l-1.1.2-.6.2a1.9,1.9,0,0,0-1.2-2.5l-4.5-1.1a26.7,26.7,0,0,0,4,.1h.2a1.6,1.6,0,0,0,1.6-.7l1.1-.3.5-.2a1.9,1.9,0,0,0,1.8.6c2.5-.3,4.6-1.3,7-1.9s5.5-.7,8.3-1.2c5.5-.8,10.5-3.7,15.7-5.4s10.4-2.7,15.5-4.3Z" style="fill:#66c8c7"/><path d="M438.2,310.6a30.2,30.2,0,0,0-7.3-1.9c-3.2-.7-6.5-1.2-9.8-1.8s-5.9-1.1-8.9-1.8-6.2-1.9-9.5-2.5a124,124,0,0,1-18-4.3,94.4,94.4,0,0,0-18.3-3.8c-6.2-.9-12.4-2.1-18.6-3.2a54,54,0,0,0-8-.7c-3.2.1-6.3-.3-9.5-.5l-8.7-.8c-3.2-.3-6.3-.3-9.5-.4s-5.7-1-8.6-1.1a25.9,25.9,0,0,0-8.7,1.7c-6.6,2.1-12.8,4.4-19.8,5.2-3.1.4-6.3.4-9.3,1.2l-4.7,1.2c-1.5.4-3.3,1.4-4.9,1.6a.3.3,0,0,0-.3.3c-1.3.5-3,1.2-2.1,2s1.9.2,2.5.2l2.8.2c2.5.5,4.9,1.4,7.5,1.6s6.7-.7,10,.2,5.8,1.9,8.8,2.4,6.6.8,9.8,1.5,6.2.9,9.4,1.5,6.9,2.1,10.4,3a38,38,0,0,0,7.5,1.3,22.1,22.1,0,0,1,5.1.5c1.6.5,3.2,1.1,4.9,1.5s6.4,1,9.5,1.6,7.1,1.6,10.6,2.4a102.4,102.4,0,0,1,19.5,6.8c2.2,1.1,4.6,2.1,7,1.9s5.9-1.6,8.8-2.5,5.7-2.4,8.8-2.9a46.7,46.7,0,0,0,9.1-2.3c3.3-1.2,6.8-1.8,10.1-3a78.4,78.4,0,0,1,10.6-2.7c2.6-.6,5.2-1.1,7.9-1.5,1.1-.2,3.6-.2,4.1-1.5A.4.4,0,0,0,438.2,310.6Z" style="fill:#66c8c7"/><path d="M322.6,350.8a30.8,30.8,0,0,1-8-1.7l-4.3-1.1a90.4,90.4,0,0,0-13-1.9c-.7,0-.9-.6-1-1v-.2h-.1a.9.9,0,0,1-.3-.7c0-1.6.1-3.3.1-4.9s.1-6.2,0-9.3c-.1-1.6-.2-3.2-.4-4.8s-.4-5-.4-7.6c.2-4.2.9-7,2.1-8.5s3.3-2.1,5.2-2.7l1.5-.5c6.2-2.2,12.7-4.2,18.9-6.2l5.7-1.8,6.1-1.7c2.2-.6,4.5-1.2,6.8-2l1.6-.5a33.7,33.7,0,0,1,6.9-1.9h.6l1.6-.2a21.2,21.2,0,0,1,6.5,1.5l2.7.9a86.5,86.5,0,0,0,14.9,2.2h.3a1.3,1.3,0,0,1,1,.6,1.3,1.3,0,0,1,.1,1.1c-.8,1.9-3.7,2.4-6.1,2.9l-2.1.5a52.8,52.8,0,0,0-8.1,3.3c-2.2,1-4.4,2-6.7,2.8s-5.5,2.1-8.2,3.2l-6.9,2.8a84.7,84.7,0,0,1-8.6,2.5l-3.7.9H327v.3a142,142,0,0,1-1.3,16.5l-.6,5.2a104.3,104.3,0,0,1-1.6,10.8h0v.2a1,1,0,0,1-.2.9l-.7.2Z" style="fill:#333031"/><path d="M352.2,291.9a21.3,21.3,0,0,1,6.4,1.5l2.7.9a78.5,78.5,0,0,0,15,2.1h.3a1.3,1.3,0,0,1,.7.4.9.9,0,0,1,0,.7c-.7,1.7-3.5,2.3-5.7,2.7l-2.2.5a66.8,66.8,0,0,0-8.2,3.3c-2.1,1-4.4,2-6.6,2.8s-5.6,2.2-8.2,3.3l-6.9,2.7a65,65,0,0,1-8.6,2.5l-3.7,1h-.5v.6a123,123,0,0,1-1.3,16.5l-.6,5.1c-.4,3.6-.8,7.3-1.5,10.8h0v.2h0a.6.6,0,0,1-.1.6c0,.1-.1.2-.4.2h0a37.2,37.2,0,0,1-7.9-1.7c-1.4-.4-2.8-.9-4.3-1.2a92.5,92.5,0,0,0-13-1.9.7.7,0,0,1-.7-.7v-.3l-.2-.2a.5.5,0,0,1-.2-.4c0-1.6.1-3.3.1-4.9s.1-6.2,0-9.3c-.1-1.6-.3-3.2-.4-4.8a63.4,63.4,0,0,1-.4-7.6c.2-4.1.8-6.8,2-8.3s3.2-2,5.1-2.5l1.4-.5c6.2-2.2,12.7-4.3,18.9-6.2l5.7-1.8,6.1-1.7,6.8-2,1.7-.6a31.6,31.6,0,0,1,6.7-1.8h.7l1.5-.2h0m0-.7h-2.3a44.4,44.4,0,0,0-8.6,2.5c-4.2,1.3-8.6,2.3-12.8,3.7-8.2,2.6-16.5,5.1-24.6,8-2.2.7-5.4,1.4-6.9,3.3s-2,6.1-2.1,8.7c-.2,4.2.5,8.3.7,12.4s0,9.5,0,14.2a1.7,1.7,0,0,0,.3,1,1.5,1.5,0,0,0,1.4,1.4,81.3,81.3,0,0,1,13,1.8c4.1,1,8,2.7,12.2,2.9h.1a1.3,1.3,0,0,0,1.3-1.6h0c1.1-5.2,1.5-10.7,2.2-15.9a154.6,154.6,0,0,0,1.3-16.6c4.1-1.1,8.3-2,12.3-3.4s10-4.3,15.1-6.1,9.6-4.5,14.8-6.1c2.4-.7,7.2-.9,8.4-3.6a1.5,1.5,0,0,0-1.4-2.1h-.3c-4.8-.4-10.1-.8-14.8-2.1-2.9-.9-6.2-2.4-9.3-2.4Z" style="fill:#fff"/><path d="M375.8,207.1a28.3,28.3,0,0,0-4.1.3l4.6-1.3c2.3-.7,1.3-4.3-1-3.7-21.2,6.2-43.2,10.2-63.9,17.9h-1a1.8,1.8,0,0,0-1.8-1.7c-3.9-.4-7.5-2.8-11.2-4s-9.4-2.3-14.1-3.4l-27.7-6.2c-9.2-2.1-18.4-4.2-27.6-6s-17.9-3.9-26.8-3.6a1.8,1.8,0,0,0-1.1.4,2.1,2.1,0,0,0-1.7-1.4c-1.5-.1-2.8-.7-4.3-.9h-4.2a1.9,1.9,0,0,0-1.9,2c-1.6.4-2.1,3.2-.1,3.6l1.4.3c-1.4.5-2,2.6-.4,3.3l3,1.2h-.1a1.5,1.5,0,0,0-1.7,1h-1.2c-2.4-.1-2.4,3.7,0,3.8h.6a1.7,1.7,0,0,0,.4,1.8h-.6c-1.8-.3-2.6,2.5-.8,2.7h.3a2,2,0,0,0,1.5.9h.6l-.2.3-2.7-.4c-2.2-.2-2.4,2.7-.8,3.6a1.9,1.9,0,0,0,1.2,2.5l2.4.8c.1.1.1.2.2.2l.3.2.3.3a1.9,1.9,0,0,0,.2,3.8,86.4,86.4,0,0,1,19.6,2l3.5,1a54.1,54.1,0,0,0,5.8,1.2c9.1,2.5,18.2,5.4,27.3,7.5l1.7.3c7.7,1.8,15.6,2.9,23.3,4.3s14.8,4.8,22.4,5.8c1.8.9,3.4,2.1,5.3,2.6a1.2,1.2,0,0,0,1.7-1.4,1.7,1.7,0,0,0,2.4.5c2.3-1.2,5.7-1.6,8.2-2.2s7.1-1.5,10.6-2.4c5.5-1.3,11.2-2.1,16.8-3.7,3-.9,5.8-2.5,8.9-3.4s6.6-1.7,10-2.5,8.9-1.7,12.7-4l3.9-.7c1.8-.4,1.1-3.1-.7-2.8h-.4l-.5-.6a8.3,8.3,0,0,0,1.5-1.1,1.4,1.4,0,0,0-1.2-2.4,1.4,1.4,0,0,0,.1-1.6l.9-.5a1.4,1.4,0,0,0-.2-2.5l.3-.2c1.8-1.8-.9-4.4-2.7-2.7-3.7,3.7-10.8,4.9-15.7,6.5l-7.5,2.1,6.6-2.8h.1a.8.8,0,0,0,.8.2c6.6-.2,12-6.2,18.2-7.8a1.4,1.4,0,0,0-.8-2.7l-1.2.3a1.2,1.2,0,0,0,.8-1.1h1.5C378.2,210.9,378.2,207.1,375.8,207.1ZM333.7,221a43.7,43.7,0,0,1-9.1,2.9l-1.5.2Zm-39.1-3.3-1.7-.3-3.1-.9Zm5.9,6.4a1.8,1.8,0,0,0,2.3-1.3l2.4.4a2.2,2.2,0,0,0,.1,2.2l-2.9.8a1.8,1.8,0,0,0-1.3-2c-11-2.7-22.1-4.8-33.3-6.8l14.8,2.2C288.6,221,294.6,222.5,300.5,224.1Zm-52.9-1.4,32,4.3,14.9,2.2a1.4,1.4,0,0,0,.1,1.1l-2.4-.2c-1.3-.4-2.6-.9-3.9-1.2a1.9,1.9,0,0,0-1.9.7,69.9,69.9,0,0,1-8-.9c-4.4-.6-8.9-.7-13.3-1.5s-8.4-2.5-12.7-3.1c-5.8-.8-11.4-1.8-17.1-2.8Zm-1.6-5.1h1l10.7,2.6-8.3-1.1-2.8-.4A2,2,0,0,0,246,217.6Zm-15.4-14.3c9.2,1.9,18.4,4,27.6,6l19.8,4.5-13.8-2.2L246.5,208c-12.1-2.5-24.1-5.2-36.2-7.9l-3-.9C215.1,199.8,223.1,201.8,230.6,203.3Zm.1,13.7c-3-.3-5.9-.7-8.9-1.2a90.9,90.9,0,0,1-12.6-2.6,2.3,2.3,0,0,0-.7-1l8.9,1.8C221.8,215,226.3,215.9,230.7,217ZM288,240.6c-4.8-.6-9.6-1.8-14.3-2.7s-12.5-1.9-18.7-3c7.4,1.2,14.8,2.2,22.2,3.1a80.2,80.2,0,0,1,13.8,2.7l.5.2C290.4,240.7,289.2,240.7,288,240.6Zm.6-5.5a1.3,1.3,0,0,0-1.5.7l-5.8-1.1c-10.2-1.5-20.5-2.6-30.8-4.4s-19.6-4.4-29.5-6.6c-4.5-1-9.1-2.1-13.7-3,4.6.7,9.3,1.2,13.8,2,9.4,1.5,18.6,3.6,28,4.8,4.9.6,9.4,2.2,14.2,3.2s8.3,1,12.5,1.5,9.1,1.3,13.7,1.8l3.3.3a51,51,0,0,0,10.1,3,2,2,0,0,0,2.2-1.3h.4a2.2,2.2,0,0,0,.2,1.8h-.4C299.8,237.7,294.1,236.1,288.6,235.1Zm20,3.7a2.1,2.1,0,0,0-1.5,3.1h-.3a1.9,1.9,0,0,0-.6,2.7,19.6,19.6,0,0,0-3.3,1.5,1.7,1.7,0,0,0-.9,1.8.9.9,0,0,0-.6-.4,4.2,4.2,0,0,1-1.4-.6v-.2c1.5-.1,1.8-2.1.9-3.1a.1.1,0,0,1,.1.1,1.9,1.9,0,0,0,1.9-3.3h2.4a1.4,1.4,0,0,0,1.2-2.2h1.2a1.1,1.1,0,0,0,.9.5Zm6.5-.8-.4-.4c3.6-1,7.1-2.3,10.6-3h.4c7-1.1,14-2.8,20.9-4.5a1.9,1.9,0,0,0,.8,2.1c-4.2,1.1-8.4,2.1-12.8,2.8Zm41.2-20c-5.4,2.2-10.6,4.6-16.2,6.5l-15.8,5.2-5.5,1.9c-2.9.3-5.8.5-8.8.6a1.9,1.9,0,0,0-1.8,2.2l-1,.2h-.7a1.7,1.7,0,0,0-1.2-2.4,31.5,31.5,0,0,0-4.4-1.1,17,17,0,0,0,3.9,0h.2a1.7,1.7,0,0,0,1.7-.7l1.1-.2.5-.2a2.1,2.1,0,0,0,1.8.6c2.4-.3,4.6-1.4,6.9-2s5.6-.7,8.4-1.1c5.5-.9,10.4-3.7,15.7-5.4s10.4-2.7,15.5-4.3Z" style="fill:#66c8c7"/><path d="M372.9,200.6a30.2,30.2,0,0,0-7.3-1.9l-9.9-1.8c-2.9-.5-5.9-1.1-8.8-1.8s-6.3-1.9-9.5-2.5a125.3,125.3,0,0,1-18.1-4.3c-6-2.1-11.9-3-18.2-3.9s-12.4-2.1-18.6-3.1a45,45,0,0,0-6.3-.7,12.6,12.6,0,0,1,3.6,1.9,12.4,12.4,0,0,1,4.9,9c.2,5.9-5.1,8-10.1,8.3a49.9,49.9,0,0,1-19.9-3.3c-6.1-2.3-11.5-5.4-18.1-6.6a39.9,39.9,0,0,1-8.4-2.2l-4.8-2.3c-2.8-.4-5.5-1.2-8.3-1.7l-5.4,1a75.2,75.2,0,0,0-9.4,1.1l-4.6,1.3c-1.6.4-3.3,1.4-4.9,1.6s-.3.1-.4.3-2.9,1.1-2.1,1.9,1.9.2,2.6.2l2.8.2c2.5.5,4.9,1.4,7.5,1.6s6.7-.7,9.9.2,5.8,2,8.9,2.5,6.6.8,9.7,1.5,6.3.8,9.4,1.4,7,2.2,10.5,3.1a45.8,45.8,0,0,0,7.4,1.3,22.9,22.9,0,0,1,5.2.5c1.6.4,3.2,1.1,4.9,1.5s6.3,1,9.5,1.6,7,1.6,10.6,2.4a87.6,87.6,0,0,1,19.4,6.8c2.2,1,4.6,2,7.1,1.9s5.9-1.7,8.7-2.6,5.7-2.4,8.9-2.8a48.9,48.9,0,0,0,9.1-2.4c3.3-1.1,6.8-1.8,10.1-2.9a77.4,77.4,0,0,1,10.5-2.8c2.7-.5,5.3-1.1,8-1.4,1.1-.2,3.5-.3,4-1.5S373.1,200.7,372.9,200.6Z" style="fill:#66c8c7"/><path d="M257.2,240.8a41.1,41.1,0,0,1-7.9-1.7l-1.9-.6-2.4-.6a87.2,87.2,0,0,0-9.8-1.6l-3.2-.2h-.4c-.5-.3-.6-.3-.9-.7a3.8,3.8,0,0,1-.1-1v-.2c0-1.5,0-3,.1-4.5v-.8c0-2.7.1-5.9-.1-8.9s-.2-3.2-.3-4.8a64.5,64.5,0,0,1-.4-7.6c.2-4.2.8-7.1,2-8.6s3.4-2,5.3-2.6l1.5-.5,7.3-2.5,2.8,1.2,5.8,2.4a51.4,51.4,0,0,0,17.7,3.4h2.3c3.2-.2,10.7-1.5,10.4-8.7a12.3,12.3,0,0,0-4.5-8.9,22.6,22.6,0,0,1,4.1-.9h.6l1.7-.2a22.6,22.6,0,0,1,6.5,1.5l2.7.9A77.5,77.5,0,0,0,311,186h.3a1.1,1.1,0,0,1,.9.6.9.9,0,0,1,.1,1c-.8,1.9-3.7,2.5-6,2.9l-2.2.5a72.2,72.2,0,0,0-8.1,3.3,65.4,65.4,0,0,1-6.6,2.8c-2.8,1-5.6,2.2-8.2,3.3l-6.9,2.8c-2.8,1-5.8,1.7-8.6,2.4l-3.7,1h-.3v.3a142,142,0,0,1-1.3,16.5l-.6,5.1c-.5,3.6-.9,7.3-1.6,10.8h0c0,.4,0,.7-.2.9a.9.9,0,0,1-.7.3Z" style="fill:#333031"/><path d="M286.9,181.9a18.6,18.6,0,0,1,6.4,1.5l2.7.8a70.6,70.6,0,0,0,15,2.2h.3a.6.6,0,0,1,.6.4.6.6,0,0,1,.1.7c-.7,1.7-3.5,2.2-5.8,2.7l-2.2.5a57.3,57.3,0,0,0-8.1,3.3c-2.2,1-4.4,2-6.7,2.8L281,200c-2.2,1-4.6,2-6.9,2.8a82.9,82.9,0,0,1-8.5,2.5l-3.7.9-.6.2v.5a140.3,140.3,0,0,1-1.3,16.5l-.6,5.2c-.4,3.5-.9,7.2-1.6,10.7h0v.2a1.3,1.3,0,0,1-.1.6h-.5a31.2,31.2,0,0,1-7.8-1.7l-1.9-.5-2.4-.7a93.7,93.7,0,0,0-9.9-1.5l-3.2-.3h-.3c-.4-.2-.5-.2-.7-.5v-6.3c.1-2.7.1-5.9,0-8.9s-.2-3.3-.3-4.8a48.4,48.4,0,0,1-.4-7.6c.1-4.1.8-6.9,1.9-8.3s3.2-2,5.1-2.6l1.5-.5,7.2-2.4,2.6,1.1a60.7,60.7,0,0,0,5.9,2.4,52.1,52.1,0,0,0,17.8,3.5h2.3c7.1-.5,11-3.8,10.8-9.1a12.7,12.7,0,0,0-4.1-8.7l3.4-.8h2.2m0-.8-1.7.2h-.6a27,27,0,0,0-4.9,1.2h.1a12.4,12.4,0,0,1,4.9,9c.2,5.9-5.1,8-10.1,8.3h-2.3a50.1,50.1,0,0,1-17.6-3.4c-3-1.1-5.8-2.4-8.7-3.6l-7.5,2.5c-2.1.8-5.3,1.4-6.8,3.3s-2.1,6.1-2.2,8.7c-.1,4.3.6,8.3.8,12.5s0,5.9,0,8.9-.1,3.5-.1,5.3h0a6.2,6.2,0,0,0,.1,1.3,1.9,1.9,0,0,0,1.1.9h.6l3.1.3a74.2,74.2,0,0,1,9.8,1.6l2.4.6h0c3.2.9,6.5,2.1,9.9,2.3h.1a1.2,1.2,0,0,0,1.2-1.6h.1c1-5.2,1.4-10.7,2.2-16a150.8,150.8,0,0,0,1.3-16.5c4-1.2,8.3-2,12.3-3.5s10-4.2,15.1-6,9.6-4.5,14.7-6.1c2.5-.7,7.3-.9,8.5-3.6a1.6,1.6,0,0,0-1.4-2.2H311a82.6,82.6,0,0,1-14.8-2.2c-2.9-.8-6.2-2.4-9.3-2.4Z" style="fill:#fff"/></svg>