<svg xmlns="http://www.w3.org/2000/svg" viewBox="0 0 360 360"><title>illustr--Artboard 2</title><path d="M265.9,91.1c-1.3-.7-2.6-1.1-6.2-1.1H100.3c-3.6,0-4.9.4-6.2,1.1a7.2,7.2,0,0,0-3,3c-.7,1.3-1.1,2.6-1.1,6.2V259.7c0,3.6.4,4.9,1.1,6.2a7.2,7.2,0,0,0,3,3c1.3.7,2.6,1.1,6.2,1.1H259.7c3.6,0,4.9-.4,6.2-1.1a7.2,7.2,0,0,0,3-3c.7-1.3,1.1-2.6,1.1-6.2V100.3c0-3.6-.4-4.9-1.1-6.2A7.2,7.2,0,0,0,265.9,91.1ZM269,259.7c0,3.7-.4,4.7-1,5.7a5.5,5.5,0,0,1-2.6,2.6c-1,.6-2,1-5.7,1H100.3c-3.7,0-4.7-.4-5.7-1a5.5,5.5,0,0,1-2.6-2.6c-.6-1-1-2-1-5.7V100.3c0-3.7.4-4.7,1-5.7A5.5,5.5,0,0,1,94.6,92c1-.6,2-1,5.7-1H259.7c3.7,0,4.7.4,5.7,1a5.5,5.5,0,0,1,2.6,2.6c.6,1,1,2,1,5.7Z" style="fill:#afadad"/><path d="M229.9,95.9V80.3h0a32.1,32.1,0,0,0-.6-5,10.8,10.8,0,0,0-1.6-4.2c-1.3-2-3.8-3.9-6.3-4H170.5l-3.6.9a8.9,8.9,0,0,0-1.9,1l-1.4,1.3a8.6,8.6,0,0,1-.7,1,25.5,25.5,0,0,0-1,2.5c-.4,1.4-.4,6.6-.4,7.8h0v2.7a.2.2,0,0,1-.2.2h-.2a.2.2,0,0,0-.2.2v4.7l.2.2h.2c.1,0,.2.1.2.3v6.5l-.2.2h0a.2.2,0,0,0-.2.2v10.4a.2.2,0,0,0,.2.2h0l.2.2v2.1h.1a27.9,27.9,0,0,1,2.1,8.5,33.6,33.6,0,0,1-.4,8.4c-.5,3.1-.8,6.2-1.1,9.4l-.6,4.1h-.1v55.4c.1,0,.1,3.3.4,4.6a25.7,25.7,0,0,0,1.9,5.5,8.8,8.8,0,0,0,6.2,4h49.9a12.4,12.4,0,0,0,4.8-.9h.1a4.6,4.6,0,0,0,1.6-1.1,5.7,5.7,0,0,0,1.4-1.3l.7-.9.3-.7.4-.8v-.2a5.5,5.5,0,0,1-.6-2.7,15.1,15.1,0,0,1,1.3-6.3h0v-2.8c-1.5-.9-2.7-3.9-3-4.9a10.9,10.9,0,0,1,.3-6.2c.7-2.2,2-4.1,2.8-6.3h0v-5.5c0-.2-.1-.2-.2-.3a1.8,1.8,0,0,1-.9-.4,9.6,9.6,0,0,1-3.9-5.8,12,12,0,0,1,1.7-8,31.4,31.4,0,0,0,2.5-4.4c.8-1.8.4-3.7.7-5.6,0-.3,0-.4.1-.5h0V107.2a.2.2,0,0,1,.2-.2h.1c.1,0,.2-.1.2-.3V96.4c0-.2-.1-.3-.2-.3h-.1Z" style="fill:#66c8c7"/><circle cx="195.7" cy="203.1" r="3.5" style="fill:#fff"/><path d="M234.5,207.2a7.6,7.6,0,0,1-4.5-1.5h-.1a8.1,8.1,0,0,1-1.7-4.5,21.1,21.1,0,0,1,1.9-8.4l.2-.4h.4l1.5.3h2.1c.1,0,.2,0,.2-.1h2l.5-.2h.1l.3-.2h.5l.2-.2.2-.2h.2l.2-.2.4-.3.3-.3.4-.3.3-.3h.1l.3-.4.4-.3.3-.3.3-.4.3-.3.4-.5.3-.4.3-.3.2-.3.6-.7v-.2a2.1,2.1,0,0,0,.4-.6v-.2a2.1,2.1,0,0,0,.4-.6h.1a32.4,32.4,0,0,0,2.2-4l.7-1.6.2,1.7c.1.5.1,1,.2,1.5l.3,1.7a28.4,28.4,0,0,1-1.3,13c-1.2,3.4-3.5,7.9-7.4,10.3a9.9,9.9,0,0,1-5.1,1.6Z" style="fill:#333031"/><path d="M247.3,179.2a30.6,30.6,0,0,1,.5,3.2,26.1,26.1,0,0,1-1.3,12.7c-1.3,3.8-3.6,8-7.1,10.1a9.3,9.3,0,0,1-4.9,1.5,7.1,7.1,0,0,1-4.2-1.4,8.4,8.4,0,0,1-1.6-4.4,20.8,20.8,0,0,1,1.8-8.1,5.1,5.1,0,0,0,1.7.3h2.3c0-.1.1-.1.2-.1h1.1a.1.1,0,0,1,.1-.1l.3-.2h.2l.3-.2c.1,0,.1,0,.1-.1l.4-.2h.1l.3-.2h.4l.2-.2h.2l.2-.2h.2l.2-.2.2-.2h.2l.2-.2h.2l.2-.2h.1l.4-.3h0l.4-.3h.1l.2-.3h.1l.2-.2.2-.2.2-.2h.1l.2-.2V187l.2-.2h.1l.2-.2h.1l.2-.3h.1l.2-.3.6-.8h.1l.4-.6V184l.5-.6v-.2a19.4,19.4,0,0,0,2.2-4m.5-3.6-1.4,3.2a18.6,18.6,0,0,1-2.1,3.9h-.1a2.1,2.1,0,0,1-.4.6h-.1a2.1,2.1,0,0,1-.4.6h-.1l-.5.7-.3.3h-.1l-.2.2H242v.2h-.1l-.2.2h-.1l-.2.2-.2.2v.2h-.2a.2.2,0,0,1-.2.2h-.1l-.2.2h-.1l-.4.3h0l-.3.3h-.1l-.3.3H239l-.2.2h-.2l-.2.2h-.2l-.2.2h-.9l-.3.2h-.1l-.4.2h0l-.4.2h-3.7l-1.3-.2-.9-.3-.4.8c-.9,2.6-2,5.5-1.9,8.6a9.2,9.2,0,0,0,1.8,4.8h.2a7.4,7.4,0,0,0,4.8,1.7,10.9,10.9,0,0,0,5.4-1.6c2.2-1.4,5.3-4.4,7.5-10.7a27.8,27.8,0,0,0,1.4-13.2l-.3-1.7a7.8,7.8,0,0,1-.2-1.4l-.5-3.5Z" style="fill:#fff"/><path d="M230.4,121.4l.6.2,3.5,1.2,1.2.5,1.3.4c3.3,1.2,7.2,2.5,7.8,6.6a9.3,9.3,0,0,1-1.3,6.6h-.1a12.6,12.6,0,0,1-4.4,2.8h-.4a21.4,21.4,0,0,0-3.4.9l-.7.2-3.5.9h-.6Z" style="fill:#333031"/><path d="M230.9,122.1l4.6,1.6c3.6,1.3,8.2,2.3,8.8,6.7a8.5,8.5,0,0,1-1.2,6.2,10.8,10.8,0,0,1-4.3,2.7h-.3a22.1,22.1,0,0,0-4.2,1.2l-3.4.8V122.1m-1-1.3v21.8l1.2-.2,3.5-.9.7-.2a21.9,21.9,0,0,1,3.4-1h.5a11.7,11.7,0,0,0,4.6-2.9h.1a9.8,9.8,0,0,0,1.4-7c-.7-4.4-4.8-5.8-8.2-6.9l-1.2-.5-1.3-.4-3.4-1.3-1.3-.3Z" style="fill:#fff"/><path d="M231.7,192.6a5.7,5.7,0,0,1-4.3-2,10.3,10.3,0,0,1-1.8-7.8,22.4,22.4,0,0,1,1.6-5,11.7,11.7,0,0,0,.5-1.1c.9-2.3,1.7-4.4,2.5-6.7v-.4h.5l1.6.3h.3v0h2.6c2.6-1.1,4.3-3.7,5.4-5.9l.6-1.1v-.2a3.6,3.6,0,0,1,.4-.9l.4-.9.5-1.2.4-.8.5.8a5.3,5.3,0,0,0,1.2,1.5,7.5,7.5,0,0,1,1.2,1.4,13,13,0,0,1,2.3,9.6,19.8,19.8,0,0,1-.6,2.6l-.2.6h-.2a21.4,21.4,0,0,1-2.2,5.9,15.9,15.9,0,0,1-1.3,2.2l-.4-.2.4.3-.7.9v.2l-.7.9h0a2.1,2.1,0,0,0-.4.6c-3.6,4.4-6.9,6.6-10.1,6.7Z" style="fill:#333031"/><path d="M243.2,159.5c.5,1,1.9,2.1,2.4,2.9a13,13,0,0,1,2.2,9.4,17.4,17.4,0,0,1-.7,2.9c-.1,0-.2.1-.2.3a23.9,23.9,0,0,1-2.2,5.8h0l-1.3,2.1h0a3.6,3.6,0,0,0-.7,1h-.1l-.7.9h0l-.4.6c-2.3,2.8-5.8,6.4-9.7,6.5h-.1c-4.6,0-6.3-5.5-5.7-9.2a30.4,30.4,0,0,1,2.1-6c.9-2.3,1.8-4.5,2.5-6.7l1.7.2h2.8l.4-.2c2.7-1.1,4.4-3.6,5.7-6.1l.5-1.1v-.2l.4-.9h0a20,20,0,0,1,1-2.1m-.2-2-.7,1.6a6.1,6.1,0,0,0-.5,1.2l-.5.9a3.6,3.6,0,0,1-.4.9h-.1a3.1,3.1,0,0,1-.5,1c-2.1,4.1-3.9,5.2-5.2,5.7h-2.7a8,8,0,0,1-1.5-.3l-.9-.2-.3.9c-.7,2.2-1.6,4.4-2.5,6.6a6.1,6.1,0,0,1-.5,1.2,26.6,26.6,0,0,0-1.6,5,10.5,10.5,0,0,0,2,8.2,6,6,0,0,0,4.6,2.2h.1c3.3-.1,6.7-2.3,10.4-6.9l.5-.6.7-1h.1l.7-1h0l1.3-2.2a25.6,25.6,0,0,0,2.3-5.9h.1v-.7a13.4,13.4,0,0,0,.7-2.7,14,14,0,0,0-2.4-10,7.5,7.5,0,0,0-1.2-1.4A5.3,5.3,0,0,1,244,159l-1-1.5Z" style="fill:#fff"/><path d="M233.7,169.9a8.7,8.7,0,0,1-3.1-.7l-1.8-1-.8-.7a9.5,9.5,0,0,1-3-4.9.6.6,0,0,0-.1-.4v-.4h0V159c.1,0,.1-.4.1-.4v-.3a2.3,2.3,0,0,1,.1-.4v-.3a2.3,2.3,0,0,0,.1-.4v-.8a12362528204867.1,12362528204867.1,0,0,1,.2-.6c.7-2,2.7-6.9,2.9-7.4a11.3,11.3,0,0,0,.8-2.4,3.6,3.6,0,0,1,.4-1.1,17.2,17.2,0,0,0,.5-2.6V142h.3l2.6-.7.8-.3,3.8-1h.3l1-.2h.6c2.4,1.1,4.5,4.5,5.3,6.5s1,5.9.1,9.1l-.3,1a5.8,5.8,0,0,0-.5,1.4h0a27.2,27.2,0,0,0-1.1,2.5l-.9,2v.2l-.2.3-.2.4v.2l-.3.6v.2l-.2.4v.2l-.3.5h-.1l-.4.5v.2l-.3.4h-.1l-.5.5v.2l-.4.3v.2l-.5.5H238a6.6,6.6,0,0,1-4.3,1.5Z" style="fill:#333031"/><path d="M239.6,140.2c2.2.9,4.3,4.2,5.1,6.2s1,5.6,0,8.8c-.2.7-.5,1.6-.7,2.4l-2.1,4.5v.5l-.2.3v.3l-.3.5a.3.3,0,0,1-.1.2l-.2.4v.2l-.3.5h-.1l-.4.5v.2l-.3.4h-.1l-.4.5h-.1l-.4.4h-.1c-.2.2-.4.3-.5.5h-.2a6.7,6.7,0,0,1-4,1.4,7.2,7.2,0,0,1-2.9-.6h0a9.5,9.5,0,0,1-1.7-1h0l-.7-.6a9.3,9.3,0,0,1-2.9-4.7c0-.1-.1-.2-.1-.4V160h0v-.3h0v-1h.1v-.3h0c0-.1.1-.2.1-.3h0v-.2h0c0-.1.1-.2.1-.3h0v-.3h0c0-.1.1-.2.1-.4h0V156c.6-2,2.7-6.9,2.9-7.4a21.5,21.5,0,0,0,1.1-3.6,12.2,12.2,0,0,0,.6-2.6l2.6-.7a38.1,38.1,0,0,1,4.5-1.3h1.7m.1-1h-.6l-1,.2h-.3l-3.8,1.1-.9.3-2.5.6h-.7v.7a13.7,13.7,0,0,1-.5,2.5l-.3,1.1a16.9,16.9,0,0,1-.8,2.4c-.2.5-2.3,5.4-2.9,7.5-.1,0-.1.1-.1.2h0a.4.4,0,0,0-.1.3h0c-.1.1-.1.2-.1.4h-.1v.3h-.1v.3h-.1v.3h0a.4.4,0,0,0-.1.3h0v.3h0v.3h-.1v.3h0v.2h0v.2c-.1,0-.1.1-.1.2h0v.4h0v.2h0v.3h0a.8.8,0,0,0,.1.4v.4a10,10,0,0,0,3.2,5.2l.8.6a5.2,5.2,0,0,0,1.9,1.1h0a9.8,9.8,0,0,0,3.3.7,7.6,7.6,0,0,0,4.6-1.6h.2l.5-.5h.2l.4-.4h.1l.5-.6h.1l.3-.4h0a.1.1,0,0,0,.1-.1,2.1,2.1,0,0,0,.4-.6h.1l.3-.5v-.2l.3-.4h0a.1.1,0,0,1,.1-.1l.3-.6v-.2h0l.2-.4c0-.1.1-.2.1-.3v-.2h0l.9-2a27.2,27.2,0,0,0,1.1-2.5h.1a12.1,12.1,0,0,1,.5-1.4l.3-1a13.8,13.8,0,0,0-.1-9.4c-.9-2.1-3.1-5.6-5.6-6.7Z" style="fill:#fff"/><path d="M153.2,305a71.7,71.7,0,0,1-52-22.2l-.2-.2a4.2,4.2,0,0,0,.2-.6c.9-2.5,5.6-11.9,7.9-16.4a20.7,20.7,0,0,0,1.1-2.2c1.6-3.2,13.6-25.1,14.3-26.2,1.7-3.8,3.8-8.2,5.4-12.8a7.5,7.5,0,0,0,.5-1.6c1.4-3.8,2.6-7.1,2.4-11.5a99,99,0,0,0-1-10.7l-.3-3a27.4,27.4,0,0,0-.5-2.8c-.2-1.2-.5-2.5-.6-3.8v-2.9a25.4,25.4,0,0,0,0-3.9l-.6-3.5c-.5-3.5-1.1-7-.6-10.4s2.3-8.3,3.8-12.1a5,5,0,0,0,.5-1.3l1.8-4c1.5-3,3-6.2,3.2-9.6a29.7,29.7,0,0,1,2.7-10.3c1.6-3.7,3.5-8.1,4.2-12.3a29.2,29.2,0,0,0,.4-5.1,27.6,27.6,0,0,1,.8-6.9c.8-2.6,1.4-4.9,4.8-5.2H153a6.6,6.6,0,0,1,4.2,1.2,17.8,17.8,0,0,1,4.4,5h0v.3a26.1,26.1,0,0,1,2.2,8.5c.1,1.4.1,2.8.1,4.1l-.3,2.9-.3,2.4q-.6,3.8-.9,7.5v1c-.1,1.2-.4,2.4-.6,3.6V155c-.1.8,0,4.8,0,5.8h0V196h0c.1.1.1.2.1.4a18,18,0,0,0,.3,4v.2a20.3,20.3,0,0,0,1.8,5.2c1.1,1.7,3.4,3.7,5.9,3.8h49.9a13.1,13.1,0,0,0,4.4-.8l1.9-1-1.3,1.7c-1.6,2-3.1,4.2-4.6,6.3-3.3,4.6-6.7,9.3-11,13.3l-5.4,5.2-4.5,4.3a56.2,56.2,0,0,1-5.3,4.4,36.9,36.9,0,0,0-7,6l-.7.8-4.4,12.4c-8,22.7-12.4,35.1-12.7,35.6a18.2,18.2,0,0,0-1.5,2.7,19.4,19.4,0,0,0-1.3,3v.2h-.2A76.9,76.9,0,0,1,153.2,305Z" style="fill:#333031"/><path d="M153,104a6.1,6.1,0,0,1,3.9,1.1,16.9,16.9,0,0,1,4.3,4.9v.2h0a31.3,31.3,0,0,1,2.2,8.5v4l-.6,5.2c-.5,2.8-.7,5.7-1,8.6-.1,1.3-.4,2.7-.6,4.1h0v14.1c0,.1-.1.1-.1.2a58.5,58.5,0,0,0,.1,6.2V196a31.5,31.5,0,0,0,.3,4.6c.1.4,1,4.1,1.9,5.4a8.6,8.6,0,0,0,6.3,4.1h49.9a13.1,13.1,0,0,0,4.6-.9c-5.1,6.6-9.4,13.8-15.5,19.5-3.4,3.1-6.6,6.4-9.9,9.6s-9,6.3-12.4,10.3l-.7,1c-.4.8-16.7,47.2-17.2,48l-1.5,2.7a18.8,18.8,0,0,0-1.2,3,76.6,76.6,0,0,1-12.6,1.1,70.8,70.8,0,0,1-51.6-22c0-.1,0-.3.1-.3,1.1-3.2,8.2-17,9-18.6,1.5-3.2,13.7-25.4,14.2-26.2a128.9,128.9,0,0,0,5.4-12.8c1.7-4.7,3.2-8.2,3-13.3a131.7,131.7,0,0,0-1.4-13.8c-.2-2.1-.9-4.3-1-6.5s.2-4.5-.1-6.8c-.5-4.4-1.7-9.4-1.1-13.8s2.6-9.2,4.3-13.3,4.7-8.9,5-13.7a27.9,27.9,0,0,1,2.6-10.2,50.7,50.7,0,0,0,4.3-12.4c.7-4,0-8,1.2-12s1.3-4.5,4.4-4.8H153m0-1h-1.6c-3.8.3-4.5,2.8-5.3,5.4a29.2,29.2,0,0,0-.8,7.1,40.7,40.7,0,0,1-.3,5,55.1,55.1,0,0,1-4.3,12.2,30.7,30.7,0,0,0-2.7,10.5c-.2,3.3-1.7,6.4-3.1,9.4-.6,1.3-1.3,2.7-1.8,4l-.6,1.4c-1.5,3.8-3.2,8.1-3.8,12.2s.1,7,.7,10.5c.2,1.2.3,2.3.5,3.5s.1,2.4.1,3.8a14,14,0,0,0,0,2.9,23,23,0,0,0,.5,3.9c.2,1,.4,1.9.5,2.8l.3,3c.5,3.5.9,7.2,1.1,10.7s-1,7.4-2.4,11.3l-.6,1.6a125.5,125.5,0,0,1-5.4,12.6c-.8,1.5-12.7,23.1-14.2,26.3a21.1,21.1,0,0,0-1.1,2.2c-2.3,4.5-7,13.9-8,16.4v.2h-.1l-.2.6.4.4a72,72,0,0,0,24.1,16.7,74.1,74.1,0,0,0,28.3,5.7,75.9,75.9,0,0,0,12.7-1.1h.6l.2-.6a13.9,13.9,0,0,1,1.2-2.8c.5-.9.9-1.8,1.5-2.7s3.3-8.8,12.8-35.7c2.2-6.2,4-11.5,4.4-12.4s.3-.5.6-.7a43.6,43.6,0,0,1,6.8-6,45.3,45.3,0,0,0,5.5-4.3l4.5-4.4c1.7-1.7,3.5-3.5,5.4-5.2a82.5,82.5,0,0,0,11-13.4c1.5-2,3-4.2,4.6-6.2l2.6-3.4-3.8,2a12,12,0,0,1-4.2.7H169.7a7.4,7.4,0,0,1-5.5-3.6,19.9,19.9,0,0,1-1.7-5.1h-.1c-.2-.8-.2-3.2-.3-3.9V196h0V160.5h0c0-1.3-.1-4.8,0-5.5h0V140.2l.6-3.6v-1.1c.2-2.5.5-5,.9-7.4h0a16.4,16.4,0,0,1,.2-2.3c.1-1,.3-1.9.4-2.9h0c0-1.4,0-2.8-.1-4.2a26,26,0,0,0-2.2-8.6h0v-.5a17.5,17.5,0,0,0-4.5-5.2A7.1,7.1,0,0,0,153,103Z" style="fill:#fff"/><line x1="196" y1="134.1" x2="196" y2="130.2" style="fill:none;stroke:#fff;stroke-linecap:round;stroke-miterlimit:10;stroke-width:8.62260056781861px"/><line x1="196" y1="144.2" x2="196" y2="140.3" style="fill:none;stroke:#fff;stroke-linecap:round;stroke-miterlimit:10;stroke-width:8.62260056781861px"/><line x1="199.2" y1="137.2" x2="203" y2="137.2" style="fill:none;stroke:#fff;stroke-linecap:round;stroke-miterlimit:10;stroke-width:8.62260056781861px"/><line x1="189" y1="137.2" x2="192.9" y2="137.2" style="fill:none;stroke:#fff;stroke-linecap:round;stroke-miterlimit:10;stroke-width:8.62260056781861px"/><line x1="196" y1="153.6" x2="196" y2="140.3" style="fill:none;stroke:#fff;stroke-linecap:round;stroke-miterlimit:10;stroke-width:8.62260056781861px"/><line x1="192.9" y1="137.2" x2="189" y2="137.2" style="fill:none;stroke:#fff;stroke-linecap:round;stroke-miterlimit:10;stroke-width:8.62260056781861px"/><line x1="203" y1="137.2" x2="199.2" y2="137.2" style="fill:none;stroke:#fff;stroke-linecap:round;stroke-miterlimit:10;stroke-width:8.62260056781861px"/><line x1="196" y1="134.1" x2="196" y2="120.8" style="fill:none;stroke:#fff;stroke-linecap:round;stroke-miterlimit:10;stroke-width:8.62260056781861px"/><path d="M227.4,178.1V166.8a9,9,0,0,1-2.4-4.5,12,12,0,0,1,1.7-8l.7-1.2h.1V79.5c0-.1-.1-.2-.3-.2H164.3c-.2,0-.3.1-.3.2V194.9c0,.1.1.2.3.2h62.8c.2,0,.3-.1.3-.2v-4.6C224.6,187,225.5,181.7,227.4,178.1Z" style="fill:#fff"/><path d="M211.5,146.5V126.1a1.1,1.1,0,0,0-1.1-1.1H181a1.1,1.1,0,0,0-1.1,1.1v20.4a1.1,1.1,0,0,0,.6,1l14.6,8.7a1.3,1.3,0,0,0,1.2,0l14.7-8.7A1.2,1.2,0,0,0,211.5,146.5Z" style="fill:#333031"/><path d="M209.8,127.7c-.1,0-.2,0-.2-.1v-.5a.2.2,0,0,1,.2-.2c.1,0,.1.1.1.2v.5C209.9,127.7,209.9,127.7,209.8,127.7Z" style="fill:#fff"/><path d="M195.2,154.3h0c-.1,0-.2,0-.2-.1l-.7-.4c-.1,0-.1-.1,0-.2h.2l.7.4h.1c.1,0,.1.1.1.2S195.3,154.3,195.2,154.3Zm1,0c-.1,0-.2,0-.2-.1s0-.2.1-.2h.1l.7-.4h.2c.1.1.1.2,0,.2l-.7.4c0,.1-.1.1-.2.1Zm-2.6-.9h-.1l-.8-.4a.4.4,0,0,1-.1-.3h.3l.8.4a.4.4,0,0,1,.1.3Zm4.2,0h-.1a.2.2,0,0,1,0-.3l.8-.4h.3a.4.4,0,0,1-.1.3l-.8.4Zm-5.8-1h-.1l-.8-.5a.4.4,0,0,1-.1-.3h.2l.9.5a.1.1,0,0,1,0,.2Zm7.4,0h-.1a.1.1,0,0,1,0-.2l.9-.5h.2c.1.1,0,.2-.1.3l-.8.5Zm-9.1-1h0l-.9-.5a.1.1,0,0,1,0-.2h.2l.8.5c.1,0,.1.2.1.2Zm10.8,0h-.2s0-.2.1-.2l.8-.5h.2c.1.1.1.2,0,.2l-.8.5Zm-12.4-.9h-.1l-.8-.5c-.1,0-.1-.1-.1-.2h.3l.8.5a.4.4,0,0,1,.1.3Zm14,0h-.1a.2.2,0,0,1,0-.3l.8-.5h.3c0,.1,0,.2-.1.2l-.8.5Zm-15.6-1H187l-.8-.5a.4.4,0,0,1-.1-.3h.3l.8.5c.1,0,.1.1,0,.2Zm17.2,0h-.1a.1.1,0,0,1,0-.2l.9-.5h.2c.1.1,0,.2-.1.3l-.8.5Zm-18.9-1h0l-.9-.5s-.1-.2,0-.2.1-.2.2-.1l.8.5c.1,0,.2.1.1.2Zm20.6,0h-.2c0-.1,0-.2.1-.2l.8-.5c.1-.1.2,0,.2.1s.1.1,0,.2l-.8.5Zm-22.2-1h-.1l-.8-.5c-.1,0-.1-.1-.1-.2h.3l.8.5a.4.4,0,0,1,.1.3Zm23.8,0h-.2a.4.4,0,0,1,.1-.3l.8-.5h.3c0,.1,0,.2-.1.2l-.8.5Zm-25.4-.9h-.1a1.5,1.5,0,0,1-.6-.9v-.2l.2.2a1.5,1.5,0,0,0,.5.6.2.2,0,0,1,0,.3Zm27,0h-.1a.2.2,0,0,1,0-.3c.3-.1.4-.4.5-.6l.2-.2v.2a1.5,1.5,0,0,1-.6.9Zm-27.6-1.8a.1.1,0,0,1-.1-.1v-1.2l.2.2v1C181.8,144.8,181.7,144.8,181.6,144.8Zm28.2,0c-.1,0-.2,0-.2-.1v-1a.2.2,0,0,1,.2-.2c.1,0,.1.1.1.2v1C209.9,144.8,209.9,144.8,209.8,144.8Zm-28.2-1.9h-.1v-1a.3.3,0,0,1,.1-.2.2.2,0,0,1,.2.2v1Zm28.2,0h-.2v-1a.2.2,0,0,1,.2-.2c.1,0,.1.1.1.2v1ZM181.6,141h-.1v-1.2l.2.2v1Zm28.2,0h-.2v-1a.2.2,0,0,1,.2-.2c.1,0,.1.1.1.2v1Zm-28.2-1.9h-.1v-1.2l.2.2v1Zm28.2,0h-.2v-1a.2.2,0,0,1,.2-.2c.1,0,.1.1.1.2v1Zm-28.2-1.9h-.1v-1.2l.2.2v1Zm28.2,0h-.2v-1l.2-.2c.1,0,.1.1.1.2v1Zm-28.2-1.9a.1.1,0,0,1-.1-.1V134l.2.2v1C181.8,135.3,181.7,135.3,181.6,135.3Zm28.2,0c-.1,0-.2,0-.2-.1v-1a.2.2,0,0,1,.2-.2c.1,0,.1.1.1.2v1C209.9,135.3,209.9,135.3,209.8,135.3Zm-28.2-1.9h-.1v-1a.3.3,0,0,1,.1-.2.2.2,0,0,1,.2.2v1Zm28.2,0h-.2v-1a.2.2,0,0,1,.2-.2c.1,0,.1.1.1.2v1Zm-28.2-1.9h-.1v-1.2l.2.2v1Zm28.2,0h-.2v-1a.2.2,0,0,1,.2-.2c.1,0,.1.1.1.2v1Zm-28.2-1.9h-.1v-1.2l.2.2v1Zm28.2,0h-.2v-1a.2.2,0,0,1,.2-.2c.1,0,.1.1.1.2v1Z" style="fill:#fff"/><path d="M181.6,127.7a.1.1,0,0,1-.1-.1v-.7l.2.2v.5C181.8,127.7,181.7,127.7,181.6,127.7Z" style="fill:#fff"/><path d="M201.3,124.5l-10.5-6.4c-.2-.1-.4-.1-.5.1l-4.3,6.3Z" style="fill:#66c6c6"/><path d="M197.5,123.7a3.3,3.3,0,0,0-4,.8h.7a3,3,0,0,1,1.9-.7l1.2.3c.1.1.3.2.4.4h.6A3,3,0,0,0,197.5,123.7Z" style="fill:#fff"/><path d="M187.2,124.5l2.2-3.2a2.7,2.7,0,0,0,1.6.7h.4a2.1,2.1,0,0,0,1.5-1.4l6.6,4h.9l-9.3-5.6a.6.6,0,0,0-.8.2l-3.7,5.4Zm3.5-5.2h.2l1.6,1a1.8,1.8,0,0,1-1.2,1.2,2.4,2.4,0,0,1-1.7-.6Z" style="fill:#fff"/></svg>