<?xml version="1.0" encoding="utf-8"?>
<!-- Generator: Adobe Illustrator 22.0.1, SVG Export Plug-In . SVG Version: 6.00 Build 0)  -->
<svg version="1.1" id="Layer_1" xmlns="http://www.w3.org/2000/svg" xmlns:xlink="http://www.w3.org/1999/xlink" x="0px" y="0px"
	 viewBox="0 0 437.7 294.7" style="enable-background:new 0 0 437.7 294.7;" xml:space="preserve">
<g>
	<g>
		<path d="M41.4,96.1l0,0.1c0,0.2,0.1,0.4,0.2,0.5c0.9,0.4,1.8,0.8,2.7,1.2c1.2,0.5,2.5,1,3.6,1.6c1.3,0.7,2.5,1.5,3.7,2.3
			c0.6,0.4,1.1,0.8,1.7,1.1c-0.4-1.1-0.8-2.1-1.3-3.1c-1.8-2.4-3.2-5.1-4.5-8.1c-0.1-0.2-0.1-0.4-0.2-0.7c-0.2-0.5-0.4-1.1-0.6-1.7
			l-0.3-0.6c-0.1-0.2-0.2-0.3-0.3-0.4L46,88.4l0-0.1c-0.6-0.4-1.8-0.1-2.5,0.1l-0.2,0.1c-1,0.3-1.8,0.9-2.4,1.7
			C39.6,91.9,40.2,94.5,41.4,96.1L41.4,96.1z"/>
		<path d="M58.3,118.1L58.3,118.1c-0.3-1.1-0.7-2.1-1-3.2l-0.1-0.3l-0.1-0.5c-0.4-1.2-0.8-2.4-1.2-3.7c-0.5-1.5-0.9-2.9-1.4-4.4
			c0,0,0,0,0,0l-0.1-0.1c-1.4-0.7-2.6-1.6-3.8-2.4l-0.8-0.5c-1.4-0.8-2.9-1.6-4.5-2.4c-0.3-0.1-1.1-0.5-2.1-1
			c-1.1-0.4-2.2-0.9-3.3-1.5c-3.6-1.6-5.2-2-5.8-2c-1.3-0.4-2.6-0.6-3.9-0.6c-0.9,0-1.8,0.1-2.7,0.3c-4.2,0.9-8.2,4-7.9,8.3
			c-0.1,0.4-0.1,0.7,0,1.1c0.2,2.9,3.6,5.3,6.1,7.1c0.4,0.3,0.8,0.6,1.1,0.8c0.8,0.6,1.6,1.2,2.4,1.8c3.1,2.4,6,4.7,9.7,6.4
			c1.6,0.7,3.1,1.5,4.7,2.2c7.1,3.4,14.5,6.8,21.5,10.8c0.1,0,0.1,0.1,0.2,0.1c1.4,0.7,2.9,1.3,4.1,1.8c0.3,0.2,0.5,0.3,0.7,0.4
			c0.6,0.4,1.3,0.8,1.9,1c-5-5.1-9-10.5-11.7-16C59.2,120.3,58.6,119.1,58.3,118.1z"/>
		<path d="M73.1,100.2c0.2,0.3,0.5,0.6,0.7,0.9c0.4,0.5,0.8,1,1.1,1.4c0.7,0.9,1.4,1.8,2.2,2.8c0.9,1.1,1.6,2.3,2.3,3.5
			c0.4,0.8,0.9,1.6,1.4,2.4c0.3,0.5,0.6,0.9,1,1.4c1,1.2,2.1,2.3,3.2,3.2l0.1,0.1c0.1,0.1,0.2,0.1,0.2,0.2l0.7,0.4
			c0.5,0.3,1.1,0.7,1.6,1c1.1,0.8,2.3,1.5,3.9,2.1l-0.1,0.2l0.1-0.2c0.1,0.1,1.3,0.5,1.5,0.5l0.7,0.2c1.3,0.3,2.5,0.6,3.8,0.4
			c-1-1.6-2-3.5-3-5.4c-1.2-2.3-1.6-4.7-1.8-6.8c-0.4-3.2-1-6.2-1.6-8.9c-1.9-0.3-3.7-0.9-5.5-1.5c-1.6-0.5-3.2-1.1-4.8-1.4
			c-3.6-0.7-7.1-1.4-10.4-2.2l-0.2,0.1c0,0.2,0,0.3,0.1,0.5C70.9,96.9,72.1,98.7,73.1,100.2z"/>
		<path d="M406.8,154.4c-0.2-0.4-0.5-0.5-0.8-0.5l-0.2,0l-0.1-0.1c-0.2-0.1-0.4-0.2-0.6-0.2h0c-8.2,0-16.5-1.1-24.5-2.2
			c-2.8-0.4-5.6-0.8-8.5-1.1c-3.2-0.4-6.4-0.7-9.5-1c-1.8-0.2-3.6-0.3-5.4-0.5c-3.5-0.4-7-1-10.5-1.7c-2.6-0.5-5.4-1-8-1.4
			c-13-1.8-24-4-34.8-6.9c-2.9-0.8-5.7-2.1-8.3-3.3c-2.7-1.2-5.5-2.5-8.4-3.3l-1.7-0.4c-6.4-1.7-12.4-3.3-18.4-6.2
			c-0.4-0.2-0.9-0.4-1.4-0.6c-2-1-4.4-2-5.9-3.7c-0.7-0.8-1.3-1.6-1.9-2.4c-0.7-1-1.4-1.9-2.2-2.8c-1.7-1.6-3.2-3.5-4.7-5.4
			c-2.3-2.8-4.7-5.7-7.5-7.7c-8.2-5.9-20.3-7.9-30.1-9.5c-4.3-0.7-5.9-1.5-9.3-3.9c-0.8-0.6-1.6-1.1-2.5-1.7c-0.9-0.6-1.9-1.3-2.8-2
			c-4.4-3.1-9.2-6-13.9-8.7l-0.5-0.3c-4.2-2.5-8.9-4.9-14-6.1c-1-0.2-1.9-0.5-2.8-0.7c-4-1.1-7.8-2.1-11.8-0.4
			c-3.1,1.3-6.2,5.3-6.9,8.8c-0.7,3.9,2.3,6.9,4.8,9.3c2.8,2.7,5.9,4.7,9.2,6.8c1.2,0.8,2.5,1.6,3.8,2.5c1.4,0.9,2.8,1.8,4.2,2.7
			c0.8,0.5,1.6,1,2.4,1.5c1.8,1.1,3.1,2.4,4.2,3.6l0.1,0.2c2.6-0.4,4.9-1.1,7.5-1.9l0.7-0.2c0.9-0.3,1.7-0.6,2.6-1.1
			c1.6-0.7,3.2-1.4,4.9-1.5c0.6-0.3,1.2-0.1,1.6,0.4l0.4,0.5l-1.4,0.3c-0.4,0.3-1.2,0.5-1.9,0.7c-0.3,0.1-0.7,0.2-0.9,0.3
			c-0.5,0.2-0.9,0.4-1.4,0.6c-1.2,0.5-2.3,1-3.6,1.4c-2,0.6-4.1,1.4-5.8,2c-0.6,0.2-1.2,0.3-1.7,0.3l-0.2,0c-9.1,1.3-18.4,2-27.5,2
			c-1,0-2,0-2.9,0c-3.8,0-7.6,0.1-11.5-0.6c-1.4-0.3-2.8-0.6-4.1-0.8c-3.2-0.7-6.6-1.4-9.9-1.5c-0.3,0-0.5,0.1-0.7,0.3
			c0.3,1.8,1.8,3.6,3.1,5.3c0.4,0.5,0.8,1.1,1.2,1.5c0.5,0.7,1.1,1.5,1.6,2.2c1.2,1.2,2.1,2.2,2.8,3.4l0.3,0.5
			c1.2,1.4,2.4,2.8,3.7,4.2c2.2,2.5,4.6,4.7,7.2,6.4c0.6,0.3,1.2,0.6,1.9,0.8c1.5,0.7,3.1,1.4,4.6,2.3c0.5,0.3,1,0.6,1.5,1
			c1.8,0.8,3.7,1.5,5.5,2.5c0.5,0.3,0.7,0.9,0.4,1.4c-0.3,0.5-0.9,0.7-1.4,0.4c-0.4-0.2-0.8-0.4-1.2-0.7l-0.4-0.2
			c-1.3-0.6-2.7-1.2-4-1.8c-2.5-1.1-5-2.1-7.3-3.7c-3.4-2.2-6.4-5-9.4-8.7c-0.7-0.8-1.3-1.6-2-2.4c-2.1-2.4-4.2-5-6-7.7
			c-0.3-0.5-0.7-0.9-1.1-1.4c-1.2-1.6-2.6-3.4-2.9-5.3c-1.6-3.7-3-7.5-4.3-11.2c-1-2.8-2-5.8-3.2-8.6c-1.5-3.6-2-5.3-2.5-7.2
			c-0.5-1.7-1-3.4-2.3-6.6c-2-5.3-4.3-9.6-11.1-8.6c-2.7,0.4-4.4,1.9-5.3,4.5c-1.5,2.4-1.5,5.8-1.4,8.5l0,0.5
			c0.1,3.5,0.7,7.5,1.8,11.5c0,0.3,0.1,0.7,0.2,1c0.3,1.5,0.6,3.1,1,4.6c0.3,1.4,0.6,2.9,0.9,4.3l0.1,0.6l0,0
			c0.1,0.5,0.3,1.2,0.3,1.6l0,0l0,0.2c0.2,1.3,0.4,2.6,0.6,3.9l0.1,1c0,0.1,0,0.3,0.1,0.4l0.1,0.6c0.2,1.6,0.6,3.5,1.1,5.3
			c0.2,0.6,0.4,1.2,0.7,1.8c0.4,0.7,0.7,1.3,1.1,1.9L98,117c0.4,0.7,1.1,1.7,1.6,2.4c0.2,0.4,0.4,0.6,0.5,0.7l0,0
			c0.2,0.3,0.5,0.7,0.7,1l0,0.1l0,0l0.3,0.5l0,0c0.1,0.1,0.2,0.3,0.4,0.7c1.1,1.9,4.6,7.8,5.9,9.9c1.2,2.1,2.2,4.4,3.1,6.7
			c0.4,0.9,0.9,1.9,1.3,2.9c2.3,5.4,4.1,8.9,9.2,11c0.6,0.3,0.8,1,0.6,1.5c-0.2,0.5-0.7,0.7-1.2,0.5c-4.4-1.8-7-4.3-8.8-8.4l-0.4-1
			c-2.3-5.1-4.5-9.9-7.3-14.7c-1.1-1.9-2.3-3.8-3.5-5.7c-0.5-0.8-0.9-1.5-1.4-2.3c-0.5,0-1,0-1.5,0l-0.1,0c-0.1,0-0.3,0-0.4,0
			c-0.2,0-0.3,0-0.4,0c-0.2,0-0.3,0-0.6,0c-2.6-0.5-5.6-1.1-8.4-2.6c-3-1.6-5.8-4.1-8.1-7c-2-2.6-4.1-5.5-6.4-9.2
			c-2.3-2.7-4.9-6.1-5.7-10.3c-2.2-5.3-4.6-11-8.3-14.8c-2.5-2.6-7.4-6.6-11.5-3.6c-3.5,2.5-2.8,6.1-1.7,8.7c0,0,0.1,0.1,0.1,0.1
			c2.9,4.7,5.4,9.5,7.6,14.7c1.1,1.8,1.8,3.3,2.4,4.8c0.2,0.4,0.3,0.9,0.5,1.3c0.1,0.2,0.2,0.4,0.2,0.6c0.2,0.6,0.4,1.3,0.6,1.9
			l0.4,1.3l-0.1-0.1c0.2,0.6,0.4,1.4,0.5,1.7l0,0l0.2,0.9c0.3,1.1,0.6,2.2,0.9,3.2c2,5.4,4.6,10.3,8.1,14.9c1,1.3,2.1,2.5,3.2,3.8
			l0.4,0.5c0.6,0.7,1.1,1.4,1.7,2.1l0.1,0.1c0.2,0.2,0.4,0.4,0.6,0.6l0.4,0.4c0.2,0.3,0.3,0.5,0.5,0.6c0.1,0.1,0.1,0.1,0.2,0.2
			c0.1,0.2,0.3,0.3,0.4,0.5l0.1,0.1c0.1,0.1,0.1,0.2,0.2,0.3c1.2,1.4,2.2,2.3,3.2,3.1c1.6,1.3,3.5,2,5.5,2.6
			c0.5,0.2,0.9,0.3,1.4,0.5c1.7,0.6,3.5,1.3,5.2,2c1.6,0.6,3.2,1.3,4.8,1.9c1.5,0.6,3.1,1.1,4.5,1.5l0.3,0.1l0,0.1
			c1.1,0.3,2.2,0.9,3.5,1.7c4.7,1.6,8.8,4.9,12.8,8c2.2,1.8,4.6,3.6,6.9,5.1c2,1.2,4.3,1.7,6.6,2.1c1.3,0.2,2.6,0.5,3.9,0.9l0.9,0.3
			c4.5,1.4,8.7,2.7,13.3,3.3c2.2,0.3,4.6,0,6.9-0.4c1.6-0.2,3.2-0.5,4.8-0.5c0.3,0,0.7,0,1,0c5.8,0,11.5,0.8,17,1.6
			c3.6,0.5,7.2,0.9,10.7,1.3c7.6,0.9,15.4,1.8,23,3.5l3.6,0.8c9.4,2,19.1,4.1,28.2,7.3c4,1.4,8.2,2.1,12.3,2.7
			c4.6,0.8,9.4,1.5,13.9,3.3c3.4,1.4,7,2.1,10.5,2.8c1.2,0.3,2.4,0.5,3.7,0.8c4.5,1,8.9,2.5,13.2,4l2.4,0.8c2.9,1,5.8,2,8.7,3
			c7,2.4,14.3,4.9,21.7,7c8.5,2.4,17,5.3,25.2,8.1c3.7,1.2,7.3,2.5,11,3.7c1.7,0.6,3.4,1.1,5.1,1.7c4.3,1.4,8.8,2.8,13.1,4.3
			c1.4,0.5,2.9,1.1,4.3,1.6c3.2,1.3,6.6,2.6,10,3.1l0.2,0l0.1,0.1c0.2,0.2,0.5,0.4,1,0.4c1.7-0.3,2.3-1.4,3.1-2.9
			c0.1-0.2,0.3-0.5,0.4-0.7c1-1.7,2.1-3.5,3.1-5.1c1-1.6,2-3.2,3-4.8c4.2-7.5,6.6-14,7-19.2C417.2,185,413.8,168.3,406.8,154.4z
			 M210,119.1L210,119.1c-4.7,0.5-9,2.5-13.2,4.4c-2.5,1.2-5,2.3-7.6,3.2c-5.1,1.7-10.4,2.5-15.5,3.3c-2.4,0.4-4.8,0.7-7.2,1.2
			c-0.1,0-0.1,0-0.2,0c-0.3,0-0.6-0.1-0.8-0.4c-0.3-0.3-0.3-0.7-0.2-1.1c0.1-0.3,0.4-0.5,0.7-0.6c2.4-0.5,4.8-0.8,7.2-1.2
			c5.5-0.8,11.1-1.7,16.5-3.6c2.4-0.8,4.6-1.9,6.9-2.9c4.2-1.9,8.5-4,13.4-4.4c0.5-0.1,1,0.3,1,0.9C211,118.4,210.6,119,210,119.1z"
			/>
	</g>
</g>
</svg>
