<svg xmlns="http://www.w3.org/2000/svg" viewBox="0 0 600.4 600.4"><title>illustr--Artboard 16 copy</title><path d="M445.5,143.6c-2.2-1.2-4.3-1.8-10.2-1.8H172.2c-5.9,0-8.1.6-10.2,1.8a11.5,11.5,0,0,0-5,5c-1.1,2.1-1.8,4.3-1.8,10.1V421.9c0,5.9.7,8,1.8,10.2a11.8,11.8,0,0,0,5,4.9c2.1,1.2,4.3,1.8,10.2,1.8H435.3c5.9,0,8-.6,10.2-1.8a12.4,12.4,0,0,0,5-4.9c1.1-2.2,1.7-4.3,1.7-10.2V158.7c0-5.8-.6-8-1.7-10.1A12,12,0,0,0,445.5,143.6Zm5.1,278.3c0,6-.7,7.7-1.6,9.4a10.5,10.5,0,0,1-4.3,4.3c-1.7.9-3.4,1.6-9.4,1.6H172.2c-6,0-7.8-.7-9.4-1.6a10.5,10.5,0,0,1-4.3-4.3c-.9-1.7-1.6-3.4-1.6-9.4V158.7c0-5.9.7-7.7,1.6-9.4a10.5,10.5,0,0,1,4.3-4.3c1.6-.9,3.4-1.5,9.4-1.5H435.3c6,0,7.7.6,9.4,1.5a10.5,10.5,0,0,1,4.3,4.3c.9,1.7,1.6,3.5,1.6,9.4Z" style="fill:#afadad"/><path d="M277.8,288.6h0a17.5,17.5,0,0,0,8.9-5.5c0-.3.1-.6.1-.9h0a3,3,0,0,0,.2-1c.4-1.8.7-3.5,1-5.3l1.2-6.7c.6-3.6,1.3-7.3,2-10.9l-2.6-.2h-.5l-2.4-.3a27.9,27.9,0,0,1-4-.7c-3.8,4-7.7,8-11.9,11.7s-7.2,5.8-5.7,11.3S271.8,289.1,277.8,288.6Z" style="fill:#333031"/><path d="M297.6,228c-6.7,1-13.1,3.4-19.9,4.3a8.1,8.1,0,0,1-2.9,1.2c-3.9,3.7-6.5,10.3-2.5,15A20.8,20.8,0,0,0,280,254h.1c3.6,1.7,7.7,1.7,11.5,2,.8-4.2,1.6-8.3,2.5-12.3h0c.4-1.7.8-3.4,1.3-5.1l.6-2.4a6.4,6.4,0,0,1,.2-.7c.2-.8.5-1.5.7-2.3a.4.4,0,0,0,.1-.3,45.5,45.5,0,0,1,2.1-5.1Z" style="fill:#333031"/><path d="M389.2,318.1c-2.3-9.9-7.7-19.1-10.3-29.1-2.1-8.1-3.5-16.5-4.9-24.8l-.9-8.4c-.5-4.8-.5-10.1-1.9-14.8-2.4-7.6-9.4-9.4-16.5-10a1.1,1.1,0,0,0-.8-.3l-14.1-1.3a1.1,1.1,0,0,1-.8.2h0a1.7,1.7,0,0,0-1.9.9,142.2,142.2,0,0,1-1.3,17.2c-.4,4-.8,8-1.4,12a1.9,1.9,0,0,0,1.7,2l.8.6c1.9-4.7,6.8-6.6,11.5-8.7,1.4-.7,2.6,1.4,1.2,2l-.9.4h0l-4.2,2.1h-.1l-1,.6c-.1.1-.2.1-.2.2a.5.5,0,0,0-.4.2l-.4.3-.3.2-.6.5-.2.2-.4.4-.2.3a1,1,0,0,0-.4.5l-.2.2-.4.6c0,.1-.1.2-.1.3l-.3.6c-.1.1-.1.1-.1.2l-.3.9a.3.3,0,0,0-.1.2c-.1.3-.1.5-.2.8v.3a4.3,4.3,0,0,0-.2,1.1,20.9,20.9,0,0,0-.1,2.5h0c-.1,5,.8,10.4,3.5,14.6l1.5-.5.6-.2,1.1-.2h.7l1.3-.2h2.8c1.5.1,1.5,2.5,0,2.4-6.8-.2-11.9,2.1-14.5,8.7s-2.7,13.2-2.8,19.7l3.6-.7h.5l1.3-.2h2.5a4.8,4.8,0,0,1,1.7,0h4.3l1.8.3h.6v.2a.4.4,0,0,1,.1.3,1.3,1.3,0,0,1-1.4,1.6c-8.7-1.7-17.4.3-25,4.6v1.2h0c0,9.8,1,19.3,4.5,28.6.5,1.5-1.8,2.1-2.3.7s0-.1-.1-.2c-.6-1.7-1.2-3.5-1.7-5.3h0c-.6-2.3-1.1-4.6-1.6-7h0c-.2-1.2-.3-2.3-.5-3.5h0c-.1-1.2-.3-2.4-.4-3.5h0c-.2-3-.3-6.1-.3-9.1a192,192,0,0,1,1.4-24,.7.7,0,0,1-.1-.6c1.7-12.2,6.9-23.3,9.4-35.2a159.3,159.3,0,0,0,3.9-35.1c-1-2-1.9-4.2-2.9-6.3l-.7-.6a17.7,17.7,0,0,0-17.5-3.5,19.3,19.3,0,0,0-5,2.4l-1.3,1.2a15.8,15.8,0,0,0-3.8,4.2c-.7,1-1.3,2.1-2,3.2h-.1c-4.5,8.7-5.6,20.2-7.2,28.5s-3.2,16.5-4.7,24.7c0,.3-.1.5-.1.8a1.2,1.2,0,0,1,.2,1.4,8.6,8.6,0,0,1-.7,1,87,87,0,0,1-4.5,15.3h.4a1.4,1.4,0,0,1-.2.7c-.3,1.2-.7,2.4-1.1,3.7a.8.8,0,0,0,0,.7c-.4,1.2-.7,2.3-1,3.4l-1.6,2.7c-2.9,5-5.7,10-8.2,15.2a161.1,161.1,0,0,0-11.5,30.1c-2.8,10.9-2,21.9-1.5,33s1.1,24.6,1.6,36.9a1.5,1.5,0,0,0,1.2,1.5c.4,5,.8,9.9,1.5,14.8a48.1,48.1,0,0,0,2.6,9.9c.8,19.5,0,39-6.1,57.8a1.1,1.1,0,0,0,0,.8,1.3,1.3,0,0,0,.3,2.3c16.7,7,34.7,12,52.9,8.7,7.9-1.5,16.2-4.6,22.4-9.8s5.7-11.7,3.9-19a1.5,1.5,0,0,0-.3-.7c.6-10.7,2.5-21.2,3.9-31.8a210.6,210.6,0,0,0,1.7-38.1.6.6,0,0,0-.1-.4c1.3-18.4,13-35.1,21.9-50.7l16.5-28.7C388,334.5,391.3,327.1,389.2,318.1Z" style="fill:#333031"/><path d="M336,266.2a1.9,1.9,0,0,0,.2-.7,1.6,1.6,0,0,0-3.1-.9c-1.1,3.9-2.3,7.9-3.2,11.9h-.1l-1.5,3.8h0a61.8,61.8,0,0,0-2.3,7.3,92.8,92.8,0,0,0-2.9,19.6h0v.3c-.1,1.3-.2,2.6-.2,4v.6c-.1,1.3-.1,2.6-.2,3.9v.2h0v.9a43,43,0,0,1,7.4-3.1c0-1.9.1-3.9.2-5.9v-.5c.1-.6.1-1.2.2-1.9v-.2a11.1,11.1,0,0,1,.2-1.7v-.4l.3-1.9h0l.3-1.7c0-.2,0-.3.1-.4a9.5,9.5,0,0,1,.4-1.8h0a10.9,10.9,0,0,1,.5-1.7.6.6,0,0,1,.1-.4,30.5,30.5,0,0,1,1.3-3.2c0-.2.1-.3.1-.4l.8-1.4a.1.1,0,0,1,.1-.1,5.5,5.5,0,0,1,.9-1.4c0-.1.1-.2.2-.3a16.3,16.3,0,0,1,3.8-3.6C336.4,279.9,335.3,272.4,336,266.2Z" style="fill:#333031"/><path d="M285.8,287.2l-1.7,1.2-.3.2-1.8.9c0,.1-.1.1-.2.1a28.6,28.6,0,0,1-4.1,1.5,9.1,9.1,0,0,0,1.4,5.1,7.2,7.2,0,0,0,3,2.5l1.2-3c.3-.8.5-1.6.8-2.4l.3-.8a12.1,12.1,0,0,1,.5-1.8,2.9,2.9,0,0,0,.2-.9l.6-2.2a.8.8,0,0,1,.1-.4Z" style="fill:#333031"/><path d="M382.9,206.6,311.3,76a7.6,7.6,0,0,0-10.4-3l-77,42.2a7.7,7.7,0,0,0-3,10.4l70.6,128.8c.8-4.3,2-8.6,3.1-13s2.3-11.1,4.8-16.1A22.8,22.8,0,0,1,315,213.7c6.4-1.2,13,.7,17.2,5.9s5.5,13.6,4.8,20.9L379.9,217A7.6,7.6,0,0,0,382.9,206.6Z" style="fill:#66c8c7"/><path d="M292.4,259.3,219.5,126.4a9.3,9.3,0,0,1-.8-7.1,9.1,9.1,0,0,1,4.5-5.5l77-42.2a9,9,0,0,1,7-.8,9.3,9.3,0,0,1,5.5,4.4l71.6,130.6a9.3,9.3,0,0,1-3.6,12.6l-45.6,25,.3-3c.8-8.6-.6-15-4.4-19.8a15.9,15.9,0,0,0-15.7-5.3A20.7,20.7,0,0,0,300.9,226c-2,3.8-3,8.1-3.9,12.3-.3,1.2-.6,2.4-.8,3.5l-.9,3.3c-.8,3.1-1.6,6.4-2.2,9.6ZM304.6,73.6a6,6,0,0,0-2.9.8l-77,42.2a6.5,6.5,0,0,0-2.9,3.6,6.1,6.1,0,0,0,.5,4.6l68.5,125c.5-1.8.9-3.7,1.4-5.5s.6-2.2.8-3.2.6-2.3.8-3.5a57.1,57.1,0,0,1,4.2-13.1,24.1,24.1,0,0,1,16.7-12.3,18.8,18.8,0,0,1,18.8,6.4c3.9,4.8,5.6,11.1,5.3,19.1l40.3-22.1a6.1,6.1,0,0,0,2.4-8.2L309.9,76.8a5.8,5.8,0,0,0-3.6-2.9A5.1,5.1,0,0,0,304.6,73.6Z" style="fill:#fff"/><path d="M254.6,114.2c2.2-1.2,4.2-1,5.2.8s.1,3.6-2.1,4.8l-.3.2c-2.1,1.1-4.2,1-5.2-.9s-.1-3.6,2.1-4.7Zm.5,1.7c-1.5.8-2,1.8-1.6,2.5s1.5.9,3,0h.4c1.5-.9,2-1.8,1.6-2.6s-1.5-.8-3,0Z" style="fill:#fff"/><path d="M258.4,121.1c2.2-1.2,4.2-.9,5.2.8s.1,3.6-2.1,4.8l-.3.2c-2.1,1.1-4.2,1-5.2-.8s-.1-3.6,2.1-4.8Zm.5,1.7c-1.5.9-2,1.8-1.6,2.6s1.5.8,3,0l.4-.2c1.5-.9,2-1.8,1.6-2.6s-1.5-.8-3,0Z" style="fill:#fff"/><path d="M262.2,128c2.2-1.2,4.2-.9,5.2.9s.1,3.6-2.1,4.8H265c-2.1,1.2-4.2,1.1-5.2-.8s-.1-3.6,2.1-4.8Zm.5,1.8c-1.5.8-2,1.7-1.6,2.5s1.5.8,3,0l.4-.2c1.5-.8,2-1.8,1.6-2.5s-1.5-.9-3,0Z" style="fill:#fff"/><path d="M266,134.9c2.2-1.1,4.2-.9,5.2.9s.1,3.6-2.1,4.8l-.3.2c-2.1,1.1-4.2,1-5.2-.9s-.1-3.6,2.1-4.8Zm.5,1.8c-1.5.8-2,1.8-1.6,2.5s1.5.9,3,0l.3-.2c1.6-.8,2.1-1.7,1.7-2.5s-1.5-.8-3,0Z" style="fill:#fff"/><path d="M271.1,144.3c2.2-1.2,4.2-.9,5.2.9s.1,3.6-2.1,4.7l-.3.2c-2,1.1-4.2,1.1-5.2-.8s0-3.6,2.1-4.8Zm.6,1.7c-1.6.9-2.1,1.8-1.7,2.6s1.5.8,3,0l.4-.2c1.5-.8,2-1.8,1.6-2.5s-1.5-.9-3,0Z" style="fill:#fff"/><path d="M274.9,151.2c2.2-1.1,4.2-.9,5.2.9s.1,3.6-2.1,4.8h-.3c-2,1.2-4.2,1.1-5.2-.8s0-3.6,2.1-4.8Zm.6,1.8c-1.6.8-2.1,1.7-1.7,2.5s1.5.8,3,0l.4-.2c1.5-.8,2-1.8,1.6-2.5s-1.5-.9-3,0Z" style="fill:#fff"/><path d="M278.7,158.2c2.2-1.2,4.2-1,5.2.8s.1,3.6-2.1,4.8l-.3.2c-2,1.1-4.2,1-5.2-.9s0-3.6,2.1-4.8Zm.5,1.7c-1.5.8-2,1.8-1.6,2.5s1.5.9,3,0l.4-.2c1.5-.8,2-1.7,1.6-2.5s-1.5-.8-3,0Z" style="fill:#fff"/><path d="M282.5,165.1c2.2-1.2,4.2-1,5.2.8s.1,3.6-2.1,4.8l-.3.2c-2,1.1-4.2,1-5.2-.8s0-3.7,2.1-4.8Zm.5,1.7c-1.5.9-2,1.8-1.6,2.6s1.5.8,3,0l.4-.2c1.5-.9,2-1.8,1.6-2.6s-1.5-.8-3,0Z" style="fill:#fff"/><path d="M287.7,174.4c2.1-1.1,4.1-.9,5.1.9s.1,3.6-2,4.8l-.4.2c-2,1.1-4.1,1-5.2-.9s0-3.6,2.1-4.8Zm.5,1.8c-1.6.8-2.1,1.8-1.7,2.5s1.5.8,3.1,0l.3-.2c1.5-.8,2-1.8,1.6-2.5s-1.5-.9-3,0Z" style="fill:#fff"/><path d="M291.5,181.4c2.1-1.2,4.1-1,5.1.8s.1,3.6-2,4.8l-.4.2c-2,1.1-4.1,1-5.2-.9s0-3.6,2.1-4.7Zm.5,1.7c-1.6.8-2.1,1.8-1.7,2.5s1.5.9,3.1,0h.3c1.5-.9,2-1.8,1.6-2.6s-1.5-.8-3,0Z" style="fill:#fff"/><path d="M295.3,188.3c2.1-1.2,4.1-1,5.1.8s.1,3.6-2.1,4.8l-.3.2c-2,1.1-4.1,1-5.2-.8s0-3.6,2.1-4.8Zm.5,1.7c-1.6.9-2.1,1.8-1.7,2.6s1.5.8,3.1,0l.3-.2c1.5-.9,2-1.8,1.6-2.6s-1.5-.8-3,0Z" style="fill:#fff"/><path d="M299.1,195.2c2.1-1.2,4.1-.9,5.1.9s.1,3.6-2.1,4.7l-.3.2c-2,1.1-4.1,1.1-5.2-.8s0-3.6,2.1-4.8Zm.5,1.7c-1.6.9-2.1,1.8-1.7,2.6s1.5.8,3.1,0l.3-.2c1.5-.8,2-1.8,1.6-2.5s-1.5-.9-3,0Z" style="fill:#fff"/><path d="M304.2,204.6c2.1-1.2,4.2-1,5.2.8s0,3.6-2.1,4.8l-.4.2c-2,1.1-4.1,1-5.1-.8s-.1-3.7,2-4.8Zm.5,1.7c-1.5.8-2,1.8-1.6,2.5s1.5.9,3,0h.3c1.5-.9,2.1-1.8,1.6-2.6s-1.4-.8-3,0Z" style="fill:#fff"/><path d="M306,217.1h.2a1,1,0,0,1,.6-.9h.2v-.2c-.4-.8.1-1.7,1.6-2.6l.3-.2c1.6-.8,2.6-.7,3,0a1.4,1.4,0,0,1,.2.6l.7-.3.7-.3a2.5,2.5,0,0,0-.2-.7c-1-1.7-3.1-2-5.2-.8l-.4.2c-2.1,1.2-3,3-2,4.8Z" style="fill:#fff"/><path d="M278.6,142.1a4.6,4.6,0,0,1-3.9-2.4l-8.9-16.2a4.5,4.5,0,0,1,1.8-6.1l12.9-7.1a4.5,4.5,0,0,1,6.1,1.8l8.9,16.2a4.5,4.5,0,0,1-1.8,6.1l-12.9,7.1A4.3,4.3,0,0,1,278.6,142.1Zm4.1-31.4a3.4,3.4,0,0,0-1.7.5l-13,7.1a3.4,3.4,0,0,0-1.3,4.7l8.9,16.3a3.4,3.4,0,0,0,4.7,1.3l13-7.1a3.4,3.4,0,0,0,1.3-4.7l-8.9-16.3A3.5,3.5,0,0,0,282.7,110.7Z" style="fill:#fff"/><path d="M276.5,133.5h-.6a2,2,0,0,1-1.2-1l-2.7-4.9a2.3,2.3,0,0,1-.2-1.6,2.2,2.2,0,0,1,1-1.3l10.9-6a2.5,2.5,0,0,1,1.7-.2,2.2,2.2,0,0,1,1.2,1.1l2.7,4.8a2.5,2.5,0,0,1,.2,1.7,2,2,0,0,1-1,1.2l-10.9,6A2.3,2.3,0,0,1,276.5,133.5Zm8.3-14.2-.6.2-10.9,5.9c-.3.2-.5.4-.5.7a1,1,0,0,0,.1.9l2.6,4.9c.2.3.4.5.7.5a1,1,0,0,0,.9-.1l10.9-5.9c.3-.2.5-.4.5-.7a1,1,0,0,0-.1-.9l-2.6-4.9a1.8,1.8,0,0,0-.7-.5Z" style="fill:#fff"/><path d="M280.2,138.7h-.4a1.8,1.8,0,0,1-1-.7l-1.9-3.6a1.5,1.5,0,0,1,.6-2.2l2.2-1.2a1.6,1.6,0,0,1,2.1.7l2,3.6a1.6,1.6,0,0,1-.7,2.1l-2.1,1.2Zm.2-7h-.3l-2.2,1.2a.8.8,0,0,0-.2.8l2,3.6a.5.5,0,0,0,.8.2l2.2-1.2a.5.5,0,0,0,.2-.8h0l-2-3.6-.3-.2Z" style="fill:#fff"/><path d="M284.3,136.5h-.5a1.4,1.4,0,0,1-.9-.8l-2-3.6a1.6,1.6,0,0,1,.6-2.1l2.2-1.2a1.7,1.7,0,0,1,1.2-.1,1.8,1.8,0,0,1,1,.7l1.9,3.6a1.5,1.5,0,0,1-.6,2.2l-2.2,1.2Zm.2-7h-.3l-2.2,1.2a.5.5,0,0,0-.2.8l2,3.6a.5.5,0,0,0,.8.2l2.1-1.2a.6.6,0,0,0,.3-.8h0l-2-3.6-.4-.3Z" style="fill:#fff"/><path d="M288.4,134.2h-.5a1.8,1.8,0,0,1-.9-.8l-2-3.6a1.6,1.6,0,0,1,.6-2.1l2.2-1.2a1.7,1.7,0,0,1,1.2-.2,1.8,1.8,0,0,1,.9.8l2,3.6a1.6,1.6,0,0,1-.6,2.1l-2.2,1.2A1,1,0,0,1,288.4,134.2Zm.2-6.9h-.3l-2.2,1.2a.5.5,0,0,0-.2.8l1.9,3.6a.7.7,0,0,0,.8.3l2.2-1.2a.5.5,0,0,0,.2-.8h0l-1.9-3.6A.5.5,0,0,0,288.6,127.3Z" style="fill:#fff"/><path d="M272.9,125.4h-.4a1.8,1.8,0,0,1-.9-.8l-2-3.6a1.7,1.7,0,0,1-.2-1.2,1.8,1.8,0,0,1,.8-.9l2.2-1.2a1.6,1.6,0,0,1,1.2-.2,1.8,1.8,0,0,1,.9.8l2,3.6a1.7,1.7,0,0,1,.1,1.2,1.6,1.6,0,0,1-.7.9l-2.2,1.2A1.1,1.1,0,0,1,272.9,125.4Zm.2-6.9h-.2l-2.2,1.2c-.2.1-.3.2-.3.4s0,.3,0,.4l2,3.6a.7.7,0,0,0,.8.3l2.2-1.2.3-.4a.6.6,0,0,0-.1-.4h0l-1.9-3.6A.9.9,0,0,0,273.1,118.5Z" style="fill:#fff"/><path d="M277,123.2a1.7,1.7,0,0,1-1.4-.8l-1.9-3.6a1.7,1.7,0,0,1-.2-1.2,1.6,1.6,0,0,1,.8-1l2.2-1.2a1.6,1.6,0,0,1,1.2-.1,1.4,1.4,0,0,1,.9.8l2,3.6a1.6,1.6,0,0,1-.7,2.1l-2.1,1.2Zm.2-7h-.3l-2.2,1.2a.5.5,0,0,0-.2.4.3.3,0,0,0,0,.4l2,3.6.3.3h.5l2.2-1.2a.5.5,0,0,0,.2-.8l-2-3.6A.5.5,0,0,0,277.2,116.2Z" style="fill:#fff"/><path d="M281.1,121h-.5a1.4,1.4,0,0,1-.9-.8l-2-3.6a1.6,1.6,0,0,1-.1-1.2,1.4,1.4,0,0,1,.8-.9l2.1-1.2a1.7,1.7,0,0,1,1.2-.1,1.8,1.8,0,0,1,1,.7l1.9,3.6a1.5,1.5,0,0,1-.6,2.2l-2.2,1.2Zm.2-7H281l-2.2,1.2c-.1,0-.2.2-.3.3a.9.9,0,0,0,.1.5l2,3.6.3.3h.5l2.1-1.2a.6.6,0,0,0,.3-.8l-2-3.6A.5.5,0,0,0,281.3,114Z" style="fill:#fff"/></svg>