<svg xmlns="http://www.w3.org/2000/svg" viewBox="0 0 600.4 600.4"><title>illustr--Artboard 16</title><path d="M440.4,148.6c-2.2-1.2-4.3-1.8-10.2-1.8H167.1c-5.9,0-8.1.6-10.2,1.8a11.3,11.3,0,0,0-5,4.9c-1.2,2.2-1.8,4.3-1.8,10.2V426.9c0,5.9.6,8,1.8,10.1a11,11,0,0,0,5,5c2.1,1.2,4.3,1.8,10.2,1.8H430.2c5.9,0,8-.6,10.2-1.8a12,12,0,0,0,5-5c1.1-2.1,1.7-4.2,1.7-10.1V163.7c0-5.9-.6-8-1.7-10.2A12.4,12.4,0,0,0,440.4,148.6Zm5.1,278.3c0,6-.7,7.7-1.6,9.4a10.5,10.5,0,0,1-4.3,4.3c-1.7.9-3.4,1.5-9.4,1.5H167.1c-6,0-7.8-.6-9.4-1.5a10.7,10.7,0,0,1-4.4-4.3c-.8-1.7-1.5-3.4-1.5-9.4V163.7c0-6,.7-7.7,1.5-9.4a10.7,10.7,0,0,1,4.4-4.3c1.6-.9,3.4-1.6,9.4-1.6H430.2c6,0,7.7.7,9.4,1.6a10.5,10.5,0,0,1,4.3,4.3c.9,1.7,1.6,3.4,1.6,9.4Z" style="fill:#afadad"/><path d="M440.4,400.7c-4.4-3.4-9.5-5.9-13.2-10.1s-6.3-9.9-9.9-14.5c-6.2-8.3-15-14.2-23.5-19.9h-.2a29.5,29.5,0,0,0-11-15.6h0l-.6-.4-.4-.3-.3-.2-2.4-1.5c-5.9-10.7-15.7-18-24.2-26.7-10.2-10.5-19-22.3-27.8-34.1a2.4,2.4,0,0,0-.9-.6v-2.2c-.5-8.9-4.8-17-8.4-25.1-.2-1.3-.5-2.5-.8-3.9,4.7,0,10.2-.1,11.8-5.6.9-2.8,0-5.6-.8-8.3-1.3-4.3-2.2-8.1-1.6-12.7a1.9,1.9,0,0,0-.2-.8,12.2,12.2,0,0,1,3.5-3.3,11.1,11.1,0,0,1,1.9-.9h.2c3.6-1.4,7.9-1.6,11.4-3.5a1.3,1.3,0,0,0,.6-1.2c4.2.2,8.7-.6,12.7-1.1a76.7,76.7,0,0,0,13.5-2.6,1.3,1.3,0,0,0,1.2.9,59.2,59.2,0,0,0,27.9-4.4c3.4-1.5,10.5-4.2,8.7-9.2-.2-.4-.5-.9-1-.9-2.3-.4-4.1.3-6.4,1.2-4.4,1.6-8,3.1-12.2,3.8l1.7-1.1c1.2-.8,3.4-1.9,3.8-3.5.9-3.4-1.8-4.7-4.6-4.4s-4.5,1.7-6.5,2.7a53.5,53.5,0,0,1-11.6,5,1.3,1.3,0,0,0-.8-.6,21.1,21.1,0,0,1-5.3-2.4c6.4-6.1,12.3-12.8,15.4-21.2,8.8-11.9,6.1-29.8-1.2-41.9-2.7-4.4-6.7-9-8.6-13.8s-2.6-10,1.6-12.4,5.1-.6,7.3,2,.4,12.5,6.8,13.2c3.6.4,9.5-3.6,9.7-7.6s-2.7-5.9-3.4-8.4-1.4-7.5-2.9-11c-5.6-13.4-22.6-10.1-32.1-2.8l-.4-.2c-6.7,4.8-12.1,10.9-13.3,19.5s1.9,16.3,3.9,24.2c1,4.3,3.3,12.7.7,17-3.9,6.3-12.6,1.8-17.6.1a110.8,110.8,0,0,1-28.1-14.7c-6.5-4.7-13.3-10.2-21.8-10.1S265,130,258.3,134.5c-8.5,5.6-16.7,11.5-23.9,18.8a1.1,1.1,0,0,0-.3,1.3c-12.5,4.8-25.1,10.2-35,19.5s-14.6,19.2-18.3,30.7a171,171,0,0,0-7.6,37.5c-.4,4.4-.4,9.5,3.3,12.5a13.8,13.8,0,0,0,4.2,2.1c2.2.9,4.1,1.8,5.9,2.7-10.8,13.6-17.9,29.4-24.9,45.3-5.5,12.6-10.5,25.7-11.5,39.4-1.9,9.8-2.8,21.2.5,30.7,1.2,3.6,3.4,5.9,6.1,8.4a37.9,37.9,0,0,1,10.5,17.1c3.4,10.6,5,24.4,11.4,33.6a54.6,54.6,0,0,1,8.2,5.3c3.1,2.3,6.1,3.2,9.5,4.3l.3-.2c23.2,8.6,48.1,3.7,71.4-3.3a1.3,1.3,0,0,0,.9-1.2,49.1,49.1,0,0,0,5.6,4.9c8.4,5.9,17,11.7,24,19.4a54.7,54.7,0,0,1,8.2,11.5c2,3.9,2.7,8,4.3,11.9a12.3,12.3,0,0,0,11.8,8.1,1.1,1.1,0,0,0,1.1.6c10.2.2,23.5-4.3,31.6-10.8,3.6-2.8,5.1-6.3,5.8-10.8s1.6-9.9.8-14.2a.8.8,0,0,0,.2-.8c-.2-3.9-.7-8.8-4.3-11.1-6.7-4.5-16.6,1.9-23.9-1.4s-15.1-12-21.4-17.8l-1.1-1.1c9.1-2.6,19.8-7.8,25.4-15.5a17.1,17.1,0,0,0,4.8,6.3c3.1,2.5,6.9,2.8,10.5,4.3s4.8,3.3,7.7,3.8c-.6,4.1,1.6,7.5,5.2,9.8s7.1,3.1,10.6,4.7,5.5,2.8,8.6,2.9c7.1.4,15.7-3.7,22.1-6.3s12.2-5.3,13.5-12.3c.1-.4.1-.8.2-1.1,7.6.4,20.7.8,26.1-6S445.4,404.5,440.4,400.7Z" style="fill:#333031"/><path d="M440.4,400.7c-4.4-3.4-9.5-5.9-13.2-10.1s-6.3-9.9-9.9-14.5c-6.2-8.3-15-14.2-23.5-19.9h-.2a29.5,29.5,0,0,0-11-15.6h0l-.6-.4-.4-.3-.3-.2-2.4-1.5c-5.9-10.7-15.7-18-24.2-26.7-10.2-10.5-19-22.3-27.8-34.1a2.4,2.4,0,0,0-.9-.6v-2.2c-.5-8.9-4.8-17-8.4-25.1-.2-1.3-.5-2.5-.8-3.9,4.7,0,10.2-.1,11.8-5.6.9-2.8,0-5.6-.8-8.3-1.3-4.3-2.2-8.1-1.6-12.7a1.9,1.9,0,0,0-.2-.8,12.2,12.2,0,0,1,3.5-3.3,11.1,11.1,0,0,1,1.9-.9h.2c3.6-1.4,7.9-1.6,11.4-3.5a1.3,1.3,0,0,0,.6-1.2c4.2.2,8.7-.6,12.7-1.1a76.7,76.7,0,0,0,13.5-2.6,1.3,1.3,0,0,0,1.2.9,59.2,59.2,0,0,0,27.9-4.4c3.4-1.5,10.5-4.2,8.7-9.2-.2-.4-.5-.9-1-.9-2.3-.4-4.1.3-6.4,1.2-4.4,1.6-8,3.1-12.2,3.8l1.7-1.1c1.2-.8,3.4-1.9,3.8-3.5.9-3.4-1.8-4.7-4.6-4.4s-4.5,1.7-6.5,2.7a53.5,53.5,0,0,1-11.6,5,1.3,1.3,0,0,0-.8-.6,21.1,21.1,0,0,1-5.3-2.4c6.4-6.1,12.3-12.8,15.4-21.2,8.8-11.9,6.1-29.8-1.2-41.9-2.7-4.4-6.7-9-8.6-13.8s-2.6-10,1.6-12.4,5.1-.6,7.3,2,.4,12.5,6.8,13.2c3.6.4,9.5-3.6,9.7-7.6s-2.7-5.9-3.4-8.4-1.4-7.5-2.9-11c-5.6-13.4-22.6-10.1-32.1-2.8l-.4-.2c-6.7,4.8-12.1,10.9-13.3,19.5s1.9,16.3,3.9,24.2c1,4.3,3.3,12.7.7,17-3.9,6.3-12.6,1.8-17.6.1a110.8,110.8,0,0,1-28.1-14.7c-6.5-4.7-13.3-10.2-21.8-10.1S265,130,258.3,134.5c-8.5,5.6-16.7,11.5-23.9,18.8a1.1,1.1,0,0,0-.3,1.3c-12.5,4.8-25.1,10.2-35,19.5s-14.6,19.2-18.3,30.7a171,171,0,0,0-7.6,37.5c-.4,4.4-.4,9.5,3.3,12.5a13.8,13.8,0,0,0,4.2,2.1c2.2.9,4.1,1.8,5.9,2.7-10.8,13.6-17.9,29.4-24.9,45.3-5.5,12.6-10.5,25.7-11.5,39.4-1.9,9.8-2.8,21.2.5,30.7,1.2,3.6,3.4,5.9,6.1,8.4a37.9,37.9,0,0,1,10.5,17.1c3.4,10.7,5.1,24.6,11.5,33.7.3.1,5.2,4.2,7.7,5.6.3.3,9.5,4,9.6,4l6,1.5c21.7,6,44.5,1.3,66-5.1a1.3,1.3,0,0,0,.9-1.2,49.1,49.1,0,0,0,5.6,4.9c8.4,5.9,17,11.7,24,19.4a54.7,54.7,0,0,1,8.2,11.5c2,3.9,2.7,8,4.3,11.9a12.3,12.3,0,0,0,11.8,8.1,1.1,1.1,0,0,0,1.1.6c10.2.2,23.5-4.3,31.6-10.8,3.6-2.8,5.1-6.3,5.8-10.8s1.6-9.9.8-14.2a.8.8,0,0,0,.2-.8c-.2-3.9-.7-8.8-4.3-11.1-6.7-4.5-16.6,1.9-23.9-1.4s-15.1-12-21.4-17.8l-1.1-1.1c9.1-2.6,19.8-7.8,25.4-15.5a17.1,17.1,0,0,0,4.8,6.3c3.1,2.5,6.9,2.8,10.5,4.3s4.8,3.3,7.7,3.8c-.6,4.1,1.6,7.5,5.2,9.8s7.1,3.1,10.6,4.7,5.5,2.8,8.6,2.9c7.1.4,15.7-3.7,22.1-6.3s12.2-5.3,13.5-12.3c.1-.4.1-.8.2-1.1,7.6.4,20.7.8,26.1-6S445.4,404.5,440.4,400.7Zm-90.9-91c8,8.7,17.9,16,24.6,25.8a52.9,52.9,0,0,0-5.4-2.5c-7.7-3.2-15.7-5.4-23.1-9.5a89.3,89.3,0,0,1-25-21.6c2.4-7,4.6-14.2,5.3-21.5C333.4,290.4,340.9,300.5,349.5,309.7ZM326,239.2c-1.4,4.3-6.3,3.8-9.8,3.7a21.3,21.3,0,0,1-.4-9c.9-4,5.2-7,7.2-11l.3-.5a29.2,29.2,0,0,0,1.3,8.2C325.4,233.3,327,236.4,326,239.2ZM395.2,198l5.2-2.1,2.1-1.1c1.4-.8,2.8,1.5,1.3,2.3a53.6,53.6,0,0,1-12.7,5.1h-.8l-3.3.7a58.6,58.6,0,0,1-12.5,1l3.5-1.5,5.1-2.6h.6A37.4,37.4,0,0,0,395.2,198Zm-15.6-2.9c1.3-.6,3-2.1,4.6-2.8s.4-.6.8-.6h.1a1.2,1.2,0,0,1,.5-.5,10.2,10.2,0,0,1,2.9-1.1,1.3,1.3,0,0,1,1.3,2.2l-.6.5h.2l-4.2,2.6a75.2,75.2,0,0,1-15.1,7.3,82.9,82.9,0,0,1-15,2.9c-4.3.4-10,1.6-14.5.4a1.1,1.1,0,0,0-.7-.9c-5.5-2.6.4-9.2,3.9-8.8.5.1,1,1,1.6,1.2a59.7,59.7,0,0,0,10.3,1.6C364.1,199.7,371.9,199,379.6,195.1Zm-13.2,1.3h-1.1a29.9,29.9,0,0,1-5.2.1l2.6-2.3.3.3A36.5,36.5,0,0,0,366.4,196.4ZM355.7,420.7c-.6-.2-1.1-.8-1.7-1.1-4-2.1-8.1-.9-11.7-4.5a18.6,18.6,0,0,1-3.5-6.1,1.3,1.3,0,0,0-.4-1.2c-.4-1-.8-2.1-1.3-3.1-1.4-3-3.9-4.9-5.6-7.7-3.6-6-.7-9.6,4.7-12.5,3.2-1.8,6.6-3.3,9.7-5.4s9.5-5.3,9.3-10.1a1.4,1.4,0,0,0-1.3-1.4l-19.5.4c-6.7.1-13.9,1-20.5-.4-3.9-.8-6.4-1.3-10.4-.5-6,1.2-11.8,2.5-18,2.4-7.8-.2-11-3.7-15.7-9.2s-7.2-8.3-10.7-12.6c-7.8-9.7-14.7-19.9-19.8-31.3-.7-1.6-3-.2-2.3,1.3,8.2,18.2,21.2,34.4,34.7,48.8,5.4,5.9,11.9,6,19.6,5.4a93.8,93.8,0,0,0,11.8-2c5.8-1.2,10.5.8,16.2.9,3.4.1,31.8-1.3,31.9.3s-9.7,7.7-12.2,9-6.7,2.9-9.3,5.4c-4.2,3.9-3.7,8.7-.5,13.1s4.9,6.3,6.7,10.3c-5.2,8.3-17.3,13.9-26.5,16.3-5.7-5.2-11.2-10.5-16.8-15.9a183.5,183.5,0,0,1-18.3-19.1c-4.2-5.3-7.5-11.8-13-15.8s-11-3.8-17-3.7-13.5.5-19.7,3.7c-1.6.8-.2,3.1,1.3,2.3,6.6-3.4,14.2-3.6,21.5-3.4,9.4.3,14.4,4.1,19.6,11.5,8,11.1,17.4,20.5,27.3,29.9L307,426.8a1.4,1.4,0,0,0,1.6,1.4c5.8,5.5,11.8,10.8,18.1,15.8,3.5,2.8,6.8,5.6,11.5,5.9s7.3-.7,11-.6,7.1.2,9,2.4a6.2,6.2,0,0,1,1.2,3.4c-3-1.6-7.7.9-10.1,3.8-3.8,4.4-8.3,8.3-11.9,12.9s-6.5,10.2-9.3,15.6c-.7,1.6,1.6,2.9,2.4,1.4,3.4-6.9,7-13.7,12.4-19.2,2.1-2.2,4.5-4.3,6.5-6.6s2.1-3.3,3.6-4.1,2.4-1.6,3.9.3,3.3,1.6,2.6,3.7c1.5,8.4-1.8,17.8-9.2,21.8s-16.6,8-25.6,8a1.3,1.3,0,0,0-1.1-.5c-10.9.1-11.5-13.9-16-21.4a69.2,69.2,0,0,0-15.5-17.3c-6.5-5.5-14.1-9.6-20.5-15-4.8-4.1-7.7-9.8-14.1-11.4-1.7-.4-2.4,2.2-.7,2.6,4.1,1,7.5,4.4,10.8,7.8,0,.1-.1,0-.2.1-24.4,7.3-50.9,12.7-74.9,1.3-.5-.2-9-3.5-11.9-6.6-7.3-10.5-8.1-27.6-12.9-38.6a36.3,36.3,0,0,0-4.6-7.8c-3.3-4-7.9-6.5-9.8-11.6a40.6,40.6,0,0,1-2.1-10.7,1.3,1.3,0,0,1-.4-.9,81,81,0,0,1,2-16.5,9.7,9.7,0,0,1,.1-1.7,12.9,12.9,0,0,1,.4-1.9c0-.4,0-.7-.2-.9,1.5-13.1,6.6-25.6,11.9-37.7,6.7-15,13.5-30.1,23.9-43,0-.1.1-.1.1-.2l3.7,2.1a18.3,18.3,0,0,0,13.1,2.6c4-.6,7.7-2.3,11.5-3.2a55.2,55.2,0,0,1,14.6-1.3c7.5.1,15,1.1,22.6.7a161.3,161.3,0,0,0,24-3.4c8.1-1.7,25.2-3.1,26-14.4.2-4.1-2-7.6-4.4-10.7-5.2-6.5-11.8-12.3-17.6-18.4s-11.3-12.2-18-17c-3.3-2.3-6.9-4.2-10-6.6s-6.1-6.6-9-10.3c-4.8-6-15.1-12-20.7-3.4-.9,1.5,1.4,2.8,2.4,1.4,7.7-11.9,20.1,10.1,25.5,14.3,3.3,2.6,7,4.5,10.4,6.9,5.1,3.7,9.4,8.3,13.8,12.8l12.9,13.3c4.6,4.8,15.4,13.2,10.7,20.7-3,4.7-9.1,5.7-14.1,6.9s-12.3,2.8-18.5,3.8c-12.7,2-24.6.8-37.3.7a51.5,51.5,0,0,0-15.1,1.7c-7.1,1.9-13.6,4.8-20.6,1-3.6-1.9-6.6-4.5-10.5-5.8s-8.6-4-8.7-9.2c-.2-3.1.5-6.3,1-9.3a193.9,193.9,0,0,1,6-29.2c3.5-11.4,8.9-22.3,17.5-30.7s22.6-15,35.1-19.8a1.6,1.6,0,0,0,.9-1.8h.1c7.9-7.8,17.1-14.2,26.4-20.3s19.9-10.4,31.3-3.1c8,5.1,15.2,10.9,23.9,15.1a126.6,126.6,0,0,0,14.8,6.4c-4.9,2.9-9.6,8.3-9,13.8.2,1.7,2.9,1.7,2.7,0-.6-5.4,5.4-11,10.2-12.6l2.2.5a17.9,17.9,0,0,0-5.9,12.7c-.1,1.7,2.6,1.7,2.7,0a15.4,15.4,0,0,1,6.4-12l.2-.2h.6a11.2,11.2,0,0,0-.5,1.3,17.9,17.9,0,0,0-.9,7.3c.2,1.7,2.8,1.7,2.7,0a18.2,18.2,0,0,1,1.5-8.7c10.8-1.9,4.5-23.6,2.9-29.9-2.8-10.4-4.2-20.8,3.6-29.4a54.9,54.9,0,0,1,4.3-4,1.3,1.3,0,0,0,1.3-.2c7.1-6.3,22.5-11.6,28.5-1,1.9,3.5,2.2,7.7,3.2,11.4s2.7,5.7,2.4,8.6-5.1,6.9-7,2.8c-.2-.4.8-1.3.6-1.8a29.5,29.5,0,0,0-2.3-5.2c-1.8-3.2-3.2-7.6-7.5-7.5a12.7,12.7,0,0,0-10,7c-2,4.7,1.3,9.2,3.7,13,4.5,7.2,10.1,14.3,12,22.7s2.6,17.8-1.7,25.5a1.2,1.2,0,0,0-1.3.9l-.6,1.9-.7.9a1.2,1.2,0,0,0-.2,1.4c-4.2,9.5-12.4,16.8-20,23.6l-.3.4-3.3-.3a26.6,26.6,0,0,1-7.5-1.8c-.7-.3-.8-1.4-1.6-1.5-5.8-1.2-11.1,7.9-7.8,12.6a1.2,1.2,0,0,0,.3,1.9,16.3,16.3,0,0,0,3.7,1.3c-3.1,1.3-5.8,1.4-9.2,2.3l-1.5.5c-5.6.1-9.1-2.3-13.2-6.3-2-1.9-4-3.8-6.6-4.7-5-1.9-9.8-.3-12.4,4.3-.8,1.5,1.5,2.9,2.3,1.4,6.1-10.8,14.4,1.9,19.5,5.2a15.7,15.7,0,0,0,7.1,2.6c-2.9,2.9-4.3,5.8-6.5,9.5s-6.6,5.5-7.7,9.1.7,6,1.2,8.2l1.9,10.3a1,1,0,0,0,.6.8c3.6,8.1,7.6,16,7.5,25.1s-2.2,15.2-4.6,22.5a111.7,111.7,0,0,1-8.5-13c-.8-1.5-3.1-.1-2.3,1.4a128.7,128.7,0,0,0,9.7,14.7h0a1.2,1.2,0,0,0,1.5,1.6A91.1,91.1,0,0,0,339,322.5a88.2,88.2,0,0,0,21.2,10.2A89.3,89.3,0,0,1,381.5,343c6.2,4.7,10.5,11.8,10.5,19.7s-4.7,15.7-10.9,21.7c-8.9,8.5-12,17.5-13.9,29.4a1.1,1.1,0,0,0-1,1.5c1.7,3.3.3,4.8-4.4,4.6C359.3,422.5,357.2,422.7,355.7,420.7Zm61.9,2.7c-2,10.6-17.3,14.1-26.4,16.4-6.5,1.7-10.2.2-15.8-2.2s-14.1-3.9-12.6-11.3c4.9-1,7.3-5.7,6.4-10.2a1.5,1.5,0,0,0,.4-.8c1.4-9,3.1-18.1,9.5-25.2,1.9-2.2,4-4.1,6-6.1,4.2,4.2,6.8,9.6,11.7,13.2a13.5,13.5,0,0,0,6.9,2.5c2.7.5,4.9.4,7.1,1.8l-2.2-.4c-16.1-1.2-19,19.3-22.2,30.4-.4,1.7,2.2,2.4,2.6.7,2.6-9,3.5-22.1,13-27C414.6,398.6,419.3,414,417.6,423.4Zm24.5-5.4c-1.7,1.3-4.4,1.8-6.4,2.3a54.7,54.7,0,0,1-15.1,1c.3-5.2-.5-11.1-3.3-15.2a1.5,1.5,0,0,0,0-1.9c-3.9-4.6-6.8-6.6-12.7-7.2-9.1-.8-12-9.3-17.7-14.9a29,29,0,0,0,5.7-8.4,26.9,26.9,0,0,0,1.8-13.9c6.1,4.1,12.2,8.3,17.2,13.6s8.2,12.5,13,18.3,11.4,8,16.4,13C444.3,407.9,448.7,413.1,442.1,418Z" style="fill:#fff"/><path d="M298,164.8a15,15,0,0,0-8.8,1.9,1.2,1.2,0,0,0-1.1.3,11.7,11.7,0,0,0-2.9,3.4,8.5,8.5,0,0,0-.9,2.2c-.5,1.7,2,2.3,2.6.7a3.6,3.6,0,0,1,.4-1.1c1.6,1.3,3.6,2.4,5.7,1.4s2.5-3.6,2.5-5.8c0-.1-.1-.2-.1-.3H298C299.7,167.7,299.7,165,298,164.8Z" style="fill:#fff"/><path d="M379.6,195.1c1.3-.6,3-2.1,4.6-2.8s.4-.6.8-.6h.1a1.2,1.2,0,0,1,.5-.5,10.2,10.2,0,0,1,2.9-1.1,1.3,1.3,0,0,1,1.3,2.2l-.6.5h.2l-4.2,2.6a75.2,75.2,0,0,1-15.1,7.3,82.9,82.9,0,0,1-15,2.9c-4.3.4-10,1.6-14.5.4a1.1,1.1,0,0,0-.7-.9c-5.5-2.6.4-9.2,3.9-8.8.5.1,1,1,1.6,1.2a59.7,59.7,0,0,0,10.3,1.6C364.1,199.7,371.9,199,379.6,195.1Z" style="fill:#66c8c7"/><path d="M366.4,196.4h-1.1a29.9,29.9,0,0,1-5.2.1l2.6-2.3.3.3A36.5,36.5,0,0,0,366.4,196.4Z" style="fill:#66c8c7"/><path d="M395.2,198l5.2-2.1,2.1-1.1c1.4-.8,2.8,1.5,1.3,2.3a53.6,53.6,0,0,1-12.7,5.1h-.8l-3.3.7a58.6,58.6,0,0,1-12.5,1l3.5-1.5,5.1-2.6h.6A37.4,37.4,0,0,0,395.2,198Z" style="fill:#66c8c7"/></svg>