<svg xmlns="http://www.w3.org/2000/svg" xmlns:xlink="http://www.w3.org/1999/xlink" viewBox="0 0 504 504"><defs><clipPath id="a"><path d="M55.4,165.2V338.8a46.2,46.2,0,0,0,23.2,40l150.3,86.8a46,46,0,0,0,46.2,0l150.3-86.8a46.2,46.2,0,0,0,23.2-40V165.2a46.2,46.2,0,0,0-23.2-40L275.1,38.4a46,46,0,0,0-46.2,0L78.6,125.2A46.2,46.2,0,0,0,55.4,165.2Z" style="fill:none"/></clipPath></defs><title>illustr--v copy 3</title><path d="M55.4,165.2V338.8a46.2,46.2,0,0,0,23.2,40l150.3,86.8a46,46,0,0,0,46.2,0l150.3-86.8a46.2,46.2,0,0,0,23.2-40V165.2a46.2,46.2,0,0,0-23.2-40L275.1,38.4a46,46,0,0,0-46.2,0L78.6,125.2A46.2,46.2,0,0,0,55.4,165.2Z" style="fill:#fff;stroke:#8e8e8e;stroke-miterlimit:10"/><g style="clip-path:url(#a)"><path d="M262.4,193.3c-3.5,4.2-.1,12.3,2.4,16.4a47.2,47.2,0,0,0,8.7,9.7,10.9,10.9,0,0,0,.1-1.8,58.1,58.1,0,0,0-1.4-18.6,16.8,16.8,0,0,0-4.3-7.1C265.9,191.5,263.9,191.6,262.4,193.3Z" style="fill:#333031"/><path d="M228.2,211.1c3.1,4.4,5.4,9.5,7.6,14.3l.9,2.2c1.5,3.2,3,6.5,3.3,10v.7a17.1,17.1,0,0,1-.3,3.1v.3l.3.2a14.2,14.2,0,0,0,5.6,1.7,6.9,6.9,0,0,0,4.8-1.5,9.9,9.9,0,0,0,3.4-6c1.4-10.7.9-21.8-3.4-31.9a64.3,64.3,0,0,0-6.9-11.2,15.6,15.6,0,0,0-3.7-3.1,24.8,24.8,0,0,0-3-1.5h-.2c-4.4-1.7-9.4-1.9-13.8-3.3h-.5c-4.6-.4-7.4,1.5-11,3.9H211l-1.6,1c-4.4,2.8-5.4,5.6-5.6,10.7a2.3,2.3,0,0,1-.1.7v.8h.9A23.3,23.3,0,0,1,228.2,211.1Z" style="fill:#333031"/><path d="M240.7,189l.3.2,1.2.8a18.1,18.1,0,0,1,2.4,2.4,41.9,41.9,0,0,1,5.5,8.4,44,44,0,0,1,3.3,8.2,16.1,16.1,0,0,1,1,2.7,30.3,30.3,0,0,1,.9,5.1c.2,3,.9,6.4.8,9.5-.1,1.2-.3,2.5-.5,3.8s-.3,3.6-.5,5.4c1.3,5.7,12.5-1.3,14.7-4a15,15,0,0,0,1.9-3.2,36.8,36.8,0,0,0,.9-6.3,1.6,1.6,0,0,0-.6-1.3A55.5,55.5,0,0,1,260.3,207a21.2,21.2,0,0,1-1.8-9.1c0-6.9,2.9-8.9,7-8.8l-.9-1c-3.4-4.3-6.4-8.5-11-11.5s-8.7-4.6-13.5-3.8c-2.7.5-6.8,2.2-8.6,4.7a33.8,33.8,0,0,0-6.4,5.5c-.5.4-.3,1,.1,1.4C230.4,185.6,236.2,185.9,240.7,189Z" style="fill:#333031"/><path d="M251.5,174h.1c3.5.6,6.2,4.1,8.6,6.3a38.5,38.5,0,0,1,5.2,5.5l3,3.8c6,1.3,13.4,5.6,18.1,6.4a33,33,0,0,0-.7-6.9c-.1-1.1-.3-2.2-.4-3.3-.5-2.9-1.3-4-3.7-6.1a30.2,30.2,0,0,0-7-6.8h-.1a30.8,30.8,0,0,0-6.9-4.9c-5.7-3-12.6.6-17,4.5C249.9,173,250.7,174.1,251.5,174Z" style="fill:#333031"/><path d="M360.9,452.6h.1s-11.8-25-21.2-44.2h0c-14-28.6-29.9-61-32-67.9a158.2,158.2,0,0,1-4.5-19V321c-1.4-7.3-2.6-14.2-.3-21.7a34.3,34.3,0,0,1,1.9-4.8,29.2,29.2,0,0,0,2.5-8.1c.2-1.4.3-2.8.5-4.1v-.7l.6-5.1c1.1-6.1,2.5-11.9,3.6-16.3,2-7.9,3.3-14.1,1.8-21.8a148.4,148.4,0,0,0-6.3-20.6l-.5-1.5a21.5,21.5,0,0,1-1.2-5.6,54.2,54.2,0,0,0-3.7-5.6c-2.5-2.8-5.4-3.5-8.8-4.6a73.4,73.4,0,0,1-13.5-5.1v.2a39.1,39.1,0,0,0-13-4.7c-4.1-.6-6.5,1.5-7,5.5a11.3,11.3,0,0,0,.7,5.7c.9,4.8,3.9,8.2,7.2,11.8s7.3,8.2,11.7,10.8l1,1.7a31.2,31.2,0,0,1-.5,4.4,10.4,10.4,0,0,1-2.9,5.2l-1.7,2.4c-2.5,4-3.2,8.9-3.6,13.2l-.3,2.9v.5c-.1,1.3-.3,2.6-.4,4s-.1,1.2-.2,1.9v.2a8.6,8.6,0,0,1-.1,1.6v.4c0,.5-.1,1-.1,1.6v4h0a10.3,10.3,0,0,0,.1,1.8v.3c.1,1.3.2,2.5.4,3.7l.3,1.3a.7.7,0,0,1-.2.6c-.1,0-.1.1-.2.2h-.5l-.3-.2h-.1c-.1-.2-.2-.3-.2-.4-1.3-6.5-.7-13.3-.1-19.8l.3-3.8a41.1,41.1,0,0,1,2.3-11.6l2.9-5.4c.3-.4,1.7-2.8,2.3-3.5a6.3,6.3,0,0,0,.3-3.6,7.1,7.1,0,0,0-3-4.2.4.4,0,0,0-.7.3,20.1,20.1,0,0,1-1.6,6.4c-.4.5-.7,1.1-1.1,1.7s-.6.7-.8,1.1l-1.5,1.4a18.9,18.9,0,0,1-9.9,3.8,5.7,5.7,0,0,1-4.6-1.7,11.3,11.3,0,0,1-2.3,4.8l-.7.7h-.2l-.2.2-.3.3-.3.2h-.2l-.3.2-.4.2h-.4l-.5.2h-.3l-.5.2h-1.7a11,11,0,0,1-3.9-.5h-.4l-.6-.2h-.4l-.5-.2h-.1l-.5-.2-1.1-.5-.2.4a8.1,8.1,0,0,1-8.2,4.6l-1.1-.2-1.7-.5h-.2a17.7,17.7,0,0,1-3.1-1.5h-.4a26.9,26.9,0,0,1-4.2-3.6c-.2-.1-.3-.3-.5-.5l-.4-.5-.3-.4-.8-.9-.3-.4-.3.4a22.3,22.3,0,0,1-2.7,2.6l-.4.4-1.3.9-.2.2a16.2,16.2,0,0,1-8.4,3l-.5-.2a.8.8,0,0,1-.2-.5,1.4,1.4,0,0,1,.2-.6l.6-.2h.8l1.5-.3h.1l1.3-.4h.1l1.4-.6,1.2-.7.3-.2,1.2-.7h.1l.4-.4a17.5,17.5,0,0,0,3.6-3.6l.3-.2-.2-.3-1.1-1.6-.4-.6-1-1.5-.3-.5a17.4,17.4,0,0,1-1.1-1.8l-1.4-2.1a.4.4,0,0,0-.1-.3h0V229h.1c.1-.1.1-.2.2-.2a.8.8,0,0,1,1,.2h.1l.9,1.6.2.2c3.7,6.1,7.9,12.9,14.7,15.3a7.8,7.8,0,0,0,6.2-.2,7.2,7.2,0,0,0,3.5-4.1h0c1.3-4.8-.8-9.3-2.9-13.8h0l-.9-1.7c-.6-1.5-1.2-2.8-1.8-4l-1.4-2.1a41.2,41.2,0,0,1-2.7-4.5,52.8,52.8,0,0,0-3.5-5.6l-.7-.9a22.5,22.5,0,0,0-12.7-5.8h-3.1a17.1,17.1,0,0,0-2.5.3h-1.6l-.6.2h-.2a23.6,23.6,0,0,0-8.5,3.4c-2.8,1.9-4,4.3-4.3,8.3s-.5,8.6-.7,12.9h0c-.1,2.1-.2,4.5-.3,6.8s-.1,4.2-.2,6.1c-.2,4.6-.3,9.4-.9,14v.5a102.7,102.7,0,0,0,8.9,21.1c4.8,8.2,11.5,16.1,15.7,24.8A108.4,108.4,0,0,0,224,319.1a136.7,136.7,0,0,1,10.4,16c6.9,12.7,10.1,27.6,13.6,41.5s6.8,31,9.9,46.5c2,10.1,4,20.3,6.2,30.4s6.5,14.9,6.5,14.9h0c.1.1.1.2.2.2s3.3.5,4.9.8l8.1,1c5.2.6,10.3,1.2,15.5,1.3a224.7,224.7,0,0,0,30.7-1.6,79.3,79.3,0,0,0,26.9-8.2,7.6,7.6,0,0,0,4.4-7.6A4.7,4.7,0,0,0,360.9,452.6Z" style="fill:#333031"/><path d="M287.1,198.9c-5.2-.4-10.1-3.7-14.8-5.5l-1.5-.6a18.5,18.5,0,0,1,3.3,8.8c.4,5.7.9,10.9.5,16.7-.1.6-.1,1.2-.2,1.9l1.3,1.1a50.3,50.3,0,0,1,3.9,3.2c.1-.8.1-1.5.2-2.3l.3-3.6c1,2.1,2.4,4.7,2.6,7l-1.2,2.9a7.1,7.1,0,0,1-.6,2.8.8.8,0,0,0,1,.1,5.7,5.7,0,0,0,2.4-4.5,45,45,0,0,0,2.2-8.4c.7-5.1,1.5-10.9,1.1-15.9C287.4,201.4,287.3,200.1,287.1,198.9Z" style="fill:#333031"/><path d="M479.9,141.6l-171,46.9,14.9,4.2-26.5,9.1a11.8,11.8,0,0,1,4.9,3.3l.8,1a21.1,21.1,0,0,1,3.4,8,18.7,18.7,0,0,0,.7,2.2l.5,1.5h.1l74.6-24.6-36.4.6Z" style="fill:#66c8c7;stroke:#fff;stroke-miterlimit:10;stroke-width:0.557011663913727px"/><path d="M213.8,231l-78.4,27.4,31.3-.2L23.5,320.4l191.6-61.6-22.3-3,33.1-10.9C220.6,242,217,236.2,213.8,231Z" style="fill:#66c8c7;stroke:#fff;stroke-miterlimit:10;stroke-width:0.557011663913727px"/></g></svg>