<svg xmlns="http://www.w3.org/2000/svg" viewBox="0 0 432 432"><title>illustr--Artboard 7</title><path d="M301.9,127.1c-1.3-.7-2.6-1.1-6.2-1.1H136.3c-3.6,0-4.9.4-6.2,1.1a7.2,7.2,0,0,0-3,3c-.7,1.3-1.1,2.6-1.1,6.2V295.7c0,3.6.4,4.9,1.1,6.2a7.2,7.2,0,0,0,3,3c1.3.7,2.6,1.1,6.2,1.1H295.7c3.6,0,4.9-.4,6.2-1.1a7.2,7.2,0,0,0,3-3c.7-1.3,1.1-2.6,1.1-6.2V136.3c0-3.6-.4-4.9-1.1-6.2A7.2,7.2,0,0,0,301.9,127.1ZM305,295.7c0,3.7-.4,4.7-1,5.7a5.5,5.5,0,0,1-2.6,2.6c-1,.6-2,1-5.7,1H136.3c-3.7,0-4.7-.4-5.7-1a5.5,5.5,0,0,1-2.6-2.6c-.6-1-1-2-1-5.7V136.3c0-3.7.4-4.7,1-5.7a5.5,5.5,0,0,1,2.6-2.6c1-.6,2-1,5.7-1H295.7c3.7,0,4.7.4,5.7,1a5.5,5.5,0,0,1,2.6,2.6c.6,1,1,2,1,5.7Z" style="fill:#afadad"/><rect x="185.7" y="237.2" width="54.5" height="27.82" rx="1.8" ry="1.8" transform="translate(157.3 -73.4) rotate(30.6)" style="fill:#66c8c7;stroke:#fff;stroke-miterlimit:10;stroke-width:0.960370319864721px"/><rect x="188.2" y="239.6" width="49.6" height="23.07" rx="0.8" ry="0.8" transform="translate(157.3 -73.4) rotate(30.6)" style="fill:none;stroke:#fff;stroke-miterlimit:10;stroke-width:0.834440128729709px"/><path d="M239.5,253.4l-4.7-2.8a4.9,4.9,0,0,0-1.1,1.4,6.7,6.7,0,0,0,2.1,9.2l4-6.7A.8.8,0,0,0,239.5,253.4Z" style="fill:none;stroke:#fff;stroke-miterlimit:10;stroke-width:0.834440128729709px"/><path d="M198.2,229l4.7,2.8a11.1,11.1,0,0,1-.7,1.6,6.7,6.7,0,0,1-9.1,2.5l4-6.6A.8.8,0,0,1,198.2,229Z" style="fill:none;stroke:#fff;stroke-miterlimit:10;stroke-width:0.834440128729709px"/><path d="M227.8,273.3l-4.8-2.8a12.2,12.2,0,0,1,.7-1.7,6.7,6.7,0,0,1,9.1-2.5l-4,6.7A.7.7,0,0,1,227.8,273.3Z" style="fill:none;stroke:#fff;stroke-miterlimit:10;stroke-width:0.834440128729709px"/><path d="M186.4,248.8l4.8,2.9a13.4,13.4,0,0,0,1.1-1.4,6.7,6.7,0,0,0-2.2-9.2l-4,6.7A.7.7,0,0,0,186.4,248.8Z" style="fill:none;stroke:#fff;stroke-miterlimit:10;stroke-width:0.834440128729709px"/><ellipse cx="213" cy="251.1" rx="8.8" ry="6.6" transform="translate(-111.6 306.8) rotate(-59.4)" style="fill:none;stroke:#fff;stroke-miterlimit:10;stroke-width:0.766161684467629px"/><path d="M214.5,345.5a4.5,4.5,0,0,1-2.5-.7l-44.5-26.5a4.9,4.9,0,0,1-2.4-4.1V252.3a4.9,4.9,0,0,1,4.8-4.8H259a4.8,4.8,0,0,1,4.8,4.8v61.9a5,5,0,0,1-2.3,4.1l-44.6,26.5A4.2,4.2,0,0,1,214.5,345.5Zm-3.9-9.5h-.1l2,1.2.6.3-.5-.4-2-1.2Zm7.8,0-2,1.2-.5.3h0l.5-.2,2-1.2Zm-12.8-2.9h0l2.5,1.5-2.5-1.5Zm17.7,0-2.4,1.5,2.5-1.4h-.1Zm-22.6-3h-.1l2.5,1.6-2.4-1.6Zm27.6,0-2.5,1.5,2.5-1.4Zm-32.6-2.9h0l2.5,1.5-2.5-1.5Zm37.6,0-2.5,1.4,2.5-1.4Zm-42.6-3h0l2.5,1.6-2.4-1.6Zm47.5,0-2.5,1.5,2.6-1.4Zm-52.4-3h-.1l2.5,1.5-2.4-1.5Zm57.4.1-2.5,1.4,2.5-1.4h0Zm-62.4-3h0l2.5,1.5-2.5-1.5Zm67.3,0-2.4,1.5,2.5-1.4h-.1Zm-72.3-3h0l2.5,1.5-2.4-1.6Zm77.3,0-2.5,1.5,2.5-1.4Zm-81.3-3.8a3.6,3.6,0,0,0,1.5,2.4,3.7,3.7,0,0,1-1.4-2.4Zm85.4,0h-.1a3.8,3.8,0,0,1-1.5,2.4,3.7,3.7,0,0,0,1.6-2.4Zm-85.5-5.8h0v0Zm85.5,0h0v0ZM171.7,300h0v0Zm85.5-.1h0v0Zm-85.5-5.7h0v0Zm85.5,0h0v0Zm-85.5-5.8h0v0Zm85.5,0h0v0Zm-85.5-5.8h0v0Zm85.5,0h0v0Zm-85.5-5.7h0v0Zm85.5-.1h0v0Zm-85.5-5.7h0v0Zm85.5,0h0v0Zm-85.5-5.8h0v0Zm85.5,0h0v0Zm-85.5-5.8h0v0Zm85.5,0h0v0Zm0-4.3h0v0Zm-85.5,0h0v0Z" style="fill:#333031"/><path d="M259,248a4.3,4.3,0,0,1,4.3,4.3v61.9a4.1,4.1,0,0,1-2.1,3.6l-44.5,26.6a4.6,4.6,0,0,1-2.2.6,4.3,4.3,0,0,1-2.2-.6l-44.6-26.6a4.1,4.1,0,0,1-2.1-3.6V252.3a4.3,4.3,0,0,1,4.3-4.3H259m-1.8,9.2a.6.6,0,0,0,.6-.5v-1.5a.6.6,0,0,0-.6-.5.5.5,0,0,0-.5.5v1.5a.5.5,0,0,0,.5.5m-85.5,0a.6.6,0,0,0,.6-.5v-1.5a.6.6,0,0,0-.6-.5.5.5,0,0,0-.5.5v1.5a.5.5,0,0,0,.5.5m85.5,5.8a.6.6,0,0,0,.6-.6v-2.8a.6.6,0,0,0-.6-.6.6.6,0,0,0-.5.6v2.8a.6.6,0,0,0,.5.6m-85.5,0a.6.6,0,0,0,.6-.5v-2.9a.6.6,0,0,0-.6-.6.6.6,0,0,0-.5.6v2.9a.5.5,0,0,0,.5.5m85.5,5.8a.6.6,0,0,0,.6-.6v-2.9a.6.6,0,0,0-.6-.5.5.5,0,0,0-.5.5v2.9a.6.6,0,0,0,.5.6m-85.5,0a.6.6,0,0,0,.6-.6v-2.9a.6.6,0,0,0-.6-.5.5.5,0,0,0-.5.5v2.9a.6.6,0,0,0,.5.6m85.5,5.7a.6.6,0,0,0,.6-.5v-2.9a.6.6,0,0,0-.6-.5.5.5,0,0,0-.5.5V274a.5.5,0,0,0,.5.5m-85.5,0a.6.6,0,0,0,.6-.5v-2.9a.6.6,0,0,0-.6-.5.5.5,0,0,0-.5.5V274a.5.5,0,0,0,.5.5m85.5,5.8a.6.6,0,0,0,.6-.5v-2.9a.6.6,0,0,0-.6-.6.6.6,0,0,0-.5.6v2.9a.5.5,0,0,0,.5.5m-85.5,0a.6.6,0,0,0,.6-.5v-2.9a.6.6,0,0,0-.6-.5.5.5,0,0,0-.5.5v2.9a.5.5,0,0,0,.5.5m85.5,5.8a.6.6,0,0,0,.6-.6v-2.8a.6.6,0,0,0-.6-.6.6.6,0,0,0-.5.6v2.8a.6.6,0,0,0,.5.6m-85.5,0a.6.6,0,0,0,.6-.5v-2.9a.6.6,0,0,0-.6-.6.6.6,0,0,0-.5.6v2.9a.5.5,0,0,0,.5.5m85.5,5.8a.6.6,0,0,0,.6-.6v-2.9a.6.6,0,0,0-.6-.5.5.5,0,0,0-.5.5v2.9a.6.6,0,0,0,.5.6m-85.5,0a.6.6,0,0,0,.6-.6v-2.9a.6.6,0,0,0-.6-.5.5.5,0,0,0-.5.5v2.9a.6.6,0,0,0,.5.6m85.5,5.7a.6.6,0,0,0,.6-.5v-2.9a.6.6,0,0,0-.6-.5.5.5,0,0,0-.5.5v2.9a.5.5,0,0,0,.5.5m-85.5,0a.6.6,0,0,0,.6-.5v-2.9a.6.6,0,0,0-.6-.5.5.5,0,0,0-.5.5v2.9a.5.5,0,0,0,.5.5m85.5,5.8a.6.6,0,0,0,.6-.5V300a.6.6,0,0,0-.6-.6.6.6,0,0,0-.5.6v2.9a.5.5,0,0,0,.5.5m-85.5,0a.6.6,0,0,0,.6-.5V300a.6.6,0,0,0-.6-.5.5.5,0,0,0-.5.5v2.9a.5.5,0,0,0,.5.5m85.5,5.8a.6.6,0,0,0,.6-.5v-2.9a.6.6,0,0,0-.6-.6.6.6,0,0,0-.5.6v2.9a.5.5,0,0,0,.5.5m-85.5,0a.6.6,0,0,0,.6-.5v-2.9a.6.6,0,0,0-.6-.6.6.6,0,0,0-.5.6v2.9a.5.5,0,0,0,.5.5m83.9,5.2h.3a4.2,4.2,0,0,0,1.8-2.7.7.7,0,0,0-.4-.6h-.1a.7.7,0,0,0-.6.4,2.8,2.8,0,0,1-1.3,2,.5.5,0,0,0-.1.8l.4.2m-82.2,0,.4-.2a.6.6,0,0,0-.1-.8,3,3,0,0,1-1.4-2,.5.5,0,0,0-.5-.4h-.1a.6.6,0,0,0-.4.7,3.9,3.9,0,0,0,1.8,2.6h.3m77.2,3h.3l2.5-1.5c.3-.1.3-.4.2-.7a.5.5,0,0,0-.5-.3h-.3l-2.4,1.5a.4.4,0,0,0-.2.7.5.5,0,0,0,.4.3m-72.3,0a.5.5,0,0,0,.5-.3c.1-.2.1-.6-.2-.7l-2.5-1.5h-.3a.5.5,0,0,0-.4.3.4.4,0,0,0,.2.7l2.5,1.5h.2m67.4,2.9h.3l2.4-1.5c.3-.2.4-.5.2-.7a.5.5,0,0,0-.4-.3h-.3l-2.5,1.4a.6.6,0,0,0-.2.8c.1.2.3.2.5.2m-62.4.1a.5.5,0,0,0,.5-.3.8.8,0,0,0-.2-.8l-2.5-1.4h-.3a.5.5,0,0,0-.5.3.7.7,0,0,0,.2.7l2.5,1.5h.3m57.4,2.9h.3l2.5-1.4a.8.8,0,0,0,.2-.8.5.5,0,0,0-.5-.3h-.3l-2.5,1.5a.5.5,0,0,0-.1.7c.1.2.2.3.4.3m-52.4,0a.5.5,0,0,0,.4-.3c.2-.2.1-.5-.2-.7l-2.5-1.5h-.2a.5.5,0,0,0-.5.3.6.6,0,0,0,.2.8l2.5,1.4h.3m47.5,3h.2l2.5-1.5a.4.4,0,0,0,.2-.7.5.5,0,0,0-.5-.3c-.1,0-.2,0-.2.1l-2.5,1.5a.4.4,0,0,0-.2.7.5.5,0,0,0,.5.3m-42.6,0a.5.5,0,0,0,.5-.3.6.6,0,0,0-.2-.7l-2.5-1.5h-.3c-.2,0-.3.1-.4.3a.4.4,0,0,0,.2.7l2.4,1.5h.3m37.6,2.9h.3l2.5-1.4a.6.6,0,0,0,.1-.8l-.4-.2H233l-2.5,1.5a.8.8,0,0,0-.2.8l.5.2m-32.6,0a.5.5,0,0,0,.4-.2.6.6,0,0,0-.1-.8l-2.5-1.5h-.3l-.5.2a.8.8,0,0,0,.2.8l2.5,1.4h.3m27.6,3h.3l2.5-1.5c.3-.1.3-.5.2-.7a.5.5,0,0,0-.5-.3H228l-2.4,1.5a.4.4,0,0,0-.2.7.5.5,0,0,0,.4.3m-22.7,0a.5.5,0,0,0,.5-.3.4.4,0,0,0-.2-.7l-2.5-1.5h-.2a.5.5,0,0,0-.5.3.4.4,0,0,0,.2.7l2.5,1.5h.2m17.8,2.9h.3l2.4-1.5a.5.5,0,0,0,.2-.8l-.4-.2h-.3l-2.5,1.4a.6.6,0,0,0-.2.8l.5.2m-12.8,0,.5-.2a.8.8,0,0,0-.2-.8l-2.5-1.4h-.3l-.4.2a.6.6,0,0,0,.1.8l2.5,1.5h.3m7.8,3h.2l.6-.3,2-1.2a.6.6,0,0,0,.2-.7.5.5,0,0,0-.5-.3h-.3l-2,1.2-.4.2a.5.5,0,0,0-.3.7.7.7,0,0,0,.5.4m-2.8,0a.7.7,0,0,0,.5-.4.5.5,0,0,0-.3-.7l-.5-.2-1.9-1.2h-.3a.5.5,0,0,0-.5.3c-.1.3-.1.6.2.7l2,1.2.6.3h.2M259,247H169.9a5.3,5.3,0,0,0-5.3,5.3v61.9a5.4,5.4,0,0,0,2.6,4.5l44.6,26.6a6,6,0,0,0,2.7.7,6.4,6.4,0,0,0,2.7-.7l44.6-26.6a5.5,5.5,0,0,0,2.5-4.5V252.3A5.3,5.3,0,0,0,259,247Z" style="fill:#fff"/><path d="M265.4,185.7c-1.2-2.5-2.1-3.6-3-5.4a28.6,28.6,0,0,1-1.5-4.1,53.6,53.6,0,0,0-4.7-10c-1.8-2.9-4.5-4-7.6-5.1s-7-2.2-8.9-5.1-4.1-6.7-6.2-10-4.3-5.7-6.4-8.7a105.5,105.5,0,0,0-6.9-8.1,23.1,23.1,0,0,1-5.2-7.9c-1.2-2.8-2.1-5.3-2.4-11.6s-.7-9.7-1.1-15.1-.3-10.3-.2-18c.1-5.9.4-7.8.6-10.5a2.1,2.1,0,0,0-1.6-2.2c-13.2-3.7-29.8-1.7-39.4,8a1.9,1.9,0,0,0-.5,1.9l3,14,4.5,19.7c1.4,6.1,2.4,12.2,3.3,18.4a139.6,139.6,0,0,1,1.3,22.4c0,3.9.4,7.8-.4,11.7s-1.8,7.2-2,11.1a86.6,86.6,0,0,0-.1,11.4,29.8,29.8,0,0,0,2.4,10.1v.3a13.8,13.8,0,0,0,5.4,6.3l.5.3a81.7,81.7,0,0,0,9.3,5.6h.2l1.1.5a1.3,1.3,0,0,0,1.7-.9l.3-1.4c.3-2.2.3-3.7-.8-5.5a14,14,0,0,0-2.3-3,30.7,30.7,0,0,1-2.5-2.6l-.9-1.1a10.9,10.9,0,0,1-1.9-4.5c-.9-4.1.9-7.6,3.1-10.9a19.9,19.9,0,0,1,2.2-2.7h0l.8-.9c2.2-2.5,5.4-4,8.6-2.8a11.6,11.6,0,0,1,6.6,6.6c1.1,3.2,1,7,1,10.3s.3,7.1-.2,10.5-2.3,6.2-3.7,9.1-3.5,6.8-4,10.4c-.1,1.5.1,4,1.1,5.1s2.3.6,3.4.3c3-1.1,4.5-4.6,6-7.2a65.4,65.4,0,0,1,6.3-8.6c2.2-2.8,4.2-5.4,4.7-9a57.3,57.3,0,0,0,.8-10.1c-.1-2,.1-4,0-6,0-.3-.1-.9.1-1.2a.6.6,0,0,1,1-.3c1.1,1.2,1.3,2.9,1.9,4.3s1.4,2.8,2.3,4.7l.6,1.6c.8,2.1,1.3,3.4.9,5.6s-1.8,5.4-2.4,8.2a21.3,21.3,0,0,0-.5,8.3h0l.8,1.2a2.3,2.3,0,0,0,3.6-.2c2.4-2.7,3.4-5.8,5.1-8.9v-.2a11.9,11.9,0,0,0,.8-1.6c.4-1.4,1.3-3.9,1.6-5.4a20.7,20.7,0,0,0,.6-8.9c-1-5.1-5-9.1-6.2-14.2a.7.7,0,0,1,.1-.5.5.5,0,0,1,.5-.3c.4,0,.7.5.9.8s1.3,3.1,2.1,4.5l2,3.1h0a24,24,0,0,1,2.3,7.9c.1,1,0,2,0,3v.4a21.9,21.9,0,0,1-.4,2.7,2.3,2.3,0,0,0,.1,1.8c.6,1.5,1.1,2.8,1.8,4.2a9.5,9.5,0,0,0,3,3,5.4,5.4,0,0,0,2.1.8c7,.9,1.4-14.1.8-16.6s-1.8-7-3.3-10.4-1.7-5.3-3.5-7.3c-.4-.5-1.4-1-1.6-1.6s-.1-1.2.5-1.2,1.9,1.8,2.2,2.1c2.2,2.7,3,6,4.2,9.1,2.1,5.5,2.3,13.2,9.5,13.8a3.1,3.1,0,0,0,3.5-2.8A6.2,6.2,0,0,0,265.4,185.7Z" style="fill:#333031"/></svg>