<svg xmlns="http://www.w3.org/2000/svg" viewBox="0 0 504 504"><title>illustr--Artboard 16 copyv 2</title><path d="M390.9,112.7c-2.1-1.1-4.2-1.7-10-1.7H121.2c-5.8,0-7.9.6-10.1,1.7a12.8,12.8,0,0,0-4.9,4.9c-1.1,2.2-1.7,4.3-1.7,10.1V387.4c0,5.8.6,7.9,1.7,10a12.4,12.4,0,0,0,4.9,5c2.2,1.1,4.3,1.7,10.1,1.7H380.9c5.8,0,7.9-.6,10-1.7a12.1,12.1,0,0,0,5-5c1.1-2.1,1.7-4.2,1.7-10V127.7c0-5.8-.6-7.9-1.7-10.1A12.4,12.4,0,0,0,390.9,112.7ZM396,387.4c0,5.9-.7,7.6-1.6,9.3a10.6,10.6,0,0,1-4.2,4.2c-1.7.9-3.4,1.6-9.3,1.6H121.2c-5.9,0-7.6-.7-9.3-1.6a10,10,0,0,1-4.2-4.2c-.9-1.7-1.6-3.4-1.6-9.3V127.7c0-5.9.7-7.7,1.6-9.3a9.5,9.5,0,0,1,4.2-4.2c1.7-.9,3.4-1.6,9.3-1.6H380.9c5.9,0,7.6.7,9.3,1.6a10,10,0,0,1,4.2,4.2c.9,1.6,1.6,3.4,1.6,9.3Z" style="fill:#afadad"/><path d="M438.5,239.1l-18-1.6v-.2a107.3,107.3,0,0,0-60.2-66,72.7,72.7,0,0,0-4.8-18.3c-1.9-4.6-4.3-12.2-10.5-11.8s-14.8,7-20.3,10.4-8.1,5.5-11.9,8.4l-77.5-14.7h0a109.9,109.9,0,0,0-17.8-1.4A125.7,125.7,0,0,0,99.9,225.7,9.4,9.4,0,0,1,86,222c-1.5-3-1.9-6.9,0-9.9s6.3-4.4,7.2-.1,9.5,3.2,8.4-2.3-8.4-10.3-14.7-8.7-11.4,10.5-10.7,17.8A19.3,19.3,0,0,0,96.5,236a128.7,128.7,0,0,0-4.6,33.7,125.7,125.7,0,0,0,62.4,108.6c-1.5,7.3-5.1,18.6-5.4,26.1-.2,4.3.2,8.6,4,11.4s13.3,4.1,19.2,4.7a123.9,123.9,0,0,0,13.6.7,7.7,7.7,0,0,0,4.2-1.3,61.9,61.9,0,0,0,15-16l1.1-1.8a30,30,0,0,1,3.1-5c7,0,48.3-2.2,61.6-4.2,18.3-2.7,24.1-4.6,34-9.5,4.4,10.6,0,0,6.8,16.6,1.6,4,2.5,8.3,5.7,11.2s12.1,4.8,18.7,5.1a50.9,50.9,0,0,0,7.7-.1,12.4,12.4,0,0,0,10.8-10.3c2-11.7.2-32,1.5-35.4a2.4,2.4,0,0,0,.2-.8,107,107,0,0,0,55.5-47.3l19.3,1.8a8.1,8.1,0,0,0,8.7-7.4l6.2-68.9A8,8,0,0,0,438.5,239.1Z" style="fill:#333031"/><path d="M307.4,286.7c0-5.8-13.8-10.4-30.8-10.3s-30.7,4.7-30.7,10.4v3.6c0,5.7,13.8,10.3,30.7,10.3s30.8-4.7,30.8-10.4Z" style="fill:#333031"/><ellipse cx="276.6" cy="285.4" rx="30.8" ry="9" style="fill:#66c8c7"/><path d="M307.4,278.1c0-5.8-13.8-10.4-30.8-10.3s-30.7,4.7-30.7,10.4v3.6c0,5.7,13.8,10.3,30.7,10.3s30.8-4.7,30.8-10.5Z" style="fill:#333031"/><ellipse cx="276.6" cy="276.7" rx="30.8" ry="9" style="fill:#66c8c7"/><path d="M307.4,269.4c0-5.8-13.8-10.4-30.8-10.3s-30.7,4.6-30.7,10.4v3.6c0,5.7,13.8,10.3,30.7,10.3s30.8-4.7,30.8-10.5Z" style="fill:#333031"/><ellipse cx="276.6" cy="268" rx="30.8" ry="9" style="fill:#66c8c7"/><path d="M307.4,261.4c0-5.7-13.8-10.3-30.8-10.3s-30.7,4.7-30.7,10.4v3.6c0,5.7,13.8,10.3,30.7,10.3s30.8-4.7,30.8-10.4Z" style="fill:#333031"/><ellipse cx="276.6" cy="260.1" rx="30.8" ry="9" style="fill:#66c8c7"/><path d="M307.4,252.8c0-5.8-13.8-10.4-30.8-10.3s-30.7,4.7-30.7,10.4v3.6c0,5.7,13.8,10.3,30.7,10.3s30.8-4.7,30.8-10.4Z" style="fill:#333031"/><ellipse cx="276.6" cy="251.5" rx="30.8" ry="9" style="fill:#66c8c7"/><path d="M307.4,244.1c0-5.8-13.8-10.4-30.8-10.3s-30.7,4.7-30.7,10.4v3.6c0,5.7,13.8,10.3,30.7,10.3s30.8-4.7,30.8-10.4Z" style="fill:#333031"/><ellipse cx="276.6" cy="242.8" rx="30.8" ry="9" style="fill:#66c8c7"/><path d="M307.4,236.1c0-5.7-13.8-10.3-30.8-10.3s-30.7,4.7-30.7,10.4v3.6c0,5.7,13.8,10.3,30.7,10.3s30.8-4.7,30.8-10.4Z" style="fill:#333031"/><ellipse cx="276.6" cy="234.8" rx="30.8" ry="9" style="fill:#66c8c7"/><path d="M307.4,227.5c0-5.7-13.8-10.4-30.8-10.3s-30.7,4.7-30.7,10.4v3.6c0,5.7,13.8,10.3,30.7,10.3s30.8-4.7,30.8-10.4Z" style="fill:#333031"/><ellipse cx="276.6" cy="226.2" rx="30.8" ry="9" style="fill:#66c8c7"/><path d="M223.4,290.6c0-5.7-13.8-10.3-30.8-10.3s-30.7,4.7-30.7,10.4v3.6c0,5.8,13.8,10.4,30.8,10.3s30.7-4.7,30.7-10.4Z" style="fill:#333031"/><ellipse cx="192.6" cy="289.3" rx="30.8" ry="9" style="fill:#66c8c7"/><path d="M223.4,282c0-5.7-13.8-10.3-30.8-10.3s-30.7,4.7-30.7,10.4v3.6c0,5.7,13.8,10.4,30.8,10.3s30.7-4.7,30.7-10.4Z" style="fill:#333031"/><ellipse cx="192.6" cy="280.7" rx="30.8" ry="9" style="fill:#66c8c7"/><path d="M223.4,273.3c0-5.7-13.8-10.3-30.8-10.3s-30.7,4.7-30.7,10.4V277c0,5.7,13.8,10.4,30.8,10.3s30.7-4.7,30.7-10.4Z" style="fill:#333031"/><ellipse cx="192.6" cy="272" rx="30.8" ry="9" style="fill:#66c8c7"/><path d="M223.4,265.3c0-5.7-13.8-10.3-30.8-10.3s-30.7,4.7-30.7,10.5v3.6c0,5.7,13.8,10.3,30.8,10.3s30.7-4.7,30.7-10.5Z" style="fill:#333031"/><ellipse cx="192.6" cy="264" rx="30.8" ry="9" style="fill:#66c8c7"/><path d="M223.4,256.7c0-5.7-13.8-10.3-30.8-10.3s-30.7,4.7-30.7,10.4v3.6c0,5.8,13.8,10.4,30.8,10.3s30.7-4.7,30.7-10.4Z" style="fill:#333031"/><ellipse cx="192.6" cy="255.4" rx="30.8" ry="9" style="fill:#66c8c7"/><path d="M223.4,248c0-5.7-13.8-10.3-30.8-10.3s-30.7,4.7-30.7,10.4v3.6c0,5.8,13.8,10.4,30.8,10.3s30.7-4.7,30.7-10.4Z" style="fill:#333031"/><ellipse cx="192.6" cy="246.7" rx="30.8" ry="9" style="fill:#66c8c7"/><path d="M223.4,240.1c0-5.8-13.8-10.4-30.8-10.3s-30.7,4.7-30.7,10.4v3.6c0,5.7,13.8,10.3,30.8,10.3s30.7-4.7,30.7-10.4Z" style="fill:#333031"/><ellipse cx="192.6" cy="238.8" rx="30.8" ry="9" style="fill:#66c8c7"/><path d="M223.4,231.4c0-5.7-13.8-10.3-30.8-10.3s-30.7,4.7-30.7,10.5v3.6c0,5.7,13.8,10.3,30.8,10.3s30.7-4.7,30.7-10.5Z" style="fill:#333031"/><ellipse cx="192.6" cy="230.1" rx="30.8" ry="9" style="fill:#66c8c7"/><path d="M223.4,222.7c0-5.7-13.8-10.3-30.8-10.3s-30.7,4.7-30.7,10.5v3.6c0,5.7,13.8,10.3,30.8,10.3s30.7-4.7,30.7-10.5Z" style="fill:#333031"/><ellipse cx="192.6" cy="221.4" rx="30.8" ry="9" style="fill:#66c8c7"/><path d="M223.4,214.8c0-5.8-13.8-10.4-30.8-10.3s-30.7,4.7-30.7,10.4v3.6c0,5.7,13.8,10.3,30.8,10.3s30.7-4.7,30.7-10.4Z" style="fill:#333031"/><ellipse cx="192.6" cy="213.5" rx="30.8" ry="9" style="fill:#66c8c7"/><path d="M223.4,206.2c0-5.8-13.8-10.4-30.8-10.3s-30.7,4.6-30.7,10.4v3.6c0,5.7,13.8,10.3,30.8,10.3s30.7-4.7,30.7-10.5Z" style="fill:#333031"/><ellipse cx="192.6" cy="204.8" rx="30.8" ry="9" style="fill:#66c8c7"/><path d="M279.4,309.3c0-5.7-13.8-10.3-30.8-10.3s-30.7,4.7-30.7,10.5V313c0,5.8,13.8,10.4,30.7,10.3s30.8-4.7,30.8-10.4Z" style="fill:#333031"/><ellipse cx="248.6" cy="308" rx="30.8" ry="9" style="fill:#66c8c7"/><path d="M279.4,300.7c0-5.7-13.8-10.3-30.8-10.3s-30.7,4.7-30.7,10.4v3.6c0,5.7,13.8,10.4,30.7,10.3s30.8-4.7,30.8-10.4Z" style="fill:#333031"/><ellipse cx="248.6" cy="299.4" rx="30.8" ry="9" style="fill:#66c8c7"/><path d="M279.4,292c0-5.7-13.8-10.3-30.8-10.3s-30.7,4.7-30.7,10.4v3.6c0,5.7,13.8,10.4,30.7,10.3s30.8-4.7,30.8-10.4Z" style="fill:#333031"/><ellipse cx="248.6" cy="290.7" rx="30.8" ry="9" style="fill:#66c8c7"/><path d="M279.4,284c0-5.7-13.8-10.3-30.8-10.3s-30.7,4.7-30.7,10.5v3.6c0,5.7,13.8,10.3,30.7,10.3s30.8-4.7,30.8-10.5Z" style="fill:#333031"/><ellipse cx="248.6" cy="282.7" rx="30.8" ry="9" style="fill:#66c8c7"/><path d="M279.4,275.4c0-5.7-13.8-10.3-30.8-10.3s-30.7,4.7-30.7,10.4v3.6c0,5.8,13.8,10.4,30.7,10.3s30.8-4.7,30.8-10.4Z" style="fill:#333031"/><ellipse cx="248.6" cy="274.1" rx="30.8" ry="9" style="fill:#66c8c7"/><path d="M279.4,266.7c0-5.7-13.8-10.3-30.8-10.3s-30.7,4.7-30.7,10.4v3.6c0,5.8,13.8,10.4,30.7,10.3s30.8-4.7,30.8-10.4Z" style="fill:#333031"/><ellipse cx="248.6" cy="265.4" rx="30.8" ry="9" style="fill:#66c8c7"/><path d="M279.4,258.8c0-5.8-13.8-10.4-30.8-10.3s-30.7,4.7-30.7,10.4v3.6c0,5.7,13.8,10.3,30.7,10.3s30.8-4.7,30.8-10.4Z" style="fill:#333031"/><ellipse cx="248.6" cy="257.5" rx="30.8" ry="9" style="fill:#66c8c7"/><path d="M279.4,250.1c0-5.7-13.8-10.3-30.8-10.3s-30.7,4.7-30.7,10.5v3.6c0,5.7,13.8,10.3,30.7,10.3s30.8-4.7,30.8-10.5Z" style="fill:#333031"/><ellipse cx="248.6" cy="248.8" rx="30.8" ry="9" style="fill:#66c8c7"/><path d="M336.4,304.8c0-5.8-13.9-10.4-31-10.4s-31,4.8-31,10.5v3.7c0,5.7,13.9,10.4,31,10.3s31-4.7,31-10.5Z" style="fill:#333031"/><ellipse cx="305.4" cy="303.5" rx="31" ry="9.1" style="fill:#66c8c7"/><path d="M398.7,304.8c0-5.8-13.9-10.4-31-10.4s-31.1,4.8-31,10.5v3.7c0,5.7,13.9,10.4,31,10.3s31-4.7,31-10.5Z" style="fill:#333031"/><ellipse cx="367.7" cy="303.5" rx="31" ry="9.1" style="fill:#66c8c7"/><path d="M363.1,292.5c0-5.7-13.9-10.4-31.1-10.3s-31,4.7-31,10.5v3.6c.1,5.8,14,10.4,31.1,10.4s31-4.8,31-10.5Z" style="fill:#333031"/><ellipse cx="332.1" cy="291.2" rx="31" ry="9.1" style="fill:#66c8c7"/><path d="M191.8,320.1c0-5.8-13.9-10.4-31-10.4s-31,4.7-31,10.5v3.6c0,5.8,13.9,10.4,31,10.4s31-4.7,31-10.5Z" style="fill:#333031"/><ellipse cx="160.8" cy="318.8" rx="31" ry="9.1" style="fill:#66c8c7"/><path d="M247.5,320.1c0-5.8-13.9-10.4-31-10.4s-31,4.7-31,10.5v3.6c0,5.8,13.9,10.4,31.1,10.4s31-4.7,30.9-10.5Z" style="fill:#333031"/><ellipse cx="216.5" cy="318.8" rx="31" ry="9.1" style="fill:#66c8c7"/><path d="M222.8,307.8c0-5.8-13.9-10.4-31-10.4s-31,4.8-31,10.5v3.7c0,5.7,13.9,10.4,31,10.3s31-4.7,31-10.5Z" style="fill:#333031"/><ellipse cx="191.8" cy="306.5" rx="31" ry="9.1" style="fill:#66c8c7"/><path d="M247.3,307.1c1.1-5.6-11.6-12.8-28.4-16.1s-31.4-1.3-32.5,4.4l-.7,3.6c-1.1,5.6,11.7,12.9,28.5,16.1s31.4,1.3,32.4-4.4Z" style="fill:#333031"/><ellipse cx="217.1" cy="299.9" rx="9.1" ry="31" transform="translate(-118.7 455.8) rotate(-79)" style="fill:#66c8c7"/><path d="M270.2,321.3c0-5.8-13.9-10.4-31-10.4s-31,4.7-31,10.5V325c0,5.8,13.9,10.4,31.1,10.4s31-4.7,30.9-10.5Z" style="fill:#333031"/><ellipse cx="239.2" cy="320" rx="31" ry="9.1" style="fill:#66c8c7"/><path d="M332.5,321.3c0-5.8-13.9-10.4-31-10.4s-31,4.7-31,10.5V325c0,5.8,13.9,10.4,31,10.4s31-4.7,31-10.5Z" style="fill:#333031"/><ellipse cx="301.5" cy="320" rx="31" ry="9.1" style="fill:#66c8c7"/><path d="M296.9,309c0-5.8-13.9-10.4-31-10.4s-31,4.8-31,10.5v3.7c0,5.7,13.9,10.4,31,10.4s31-4.8,31-10.6Z" style="fill:#333031"/><ellipse cx="265.9" cy="307.7" rx="31" ry="9.1" style="fill:#66c8c7"/><path d="M256.1,301.7c-1.2-5.7-15.7-7.6-32.5-4.2s-29.5,10.6-28.4,16.2l.7,3.6c1.1,5.6,15.7,7.5,32.5,4.2s29.5-10.6,28.4-16.3Z" style="fill:#333031"/><ellipse cx="225.4" cy="306.4" rx="31" ry="9.1" transform="translate(-54.7 49) rotate(-11.1)" style="fill:#66c8c7"/><path d="M289.1,301.9c.9-5.7-12-12.6-29-15.3s-31.3-.3-32.2,5.4l-.6,3.6c-.9,5.7,12,12.5,29,15.2s31.3.3,32.2-5.4Z" style="fill:#333031"/><ellipse cx="258.7" cy="295.6" rx="9.1" ry="31" transform="translate(-74.6 503.4) rotate(-80.7)" style="fill:#66c8c7"/><path d="M284.7,286.6c.4-5.8-13.1-11.5-30.2-12.7s-31.3,2.4-31.7,8.2l-.2,3.6c-.5,5.8,13.1,11.4,30.1,12.7s31.3-2.5,31.7-8.2Z" style="fill:#333031"/><ellipse cx="253.9" cy="283" rx="9.1" ry="31" transform="translate(-47.1 515.2) rotate(-85.8)" style="fill:#66c8c7"/><path d="M371.4,319.1c.8-5.7-12.4-12.2-29.4-14.4s-31.3.5-32.1,6.3l-.5,3.6c-.7,5.7,12.4,12.1,29.4,14.4s31.4-.6,32.1-6.3Z" style="fill:#333031"/><ellipse cx="340.8" cy="313.7" rx="9.1" ry="31" transform="translate(-15.4 609.7) rotate(-82.3)" style="fill:#66c8c7"/><path d="M271.9,268.4c-.4-5.7-14.6-9.4-31.7-8.2s-30.6,6.9-30.1,12.7l.2,3.6c.4,5.8,14.6,9.4,31.7,8.2s30.6-6.9,30.2-12.7Z" style="fill:#333031"/><ellipse cx="240.9" cy="269.3" rx="31" ry="9.1" transform="translate(-18.3 17.6) rotate(-4)" style="fill:#66c8c7"/></svg>