<?xml version="1.0" encoding="utf-8"?>
<!-- Generator: Adobe Illustrator 22.0.1, SVG Export Plug-In . SVG Version: 6.00 Build 0)  -->
<svg version="1.1" id="Layer_1" xmlns="http://www.w3.org/2000/svg" xmlns:xlink="http://www.w3.org/1999/xlink" x="0px" y="0px"
	 viewBox="0 0 360 428.7" style="enable-background:new 0 0 360 428.7;" xml:space="preserve">
<style type="text/css">
	.st0{fill:#AFADAD;}
	.st1{fill-rule:evenodd;clip-rule:evenodd;fill:#66C8C7;}
	.st2{fill:#FFFFFF;}
	.st3{fill-rule:evenodd;clip-rule:evenodd;fill:none;}
	.st4{fill:#231F20;}
	.st5{fill-rule:evenodd;clip-rule:evenodd;fill:#231F20;}
</style>
<title>illustr--splashPage</title>
<path class="st0" d="M285.2,129.3c-1.6-0.9-3.3-1.4-7.8-1.4H77.1c-4.5,0-6.2,0.5-7.8,1.4c-1.6,0.8-2.9,2.2-3.8,3.8
	c-0.9,1.6-1.4,3.3-1.4,7.8v200.4c0,4.5,0.5,6.2,1.4,7.8c0.8,1.6,2.2,2.9,3.8,3.8c1.6,0.9,3.3,1.4,7.8,1.4h200.4
	c4.5,0,6.2-0.5,7.8-1.4c1.6-0.8,2.9-2.2,3.8-3.8c0.9-1.6,1.4-3.3,1.4-7.8V140.8c0-4.5-0.5-6.2-1.4-7.8
	C288.2,131.4,286.8,130.1,285.2,129.3z M289.1,341.2c0,4.7-0.5,5.9-1.3,7.2c-0.7,1.4-1.8,2.6-3.3,3.3c-1.3,0.8-2.5,1.3-7.2,1.3H77.1
	c-4.7,0-5.9-0.5-7.2-1.3c-1.4-0.7-2.6-1.8-3.3-3.3c-0.8-1.3-1.3-2.5-1.3-7.2V140.8c0-4.7,0.5-5.9,1.3-7.2c0.7-1.4,1.8-2.6,3.3-3.3
	c1.3-0.8,2.5-1.3,7.2-1.3h200.4c4.7,0,5.9,0.5,7.2,1.3c1.4,0.7,2.6,1.8,3.3,3.3c0.8,1.3,1.3,2.5,1.3,7.2L289.1,341.2z"/>
<g>
	<path class="st1" d="M137.4,191.9l17.5-25.7c0.4-0.6,1.2-0.8,1.8-0.4l44.1,26.9c1.2,0.7,0.7,2.6-0.7,2.6l-61.5-1.2
		C137.5,194.1,136.8,192.8,137.4,191.9"/>
</g>
<path class="st2" d="M200.2,194.3l-42-25.1c-0.9-0.5-2.1-0.3-2.6,0.6l-16.7,24.1c-0.4,0.6-0.5,1.4-0.1,2c0.3,0.6,1,1.1,1.7,1.1
	l22.3,0.4c-2.7,6.3-1.6,13,3,16c1.5,1,3.2,1.5,5.1,1.5c0.8,0,1.6-0.1,2.4-0.3c3.9-0.8,7.6-3.6,10.2-7.5c1.9-3,2.9-6.2,2.9-9.3
	l12.8,0.2c0,0,0,0,0,0c0.9,0,1.7-0.6,1.9-1.4C201.3,195.6,201,194.7,200.2,194.3z M182.3,206.3c-2.3,3.6-5.7,6.2-9.3,6.9
	c-2.4,0.5-4.7,0.2-6.5-1c-4.2-2.7-5-9-2.3-14.8l20.8,0.4C184.9,200.5,184.1,203.5,182.3,206.3z M164.9,196c0.2-0.3,0.3-0.5,0.5-0.8
	c2.3-3.6,5.7-6.2,9.3-6.9c0.7-0.2,1.4-0.2,2.1-0.2c1.6,0,3.1,0.4,4.4,1.3c2.3,1.5,3.6,4.1,3.8,7.1L164.9,196z M199.8,196.1
	c0,0.1-0.1,0.5-0.6,0.5l-12.9-0.2c-0.3-3.4-1.7-6.5-4.4-8.2c-2.1-1.4-4.7-1.8-7.5-1.2c-3.9,0.8-7.6,3.6-10.1,7.5
	c-0.3,0.5-0.6,1-0.9,1.5l-22.9-0.4c-0.4,0-0.5-0.2-0.6-0.4c-0.1-0.1-0.2-0.4,0-0.7l16.7-24.1c0.2-0.3,0.6-0.4,0.9-0.2l42,25.1
	C199.9,195.6,199.8,196,199.8,196.1z"/>
<g>
	<path class="st3" d="M234.5,278.9l-56,33.3c-1.7,1-3.8,1-5.5,0l-56-33.3c-1.6-1-2.6-2.7-2.6-4.6v-77.6c0-3,2.4-5.4,5.4-5.4h111.9
		c3,0,5.4,2.4,5.4,5.4v77.6C237.1,276.2,236.1,278,234.5,278.9"/>
</g>
<g id="XMLID_2_">
	<g>
		<path class="st2" d="M237.8,196.7v77.6c0,2.1-1.1,4.1-2.9,5.2l-56,33.3c-1,0.6-2,0.9-3.1,0.9c-1.1,0-2.1-0.3-3.1-0.9l-56-33.3
			c-1.8-1.1-3-3.1-3-5.2v-77.6c0-3.3,2.7-6,6-6h111.9C235.1,190.7,237.8,193.4,237.8,196.7z M236.4,274.3v-77.6
			c0-2.6-2.1-4.7-4.7-4.7H119.8c-2.6,0-4.7,2.1-4.7,4.7v77.6c0,1.6,0.9,3.2,2.3,4l56,33.3c1.5,0.9,3.3,0.9,4.8,0l56-33.3
			C235.6,277.5,236.4,276,236.4,274.3z"/>
		<path class="st4" d="M236.4,196.7v77.6c0,1.6-0.9,3.2-2.3,4l-56,33.3c-1.5,0.9-3.3,0.9-4.8,0l-56-33.3c-1.4-0.8-2.3-2.4-2.3-4
			v-77.6c0-2.6,2.1-4.7,4.7-4.7h111.9C234.3,192,236.4,194.1,236.4,196.7z"/>
	</g>
	<g>
	</g>
</g>
<path class="st2" d="M158,181.1c-3.4,0-6.3-2.6-6.4-2.7l0.9-1c0,0,3.3,3,6.7,2.2c2.1-0.5,3.8-2.3,5.1-5.4l1.2,0.5
	c-1.5,3.6-3.5,5.6-6.1,6.2C158.9,181.1,158.5,181.1,158,181.1z"/>
<g>
	<path class="st2" d="M229.2,202.7c-0.3,0-0.5-0.2-0.5-0.5v-2c0-0.3,0.2-0.5,0.5-0.5s0.5,0.2,0.5,0.5v2
		C229.7,202.5,229.5,202.7,229.2,202.7z"/>
</g>
<g>
	<path class="st2" d="M175.3,304.6C175.3,304.6,175.3,304.6,175.3,304.6c-0.6,0-1.1-0.1-1.6-0.3c-0.3-0.1-0.4-0.4-0.3-0.6
		c0.1-0.3,0.4-0.4,0.6-0.3c0.4,0.1,0.9,0.2,1.3,0.2c0.3,0,0.7,0,1-0.1c0.3-0.1,0.5,0.1,0.6,0.4c0.1,0.3-0.1,0.5-0.4,0.6
		C176.1,304.6,175.7,304.6,175.3,304.6z M178.8,303.3c-0.2,0-0.3-0.1-0.4-0.2c-0.1-0.2-0.1-0.5,0.2-0.7l2.3-1.4
		c0.2-0.1,0.5-0.1,0.7,0.2c0.1,0.2,0.1,0.5-0.2,0.7l-2.3,1.4C179,303.3,178.9,303.3,178.8,303.3z M171.5,303.1c-0.1,0-0.2,0-0.3-0.1
		l-2.3-1.4c-0.2-0.1-0.3-0.4-0.2-0.7c0.1-0.2,0.4-0.3,0.7-0.2l2.3,1.4c0.2,0.1,0.3,0.4,0.2,0.7C171.8,303.1,171.6,303.1,171.5,303.1
		z M183.4,300.6c-0.2,0-0.3-0.1-0.4-0.2c-0.1-0.2-0.1-0.5,0.2-0.7l2.3-1.4c0.2-0.1,0.5-0.1,0.7,0.2c0.1,0.2,0.1,0.5-0.2,0.7
		l-2.3,1.4C183.6,300.6,183.5,300.6,183.4,300.6z M166.9,300.4c-0.1,0-0.2,0-0.3-0.1l-2.3-1.4c-0.2-0.1-0.3-0.4-0.2-0.7
		c0.1-0.2,0.5-0.3,0.7-0.2l2.3,1.4c0.2,0.1,0.3,0.4,0.2,0.7C167.2,300.3,167.1,300.4,166.9,300.4z M188,297.9
		c-0.2,0-0.3-0.1-0.4-0.2c-0.1-0.2-0.1-0.5,0.2-0.7l2.3-1.4c0.2-0.1,0.5-0.1,0.7,0.2c0.1,0.2,0.1,0.5-0.2,0.7l-2.3,1.4
		C188.1,297.9,188,297.9,188,297.9z M162.3,297.7c-0.1,0-0.2,0-0.3-0.1l-2.3-1.4c-0.2-0.1-0.3-0.4-0.2-0.7c0.1-0.2,0.4-0.3,0.7-0.2
		l2.3,1.4c0.2,0.1,0.3,0.4,0.2,0.7C162.6,297.6,162.5,297.7,162.3,297.7z M192.5,295.2c-0.2,0-0.3-0.1-0.4-0.2
		c-0.1-0.2-0.1-0.5,0.2-0.7l2.3-1.4c0.2-0.1,0.5-0.1,0.7,0.2c0.1,0.2,0.1,0.5-0.2,0.7l-2.3,1.4C192.7,295.2,192.6,295.2,192.5,295.2
		z M157.7,295c-0.1,0-0.2,0-0.3-0.1l-2.3-1.4c-0.2-0.1-0.3-0.4-0.2-0.7c0.1-0.2,0.4-0.3,0.7-0.2l2.3,1.4c0.2,0.1,0.3,0.4,0.2,0.7
		C158.1,294.9,157.9,295,157.7,295z M197.1,292.5c-0.2,0-0.3-0.1-0.4-0.2c-0.1-0.2-0.1-0.5,0.2-0.7l2.3-1.4c0.2-0.1,0.5-0.1,0.7,0.2
		c0.1,0.2,0.1,0.5-0.2,0.7l-2.3,1.4C197.3,292.4,197.2,292.5,197.1,292.5z M153.2,292.3c-0.1,0-0.2,0-0.3-0.1l-2.3-1.4
		c-0.2-0.1-0.3-0.4-0.2-0.7c0.1-0.2,0.4-0.3,0.7-0.2l2.3,1.4c0.2,0.1,0.3,0.4,0.2,0.7C153.5,292.2,153.3,292.3,153.2,292.3z
		 M201.7,289.8c-0.2,0-0.3-0.1-0.4-0.2c-0.1-0.2-0.1-0.5,0.2-0.7l2.3-1.4c0.2-0.1,0.5-0.1,0.7,0.2c0.1,0.2,0.1,0.5-0.2,0.7l-2.3,1.4
		C201.9,289.7,201.8,289.8,201.7,289.8z M148.6,289.6c-0.1,0-0.2,0-0.3-0.1l-2.3-1.4c-0.2-0.1-0.3-0.4-0.2-0.7
		c0.1-0.2,0.4-0.3,0.7-0.2l2.3,1.4c0.2,0.1,0.3,0.4,0.2,0.7C148.9,289.5,148.8,289.6,148.6,289.6z M206.3,287
		c-0.2,0-0.3-0.1-0.4-0.2c-0.1-0.2-0.1-0.5,0.2-0.7l2.3-1.4c0.2-0.1,0.5-0.1,0.7,0.2c0.1,0.2,0.1,0.5-0.2,0.7l-2.3,1.4
		C206.4,287,206.4,287,206.3,287z M144,286.9c-0.1,0-0.2,0-0.3-0.1l-2.3-1.4c-0.2-0.1-0.3-0.4-0.2-0.7c0.1-0.2,0.4-0.3,0.7-0.2
		l2.3,1.4c0.2,0.1,0.3,0.4,0.2,0.7C144.3,286.8,144.2,286.9,144,286.9z M210.8,284.3c-0.2,0-0.3-0.1-0.4-0.2
		c-0.1-0.2-0.1-0.5,0.2-0.7l2.3-1.4c0.2-0.1,0.5-0.1,0.7,0.2c0.1,0.2,0.1,0.5-0.2,0.7l-2.3,1.4C211,284.3,210.9,284.3,210.8,284.3z
		 M139.4,284.2c-0.1,0-0.2,0-0.3-0.1l-2.3-1.4c-0.2-0.1-0.3-0.4-0.2-0.7c0.1-0.2,0.4-0.3,0.7-0.2l2.3,1.4c0.2,0.1,0.3,0.4,0.2,0.7
		C139.8,284.1,139.6,284.2,139.4,284.2z M215.4,281.6c-0.2,0-0.3-0.1-0.4-0.2c-0.1-0.2-0.1-0.5,0.2-0.7l2.3-1.4
		c0.2-0.1,0.5-0.1,0.7,0.2c0.1,0.2,0.1,0.5-0.2,0.7l-2.3,1.4C215.6,281.6,215.5,281.6,215.4,281.6z M134.8,281.4
		c-0.1,0-0.2,0-0.3-0.1l-2.3-1.4c-0.2-0.1-0.3-0.4-0.2-0.7c0.1-0.2,0.4-0.3,0.7-0.2l2.3,1.4c0.2,0.1,0.3,0.4,0.2,0.7
		C135.2,281.4,135,281.4,134.8,281.4z M220,278.9c-0.2,0-0.3-0.1-0.4-0.2c-0.1-0.2-0.1-0.5,0.2-0.7l2.3-1.4c0.2-0.1,0.5-0.1,0.7,0.2
		c0.1,0.2,0.1,0.5-0.2,0.7l-2.3,1.4C220.2,278.9,220.1,278.9,220,278.9z M130.3,278.7c-0.1,0-0.2,0-0.3-0.1l-2.3-1.4
		c-0.2-0.1-0.3-0.4-0.2-0.7s0.4-0.3,0.7-0.2l2.3,1.4c0.2,0.1,0.3,0.4,0.2,0.7C130.6,278.6,130.4,278.7,130.3,278.7z M224.6,276.2
		c-0.2,0-0.3-0.1-0.4-0.2c-0.1-0.2-0.1-0.5,0.2-0.7l2.3-1.4c0.2-0.1,0.5-0.1,0.7,0.2c0.1,0.2,0.1,0.5-0.2,0.7l-2.3,1.4
		C224.7,276.2,224.7,276.2,224.6,276.2z M125.7,276c-0.1,0-0.2,0-0.3-0.1l-2-1.2c-0.1-0.1-0.2-0.1-0.3-0.2c-0.2-0.2-0.3-0.5-0.1-0.7
		c0.2-0.2,0.5-0.3,0.7-0.1c0.1,0.1,0.2,0.1,0.2,0.1l2,1.2c0.2,0.1,0.3,0.4,0.2,0.7C126,275.9,125.9,276,125.7,276z M228.7,272.9
		c-0.1,0-0.2,0-0.2-0.1c-0.2-0.1-0.3-0.4-0.2-0.7c0.3-0.6,0.5-1.3,0.5-1.9v-0.4c0-0.3,0.2-0.5,0.5-0.5s0.5,0.2,0.5,0.5v0.4
		c0,0.8-0.2,1.6-0.6,2.4C229,272.8,228.8,272.9,228.7,272.9z M121.7,272.6c-0.2,0-0.4-0.1-0.5-0.3c-0.3-0.6-0.4-1.3-0.4-2v-0.8
		c0-0.3,0.2-0.5,0.5-0.5c0.3,0,0.5,0.2,0.5,0.5v0.8c0,0.6,0.1,1.1,0.3,1.6c0.1,0.3,0,0.5-0.3,0.7
		C121.9,272.6,121.8,272.6,121.7,272.6z M229.2,267.7c-0.3,0-0.5-0.2-0.5-0.5v-2.7c0-0.3,0.2-0.5,0.5-0.5s0.5,0.2,0.5,0.5v2.7
		C229.7,267.5,229.5,267.7,229.2,267.7z M121.4,267.4c-0.3,0-0.5-0.2-0.5-0.5v-2.7c0-0.3,0.2-0.5,0.5-0.5c0.3,0,0.5,0.2,0.5,0.5v2.7
		C121.9,267.1,121.6,267.4,121.4,267.4z M229.2,262.4c-0.3,0-0.5-0.2-0.5-0.5v-2.7c0-0.3,0.2-0.5,0.5-0.5s0.5,0.2,0.5,0.5v2.7
		C229.7,262.2,229.5,262.4,229.2,262.4z M121.4,262c-0.3,0-0.5-0.2-0.5-0.5v-2.7c0-0.3,0.2-0.5,0.5-0.5c0.3,0,0.5,0.2,0.5,0.5v2.7
		C121.9,261.8,121.6,262,121.4,262z M229.2,257.1c-0.3,0-0.5-0.2-0.5-0.5v-2.7c0-0.3,0.2-0.5,0.5-0.5s0.5,0.2,0.5,0.5v2.7
		C229.7,256.8,229.5,257.1,229.2,257.1z M121.4,256.7c-0.3,0-0.5-0.2-0.5-0.5v-2.7c0-0.3,0.2-0.5,0.5-0.5c0.3,0,0.5,0.2,0.5,0.5v2.7
		C121.9,256.5,121.6,256.7,121.4,256.7z M229.2,251.7c-0.3,0-0.5-0.2-0.5-0.5v-2.7c0-0.3,0.2-0.5,0.5-0.5s0.5,0.2,0.5,0.5v2.7
		C229.7,251.5,229.5,251.7,229.2,251.7z M121.4,251.4c-0.3,0-0.5-0.2-0.5-0.5v-2.7c0-0.3,0.2-0.5,0.5-0.5c0.3,0,0.5,0.2,0.5,0.5v2.7
		C121.9,251.2,121.6,251.4,121.4,251.4z M229.2,246.4c-0.3,0-0.5-0.2-0.5-0.5v-2.7c0-0.3,0.2-0.5,0.5-0.5s0.5,0.2,0.5,0.5v2.7
		C229.7,246.2,229.5,246.4,229.2,246.4z M121.4,246.1c-0.3,0-0.5-0.2-0.5-0.5v-2.7c0-0.3,0.2-0.5,0.5-0.5c0.3,0,0.5,0.2,0.5,0.5v2.7
		C121.9,245.8,121.6,246.1,121.4,246.1z M229.2,241.1c-0.3,0-0.5-0.2-0.5-0.5v-2.7c0-0.3,0.2-0.5,0.5-0.5s0.5,0.2,0.5,0.5v2.7
		C229.7,240.9,229.5,241.1,229.2,241.1z M121.4,240.8c-0.3,0-0.5-0.2-0.5-0.5v-2.7c0-0.3,0.2-0.5,0.5-0.5c0.3,0,0.5,0.2,0.5,0.5v2.7
		C121.9,240.5,121.6,240.8,121.4,240.8z M229.2,235.8c-0.3,0-0.5-0.2-0.5-0.5v-2.7c0-0.3,0.2-0.5,0.5-0.5s0.5,0.2,0.5,0.5v2.7
		C229.7,235.5,229.5,235.8,229.2,235.8z M121.4,235.4c-0.3,0-0.5-0.2-0.5-0.5v-2.7c0-0.3,0.2-0.5,0.5-0.5c0.3,0,0.5,0.2,0.5,0.5v2.7
		C121.9,235.2,121.6,235.4,121.4,235.4z M229.2,230.5c-0.3,0-0.5-0.2-0.5-0.5v-2.7c0-0.3,0.2-0.5,0.5-0.5s0.5,0.2,0.5,0.5v2.7
		C229.7,230.2,229.5,230.5,229.2,230.5z M121.4,230.1c-0.3,0-0.5-0.2-0.5-0.5V227c0-0.3,0.2-0.5,0.5-0.5c0.3,0,0.5,0.2,0.5,0.5v2.7
		C121.9,229.9,121.6,230.1,121.4,230.1z M229.2,225.1c-0.3,0-0.5-0.2-0.5-0.5V222c0-0.3,0.2-0.5,0.5-0.5s0.5,0.2,0.5,0.5v2.7
		C229.7,224.9,229.5,225.1,229.2,225.1z M121.4,224.8c-0.3,0-0.5-0.2-0.5-0.5v-2.7c0-0.3,0.2-0.5,0.5-0.5c0.3,0,0.5,0.2,0.5,0.5v2.7
		C121.9,224.6,121.6,224.8,121.4,224.8z M229.2,219.8c-0.3,0-0.5-0.2-0.5-0.5v-2.7c0-0.3,0.2-0.5,0.5-0.5s0.5,0.2,0.5,0.5v2.7
		C229.7,219.6,229.5,219.8,229.2,219.8z M121.4,219.5c-0.3,0-0.5-0.2-0.5-0.5v-2.7c0-0.3,0.2-0.5,0.5-0.5c0.3,0,0.5,0.2,0.5,0.5v2.7
		C121.9,219.2,121.6,219.5,121.4,219.5z M229.2,214.5c-0.3,0-0.5-0.2-0.5-0.5v-2.7c0-0.3,0.2-0.5,0.5-0.5s0.5,0.2,0.5,0.5v2.7
		C229.7,214.3,229.5,214.5,229.2,214.5z M121.4,214.1c-0.3,0-0.5-0.2-0.5-0.5V211c0-0.3,0.2-0.5,0.5-0.5c0.3,0,0.5,0.2,0.5,0.5v2.7
		C121.9,213.9,121.6,214.1,121.4,214.1z M229.2,209.2c-0.3,0-0.5-0.2-0.5-0.5V206c0-0.3,0.2-0.5,0.5-0.5s0.5,0.2,0.5,0.5v2.7
		C229.7,208.9,229.5,209.2,229.2,209.2z M121.4,208.8c-0.3,0-0.5-0.2-0.5-0.5v-2.7c0-0.3,0.2-0.5,0.5-0.5c0.3,0,0.5,0.2,0.5,0.5v2.7
		C121.9,208.6,121.6,208.8,121.4,208.8z"/>
</g>
<g>
	<path class="st2" d="M121.4,202.7c-0.3,0-0.5-0.2-0.5-0.5v-2c0-0.3,0.2-0.5,0.5-0.5c0.3,0,0.5,0.2,0.5,0.5v2
		C121.9,202.5,121.6,202.7,121.4,202.7z"/>
</g>
<path class="st5" d="M115.9,7.5c5.4-2.6,11.1-4.4,16.9-5.4c12.2-2.1,23.3,1,33.1,3.8l0.4,0.2c0.9,0.4,1.5,1.2,1.5,2.2
	c0.1,1.9,0.1,3.2,0,4.7c0,2.2-0.1,4.7,0.2,9.8l0.1,1.9c0.4,7.5,0.6,11.6,1.6,18.7c0.3,2.2,0.6,4.1,0.9,6c0.5,3.5,1,6.9,1.5,11.2
	c0.8,6.9,2,9.7,3.6,12.9c1.5,3.1,3.6,5.8,6.5,8.6l0.7,0.7c2.7,2.5,5.5,5.1,7.9,8c1,1.2,2.1,2.5,3.1,3.6c1.6,1.9,3.3,3.8,4.9,5.8
	c1.2,1.5,2.3,3.1,3.4,4.7c1.5,2,3,4.2,4.5,6.2c2,2.6,5.3,3.5,8.6,4.4c0.6,0.2,1.2,0.3,1.8,0.5c3.4,1,6.8,2.1,9.3,5.5
	c2.5,3.5,4.6,7.3,6.2,11.2c0.7,1.7,1.4,3.1,2.1,4.4c0.6,1,1.1,1.8,1.7,2.6c0.6,0.9,1.3,1.9,2.2,3.3l0.1,0.2c0.9,1.6,1.6,2.7,1.5,5.3
	c0,0.3-0.1,0.7-0.1,1c-0.5,1.8-2.1,3-4.1,3c-6.8-0.1-8.8-5.6-10.7-11c-0.5-1.5-1.1-3-1.7-4.3c-0.4-0.8-0.7-1.6-1.1-2.4
	c-1.2-2.7-2.3-5.3-4.4-7.5c-1-1.1-2.1-2-2.4-2.1c0,0-0.1,0-0.1,0.2c0,0.2,0,0.4,0.1,0.6c0.2,0.3,0.6,0.6,1,0.9
	c0.3,0.2,0.6,0.4,0.9,0.6c1.6,1.6,2.6,3.7,3.5,5.8c0.4,0.9,0.8,1.7,1.2,2.5c1.5,2.9,2.5,5.7,3.5,8.7c0.3,1,0.7,1.9,1,2.9
	c0.1,0.3,0.3,0.7,0.5,1.2c1.4,3.5,4.6,11.6,3.5,15.7c-0.5,1.9-1.9,2.8-3.9,2.7c-0.9-0.1-1.8-0.3-2.6-0.7c-1.6-0.7-3-2-4-3.7
	c-0.6-1-1.1-1.9-1.6-3c-0.2-0.5-0.5-0.9-0.7-1.4c-0.4-0.7-0.5-1.5-0.3-2.3c0.1-0.9,0.2-1.8,0.3-2.6c0-0.3,0-0.6,0-0.9
	c0-0.4,0-0.8-0.1-1.2c0-0.8-0.1-1.5-0.2-2.3c-0.5-3.2-1.9-6.2-3.2-8.7c-0.8-1.1-1.7-2.2-2.4-3.4c-0.5-0.7-0.9-1.5-1.3-2.3
	c-0.5-1-0.9-1.9-1.5-2.7l-0.1-0.1c-0.1-0.1-0.4-0.5-0.5-0.5c-0.1,0-0.2,0.1-0.2,0.1l-0.1,0.2c0,0,0,0.1,0,0.1c0.8,2.8,2.5,5.3,4,7.7
	c1.6,2.5,3.3,5.1,4.2,8.1c0.9,3.3,0.5,7.1,0,10.4c-0.3,1.8-1,4.7-1.5,6.3c-0.2,0.7-0.4,1.4-0.7,2l-0.1,0.2c-0.6,1.2-1,2.4-1.5,3.5
	c-1,2.5-2,4.9-3.6,7.2c-0.6,0.8-1.4,1.3-2.3,1.4c-0.9,0.1-1.8-0.2-2.5-0.8c-0.4-0.4-0.8-0.9-1.1-1.4l0-0.1l0-0.1
	c-0.6-3-0.6-6.2-0.1-9.7c0.2-1.3,0.5-2.6,0.9-3.8l0.3-1c0.4-1.5,0.8-3.1,0.9-4.6c0.2-2.3-0.4-3.7-1.2-5.7l-0.3-0.6
	c-0.2-0.5-0.5-1-0.8-1.6c-0.8-1.4-1.3-2.4-1.9-3.4c-0.3-0.6-0.7-1.1-1-1.8c-0.3-0.6-0.6-1.2-0.8-1.8c-0.4-1.1-0.9-2.1-1.7-2.9
	c-0.1-0.1-0.1-0.1-0.2-0.1c-0.1,0-0.2,0.1-0.2,0.2l0,0.1c0,0,0,0.1,0,0.1c-0.1,0.2,0,0.6,0,0.8c0,0.1,0,0.3,0.1,0.4
	c0.1,1.1,0.1,2.1,0.2,3.2c0.1,1.2,0.1,2.4,0.2,3.6c0.5,4,0.2,8-0.1,11.7c-0.2,2.2-0.5,4-0.9,5.6c-0.9,3.3-2.4,5.5-4.5,6.4
	c-4,1.7-7.5,3.3-10.9,5.4c-0.4,0.3-0.8,0.5-1.2,0.8c-2.7,1.8-5.7,3.8-9,3.3c-2.1-0.3-3.3-1.1-3.7-2.4c-0.2-0.8-0.1-1.7,0.1-2.8
	c0.3-1.2,0.9-2.4,1.6-3.4c1.5-2.3,3.9-4,6.1-5.7c1.2-0.9,2.4-1.8,3.4-2.8c1.4-1.3,1.8-2,1.9-2.6c0.1-0.3,0.1-0.7,0.1-0.9
	c0.2-2.8,0-5.6-0.3-8.4c-0.1-1.2-0.2-2.4-0.3-3.6c-0.2-3.8-0.5-8.1-2-11.5c-1.3-3.1-4.4-5.8-7.7-6.8c-3.2-1-6.6,0.5-9.1,3.8
	c-0.3,0.4-0.5,0.7-0.8,1.1c-0.8,0.8-1.5,1.8-2.3,3.2c-0.9,1.6-2.1,3.8-2.7,6c-0.6,2.3-0.6,4.4,0,6.4c0.4,1.7,0.8,2.6,2.4,4.8
	c0.2,0.2,0.7,0.7,1.1,1.2c1,1,2.1,2,3,2.8c1.1,0.9,2,1.9,3,3.3c1.4,2.1,1.6,3.9,1.4,6.5l-0.2,1.6l0,0.1c-0.3,1-1.4,1.7-2.4,1.5
	l-1.3-0.5c-0.1,0-0.2-0.1-0.4-0.2c-0.9-0.4-1.7-0.8-2.5-1.2c-3.1-1.4-5.7-2.7-8.6-4.5c-0.1-0.1-0.3-0.2-0.5-0.3c-3-1.6-5.4-4-6.9-7
	l-0.1-0.3c-1.7-3.4-2.9-7-3.6-11.6c-0.6-3.9-0.7-7.6-0.8-11.5l0-1.5c-0.1-3,0.4-5.9,0.8-8.7c0.2-1.4,0.5-2.8,0.6-4.2
	c0.4-3.1,0.1-6.4-0.2-9.4c-0.1-1.2-0.2-2.3-0.3-3.5c-0.6-9.9-1.8-18.8-3.6-27c-1.3-5.8-2.9-12.6-5-19.5l-6.7-22.2
	c-1.4-4.5-2.7-9-4-13.5c-1.6-5.7-3.3-11.5-5.1-17.2l-0.1-0.4L115.9,7.5z"/>
</svg>
