<svg xmlns="http://www.w3.org/2000/svg" viewBox="0 0 504 504"><title>illustr--Artboard 16 copyv</title><path d="M397.3,95.4c-2.1-1.2-4.3-1.8-10.2-1.8H124c-5.9,0-8,.6-10.2,1.8a12,12,0,0,0-5,5c-1.1,2.1-1.7,4.3-1.7,10.2V373.7c0,5.9.6,8,1.7,10.2a13.3,13.3,0,0,0,5,5c2.2,1.1,4.3,1.7,10.2,1.7H387.1c5.9,0,8.1-.6,10.2-1.7a12.7,12.7,0,0,0,5-5c1.1-2.2,1.8-4.3,1.8-10.2V110.6c0-5.9-.7-8.1-1.8-10.2A11.5,11.5,0,0,0,397.3,95.4Zm5.1,278.3c0,6-.7,7.7-1.6,9.4a9.9,9.9,0,0,1-4.3,4.3c-1.6.9-3.4,1.6-9.4,1.6H124c-6,0-7.7-.7-9.4-1.6a9.9,9.9,0,0,1-4.3-4.3c-.9-1.7-1.6-3.4-1.6-9.4V110.6c0-6,.7-7.8,1.6-9.4a9.9,9.9,0,0,1,4.3-4.3c1.7-.9,3.4-1.6,9.4-1.6H387.1c6,0,7.8.7,9.4,1.6a9.9,9.9,0,0,1,4.3,4.3c.9,1.6,1.6,3.4,1.6,9.4Z" style="fill:#afadad"/><path d="M229.6,240.4h0a16.9,16.9,0,0,0,8.9-5.5c.1-.3.1-.6.2-.8h0c0-.4.1-.7.1-1.1s.7-3.5,1-5.3L241,221c.7-3.6,1.3-7.2,2-10.9l-2.6-.2H240l-2.4-.3a27,27,0,0,1-4.1-.7c-3.8,4.1-7.7,8-11.8,11.7s-7.3,5.9-5.8,11.3C217.7,238.8,223.6,241,229.6,240.4Z" style="fill:#333031"/><path d="M249.5,179.8c-6.8,1-13.2,3.4-20,4.4a9.2,9.2,0,0,1-2.9,1.1c-3.8,3.7-6.5,10.3-2.5,15a21.2,21.2,0,0,0,7.8,5.5h.1c3.5,1.7,7.6,1.7,11.4,2,.8-4.1,1.6-8.2,2.6-12.3h0a47,47,0,0,1,1.2-5.1l.6-2.4a1.9,1.9,0,0,0,.2-.7c.2-.7.5-1.5.7-2.3l.2-.3c.6-1.7,1.3-3.5,2-5.1Z" style="fill:#333031"/><path d="M341.1,270c-2.3-10-7.7-19.2-10.3-29.1-2.2-8.2-3.6-16.5-5-24.8l-.9-8.5c-.5-4.8-.5-10.1-1.9-14.8-2.3-7.6-9.4-9.4-16.5-10a1.1,1.1,0,0,0-.8-.3l-14-1.2h-.8a1.6,1.6,0,0,0-1.9.9,140.8,140.8,0,0,1-1.4,17.2c-.4,4-.8,8-1.4,12a1.9,1.9,0,0,0,1.7,2l.8.6c1.9-4.7,6.9-6.5,11.5-8.7,1.4-.7,2.6,1.4,1.2,2l-.9.5h0a40.9,40.9,0,0,0-4.2,2h0l-1.1.6-.2.2-.4.3-.3.2-.4.2-.6.5-.2.3-.4.3-.2.3-.4.5-.2.2a2.1,2.1,0,0,1-.4.6c0,.1-.1.2-.1.3l-.3.6v.2l-.3.9c0,.1-.1.2-.1.3a1.9,1.9,0,0,1-.2.7v.3c-.1.4-.1.7-.2,1.1s-.1,1.7-.1,2.6h0c-.1,5,.9,10.5,3.5,14.7l1.5-.6h.6l1.1-.3h.8l1.3-.2h2.7a1.2,1.2,0,1,1,0,2.3c-6.8-.2-11.9,2.1-14.5,8.7s-2.7,13.2-2.8,19.7l3.6-.6h.6l1.2-.2h8.5l1.9.3.4.2h.1c0,.1.1.1.1.2s.1.2.2.4a1.3,1.3,0,0,1-1.5,1.5c-8.7-1.6-17.3.3-25,4.6V273h0c0,9.8,1,19.4,4.5,28.7.5,1.4-1.8,2-2.3.6h0c-.7-1.8-1.2-3.6-1.7-5.3h0a60.4,60.4,0,0,1-1.6-7.1h0l-.6-3.5h0l-.3-3.5h0a91,91,0,0,1-.4-9.1,193.2,193.2,0,0,1,1.4-24,1.3,1.3,0,0,1-.1-.6c1.7-12.1,6.9-23.3,9.5-35.2a165.5,165.5,0,0,0,3.8-35.1l-2.9-6.3-.7-.6a17.7,17.7,0,0,0-17.5-3.5,21,21,0,0,0-5,2.4l-1.2,1.2a15.9,15.9,0,0,0-3.9,4.2c-.6,1.1-1.3,2.1-2,3.2h-.1c-4.4,8.7-5.6,20.2-7.2,28.6s-3.2,16.4-4.7,24.6c0,.3-.1.5-.1.8a1,1,0,0,1,.2,1.4,8.6,8.6,0,0,1-.7,1,82.4,82.4,0,0,1-4.5,15.4h.4c0,.2-.1.4-.1.6l-1.2,3.7a1.1,1.1,0,0,0,0,.8c-.3,1.1-.7,2.2-1,3.3s-1,1.8-1.6,2.7c-2.9,5-5.7,10-8.2,15.2a154.1,154.1,0,0,0-11.4,30.1c-2.8,10.9-2.1,21.9-1.6,33s1.1,24.7,1.6,37a1.4,1.4,0,0,0,1.2,1.4c.4,5,.8,10,1.5,14.9a54.4,54.4,0,0,0,2.6,9.8c.8,19.5,0,39-6.1,57.8v.8c-.6.7-.8,1.8.4,2.3,16.6,7,34.6,12.1,52.8,8.7,7.9-1.5,16.2-4.5,22.4-9.8s5.8-11.7,4-19a1.6,1.6,0,0,0-.4-.7c.6-10.7,2.5-21.2,3.9-31.8a209.9,209.9,0,0,0,1.7-38v-.5c1.2-18.4,12.9-35.1,21.8-50.6,5.5-9.6,11.1-19.2,16.5-28.8C339.9,286.3,343.2,279,341.1,270Z" style="fill:#333031"/><path d="M287.8,218l.3-.7a1.6,1.6,0,0,0-3.1-.9c-1.2,4-2.4,7.9-3.3,11.9h-.1c-.5,1.3-1,2.5-1.4,3.8h-.1c-.8,2.4-1.6,4.8-2.3,7.3a92.8,92.8,0,0,0-2.9,19.6h0v.3c-.1,1.3-.1,2.7-.2,4v.6c-.1,1.3-.1,2.6-.2,4v.2h0v.8a43,43,0,0,1,7.4-3.1c0-1.9.1-3.9.2-5.9v-.4c.1-.7.1-1.3.2-1.9v-.3a11.1,11.1,0,0,1,.2-1.7v-.4l.3-1.9h0l.3-1.7v-.4a11.6,11.6,0,0,1,.4-1.8h0l.5-1.7c0-.1.1-.2.1-.4a30.5,30.5,0,0,1,1.3-3.2l.2-.4c.2-.5.5-.9.7-1.4a.1.1,0,0,0,.1-.1l.9-1.3.2-.4a14.4,14.4,0,0,1,3.9-3.5C288.2,231.8,287.1,224.3,287.8,218Z" style="fill:#333031"/><path d="M237.6,239.1l-1.6,1.1-.4.2-1.7,1h-.3a19.8,19.8,0,0,1-4.1,1.4,9.1,9.1,0,0,0,1.4,5.1,7.1,7.1,0,0,0,3,2.5,14.8,14.8,0,0,0,1.2-2.9,22.5,22.5,0,0,0,.8-2.4l.3-.9c.2-.6.3-1.2.5-1.8l.3-.9a16,16,0,0,1,.5-2.1c0-.2.1-.3.1-.4Z" style="fill:#333031"/><path d="M334.7,158.4,263.1,27.8a7.6,7.6,0,0,0-10.3-3L175.7,67a7.7,7.7,0,0,0-3,10.4l70.7,128.9c.7-4.4,1.9-8.7,3-13s2.3-11.2,4.8-16.2a22.7,22.7,0,0,1,15.6-11.5c6.5-1.3,13.1.7,17.2,5.8s5.5,13.6,4.8,20.9l42.9-23.5A7.6,7.6,0,0,0,334.7,158.4Z" style="fill:#66c8c7"/><path d="M244.2,211.1,171.3,78.2a9.3,9.3,0,0,1-.8-7.1,9.4,9.4,0,0,1,4.5-5.5l77-42.2a9.1,9.1,0,0,1,7-.8,9.3,9.3,0,0,1,5.6,4.5l71.6,130.6a9.2,9.2,0,0,1-3.7,12.5l-45.6,25,.3-3c.9-8.6-.6-15-4.4-19.7a15.8,15.8,0,0,0-15.7-5.4,20.9,20.9,0,0,0-14.4,10.7c-1.9,3.8-2.9,8.1-3.9,12.4-.3,1.1-.5,2.3-.8,3.4l-.9,3.3c-.8,3.2-1.6,6.4-2.1,9.6ZM256.4,25.5a5.9,5.9,0,0,0-2.9.7l-77,42.2a6.5,6.5,0,0,0-2.9,3.6,6.6,6.6,0,0,0,.5,4.6l68.6,125c.4-1.8.9-3.7,1.3-5.5l.9-3.2c.2-1.2.5-2.3.8-3.5,1-4.4,2-8.9,4.1-13A24.2,24.2,0,0,1,266.5,164c7.4-1.4,14.4,1,18.8,6.4s5.6,11.1,5.3,19.1l40.3-22.1a6,6,0,0,0,2.4-8.2L261.7,28.6a5.9,5.9,0,0,0-3.6-2.9A4.7,4.7,0,0,0,256.4,25.5Z" style="fill:#fff"/><path d="M206.4,66c2.2-1.2,4.2-1,5.2.8s.1,3.6-2.1,4.8l-.3.2c-2,1.1-4.2,1-5.2-.8s0-3.6,2.1-4.8Zm.6,1.7c-1.6.9-2.1,1.8-1.7,2.6s1.5.8,3,0l.4-.2c1.5-.9,2-1.8,1.6-2.6s-1.5-.8-3,0Z" style="fill:#fff"/><path d="M210.2,72.9c2.2-1.2,4.2-.9,5.2.9s.1,3.6-2.1,4.7l-.3.2c-2,1.1-4.2,1.1-5.2-.8s0-3.6,2.1-4.8Zm.6,1.7c-1.6.9-2.1,1.8-1.7,2.6s1.5.8,3,0l.4-.2c1.5-.8,2-1.8,1.6-2.5s-1.5-.9-3,0Z" style="fill:#fff"/><path d="M214,79.8c2.2-1.1,4.2-.9,5.2.9s.1,3.6-2.1,4.8l-.3.2c-2,1.1-4.2,1-5.2-.9s0-3.6,2.1-4.8Zm.6,1.8c-1.6.8-2.1,1.8-1.7,2.5s1.5.8,3,0l.4-.2c1.5-.8,2-1.7,1.6-2.5s-1.5-.8-3,0Z" style="fill:#fff"/><path d="M217.8,86.8c2.2-1.2,4.2-1,5.2.8s.1,3.6-2.1,4.8l-.3.2c-2,1.1-4.2,1-5.2-.9s0-3.6,2.1-4.7Zm.5,1.7c-1.5.8-2,1.8-1.6,2.5s1.5.9,3,0h.4c1.5-.9,2-1.8,1.6-2.6s-1.5-.8-3,0Z" style="fill:#fff"/><path d="M223,96.1c2.1-1.2,4.1-.9,5.1.9s.1,3.6-2,4.8h-.4c-2,1.2-4.1,1.1-5.2-.8s0-3.6,2.1-4.8Zm.5,1.8c-1.6.8-2.1,1.7-1.7,2.5s1.5.8,3.1,0l.3-.2c1.5-.8,2-1.8,1.6-2.5s-1.5-.9-3,0Z" style="fill:#fff"/><path d="M226.8,103.1c2.1-1.2,4.1-1,5.1.8s.1,3.6-2,4.8l-.4.2c-2,1.1-4.1,1-5.2-.9s0-3.6,2.1-4.8Zm.5,1.7c-1.6.8-2.1,1.8-1.7,2.5s1.5.9,3.1,0l.3-.2c1.5-.8,2-1.7,1.6-2.5s-1.5-.8-3,0Z" style="fill:#fff"/><path d="M230.6,110c2.1-1.2,4.1-1,5.1.8s.1,3.6-2.1,4.8l-.3.2c-2,1.1-4.1,1-5.2-.8s0-3.7,2.1-4.8Zm.5,1.7c-1.6.8-2.1,1.8-1.7,2.6s1.5.8,3.1-.1h.3c1.5-.9,2-1.8,1.6-2.6s-1.5-.8-3,0Z" style="fill:#fff"/><path d="M234.4,116.9c2.1-1.2,4.1-.9,5.1.9s.1,3.6-2.1,4.7l-.3.2c-2,1.1-4.1,1.1-5.2-.8s0-3.6,2.1-4.8Zm.5,1.7c-1.6.9-2.1,1.8-1.7,2.6s1.5.8,3.1,0l.3-.2c1.5-.8,2-1.8,1.6-2.5s-1.5-.9-3,0Z" style="fill:#fff"/><path d="M239.5,126.3c2.1-1.2,4.2-1,5.2.8s0,3.6-2.1,4.8l-.4.2c-2,1.1-4.1,1-5.1-.9s-.1-3.6,2-4.8Zm.5,1.7c-1.5.8-2,1.8-1.6,2.5s1.5.9,3,0l.3-.2c1.5-.8,2.1-1.7,1.6-2.5s-1.4-.8-3,0Z" style="fill:#fff"/><path d="M243.3,133.2c2.1-1.2,4.2-1,5.2.8s0,3.6-2.1,4.8l-.4.2c-2,1.1-4.1,1-5.1-.8s-.1-3.7,2-4.8Zm.5,1.7c-1.5.9-2,1.8-1.6,2.6s1.5.8,3,0l.3-.2c1.5-.9,2.1-1.8,1.6-2.6s-1.4-.8-3,0Z" style="fill:#fff"/><path d="M247.1,140.1c2.1-1.2,4.2-.9,5.1.9s.1,3.6-2,4.7l-.4.2c-2,1.1-4.1,1.1-5.1-.8s-.1-3.6,2-4.8Zm.5,1.7c-1.5.9-2.1,1.8-1.6,2.6s1.5.8,3,0l.3-.2c1.5-.8,2-1.8,1.6-2.5s-1.4-.9-3,0Z" style="fill:#fff"/><path d="M250.9,147c2.1-1.1,4.2-.9,5.1.9s.1,3.6-2,4.8l-.4.2c-2,1.1-4.1,1-5.1-.9s-.1-3.6,2-4.8Zm.5,1.8c-1.5.8-2.1,1.8-1.6,2.5s1.5.8,3,0l.3-.2c1.5-.8,2-1.8,1.6-2.5s-1.4-.9-3,0Z" style="fill:#fff"/><path d="M256,156.4c2.2-1.2,4.2-.9,5.2.8s.1,3.6-2.1,4.8l-.3.2c-2.1,1.1-4.2,1-5.2-.8s-.1-3.6,2.1-4.8Zm.5,1.7c-1.5.9-2,1.8-1.6,2.6s1.5.8,3,0l.3-.2c1.6-.9,2.1-1.8,1.7-2.6s-1.5-.8-3,0Z" style="fill:#fff"/><path d="M257.8,168.9h.2a1.1,1.1,0,0,1,.6-.9h.2c0-.1-.1-.1-.1-.2s.1-1.7,1.6-2.5l.4-.2c1.5-.9,2.5-.8,3,0a.9.9,0,0,1,.1.5l.7-.2c.2-.2.5-.2.8-.3l-.3-.7c-1-1.8-3-2.1-5.2-.9l-.3.2c-2.2,1.2-3.1,3-2.1,4.8Z" style="fill:#fff"/><path d="M230.5,93.9a4.7,4.7,0,0,1-4-2.3l-8.9-16.3a4.5,4.5,0,0,1,1.8-6.1l13-7.1a4.4,4.4,0,0,1,6,1.8l8.9,16.3a4.4,4.4,0,0,1-1.7,6l-13,7.1A4.2,4.2,0,0,1,230.5,93.9Zm4-31.3a3.5,3.5,0,0,0-1.7.4l-12.9,7.1a3.5,3.5,0,0,0-1.4,4.7l8.9,16.3a3.5,3.5,0,0,0,4.7,1.4l13-7.1a3.6,3.6,0,0,0,1.4-4.8l-9-16.2A3.3,3.3,0,0,0,234.5,62.6Z" style="fill:#fff"/><path d="M228.4,85.3h-.6a2.2,2.2,0,0,1-1.3-1l-2.7-4.9a2.3,2.3,0,0,1-.2-1.6,2.4,2.4,0,0,1,1.1-1.3l10.9-6a2.2,2.2,0,0,1,1.6-.1,2.1,2.1,0,0,1,1.3,1l2.6,4.9a1.8,1.8,0,0,1,.2,1.6,2.6,2.6,0,0,1-1,1.3L229.4,85A1.9,1.9,0,0,1,228.4,85.3Zm8.2-14.2-.6.2-10.9,6a1.3,1.3,0,0,0-.5.7.8.8,0,0,0,.1.8l2.6,4.9a1.3,1.3,0,0,0,.7.6h.9l10.9-6a1.3,1.3,0,0,0,.6-.7,1.4,1.4,0,0,0-.1-.9l-2.7-4.9a1.8,1.8,0,0,0-.7-.5Z" style="fill:#fff"/><path d="M232,90.5h-.4a1.4,1.4,0,0,1-1-.7l-1.9-3.6a1.5,1.5,0,0,1,.6-2.1l2.2-1.2a1.6,1.6,0,0,1,1.2-.2,1.8,1.8,0,0,1,.9.8l2,3.6a1.6,1.6,0,0,1-.6,2.1l-2.2,1.2Zm.2-6.9h-.3l-2.1,1.2a.7.7,0,0,0-.3.8l2,3.6a.7.7,0,0,0,.8.3l2.2-1.2a.6.6,0,0,0,.2-.8h0l-2-3.6a.3.3,0,0,0-.3-.3Z" style="fill:#fff"/><path d="M236.1,88.3h-.4a1.8,1.8,0,0,1-1-.7l-2-3.6a1.6,1.6,0,0,1,.7-2.2l2.1-1.2a1.7,1.7,0,0,1,1.2-.1,1.6,1.6,0,0,1,1,.8l2,3.6a1.6,1.6,0,0,1-.7,2.1l-2.1,1.2Zm.2-7H236l-2.2,1.2a.7.7,0,0,0-.2.8l2,3.6a.5.5,0,0,0,.8.2l2.2-1.2a.6.6,0,0,0,.2-.8h0l-2-3.6-.3-.3Z" style="fill:#fff"/><path d="M240.2,86h-.5a1.4,1.4,0,0,1-.9-.8l-2-3.6a1.6,1.6,0,0,1,.6-2.1l2.2-1.2a1.3,1.3,0,0,1,1.2-.1,1.8,1.8,0,0,1,1,.7l1.9,3.6a1.5,1.5,0,0,1-.6,2.2l-2.2,1.1A1,1,0,0,1,240.2,86Zm.2-6.9h-.3l-2.2,1.2a.5.5,0,0,0-.2.8l2,3.6a.7.7,0,0,0,.8.2l2.1-1.2a.7.7,0,0,0,.3-.8h0l-2-3.6A.5.5,0,0,0,240.4,79.1Z" style="fill:#fff"/><path d="M224.8,77.3h-.5a1.4,1.4,0,0,1-.9-.8l-2-3.6a1.6,1.6,0,0,1-.1-1.2,1.6,1.6,0,0,1,.7-.9l2.2-1.2a1.7,1.7,0,0,1,1.2-.1,1.6,1.6,0,0,1,.9.7l2,3.6a1.3,1.3,0,0,1,.1,1.2,1.4,1.4,0,0,1-.7,1l-2.2,1.2Zm.2-7h-.3l-2.2,1.2-.3.3a.9.9,0,0,0,.1.5l1.9,3.6c.2.2.6.4.8.2l2.2-1.2c.2-.1.3-.2.3-.4v-.4h0l-2-3.6A.5.5,0,0,0,225,70.3Z" style="fill:#fff"/><path d="M228.8,75a1.4,1.4,0,0,1-1.3-.8l-2-3.6a1.7,1.7,0,0,1-.2-1.2,1.8,1.8,0,0,1,.8-.9l2.2-1.2a1.6,1.6,0,0,1,1.2-.2,1.8,1.8,0,0,1,.9.8l2,3.6a1.6,1.6,0,0,1-.6,2.1l-2.2,1.2A1.2,1.2,0,0,1,228.8,75Zm.2-6.9h-.2l-2.2,1.2c-.2.1-.3.2-.3.4s0,.3,0,.4l2,3.6c.1.2.2.3.4.3h.4l2.2-1.2a.5.5,0,0,0,.2-.8l-1.9-3.6A.9.9,0,0,0,229,68.1Z" style="fill:#fff"/><path d="M232.9,72.8h-.4a1.8,1.8,0,0,1-1-.7l-1.9-3.6a1.3,1.3,0,0,1-.2-1.2,1.6,1.6,0,0,1,.8-1l2.2-1.2a1.6,1.6,0,0,1,2.1.7l2,3.6a1.6,1.6,0,0,1-.7,2.1l-2.1,1.2Zm.2-7h-.3l-2.2,1.2c-.1.1-.2.2-.2.3a.4.4,0,0,0,0,.5l2,3.6.3.3h.5l2.2-1.2a.5.5,0,0,0,.2-.8l-2-3.6A.5.5,0,0,0,233.1,65.8Z" style="fill:#fff"/></svg>