<svg xmlns="http://www.w3.org/2000/svg" viewBox="0 0 504 504"><title>illustr--v copy</title><path d="M394.3,110.3c-2.2-1.1-4.3-1.7-10.1-1.7H124.5c-5.8,0-7.9.6-10,1.7a12.4,12.4,0,0,0-5,4.9c-1.1,2.2-1.7,4.3-1.7,10.1V385c0,5.8.6,7.9,1.7,10a12.1,12.1,0,0,0,5,5c2.1,1.1,4.2,1.7,10,1.7H384.2c5.8,0,7.9-.6,10.1-1.7a11.8,11.8,0,0,0,4.9-5c1.1-2.1,1.7-4.2,1.7-10V125.3c0-5.8-.6-7.9-1.7-10.1A12.2,12.2,0,0,0,394.3,110.3Zm5,274.7c0,5.9-.7,7.6-1.5,9.3a10.9,10.9,0,0,1-4.3,4.2c-1.6.9-3.4,1.6-9.3,1.6H124.5c-5.9,0-7.6-.7-9.3-1.6a10.6,10.6,0,0,1-4.2-4.2c-.9-1.7-1.6-3.4-1.6-9.3V125.3c0-5.9.7-7.7,1.6-9.3a10,10,0,0,1,4.2-4.2c1.7-.9,3.4-1.6,9.3-1.6H384.2c5.9,0,7.7.7,9.3,1.6a10.2,10.2,0,0,1,4.3,4.2c.8,1.6,1.5,3.4,1.5,9.3Z" style="fill:#afadad"/><path d="M267.7,270.4c.3-.7,1.3-1.6,1.7-2.3l1.5-2.9c2.8,2,5.5,2.3,9,.4a.5.5,0,0,0,.3-.4h0c-1.4,2.9.8,8,1.7,10.5,1.8,4.8,1.6,9.2.9,13.7-3.9,1.2-11-7.5-12.5-10.1S266.8,273,267.7,270.4Z" style="fill:#333031"/><path d="M266.8,276.1a35.7,35.7,0,0,0,2.8,5.2,35,35,0,0,0,9,8.6c1.5,1,2.6,1.7,3.8,1.5-.4,2.1-.9,4.2-1.4,6.4s-.8,5.3-1.5,7.9c-5.3-2.5-9-8-12-12.9S264,281.9,266.8,276.1Z" style="fill:#333031"/><path d="M265,308.4c-3.2-2.7-7-15.6.3-15.6h.3a48.6,48.6,0,0,0,6.5,9.1c2.4,2.6,3.9,4,7,5.4-.7,2.2-1.5,4.3-2.1,6.5l-.6,2.3h-.1C272.3,314.9,268.2,311,265,308.4Z" style="fill:#333031"/><path d="M298.7,449.7c11.7,2.8,24.5-.1,35.2-4.8,7.9-3.4,15.9-8.1,22.2-14.4-2.7-5.6-5.4-11.3-8.2-17A211.4,211.4,0,0,0,337,393.7a53,53,0,0,1-6.3-13.9c-1.5-5.2-3.1-10-3.9-15.4s-.1-10.6.4-15.6,2.4-11.5,3.4-17.2,1.8-12.2,2.9-18.2,2.7-11.8,2.7-17.9-4-10.1-5.9-15.3c-3.9-10.6-7.1-21.2-12.1-31.3-1-2.1-1.6-3.6-3.8-4.5a28.4,28.4,0,0,0-4.9-1l-9.3-1.3c-2.4-.4-4.8-1.5-7.2-1.6a12.1,12.1,0,0,0-6.9,2.3c-4.9,3-11.3,5.3-15.3,9.5a7.5,7.5,0,0,0,.6,11.2,6.5,6.5,0,0,0,7.7.6.6.6,0,0,1,.9.2,41,41,0,0,1,0-10.5c.4-3,1.4-5.8,3.8-7.7,4.1-3.4,11.8-3.9,13.9,1.8,1.1,3,1,6.1,1.6,9.1a39.3,39.3,0,0,0,1.4,4.1l.2-.2c3.1-1.5,6.8-3.9,8.1-7.3.3-.9,1.9-.4,1.5.6a8.5,8.5,0,0,1-3.1,4.4,43.5,43.5,0,0,1-5.7,3.8h-.3c1.3,2.3,2.9,4.6,4.1,7a.4.4,0,0,1,.1.3c.6,1.1,1.1,2.1,1.6,3.2l.6,1.6c1.3-.3,2.5.3,3.8.5a27.3,27.3,0,0,1,4.9.6c1,.3.5,1.9-.5,1.5a20.9,20.9,0,0,0-4.3-.4l-1.7-.4a5,5,0,0,0-1.6-.3h-.1a62.8,62.8,0,0,1,1.3,9.7,43.6,43.6,0,0,0,4.2,15c.5.9-1,1.6-1.5.7-3.1-6.1-4.1-12.6-4.7-19.4s-4.1-11.9-7.2-17.7a2.4,2.4,0,0,1-.2-.8,13.4,13.4,0,0,1-1.2-2.4,60.7,60.7,0,0,1-2.2-9.1c-.4-3.7-1.6-7-6.5-6.7s-8.4,4.6-8.8,9.9c-.2,3,.9,16.8,1.5,18.6a47.6,47.6,0,0,1,2.1,6,27.4,27.4,0,0,1-.4,9c.4.3.6.8.1,1.2l-.4.3c-.4,2-.9,3.9-1.3,5.8-1.3,5.1-2,10.1-3.6,15.1s-3.7,10.7-3,15.7c.1.2,0,.3-.1.4,0,9,.1,17.7,2.4,26.5a.9.9,0,0,1-1.7.4c-2.3-9.3-2.3-18.4-2.3-27.9h0a28.8,28.8,0,0,1,1.2-8.6h-.2a16.9,16.9,0,0,1-5.6-3.3c-1.9,8.4-4.4,16.8-4,25.5s3.8,16.4,6.8,24a355.6,355.6,0,0,1,13.4,40.5c1.8,7.1,3.5,14.2,5.4,21.3s4.5,14.4,6.3,21.7Z" style="fill:#333031"/><path d="M262.7,375,373,29.4a1.4,1.4,0,0,1,1.8-.9h0a1.4,1.4,0,0,1,.9,1.7L269.4,377.1Z" style="fill:#333031"/><path d="M267.7,270.4c.3-.7,1.3-1.6,1.7-2.3l1.5-2.9c2.8,2,5.5,2.3,9,.4a.5.5,0,0,0,.3-.4h0c-1.4,2.9.8,8,1.7,10.5,1.8,4.8,1.6,9.2.9,13.7-3.9,1.2-11-7.5-12.5-10.1S266.8,273,267.7,270.4Z" style="fill:#333031"/><path d="M266.8,276.1a35.7,35.7,0,0,0,2.8,5.2,35,35,0,0,0,9,8.6c1.5,1,2.6,1.7,3.8,1.5-.4,2.1-.9,4.2-1.4,6.4s-.8,5.3-1.5,7.9c-5.3-2.5-9-8-12-12.9S264,281.9,266.8,276.1Z" style="fill:#333031"/><path d="M265,308.4c-3.2-2.7-7-15.6.3-15.6h.3a48.6,48.6,0,0,0,6.5,9.1c2.4,2.6,3.9,4,7,5.4-.7,2.2-1.5,4.3-2.1,6.5l-.6,2.3h-.1C272.3,314.9,268.2,311,265,308.4Z" style="fill:#333031"/><path d="M298.7,449.7c11.7,2.8,24.5-.1,35.2-4.8,7.9-3.4,15.9-8.1,22.2-14.4-2.7-5.6-5.4-11.3-8.2-17A211.4,211.4,0,0,0,337,393.7a53,53,0,0,1-6.3-13.9c-1.5-5.2-3.1-10-3.9-15.4s-.1-10.6.4-15.6,2.4-11.5,3.4-17.2,1.8-12.2,2.9-18.2,2.7-11.8,2.7-17.9-4-10.1-5.9-15.3c-3.9-10.6-7.1-21.2-12.1-31.3-1-2.1-1.6-3.6-3.8-4.5a28.4,28.4,0,0,0-4.9-1l-9.3-1.3c-2.4-.4-4.8-1.5-7.2-1.6a12.1,12.1,0,0,0-6.9,2.3c-4.9,3-11.3,5.3-15.3,9.5a7.5,7.5,0,0,0,.6,11.2,6.5,6.5,0,0,0,7.7.6.6.6,0,0,1,.9.2,41,41,0,0,1,0-10.5c.4-3,1.4-5.8,3.8-7.7,4.1-3.4,11.8-3.9,13.9,1.8,1.1,3,1,6.1,1.6,9.1a39.3,39.3,0,0,0,1.4,4.1l.2-.2c3.1-1.5,6.8-3.9,8.1-7.3.3-.9,1.9-.4,1.5.6a8.5,8.5,0,0,1-3.1,4.4,43.5,43.5,0,0,1-5.7,3.8h-.3c1.3,2.3,2.9,4.6,4.1,7a.4.4,0,0,1,.1.3c.6,1.1,1.1,2.1,1.6,3.2l.6,1.6c1.3-.3,2.5.3,3.8.5a27.3,27.3,0,0,1,4.9.6c1,.3.5,1.9-.5,1.5a20.9,20.9,0,0,0-4.3-.4l-1.7-.4a5,5,0,0,0-1.6-.3h-.1a62.8,62.8,0,0,1,1.3,9.7,43.6,43.6,0,0,0,4.2,15c.5.9-1,1.6-1.5.7-3.1-6.1-4.1-12.6-4.7-19.4s-4.1-11.9-7.2-17.7a2.4,2.4,0,0,1-.2-.8,13.4,13.4,0,0,1-1.2-2.4,60.7,60.7,0,0,1-2.2-9.1c-.4-3.7-1.6-7-6.5-6.7s-8.4,4.6-8.8,9.9c-.2,3,.9,16.8,1.5,18.6a47.6,47.6,0,0,1,2.1,6,27.4,27.4,0,0,1-.4,9c.4.3.6.8.1,1.2l-.4.3c-.4,2-.9,3.9-1.3,5.8-1.3,5.1-2,10.1-3.6,15.1s-3.7,10.7-3,15.7c.1.2,0,.3-.1.4,0,9,.1,17.7,2.4,26.5a.9.9,0,0,1-1.7.4c-2.3-9.3-2.3-18.4-2.3-27.9h0a28.8,28.8,0,0,1,1.2-8.6h-.2a16.9,16.9,0,0,1-5.6-3.3c-1.9,8.4-4.4,16.8-4,25.5s3.8,16.4,6.8,24a355.6,355.6,0,0,1,13.4,40.5c1.8,7.1,3.5,14.2,5.4,21.3s4.5,14.4,6.3,21.7Z" style="fill:#333031"/><path d="M310.1,253.6a14.6,14.6,0,0,1,.7-1.9l9.5-22.3a1.2,1.2,0,0,0-.7-1.5l-13.5-4.4a1.2,1.2,0,0,0-1.5.8l-5.3,24.3a10.9,10.9,0,0,1-.5,1.7L258.5,377.6c-1.1,3.5,11.5,7.5,12.6,4Z" style="fill:#66c8c7"/><path d="M257.8,378.4a3.1,3.1,0,0,1,.1-1l40.4-127.3a9.4,9.4,0,0,0,.4-1.6l5.3-24.3a2.7,2.7,0,0,1,.9-1.2,2.2,2.2,0,0,1,1.4-.1l13.5,4.4a2.2,2.2,0,0,1,1,.9,1.7,1.7,0,0,1,0,1.4l-9.5,22.3a14.6,14.6,0,0,0-.7,1.9h0L271.7,381.7a2.6,2.6,0,0,1-2.1,1.7c-3,.7-8.8-1.2-10.9-3.4A3.3,3.3,0,0,1,257.8,378.4Zm62-149.5c0-.1-.1-.1-.1-.2l-.3-.3L305.9,224h-.4l-.3.3-5.3,24.3c-.2.6-.3,1.2-.5,1.8L259,377.8c-.1.4.1.8.5,1.4,1.9,2,7.2,3.6,9.8,3,.7-.1,1.1-.4,1.2-.8l39-128a14.6,14.6,0,0,1,.7-1.9l9.5-22.4C319.8,229.1,319.8,229,319.8,228.9Z" style="fill:#fff"/><path d="M283.3,284.2a21.4,21.4,0,0,0-1.4-8.5c-.9-2.5-3.1-7.6-1.7-10.5h0a.5.5,0,0,1-.3.4c-3.5,1.9-6.2,1.6-9-.4l-1.5,2.9c-.4.7-1.4,1.6-1.7,2.3-.9,2.6,1.3,6.6,2.6,8.9s6.9,9.2,10.9,10.1A16.7,16.7,0,0,1,283.3,284.2Z" style="fill:#333031"/><path d="M279,299.7a80.1,80.1,0,0,0,1.8-8.5,10.5,10.5,0,0,1-2.2-1.3,35,35,0,0,1-9-8.6,35.7,35.7,0,0,1-2.8-5.2c-2.8,5.8-2.8,10.8.7,16.7,2.6,4.3,5.8,9.1,10.1,11.9C278.1,303,278.5,301.3,279,299.7Z" style="fill:#333031"/><path d="M277.1,306.3a20,20,0,0,1-5-4.4,48.6,48.6,0,0,1-6.5-9.1h-.3c-7.3,0-3.5,12.9-.3,15.6s6.1,5.4,9.6,7C275.5,312.4,276.3,309.4,277.1,306.3Z" style="fill:#333031"/><path d="M298.7,449.7c11.7,2.8,24.5-.1,35.2-4.8,7.9-3.4,15.9-8.1,22.2-14.4-2.7-5.6-5.4-11.3-8.2-17A211.4,211.4,0,0,0,337,393.7a53,53,0,0,1-6.3-13.9c-1.5-5.2-3.1-10-3.9-15.4s-.1-10.6.4-15.6,2.4-11.5,3.4-17.2,1.8-12.2,2.9-18.2,2.7-11.8,2.7-17.9-4-10.1-5.9-15.3c-3.9-10.6-7.1-21.2-12.1-31.3a14.5,14.5,0,0,0-1.2-2.2,14.5,14.5,0,0,0-2.2,4.7l-.9,3.5-.6,3.2c-1.3,5.3-3.5,10.4-5,15.7a.6.6,0,0,1-.6.5.4.4,0,0,1,.1.3c1.3-.3,2.5.3,3.8.5a27.3,27.3,0,0,1,4.9.6c1,.3.5,1.9-.5,1.5a20.9,20.9,0,0,0-4.3-.4l-1.7-.4a5,5,0,0,0-1.6-.3h-.1a62.8,62.8,0,0,1,1.3,9.7,43.6,43.6,0,0,0,4.2,15c.5.9-1,1.6-1.5.7-3.1-6.1-4.1-12.6-4.7-19.4s-4.1-11.9-7.2-17.7a2.4,2.4,0,0,1-.2-.8,13.4,13.4,0,0,1-1.2-2.4,60.7,60.7,0,0,1-2.2-9.1c-.4-3.7-1.6-7-6.5-6.7s-8.5,4.6-8.8,9.9c-.2,3,.9,16.8,1.5,18.6a47.6,47.6,0,0,1,2.1,6c.2,1.2.5,4.3.2,4.6s-1.8,9.8-2.2,11.7c-1.3,5.1-2,10.1-3.6,15.1s-3.7,10.7-3,15.7c.1.2,0,.3-.1.4,0,7.7.1,15.2,1.5,22.6a12.2,12.2,0,0,1,.9,5.6,11.1,11.1,0,0,1,.2,1.9,37.5,37.5,0,0,1-.1,6.7,66.8,66.8,0,0,1-1.7,10.9c3.5,9.6,6.6,19.3,9.2,29.3,1.8,7.1,3.5,14.2,5.4,21.3s4.5,14.4,6.3,21.7Z" style="fill:#333031"/><path d="M272.5,322.3c.6-1.8,1.1-3.5,1.6-5.3a24.1,24.1,0,0,1-3.9-2.6c-1.9,8.4-4.4,16.8-4,25.5,0,.3.1.5.1.8C268.1,334.5,270.4,328.4,272.5,322.3Z" style="fill:#333031"/><path d="M280,264.3a41,41,0,0,1,0-10.5c.4-3,1.4-5.8,3.8-7.7s9.3-3.6,12.4-.6c.2-1.4.4-2.8.7-4.2a18,18,0,0,0-3.9-.8,12.1,12.1,0,0,0-6.9,2.3c-4.9,3-11.3,5.3-15.3,9.4a7.5,7.5,0,0,0,.6,11.3,6.5,6.5,0,0,0,7.7.6A.6.6,0,0,1,280,264.3Z" style="fill:#333031"/><path d="M212.1,264.8c11-5.2,20.2-13.5,28.2-22.4a162.3,162.3,0,0,0,21.1-29.1A167.1,167.1,0,0,0,275.9,180c4-12.6,6.4-25.7,8.8-38.7,4.4-24.8,8.5-50.6,21.8-72.4s38.3-39.6,65.1-34c1.4.3,1.7-1.9.3-2.2C350.1,28.1,328,38.9,313.8,55c-15.6,17.7-22.6,41-27.2,63.7-5.3,25.6-8.1,51.8-18.5,76a162.7,162.7,0,0,1-17.8,31.8c-7.1,9.9-15.2,19.3-24.7,27s-22.5,14.4-35.7,13.8c-11.4-.5-23-5.7-28.6-16.1-.7-1.2-2.7-.3-2,.9,4.6,8.6,13,14,22.3,16.3S202.6,269.2,212.1,264.8Z" style="fill:#333031"/><path d="M73.7,197.1a1.9,1.9,0,0,1,.3-2.8l30.6-24.5a2.1,2.1,0,0,1,2.8.3l60.8,76.1a2,2,0,0,1-.3,2.8l-30.7,24.5a1.9,1.9,0,0,1-2.7-.3h0Z" style="fill:#66c6c6"/><path d="M106.9,170.5h0l5.1,6.4,52.5,65.7,3.2,4a1.3,1.3,0,0,1-.2,1.9l-8.3,6.7L140.6,270l-3.8,3a1.3,1.3,0,0,1-1.9-.2l-5.1-6.4L77.3,200.7l-3.2-4a1.2,1.2,0,0,1-.2-1,1.2,1.2,0,0,1,.5-.9l8.3-6.6,18.6-14.9,3.7-3a1.3,1.3,0,0,1,1.9.2m1-.7a2.7,2.7,0,0,0-3.7-.5l-3.7,3L81.9,187.2l-8.3,6.6a2.7,2.7,0,0,0-.4,3.7l3.1,3.9,52.6,65.8,5.1,6.4a2.6,2.6,0,0,0,3.6.4l3.8-3,18.5-14.9,8.4-6.6a2.7,2.7,0,0,0,.4-3.7l-3.2-3.9L113,176.2l-5.1-6.4Z" style="fill:#fff"/><path d="M83.7,202.6l.2-.2.2-.2h.2l.2-.3.3-.4h.1c0-.1.1-.1.1-.2l.4-.5h0v-.2l.3-.6h.1a2.5,2.5,0,0,0,.2-.7h.1a1.9,1.9,0,0,1,.2-.7c.1-.3.1-.6.2-.8a10.1,10.1,0,0,0-1.5-6.8l13.5-10.8a8.9,8.9,0,0,0,10,2.4l1.2-.5.2-.2.6-.3,47.1,59c-.1,0-.1.1-.2.2l-.2.2h-.1l-.3.3-.3.4h-.1v.2l-.3.5h-.2l-.3.6h0l-.3.7h0l-.3.7h0c0,.2-.1.5-.1.7a9.1,9.1,0,0,0,1.5,6.8L142.8,263a8.9,8.9,0,0,0-10-2.4l-1.1.5c-.1.1-.2.1-.2.2l-.6.3Z" style="fill:#66c6c6"/><path d="M110.4,182l46.5,58.1h-.2l-.3.3-.3.4H156v.2a2.1,2.1,0,0,0-.4.6h0v.2l-.3.6H155l-.3.7h0l-.3.8h0c0,.3-.1.6-.1.8a9.7,9.7,0,0,0,1.2,6.7l-3.1,2.6-8.2,6.5-1.3,1a9.8,9.8,0,0,0-10.3-2.1l-1.2.6h-.3a.1.1,0,0,1-.1.1L84.5,202.7h.2l.3-.3.3-.4h.1l.2-.2.3-.6h0c.1-.1.1-.1.1-.2l.3-.6h.1l.3-.7h0l.3-.8h0c.1-.3.1-.6.2-.8a10.3,10.3,0,0,0-1.3-6.7l3.2-2.6,8.1-6.5,1.3-1a9.8,9.8,0,0,0,10.3,2.1l1.3-.6h.3m.3-1.7-1,.7h-.2l-1.1.5a8.4,8.4,0,0,1-9.7-2.6l-2.2,1.7-8.2,6.6-4.1,3.2a8.5,8.5,0,0,1,1.7,6.8,2,2,0,0,1-.1.7h0a6.4,6.4,0,0,1-.2.7h0l-.3.6h-.1c-.1.2-.1.4-.2.6l-.2.2-.3.5-.2.2c-.1.1-.1.3-.2.4l-.4.3c0,.1-.1.2-.2.3l-.6.5,47.9,60,1-.7h.2l1.1-.5a8.5,8.5,0,0,1,9.7,2.6l2.1-1.7,8.2-6.6,4.1-3.2a8.5,8.5,0,0,1-1.7-6.8c0-.2.1-.4.1-.7h0a1.9,1.9,0,0,0,.2-.7h.1a1.4,1.4,0,0,1,.2-.6h.1l.3-.6v-.2l.3-.4.2-.3.3-.4.3-.3.2-.3a1.8,1.8,0,0,1,.7-.5l-47.9-60Z" style="fill:#fff"/><path d="M102.2,175.8l.3-.3h.6c1.3.2,1.9.2,2.3-.1a.6.6,0,0,0,0-.9,1.5,1.5,0,0,0-.7-.5l.3-.5a2,2,0,0,1,1,.7,1.1,1.1,0,0,1-.1,1.7,3.1,3.1,0,0,1-2.2.3h-.4l1,1.2-.5.4Z" style="fill:#fff"/><path d="M107.3,179c-1,.8-1.9.9-2.5.2s-.2-1.6.7-2.3,1.9-.8,2.4-.1S108.1,178.3,107.3,179Zm-1.3-1.5c-.7.5-1,1-.7,1.4s.8.1,1.5-.4,1-1.1.7-1.4S106.7,176.9,106,177.5Z" style="fill:#fff"/><path d="M77.3,195.6l.4-.3h.6c1.2.2,1.8.3,2.2,0a.7.7,0,0,0,.1-1,1.2,1.2,0,0,0-.8-.4l.3-.5a1.7,1.7,0,0,1,1,.7,1.1,1.1,0,0,1-.1,1.7,2.4,2.4,0,0,1-2.1.2h-.5l1,1.3-.4.3Z" style="fill:#fff"/><path d="M82.4,198.9c-.9.7-1.8.9-2.4.1s-.2-1.5.7-2.2,1.8-.9,2.4-.2S83.3,198.2,82.4,198.9Zm-1.3-1.6c-.7.6-.9,1.1-.7,1.4s.8.2,1.6-.4.9-1,.7-1.4S81.9,196.7,81.1,197.3Z" style="fill:#fff"/><path d="M157.7,245.3l.4-.3h.6c1.2.2,1.8.2,2.2-.1s.4-.5.1-.9a1.4,1.4,0,0,0-.8-.5l.3-.4a1.7,1.7,0,0,1,1.1.6,1.1,1.1,0,0,1-.2,1.7c-.5.5-1.2.4-2.1.3h-.4l.9,1.2-.4.4Z" style="fill:#fff"/><path d="M162.8,248.5c-.9.8-1.8.9-2.4.2s-.2-1.5.7-2.3,1.8-.8,2.4-.1S163.7,247.8,162.8,248.5Zm-1.3-1.5c-.7.6-.9,1.1-.7,1.4s.8.2,1.6-.4.9-1.1.7-1.4S162.3,246.4,161.5,247Z" style="fill:#fff"/><path d="M132.9,265.1l.3-.2h.6c1.3.1,1.9.2,2.3-.1a.7.7,0,0,0,0-1l-.7-.4.3-.5a2,2,0,0,1,1,.7,1.1,1.1,0,0,1-.1,1.7,2.7,2.7,0,0,1-2.2.2H134l1,1.2-.5.4Z" style="fill:#fff"/><path d="M138,268.4c-1,.8-1.9.9-2.5.2s-.2-1.6.7-2.3,1.9-.9,2.4-.2S138.9,267.7,138,268.4Zm-1.3-1.5c-.7.5-1,1-.7,1.3s.8.2,1.5-.4,1-1,.7-1.3S137.4,266.3,136.7,266.9Z" style="fill:#fff"/><path d="M109.3,230.5c-3.8-4.7-1.8-12.6,4.6-17.7a16.9,16.9,0,0,1,10-3.9,9.5,9.5,0,0,1,8.3,3.4h0c1.8,2.3,2.3,5.4,1.4,8.8a17.5,17.5,0,0,1-6,8.9h0C121.3,235,113,235.3,109.3,230.5ZM131.2,213c-1.6-2-4.2-3-7.3-2.9a15.9,15.9,0,0,0-9.3,3.7c-5.7,4.6-7.7,11.8-4.4,16s10.8,3.8,16.6-.8h0a16,16,0,0,0,5.6-8.2c.8-3,.4-5.8-1.2-7.8Z" style="fill:#fff"/><rect x="136.9" y="234.9" width="1.2" height="15.03" transform="translate(-121.2 138.9) rotate(-38.6)" style="fill:#fff"/><rect x="139.5" y="232.8" width="1.2" height="15.03" transform="translate(-119.3 140.1) rotate(-38.6)" style="fill:#fff"/><rect x="134.2" y="237" width="1.2" height="15.03" transform="translate(-123.1 137.7) rotate(-38.6)" style="fill:#fff"/><rect x="104.3" y="194.1" width="1.2" height="15.03" transform="translate(-102.9 109.6) rotate(-38.6)" style="fill:#fff"/><rect x="106.9" y="192" width="1.2" height="15.03" transform="translate(-101 110.8) rotate(-38.6)" style="fill:#fff"/><rect x="101.6" y="196.2" width="1.2" height="15.03" transform="translate(-104.8 108.4) rotate(-38.6)" style="fill:#fff"/><path d="M153.7,242.1c.1-3.2.1-6.8,2.1-9.5s7.1-4.1,8,.2c.4,1.4,2.6,1.1,2.3-.3a6.3,6.3,0,0,0-9.3-3.8c-4.6,2.6-5.2,8.3-5.3,13.1C151.4,243.2,153.7,243.5,153.7,242.1Z" style="fill:#333031"/></svg>