<?xml version="1.0" encoding="UTF-8" standalone="no"?>
<svg width="200px" height="67px" viewBox="0 0 200 67" version="1.1" xmlns="http://www.w3.org/2000/svg" xmlns:xlink="http://www.w3.org/1999/xlink">
    <!-- Generator: Sketch 47.1 (45422) - http://www.bohemiancoding.com/sketch -->
    <title>img-logo-k</title>
    <desc>Created with Sketch.</desc>
    <defs></defs>
    <g id="Page-1" stroke="none" stroke-width="1" fill="none" fill-rule="evenodd">
        <g id="Home-Desktop-HD-Expanded" transform="translate(-222.000000, -16.000000)">
            <g id="nav">
                <g id="img-logo-k" transform="translate(222.000000, 16.000000)">
                    <g id="Group-4">
                        <g id="Group" fill="#000000">
                            <path d="M5.82857108,1.53573025 C3.41429789,1.53573025 1.45714277,3.5984398 1.45714277,6.14292098 L1.45714277,60.857079 C1.45714277,63.4015602 3.41429789,65.4642698 5.82857108,65.4642698 L57.6000003,65.4642698 C60.0142735,65.4642698 61.9714287,63.4015602 61.9714287,60.857079 L61.9714287,6.14292098 C61.9714287,3.5984398 60.0142735,1.53573025 57.6000003,1.53573025 L5.82857108,1.53573025 Z M5.82857108,0 L57.6000003,0 C60.8190313,-6.23218147e-16 63.4285714,2.7502794 63.4285714,6.14292098 L63.4285714,60.857079 C63.4285714,64.2497206 60.8190313,67 57.6000003,67 L5.82857108,67 C2.60954016,67 5.46952285e-15,64.2497206 5.07530526e-15,60.857079 L0,6.14292098 C-3.94217591e-16,2.7502794 2.60954016,6.23218147e-16 5.82857108,0 Z" id="Rectangle-3" fill-rule="nonzero"></path>
                            <path d="M84.6690685,34.5143111 C84.6690685,32.5530455 85.5337108,30.6702306 87.4606279,30.6702306 C89.8075142,30.6702306 90.5239321,33.5206032 90.5239321,35.5080189 C90.5239321,37.4954347 89.758106,40.2412064 87.4606279,40.2412064 C86.8430262,40.2412064 86.1266083,40.1366056 85.9289758,40.1366056 C85.4843026,40.1366056 85.3113742,40.5027085 85.3113742,40.8165109 C85.3113742,41.8102188 87.0159547,42.0194205 88.0041173,42.0194205 C91.5615028,42.0194205 93.9330932,39.0905973 93.9330932,35.4295683 C93.9330932,32.0300414 91.8579516,28.9966174 88.4487905,28.9966174 C86.74421,28.9966174 85.4348945,29.4673211 84.4467319,30.9840331 C84.2985075,29.5196215 84.1996912,28.9966174 83.359753,28.9966174 C82.8656716,28.9966174 80,29.5196215 80,30.5133294 C80,31.7162389 81.4575399,30.722531 81.4575399,32.7622472 L81.4575399,44.0591366 C81.4575399,45.7850503 80.2964488,44.9743938 80.2964488,45.9681017 C80.2964488,46.4126552 80.5681935,46.6741573 81.2104992,46.6741573 L84.9161091,46.6741573 C85.5584148,46.6741573 86.0772002,46.4649556 86.0772002,45.9942519 C86.0772002,44.9482436 84.6690685,45.7589001 84.6690685,44.0591366 L84.6690685,34.5143111 Z M99.372105,41.7579184 C100.014411,41.7579184 100.286155,41.5225665 100.286155,41.078013 C100.286155,40.0843051 99.1250643,40.8949616 99.1250643,39.1690479 L99.1250643,30.9840331 C99.1250643,29.5457717 99.001544,28.9966174 98.235718,28.9966174 C97.5440041,28.9966174 95.5923829,29.8857244 95.2218219,29.9903253 C94.9253731,30.0687759 94.5795162,30.2256771 94.5795162,30.6179302 C94.5795162,31.4024364 95.9135358,31.1147842 95.9135358,32.3961443 L95.9135358,39.1690479 C95.9135358,40.8949616 94.7524447,40.0843051 94.7524447,41.078013 C94.7524447,41.5225665 95.0241894,41.7579184 95.6664951,41.7579184 L99.372105,41.7579184 Z M97.2475553,24.1326789 C96.012352,24.1326789 95.1971179,24.8387345 95.1971179,25.9631934 C95.1971179,27.1138025 96.012352,27.7937079 97.1487391,27.7937079 C98.4086464,27.7937079 99.1991765,27.1138025 99.1991765,25.9631934 C99.1991765,24.8387345 98.4086464,24.1326789 97.2475553,24.1326789 Z M100.75965,35.6910704 C100.75965,39.4567002 103.378281,42.0194205 106.886258,42.0194205 C109.850746,42.0194205 112.074112,39.8751035 112.074112,38.7506446 C112.074112,38.3845417 111.802367,38.1230396 111.456511,38.1230396 C110.641276,38.1230396 109.949563,40.1366056 107.602676,40.1366056 C105.749871,40.1366056 104.168811,38.4629923 104.168811,35.7172206 C104.168811,32.5007451 105.404014,30.4087286 107.083891,30.4087286 C109.035512,30.4087286 108.763767,32.9714488 110.196603,32.9714488 C111.184766,32.9714488 111.752959,32.4484447 111.752959,31.7162389 C111.752959,30.2518273 109.504889,28.9966174 107.182707,28.9966174 C103.526505,28.9966174 100.75965,31.7946895 100.75965,35.6910704 Z M117.167267,41.7579184 L113.461657,41.7579184 C112.819352,41.7579184 112.547607,41.4964163 112.547607,41.0518628 C112.547607,40.0581549 113.708698,40.8688114 113.708698,39.1428977 L113.708698,25.2309876 C113.708698,23.9496274 112.374678,24.2372797 112.374678,23.4527735 C112.374678,23.0605204 112.745239,22.9820698 113.016984,22.8251685 C113.585178,22.5113661 115.339166,21.8314607 116.03088,21.8314607 C116.796706,21.8314607 116.920226,22.380615 116.920226,23.5573743 L116.920226,35.011165 C117.858981,34.5143111 120.946989,32.0038912 120.946989,31.0624837 C120.946989,30.461029 119.711786,30.722531 119.711786,29.8857244 C119.711786,29.4411709 119.958827,29.2581195 120.354092,29.2581195 L123.862069,29.2581195 C124.454967,29.2581195 124.800823,29.4673211 124.800823,29.8857244 C124.800823,30.6179302 124.10911,30.4871792 123.170355,31.4285866 C122.281009,32.3438439 120.848173,33.8605559 120.601132,34.2266588 C122.281009,36.0048729 123.417396,37.5738853 124.652599,39.8228031 C125.047864,40.5288587 125.93721,40.3981076 125.93721,41.1303134 C125.93721,41.6010171 125.616058,41.7579184 125.171384,41.7579184 L120.946989,41.7579184 C120.4035,41.7579184 120.156459,41.3918155 120.156459,41.0257126 C120.156459,40.450408 120.848173,40.5027085 120.848173,40.188906 C120.848173,39.7182022 119.267113,37.3123832 118.328358,36.0571733 L116.920226,37.1031815 L116.920226,39.1428977 C116.920226,40.8688114 118.081318,40.0581549 118.081318,41.0518628 C118.081318,41.4964163 117.809573,41.7579184 117.167267,41.7579184 Z M130.536284,34.5143111 L130.536284,44.0591366 C130.536284,45.7589001 131.944416,44.9482436 131.944416,45.9942519 C131.944416,46.4649556 131.42563,46.6741573 130.783325,46.6741573 L127.077715,46.6741573 C126.435409,46.6741573 126.163664,46.4126552 126.163664,45.9681017 C126.163664,44.9743938 127.324756,45.7850503 127.324756,44.0591366 L127.324756,32.7622472 C127.324756,30.722531 125.867216,31.7162389 125.867216,30.5133294 C125.867216,29.5196215 128.732887,28.9966174 129.226969,28.9966174 C130.066907,28.9966174 130.165723,29.5196215 130.313948,30.9840331 C131.30211,29.4673211 132.611426,28.9966174 134.316006,28.9966174 C137.725167,28.9966174 139.800309,32.0300414 139.800309,35.4295683 C139.800309,39.0905973 137.428718,42.0194205 133.871333,42.0194205 C132.88317,42.0194205 131.17859,41.8102188 131.17859,40.8165109 C131.17859,40.5027085 131.351518,40.1366056 131.796191,40.1366056 C131.993824,40.1366056 132.710242,40.2412064 133.327844,40.2412064 C135.625322,40.2412064 136.391148,37.4954347 136.391148,35.5080189 C136.391148,33.5206032 135.67473,30.6702306 133.327844,30.6702306 C131.400926,30.6702306 130.536284,32.5530455 130.536284,34.5143111 Z M153.86104,35.5080189 C153.86104,39.3782496 150.871848,42.0194205 147.166238,42.0194205 C143.460628,42.0194205 140.471436,39.3782496 140.471436,35.5080189 C140.471436,31.6377883 143.460628,28.9966174 147.166238,28.9966174 C150.871848,28.9966174 153.86104,31.6377883 153.86104,35.5080189 Z M143.880597,35.5080189 C143.880597,38.7767948 145.313433,40.450408 147.166238,40.450408 C149.019043,40.450408 150.451879,38.7767948 150.451879,35.5080189 C150.451879,32.2392431 149.019043,30.5656298 147.166238,30.5656298 C145.313433,30.5656298 143.880597,32.2392431 143.880597,35.5080189 Z M154.532167,35.6910704 C154.532167,39.4567002 157.150798,42.0194205 160.658775,42.0194205 C163.623263,42.0194205 165.846629,39.8751035 165.846629,38.7506446 C165.846629,38.3845417 165.574884,38.1230396 165.229027,38.1230396 C164.413793,38.1230396 163.722079,40.1366056 161.375193,40.1366056 C159.522388,40.1366056 157.941328,38.4629923 157.941328,35.7172206 C157.941328,32.5007451 159.176531,30.4087286 160.856408,30.4087286 C162.808029,30.4087286 162.536284,32.9714488 163.96912,32.9714488 C164.957283,32.9714488 165.525476,32.4484447 165.525476,31.7162389 C165.525476,30.2518273 163.277406,28.9966174 160.955224,28.9966174 C157.299022,28.9966174 154.532167,31.7946895 154.532167,35.6910704 Z M170.939784,41.7579184 L167.234174,41.7579184 C166.591868,41.7579184 166.320124,41.4964163 166.320124,41.0518628 C166.320124,40.0581549 167.481215,40.8688114 167.481215,39.1428977 L167.481215,25.2309876 C167.481215,23.9496274 166.147195,24.2372797 166.147195,23.4527735 C166.147195,23.0605204 166.517756,22.9820698 166.789501,22.8251685 C167.357694,22.5113661 169.111683,21.8314607 169.803397,21.8314607 C170.569223,21.8314607 170.692743,22.380615 170.692743,23.5573743 L170.692743,35.011165 C171.631498,34.5143111 174.719506,32.0038912 174.719506,31.0624837 C174.719506,30.461029 173.484303,30.722531 173.484303,29.8857244 C173.484303,29.4411709 173.731343,29.2581195 174.126608,29.2581195 L177.634586,29.2581195 C178.227483,29.2581195 178.57334,29.4673211 178.57334,29.8857244 C178.57334,30.6179302 177.881626,30.4871792 176.942872,31.4285866 C176.053525,32.3438439 174.62069,33.8605559 174.373649,34.2266588 C176.053525,36.0048729 177.189913,37.5738853 178.425116,39.8228031 C178.820381,40.5288587 179.709727,40.3981076 179.709727,41.1303134 C179.709727,41.6010171 179.388574,41.7579184 178.943901,41.7579184 L174.719506,41.7579184 C174.176016,41.7579184 173.928976,41.3918155 173.928976,41.0257126 C173.928976,40.450408 174.62069,40.5027085 174.62069,40.188906 C174.62069,39.7182022 173.039629,37.3123832 172.100875,36.0571733 L170.692743,37.1031815 L170.692743,39.1428977 C170.692743,40.8688114 171.853834,40.0581549 171.853834,41.0518628 C171.853834,41.4964163 171.58209,41.7579184 170.939784,41.7579184 Z M179.689141,35.8218214 C179.713845,31.7685393 182.110139,28.9966174 186.729799,28.9966174 C188.804941,28.9966174 191.522388,30.0164755 191.497684,32.6314962 C191.47298,36.1617741 185.865157,36.7893791 183.295934,36.9462803 C183.592383,38.9075458 185.049923,40.1366056 186.754503,40.1366056 C188.212043,40.0581549 189.175502,39.561301 190.213073,38.5675931 C190.509521,38.2799409 190.68245,38.0184388 191.127123,38.0184388 C191.522388,38.0184388 191.695317,38.2799409 191.695317,38.6198936 C191.695317,39.9274039 188.977869,42.0194205 185.988677,42.0194205 C182.579516,42.0194205 179.713845,39.561301 179.689141,35.8218214 Z M186.507463,30.4087286 C184.135872,30.4087286 183.048893,32.9191484 183.098302,35.5341691 C184.382913,35.4034181 188.286155,34.880414 188.286155,32.2653933 C188.286155,31.0886339 187.619146,30.4087286 186.507463,30.4087286 Z M196.911992,29.2581195 L196.911992,25.7539917 C196.911992,24.9694855 196.788471,24.7079834 196.269686,24.7079834 C195.133299,24.7079834 195.948533,28.9704672 193.13227,29.2581195 C192.218219,29.3365701 191.748842,29.4673211 191.748842,30.0949261 C191.748842,30.7486813 191.971179,30.9317327 192.687597,30.9317327 L193.700463,30.9317327 L193.700463,40.0581549 C193.700463,41.4702661 194.04632,41.7579184 195.62738,41.7579184 L199.135358,41.7579184 C199.728255,41.7579184 200,41.4702661 200,40.8426611 C200,40.2673566 199.703551,40.0843051 198.567164,40.0843051 C197.307257,40.0843051 196.911992,39.7443525 196.911992,38.5152927 L196.911992,30.9317327 L198.937725,30.9317327 C199.505919,30.9317327 199.87648,30.7486813 199.87648,30.0949261 C199.87648,29.4673211 199.505919,29.2581195 198.937725,29.2581195 L196.911992,29.2581195 Z" id="pickpocket"></path>
                        </g>
                        <g id="Page-1" transform="translate(13.571429, 11.292135)">
                            <path d="M6.95627769,8.24484773 L12.0943277,0.189316812 C12.2157747,-0.00124321765 12.4534582,-0.0566633605 12.6374323,0.0631294098 L25.617031,8.48912267 C25.9737565,8.72103465 25.8178394,9.31317756 25.402194,9.30422507 L7.28454534,8.93376273 C6.96028584,8.9273681 6.77270433,8.53303247 6.95627769,8.24484773" id="Fill-1" fill="#000000"></path>
                            <path d="M7.24128813,8.94015832 L12.2350972,1.37833982 C12.3533536,1.1994717 12.5838122,1.14758307 12.7618022,1.25937565 L25.3365307,9.14011938 C25.6824205,9.35653293 25.5302612,9.91212093 25.1274631,9.90452747 L7.55852194,9.58518038 C7.24411337,9.57969622 7.06289456,9.21056979 7.24128813,8.94015832 Z" id="Stroke-3" stroke="#FFFFFF" stroke-width="0.5368"></path>
                            <path d="M20.3705825,12.6541438 C19.0870469,14.7373865 16.8238759,15.5984153 15.3160332,14.5772344 C13.8085925,13.5564749 13.6268956,11.0395569 14.9108332,8.95631412 C16.1943687,6.87264991 18.4575397,6.01162118 19.9649804,7.03280209 C21.4728231,8.053983 21.654118,10.570901 20.3705825,12.6541438 Z" id="Stroke-5" stroke="#FFFFFF" stroke-width="0.5368"></path>
                            <path d="M35.6506187,35.3269131 L19.030755,45.686308 C18.5280346,45.9996951 17.9009381,45.9996951 17.3978165,45.686308 L0.778353987,35.3269131 C0.295694272,35.0261118 0,34.4819845 0,33.8946458 L0,9.77097002 C0,8.85052647 0.71375863,8.10376735 1.59442203,8.10376735 L34.8345506,8.10376735 C35.7148128,8.10376735 36.4285714,8.85052647 36.4285714,9.77097002 L36.4285714,33.8946458 C36.4285714,34.4819845 36.1332784,35.0261118 35.6506187,35.3269131" id="Fill-7" stroke="#FFFFFF" fill="#231F20"></path>
                            <path d="M35.6506187,35.3269131 L19.030755,45.686308 C18.5280346,45.9996951 17.9009381,45.9996951 17.3978165,45.686308 L0.778353987,35.3269131 C0.295694272,35.0261118 0,34.4819845 0,33.8946458 L0,9.77097002 C0,8.85052647 0.71375863,8.10376735 1.59442203,8.10376735 L34.8345506,8.10376735 C35.7148128,8.10376735 36.4285714,8.85052647 36.4285714,9.77097002 L36.4285714,33.8946458 C36.4285714,34.4819845 36.1332784,35.0261118 35.6506187,35.3269131 Z" id="Stroke-9"></path>
                            <path d="M10.8998875,3.73412377 C10.8998875,3.73412377 13.4741807,6.02139524 14.9156355,2.70125578" id="Stroke-11" stroke="#FFFFFF" stroke-width="0.5368"></path>
                            <path d="M33.9552868,12.5711982 L33.9552868,13.379414 C33.9552868,13.4833552 34.035236,13.5676162 34.1338583,13.5676162 C34.2324805,13.5676162 34.3124297,13.4833552 34.3124297,13.379414 L34.3124297,12.5711982 C34.3124297,12.467257 34.2324805,12.382996 34.1338583,12.382996 C34.035236,12.382996 33.9552868,12.467257 33.9552868,12.5711982 Z M33.9552868,14.1876298 L33.9552868,14.9958455 C33.9552868,15.0997868 34.035236,15.1840478 34.1338583,15.1840478 C34.2324805,15.1840478 34.3124297,15.0997868 34.3124297,14.9958455 L34.3124297,14.1876298 C34.3124297,14.0836885 34.2324805,13.9994275 34.1338583,13.9994275 C34.035236,13.9994275 33.9552868,14.0836885 33.9552868,14.1876298 Z M33.9552868,15.8040613 L33.9552868,16.6122771 C33.9552868,16.7162183 34.035236,16.8004793 34.1338583,16.8004793 C34.2324805,16.8004793 34.3124297,16.7162183 34.3124297,16.6122771 L34.3124297,15.8040613 C34.3124297,15.7001201 34.2324805,15.615859 34.1338583,15.615859 C34.035236,15.615859 33.9552868,15.7001201 33.9552868,15.8040613 Z M33.9552868,17.4204928 L33.9552868,18.2287086 C33.9552868,18.3326498 34.035236,18.4169109 34.1338583,18.4169109 C34.2324805,18.4169109 34.3124297,18.3326498 34.3124297,18.2287086 L34.3124297,17.4204928 C34.3124297,17.3165516 34.2324805,17.2322906 34.1338583,17.2322906 C34.035236,17.2322906 33.9552868,17.3165516 33.9552868,17.4204928 Z M33.9552868,19.0369244 L33.9552868,19.8451401 C33.9552868,19.9490814 34.035236,20.0333424 34.1338583,20.0333424 C34.2324805,20.0333424 34.3124297,19.9490814 34.3124297,19.8451401 L34.3124297,19.0369244 C34.3124297,18.9329831 34.2324805,18.8487221 34.1338583,18.8487221 C34.035236,18.8487221 33.9552868,18.9329831 33.9552868,19.0369244 Z M33.9552868,20.6533559 L33.9552868,21.4615717 C33.9552868,21.5655129 34.035236,21.6497739 34.1338583,21.6497739 C34.2324805,21.6497739 34.3124297,21.5655129 34.3124297,21.4615717 L34.3124297,20.6533559 C34.3124297,20.5494147 34.2324805,20.4651537 34.1338583,20.4651537 C34.035236,20.4651537 33.9552868,20.5494147 33.9552868,20.6533559 Z M33.9552868,22.2697875 L33.9552868,23.0780032 C33.9552868,23.1819445 34.035236,23.2662055 34.1338583,23.2662055 C34.2324805,23.2662055 34.3124297,23.1819445 34.3124297,23.0780032 L34.3124297,22.2697875 C34.3124297,22.1658462 34.2324805,22.0815852 34.1338583,22.0815852 C34.035236,22.0815852 33.9552868,22.1658462 33.9552868,22.2697875 Z M33.9552868,23.886219 L33.9552868,24.6944348 C33.9552868,24.798376 34.035236,24.882637 34.1338583,24.882637 C34.2324805,24.882637 34.3124297,24.798376 34.3124297,24.6944348 L34.3124297,23.886219 C34.3124297,23.7822778 34.2324805,23.6980168 34.1338583,23.6980168 C34.035236,23.6980168 33.9552868,23.7822778 33.9552868,23.886219 Z M33.9552868,25.5026505 L33.9552868,26.3108663 C33.9552868,26.4148075 34.035236,26.4990686 34.1338583,26.4990686 C34.2324805,26.4990686 34.3124297,26.4148075 34.3124297,26.3108663 L34.3124297,25.5026505 C34.3124297,25.3987093 34.2324805,25.3144483 34.1338583,25.3144483 C34.035236,25.3144483 33.9552868,25.3987093 33.9552868,25.5026505 Z M33.9552868,27.1190821 L33.9552868,27.9272979 C33.9552868,28.0312391 34.035236,28.1155001 34.1338583,28.1155001 C34.2324805,28.1155001 34.3124297,28.0312391 34.3124297,27.9272979 L34.3124297,27.1190821 C34.3124297,27.0151409 34.2324805,26.9308798 34.1338583,26.9308798 C34.035236,26.9308798 33.9552868,27.0151409 33.9552868,27.1190821 Z M33.9552868,28.7355136 L33.9552868,29.5437294 C33.9552868,29.6476706 34.035236,29.7319316 34.1338583,29.7319316 C34.2324805,29.7319316 34.3124297,29.6476706 34.3124297,29.5437294 L34.3124297,28.7355136 C34.3124297,28.6315724 34.2324805,28.5473114 34.1338583,28.5473114 C34.035236,28.5473114 33.9552868,28.6315724 33.9552868,28.7355136 Z M33.9552868,30.3519452 L33.9552868,31.1601609 C33.9552868,31.2641022 34.035236,31.3483632 34.1338583,31.3483632 C34.2324805,31.3483632 34.3124297,31.2641022 34.3124297,31.1601609 L34.3124297,30.3519452 C34.3124297,30.2480039 34.2324805,30.1637429 34.1338583,30.1637429 C34.035236,30.1637429 33.9552868,30.2480039 33.9552868,30.3519452 Z M33.9552868,31.9683767 L33.9552868,32.6472281 C33.9552868,32.6848893 33.9537063,32.7224485 33.9505608,32.7598168 C33.9418457,32.8633514 34.014417,32.9547288 34.1126535,32.963914 C34.2108899,32.9730992 34.2975913,32.8966138 34.3063064,32.7930792 C34.3103821,32.7446605 34.3124297,32.6960031 34.3124297,32.6472281 L34.3124297,31.9683767 C34.3124297,31.8644355 34.2324805,31.7801745 34.1338583,31.7801745 C34.035236,31.7801745 33.9552868,31.8644355 33.9552868,31.9683767 Z M33.7066945,33.4211349 C33.62082,33.5397095 33.5157391,33.641871 33.3955824,33.7228936 L33.1198666,33.8965526 C33.0352227,33.9498962 33.0076358,34.0654579 33.0582497,34.1546669 C33.1088636,34.2438759 33.2185116,34.2729505 33.3031555,34.2196069 L33.5834653,34.0429524 C33.7434815,33.9351545 33.879471,33.802943 33.9905886,33.649513 C34.0504262,33.5668898 34.0353824,33.4487862 33.9569872,33.3857214 C33.878592,33.3226565 33.7665322,33.3385116 33.7066945,33.4211349 Z M32.4611586,34.3095457 L31.8021032,34.7227571 C31.7173449,34.7758984 31.6895097,34.891394 31.7399317,34.9807235 C31.7903537,35.0700531 31.899939,35.0993895 31.9846974,35.0462481 L32.6437528,34.6330367 C32.7285111,34.5798953 32.7563462,34.4643998 32.7059242,34.3750702 C32.6555022,34.2857406 32.5459169,34.2564043 32.4611586,34.3095457 Z M31.1430478,35.1359684 L30.4839924,35.5491798 C30.3992341,35.6023212 30.371399,35.7178167 30.421821,35.8071463 C30.472243,35.8964759 30.5818283,35.9258122 30.6665866,35.8726709 L31.325642,35.4594595 C31.4104003,35.4063181 31.4382354,35.2908226 31.3878135,35.201493 C31.3373915,35.1121634 31.2278062,35.0828271 31.1430478,35.1359684 Z M29.8249371,35.9623912 L29.1658817,36.3756026 C29.0811233,36.428744 29.0532882,36.5442395 29.1037102,36.6335691 C29.1541322,36.7228987 29.2637175,36.752235 29.3484758,36.6990936 L30.0075312,36.2858822 C30.0922896,36.2327409 30.1201247,36.1172453 30.0697027,36.0279158 C30.0192807,35.9385862 29.9096954,35.9092498 29.8249371,35.9623912 Z M28.5068263,36.788814 L27.8477709,37.2020254 C27.7630126,37.2551668 27.7351775,37.3706623 27.7855994,37.4599919 C27.8360214,37.5493215 27.9456067,37.5786578 28.0303651,37.5255164 L28.6894205,37.112305 C28.7741788,37.0591636 28.8020139,36.9436681 28.7515919,36.8543385 C28.7011699,36.765009 28.5915846,36.7356726 28.5068263,36.788814 Z M27.1887155,37.6152368 L26.5296601,38.0284482 C26.4449018,38.0815896 26.4170667,38.1970851 26.4674887,38.2864147 C26.5179107,38.3757442 26.627496,38.4050806 26.7122543,38.3519392 L27.3713097,37.9387278 C27.456068,37.8855864 27.4839032,37.7700909 27.4334812,37.6807613 C27.3830592,37.5914317 27.2734739,37.5620954 27.1887155,37.6152368 Z M25.8706048,38.4416596 L25.2115494,38.854871 C25.126791,38.9080123 25.0989559,39.0235079 25.1493779,39.1128374 C25.1997999,39.202167 25.3093852,39.2315033 25.3941436,39.178362 L26.0531989,38.7651506 C26.1379573,38.7120092 26.1657924,38.5965137 26.1153704,38.5071841 C26.0649484,38.4178545 25.9553631,38.3885182 25.8706048,38.4416596 Z M24.552494,39.2680823 L23.8934386,39.6812937 C23.8086803,39.7344351 23.7808452,39.8499306 23.8312671,39.9392602 C23.8816891,40.0285898 23.9912745,40.0579261 24.0760328,40.0047847 L24.7350882,39.5915734 C24.8198465,39.538432 24.8476816,39.4229365 24.7972596,39.3336069 C24.7468376,39.2442773 24.6372523,39.214941 24.552494,39.2680823 Z M23.2343832,40.0945051 L22.5753278,40.5077165 C22.4905695,40.5608579 22.4627344,40.6763534 22.5131564,40.765683 C22.5635784,40.8550126 22.6731637,40.8843489 22.757922,40.8312075 L23.4169774,40.4179961 C23.5017358,40.3648548 23.5295709,40.2493592 23.4791489,40.1600297 C23.4287269,40.0707001 23.3191416,40.0413637 23.2343832,40.0945051 Z M21.9162725,40.9209279 L21.2572171,41.3341393 C21.1724587,41.3872807 21.1446236,41.5027762 21.1950456,41.5921058 C21.2454676,41.6814354 21.3550529,41.7107717 21.4398113,41.6576303 L22.0988666,41.2444189 C22.183625,41.1912775 22.2114601,41.075782 22.1610381,40.9864524 C22.1106161,40.8971229 22.0010308,40.8677865 21.9162725,40.9209279 Z M20.5981617,41.7473507 L19.9391063,42.1605621 C19.854348,42.2137035 19.8265129,42.329199 19.8769349,42.4185286 C19.9273568,42.5078581 20.0369422,42.5371945 20.1217005,42.4840531 L20.7807559,42.0708417 C20.8655142,42.0177003 20.8933493,41.9022048 20.8429273,41.8128752 C20.7925054,41.7235456 20.68292,41.6942093 20.5981617,41.7473507 Z M19.2800509,42.5737735 L18.8369058,42.8516145 C18.7737969,42.8911488 18.7076754,42.9244674 18.6393107,42.9512873 C18.5468838,42.9875468 18.4998471,43.0959087 18.5342511,43.1933203 C18.5686552,43.2907319 18.6714719,43.3403055 18.7638987,43.304046 C18.8523168,43.2693591 18.9378166,43.2262757 19.019443,43.1751412 L19.4626451,42.8972645 C19.5474035,42.8441231 19.5752386,42.7286276 19.5248166,42.639298 C19.4743946,42.5499684 19.3648093,42.5206321 19.2800509,42.5737735 Z M17.960801,43.0037999 C17.8441502,42.9776488 17.7315477,42.9335148 17.626394,42.8723529 L17.2845326,42.6588041 C17.1996821,42.6058263 17.090148,42.635374 17.0398812,42.7248007 C16.9896144,42.8142274 17.0176501,42.929669 17.1025005,42.9826468 L17.4490957,43.1990492 C17.5898496,43.2810179 17.7355718,43.338133 17.8864952,43.3719675 C17.9829593,43.3935931 18.0777928,43.3287071 18.0983118,43.2270404 C18.1188308,43.1253737 18.0572652,43.0254256 17.960801,43.0037999 Z M16.6257517,42.2457758 L15.9666915,41.8325729 C15.8819326,41.7794326 15.7723476,41.8087703 15.7219267,41.8981005 C15.6715057,41.9874307 15.6993421,42.1029259 15.7841011,42.1560662 L16.4431612,42.5692692 C16.5279202,42.6224095 16.6375051,42.5930717 16.6879261,42.5037415 C16.7383471,42.4144113 16.7105106,42.2989161 16.6257517,42.2457758 Z M15.3076314,41.4193699 L14.6485713,41.0061669 C14.5638123,40.9530266 14.4542274,40.9823644 14.4038064,41.0716946 C14.3533854,41.1610248 14.3812219,41.27652 14.4659808,41.3296603 L15.125041,41.7428632 C15.2097999,41.7960035 15.3193849,41.7666658 15.3698058,41.6773356 C15.4202268,41.5880054 15.3923904,41.4725102 15.3076314,41.4193699 Z M13.9895111,40.592964 L13.330451,40.179761 C13.2456921,40.1266207 13.1361071,40.1559584 13.0856861,40.2452886 C13.0352652,40.3346189 13.0631016,40.450114 13.1478605,40.5032543 L13.8069207,40.9164573 C13.8916796,40.9695976 14.0012646,40.9402599 14.0516856,40.8509296 C14.1021065,40.7615994 14.0742701,40.6461043 13.9895111,40.592964 Z M12.6713909,39.766558 L12.0123307,39.353355 C11.9275718,39.3002148 11.8179868,39.3295525 11.7675659,39.4188827 C11.7171449,39.5082129 11.7449813,39.6237081 11.8297403,39.6768484 L12.4888004,40.0900514 C12.5735594,40.1431917 12.6831443,40.1138539 12.7335653,40.0245237 C12.7839863,39.9351935 12.7561498,39.8196983 12.6713909,39.766558 Z M11.3532706,38.9401521 L10.6942105,38.5269491 C10.6094515,38.4738088 10.4998665,38.5031465 10.4494456,38.5924768 C10.3990246,38.681807 10.4268611,38.7973022 10.51162,38.8504425 L11.1706801,39.2636454 C11.2554391,39.3167857 11.3650241,39.287448 11.415445,39.1981178 C11.465866,39.1087875 11.4380296,38.9932924 11.3532706,38.9401521 Z M10.0351503,38.1137461 L9.3760902,37.7005432 C9.29133125,37.6474029 9.18174627,37.6767406 9.13132531,37.7660708 C9.08090435,37.855401 9.10874079,37.9708962 9.19349974,38.0240365 L9.85255987,38.4372395 C9.93731883,38.4903798 10.0469038,38.4610421 10.0973248,38.3717118 C10.1477457,38.2823816 10.1199093,38.1668864 10.0351503,38.1137461 Z M8.71703007,37.2873402 L8.05796993,36.8741372 C7.97321098,36.8209969 7.86362601,36.8503347 7.81320504,36.9396649 C7.76278408,37.0289951 7.79062052,37.1444903 7.87537947,37.1976306 L8.53443961,37.6108335 C8.61919856,37.6639738 8.72878353,37.6346361 8.77920449,37.5453059 C8.82962546,37.4559757 8.80178902,37.3404805 8.71703007,37.2873402 Z M7.3989098,36.4609343 L6.73984966,36.0477313 C6.65509071,35.994591 6.54550574,36.0239287 6.49508477,36.1132589 C6.44466381,36.2025892 6.47250025,36.3180843 6.5572592,36.3712246 L7.21631934,36.7844276 C7.30107829,36.8375679 7.41066326,36.8082302 7.46108422,36.7188999 C7.51150519,36.6295697 7.48366875,36.5140746 7.3989098,36.4609343 Z M6.08078953,35.6345283 L5.42172939,35.2213253 C5.33697044,35.1681851 5.22738547,35.1975228 5.1769645,35.286853 C5.12654354,35.3761832 5.15437998,35.4916784 5.23913893,35.5448187 L5.89819907,35.9580217 C5.98295802,36.011162 6.09254299,35.9818242 6.14296395,35.892494 C6.19338492,35.8031638 6.16554848,35.6876686 6.08078953,35.6345283 Z M4.76266926,34.8081224 L4.10360912,34.3949194 C4.01885017,34.3417791 3.9092652,34.3711168 3.85884423,34.4604471 C3.80842327,34.5497773 3.83625971,34.6652725 3.92101866,34.7184128 L4.5800788,35.1316157 C4.66483775,35.184756 4.77442272,35.1554183 4.82484369,35.0660881 C4.87526465,34.9767578 4.84742821,34.8612627 4.76266926,34.8081224 Z M3.44454899,33.9817164 L3.06606313,33.7444217 C2.98398455,33.6928891 2.90827574,33.6315919 2.84027817,33.561852 C2.76959887,33.4893618 2.65654417,33.4909839 2.58776343,33.5654751 C2.51898269,33.6399663 2.52052178,33.7591183 2.59120108,33.8316086 C2.67918494,33.9218468 2.7771352,34.0011518 2.88337742,34.0678553 L3.26195853,34.3052098 C3.34671748,34.3583501 3.45630245,34.3290124 3.50672342,34.2396821 C3.55714438,34.1503519 3.52930794,34.0348567 3.44454899,33.9817164 Z M2.50414215,32.9331515 C2.48579057,32.8492846 2.47552889,32.7635174 2.4736138,32.6769887 L2.47328454,32.1352534 C2.47321262,32.0313122 2.39320519,31.9471127 2.29458294,31.9471884 C2.19596069,31.9472642 2.11606986,32.0315867 2.11614178,32.1355279 L2.11651955,32.6815148 C2.11904939,32.7978788 2.13234987,32.9090443 2.15613387,33.0177374 C2.17829635,33.1190201 2.2741669,33.1821908 2.37026673,33.1588331 C2.46636656,33.1354753 2.52630463,33.0344342 2.50414215,32.9331515 Z M2.47328459,31.3271749 L2.47328459,30.5189591 C2.47328459,30.4150179 2.39333544,30.3307569 2.29471316,30.3307569 C2.19609088,30.3307569 2.11614173,30.4150179 2.11614173,30.5189591 L2.11614173,31.3271749 C2.11614173,31.4311161 2.19609088,31.5153771 2.29471316,31.5153771 C2.39333544,31.5153771 2.47328459,31.4311161 2.47328459,31.3271749 Z M2.47328459,29.7107433 L2.47328459,28.9025276 C2.47328459,28.7985863 2.39333544,28.7143253 2.29471316,28.7143253 C2.19609088,28.7143253 2.11614173,28.7985863 2.11614173,28.9025276 L2.11614173,29.7107433 C2.11614173,29.8146846 2.19609088,29.8989456 2.29471316,29.8989456 C2.39333544,29.8989456 2.47328459,29.8146846 2.47328459,29.7107433 Z M2.47328459,28.0943118 L2.47328459,27.286096 C2.47328459,27.1821548 2.39333544,27.0978938 2.29471316,27.0978938 C2.19609088,27.0978938 2.11614173,27.1821548 2.11614173,27.286096 L2.11614173,28.0943118 C2.11614173,28.198253 2.19609088,28.282514 2.29471316,28.282514 C2.39333544,28.282514 2.47328459,28.198253 2.47328459,28.0943118 Z M2.47328459,26.4778802 L2.47328459,25.6696645 C2.47328459,25.5657232 2.39333544,25.4814622 2.29471316,25.4814622 C2.19609088,25.4814622 2.11614173,25.5657232 2.11614173,25.6696645 L2.11614173,26.4778802 C2.11614173,26.5818215 2.19609088,26.6660825 2.29471316,26.6660825 C2.39333544,26.6660825 2.47328459,26.5818215 2.47328459,26.4778802 Z M2.47328459,24.8614487 L2.47328459,24.0532329 C2.47328459,23.9492917 2.39333544,23.8650307 2.29471316,23.8650307 C2.19609088,23.8650307 2.11614173,23.9492917 2.11614173,24.0532329 L2.11614173,24.8614487 C2.11614173,24.9653899 2.19609088,25.049651 2.29471316,25.049651 C2.39333544,25.049651 2.47328459,24.9653899 2.47328459,24.8614487 Z M2.47328459,23.2450172 L2.47328459,22.4368014 C2.47328459,22.3328602 2.39333544,22.2485991 2.29471316,22.2485991 C2.19609088,22.2485991 2.11614173,22.3328602 2.11614173,22.4368014 L2.11614173,23.2450172 C2.11614173,23.3489584 2.19609088,23.4332194 2.29471316,23.4332194 C2.39333544,23.4332194 2.47328459,23.3489584 2.47328459,23.2450172 Z M2.47328459,21.6285856 L2.47328459,20.8203699 C2.47328459,20.7164286 2.39333544,20.6321676 2.29471316,20.6321676 C2.19609088,20.6321676 2.11614173,20.7164286 2.11614173,20.8203699 L2.11614173,21.6285856 C2.11614173,21.7325269 2.19609088,21.8167879 2.29471316,21.8167879 C2.39333544,21.8167879 2.47328459,21.7325269 2.47328459,21.6285856 Z M2.47328459,20.0121541 L2.47328459,19.2039383 C2.47328459,19.0999971 2.39333544,19.0157361 2.29471316,19.0157361 C2.19609088,19.0157361 2.11614173,19.0999971 2.11614173,19.2039383 L2.11614173,20.0121541 C2.11614173,20.1160953 2.19609088,20.2003563 2.29471316,20.2003563 C2.39333544,20.2003563 2.47328459,20.1160953 2.47328459,20.0121541 Z M2.47328459,18.3957225 L2.47328459,17.5875068 C2.47328459,17.4835655 2.39333544,17.3993045 2.29471316,17.3993045 C2.19609088,17.3993045 2.11614173,17.4835655 2.11614173,17.5875068 L2.11614173,18.3957225 C2.11614173,18.4996638 2.19609088,18.5839248 2.29471316,18.5839248 C2.39333544,18.5839248 2.47328459,18.4996638 2.47328459,18.3957225 Z M2.47328459,16.779291 L2.47328459,15.9710752 C2.47328459,15.867134 2.39333544,15.782873 2.29471316,15.782873 C2.19609088,15.782873 2.11614173,15.867134 2.11614173,15.9710752 L2.11614173,16.779291 C2.11614173,16.8832322 2.19609088,16.9674932 2.29471316,16.9674932 C2.39333544,16.9674932 2.47328459,16.8832322 2.47328459,16.779291 Z M2.47328459,15.1628595 L2.47328459,14.3546437 C2.47328459,14.2507025 2.39333544,14.1664414 2.29471316,14.1664414 C2.19609088,14.1664414 2.11614173,14.2507025 2.11614173,14.3546437 L2.11614173,15.1628595 C2.11614173,15.2668007 2.19609088,15.3510617 2.29471316,15.3510617 C2.39333544,15.3510617 2.47328459,15.2668007 2.47328459,15.1628595 Z M2.47328459,13.5464279 L2.47328459,12.7382121 C2.47328459,12.6342709 2.39333544,12.5500099 2.29471316,12.5500099 C2.19609088,12.5500099 2.11614173,12.6342709 2.11614173,12.7382121 L2.11614173,13.5464279 C2.11614173,13.6503691 2.19609088,13.7346302 2.29471316,13.7346302 C2.39333544,13.7346302 2.47328459,13.6503691 2.47328459,13.5464279 Z" id="Stroke-15" fill="#FFFFFF" fill-rule="nonzero"></path>
                        </g>
                    </g>
                </g>
            </g>
        </g>
    </g>
</svg>