<?xml version="1.0" encoding="utf-8"?>
<!-- Generator: Adobe Illustrator 22.0.1, SVG Export Plug-In . SVG Version: 6.00 Build 0)  -->
<svg version="1.1" id="Layer_1" xmlns="http://www.w3.org/2000/svg" xmlns:xlink="http://www.w3.org/1999/xlink" x="0px" y="0px"
	 viewBox="0 0 140 54" style="enable-background:new 0 0 140 54;" xml:space="preserve">
<style type="text/css">
	.st0{clip-path:url(#SVGID_2_);}
	.st1{clip-path:url(#SVGID_6_);}
</style>
<g>
	<defs>
		<path id="SVGID_1_" d="M48.4,26.8l5.8-5.7c0.1-0.1,0.1-0.1,0.1-0.2L49.8,4.5c0-0.1-0.1-0.1-0.2-0.2L33.2,0c-0.1,0-0.2,0-0.2,0.1
			l-5.8,5.7c-0.1,0.1-0.1,0.1-0.2,0l-5.8-5.7C21.2,0,21.1,0,21,0L4.6,4.4c-0.1,0-0.1,0.1-0.2,0.2L0,20.9c0,0.1,0,0.2,0.1,0.2
			l5.8,5.7c0.1,0.1,0.1,0.1,0,0.2l-5.8,5.7C0,32.8,0,32.9,0,32.9l4.4,16.3c0,0.1,0.1,0.1,0.2,0.2L21,53.8c0.1,0,0.2,0,0.2-0.1L27,48
			c0.1-0.1,0.1-0.1,0.2,0l5.8,5.7c0.1,0.1,0.1,0.1,0.2,0.1l16.5-4.4c0.1,0,0.1-0.1,0.2-0.2l4.4-16.3c0-0.1,0-0.2-0.1-0.2L48.4,27
			C48.4,26.9,48.4,26.9,48.4,26.8 M49.4,34.2l-2.5,9.1c0,0.1-0.1,0.1-0.1,0L39.4,36c-0.1-0.1-0.1-0.1,0-0.2l5.8-5.7
			c0.1-0.1,0.1-0.1,0.2,0l4,4C49.4,34.1,49.4,34.2,49.4,34.2 M24,27l-5.8,5.7c-0.1,0.1-0.1,0.1-0.2,0L12.2,27
			c-0.1-0.1-0.1-0.1,0-0.2l5.8-5.7c0.1-0.1,0.1-0.1,0.2,0l5.8,5.7C24,26.9,24,26.9,24,27 M21.3,17.8l5.8-5.7c0.1-0.1,0.1-0.1,0.2,0
			l5.8,5.7c0.1,0.1,0.1,0.1,0,0.2l-5.8,5.7c-0.1,0.1-0.1,0.1-0.2,0L21.3,18C21.2,18,21.2,17.9,21.3,17.8 M27.2,30.1l5.8,5.7
			c0.1,0.1,0.1,0.1,0,0.2l-5.8,5.7c-0.1,0.1-0.1,0.1-0.2,0L21.3,36c-0.1-0.1-0.1-0.1,0-0.2l5.8-5.7C27.1,30,27.2,30,27.2,30.1
			 M30.3,26.8l5.8-5.7c0.1-0.1,0.1-0.1,0.2,0l5.8,5.7c0.1,0.1,0.1,0.1,0,0.2l-5.8,5.7c-0.1,0.1-0.1,0.1-0.2,0L30.3,27
			C30.3,26.9,30.3,26.9,30.3,26.8 M45.1,23.8L39.4,18c-0.1-0.1-0.1-0.1,0-0.2l7.5-7.4c0.1-0.1,0.1,0,0.1,0l2.5,9.1
			c0,0.1,0,0.2-0.1,0.2l-4,4C45.3,23.8,45.2,23.8,45.1,23.8 M34.5,4.8l9.2,2.4c0.1,0,0.1,0.1,0,0.1l-7.4,7.4c-0.1,0.1-0.1,0.1-0.2,0
			L30.3,9c-0.1-0.1-0.1-0.1,0-0.2l4-4C34.4,4.8,34.5,4.8,34.5,4.8 M24,9l-5.8,5.7c-0.1,0.1-0.1,0.1-0.2,0l-7.4-7.4
			c-0.1-0.1,0-0.1,0-0.1l9.2-2.4c0.1,0,0.2,0,0.2,0.1l4,4C24,8.9,24,9,24,9 M4.9,19.6l2.5-9.1c0-0.1,0.1-0.1,0.1,0l7.4,7.4
			c0.1,0.1,0.1,0.1,0,0.2l-5.8,5.7c-0.1,0.1-0.1,0.1-0.2,0l-4-4C4.9,19.7,4.8,19.6,4.9,19.6 M9.1,30.1l5.8,5.7
			c0.1,0.1,0.1,0.1,0,0.2l-7.4,7.4c-0.1,0.1-0.1,0-0.1,0l-2.5-9.1c0-0.1,0-0.2,0.1-0.2l4-4C9,30,9.1,30,9.1,30.1 M19.7,49l-9.2-2.4
			c-0.1,0-0.1-0.1,0-0.1L18,39c0.1-0.1,0.1-0.1,0.2,0l5.8,5.7c0.1,0.1,0.1,0.1,0,0.2l-4,4C19.9,49,19.8,49,19.7,49 M30.3,44.8
			l5.8-5.7c0.1-0.1,0.1-0.1,0.2,0l7.4,7.4c0.1,0.1,0,0.1,0,0.1L34.5,49c-0.1,0-0.2,0-0.2-0.1l-4-4C30.3,44.9,30.3,44.8,30.3,44.8"/>
	</defs>
	<use xlink:href="#SVGID_1_"  style="overflow:visible;fill-rule:evenodd;clip-rule:evenodd;fill:#6AC6C5;"/>
	<clipPath id="SVGID_2_">
		<use xlink:href="#SVGID_1_"  style="overflow:visible;"/>
	</clipPath>
	<g class="st0">
		<defs>
			<rect id="SVGID_3_" x="-850" y="-2405" width="1440" height="4057"/>
		</defs>
		<use xlink:href="#SVGID_3_"  style="overflow:visible;fill:#6AC6C5;"/>
		<clipPath id="SVGID_4_">
			<use xlink:href="#SVGID_3_"  style="overflow:visible;"/>
		</clipPath>
	</g>
</g>
<g>
	<defs>
		<path id="SVGID_5_" d="M114.6,37.3h4.5V18.4h-4.5V37.3z M137.3,34.7c-1.6,1.7-3.7,2.6-6.4,2.6h-7.3V18.4h6.2
			c2.5,0,4.5,0.5,5.9,1.4c0.9,0.5,1.6,1.3,2.3,2.2c1.1,1.6,1.7,3.6,1.7,5.9C139.7,30.6,138.9,33,137.3,34.7z M135.2,27.9
			c0-1.7-0.4-3.1-1.2-4.1c-0.8-1-2-1.5-3.6-1.5h-2.3v10.9h2.3C133.6,33.3,135.2,31.5,135.2,27.9z M104.3,18.4l7.4,18.9h-4.9
			l-0.9-2.8H99l-1,2.8h-4.9l7.5-18.9H104.3z M104.7,30.9l-2.2-7.3l-2.2,7.3H104.7z M80.7,18.4v18.9h10.2v-4h-5.6V18.4H80.7z
			 M77.3,24.8c0,2-0.7,3.7-1.9,4.9c-1.1,1.1-3,1.6-5.5,1.6h-2.3v6h-4.3V18.4h6.1c2.7,0,4.6,0.5,5.8,1.4C76.5,21,77.3,22.7,77.3,24.8
			z M73,24.8c0-1.6-1.1-2.4-3.4-2.4h-1.9v4.8h2.1C71.9,27.2,73,26.4,73,24.8z"/>
	</defs>
	<use xlink:href="#SVGID_5_"  style="overflow:visible;fill-rule:evenodd;clip-rule:evenodd;fill:#6AC6C5;"/>
	<clipPath id="SVGID_6_">
		<use xlink:href="#SVGID_5_"  style="overflow:visible;"/>
	</clipPath>
	<g class="st1">
		<defs>
			<rect id="SVGID_7_" x="-850" y="-2405" width="1440" height="4057"/>
		</defs>
		<use xlink:href="#SVGID_7_"  style="overflow:visible;fill:#6AC6C5;"/>
		<clipPath id="SVGID_8_">
			<use xlink:href="#SVGID_7_"  style="overflow:visible;"/>
		</clipPath>
	</g>
</g>
</svg>
