<?xml version="1.0" encoding="utf-8"?>
<!-- Generator: Adobe Illustrator 21.0.2, SVG Export Plug-In . SVG Version: 6.00 Build 0)  -->
<svg version="1.1" id="Layer_1" xmlns="http://www.w3.org/2000/svg" xmlns:xlink="http://www.w3.org/1999/xlink" x="0px" y="0px"
	 viewBox="0 0 360 360" style="enable-background:new 0 0 360 360;" xml:space="preserve">
<style type="text/css">
	.st0{fill:#888888;}
</style>
<g>
	<path class="st0" d="M149.7,186.4c-12.5-2.6-24.3-5.1-36.1-7.5c-14.4-2.9-28.8-5.7-43.1-8.7c-2.9-0.6-5.7-1.8-8.5-2.7
		c-0.1-0.6-0.2-1.2-0.3-1.7c2.1-1.3,4-2.8,6.2-3.7c27-11.6,54.4-21.9,82.9-29.4c2.6-0.7,5.2-1.6,7.6-2.4c4-33.4,7.9-66.4,11.8-99.4
		c0-0.4,0.7-0.6,1.9-1.5c1.2,1.9,2.5,3.6,3.3,5.4c10.6,24.4,21,48.8,31.6,73.2c1.3,3,2.7,5.9,3.9,8.8c8.8-0.9,17.2-2,25.6-2.6
		c19.2-1.3,38.3-1.3,57.3,2.2c1.8,0.3,3.4,1.8,5.1,2.7c-1,1.7-1.7,3.8-3,5.1c-5.2,4.8-10.5,9.4-15.9,14.1c-4,3.5-8.3,4.7-13.8,3.8
		c-12.4-1.9-24.9-3.1-37.5-4.4c-2.3-0.2-4.7,0.4-7.7,0.7c0.6,2,1,3.5,1.5,4.8c8,18.5,16.1,37.1,24,55.6c1.1,2.5,2.5,4,5.3,4.1
		c1.7,0.1,3.4,0.4,5.1,0.5c8.5,0.7,10.4,3.5,7.9,12.4c-1.4,0.2-3.1,0.5-4.8,0.5c-20.2,0-40.4,0-60.6,0c-3.1,0-5.7-0.1-6.7-4
		c-1.4-5.9-0.3-7.4,5.8-7.8c4.9-0.3,9.9-0.8,15.7-1.4c-7.5-20.4-14.6-40.1-22-60.3c-6.7,1.2-13.2,2.2-19.5,3.6
		c-1.2,0.3-2.7,2.3-2.9,3.7c-1,6.3-1.6,12.7-2.4,19c-0.3,2.5,0.5,4.1,2.9,5.4c4.8,2.5,4.9,3.7,3.9,9.1c-0.8,4.4-3.6,5-7.1,4.8
		c-0.8,0-1.7,0.3-3.1,0.5c-0.5,3.4-1.2,6.9-1.5,10.5c-3.6,35.2-7.1,70.4-10.7,105.5c-0.5,5.1-1.1,10.3-1.9,15.4
		c-0.4,2.4-1,4.8-1.9,7c-1.6,4-4.6,5.5-8.2,4.7c-3.5-0.8-5.8-3.5-5.5-7.7c0.5-7.2,1.5-14.4,2.3-21.6c2.6-23.1,5.3-46.3,7.9-69.4
		c1.5-13.4,3.1-26.7,4.6-40.1C149.5,191.2,149.5,189.2,149.7,186.4z M156,149.4c-16.2,3.5-31,7.3-45.5,12.2c0,0.5,0.1,1.1,0.1,1.6
		c14,2.1,28,4.3,42.6,6.5C154.1,162.8,155,156.8,156,149.4z M185.3,123.7c-2.6-6.5-5-12.3-7.3-18.1c-0.5,0.1-0.9,0.2-1.4,0.3
		c-1,6.6-1.9,13.2-3,20.7C178.1,125.5,181.3,124.7,185.3,123.7z"/>
</g>
</svg>
