<?xml version="1.0" encoding="UTF-8" standalone="no"?>
<svg width="53px" height="62px" viewBox="0 0 53 62" version="1.1" xmlns="http://www.w3.org/2000/svg" xmlns:xlink="http://www.w3.org/1999/xlink">
    <!-- Generator: Sketch 47.1 (45422) - http://www.bohemiancoding.com/sketch -->
    <title>Page 1</title>
    <desc>Created with Sketch.</desc>
    <defs></defs>
    <g id="Symbols" stroke="none" stroke-width="1" fill="none" fill-rule="evenodd">
        <g id="img-logo-k" transform="translate(-18.000000, -15.000000)">
            <g id="Group-4">
                <g id="Page-1" transform="translate(19.000000, 15.000000)">
                    <path d="M9.73878876,10.9521112 L16.9320588,0.251480541 C17.1020846,-0.00165143837 17.4348414,-0.0752692401 17.6924053,0.0838584697 L35.8638434,11.2765958 C36.3632591,11.584658 36.1449752,12.3712359 35.5630716,12.3593438 L10.1983635,11.8672371 C9.74440017,11.8587427 9.48178606,11.3349237 9.73878876,10.9521112" id="Fill-1" fill="#000000"></path>
                    <path d="M10.1378034,11.8757327 L17.1291361,1.83092902 C17.294695,1.59332808 17.6173371,1.5244014 17.8665231,1.67290198 L35.4711429,12.1413526 C35.9553886,12.4288273 35.7423657,13.1668472 35.1784483,13.1567604 L10.5819307,12.732553 C10.1417587,12.7252681 9.88805239,12.234936 10.1378034,11.8757327 Z" id="Stroke-3" stroke="#FFFFFF" stroke-width="0.5368"></path>
                    <path d="M28.5188154,16.8092358 C26.7218657,19.5765284 23.5534263,20.720283 21.4424465,19.3637889 C19.3320295,18.0078547 19.0776539,14.664486 20.8751664,11.8971934 C22.6721162,9.12934092 25.8405556,7.98558635 27.9509726,9.34208039 C30.0619523,10.6985744 30.3157652,14.0419431 28.5188154,16.8092358 Z" id="Stroke-5" stroke="#FFFFFF" stroke-width="0.5368"></path>
                    <path d="M49.9108661,46.9267949 L26.643057,60.6877822 C25.9392484,61.1040726 25.0613133,61.1040726 24.356943,60.6877822 L1.08969558,46.9267949 C0.413971981,46.5272231 0,45.8044271 0,45.024231 L0,12.9793482 C0,11.7566695 0.999262082,10.7647059 2.23219085,10.7647059 L48.7683709,10.7647059 C50.0007379,10.7647059 51,11.7566695 51,12.9793482 L51,45.024231 C51,45.8044271 50.5865897,46.5272231 49.9108661,46.9267949" id="Fill-7" stroke="#FFFFFF" fill="#231F20"></path>
                    <path d="M49.9108661,46.9267949 L26.643057,60.6877822 C25.9392484,61.1040726 25.0613133,61.1040726 24.356943,60.6877822 L1.08969558,46.9267949 C0.413971981,46.5272231 0,45.8044271 0,45.024231 L0,12.9793482 C0,11.7566695 0.999262082,10.7647059 2.23219085,10.7647059 L48.7683709,10.7647059 C50.0007379,10.7647059 51,11.7566695 51,12.9793482 L51,45.024231 C51,45.8044271 50.5865897,46.5272231 49.9108661,46.9267949 Z" id="Stroke-9"></path>
                    <path d="M15.2598425,4.96025396 C15.2598425,4.96025396 18.863853,7.9985698 20.8818898,3.58823529" id="Stroke-11" stroke="#FFFFFF" stroke-width="0.5368"></path>
                    <path d="M47.5374016,16.6990543 L47.5374016,17.7726544 C47.5374016,17.9107256 47.6493304,18.0226544 47.7874016,18.0226544 C47.9254728,18.0226544 48.0374016,17.9107256 48.0374016,17.7726544 L48.0374016,16.6990543 C48.0374016,16.5609831 47.9254728,16.4490543 47.7874016,16.4490543 C47.6493304,16.4490543 47.5374016,16.5609831 47.5374016,16.6990543 Z M47.5374016,18.8462544 L47.5374016,19.9198545 C47.5374016,20.0579257 47.6493304,20.1698545 47.7874016,20.1698545 C47.9254728,20.1698545 48.0374016,20.0579257 48.0374016,19.9198545 L48.0374016,18.8462544 C48.0374016,18.7081833 47.9254728,18.5962544 47.7874016,18.5962544 C47.6493304,18.5962544 47.5374016,18.7081833 47.5374016,18.8462544 Z M47.5374016,20.9934546 L47.5374016,22.0670546 C47.5374016,22.2051258 47.6493304,22.3170546 47.7874016,22.3170546 C47.9254728,22.3170546 48.0374016,22.2051258 48.0374016,22.0670546 L48.0374016,20.9934546 C48.0374016,20.8553834 47.9254728,20.7434546 47.7874016,20.7434546 C47.6493304,20.7434546 47.5374016,20.8553834 47.5374016,20.9934546 Z M47.5374016,23.1406547 L47.5374016,24.2142547 C47.5374016,24.3523259 47.6493304,24.4642547 47.7874016,24.4642547 C47.9254728,24.4642547 48.0374016,24.3523259 48.0374016,24.2142547 L48.0374016,23.1406547 C48.0374016,23.0025835 47.9254728,22.8906547 47.7874016,22.8906547 C47.6493304,22.8906547 47.5374016,23.0025835 47.5374016,23.1406547 Z M47.5374016,25.2878548 L47.5374016,26.3614548 C47.5374016,26.499526 47.6493304,26.6114548 47.7874016,26.6114548 C47.9254728,26.6114548 48.0374016,26.499526 48.0374016,26.3614548 L48.0374016,25.2878548 C48.0374016,25.1497836 47.9254728,25.0378548 47.7874016,25.0378548 C47.6493304,25.0378548 47.5374016,25.1497836 47.5374016,25.2878548 Z M47.5374016,27.4350549 L47.5374016,28.5086549 C47.5374016,28.6467261 47.6493304,28.7586549 47.7874016,28.7586549 C47.9254728,28.7586549 48.0374016,28.6467261 48.0374016,28.5086549 L48.0374016,27.4350549 C48.0374016,27.2969837 47.9254728,27.1850549 47.7874016,27.1850549 C47.6493304,27.1850549 47.5374016,27.2969837 47.5374016,27.4350549 Z M47.5374016,29.582255 L47.5374016,30.655855 C47.5374016,30.7939262 47.6493304,30.905855 47.7874016,30.905855 C47.9254728,30.905855 48.0374016,30.7939262 48.0374016,30.655855 L48.0374016,29.582255 C48.0374016,29.4441838 47.9254728,29.332255 47.7874016,29.332255 C47.6493304,29.332255 47.5374016,29.4441838 47.5374016,29.582255 Z M47.5374016,31.7294551 L47.5374016,32.8030551 C47.5374016,32.9411263 47.6493304,33.0530551 47.7874016,33.0530551 C47.9254728,33.0530551 48.0374016,32.9411263 48.0374016,32.8030551 L48.0374016,31.7294551 C48.0374016,31.5913839 47.9254728,31.4794551 47.7874016,31.4794551 C47.6493304,31.4794551 47.5374016,31.5913839 47.5374016,31.7294551 Z M47.5374016,33.8766552 L47.5374016,34.9502553 C47.5374016,35.0883264 47.6493304,35.2002553 47.7874016,35.2002553 C47.9254728,35.2002553 48.0374016,35.0883264 48.0374016,34.9502553 L48.0374016,33.8766552 C48.0374016,33.738584 47.9254728,33.6266552 47.7874016,33.6266552 C47.6493304,33.6266552 47.5374016,33.738584 47.5374016,33.8766552 Z M47.5374016,36.0238553 L47.5374016,37.0974554 C47.5374016,37.2355265 47.6493304,37.3474554 47.7874016,37.3474554 C47.9254728,37.3474554 48.0374016,37.2355265 48.0374016,37.0974554 L48.0374016,36.0238553 C48.0374016,35.8857841 47.9254728,35.7738553 47.7874016,35.7738553 C47.6493304,35.7738553 47.5374016,35.8857841 47.5374016,36.0238553 Z M47.5374016,38.1710554 L47.5374016,39.2446555 C47.5374016,39.3827267 47.6493304,39.4946555 47.7874016,39.4946555 C47.9254728,39.4946555 48.0374016,39.3827267 48.0374016,39.2446555 L48.0374016,38.1710554 C48.0374016,38.0329842 47.9254728,37.9210554 47.7874016,37.9210554 C47.6493304,37.9210554 47.5374016,38.0329842 47.5374016,38.1710554 Z M47.5374016,40.3182555 L47.5374016,41.3918556 C47.5374016,41.5299268 47.6493304,41.6418556 47.7874016,41.6418556 C47.9254728,41.6418556 48.0374016,41.5299268 48.0374016,41.3918556 L48.0374016,40.3182555 C48.0374016,40.1801843 47.9254728,40.0682555 47.7874016,40.0682555 C47.6493304,40.0682555 47.5374016,40.1801843 47.5374016,40.3182555 Z M47.5374016,42.4654556 L47.5374016,43.3672135 C47.5374016,43.4172411 47.5351888,43.467133 47.5307851,43.5167716 C47.5185839,43.6543027 47.6201839,43.7756846 47.7577149,43.7878858 C47.8952459,43.8000869 48.0166278,43.698487 48.028829,43.560956 C48.034535,43.4966385 48.0374016,43.4320041 48.0374016,43.3672135 L48.0374016,42.4654556 C48.0374016,42.3273844 47.9254728,42.2154556 47.7874016,42.2154556 C47.6493304,42.2154556 47.5374016,42.3273844 47.5374016,42.4654556 Z M47.1893723,44.3952389 C47.069148,44.5527484 46.9220348,44.6884555 46.7538154,44.7960826 L46.3678132,45.026764 C46.2493117,45.0976234 46.2106902,45.2511307 46.2815496,45.3696321 C46.352409,45.4881336 46.5059163,45.5267552 46.6244178,45.4558958 L47.0168515,45.2212353 C47.2408741,45.078041 47.4312594,44.9024169 47.586824,44.6986069 C47.6705967,44.5888536 47.6495354,44.4319698 47.5397821,44.348197 C47.4300289,44.2644243 47.273145,44.2854856 47.1893723,44.3952389 Z M45.445622,45.5753666 L44.5229445,46.1242594 C44.4042828,46.1948502 44.3653136,46.3482696 44.4359044,46.4669313 C44.5064952,46.585593 44.6599147,46.6245621 44.7785763,46.5539713 L45.7012539,46.0050786 C45.8199155,45.9344878 45.8588847,45.7810684 45.7882939,45.6624067 C45.7177031,45.543745 45.5642837,45.5047758 45.445622,45.5753666 Z M43.6002669,46.6731521 L42.6775894,47.2220449 C42.5589277,47.2926356 42.5199586,47.4460551 42.5905494,47.5647168 C42.6611401,47.6833784 42.8145596,47.7223476 42.9332213,47.6517568 L43.8558988,47.1028641 C43.9745605,47.0322733 44.0135296,46.8788538 43.9429388,46.7601922 C43.8723481,46.6415305 43.7189286,46.6025613 43.6002669,46.6731521 Z M41.7549119,47.7709376 L40.8322343,48.3198303 C40.7135727,48.3904211 40.6746035,48.5438406 40.7451943,48.6625022 C40.8157851,48.7811639 40.9692045,48.8201331 41.0878662,48.7495423 L42.0105437,48.2006495 C42.1292054,48.1300588 42.1681746,47.9766393 42.0975838,47.8579776 C42.026993,47.739316 41.8735735,47.7003468 41.7549119,47.7709376 Z M39.9095568,48.8687231 L38.9868793,49.4176158 C38.8682176,49.4882066 38.8292484,49.641626 38.8998392,49.7602877 C38.97043,49.8789494 39.1238494,49.9179186 39.2425111,49.8473278 L40.1651887,49.298435 C40.2838503,49.2278442 40.3228195,49.0744248 40.2522287,48.9557631 C40.1816379,48.8371015 40.0282185,48.7981323 39.9095568,48.8687231 Z M38.0642017,49.9665086 L37.1415242,50.5154013 C37.0228625,50.5859921 36.9838934,50.7394115 37.0544842,50.8580732 C37.1250749,50.9767349 37.2784944,51.015704 37.397156,50.9451133 L38.3198336,50.3962205 C38.4384953,50.3256297 38.4774644,50.1722103 38.4068736,50.0535486 C38.3362828,49.9348869 38.1828634,49.8959178 38.0642017,49.9665086 Z M36.2188467,51.064294 L35.2961691,51.6131868 C35.1775074,51.6837776 35.1385383,51.837197 35.2091291,51.9558587 C35.2797199,52.0745204 35.4331393,52.1134895 35.551801,52.0428987 L36.4744785,51.494006 C36.5931402,51.4234152 36.6321093,51.2699958 36.5615186,51.1513341 C36.4909278,51.0326724 36.3375083,50.9937033 36.2188467,51.064294 Z M34.3734916,52.1620795 L33.4508141,52.7109723 C33.3321524,52.7815631 33.2931832,52.9349825 33.363774,53.0536442 C33.4343648,53.1723058 33.5877842,53.211275 33.7064459,53.1406842 L34.6291234,52.5917915 C34.7477851,52.5212007 34.7867543,52.3677813 34.7161635,52.2491196 C34.6455727,52.1304579 34.4921533,52.0914887 34.3734916,52.1620795 Z M32.5281365,53.259865 L31.605459,53.8087578 C31.4867973,53.8793485 31.4478282,54.032768 31.5184189,54.1514297 C31.5890097,54.2700913 31.7424292,54.3090605 31.8610908,54.2384697 L32.7837684,53.689577 C32.9024301,53.6189862 32.9413992,53.4655667 32.8708084,53.3469051 C32.8002176,53.2282434 32.6467982,53.1892742 32.5281365,53.259865 Z M30.6827815,54.3576505 L29.7601039,54.9065432 C29.6414422,54.977134 29.6024731,55.1305535 29.6730639,55.2492151 C29.7436547,55.3678768 29.8970741,55.406846 30.0157358,55.3362552 L30.9384133,54.7873624 C31.057075,54.7167717 31.0960441,54.5633522 31.0254533,54.4446905 C30.9548626,54.3260289 30.8014431,54.2870597 30.6827815,54.3576505 Z M28.8374264,55.455436 L27.9147488,56.0043287 C27.7960872,56.0749195 27.757118,56.2283389 27.8277088,56.3470006 C27.8982996,56.4656623 28.051719,56.5046315 28.1703807,56.4340407 L29.0930582,55.8851479 C29.2117199,55.8145571 29.2506891,55.6611377 29.1800983,55.542476 C29.1095075,55.4238143 28.9560881,55.3848452 28.8374264,55.455436 Z M26.9920713,56.5532215 L26.3716682,56.9222938 C26.2833156,56.9748096 26.1907455,57.0190686 26.0950349,57.054695 C25.9656374,57.1028607 25.8997859,57.2468041 25.9479516,57.3762016 C25.9961173,57.5055992 26.1400607,57.5714506 26.2694582,57.5232849 C26.3932435,57.4772083 26.5129432,57.4199782 26.6272202,57.3520532 L27.2477032,56.9829334 C27.3663648,56.9123426 27.405334,56.7589232 27.3347432,56.6402615 C27.2641524,56.5215998 27.110733,56.4826307 26.9920713,56.5532215 Z M25.1451215,57.1244507 C24.9818103,57.0897125 24.8241668,57.0310868 24.6769517,56.9498419 L24.1983457,56.6661726 C24.079555,56.5957992 23.9262072,56.6350491 23.8558337,56.7538397 C23.7854602,56.8726304 23.8247101,57.0259783 23.9435008,57.0963518 L24.428734,57.3838116 C24.6257895,57.4926955 24.8298005,57.5685647 25.0410932,57.6135091 C25.176143,57.6422357 25.3089099,57.5560437 25.3376366,57.420994 C25.3663632,57.2859442 25.2801712,57.1531773 25.1451215,57.1244507 Z M23.2760524,56.1175231 L22.3533682,55.5686416 C22.2347056,55.4980522 22.0812867,55.5370232 22.0106973,55.6556858 C21.940108,55.7743483 21.979079,55.9277673 22.0977415,55.9983566 L23.0204257,56.5472382 C23.1390882,56.6178275 23.2925072,56.5788565 23.3630966,56.460194 C23.4336859,56.3415314 23.3947149,56.1881125 23.2760524,56.1175231 Z M21.430684,55.01976 L20.5079998,54.4708785 C20.3893373,54.4002891 20.2359183,54.4392601 20.1653289,54.5579227 C20.0947396,54.6765852 20.1337106,54.8300041 20.2523731,54.9005935 L21.1750573,55.4494751 C21.2937199,55.5200644 21.4471388,55.4810934 21.5177282,55.3624309 C21.5883175,55.2437683 21.5493465,55.0903494 21.430684,55.01976 Z M19.5853156,53.9219969 L18.6626314,53.3731153 C18.5439689,53.302526 18.3905499,53.341497 18.3199606,53.4601595 C18.2493712,53.5788221 18.2883422,53.732241 18.4070048,53.8028304 L19.329689,54.3517119 C19.4483515,54.4223013 19.6017705,54.3833303 19.6723598,54.2646677 C19.7429491,54.1460052 19.7039781,53.9925862 19.5853156,53.9219969 Z M17.7399472,52.8242338 L16.817263,52.2753522 C16.6986005,52.2047629 16.5451815,52.2437339 16.4745922,52.3623964 C16.4040028,52.481059 16.4429739,52.6344779 16.5616364,52.7050673 L17.4843206,53.2539488 C17.6029831,53.3245382 17.7564021,53.2855672 17.8269914,53.1669046 C17.8975808,53.0482421 17.8586098,52.8948231 17.7399472,52.8242338 Z M15.8945788,51.7264707 L14.9718947,51.1775891 C14.8532321,51.1069998 14.6998132,51.1459708 14.6292238,51.2646333 C14.5586345,51.3832958 14.5976055,51.5367148 14.716268,51.6073042 L15.6389522,52.1561857 C15.7576147,52.2267751 15.9110337,52.187804 15.981623,52.0691415 C16.0522124,51.950479 16.0132414,51.79706 15.8945788,51.7264707 Z M14.0492105,50.6287076 L13.1265263,50.079826 C13.0078637,50.0092367 12.8544448,50.0482077 12.7838554,50.1668702 C12.7132661,50.2855327 12.7522371,50.4389517 12.8708996,50.509541 L13.7935838,51.0584226 C13.9122464,51.1290119 14.0656653,51.0900409 14.1362547,50.9713784 C14.206844,50.8527159 14.167873,50.6992969 14.0492105,50.6287076 Z M12.2038421,49.5309444 L11.2811579,48.9820629 C11.1624954,48.9114735 11.0090764,48.9504446 10.9384871,49.0691071 C10.8678977,49.1877696 10.9068687,49.3411886 11.0255313,49.4117779 L11.9482154,49.9606595 C12.066878,50.0312488 12.2202969,49.9922778 12.2908863,49.8736153 C12.3614756,49.7549528 12.3225046,49.6015338 12.2038421,49.5309444 Z M10.3584737,48.4331813 L9.43578953,47.8842998 C9.31712699,47.8137104 9.16370803,47.8526814 9.09311868,47.971344 C9.02252933,48.0900065 9.06150035,48.2434255 9.18016288,48.3140148 L10.1028471,48.8628964 C10.2215096,48.9334857 10.3749286,48.8945147 10.4455179,48.7758522 C10.5161073,48.6571896 10.4771362,48.5037707 10.3584737,48.4331813 Z M8.51310534,47.3354182 L7.59042115,46.7865367 C7.47175861,46.7159473 7.31833965,46.7549183 7.2477503,46.8735809 C7.17716096,46.9922434 7.21613197,47.1456624 7.3347945,47.2162517 L8.25747869,47.7651333 C8.37614123,47.8357226 8.52956019,47.7967516 8.60014954,47.6780891 C8.67073889,47.5594265 8.63176787,47.4060076 8.51310534,47.3354182 Z M6.66773696,46.2376551 L5.74505277,45.6887735 C5.62639024,45.6181842 5.47297127,45.6571552 5.40238193,45.7758177 C5.33179258,45.8944803 5.37076359,46.0478992 5.48942613,46.1184886 L6.41211032,46.6673701 C6.53077285,46.7379595 6.68419181,46.6989885 6.75478116,46.5803259 C6.82537051,46.4616634 6.78639949,46.3082444 6.66773696,46.2376551 Z M4.82236858,45.139892 L4.29248838,44.8246796 C4.17757837,44.7562259 4.07158603,44.6748011 3.97638944,44.5821617 C3.87743842,44.4858686 3.71916184,44.4880233 3.62286881,44.5869744 C3.52657577,44.6859254 3.52873049,44.844202 3.62768151,44.940495 C3.75085892,45.0603637 3.88798928,45.1657091 4.03672839,45.2543153 L4.56674194,45.569607 C4.68540447,45.6401964 4.83882343,45.6012254 4.90941278,45.4825628 C4.98000213,45.3639003 4.94103111,45.2104813 4.82236858,45.139892 Z M3.50579901,43.7470221 C3.4801068,43.6356169 3.46574045,43.5216872 3.46305932,43.4067462 L3.46259836,42.6871277 C3.46249767,42.5490565 3.35048727,42.4372093 3.21241612,42.43731 C3.07434497,42.4374107 2.96249781,42.5494211 2.96259849,42.6874923 L2.96312737,43.4127585 C2.96666915,43.5673315 2.98528982,43.7149992 3.01858742,43.8593825 C3.04961489,43.9939223 3.18383365,44.0778356 3.31837342,44.0468081 C3.45291319,44.0157806 3.53682648,43.8815619 3.50579901,43.7470221 Z M3.46259843,41.6137099 L3.46259843,40.5401099 C3.46259843,40.4020387 3.35066961,40.2901099 3.21259843,40.2901099 C3.07452724,40.2901099 2.96259843,40.4020387 2.96259843,40.5401099 L2.96259843,41.6137099 C2.96259843,41.7517811 3.07452724,41.8637099 3.21259843,41.8637099 C3.35066961,41.8637099 3.46259843,41.7517811 3.46259843,41.6137099 Z M3.46259843,39.4665098 L3.46259843,38.3929097 C3.46259843,38.2548386 3.35066961,38.1429097 3.21259843,38.1429097 C3.07452724,38.1429097 2.96259843,38.2548386 2.96259843,38.3929097 L2.96259843,39.4665098 C2.96259843,39.604581 3.07452724,39.7165098 3.21259843,39.7165098 C3.35066961,39.7165098 3.46259843,39.604581 3.46259843,39.4665098 Z M3.46259843,37.3193097 L3.46259843,36.2457096 C3.46259843,36.1076384 3.35066961,35.9957096 3.21259843,35.9957096 C3.07452724,35.9957096 2.96259843,36.1076384 2.96259843,36.2457096 L2.96259843,37.3193097 C2.96259843,37.4573809 3.07452724,37.5693097 3.21259843,37.5693097 C3.35066961,37.5693097 3.46259843,37.4573809 3.46259843,37.3193097 Z M3.46259843,35.1721096 L3.46259843,34.0985095 C3.46259843,33.9604383 3.35066961,33.8485095 3.21259843,33.8485095 C3.07452724,33.8485095 2.96259843,33.9604383 2.96259843,34.0985095 L2.96259843,35.1721096 C2.96259843,35.3101808 3.07452724,35.4221096 3.21259843,35.4221096 C3.35066961,35.4221096 3.46259843,35.3101808 3.46259843,35.1721096 Z M3.46259843,33.0249095 L3.46259843,31.9513094 C3.46259843,31.8132382 3.35066961,31.7013094 3.21259843,31.7013094 C3.07452724,31.7013094 2.96259843,31.8132382 2.96259843,31.9513094 L2.96259843,33.0249095 C2.96259843,33.1629807 3.07452724,33.2749095 3.21259843,33.2749095 C3.35066961,33.2749095 3.46259843,33.1629807 3.46259843,33.0249095 Z M3.46259843,30.8777094 L3.46259843,29.8041093 C3.46259843,29.6660381 3.35066961,29.5541093 3.21259843,29.5541093 C3.07452724,29.5541093 2.96259843,29.6660381 2.96259843,29.8041093 L2.96259843,30.8777094 C2.96259843,31.0157806 3.07452724,31.1277094 3.21259843,31.1277094 C3.35066961,31.1277094 3.46259843,31.0157806 3.46259843,30.8777094 Z M3.46259843,28.7305093 L3.46259843,27.6569092 C3.46259843,27.518838 3.35066961,27.4069092 3.21259843,27.4069092 C3.07452724,27.4069092 2.96259843,27.518838 2.96259843,27.6569092 L2.96259843,28.7305093 C2.96259843,28.8685804 3.07452724,28.9805093 3.21259843,28.9805093 C3.35066961,28.9805093 3.46259843,28.8685804 3.46259843,28.7305093 Z M3.46259843,26.5833092 L3.46259843,25.5097091 C3.46259843,25.3716379 3.35066961,25.2597091 3.21259843,25.2597091 C3.07452724,25.2597091 2.96259843,25.3716379 2.96259843,25.5097091 L2.96259843,26.5833092 C2.96259843,26.7213803 3.07452724,26.8333092 3.21259843,26.8333092 C3.35066961,26.8333092 3.46259843,26.7213803 3.46259843,26.5833092 Z M3.46259843,24.436109 L3.46259843,23.362509 C3.46259843,23.2244378 3.35066961,23.112509 3.21259843,23.112509 C3.07452724,23.112509 2.96259843,23.2244378 2.96259843,23.362509 L2.96259843,24.436109 C2.96259843,24.5741802 3.07452724,24.686109 3.21259843,24.686109 C3.35066961,24.686109 3.46259843,24.5741802 3.46259843,24.436109 Z M3.46259843,22.2889089 L3.46259843,21.2153089 C3.46259843,21.0772377 3.35066961,20.9653089 3.21259843,20.9653089 C3.07452724,20.9653089 2.96259843,21.0772377 2.96259843,21.2153089 L2.96259843,22.2889089 C2.96259843,22.4269801 3.07452724,22.5389089 3.21259843,22.5389089 C3.35066961,22.5389089 3.46259843,22.4269801 3.46259843,22.2889089 Z M3.46259843,20.1417088 L3.46259843,19.0681088 C3.46259843,18.9300376 3.35066961,18.8181088 3.21259843,18.8181088 C3.07452724,18.8181088 2.96259843,18.9300376 2.96259843,19.0681088 L2.96259843,20.1417088 C2.96259843,20.27978 3.07452724,20.3917088 3.21259843,20.3917088 C3.35066961,20.3917088 3.46259843,20.27978 3.46259843,20.1417088 Z M3.46259843,17.9945087 L3.46259843,16.9209087 C3.46259843,16.7828375 3.35066961,16.6709087 3.21259843,16.6709087 C3.07452724,16.6709087 2.96259843,16.7828375 2.96259843,16.9209087 L2.96259843,17.9945087 C2.96259843,18.1325799 3.07452724,18.2445087 3.21259843,18.2445087 C3.35066961,18.2445087 3.46259843,18.1325799 3.46259843,17.9945087 Z" id="Stroke-15" fill="#FFFFFF" fill-rule="nonzero"></path>
                </g>
            </g>
        </g>
    </g>
</svg>