<?xml version="1.0" encoding="utf-8"?>
<!-- Generator: Adobe Illustrator 22.0.1, SVG Export Plug-In . SVG Version: 6.00 Build 0)  -->
<svg version="1.1" id="Layer_1" xmlns="http://www.w3.org/2000/svg" xmlns:xlink="http://www.w3.org/1999/xlink" x="0px" y="0px"
	 viewBox="0 0 120.1 24.7" style="enable-background:new 0 0 120.1 24.7;" xml:space="preserve">
<style type="text/css">
	.st0{fill:#231F20;}
</style>
<g>
	<path class="st0" d="M8.5,7.1c-1.7,0-3,0.5-4,2c-0.1-1.5-0.2-2-1.1-2C2.9,7.1,0,7.6,0,8.6c0,1.2,1.5,0.2,1.5,2.2v11.3
		c0,1.7-1.2,0.9-1.2,1.9c0,0.4,0.3,0.7,0.9,0.7h3.7c0.6,0,1.2-0.2,1.2-0.7c0-1-1.4-0.2-1.4-1.9v-9.5c0-2,0.9-3.8,2.8-3.8
		c2.3,0,3.1,2.9,3.1,4.8c0,2-0.8,4.7-3.1,4.7c-0.6,0-1.3-0.1-1.5-0.1c-0.4,0-0.6,0.4-0.6,0.7c0,1,1.7,1.2,2.7,1.2
		c3.6,0,5.9-2.9,5.9-6.6C14,10.1,12,7.1,8.5,7.1z"/>
	<path class="st0" d="M17.2,5.9c1.3,0,2.1-0.7,2.1-1.8c0-1.1-0.8-1.8-2-1.8S15.2,3,15.2,4.1C15.3,5.2,16.1,5.9,17.2,5.9z"/>
	<path class="st0" d="M19.2,17.3V9.1c0-1.4-0.1-2-0.9-2c-0.7,0-2.6,0.9-3,1c-0.3,0.1-0.6,0.2-0.6,0.6c0,0.8,1.3,0.5,1.3,1.8v6.8
		c0,1.7-1.2,0.9-1.2,1.9c0,0.4,0.3,0.7,0.9,0.7h3.7c0.6,0,0.9-0.2,0.9-0.7C20.4,18.2,19.2,19,19.2,17.3z"/>
	<path class="st0" d="M54.4,7.1c-1.7,0-3,0.5-4,2c-0.1-1.5-0.2-2-1.1-2c-0.5,0-3.4,0.5-3.4,1.5c0,1.2,1.5,0.2,1.5,2.2v11.3
		c0,1.7-1.2,0.9-1.2,1.9c0,0.4,0.3,0.7,0.9,0.7h3.7c0.6,0,1.2-0.2,1.2-0.7c0-1-1.4-0.2-1.4-1.9v-9.5c0-2,0.9-3.8,2.8-3.8
		c2.3,0,3.1,2.9,3.1,4.8c0,2-0.8,4.7-3.1,4.7c-0.6,0-1.3-0.1-1.5-0.1c-0.4,0-0.6,0.4-0.6,0.7c0,1,1.7,1.2,2.7,1.2
		c3.6,0,5.9-2.9,5.9-6.6C59.9,10.1,57.8,7.1,54.4,7.1z"/>
	<path class="st0" d="M31.6,16.2c-0.8,0-1.5,2-3.9,2c-1.9,0-3.4-1.7-3.4-4.4c0-3.2,1.2-5.3,2.9-5.3c2,0,1.7,2.6,3.1,2.6
		c1,0,1.6-0.5,1.6-1.3c0-1.5-2.2-2.7-4.6-2.7c-3.7,0-6.4,2.8-6.4,6.7c0,3.8,2.6,6.3,6.1,6.3c3,0,5.2-2.1,5.2-3.3
		C32.2,16.5,31.9,16.2,31.6,16.2z"/>
	<path class="st0" d="M44.8,17.9c-1.2-2.2-2.4-3.8-4.1-5.6c0.2-0.4,1.7-1.9,2.6-2.8c0.9-0.9,1.6-0.8,1.6-1.5c0-0.4-0.3-0.6-0.9-0.6
		h-3.5c-0.4,0-0.6,0.2-0.6,0.6c0,0.8,1.2,0.6,1.2,1.2c0,0.9-3.1,3.5-4,3.9V1.7C37.1,0.5,37,0,36.2,0c-0.7,0-2.4,0.7-3,1
		c-0.3,0.2-0.6,0.2-0.6,0.6c0,0.8,1.3,0.5,1.3,1.8v13.9c0,1.7-1.2,0.9-1.2,1.9c0,0.4,0.3,0.7,0.9,0.7h3.7c0.6,0,0.9-0.3,0.9-0.7
		c0-1-1.2-0.2-1.2-1.9v-2l1.4-1c0.9,1.3,2.5,3.7,2.5,4.1c0,0.3-0.7,0.3-0.7,0.8c0,0.4,0.2,0.7,0.8,0.7h4.2c0.4,0,0.8-0.2,0.8-0.6
		C46,18.5,45.1,18.6,44.8,17.9z"/>
	<path class="st0" d="M111.2,16.1c-0.4,0-0.6,0.3-0.9,0.5c-1,1-2,1.5-3.5,1.6c-1.7,0-3.2-1.2-3.5-3.2c2.6-0.2,8.2-0.8,8.2-4.3
		c0-2.6-2.7-3.6-4.8-3.6c-4.6,0-7,2.8-7,6.8c0,3.7,2.9,6.2,6.3,6.2c3,0,5.7-2.1,5.7-3.4C111.8,16.4,111.6,16.1,111.2,16.1z
		 M106.6,8.5c1.1,0,1.8,0.7,1.8,1.9c0,2.6-3.9,3.1-5.2,3.3C103.1,11,104.2,8.5,106.6,8.5z"/>
	<path class="st0" d="M67.3,7.1c-3.7,0-6.7,2.6-6.7,6.5s3,6.5,6.7,6.5s6.7-2.6,6.7-6.5S71,7.1,67.3,7.1z M67.3,18.6
		c-1.9,0-3.3-1.7-3.3-4.9c0-3.3,1.4-4.9,3.3-4.9s3.3,1.7,3.3,4.9S69.1,18.6,67.3,18.6z"/>
	<path class="st0" d="M118.7,18.2c-1.3,0-1.7-0.3-1.7-1.6V9h2c0.6,0,0.9-0.2,0.9-0.8c0-0.6-0.4-0.8-0.9-0.8h-2V3.9
		c0-0.8-0.1-1-0.6-1c-1.1,0-0.3,4.3-3.1,4.6c-0.9,0.1-1.4,0.2-1.4,0.8c0,0.7,0.2,0.8,0.9,0.8h1v9.1c0,1.4,0.3,1.7,1.9,1.7h3.5
		c0.6,0,0.9-0.3,0.9-0.9C120.1,18.4,119.8,18.2,118.7,18.2z"/>
	<path class="st0" d="M98.5,17.9c-1.2-2.2-2.4-3.8-4.1-5.6c0.2-0.4,1.7-1.9,2.6-2.8c0.9-0.9,1.6-0.8,1.6-1.5c0-0.4-0.3-0.6-0.9-0.6
		h-3.5c-0.4,0-0.6,0.2-0.6,0.6c0,0.8,1.2,0.6,1.2,1.2c0,0.9-3.1,3.5-4,3.9V1.7c0-1.2-0.1-1.7-0.9-1.7c-0.7,0-2.4,0.7-3,1
		c-0.3,0.2-0.6,0.2-0.6,0.6c0,0.8,1.3,0.5,1.3,1.8v13.9c0,1.7-1.2,0.9-1.2,1.9c0,0.4,0.3,0.7,0.9,0.7H91c0.6,0,0.9-0.3,0.9-0.7
		c0-1-1.2-0.2-1.2-1.9v-2l1.4-1c0.9,1.3,2.5,3.7,2.5,4.1c0,0.3-0.7,0.3-0.7,0.8c0,0.4,0.2,0.7,0.8,0.7h4.2c0.4,0,0.8-0.2,0.8-0.6
		C99.8,18.5,98.9,18.6,98.5,17.9z"/>
	<path class="st0" d="M85.3,16.2c-0.8,0-1.5,2-3.9,2c-1.9,0-3.4-1.7-3.4-4.4c0-3.2,1.2-5.3,2.9-5.3c2,0,1.7,2.6,3.1,2.6
		c1,0,1.6-0.5,1.6-1.3c0-1.5-2.2-2.7-4.6-2.7c-3.7,0-6.4,2.8-6.4,6.7c0,3.8,2.6,6.3,6.1,6.3c3,0,5.2-2.1,5.2-3.3
		C85.9,16.5,85.7,16.2,85.3,16.2z"/>
</g>
</svg>
