<?xml version="1.0" encoding="UTF-8" standalone="no"?>
<svg width="168px" height="33px" viewBox="0 0 168 33" version="1.1" xmlns="http://www.w3.org/2000/svg" xmlns:xlink="http://www.w3.org/1999/xlink">
    <!-- Generator: Sketch 47.1 (45422) - http://www.bohemiancoding.com/sketch -->
    <title>pickpocket</title>
    <desc>Created with Sketch.</desc>
    <defs></defs>
    <g id="Symbols" stroke="none" stroke-width="1" fill="none" fill-rule="evenodd">
        <g id="img-logo-k" transform="translate(-112.000000, -29.000000)" fill="#000000">
            <g id="Group-4">
                <g id="Group">
                    <path d="M118.536696,45.8473684 C118.536696,43.2421053 119.747195,40.7410526 122.444879,40.7410526 C125.73052,40.7410526 126.733505,44.5273684 126.733505,47.1673684 C126.733505,49.8073684 125.661348,53.4547368 122.444879,53.4547368 C121.580237,53.4547368 120.577252,53.3157895 120.300566,53.3157895 C119.678024,53.3157895 119.435924,53.8021053 119.435924,54.2189474 C119.435924,55.5389474 121.822337,55.8168421 123.205764,55.8168421 C128.186104,55.8168421 131.50633,51.9263158 131.50633,47.0631579 C131.50633,42.5473684 128.601132,38.5178947 123.828307,38.5178947 C121.441894,38.5178947 119.608852,39.1431579 118.225425,41.1578947 C118.01791,39.2126316 117.879568,38.5178947 116.703654,38.5178947 C116.01194,38.5178947 112,39.2126316 112,40.5326316 C112,42.1305263 114.040556,40.8105263 114.040556,43.52 L114.040556,58.5263158 C114.040556,60.8189474 112.415028,59.7421053 112.415028,61.0621053 C112.415028,61.6526316 112.795471,62 113.694699,62 L118.882553,62 C119.781781,62 120.50808,61.7221053 120.50808,61.0968421 C120.50808,59.7073684 118.536696,60.7842105 118.536696,58.5263158 L118.536696,45.8473684 Z M139.120947,55.4694737 C140.020175,55.4694737 140.400618,55.1568421 140.400618,54.5663158 C140.400618,53.2463158 138.77509,54.3231579 138.77509,52.0305263 L138.77509,41.1578947 C138.77509,39.2473684 138.602162,38.5178947 137.530005,38.5178947 C136.561606,38.5178947 133.829336,39.6989474 133.310551,39.8378947 C132.895522,39.9421053 132.411323,40.1505263 132.411323,40.6715789 C132.411323,41.7136842 134.27895,41.3315789 134.27895,43.0336842 L134.27895,52.0305263 C134.27895,54.3231579 132.653423,53.2463158 132.653423,54.5663158 C132.653423,55.1568421 133.033865,55.4694737 133.933093,55.4694737 L139.120947,55.4694737 Z M136.146577,32.0568421 C134.417293,32.0568421 133.275965,32.9947368 133.275965,34.4884211 C133.275965,36.0168421 134.417293,36.92 136.008235,36.92 C137.772105,36.92 138.878847,36.0168421 138.878847,34.4884211 C138.878847,32.9947368 137.772105,32.0568421 136.146577,32.0568421 Z M141.06351,47.4105263 C141.06351,52.4126316 144.729593,55.8168421 149.640762,55.8168421 C153.791045,55.8168421 156.903757,52.9684211 156.903757,51.4747368 C156.903757,50.9884211 156.523314,50.6410526 156.039115,50.6410526 C154.897787,50.6410526 153.929388,53.3157895 150.643747,53.3157895 C148.04982,53.3157895 145.836336,51.0926316 145.836336,47.4452632 C145.836336,43.1726316 147.56562,40.3936842 149.917447,40.3936842 C152.649717,40.3936842 152.269274,43.7978947 154.275244,43.7978947 C155.658672,43.7978947 156.454143,43.1031579 156.454143,42.1305263 C156.454143,40.1852632 153.306845,38.5178947 150.05579,38.5178947 C144.937108,38.5178947 141.06351,42.2347368 141.06351,47.4105263 Z M164.034174,55.4694737 L158.84632,55.4694737 C157.947092,55.4694737 157.56665,55.1221053 157.56665,54.5315789 C157.56665,53.2115789 159.192177,54.2884211 159.192177,51.9957895 L159.192177,33.5157895 C159.192177,31.8136842 157.32455,32.1957895 157.32455,31.1536842 C157.32455,30.6326316 157.843335,30.5284211 158.223778,30.32 C159.019249,29.9031579 161.474833,29 162.443232,29 C163.515389,29 163.688317,29.7294737 163.688317,31.2926316 L163.688317,46.5073684 C165.002573,45.8473684 169.325785,42.5126316 169.325785,41.2621053 C169.325785,40.4631579 167.5965,40.8105263 167.5965,39.6989474 C167.5965,39.1084211 167.942357,38.8652632 168.495728,38.8652632 L173.406897,38.8652632 C174.236953,38.8652632 174.721153,39.1431579 174.721153,39.6989474 C174.721153,40.6715789 173.752753,40.4978947 172.438497,41.7484211 C171.193412,42.9642105 169.187442,44.9789474 168.841585,45.4652632 C171.193412,47.8273684 172.784354,49.9115789 174.513639,52.8989474 C175.06701,53.8368421 176.312095,53.6631579 176.312095,54.6357895 C176.312095,55.2610526 175.862481,55.4694737 175.239938,55.4694737 L169.325785,55.4694737 C168.5649,55.4694737 168.219043,54.9831579 168.219043,54.4968421 C168.219043,53.7326316 169.187442,53.8021053 169.187442,53.3852632 C169.187442,52.76 166.973958,49.5642105 165.659701,47.8968421 L163.688317,49.2863158 L163.688317,51.9957895 C163.688317,54.2884211 165.313845,53.2115789 165.313845,54.5315789 C165.313845,55.1221053 164.933402,55.4694737 164.034174,55.4694737 Z M182.750798,45.8473684 L182.750798,58.5263158 C182.750798,60.7842105 184.722182,59.7073684 184.722182,61.0968421 C184.722182,61.7221053 183.995883,62 183.096655,62 L177.908801,62 C177.009573,62 176.62913,61.6526316 176.62913,61.0621053 C176.62913,59.7421053 178.254658,60.8189474 178.254658,58.5263158 L178.254658,43.52 C178.254658,40.8105263 176.214102,42.1305263 176.214102,40.5326316 C176.214102,39.2126316 180.226042,38.5178947 180.917756,38.5178947 C182.09367,38.5178947 182.232012,39.2126316 182.439527,41.1578947 C183.822954,39.1431579 185.655996,38.5178947 188.042409,38.5178947 C192.815234,38.5178947 195.720432,42.5473684 195.720432,47.0631579 C195.720432,51.9263158 192.400206,55.8168421 187.419866,55.8168421 C186.036438,55.8168421 183.650026,55.5389474 183.650026,54.2189474 C183.650026,53.8021053 183.892126,53.3157895 184.514668,53.3157895 C184.791354,53.3157895 185.794339,53.4547368 186.658981,53.4547368 C189.87545,53.4547368 190.947607,49.8073684 190.947607,47.1673684 C190.947607,44.5273684 189.944622,40.7410526 186.658981,40.7410526 C183.961297,40.7410526 182.750798,43.2421053 182.750798,45.8473684 Z M215.405455,47.1673684 C215.405455,52.3084211 211.220587,55.8168421 206.032733,55.8168421 C200.844879,55.8168421 196.66001,52.3084211 196.66001,47.1673684 C196.66001,42.0263158 200.844879,38.5178947 206.032733,38.5178947 C211.220587,38.5178947 215.405455,42.0263158 215.405455,47.1673684 Z M201.432836,47.1673684 C201.432836,51.5094737 203.438806,53.7326316 206.032733,53.7326316 C208.62666,53.7326316 210.63263,51.5094737 210.63263,47.1673684 C210.63263,42.8252632 208.62666,40.6021053 206.032733,40.6021053 C203.438806,40.6021053 201.432836,42.8252632 201.432836,47.1673684 Z M216.345033,47.4105263 C216.345033,52.4126316 220.011117,55.8168421 224.922285,55.8168421 C229.072568,55.8168421 232.18528,52.9684211 232.18528,51.4747368 C232.18528,50.9884211 231.804838,50.6410526 231.320638,50.6410526 C230.17931,50.6410526 229.210911,53.3157895 225.92527,53.3157895 C223.331343,53.3157895 221.117859,51.0926316 221.117859,47.4452632 C221.117859,43.1726316 222.847144,40.3936842 225.198971,40.3936842 C227.93124,40.3936842 227.550798,43.7978947 229.556768,43.7978947 C230.940196,43.7978947 231.735666,43.1031579 231.735666,42.1305263 C231.735666,40.1852632 228.588369,38.5178947 225.337313,38.5178947 C220.218631,38.5178947 216.345033,42.2347368 216.345033,47.4105263 Z M239.315697,55.4694737 L234.127844,55.4694737 C233.228616,55.4694737 232.848173,55.1221053 232.848173,54.5315789 C232.848173,53.2115789 234.4737,54.2884211 234.4737,51.9957895 L234.4737,33.5157895 C234.4737,31.8136842 232.606073,32.1957895 232.606073,31.1536842 C232.606073,30.6326316 233.124858,30.5284211 233.505301,30.32 C234.300772,29.9031579 236.756356,29 237.724756,29 C238.796912,29 238.96984,29.7294737 238.96984,31.2926316 L238.96984,46.5073684 C240.284097,45.8473684 244.607308,42.5126316 244.607308,41.2621053 C244.607308,40.4631579 242.878024,40.8105263 242.878024,39.6989474 C242.878024,39.1084211 243.223881,38.8652632 243.777252,38.8652632 L248.68842,38.8652632 C249.518477,38.8652632 250.002676,39.1431579 250.002676,39.6989474 C250.002676,40.6715789 249.034277,40.4978947 247.720021,41.7484211 C246.474936,42.9642105 244.468966,44.9789474 244.123109,45.4652632 C246.474936,47.8273684 248.065878,49.9115789 249.795162,52.8989474 C250.348533,53.8368421 251.593618,53.6631579 251.593618,54.6357895 C251.593618,55.2610526 251.144004,55.4694737 250.521462,55.4694737 L244.607308,55.4694737 C243.846423,55.4694737 243.500566,54.9831579 243.500566,54.4968421 C243.500566,53.7326316 244.468966,53.8021053 244.468966,53.3852632 C244.468966,52.76 242.255481,49.5642105 240.941225,47.8968421 L238.96984,49.2863158 L238.96984,51.9957895 C238.96984,54.2884211 240.595368,53.2115789 240.595368,54.5315789 C240.595368,55.1221053 240.214925,55.4694737 239.315697,55.4694737 Z M251.564797,47.5842105 C251.599382,42.2 254.954195,38.5178947 261.421719,38.5178947 C264.326917,38.5178947 268.131343,39.8726316 268.096758,43.3463158 C268.062172,48.0357895 260.21122,48.8694737 256.614308,49.0778947 C257.029336,51.6831579 259.069892,53.3157895 261.456305,53.3157895 C263.496861,53.2115789 264.845703,52.5515789 266.298302,51.2315789 C266.71333,50.8494737 266.95543,50.5021053 267.577972,50.5021053 C268.131343,50.5021053 268.373443,50.8494737 268.373443,51.3010526 C268.373443,53.0378947 264.569017,55.8168421 260.384148,55.8168421 C255.611323,55.8168421 251.599382,52.5515789 251.564797,47.5842105 Z M261.110448,40.3936842 C257.790221,40.3936842 256.268451,43.7284211 256.337622,47.2021053 C258.136078,47.0284211 263.600618,46.3336842 263.600618,42.86 C263.600618,41.2968421 262.666804,40.3936842 261.110448,40.3936842 Z M275.676788,38.8652632 L275.676788,34.2105263 C275.676788,33.1684211 275.50386,32.8210526 274.77756,32.8210526 C273.186619,32.8210526 274.327946,38.4831579 270.385178,38.8652632 C269.105507,38.9694737 268.448379,39.1431579 268.448379,39.9768421 C268.448379,40.8452632 268.75965,41.0884211 269.762635,41.0884211 L271.180648,41.0884211 L271.180648,53.2115789 C271.180648,55.0873684 271.664848,55.4694737 273.878332,55.4694737 L278.789501,55.4694737 C279.619557,55.4694737 280,55.0873684 280,54.2536842 C280,53.4894737 279.584972,53.2463158 277.99403,53.2463158 C276.23016,53.2463158 275.676788,52.7947368 275.676788,51.1621053 L275.676788,41.0884211 L278.512815,41.0884211 C279.308286,41.0884211 279.827072,40.8452632 279.827072,39.9768421 C279.827072,39.1431579 279.308286,38.8652632 278.512815,38.8652632 L275.676788,38.8652632 Z" id="pickpocket"></path>
                </g>
            </g>
        </g>
    </g>
</svg>