<?xml version="1.0" encoding="utf-8"?>
<!-- Generator: Adobe Illustrator 22.0.1, SVG Export Plug-In . SVG Version: 6.00 Build 0)  -->
<svg version="1.1" id="Layer_1" xmlns="http://www.w3.org/2000/svg" xmlns:xlink="http://www.w3.org/1999/xlink" x="0px" y="0px"
	 viewBox="0 0 154 142" style="enable-background:new 0 0 154 142;" xml:space="preserve">
<style type="text/css">
	.st0{fill:#58585B;}
	.st1{clip-path:url(#SVGID_2_);fill:#36CEF9;}
	.st2{clip-path:url(#SVGID_2_);fill:#36CDF9;}
	.st3{clip-path:url(#SVGID_2_);fill:#35CCF9;}
	.st4{clip-path:url(#SVGID_2_);fill:#35CBF9;}
	.st5{clip-path:url(#SVGID_2_);fill:#35CAF9;}
	.st6{clip-path:url(#SVGID_2_);fill:#34C9F8;}
	.st7{clip-path:url(#SVGID_2_);fill:#34C8F8;}
	.st8{clip-path:url(#SVGID_2_);fill:#34C7F8;}
	.st9{clip-path:url(#SVGID_2_);fill:#34C6F8;}
	.st10{clip-path:url(#SVGID_2_);fill:#33C5F8;}
	.st11{clip-path:url(#SVGID_2_);fill:#33C4F8;}
	.st12{clip-path:url(#SVGID_2_);fill:#33C3F8;}
	.st13{clip-path:url(#SVGID_2_);fill:#32C2F8;}
	.st14{clip-path:url(#SVGID_2_);fill:#32C1F8;}
	.st15{clip-path:url(#SVGID_2_);fill:#32C0F8;}
	.st16{clip-path:url(#SVGID_2_);fill:#31BFF7;}
	.st17{clip-path:url(#SVGID_2_);fill:#31BEF7;}
	.st18{clip-path:url(#SVGID_2_);fill:#31BDF7;}
	.st19{clip-path:url(#SVGID_2_);fill:#30BCF7;}
	.st20{clip-path:url(#SVGID_2_);fill:#30BBF7;}
	.st21{clip-path:url(#SVGID_2_);fill:#30BAF7;}
	.st22{clip-path:url(#SVGID_2_);fill:#2FB9F7;}
	.st23{clip-path:url(#SVGID_2_);fill:#2FB8F7;}
	.st24{clip-path:url(#SVGID_2_);fill:#2FB7F7;}
	.st25{clip-path:url(#SVGID_2_);fill:#2FB6F7;}
	.st26{clip-path:url(#SVGID_2_);fill:#2EB4F6;}
	.st27{clip-path:url(#SVGID_2_);fill:#2EB3F6;}
	.st28{clip-path:url(#SVGID_2_);fill:#2EB2F6;}
	.st29{clip-path:url(#SVGID_2_);fill:#2DB1F6;}
	.st30{clip-path:url(#SVGID_2_);fill:#2DB0F6;}
	.st31{clip-path:url(#SVGID_2_);fill:#2DAFF6;}
	.st32{clip-path:url(#SVGID_2_);fill:#2CAEF6;}
	.st33{clip-path:url(#SVGID_2_);fill:#2CADF6;}
	.st34{clip-path:url(#SVGID_2_);fill:#2CACF6;}
	.st35{clip-path:url(#SVGID_2_);fill:#2BABF5;}
	.st36{clip-path:url(#SVGID_2_);fill:#2BAAF5;}
	.st37{clip-path:url(#SVGID_2_);fill:#2BA9F5;}
	.st38{clip-path:url(#SVGID_2_);fill:#2AA8F5;}
	.st39{clip-path:url(#SVGID_2_);fill:#2AA7F5;}
	.st40{clip-path:url(#SVGID_2_);fill:#2AA6F5;}
	.st41{clip-path:url(#SVGID_2_);fill:#2AA5F5;}
	.st42{clip-path:url(#SVGID_2_);fill:#29A4F5;}
	.st43{clip-path:url(#SVGID_2_);fill:#29A3F5;}
	.st44{clip-path:url(#SVGID_2_);fill:#29A2F5;}
	.st45{clip-path:url(#SVGID_2_);fill:#28A1F4;}
	.st46{clip-path:url(#SVGID_2_);fill:#28A0F4;}
	.st47{clip-path:url(#SVGID_2_);fill:#289FF4;}
	.st48{clip-path:url(#SVGID_2_);fill:#279EF4;}
	.st49{clip-path:url(#SVGID_2_);fill:#279DF4;}
	.st50{filter:url(#Adobe_OpacityMaskFilter);}
	.st51{fill:#FFFFFF;}
	.st52{mask:url(#mask-3_1_);}
	.st53{filter:url(#Adobe_OpacityMaskFilter_1_);}
	.st54{mask:url(#mask-5_2_);}
	.st55{clip-path:url(#SVGID_4_);fill:#9FE5E5;}
	.st56{clip-path:url(#SVGID_4_);fill:#9EE4E4;}
	.st57{clip-path:url(#SVGID_4_);fill:#9DE4E4;}
	.st58{clip-path:url(#SVGID_4_);fill:#9CE3E3;}
	.st59{clip-path:url(#SVGID_4_);fill:#9BE3E3;}
	.st60{clip-path:url(#SVGID_4_);fill:#9AE2E2;}
	.st61{clip-path:url(#SVGID_4_);fill:#99E2E2;}
	.st62{clip-path:url(#SVGID_4_);fill:#98E1E1;}
	.st63{clip-path:url(#SVGID_4_);fill:#97E1E1;}
	.st64{clip-path:url(#SVGID_4_);fill:#96E0E0;}
	.st65{clip-path:url(#SVGID_4_);fill:#95E0DF;}
	.st66{clip-path:url(#SVGID_4_);fill:#94DFDF;}
	.st67{clip-path:url(#SVGID_4_);fill:#93DFDE;}
	.st68{clip-path:url(#SVGID_4_);fill:#92DEDE;}
	.st69{clip-path:url(#SVGID_4_);fill:#91DEDD;}
	.st70{clip-path:url(#SVGID_4_);fill:#90DDDD;}
	.st71{clip-path:url(#SVGID_4_);fill:#8FDCDC;}
	.st72{clip-path:url(#SVGID_4_);fill:#8EDCDC;}
	.st73{clip-path:url(#SVGID_4_);fill:#8DDBDB;}
	.st74{clip-path:url(#SVGID_4_);fill:#8CDBDA;}
	.st75{clip-path:url(#SVGID_4_);fill:#8BDADA;}
	.st76{clip-path:url(#SVGID_4_);fill:#8ADAD9;}
	.st77{clip-path:url(#SVGID_4_);fill:#89D9D9;}
	.st78{clip-path:url(#SVGID_4_);fill:#88D9D8;}
	.st79{clip-path:url(#SVGID_4_);fill:#87D8D8;}
	.st80{clip-path:url(#SVGID_4_);fill:#86D8D7;}
	.st81{clip-path:url(#SVGID_4_);fill:#85D7D7;}
	.st82{clip-path:url(#SVGID_4_);fill:#84D7D6;}
	.st83{clip-path:url(#SVGID_4_);fill:#83D6D6;}
	.st84{clip-path:url(#SVGID_4_);fill:#81D5D5;}
	.st85{clip-path:url(#SVGID_4_);fill:#80D5D4;}
	.st86{clip-path:url(#SVGID_4_);fill:#7FD4D4;}
	.st87{clip-path:url(#SVGID_4_);fill:#7ED4D3;}
	.st88{clip-path:url(#SVGID_4_);fill:#7DD3D3;}
	.st89{clip-path:url(#SVGID_4_);fill:#7CD3D2;}
	.st90{clip-path:url(#SVGID_4_);fill:#7BD2D2;}
	.st91{clip-path:url(#SVGID_4_);fill:#7AD2D1;}
	.st92{clip-path:url(#SVGID_4_);fill:#79D1D1;}
	.st93{clip-path:url(#SVGID_4_);fill:#78D1D0;}
	.st94{clip-path:url(#SVGID_4_);fill:#77D0CF;}
	.st95{clip-path:url(#SVGID_4_);fill:#76D0CF;}
	.st96{clip-path:url(#SVGID_4_);fill:#75CFCE;}
	.st97{clip-path:url(#SVGID_4_);fill:#74CFCE;}
	.st98{clip-path:url(#SVGID_4_);fill:#73CECD;}
	.st99{clip-path:url(#SVGID_4_);fill:#72CDCD;}
	.st100{clip-path:url(#SVGID_4_);fill:#71CDCC;}
	.st101{clip-path:url(#SVGID_4_);fill:#70CCCC;}
	.st102{clip-path:url(#SVGID_4_);fill:#6FCCCB;}
	.st103{clip-path:url(#SVGID_4_);fill:#6ECBCA;}
	.st104{clip-path:url(#SVGID_4_);fill:#6DCBCA;}
	.st105{clip-path:url(#SVGID_4_);fill:#6CCAC9;}
	.st106{clip-path:url(#SVGID_4_);fill:#6BCAC9;}
	.st107{clip-path:url(#SVGID_4_);fill:#6AC9C8;}
	.st108{clip-path:url(#SVGID_4_);fill:#69C9C8;}
	.st109{clip-path:url(#SVGID_4_);fill:#68C8C7;}
	.st110{clip-path:url(#SVGID_4_);fill:#67C8C7;}
	.st111{clip-path:url(#SVGID_4_);fill:#66C7C6;}
	.st112{fill:#66C7C6;}
</style>
<title>img-logo-stacked</title>
<desc>Created with Sketch.</desc>
<g id="Symbols">
	<g id="footer" transform="translate(-269.000000, -125.000000)">
		<g id="img-logo-stacked">
			<g transform="translate(269.000000, 125.000000)">
				<g id="Group-9">
					<g id="Group-4" transform="translate(0.332506, 109.252525)">
						<g id="Group">
							<g id="pickpocket">
								<path class="st0" d="M6.5,16.3c0-2.5,1.1-4.9,3.6-4.9c3,0,3.9,3.6,3.9,6.2s-1,6.1-3.9,6.1c-0.8,0-1.7-0.1-2-0.1
									c-0.6,0-0.8,0.5-0.8,0.9c0,1.3,2.2,1.5,3.4,1.5c4.5,0,7.6-3.7,7.6-8.4c0-4.4-2.6-8.2-7-8.2c-2.2,0-3.8,0.6-5.1,2.5
									C6,9.9,5.9,9.2,4.8,9.2c-0.6,0-4.3,0.7-4.3,1.9c0,1.5,1.9,0.3,1.9,2.9v14.5c0,2.2-1.5,1.2-1.5,2.4c0,0.6,0.3,0.9,1.2,0.9
									h4.7c0.8,0,1.5-0.3,1.5-0.9c0-1.3-1.8-0.3-1.8-2.5V16.3z M25.2,25.6c0.8,0,1.2-0.3,1.2-0.9c0-1.3-1.5-0.2-1.5-2.4V11.8
									c0-1.8-0.2-2.5-1.1-2.5c-0.9,0-3.4,1.1-3.8,1.3c-0.4,0.1-0.8,0.3-0.8,0.8c0,1,1.7,0.6,1.7,2.3v8.7c0,2.2-1.5,1.2-1.5,2.4
									c0,0.6,0.3,0.9,1.2,0.9H25.2z M22.5,3c-1.6,0-2.6,0.9-2.6,2.3c0,1.5,1,2.3,2.5,2.3C24,7.7,25,6.8,25,5.3C25,3.9,24,3,22.5,3
									z M27,17.8c0,4.8,3.3,8.1,7.8,8.1c3.8,0,6.6-2.7,6.6-4.2c0-0.5-0.3-0.8-0.8-0.8c-1,0-1.9,2.6-4.9,2.6
									c-2.4,0-4.4-2.1-4.4-5.7c0-4.1,1.6-6.8,3.7-6.8c2.5,0,2.1,3.3,4,3.3c1.3,0,2-0.7,2-1.6c0-1.9-2.9-3.5-5.8-3.5
									C30.5,9.2,27,12.8,27,17.8z M47.9,25.6h-4.7c-0.8,0-1.2-0.3-1.2-0.9c0-1.3,1.5-0.2,1.5-2.4V4.4c0-1.6-1.7-1.3-1.7-2.3
									c0-0.5,0.5-0.6,0.8-0.8c0.7-0.4,3-1.3,3.8-1.3c1,0,1.1,0.7,1.1,2.2v14.7c1.2-0.6,5.1-3.8,5.1-5.1c0-0.8-1.6-0.4-1.6-1.5
									c0-0.6,0.3-0.8,0.8-0.8h4.5c0.8,0,1.2,0.3,1.2,0.8c0,0.9-0.9,0.8-2.1,2c-1.1,1.2-3,3.1-3.3,3.6c2.1,2.3,3.6,4.3,5.2,7.2
									c0.5,0.9,1.6,0.7,1.6,1.7c0,0.6-0.4,0.8-1,0.8h-5.4c-0.7,0-1-0.5-1-0.9c0-0.7,0.9-0.7,0.9-1.1c0-0.6-2-3.7-3.2-5.3l-1.8,1.3
									v2.6c0,2.2,1.5,1.2,1.5,2.4C49.1,25.2,48.7,25.6,47.9,25.6z M64.9,16.3v12.2c0,2.2,1.8,1.1,1.8,2.5c0,0.6-0.7,0.9-1.5,0.9
									h-4.7c-0.8,0-1.2-0.3-1.2-0.9c0-1.3,1.5-0.2,1.5-2.4V14c0-2.6-1.9-1.3-1.9-2.9c0-1.3,3.6-1.9,4.3-1.9c1.1,0,1.2,0.7,1.4,2.5
									c1.3-1.9,2.9-2.5,5.1-2.5c4.3,0,7,3.9,7,8.2c0,4.7-3,8.4-7.6,8.4c-1.3,0-3.4-0.3-3.4-1.5c0-0.4,0.2-0.9,0.8-0.9
									c0.3,0,1.2,0.1,2,0.1c2.9,0,3.9-3.5,3.9-6.1s-0.9-6.2-3.9-6.2C66,11.4,64.9,13.8,64.9,16.3z M94.6,17.6c0,5-3.8,8.3-8.5,8.3
									c-4.7,0-8.5-3.4-8.5-8.3s3.8-8.3,8.5-8.3C90.8,9.2,94.6,12.6,94.6,17.6z M81.9,17.6c0,4.2,1.8,6.3,4.2,6.3
									c2.4,0,4.2-2.1,4.2-6.3s-1.8-6.3-4.2-6.3C83.7,11.2,81.9,13.4,81.9,17.6z M95.5,17.8c0,4.8,3.3,8.1,7.8,8.1
									c3.8,0,6.6-2.7,6.6-4.2c0-0.5-0.3-0.8-0.8-0.8c-1,0-1.9,2.6-4.9,2.6c-2.4,0-4.4-2.1-4.4-5.7c0-4.1,1.6-6.8,3.7-6.8
									c2.5,0,2.1,3.3,4,3.3c1.3,0,2-0.7,2-1.6c0-1.9-2.9-3.5-5.8-3.5C99,9.2,95.5,12.8,95.5,17.8z M116.4,25.6h-4.7
									c-0.8,0-1.2-0.3-1.2-0.9c0-1.3,1.5-0.2,1.5-2.4V4.4c0-1.6-1.7-1.3-1.7-2.3c0-0.5,0.5-0.6,0.8-0.8c0.7-0.4,3-1.3,3.8-1.3
									c1,0,1.1,0.7,1.1,2.2v14.7c1.2-0.6,5.1-3.8,5.1-5.1c0-0.8-1.6-0.4-1.6-1.5c0-0.6,0.3-0.8,0.8-0.8h4.5c0.8,0,1.2,0.3,1.2,0.8
									c0,0.9-0.9,0.8-2.1,2c-1.1,1.2-3,3.1-3.3,3.6c2.1,2.3,3.6,4.3,5.2,7.2c0.5,0.9,1.6,0.7,1.6,1.7c0,0.6-0.4,0.8-1,0.8h-5.4
									c-0.7,0-1-0.5-1-0.9c0-0.7,0.9-0.7,0.9-1.1c0-0.6-2-3.7-3.2-5.3l-1.8,1.3v2.6c0,2.2,1.5,1.2,1.5,2.4
									C117.5,25.2,117.2,25.6,116.4,25.6z M127.5,18c0-5.2,3.1-8.7,9-8.7c2.6,0,6.1,1.3,6.1,4.7c0,4.5-7.2,5.3-10.4,5.5
									c0.4,2.5,2.2,4.1,4.4,4.1c1.9-0.1,3.1-0.7,4.4-2c0.4-0.4,0.6-0.7,1.2-0.7c0.5,0,0.7,0.3,0.7,0.8c0,1.7-3.5,4.4-7.3,4.4
									C131.2,25.9,127.6,22.8,127.5,18z M136.2,11c-3,0-4.4,3.2-4.3,6.6c1.6-0.2,6.6-0.8,6.6-4.2C138.5,11.9,137.6,11,136.2,11z
									 M149.5,9.6V5.1c0-1-0.2-1.3-0.8-1.3c-1.4,0-0.4,5.5-4,5.8c-1.2,0.1-1.8,0.3-1.8,1.1c0,0.8,0.3,1.1,1.2,1.1h1.3v11.7
									c0,1.8,0.4,2.2,2.5,2.2h4.5c0.8,0,1.1-0.4,1.1-1.2c0-0.7-0.4-1-1.8-1c-1.6,0-2.1-0.4-2.1-2v-9.7h2.6c0.7,0,1.2-0.2,1.2-1.1
									c0-0.8-0.5-1.1-1.2-1.1H149.5z"/>
							</g>
						</g>
					</g>
					<g id="Group_1_" transform="translate(35.320099, 12.606061)">
						<g id="Mask">
							<g id="path-2_1_">
								<g>
									<defs>
										<path id="SVGID_1_" d="M18.9,0h46.2C75.5,0,84,8.5,84,18.9v46.2C84,75.6,75.5,84,65.1,84H18.9C8.5,84,0,75.6,0,65.1V18.9
											C0,8.5,8.5,0,18.9,0z"/>
									</defs>
									<clipPath id="SVGID_2_">
										<use xlink:href="#SVGID_1_"  style="overflow:visible;"/>
									</clipPath>
									<rect x="0" y="0" class="st1" width="84" height="1.7"/>
									<rect x="0" y="1.7" class="st2" width="84" height="1.7"/>
									<rect x="0" y="3.4" class="st3" width="84" height="1.7"/>
									<rect x="0" y="5.2" class="st4" width="84" height="1.7"/>
									<rect x="0" y="6.9" class="st5" width="84" height="1.7"/>
									<rect x="0" y="8.6" class="st6" width="84" height="1.7"/>
									<rect x="0" y="10.3" class="st7" width="84" height="1.7"/>
									<rect x="0" y="12" class="st8" width="84" height="1.7"/>
									<rect x="0" y="13.7" class="st9" width="84" height="1.7"/>
									<rect x="0" y="15.4" class="st10" width="84" height="1.7"/>
									<rect x="0" y="17.2" class="st11" width="84" height="1.7"/>
									<rect x="0" y="18.9" class="st12" width="84" height="1.7"/>
									<rect x="0" y="20.6" class="st13" width="84" height="1.7"/>
									<rect x="0" y="22.3" class="st14" width="84" height="1.7"/>
									<rect x="0" y="24" class="st15" width="84" height="1.7"/>
									<rect x="0" y="25.7" class="st16" width="84" height="1.7"/>
									<rect x="0" y="27.4" class="st17" width="84" height="1.7"/>
									<rect x="0" y="29.2" class="st18" width="84" height="1.7"/>
									<rect x="0" y="30.9" class="st19" width="84" height="1.7"/>
									<rect x="0" y="32.6" class="st20" width="84" height="1.7"/>
									<rect x="0" y="34.3" class="st21" width="84" height="1.7"/>
									<rect x="0" y="36" class="st22" width="84" height="1.7"/>
									<rect x="0" y="37.7" class="st23" width="84" height="1.7"/>
									<rect x="0" y="39.4" class="st24" width="84" height="1.7"/>
									<rect x="0" y="41.2" class="st25" width="84" height="1.7"/>
									<rect x="0" y="42.9" class="st26" width="84" height="1.7"/>
									<rect x="0" y="44.6" class="st27" width="84" height="1.7"/>
									<rect x="0" y="46.3" class="st28" width="84" height="1.7"/>
									<rect x="0" y="48" class="st29" width="84" height="1.7"/>
									<rect x="0" y="49.7" class="st30" width="84" height="1.7"/>
									<rect x="0" y="51.4" class="st31" width="84" height="1.7"/>
									<rect x="0" y="53.2" class="st32" width="84" height="1.7"/>
									<rect x="0" y="54.9" class="st33" width="84" height="1.7"/>
									<rect x="0" y="56.6" class="st34" width="84" height="1.7"/>
									<rect x="0" y="58.3" class="st35" width="84" height="1.7"/>
									<rect x="0" y="60" class="st36" width="84" height="1.7"/>
									<rect x="0" y="61.7" class="st37" width="84" height="1.7"/>
									<rect x="0" y="63.4" class="st38" width="84" height="1.7"/>
									<rect x="0" y="65.2" class="st39" width="84" height="1.7"/>
									<rect x="0" y="66.9" class="st40" width="84" height="1.7"/>
									<rect x="0" y="68.6" class="st41" width="84" height="1.7"/>
									<rect x="0" y="70.3" class="st42" width="84" height="1.7"/>
									<rect x="0" y="72" class="st43" width="84" height="1.7"/>
									<rect x="0" y="73.7" class="st44" width="84" height="1.7"/>
									<rect x="0" y="75.4" class="st45" width="84" height="1.7"/>
									<rect x="0" y="77.2" class="st46" width="84" height="1.7"/>
									<rect x="0" y="78.9" class="st47" width="84" height="1.7"/>
									<rect x="0" y="80.6" class="st48" width="84" height="1.7"/>
									<rect x="0" y="82.3" class="st49" width="84" height="1.7"/>
									<path class="st49" d="M0,84h84H0z"/>
								</g>
							</g>
						</g>
						<defs>
							<filter id="Adobe_OpacityMaskFilter" filterUnits="userSpaceOnUse" x="-1.4" y="-3.5" width="86.8" height="89.7">
								<feColorMatrix  type="matrix" values="1 0 0 0 0  0 1 0 0 0  0 0 1 0 0  0 0 0 1 0"/>
							</filter>
						</defs>
						<mask maskUnits="userSpaceOnUse" x="-1.4" y="-3.5" width="86.8" height="89.7" id="mask-3_1_">
							<g class="st50">
								<path id="path-2_2_" class="st51" d="M18.9,0h46.2C75.5,0,84,8.5,84,18.9v46.2C84,75.6,75.5,84,65.1,84H18.9
									C8.5,84,0,75.6,0,65.1V18.9C0,8.5,8.5,0,18.9,0z"/>
							</g>
						</mask>
						<g id="Page-1" class="st52">
							<g transform="translate(-1.400000, -4.202020)">
								<g>
									<g id="Group-3" transform="translate(0.000000, 0.010505)">
										<g id="Clip-2">
										</g>
										<defs>
											<filter id="Adobe_OpacityMaskFilter_1_" filterUnits="userSpaceOnUse" x="0" y="0.7" width="86.8" height="89.7">
												<feColorMatrix  type="matrix" values="1 0 0 0 0  0 1 0 0 0  0 0 1 0 0  0 0 0 1 0"/>
											</filter>
										</defs>
										<mask maskUnits="userSpaceOnUse" x="0" y="0.7" width="86.8" height="89.7" id="mask-5_2_">
											<g class="st53">
												<polygon id="path-4_2_" class="st51" points="0,0.7 86.8,0.7 86.8,90.3 0,90.3 												"/>
											</g>
										</mask>
										<g id="Fill-1" class="st54">
											<g>
												<defs>
													<path id="SVGID_3_" d="M9.5,90.3c-5.2,0-9.5-4.2-9.5-9.4V10.1c0-5.2,4.2-9.4,9.5-9.4h67.8c5.2,0,9.5,4.2,9.5,9.4v70.8
														c0,5.2-4.2,9.4-9.5,9.4H9.5z"/>
												</defs>
												<clipPath id="SVGID_4_">
													<use xlink:href="#SVGID_3_"  style="overflow:visible;"/>
												</clipPath>
												<path class="st55" d="M86.8,0.7H0H86.8z"/>
												<rect x="0" y="0.7" class="st55" width="86.8" height="1.6"/>
												<rect x="0" y="2.3" class="st56" width="86.8" height="1.6"/>
												<rect x="0" y="3.8" class="st57" width="86.8" height="1.6"/>
												<rect x="0" y="5.4" class="st58" width="86.8" height="1.6"/>
												<rect x="0" y="7" class="st59" width="86.8" height="1.6"/>
												<rect x="0" y="8.6" class="st60" width="86.8" height="1.6"/>
												<rect x="0" y="10.1" class="st61" width="86.8" height="1.6"/>
												<rect x="0" y="11.7" class="st62" width="86.8" height="1.6"/>
												<rect x="0" y="13.3" class="st63" width="86.8" height="1.6"/>
												<rect x="0" y="14.8" class="st64" width="86.8" height="1.6"/>
												<rect x="0" y="16.4" class="st65" width="86.8" height="1.6"/>
												<rect x="0" y="18" class="st66" width="86.8" height="1.6"/>
												<rect x="0" y="19.6" class="st67" width="86.8" height="1.6"/>
												<rect x="0" y="21.1" class="st68" width="86.8" height="1.6"/>
												<rect x="0" y="22.7" class="st69" width="86.8" height="1.6"/>
												<rect x="0" y="24.3" class="st70" width="86.8" height="1.6"/>
												<rect x="0" y="25.9" class="st71" width="86.8" height="1.6"/>
												<rect x="0" y="27.4" class="st72" width="86.8" height="1.6"/>
												<rect x="0" y="29" class="st73" width="86.8" height="1.6"/>
												<rect x="0" y="30.6" class="st74" width="86.8" height="1.6"/>
												<rect x="0" y="32.1" class="st75" width="86.8" height="1.6"/>
												<rect x="0" y="33.7" class="st76" width="86.8" height="1.6"/>
												<rect x="0" y="35.3" class="st77" width="86.8" height="1.6"/>
												<rect x="0" y="36.9" class="st78" width="86.8" height="1.6"/>
												<rect x="0" y="38.4" class="st79" width="86.8" height="1.6"/>
												<rect x="0" y="40" class="st80" width="86.8" height="1.6"/>
												<rect x="0" y="41.6" class="st81" width="86.8" height="1.6"/>
												<rect x="0" y="43.2" class="st82" width="86.8" height="1.6"/>
												<rect x="0" y="44.7" class="st83" width="86.8" height="1.6"/>
												<rect x="0" y="46.3" class="st84" width="86.8" height="1.6"/>
												<rect x="0" y="47.9" class="st85" width="86.8" height="1.6"/>
												<rect x="0" y="49.4" class="st86" width="86.8" height="1.6"/>
												<rect x="0" y="51" class="st87" width="86.8" height="1.6"/>
												<rect x="0" y="52.6" class="st88" width="86.8" height="1.6"/>
												<rect x="0" y="54.2" class="st89" width="86.8" height="1.6"/>
												<rect x="0" y="55.7" class="st90" width="86.8" height="1.6"/>
												<rect x="0" y="57.3" class="st91" width="86.8" height="1.6"/>
												<rect x="0" y="58.9" class="st92" width="86.8" height="1.6"/>
												<rect x="0" y="60.5" class="st93" width="86.8" height="1.6"/>
												<rect x="0" y="62" class="st94" width="86.8" height="1.6"/>
												<rect x="0" y="63.6" class="st95" width="86.8" height="1.6"/>
												<rect x="0" y="65.2" class="st96" width="86.8" height="1.6"/>
												<rect x="0" y="66.8" class="st97" width="86.8" height="1.6"/>
												<rect x="0" y="68.3" class="st98" width="86.8" height="1.6"/>
												<rect x="0" y="69.9" class="st99" width="86.8" height="1.6"/>
												<rect x="0" y="71.5" class="st100" width="86.8" height="1.6"/>
												<rect x="0" y="73" class="st101" width="86.8" height="1.6"/>
												<rect x="0" y="74.6" class="st102" width="86.8" height="1.6"/>
												<rect x="0" y="76.2" class="st103" width="86.8" height="1.6"/>
												<rect x="0" y="77.8" class="st104" width="86.8" height="1.6"/>
												<rect x="0" y="79.3" class="st105" width="86.8" height="1.6"/>
												<rect x="0" y="80.9" class="st106" width="86.8" height="1.6"/>
												<rect x="0" y="82.5" class="st107" width="86.8" height="1.6"/>
												<rect x="0" y="84.1" class="st108" width="86.8" height="1.6"/>
												<rect x="0" y="85.6" class="st109" width="86.8" height="1.6"/>
												<rect x="0" y="87.2" class="st110" width="86.8" height="1.6"/>
												<rect x="0" y="88.8" class="st111" width="86.8" height="1.6"/>
												<path class="st111" d="M0,90.3h86.8H0z"/>
											</g>
										</g>
									</g>
									<g id="Stroke-4">
										<path class="st112" d="M64.3,31.3c-0.2,0-0.3-0.2-0.3-0.4v-0.7c0-0.2,0.2-0.4,0.3-0.4s0.3,0.2,0.3,0.4V31
											C64.6,31.2,64.5,31.3,64.3,31.3z"/>
									</g>
									<g id="Stroke-6">
										<path class="st112" d="M42.9,70.6C42.8,70.6,42.8,70.6,42.9,70.6c-0.3-0.1-0.4-0.1-0.6-0.2l-0.8-0.5
											c-0.2-0.1-0.2-0.3-0.1-0.5c0.1-0.2,0.3-0.2,0.5-0.1l0.8,0.5c0.1,0.1,0.2,0.1,0.3,0.1c0.2,0.1,0.3,0.2,0.2,0.4
											C43.2,70.5,43,70.6,42.9,70.6z M44.2,70.5c-0.1,0-0.2-0.1-0.3-0.2c-0.1-0.2,0-0.4,0.1-0.5l1.2-0.7c0.2-0.1,0.4,0,0.5,0.1
											c0.1,0.2,0,0.4-0.1,0.5l-1.2,0.7C44.3,70.5,44.3,70.5,44.2,70.5z M40.4,69.3c-0.1,0-0.1,0-0.2,0L39,68.5
											c-0.2-0.1-0.2-0.3-0.1-0.5c0.1-0.2,0.3-0.2,0.5-0.1l1.2,0.7c0.2,0.1,0.2,0.3,0.1,0.5C40.7,69.2,40.5,69.3,40.4,69.3z
											 M46.6,69.1c-0.1,0-0.2-0.1-0.3-0.2c-0.1-0.2,0-0.4,0.1-0.5l1.2-0.7c0.2-0.1,0.4,0,0.5,0.1s0,0.4-0.1,0.5L46.8,69
											C46.8,69.1,46.7,69.1,46.6,69.1z M38,67.8c-0.1,0-0.1,0-0.2,0l-1.2-0.7c-0.2-0.1-0.2-0.3-0.1-0.5c0.1-0.2,0.3-0.2,0.5-0.1
											l1.2,0.7c0.2,0.1,0.2,0.3,0.1,0.5C38.3,67.8,38.1,67.8,38,67.8z M49,67.6c-0.1,0-0.2-0.1-0.3-0.2c-0.1-0.2,0-0.4,0.1-0.5
											l1.2-0.7c0.2-0.1,0.4,0,0.5,0.1c0.1,0.2,0,0.4-0.1,0.5l-1.2,0.7C49.2,67.6,49.1,67.6,49,67.6z M35.6,66.4
											c-0.1,0-0.1,0-0.2,0l-1.2-0.7c-0.2-0.1-0.2-0.3-0.1-0.5c0.1-0.2,0.3-0.2,0.5-0.1l1.2,0.7c0.2,0.1,0.2,0.3,0.1,0.5
											C35.8,66.3,35.7,66.4,35.6,66.4z M51.5,66.2c-0.1,0-0.2-0.1-0.3-0.2c-0.1-0.2,0-0.4,0.1-0.5l1.2-0.7
											c0.2-0.1,0.4,0,0.5,0.1c0.1,0.2,0,0.4-0.1,0.5l-1.2,0.7C51.6,66.2,51.5,66.2,51.5,66.2z M33.2,65c-0.1,0-0.1,0-0.2,0
											l-1.2-0.7c-0.2-0.1-0.2-0.3-0.1-0.5c0.1-0.2,0.3-0.2,0.5-0.1l1.2,0.7c0.2,0.1,0.2,0.3,0.1,0.5C33.4,64.9,33.3,65,33.2,65z
											 M53.9,64.8c-0.1,0-0.2-0.1-0.3-0.2c-0.1-0.2,0-0.4,0.1-0.5l1.2-0.7c0.2-0.1,0.4,0,0.5,0.1c0.1,0.2,0,0.4-0.1,0.5L54,64.7
											C54,64.8,53.9,64.8,53.9,64.8z M30.8,63.6c-0.1,0-0.1,0-0.2,0l-1.2-0.7c-0.2-0.1-0.2-0.3-0.1-0.5s0.3-0.2,0.5-0.1l1.2,0.7
											c0.2,0.1,0.2,0.3,0.1,0.5C31,63.5,30.9,63.6,30.8,63.6z M56.3,63.4c-0.1,0-0.2-0.1-0.3-0.2c-0.1-0.2,0-0.4,0.1-0.5
											l1.2-0.7c0.2-0.1,0.4,0,0.5,0.1c0.1,0.2,0,0.4-0.1,0.5l-1.2,0.7C56.4,63.4,56.3,63.4,56.3,63.4z M28.4,62.1
											c-0.1,0-0.1,0-0.2,0L27,61.4c-0.2-0.1-0.2-0.3-0.1-0.5c0.1-0.2,0.3-0.2,0.5-0.1l1.2,0.7c0.2,0.1,0.2,0.3,0.1,0.5
											C28.6,62.1,28.5,62.1,28.4,62.1z M58.7,61.9c-0.1,0-0.2-0.1-0.3-0.2c-0.1-0.2,0-0.4,0.1-0.5l1.2-0.7
											c0.2-0.1,0.4,0,0.5,0.1c0.1,0.2,0,0.4-0.1,0.5l-1.2,0.7C58.8,61.9,58.7,61.9,58.7,61.9z M26,60.7c-0.1,0-0.1,0-0.2,0
											l-1.2-0.7c-0.2-0.1-0.2-0.3-0.1-0.5s0.3-0.2,0.5-0.1l1.2,0.7c0.2,0.1,0.2,0.3,0.1,0.5C26.2,60.6,26.1,60.7,26,60.7z
											 M61.1,60.5c-0.1,0-0.2-0.1-0.3-0.2c-0.1-0.2,0-0.4,0.1-0.5l1.2-0.7c0.2-0.1,0.4,0,0.5,0.1c0.1,0.2,0,0.4-0.1,0.5
											l-1.2,0.7C61.2,60.5,61.2,60.5,61.1,60.5z M23.6,59.3c-0.1,0-0.1,0-0.2,0l-0.2-0.1c-0.4-0.2-0.7-0.6-0.9-1.1
											c-0.1-0.2,0-0.4,0.2-0.5c0.2-0.1,0.4,0,0.5,0.2c0.1,0.3,0.3,0.6,0.6,0.7l0.2,0.1c0.2,0.1,0.2,0.3,0.1,0.5
											C23.8,59.2,23.7,59.3,23.6,59.3z M63.5,59.1c-0.1,0-0.2-0.1-0.3-0.1c-0.1-0.2-0.1-0.4,0.1-0.5c0.3-0.2,0.5-0.6,0.6-0.9
											c0-0.2,0.2-0.3,0.4-0.3c0.2,0,0.3,0.2,0.3,0.4c-0.1,0.6-0.4,1-0.9,1.4C63.6,59.1,63.6,59.1,63.5,59.1z M22.5,56.9
											c-0.2,0-0.4-0.2-0.4-0.4v-1.4c0-0.2,0.2-0.4,0.4-0.4s0.4,0.2,0.4,0.4v1.4C22.8,56.7,22.7,56.9,22.5,56.9z M64.3,56.5
											c-0.2,0-0.3-0.2-0.3-0.4v-1.4c0-0.2,0.2-0.4,0.3-0.4s0.3,0.2,0.3,0.4v1.4C64.6,56.4,64.5,56.5,64.3,56.5z M22.5,54.1
											c-0.2,0-0.4-0.2-0.4-0.4v-1.4c0-0.2,0.2-0.4,0.4-0.4s0.4,0.2,0.4,0.4v1.4C22.8,53.9,22.7,54.1,22.5,54.1z M64.3,53.7
											c-0.2,0-0.3-0.2-0.3-0.4V52c0-0.2,0.2-0.4,0.3-0.4s0.3,0.2,0.3,0.4v1.4C64.6,53.6,64.5,53.7,64.3,53.7z M22.5,51.3
											c-0.2,0-0.4-0.2-0.4-0.4v-1.4c0-0.2,0.2-0.4,0.4-0.4s0.4,0.2,0.4,0.4v1.4C22.8,51.1,22.7,51.3,22.5,51.3z M64.3,50.9
											c-0.2,0-0.3-0.2-0.3-0.4v-1.4c0-0.2,0.2-0.4,0.3-0.4s0.3,0.2,0.3,0.4v1.4C64.6,50.8,64.5,50.9,64.3,50.9z M22.5,48.5
											c-0.2,0-0.4-0.2-0.4-0.4v-1.4c0-0.2,0.2-0.4,0.4-0.4s0.4,0.2,0.4,0.4v1.4C22.8,48.3,22.7,48.5,22.5,48.5z M64.3,48.1
											c-0.2,0-0.3-0.2-0.3-0.4v-1.4c0-0.2,0.2-0.4,0.3-0.4s0.3,0.2,0.3,0.4v1.4C64.6,48,64.5,48.1,64.3,48.1z M22.5,45.7
											c-0.2,0-0.4-0.2-0.4-0.4v-1.4c0-0.2,0.2-0.4,0.4-0.4s0.4,0.2,0.4,0.4v1.4C22.8,45.5,22.7,45.7,22.5,45.7z M64.3,45.3
											c-0.2,0-0.3-0.2-0.3-0.4v-1.4c0-0.2,0.2-0.4,0.3-0.4s0.3,0.2,0.3,0.4V45C64.6,45.2,64.5,45.3,64.3,45.3z M22.5,42.9
											c-0.2,0-0.4-0.2-0.4-0.4v-1.4c0-0.2,0.2-0.4,0.4-0.4s0.4,0.2,0.4,0.4v1.4C22.8,42.7,22.7,42.9,22.5,42.9z M64.3,42.5
											c-0.2,0-0.3-0.2-0.3-0.4v-1.4c0-0.2,0.2-0.4,0.3-0.4s0.3,0.2,0.3,0.4v1.4C64.6,42.4,64.5,42.5,64.3,42.5z M22.5,40.1
											c-0.2,0-0.4-0.2-0.4-0.4v-1.4c0-0.2,0.2-0.4,0.4-0.4s0.4,0.2,0.4,0.4v1.4C22.8,39.9,22.7,40.1,22.5,40.1z M64.3,39.7
											c-0.2,0-0.3-0.2-0.3-0.4V38c0-0.2,0.2-0.4,0.3-0.4s0.3,0.2,0.3,0.4v1.4C64.6,39.6,64.5,39.7,64.3,39.7z M22.5,37.3
											c-0.2,0-0.4-0.2-0.4-0.4v-1.4c0-0.2,0.2-0.4,0.4-0.4s0.4,0.2,0.4,0.4v1.4C22.8,37.1,22.7,37.3,22.5,37.3z M64.3,36.9
											c-0.2,0-0.3-0.2-0.3-0.4v-1.4c0-0.2,0.2-0.4,0.3-0.4s0.3,0.2,0.3,0.4v1.4C64.6,36.8,64.5,36.9,64.3,36.9z M22.5,34.5
											c-0.2,0-0.4-0.2-0.4-0.4v-1.4c0-0.2,0.2-0.4,0.4-0.4s0.4,0.2,0.4,0.4v1.4C22.8,34.3,22.7,34.5,22.5,34.5z M64.3,34.1
											c-0.2,0-0.3-0.2-0.3-0.4v-1.4c0-0.2,0.2-0.4,0.3-0.4s0.3,0.2,0.3,0.4v1.4C64.6,34,64.5,34.1,64.3,34.1z"/>
									</g>
									<g id="Stroke-8">
										<path class="st112" d="M22.5,31.3c-0.2,0-0.4-0.2-0.4-0.4v-0.7c0-0.2,0.2-0.4,0.4-0.4s0.4,0.2,0.4,0.4V31
											C22.8,31.2,22.7,31.3,22.5,31.3z"/>
									</g>
									<g id="Fill-10">
										<path class="st0" d="M28.6,27.2l6.7-9.9c0.2-0.2,0.5-0.3,0.7-0.2l17,10.3c0.5,0.3,0.3,1-0.3,1L29.1,28
											C28.6,28,28.4,27.5,28.6,27.2"/>
									</g>
									<g id="Stroke-12">
										<path class="st112" d="M52.5,29.7C52.5,29.7,52.5,29.7,52.5,29.7l-22.9-0.4c-0.3,0-0.6-0.2-0.8-0.5
											c-0.1-0.3-0.1-0.6,0.1-0.9l6.5-9.4c0.3-0.4,0.8-0.5,1.2-0.2l16.4,9.8c0.3,0.2,0.5,0.6,0.4,1
											C53.2,29.5,52.9,29.7,52.5,29.7z M36.1,18.9c-0.1,0-0.1,0-0.1,0.1l-6.5,9.4c0,0.1,0,0.1,0,0.2c0,0,0.1,0.1,0.1,0.1
											L52.5,29c0.1,0,0.2-0.1,0.2-0.1c0,0,0-0.1-0.1-0.2L36.1,18.9C36.2,18.9,36.1,18.9,36.1,18.9z"/>
									</g>
									<g id="Stroke-14">
										<path class="st112" d="M41.7,36c-0.7,0-1.4-0.2-2.1-0.6c-0.9-0.6-1.5-1.4-1.7-2.6C37.6,31.3,38,29.5,39,28
											c1.8-2.7,5-3.9,7.1-2.5c0.9,0.6,1.5,1.4,1.7,2.6c0.3,1.6-0.1,3.3-1.1,4.9l0,0C45.4,34.9,43.5,36,41.7,36z M44,25.6
											c-1.6,0-3.3,1-4.4,2.8c-0.9,1.4-1.3,3-1,4.4c0.2,0.9,0.7,1.7,1.4,2.1c1.8,1.2,4.6,0.1,6.1-2.3l0,0c0.9-1.4,1.3-3,1-4.4
											c-0.2-0.9-0.7-1.7-1.4-2.1C45.2,25.7,44.6,25.6,44,25.6z"/>
									</g>
									<g id="Fill-16">
										<path class="st0" d="M66.2,60.8L44.4,73.7c-0.7,0.4-1.5,0.4-2.1,0L20.5,60.8c-0.6-0.4-1-1.1-1-1.8V29
											c0-1.1,0.9-2.1,2.1-2.1h43.6c1.2,0,2.1,0.9,2.1,2.1v30C67.3,59.8,66.9,60.4,66.2,60.8"/>
									</g>
									<g id="Stroke-18">
										<path class="st112" d="M43.4,74.3c-0.4,0-0.9-0.1-1.2-0.3L20.3,61.1c-0.7-0.4-1.2-1.2-1.2-2.1V29c0-1.3,1.1-2.4,2.4-2.4
											h43.6c1.3,0,2.4,1.1,2.4,2.4v30c0,0.8-0.5,1.6-1.2,2.1h0L44.6,74C44.2,74.2,43.8,74.3,43.4,74.3z M21.6,27.3
											c-1,0-1.7,0.8-1.7,1.7v30c0,0.6,0.3,1.2,0.8,1.5l21.8,12.9c0.5,0.3,1.2,0.3,1.8,0l21.8-12.9c0.5-0.3,0.8-0.9,0.8-1.5V29
											c0-1-0.8-1.7-1.7-1.7H21.6z"/>
									</g>
									<g id="Stroke-20">
										<path class="st112" d="M36.4,22.9c-1.4,0-2.5-1-2.6-1.1l0.5-0.5c0,0,1.3,1.1,2.6,0.8c0.8-0.2,1.5-0.9,2-2l0.6,0.3
											c-0.6,1.4-1.4,2.2-2.5,2.4C36.8,22.9,36.6,22.9,36.4,22.9z"/>
									</g>
									<g id="Stroke-22">
										<path class="st112" d="M64.3,31.5c-0.2,0-0.3-0.2-0.3-0.4v-0.7c0-0.2,0.2-0.4,0.3-0.4s0.3,0.2,0.3,0.4v0.7
											C64.6,31.3,64.5,31.5,64.3,31.5z"/>
									</g>
									<g id="Stroke-24">
										<path class="st112" d="M42.9,70.8C42.8,70.8,42.8,70.8,42.9,70.8c-0.3-0.1-0.4-0.1-0.6-0.2l-0.8-0.5
											c-0.2-0.1-0.2-0.3-0.1-0.5c0.1-0.2,0.3-0.2,0.5-0.1l0.8,0.5c0.1,0.1,0.2,0.1,0.3,0.1c0.2,0.1,0.3,0.2,0.2,0.4
											C43.2,70.7,43,70.8,42.9,70.8z M44.2,70.6c-0.1,0-0.2-0.1-0.3-0.2c-0.1-0.2,0-0.4,0.1-0.5l1.2-0.7c0.2-0.1,0.4,0,0.5,0.1
											c0.1,0.2,0,0.4-0.1,0.5l-1.2,0.7C44.3,70.6,44.3,70.6,44.2,70.6z M40.4,69.4c-0.1,0-0.1,0-0.2,0L39,68.6
											c-0.2-0.1-0.2-0.3-0.1-0.5c0.1-0.2,0.3-0.2,0.5-0.1l1.2,0.7c0.2,0.1,0.2,0.3,0.1,0.5C40.7,69.3,40.5,69.4,40.4,69.4z
											 M46.6,69.2c-0.1,0-0.2-0.1-0.3-0.2c-0.1-0.2,0-0.4,0.1-0.5l1.2-0.7c0.2-0.1,0.4,0,0.5,0.1s0,0.4-0.1,0.5l-1.2,0.7
											C46.8,69.2,46.7,69.2,46.6,69.2z M38,68c-0.1,0-0.1,0-0.2,0l-1.2-0.7c-0.2-0.1-0.2-0.3-0.1-0.5c0.1-0.2,0.3-0.2,0.5-0.1
											l1.2,0.7c0.2,0.1,0.2,0.3,0.1,0.5C38.2,67.9,38.1,68,38,68z M49,67.8c-0.1,0-0.2-0.1-0.3-0.2c-0.1-0.2,0-0.4,0.1-0.5
											l1.2-0.7c0.2-0.1,0.4,0,0.5,0.1c0.1,0.2,0,0.4-0.1,0.5l-1.2,0.7C49.2,67.8,49.1,67.8,49,67.8z M35.6,66.6
											c-0.1,0-0.1,0-0.2,0l-1.2-0.7c-0.2-0.1-0.2-0.3-0.1-0.5c0.1-0.2,0.3-0.2,0.5-0.1l1.2,0.7c0.2,0.1,0.2,0.3,0.1,0.5
											C35.8,66.5,35.7,66.6,35.6,66.6z M51.5,66.4c-0.1,0-0.2-0.1-0.3-0.2c-0.1-0.2,0-0.4,0.1-0.5l1.2-0.7
											c0.2-0.1,0.4,0,0.5,0.1c0.1,0.2,0,0.4-0.1,0.5l-1.2,0.7C51.6,66.4,51.5,66.4,51.5,66.4z M33.2,65.1c-0.1,0-0.1,0-0.2,0
											l-1.2-0.7c-0.2-0.1-0.2-0.3-0.1-0.5c0.1-0.2,0.3-0.2,0.5-0.1l1.2,0.7c0.2,0.1,0.2,0.3,0.1,0.5
											C33.4,65.1,33.3,65.1,33.2,65.1z M53.9,64.9c-0.1,0-0.2-0.1-0.3-0.2c-0.1-0.2,0-0.4,0.1-0.5l1.2-0.7
											c0.2-0.1,0.4,0,0.5,0.1c0.1,0.2,0,0.4-0.1,0.5L54,64.9C54,64.9,53.9,64.9,53.9,64.9z M30.8,63.7c-0.1,0-0.1,0-0.2,0
											l-1.2-0.7c-0.2-0.1-0.2-0.3-0.1-0.5c0.1-0.2,0.3-0.2,0.5-0.1L31,63c0.2,0.1,0.2,0.3,0.1,0.5C31,63.6,30.9,63.7,30.8,63.7z
											 M56.3,63.5c-0.1,0-0.2-0.1-0.3-0.2c-0.1-0.2,0-0.4,0.1-0.5l1.2-0.7c0.2-0.1,0.4,0,0.5,0.1c0.1,0.2,0,0.4-0.1,0.5
											l-1.2,0.7C56.4,63.5,56.3,63.5,56.3,63.5z M28.4,62.3c-0.1,0-0.1,0-0.2,0L27,61.5c-0.2-0.1-0.2-0.3-0.1-0.5
											c0.1-0.2,0.3-0.2,0.5-0.1l1.2,0.7c0.2,0.1,0.2,0.3,0.1,0.5C28.6,62.2,28.5,62.3,28.4,62.3z M58.7,62.1
											c-0.1,0-0.2-0.1-0.3-0.2c-0.1-0.2,0-0.4,0.1-0.5l1.2-0.7c0.2-0.1,0.4,0,0.5,0.1c0.1,0.2,0,0.4-0.1,0.5L58.9,62
											C58.8,62.1,58.7,62.1,58.7,62.1z M26,60.8c-0.1,0-0.1,0-0.2,0l-1.2-0.7c-0.2-0.1-0.2-0.3-0.1-0.5c0.1-0.2,0.3-0.2,0.5-0.1
											l1.2,0.7c0.2,0.1,0.2,0.3,0.1,0.5C26.2,60.8,26.1,60.8,26,60.8z M61.1,60.7c-0.1,0-0.2-0.1-0.3-0.2
											c-0.1-0.2,0-0.4,0.1-0.5l1.2-0.7c0.2-0.1,0.4,0,0.5,0.1c0.1,0.2,0,0.4-0.1,0.5l-1.2,0.7C61.2,60.7,61.2,60.7,61.1,60.7z
											 M23.6,59.4c-0.1,0-0.1,0-0.2,0l-0.2-0.1c-0.4-0.2-0.7-0.6-0.9-1.1c-0.1-0.2,0-0.4,0.2-0.5c0.2-0.1,0.4,0,0.5,0.2
											c0.1,0.3,0.3,0.6,0.6,0.7l0.2,0.1c0.2,0.1,0.2,0.3,0.1,0.5C23.8,59.4,23.7,59.4,23.6,59.4z M63.5,59.2
											c-0.1,0-0.2-0.1-0.3-0.1c-0.1-0.2-0.1-0.4,0.1-0.5c0.3-0.2,0.5-0.5,0.6-0.9c0-0.2,0.2-0.3,0.4-0.3c0.2,0,0.3,0.2,0.3,0.4
											c-0.1,0.6-0.4,1-0.9,1.4C63.6,59.2,63.6,59.2,63.5,59.2z M22.5,57c-0.2,0-0.4-0.2-0.4-0.4v-1.4c0-0.2,0.2-0.4,0.4-0.4
											s0.4,0.2,0.4,0.4v1.4C22.8,56.9,22.7,57,22.5,57z M64.3,56.7c-0.2,0-0.3-0.2-0.3-0.4v-1.4c0-0.2,0.2-0.4,0.3-0.4
											s0.3,0.2,0.3,0.4v1.4C64.6,56.5,64.5,56.7,64.3,56.7z M22.5,54.2c-0.2,0-0.4-0.2-0.4-0.4v-1.4c0-0.2,0.2-0.4,0.4-0.4
											s0.4,0.2,0.4,0.4v1.4C22.8,54.1,22.7,54.2,22.5,54.2z M64.3,53.9c-0.2,0-0.3-0.2-0.3-0.4v-1.4c0-0.2,0.2-0.4,0.3-0.4
											s0.3,0.2,0.3,0.4v1.4C64.6,53.7,64.5,53.9,64.3,53.9z M22.5,51.4c-0.2,0-0.4-0.2-0.4-0.4v-1.4c0-0.2,0.2-0.4,0.4-0.4
											s0.4,0.2,0.4,0.4v1.4C22.8,51.3,22.7,51.4,22.5,51.4z M64.3,51.1c-0.2,0-0.3-0.2-0.3-0.4v-1.4c0-0.2,0.2-0.4,0.3-0.4
											s0.3,0.2,0.3,0.4v1.4C64.6,50.9,64.5,51.1,64.3,51.1z M22.5,48.6c-0.2,0-0.4-0.2-0.4-0.4v-1.4c0-0.2,0.2-0.4,0.4-0.4
											s0.4,0.2,0.4,0.4v1.4C22.8,48.5,22.7,48.6,22.5,48.6z M64.3,48.3c-0.2,0-0.3-0.2-0.3-0.4v-1.4c0-0.2,0.2-0.4,0.3-0.4
											s0.3,0.2,0.3,0.4v1.4C64.6,48.1,64.5,48.3,64.3,48.3z M22.5,45.8c-0.2,0-0.4-0.2-0.4-0.4v-1.4c0-0.2,0.2-0.4,0.4-0.4
											s0.4,0.2,0.4,0.4v1.4C22.8,45.7,22.7,45.8,22.5,45.8z M64.3,45.5c-0.2,0-0.3-0.2-0.3-0.4v-1.4c0-0.2,0.2-0.4,0.3-0.4
											s0.3,0.2,0.3,0.4v1.4C64.6,45.3,64.5,45.5,64.3,45.5z M22.5,43c-0.2,0-0.4-0.2-0.4-0.4v-1.4c0-0.2,0.2-0.4,0.4-0.4
											s0.4,0.2,0.4,0.4v1.4C22.8,42.9,22.7,43,22.5,43z M64.3,42.7c-0.2,0-0.3-0.2-0.3-0.4v-1.4c0-0.2,0.2-0.4,0.3-0.4
											s0.3,0.2,0.3,0.4v1.4C64.6,42.5,64.5,42.7,64.3,42.7z M22.5,40.2c-0.2,0-0.4-0.2-0.4-0.4v-1.4c0-0.2,0.2-0.4,0.4-0.4
											s0.4,0.2,0.4,0.4v1.4C22.8,40.1,22.7,40.2,22.5,40.2z M64.3,39.9c-0.2,0-0.3-0.2-0.3-0.4v-1.4c0-0.2,0.2-0.4,0.3-0.4
											s0.3,0.2,0.3,0.4v1.4C64.6,39.7,64.5,39.9,64.3,39.9z M22.5,37.4c-0.2,0-0.4-0.2-0.4-0.4v-1.4c0-0.2,0.2-0.4,0.4-0.4
											s0.4,0.2,0.4,0.4v1.4C22.8,37.3,22.7,37.4,22.5,37.4z M64.3,37.1c-0.2,0-0.3-0.2-0.3-0.4v-1.4c0-0.2,0.2-0.4,0.3-0.4
											s0.3,0.2,0.3,0.4v1.4C64.6,36.9,64.5,37.1,64.3,37.1z M22.5,34.6c-0.2,0-0.4-0.2-0.4-0.4v-1.4c0-0.2,0.2-0.4,0.4-0.4
											s0.4,0.2,0.4,0.4v1.4C22.8,34.5,22.7,34.6,22.5,34.6z M64.3,34.3c-0.2,0-0.3-0.2-0.3-0.4v-1.4c0-0.2,0.2-0.4,0.3-0.4
											s0.3,0.2,0.3,0.4v1.4C64.6,34.1,64.5,34.3,64.3,34.3z"/>
									</g>
									<g id="Stroke-26">
										<path class="st112" d="M22.5,31.5c-0.2,0-0.4-0.2-0.4-0.4v-0.7c0-0.2,0.2-0.4,0.4-0.4s0.4,0.2,0.4,0.4v0.7
											C22.8,31.3,22.7,31.5,22.5,31.5z"/>
									</g>
								</g>
							</g>
						</g>
					</g>
				</g>
			</g>
		</g>
	</g>
</g>
</svg>
