<?xml version="1.0" encoding="utf-8"?>
<!-- Generator: Adobe Illustrator 22.0.1, SVG Export Plug-In . SVG Version: 6.00 Build 0)  -->
<svg version="1.1" id="Layer_1" xmlns="http://www.w3.org/2000/svg" xmlns:xlink="http://www.w3.org/1999/xlink" x="0px" y="0px"
	 viewBox="0 0 290 99" style="enable-background:new 0 0 290 99;" xml:space="preserve">
<style type="text/css">
	.st0{clip-path:url(#SVGID_2_);}
	.st1{clip-path:url(#SVGID_4_);}
	.st2{clip-path:url(#SVGID_6_);}
	.st3{fill:#FFFFFF;}
	.st4{clip-path:url(#SVGID_8_);}
	.st5{fill:#231F20;}
	.st6{clip-path:url(#SVGID_10_);}
</style>
<g>
	<defs>
		<path id="SVGID_1_" d="M13.2,5h72.5c4.5,0,8.2,3.7,8.2,8.2v72.7c0,4.5-3.7,8.2-8.2,8.2H13.2C8.7,94,5,90.3,5,85.8V13.2
			C5,8.7,8.7,5,13.2,5z M13.2,7C9.8,7,7,9.8,7,13.2v72.7c0,3.4,2.7,6.1,6.1,6.1h72.5c3.4,0,6.1-2.7,6.1-6.1V13.2
			C91.8,9.8,89,7,85.6,7H13.2z"/>
	</defs>
	<clipPath id="SVGID_2_">
		<use xlink:href="#SVGID_1_"  style="overflow:visible;"/>
	</clipPath>
	<g class="st0">
		<rect width="98.8" height="99"/>
	</g>
</g>
<g>
	<defs>
		<path id="SVGID_3_" d="M280.7,43.9v-4.7c0-1-0.2-1.4-0.9-1.4c-1.6,0-0.4,5.7-4.4,6c-1.3,0.1-1.9,0.3-1.9,1.1
			c0,0.9,0.3,1.1,1.3,1.1h1.4v12.1c0,1.9,0.5,2.3,2.7,2.3h4.9c0.8,0,1.2-0.4,1.2-1.2c0-0.8-0.4-1-2-1c-1.8,0-2.3-0.5-2.3-2.1V46.1
			h2.8c0.8,0,1.3-0.2,1.3-1.1c0-0.8-0.5-1.1-1.3-1.1H280.7z M266.1,45.4c-3.3,0-4.8,3.3-4.8,6.8c1.8-0.2,7.3-0.9,7.3-4.3
			C268.6,46.3,267.7,45.4,266.1,45.4z M256.6,52.6c0-5.4,3.4-9.1,9.9-9.1c2.9,0,6.7,1.4,6.7,4.8c0,4.7-7.9,5.5-11.5,5.7
			c0.4,2.6,2.5,4.2,4.8,4.2c2-0.1,3.4-0.8,4.8-2.1c0.4-0.4,0.7-0.7,1.3-0.7c0.6,0,0.8,0.3,0.8,0.8c0,1.7-3.8,4.5-8,4.5
			C260.6,60.8,256.6,57.6,256.6,52.6z M244.3,60.5h-5.2c-0.9,0-1.3-0.3-1.3-0.9c0-1.3,1.6-0.2,1.6-2.5V38.5c0-1.7-1.9-1.3-1.9-2.4
			c0-0.5,0.5-0.6,0.9-0.8c0.8-0.4,3.3-1.3,4.2-1.3c1.1,0,1.2,0.7,1.2,2.3v15.2c1.3-0.7,5.6-4,5.6-5.2c0-0.8-1.7-0.5-1.7-1.6
			c0-0.6,0.3-0.8,0.9-0.8h4.9c0.8,0,1.3,0.3,1.3,0.8c0,1-1,0.8-2.3,2c-1.2,1.2-3.3,3.2-3.6,3.7c2.4,2.4,3.9,4.4,5.7,7.4
			c0.6,0.9,1.8,0.8,1.8,1.7c0,0.6-0.4,0.8-1.1,0.8h-5.9c-0.8,0-1.1-0.5-1.1-1c0-0.8,1-0.7,1-1.1c0-0.6-2.2-3.8-3.5-5.5l-2,1.4V57
			c0,2.3,1.6,1.2,1.6,2.5C245.6,60.1,245.2,60.5,244.3,60.5z M221.3,52.4c0,5,3.7,8.4,8.6,8.4c4.2,0,7.3-2.8,7.3-4.3
			c0-0.5-0.4-0.8-0.9-0.8c-1.1,0-2.1,2.7-5.4,2.7c-2.6,0-4.8-2.2-4.8-5.9c0-4.3,1.7-7.1,4.1-7.1c2.7,0,2.4,3.4,4.4,3.4
			c1.4,0,2.2-0.7,2.2-1.7c0-1.9-3.1-3.6-6.4-3.6C225.2,43.5,221.3,47.2,221.3,52.4z M206.4,52.2c0,4.3,2,6.6,4.6,6.6
			c2.6,0,4.6-2.2,4.6-6.6c0-4.3-2-6.6-4.6-6.6C208.4,45.6,206.4,47.8,206.4,52.2z M220.4,52.2c0,5.1-4.2,8.6-9.4,8.6
			c-5.2,0-9.4-3.5-9.4-8.6s4.2-8.6,9.4-8.6C216.2,43.5,220.4,47,220.4,52.2z M187.8,50.8v12.7c0,2.3,2,1.2,2,2.6
			c0,0.6-0.7,0.9-1.6,0.9h-5.2c-0.9,0-1.3-0.3-1.3-0.9c0-1.3,1.6-0.2,1.6-2.5v-15c0-2.7-2-1.4-2-3c0-1.3,4-2,4.7-2
			c1.2,0,1.3,0.7,1.5,2.6c1.4-2,3.2-2.6,5.6-2.6c4.8,0,7.7,4,7.7,8.5c0,4.9-3.3,8.8-8.3,8.8c-1.4,0-3.8-0.3-3.8-1.6
			c0-0.4,0.2-0.9,0.9-0.9c0.3,0,1.3,0.1,2.1,0.1c3.2,0,4.3-3.6,4.3-6.3s-1-6.4-4.3-6.4C189,45.7,187.8,48.2,187.8,50.8z M169,60.5
			h-5.2c-0.9,0-1.3-0.3-1.3-0.9c0-1.3,1.6-0.2,1.6-2.5V38.5c0-1.7-1.9-1.3-1.9-2.4c0-0.5,0.5-0.6,0.9-0.8c0.8-0.4,3.3-1.3,4.2-1.3
			c1.1,0,1.2,0.7,1.2,2.3v15.2c1.3-0.7,5.6-4,5.6-5.2c0-0.8-1.7-0.5-1.7-1.6c0-0.6,0.3-0.8,0.9-0.8h4.9c0.8,0,1.3,0.3,1.3,0.8
			c0,1-1,0.8-2.3,2c-1.2,1.2-3.3,3.2-3.6,3.7c2.4,2.4,3.9,4.4,5.7,7.4c0.6,0.9,1.8,0.8,1.8,1.7c0,0.6-0.4,0.8-1.1,0.8h-5.9
			c-0.8,0-1.1-0.5-1.1-1c0-0.8,1-0.7,1-1.1c0-0.6-2.2-3.8-3.5-5.5l-2,1.4V57c0,2.3,1.6,1.2,1.6,2.5C170.3,60.1,169.9,60.5,169,60.5z
			 M146.1,52.4c0,5,3.7,8.4,8.6,8.4c4.2,0,7.3-2.8,7.3-4.3c0-0.5-0.4-0.8-0.9-0.8c-1.1,0-2.1,2.7-5.4,2.7c-2.6,0-4.8-2.2-4.8-5.9
			c0-4.3,1.7-7.1,4.1-7.1c2.7,0,2.4,3.4,4.4,3.4c1.4,0,2.2-0.7,2.2-1.7c0-1.9-3.1-3.6-6.4-3.6C149.9,43.5,146.1,47.2,146.1,52.4z
			 M141.1,37.1c-1.7,0-2.9,0.9-2.9,2.4c0,1.5,1.1,2.4,2.7,2.4c1.8,0,2.9-0.9,2.9-2.4C143.9,38,142.8,37.1,141.1,37.1z M144.1,60.5
			c0.9,0,1.3-0.3,1.3-0.9c0-1.3-1.6-0.2-1.6-2.5V46.2c0-1.9-0.2-2.6-1.2-2.6c-1,0-3.7,1.2-4.2,1.3c-0.4,0.1-0.9,0.3-0.9,0.8
			c0,1,1.9,0.7,1.9,2.4v9c0,2.3-1.6,1.2-1.6,2.5c0,0.6,0.4,0.9,1.3,0.9H144.1z M123.5,50.8c0-2.6,1.2-5.1,3.9-5.1
			c3.3,0,4.3,3.8,4.3,6.4s-1.1,6.3-4.3,6.3c-0.9,0-1.9-0.1-2.1-0.1c-0.6,0-0.9,0.5-0.9,0.9c0,1.3,2.4,1.6,3.8,1.6
			c5,0,8.3-3.9,8.3-8.8c0-4.5-2.9-8.5-7.7-8.5c-2.4,0-4.2,0.6-5.6,2.6c-0.2-1.9-0.3-2.6-1.5-2.6c-0.7,0-4.7,0.7-4.7,2
			c0,1.6,2,0.3,2,3v15c0,2.3-1.6,1.2-1.6,2.5c0,0.6,0.4,0.9,1.3,0.9h5.2c0.9,0,1.6-0.3,1.6-0.9c0-1.4-2-0.3-2-2.6V50.8z"/>
	</defs>
	<clipPath id="SVGID_4_">
		<use xlink:href="#SVGID_3_"  style="overflow:visible;"/>
	</clipPath>
	<g class="st1">
		<rect x="112" y="29" width="178" height="43"/>
	</g>
</g>
<g>
	<defs>
		<path id="SVGID_5_" d="M33.7,31l7.2-10.7c0.2-0.3,0.5-0.3,0.8-0.2l18.2,11.2c0.5,0.3,0.3,1.1-0.3,1.1l-25.4-0.5
			C33.7,31.9,33.5,31.3,33.7,31"/>
	</defs>
	<clipPath id="SVGID_6_">
		<use xlink:href="#SVGID_5_"  style="overflow:visible;"/>
	</clipPath>
	<g class="st2">
		<rect x="28.6" y="15" width="36.5" height="22.4"/>
	</g>
</g>
<g>
	<path class="st3" d="M59.2,33.4C59.2,33.4,59.2,33.4,59.2,33.4L34.6,33c-0.3,0-0.6-0.2-0.7-0.4c-0.1-0.3-0.1-0.6,0.1-0.8l0,0l7-10
		c0.2-0.4,0.7-0.5,1.1-0.2l17.6,10.5c0.3,0.2,0.5,0.6,0.4,0.9C59.9,33.2,59.6,33.4,59.2,33.4z M34.4,32c-0.1,0.1,0,0.2,0,0.3
		c0,0.1,0.1,0.2,0.2,0.2l24.6,0.4c0,0,0,0,0,0c0.2,0,0.2-0.1,0.3-0.2c0,0,0-0.2-0.1-0.3L41.7,21.9c-0.1-0.1-0.3,0-0.4,0.1L34.4,32z"
		/>
</g>
<g>
	<path class="st3" d="M47.4,40.2c-0.8,0-1.5-0.2-2.1-0.6c-0.9-0.6-1.5-1.5-1.8-2.7c-0.4-1.6,0.1-3.5,1.1-5.2
		c1.9-2.9,5.2-4.1,7.4-2.6c0.9,0.6,1.5,1.5,1.8,2.7c0.4,1.6-0.1,3.5-1.1,5.2l0,0C51.4,39,49.3,40.2,47.4,40.2z M49.9,29
		c-1.7,0-3.6,1.1-4.8,3c-1,1.5-1.4,3.3-1,4.8c0.2,1,0.8,1.8,1.5,2.3c2,1.3,5,0.2,6.7-2.5l0,0c1-1.5,1.4-3.3,1-4.8
		c-0.2-1-0.8-1.8-1.5-2.3C51.2,29.2,50.6,29,49.9,29z"/>
</g>
<g>
	<defs>
		<path id="SVGID_7_" d="M73.9,66.9L50.6,80.7c-0.7,0.4-1.6,0.4-2.3,0L25.1,66.9C24.4,66.5,24,65.8,24,65V33c0-1.2,1-2.2,2.2-2.2
			h46.5c1.2,0,2.2,1,2.2,2.2v32C75,65.8,74.6,66.5,73.9,66.9"/>
	</defs>
	<clipPath id="SVGID_8_">
		<use xlink:href="#SVGID_7_"  style="overflow:visible;"/>
	</clipPath>
	<g class="st4">
		<rect x="19" y="25.8" class="st5" width="61" height="60.2"/>
	</g>
</g>
<g>
	<path class="st3" d="M49.5,81.5c-0.5,0-1-0.1-1.4-0.4L24.8,67.4C24,66.9,23.5,66,23.5,65V33c0-1.5,1.2-2.7,2.7-2.7h46.5
		c1.5,0,2.7,1.2,2.7,2.7v32c0,1-0.5,1.8-1.3,2.3L50.9,81.1C50.5,81.4,50,81.5,49.5,81.5z M26.2,31.3c-1,0-1.7,0.8-1.7,1.7v32
		c0,0.6,0.3,1.2,0.8,1.5l23.3,13.8c0.5,0.3,1.2,0.3,1.8,0l23.3-13.8c0.5-0.3,0.8-0.9,0.8-1.5V33c0-0.9-0.8-1.7-1.7-1.7H26.2z"/>
</g>
<g>
	<path class="st3" d="M41.9,26.2c-1.5,0-2.7-1-2.8-1.1l0.3-0.4c0,0,1.5,1.2,3,0.9c0.9-0.2,1.6-0.9,2.2-2.2l0.5,0.2
		c-0.6,1.4-1.5,2.2-2.6,2.5C42.3,26.2,42.1,26.2,41.9,26.2z"/>
</g>
<g>
	<defs>
		<path id="SVGID_9_" d="M27.5,38v-1.1c0-0.1-0.1-0.2-0.2-0.2c-0.1,0-0.2,0.1-0.2,0.2V38c0,0.1,0.1,0.2,0.2,0.2
			C27.4,38.2,27.5,38.1,27.5,38z M27.5,40.1v-1.1c0-0.1-0.1-0.2-0.2-0.2c-0.1,0-0.2,0.1-0.2,0.2v1.1c0,0.1,0.1,0.2,0.2,0.2
			C27.4,40.4,27.5,40.3,27.5,40.1z M27.5,42.3v-1.1c0-0.1-0.1-0.2-0.2-0.2c-0.1,0-0.2,0.1-0.2,0.2v1.1c0,0.1,0.1,0.2,0.2,0.2
			C27.4,42.5,27.5,42.4,27.5,42.3z M27.5,44.4v-1.1c0-0.1-0.1-0.2-0.2-0.2c-0.1,0-0.2,0.1-0.2,0.2v1.1c0,0.1,0.1,0.2,0.2,0.2
			C27.4,44.7,27.5,44.6,27.5,44.4z M27.5,46.6v-1.1c0-0.1-0.1-0.2-0.2-0.2c-0.1,0-0.2,0.1-0.2,0.2v1.1c0,0.1,0.1,0.2,0.2,0.2
			C27.4,46.8,27.5,46.7,27.5,46.6z M27.5,48.7v-1.1c0-0.1-0.1-0.2-0.2-0.2c-0.1,0-0.2,0.1-0.2,0.2v1.1c0,0.1,0.1,0.2,0.2,0.2
			C27.4,49,27.5,48.9,27.5,48.7z M27.5,50.9v-1.1c0-0.1-0.1-0.2-0.2-0.2c-0.1,0-0.2,0.1-0.2,0.2v1.1c0,0.1,0.1,0.2,0.2,0.2
			C27.4,51.1,27.5,51,27.5,50.9z M27.5,53V52c0-0.1-0.1-0.2-0.2-0.2c-0.1,0-0.2,0.1-0.2,0.2V53c0,0.1,0.1,0.2,0.2,0.2
			C27.4,53.3,27.5,53.2,27.5,53z M27.5,55.2v-1.1c0-0.1-0.1-0.2-0.2-0.2c-0.1,0-0.2,0.1-0.2,0.2v1.1c0,0.1,0.1,0.2,0.2,0.2
			C27.4,55.4,27.5,55.3,27.5,55.2z M27.5,57.3v-1.1c0-0.1-0.1-0.2-0.2-0.2c-0.1,0-0.2,0.1-0.2,0.2v1.1c0,0.1,0.1,0.2,0.2,0.2
			C27.4,57.6,27.5,57.5,27.5,57.3z M27.5,59.5v-1.1c0-0.1-0.1-0.2-0.2-0.2c-0.1,0-0.2,0.1-0.2,0.2v1.1c0,0.1,0.1,0.2,0.2,0.2
			C27.4,59.7,27.5,59.6,27.5,59.5z M27.5,61.6v-1.1c0-0.1-0.1-0.2-0.2-0.2c-0.1,0-0.2,0.1-0.2,0.2v1.1c0,0.1,0.1,0.2,0.2,0.2
			C27.4,61.9,27.5,61.8,27.5,61.6z M27.5,63.7c0-0.1,0-0.2,0-0.3l0-0.7c0-0.1-0.1-0.2-0.3-0.2c-0.1,0-0.2,0.1-0.2,0.3l0,0.7
			c0,0.2,0,0.3,0.1,0.4c0,0.1,0.2,0.2,0.3,0.2C27.5,64,27.5,63.9,27.5,63.7z M28.8,65.1l-0.5-0.3c-0.1-0.1-0.2-0.1-0.3-0.2
			c-0.1-0.1-0.3-0.1-0.4,0c-0.1,0.1-0.1,0.3,0,0.4c0.1,0.1,0.3,0.2,0.4,0.3l0.5,0.3c0.1,0.1,0.3,0,0.3-0.1
			C29,65.4,28.9,65.2,28.8,65.1z M30.7,66.2l-0.9-0.5c-0.1-0.1-0.3,0-0.3,0.1s0,0.3,0.1,0.3l0.9,0.5c0.1,0.1,0.3,0,0.3-0.1
			C30.8,66.5,30.8,66.3,30.7,66.2z M32.5,67.3l-0.9-0.5c-0.1-0.1-0.3,0-0.3,0.1c-0.1,0.1,0,0.3,0.1,0.3l0.9,0.5
			c0.1,0.1,0.3,0,0.3-0.1C32.7,67.6,32.6,67.4,32.5,67.3z M34.4,68.4l-0.9-0.5c-0.1-0.1-0.3,0-0.3,0.1s0,0.3,0.1,0.3l0.9,0.5
			c0.1,0.1,0.3,0,0.3-0.1C34.5,68.7,34.5,68.5,34.4,68.4z M36.2,69.5L35.3,69c-0.1-0.1-0.3,0-0.3,0.1c-0.1,0.1,0,0.3,0.1,0.3
			l0.9,0.5c0.1,0.1,0.3,0,0.3-0.1C36.4,69.8,36.3,69.6,36.2,69.5z M38,70.6l-0.9-0.5c-0.1-0.1-0.3,0-0.3,0.1c-0.1,0.1,0,0.3,0.1,0.3
			l0.9,0.5c0.1,0.1,0.3,0,0.3-0.1C38.2,70.9,38.2,70.7,38,70.6z M39.9,71.7L39,71.2c-0.1-0.1-0.3,0-0.3,0.1c-0.1,0.1,0,0.3,0.1,0.3
			l0.9,0.5c0.1,0.1,0.3,0,0.3-0.1S40,71.8,39.9,71.7z M41.7,72.8l-0.9-0.5c-0.1-0.1-0.3,0-0.3,0.1s0,0.3,0.1,0.3l0.9,0.5
			c0.1,0.1,0.3,0,0.3-0.1C41.9,73,41.9,72.9,41.7,72.8z M43.6,73.9l-0.9-0.5c-0.1-0.1-0.3,0-0.3,0.1c-0.1,0.1,0,0.3,0.1,0.3l0.9,0.5
			c0.1,0.1,0.3,0,0.3-0.1S43.7,74,43.6,73.9z M45.4,75l-0.9-0.5c-0.1-0.1-0.3,0-0.3,0.1c-0.1,0.1,0,0.3,0.1,0.3l0.9,0.5
			c0.1,0.1,0.3,0,0.3-0.1C45.6,75.2,45.5,75.1,45.4,75z M47.3,76.1l-0.9-0.5c-0.1-0.1-0.3,0-0.3,0.1s0,0.3,0.1,0.3l0.9,0.5
			c0.1,0.1,0.3,0,0.3-0.1C47.4,76.3,47.4,76.2,47.3,76.1z M49.1,77.1c-0.2,0-0.3-0.1-0.5-0.2l-0.5-0.3c-0.1-0.1-0.3,0-0.3,0.1
			c-0.1,0.1,0,0.3,0.1,0.3l0.5,0.3c0.2,0.1,0.4,0.2,0.6,0.2c0.1,0,0.3-0.1,0.3-0.2C49.4,77.3,49.3,77.2,49.1,77.1z M51,76.6
			l-0.6,0.4c-0.1,0.1-0.2,0.1-0.3,0.1c-0.1,0-0.2,0.2-0.1,0.3c0,0.1,0.2,0.2,0.3,0.1c0.1,0,0.2-0.1,0.4-0.2l0.6-0.4
			c0.1-0.1,0.2-0.2,0.1-0.3S51.1,76.5,51,76.6z M52.8,75.5L51.9,76c-0.1,0.1-0.2,0.2-0.1,0.3s0.2,0.2,0.3,0.1l0.9-0.5
			c0.1-0.1,0.2-0.2,0.1-0.3C53.1,75.4,53,75.4,52.8,75.5z M54.7,74.4l-0.9,0.5c-0.1,0.1-0.2,0.2-0.1,0.3c0.1,0.1,0.2,0.2,0.3,0.1
			l0.9-0.5c0.1-0.1,0.2-0.2,0.1-0.3C55,74.3,54.8,74.3,54.7,74.4z M56.5,73.3l-0.9,0.5c-0.1,0.1-0.2,0.2-0.1,0.3
			c0.1,0.1,0.2,0.2,0.3,0.1l0.9-0.5c0.1-0.1,0.2-0.2,0.1-0.3C56.8,73.2,56.6,73.2,56.5,73.3z M58.4,72.2l-0.9,0.5
			c-0.1,0.1-0.2,0.2-0.1,0.3c0.1,0.1,0.2,0.2,0.3,0.1l0.9-0.5c0.1-0.1,0.2-0.2,0.1-0.3S58.5,72.1,58.4,72.2z M60.2,71.1l-0.9,0.5
			c-0.1,0.1-0.2,0.2-0.1,0.3c0.1,0.1,0.2,0.2,0.3,0.1l0.9-0.5c0.1-0.1,0.2-0.2,0.1-0.3C60.5,71,60.3,71,60.2,71.1z M62.1,70
			l-0.9,0.5c-0.1,0.1-0.2,0.2-0.1,0.3c0.1,0.1,0.2,0.2,0.3,0.1l0.9-0.5c0.1-0.1,0.2-0.2,0.1-0.3C62.3,69.9,62.2,69.9,62.1,70z
			 M63.9,68.9L63,69.4c-0.1,0.1-0.2,0.2-0.1,0.3c0.1,0.1,0.2,0.2,0.3,0.1l0.9-0.5c0.1-0.1,0.2-0.2,0.1-0.3S64,68.8,63.9,68.9z
			 M65.8,67.8l-0.9,0.5c-0.1,0.1-0.2,0.2-0.1,0.3s0.2,0.2,0.3,0.1l0.9-0.5c0.1-0.1,0.2-0.2,0.1-0.3S65.9,67.7,65.8,67.8z M67.6,66.7
			l-0.9,0.5c-0.1,0.1-0.2,0.2-0.1,0.3c0.1,0.1,0.2,0.2,0.3,0.1l0.9-0.5c0.1-0.1,0.2-0.2,0.1-0.3C67.9,66.6,67.7,66.6,67.6,66.7z
			 M69.4,65.6l-0.9,0.5c-0.1,0.1-0.2,0.2-0.1,0.3c0.1,0.1,0.2,0.2,0.3,0.1l0.9-0.5c0.1-0.1,0.2-0.2,0.1-0.3
			C69.7,65.5,69.6,65.5,69.4,65.6z M71.2,64.4c-0.1,0.2-0.3,0.3-0.4,0.4L70.4,65c-0.1,0.1-0.2,0.2-0.1,0.3c0.1,0.1,0.2,0.2,0.3,0.1
			l0.4-0.2c0.2-0.1,0.4-0.3,0.6-0.5c0.1-0.1,0.1-0.3,0-0.4C71.4,64.3,71.3,64.3,71.2,64.4z M71.5,62.5v0.9c0,0.1,0,0.1,0,0.1
			c0,0.1,0.1,0.3,0.2,0.3c0.1,0,0.3-0.1,0.3-0.2c0-0.1,0-0.1,0-0.2v-0.9c0-0.1-0.1-0.2-0.2-0.2S71.5,62.3,71.5,62.5z M71.5,60.3v1.1
			c0,0.1,0.1,0.2,0.2,0.2s0.2-0.1,0.2-0.2v-1.1c0-0.1-0.1-0.2-0.2-0.2S71.5,60.2,71.5,60.3z M71.5,58.2v1.1c0,0.1,0.1,0.2,0.2,0.2
			s0.2-0.1,0.2-0.2v-1.1c0-0.1-0.1-0.2-0.2-0.2S71.5,58,71.5,58.2z M71.5,56v1.1c0,0.1,0.1,0.2,0.2,0.2s0.2-0.1,0.2-0.2V56
			c0-0.1-0.1-0.2-0.2-0.2S71.5,55.9,71.5,56z M71.5,53.9V55c0,0.1,0.1,0.2,0.2,0.2S72,55.1,72,55v-1.1c0-0.1-0.1-0.2-0.2-0.2
			S71.5,53.7,71.5,53.9z M71.5,51.7v1.1c0,0.1,0.1,0.2,0.2,0.2s0.2-0.1,0.2-0.2v-1.1c0-0.1-0.1-0.2-0.2-0.2S71.5,51.6,71.5,51.7z
			 M71.5,49.6v1.1c0,0.1,0.1,0.2,0.2,0.2s0.2-0.1,0.2-0.2v-1.1c0-0.1-0.1-0.2-0.2-0.2S71.5,49.4,71.5,49.6z M71.5,47.4v1.1
			c0,0.1,0.1,0.2,0.2,0.2s0.2-0.1,0.2-0.2v-1.1c0-0.1-0.1-0.2-0.2-0.2S71.5,47.3,71.5,47.4z M71.5,45.3v1.1c0,0.1,0.1,0.2,0.2,0.2
			s0.2-0.1,0.2-0.2v-1.1c0-0.1-0.1-0.2-0.2-0.2S71.5,45.1,71.5,45.3z M71.5,43.1v1.1c0,0.1,0.1,0.2,0.2,0.2s0.2-0.1,0.2-0.2v-1.1
			c0-0.1-0.1-0.2-0.2-0.2S71.5,43,71.5,43.1z M71.5,41v1.1c0,0.1,0.1,0.2,0.2,0.2s0.2-0.1,0.2-0.2V41c0-0.1-0.1-0.2-0.2-0.2
			S71.5,40.9,71.5,41z M71.5,38.8v1.1c0,0.1,0.1,0.2,0.2,0.2s0.2-0.1,0.2-0.2v-1.1c0-0.1-0.1-0.2-0.2-0.2S71.5,38.7,71.5,38.8z
			 M71.5,36.7v1.1c0,0.1,0.1,0.2,0.2,0.2s0.2-0.1,0.2-0.2v-1.1c0-0.1-0.1-0.2-0.2-0.2S71.5,36.6,71.5,36.7z"/>
	</defs>
	<clipPath id="SVGID_10_">
		<use xlink:href="#SVGID_9_"  style="overflow:visible;"/>
	</clipPath>
	<g class="st6">
		<rect x="22" y="31.4" class="st3" width="55.1" height="51.2"/>
	</g>
</g>
</svg>
