<?xml version="1.0" encoding="UTF-8" standalone="no"?>
<svg width="89px" height="89px" viewBox="0 0 89 89" version="1.1" xmlns="http://www.w3.org/2000/svg" xmlns:xlink="http://www.w3.org/1999/xlink">
    <!-- Generator: Sketch 47.1 (45422) - http://www.bohemiancoding.com/sketch -->
    <title>Rectangle 3</title>
    <desc>Created with Sketch.</desc>
    <defs></defs>
    <g id="Symbols" stroke="none" stroke-width="1" fill="none" fill-rule="evenodd">
        <g id="img-logo-k" fill-rule="nonzero" fill="#000000">
            <g id="Group-4">
                <g id="Group">
                    <path d="M8.15999951,2.03999988 C4.78001705,2.03999988 2.03999988,4.78001705 2.03999988,8.15999951 L2.03999988,80.8400005 C2.03999988,84.219983 4.78001705,86.9600001 8.15999951,86.9600001 L80.6400005,86.9600001 C84.019983,86.9600001 86.7600001,84.219983 86.7600001,80.8400005 L86.7600001,8.15999951 C86.7600001,4.78001705 84.019983,2.03999988 80.6400005,2.03999988 L8.15999951,2.03999988 Z M8.15999951,0 L80.6400005,0 C85.1466438,-8.27856942e-16 88.8,3.65335622 88.8,8.15999951 L88.8,80.8400005 C88.8,85.3466438 85.1466438,89 80.6400005,89 L8.15999951,89 C3.65335622,89 7.65733199e-15,85.3466438 7.10542736e-15,80.8400005 L0,8.15999951 C-5.51904628e-16,3.65335622 3.65335622,8.27856942e-16 8.15999951,0 Z" id="Rectangle-3"></path>
                </g>
            </g>
        </g>
    </g>
</svg>