<svg style="display: none">
    <symbol viewBox="0 0 20.7 20.7" id="icon-Add_Sponsorship">
        <title>Add_Sponsorship</title>
        <polygon points="4.9 8 4.9 5.2 3 5.2 3 8 0.2 8 0.2 9.9 3 9.9 3 12.6 4.9 12.6 4.9 9.8 7.7 9.8 7.7 8 4.9 8" />
        <path d="M17.9,12.7H8.6A2.6,2.6,0,0,0,6,15.3v2.1H20.5V15.3A2.6,2.6,0,0,0,17.9,12.7Z" />
        <path d="M13.5,3A4.4,4.4,0,0,0,9.1,7.4a4.4,4.4,0,1,0,8.8,0A4.4,4.4,0,0,0,13.5,3Z" />
    </symbol>
    <symbol viewBox="0 0 20.7 20.7" id="icon-Back_Arrow">
        <title>Back_Arrow</title>
        <path d="M8.3,18.4a.9.9,0,0,0,1.2,0,.9.9,0,0,0,0-1.3L3.3,10.9H19.4a.9.9,0,0,0,.9-.9.8.8,0,0,0-.9-.8H3.2L9.5,2.9a.9.9,0,0,0,0-1.2,1,1,0,0,0-1.3,0L.4,9.5a.9.9,0,0,0,0,1.2Z" />
    </symbol>
    <symbol viewBox="0 0 20.7 20.7" id="icon-Boost">
        <title>Boost</title>
        <path d="M14.9,7.3l-4,.9c-.2.1-.5-.3-.4-.6l1.2-6.5c.1-.5-.4-.8-.7-.4L5.4,12.2c-.1.4.1.8.4.8l4-.9c.2-.1.5.3.4.7L8.6,19.6c-.2.4.4.8.6.4l6-11.9C15.4,7.7,15.2,7.2,14.9,7.3Z" />
    </symbol>
    <symbol viewBox="0 0 20.7 20.7" id="icon-Card">
        <title>Card</title>
        <rect x="0.5" y="6.9" width="19.6" height="1.14" />
        <path d="M19.1,4.4H1.6c-.6,0-1,.5-1,1.2H20.2C20.1,4.9,19.7,4.4,19.1,4.4Z" />
        <path d="M.5,9.4v5.4a1.2,1.2,0,0,0,1.1,1.3H19.1a1.2,1.2,0,0,0,1.1-1.3V9.4Zm18.2,6H11.9a.4.4,0,0,1-.4-.4.5.5,0,0,1,.4-.5h6.8a.5.5,0,0,1,.5.5A.5.5,0,0,1,18.7,15.4Z" />
    </symbol>
    <symbol viewBox="0 0 20.7 20.7" id="icon-Email">
        <title>Email</title>
        <path d="M10.4,11.6h.4l.3-.3L20,3.8H.6L10,11.5ZM.6,4.8V15.7l6.6-5.3Zm12.9,5.6,6.6,5.3V4.9Zm-2.1,1.7a1.8,1.8,0,0,1-2,0L7.9,10.8.7,16.7h0c0,.1,0,.1.1.1H20.1c.1,0,.1,0,.1-.1h0L13,10.8Z" />
    </symbol>
    <symbol viewBox="0 0 20.7 20.7" id="icon-Heart">
        <title>Heart</title>
        <path d="M10.4,19.4h-.1C-4.9,10.3.3,1.6,6,1.7h.5a4.4,4.4,0,0,1,3.8,2.6,4.6,4.6,0,0,1,3.9-2.6C20,1,26,10,10.4,19.4Z" />
    </symbol>
    <symbol viewBox="0 0 20.7 20.7" id="icon-Help">
        <title>Help</title>
        <path d="M10.3.6a9.6,9.6,0,1,0,9.6,9.6A9.6,9.6,0,0,0,10.3.6Zm0,13.7a.9.9,0,0,1-.8-.7.9.9,0,0,1,.8-.8.9.9,0,0,1,.8.8A.9.9,0,0,1,10.3,14.3Zm.9-3.6a.5.5,0,0,0-.4.6v.4H9.7v-.4a1.8,1.8,0,0,1,1.1-1.6,1.3,1.3,0,0,0,.9-1.5,1.4,1.4,0,0,0-1.4-1.3,1.2,1.2,0,0,0-1.1.4,1.4,1.4,0,0,0-.4,1H7.7a2.7,2.7,0,0,1,.8-1.8,2.3,2.3,0,0,1,1.8-.7,2.7,2.7,0,0,1,2.4,2.4A2.6,2.6,0,0,1,11.2,10.7Z"
        />
    </symbol>
    <symbol viewBox="0 0 20.7 20.7" id="icon-Home">
        <title>Home</title>
        <path d="M20.6,10.2a1.1,1.1,0,0,0-.1-1.4L11.3.7A1.5,1.5,0,0,0,9.7.7L.5,9.2a1.1,1.1,0,0,0,0,1.5l.2.2a1.2,1.2,0,0,0,1.5.1l.6-.7v9.1a1,1,0,0,0,1,1H7.5a1,1,0,0,0,1-1V13.1h4.6v6.3a1,1,0,0,0,1,1H18a.9.9,0,0,0,1-1v-9a1.1,1.1,0,0,0,.5.4c.2.2.7,0,1.1-.4Z"
        />
    </symbol>
    <symbol viewBox="0 0 20.7 20.7" id="icon-Negative_Sign">
        <title>Negative_Sign</title>
        <path d="M20.1,8a1.3,1.3,0,0,0-1-.4H1.6A1.3,1.3,0,0,0,.6,8,1.3,1.3,0,0,0,.2,9v2.7a1.3,1.3,0,0,0,.4,1,1.3,1.3,0,0,0,1,.4H19.1a1.4,1.4,0,0,0,1.4-1.4V9A1.3,1.3,0,0,0,20.1,8Z" />
    </symbol>
    <symbol viewBox="0 0 20.7 20.7" id="icon-Password">
        <title>Password</title>
        <path d="M17.1,7.9H15.9V6.2A5.8,5.8,0,0,0,10.2.5,5.7,5.7,0,0,0,4.6,6.2V7.9H3.3a.4.4,0,0,0-.4.4V18.4a1.6,1.6,0,0,0,1.7,1.7H16a1.6,1.6,0,0,0,1.6-1.7V8.2A.5.5,0,0,0,17.1,7.9Zm-5.7,8.4a.4.4,0,0,1-.1.3H9.1a.4.4,0,0,1-.1-.3L9.2,14a1.7,1.7,0,0,1-.6-1.4A1.6,1.6,0,0,1,10.3,11a1.6,1.6,0,0,1,1.6,1.6,1.7,1.7,0,0,1-.6,1.4Zm2.1-8.4H7V6.2A3.2,3.2,0,0,1,10.2,3a3.2,3.2,0,0,1,3.2,3.2V7.9Z"
        />
    </symbol>
    <symbol viewBox="0 0 20.7 20.7" id="icon-Pause">
        <title>Pause</title>
        <path d="M8.7,3.6H4a.5.5,0,0,0-.4.2.4.4,0,0,0-.1.3v13a.4.4,0,0,0,.1.3l.4.2H8.7a.5.5,0,0,0,.4-.2l.2-.3V4.1l-.2-.3A.4.4,0,0,0,8.7,3.6Z" />
        <path d="M17.3,3.8l-.4-.2H12.2a.5.5,0,0,0-.4.2.4.4,0,0,0-.1.3v13a.4.4,0,0,0,.1.3l.4.2h4.7a.5.5,0,0,0,.4-.2l.2-.3V4.1C17.5,4,17.5,3.9,17.3,3.8Z" />
    </symbol>
    <symbol viewBox="0 0 20.7 20.7" id="icon-Plus_Sign">
        <title>Plus_Sign</title>
        <path d="M20.1,8a1.2,1.2,0,0,0-1-.4h-6v-6a1.2,1.2,0,0,0-.4-1,1.2,1.2,0,0,0-1-.4H9A1.2,1.2,0,0,0,8,.6a1.2,1.2,0,0,0-.4,1v6h-6A1.2,1.2,0,0,0,.6,8,1.2,1.2,0,0,0,.2,9v2.7a1.2,1.2,0,0,0,.4,1,1.2,1.2,0,0,0,1,.4h6v6a1.2,1.2,0,0,0,.4,1,1.2,1.2,0,0,0,1,.4h2.7a1.2,1.2,0,0,0,1-.4,1.2,1.2,0,0,0,.4-1v-6h6a1.2,1.2,0,0,0,1-.4,1.2,1.2,0,0,0,.4-1V9A1.2,1.2,0,0,0,20.1,8Z"
        />
    </symbol>
    <symbol viewBox="0 0 20.7 20.7" id="icon-Progress">
        <title>Progress</title>
        <path d="M20.3,9.7a6.3,6.3,0,0,0,0-1.4h0c0-.3-.3-.6-.7-.8a1.4,1.4,0,0,0,.7-.6,6.4,6.4,0,0,0,0-1.4h0c0-1-2.4-1.6-4.6-1.6s-4.6.6-4.6,1.6h0a3.2,3.2,0,0,0,0,1.4l.6.6c-.4.3-.6.5-.6.8h0a3.3,3.3,0,0,0,0,1.4.8.8,0,0,0,.5.5c-.4.3-.5.5-.5.8h0a3.3,3.3,0,0,0,0,1.4l.6.6a.9.9,0,0,0-.6.8h0a3.2,3.2,0,0,0,0,1.4c.2.5,1,1.4,4.4,1.4s4.5-.9,4.8-1.4a6.5,6.5,0,0,0,0-1.4h0c0-.3-.3-.6-.7-.9a1.4,1.4,0,0,0,.7-.6,6.4,6.4,0,0,0,0-1.4h0c0-.3-.2-.5-.6-.8ZM19.8,14c0,.4-1.7,1-4.1,1s-4.2-.6-4.2-1,.3-.4.7-.5h0a8,8,0,0,0,3.3.5,10.2,10.2,0,0,0,3.6-.5C19.5,13.6,19.8,13.8,19.8,14Zm0-2.9c0,.4-1.7,1-4.1,1s-4.2-.6-4.2-1,.2-.3.6-.5a8.3,8.3,0,0,0,3.4.5,10.1,10.1,0,0,0,3.7-.5C19.6,10.8,19.8,10.9,19.8,11.1ZM15.7,6.5c-2.5,0-4.2-.6-4.2-1s1.7-1,4.2-1.1,4.1.6,4.1,1S18.1,6.5,15.7,6.5Zm-.2,1.8a10.2,10.2,0,0,0,3.6-.5c.4.2.7.4.7.5s-1.7,1.1-4.1,1.1-4.2-.7-4.2-1.1.3-.3.7-.5A8,8,0,0,0,15.5,8.3Z"
        />
        <path d="M9.6,12.6a6.4,6.4,0,0,0,0-1.4h0c0-.3-.3-.6-.7-.8a2.3,2.3,0,0,0,.7-.6,6.5,6.5,0,0,0,0-1.4h0c0-1-2.3-1.5-4.6-1.5S.4,7.3.4,8.3h0c0,.5-.1,1.2.1,1.4s.2.4.5.6a.9.9,0,0,0-.6.8h0c0,.5-.1,1.1.1,1.3a.7.7,0,0,0,.4.6,1,1,0,0,0-.5.8h0c0,.5-.1,1.2.1,1.4s.9,1.4,4.3,1.4,4.5-.9,4.8-1.4a6.5,6.5,0,0,0,0-1.4h0a.9.9,0,0,0-.6-.8A1.7,1.7,0,0,0,9.6,12.6ZM.8,8.3c0-.4,1.7-1,4.2-1s4.1.6,4.1,1S7.5,9.4,5,9.4.8,8.8.8,8.3ZM9.1,14c0,.4-1.6,1-4.1,1S.8,14.4.8,14s.3-.4.6-.5a8.3,8.3,0,0,0,3.4.5,10.1,10.1,0,0,0,3.7-.5C8.9,13.6,9.1,13.8,9.1,14ZM5,12.2c-2.5,0-4.2-.6-4.2-1s.3-.3.7-.5a11.1,11.1,0,0,0,3.3.4,13.6,13.6,0,0,0,3.6-.4c.4.1.7.3.7.5S7.5,12.2,5,12.2Z"
        />
    </symbol>
    <symbol viewBox="0 0 20.7 20.7" id="icon-Settings">
        <title>Settings</title>
        <path d="M10.4,13.5a3.2,3.2,0,0,1-2.9-1.9,3.4,3.4,0,0,1,.7-3.5,3.1,3.1,0,0,1,3.4-.6,3,3,0,0,1,1.9,2.9,3.1,3.1,0,0,1-.9,2.2A2.9,2.9,0,0,1,10.4,13.5Zm8.8-5H17.7a6.4,6.4,0,0,0-.8-1.9L18,5.5a1.5,1.5,0,0,0,.4-.9,1.2,1.2,0,0,0-.4-.9l-.9-.9a1.8,1.8,0,0,0-.9-.4,1.2,1.2,0,0,0-.9.4L14.2,3.9a7.7,7.7,0,0,0-1.9-.8V1.6A1.2,1.2,0,0,0,11.1.4H9.8A1.1,1.1,0,0,0,8.6,1.6V3.1a7,7,0,0,0-2,.8l-1-1.1a1.6,1.6,0,0,0-.9-.3,1.4,1.4,0,0,0-.9.3l-.9.9a1.4,1.4,0,0,0-.3.9,1.2,1.2,0,0,0,.4.9L4.1,6.6a4.2,4.2,0,0,0-.9,1.9H1.7A1.2,1.2,0,0,0,.4,9.7V11a1.2,1.2,0,0,0,1.2,1.2H3.1a6.4,6.4,0,0,0,.8,1.9L2.8,15.2a1.5,1.5,0,0,0-.4.9,1.2,1.2,0,0,0,.4.9l.9.9a1.5,1.5,0,0,0,.9.4,1.2,1.2,0,0,0,.9-.4l1.1-1.1a7.7,7.7,0,0,0,1.9.8v1.5a1.2,1.2,0,0,0,1.2,1.2h1.4a1.2,1.2,0,0,0,1.2-1.2V17.6a6.4,6.4,0,0,0,1.9-.8l1.1,1.1a1.5,1.5,0,0,0,.9.4,1.2,1.2,0,0,0,.9-.4L18,17a1.4,1.4,0,0,0,.3-.9,1.6,1.6,0,0,0-.3-.9l-1.2-1.1a5.2,5.2,0,0,0,.8-1.9h1.5A1.2,1.2,0,0,0,20.3,11V9.7A1.1,1.1,0,0,0,19.2,8.5Z"
        />
    </symbol>
    <symbol viewBox="0 0 20.7 20.7" id="icon-Success">
        <title>Success</title>
        <path d="M7.3,19.1h0a1.6,1.6,0,0,1-1.4-.7L1.1,12.7a2,2,0,0,1,.1-2.9A1.9,1.9,0,0,1,4,9.9l3.4,4,9.5-11a1.9,1.9,0,0,1,2.8-.2,2.3,2.3,0,0,1,.1,3L8.8,18.4A2.3,2.3,0,0,1,7.3,19.1Z" />
    </symbol>
    <symbol viewBox="0 0 20.7 20.7" id="icon-User">
        <title>User</title>
        <path d="M16.8,13.8H3.9A3.7,3.7,0,0,0,.3,17.5v2.8H20.4V17.5A3.7,3.7,0,0,0,16.8,13.8Z" />
        <path d="M10.7.4A6.1,6.1,0,0,0,4.6,6.5a6.2,6.2,0,0,0,6.1,6.1,6.1,6.1,0,0,0,6.1-6.1A6.1,6.1,0,0,0,10.7.4Z" />
    </symbol>
    <symbol viewBox="0 0 20.7 20.7" id="icon-Warning">
        <title>Warning</title>
        <path d="M20.2,17,11.4,2.4a1.1,1.1,0,0,0-1.1-.6,1.1,1.1,0,0,0-1,.6L.5,17a1.2,1.2,0,0,0-.1,1.3,1.4,1.4,0,0,0,1.1.6H19.2a1.4,1.4,0,0,0,1.1-.6A1.2,1.2,0,0,0,20.2,17ZM10.4,6.9c.5,0,.9.2.9.7s-.2,3.8-.2,5.4-.4.5-.7.5-.8-.1-.8-.5-.2-3.8-.2-5.4S9.8,6.9,10.4,6.9Zm0,9.6a1,1,0,0,1-1-1.1,1,1,0,0,1,1-1,1.1,1.1,0,0,1,1,1A1.1,1.1,0,0,1,10.4,16.5Z"
        />
    </symbol>
</svg>