<svg xmlns="http://www.w3.org/2000/svg" xmlns:xlink="http://www.w3.org/1999/xlink" viewBox="0 0 27.4 27.4"><defs><clipPath id="a"><path d="M14.6,42,26.5,30.1a.6.6,0,0,0,0-.8.5.5,0,0,0-.7,0l-12,11.9L1.9,29.3a.5.5,0,0,0-.7,0,.6.6,0,0,0,0,.8L13.1,42,1.2,53.9a.6.6,0,0,0,0,.8h.7L13.8,42.8l12,11.9h.7a.6.6,0,0,0,0-.8Z" style="fill:#a2a2a2"/></clipPath><clipPath id="b"><rect x="-1161.4" y="-84.2" width="1540" height="1009.53" style="fill:#a2a2a2"/></clipPath></defs><title>arrow_left</title><path d="M11.8,2,1.4,12a2.2,2.2,0,0,0,0,3.3L11.8,25.4a2.5,2.5,0,0,0,3.4,0,2.3,2.3,0,0,0,0-3.4L9,16.1H24.3a2.4,2.4,0,0,0,2.4-2.4,2.3,2.3,0,0,0-2.4-2.3H9l6.2-6a2.3,2.3,0,0,0,0-3.4A2.5,2.5,0,0,0,11.8,2Z" style="fill:#a2a2a2"/><path d="M14.6,42,26.5,30.1a.6.6,0,0,0,0-.8.5.5,0,0,0-.7,0l-12,11.9L1.9,29.3a.5.5,0,0,0-.7,0,.6.6,0,0,0,0,.8L13.1,42,1.2,53.9a.6.6,0,0,0,0,.8h.7L13.8,42.8l12,11.9h.7a.6.6,0,0,0,0-.8Z" style="fill:#a2a2a2"/><g style="clip-path:url(#a)"><rect x="-1161.4" y="-84.2" width="1540" height="1009.53" style="fill:#a2a2a2"/><g style="clip-path:url(#b)"><rect x="-4.3" y="23.8" width="36.4" height="36.36" style="fill:#a2a2a2"/></g></g></svg>