<svg xmlns="http://www.w3.org/2000/svg" xmlns:xlink="http://www.w3.org/1999/xlink" viewBox="0 0 27.4 27.4"><defs><clipPath id="a"><path d="M-41.6,42l12-11.9a.6.6,0,0,0,0-.8.6.6,0,0,0-.8,0L-42.3,41.2-54.2,29.3a.6.6,0,0,0-.8,0,.6.6,0,0,0,0,.8L-43.1,42-55,53.9a.6.6,0,0,0,0,.8h.8l11.9-11.9,11.9,11.9h.8a.6.6,0,0,0,0-.8Z" style="fill:#a2a2a2"/></clipPath></defs><title>Artboard 1</title><path d="M2,15.6,12,26a2.4,2.4,0,0,0,3.3,0L25.4,15.6a2.5,2.5,0,0,0,0-3.4,2.3,2.3,0,0,0-3.4,0l-5.9,6.2V3.1a2.4,2.4,0,1,0-4.7,0V18.4l-6-6.2a2.3,2.3,0,0,0-3.4,0A2.5,2.5,0,0,0,2,15.6Z" style="fill:#a2a2a2"/><path d="M-41.6,42l12-11.9a.6.6,0,0,0,0-.8.6.6,0,0,0-.8,0L-42.3,41.2-54.2,29.3a.6.6,0,0,0-.8,0,.6.6,0,0,0,0,.8L-43.1,42-55,53.9a.6.6,0,0,0,0,.8h.8l11.9-11.9,11.9,11.9h.8a.6.6,0,0,0,0-.8Z" style="fill:#a2a2a2"/><g style="clip-path:url(#a)"><rect x="-1217.6" y="-84.2" width="1540" height="1009.53" style="fill:#a2a2a2"/></g></svg>