<svg xmlns="http://www.w3.org/2000/svg" xmlns:xlink="http://www.w3.org/1999/xlink" viewBox="0 0 27.4 27.4"><defs><clipPath id="a"><path d="M-69.4,42l11.9-11.9a.6.6,0,0,0,0-.8.6.6,0,0,0-.8,0L-70.2,41.2-82.1,29.3a.6.6,0,0,0-.8,0,.6.6,0,0,0,0,.8L-71,42-82.9,53.9a.6.6,0,0,0,0,.8h.8l11.9-11.9,11.9,11.9h.8a.6.6,0,0,0,0-.8Z" style="fill:#a2a2a2"/></clipPath></defs><title>Artboard 1 copy</title><path d="M17.1,6.5l4.3,4.8a.5.5,0,0,1-.4.9H7.7V25.9a.5.5,0,0,1-.5.5H6.3a.5.5,0,0,1-.4-.5V1.4c0-.2.2-.5.4-.5H21a.5.5,0,0,1,.4.9Z" style="fill:#a2a2a2"/><path d="M-69.4,42l11.9-11.9a.6.6,0,0,0,0-.8.6.6,0,0,0-.8,0L-70.2,41.2-82.1,29.3a.6.6,0,0,0-.8,0,.6.6,0,0,0,0,.8L-71,42-82.9,53.9a.6.6,0,0,0,0,.8h.8l11.9-11.9,11.9,11.9h.8a.6.6,0,0,0,0-.8Z" style="fill:#a2a2a2"/><g style="clip-path:url(#a)"><rect x="-1245.5" y="-84.2" width="1540" height="1009.53" style="fill:#a2a2a2"/></g></svg>