<svg xmlns="http://www.w3.org/2000/svg" xmlns:xlink="http://www.w3.org/1999/xlink" viewBox="0 0 27.4 27.4"><defs><clipPath id="a"><path d="M-13.6-14.8l12-11.9a.5.5,0,0,0,0-.7c-.3-.3-.6-.3-.8,0L-14.3-15.5-26.2-27.4a.5.5,0,0,0-.8,0,.5.5,0,0,0,0,.7l11.9,11.9L-27-2.9a.6.6,0,0,0,0,.8l.4.2.4-.2L-14.3-14-2.4-2.1a.5.5,0,0,0,.4.2l.4-.2a.6.6,0,0,0,0-.8Z" style="fill:#a2a2a2"/></clipPath><clipPath id="b"><rect x="-1189.6" y="-141" width="1540" height="1009.53" style="fill:#a2a2a2"/></clipPath></defs><title>charity</title><path d="M3.9,17.2a1.7,1.7,0,0,0-2.1-.6l-1.1.5a.6.6,0,0,0-.4.9l4.9,8.4a.9.9,0,0,0,1.1.3l1.1-.4a1.3,1.3,0,0,0,.7-1.9Z" style="fill:#a2a2a2"/><path d="M26.1,14a1.7,1.7,0,0,0-2,.2l-4.2,4.9-1.1.4H15.2a.7.7,0,1,1,0-1.4h3a1.6,1.6,0,0,0,1.6-1.5,1.6,1.6,0,0,0-1.6-1.4h-4c-.4,0-.6-.2-.9-.5a5.9,5.9,0,0,0-4.8-1.1,7,7,0,0,0-2.3,1.1L5,15.6l4.4,8.2h8.8a4.5,4.5,0,0,0,3.7-1.7l4.6-6A1.5,1.5,0,0,0,26.1,14Z" style="fill:#a2a2a2"/><path d="M12.1,6,17,10.5a.7.7,0,0,0,.5.4c.2,0,.3-.2.5-.4L22.9,6a3.3,3.3,0,0,0,1.2-2.4A3.5,3.5,0,0,0,20.5.2a3.4,3.4,0,0,0-3,1.6,3.9,3.9,0,0,0-4-1.4A3.1,3.1,0,0,0,11,2.7,3,3,0,0,0,12.1,6Z" style="fill:#a2a2a2"/><path d="M-13.6-14.8l12-11.9a.5.5,0,0,0,0-.7c-.3-.3-.6-.3-.8,0L-14.3-15.5-26.2-27.4a.5.5,0,0,0-.8,0,.5.5,0,0,0,0,.7l11.9,11.9L-27-2.9a.6.6,0,0,0,0,.8l.4.2.4-.2L-14.3-14-2.4-2.1a.5.5,0,0,0,.4.2l.4-.2a.6.6,0,0,0,0-.8Z" style="fill:#a2a2a2"/><g style="clip-path:url(#a)"><rect x="-1189.6" y="-141" width="1540" height="1009.53" style="fill:#a2a2a2"/><g style="clip-path:url(#b)"><rect x="-32.5" y="-32.9" width="36.4" height="36.36" style="fill:#a2a2a2"/></g></g></svg>