<svg xmlns="http://www.w3.org/2000/svg" xmlns:xlink="http://www.w3.org/1999/xlink" viewBox="0 0 27.4 27.4"><defs><clipPath id="a"><path d="M-13.4-43.6-1.5-55.5a.6.6,0,0,0,0-.8.6.6,0,0,0-.8,0L-14.2-44.4-26.1-56.3a.6.6,0,0,0-.8,0,.6.6,0,0,0,0,.8L-15-43.6-26.9-31.7a.6.6,0,0,0,0,.8h.8l11.9-11.9L-2.3-30.9h.8a.6.6,0,0,0,0-.8Z" style="fill:#a2a2a2"/></clipPath></defs><title>chat</title><path d="M20,7.3H2.9A2.7,2.7,0,0,0,.3,10v9.4a2.7,2.7,0,0,0,2.6,2.7H5.6v4.5c0,.2.2.3.3.4h.5l4.4-4.8H20a2.7,2.7,0,0,0,2.7-2.7V10A2.7,2.7,0,0,0,20,7.3" style="fill:#a2a2a2"/><path d="M24.5,1H7.4A2.6,2.6,0,0,0,4.8,3.7V5.9a.5.5,0,0,0,.4.5H20.3a3.3,3.3,0,0,1,3.3,3.3v5.7a.4.4,0,0,0,.4.4h1.9a1.3,1.3,0,0,0,1.3-1.3V3.7A2.7,2.7,0,0,0,24.5,1" style="fill:#a2a2a2"/><path d="M-13.4-43.6-1.5-55.5a.6.6,0,0,0,0-.8.6.6,0,0,0-.8,0L-14.2-44.4-26.1-56.3a.6.6,0,0,0-.8,0,.6.6,0,0,0,0,.8L-15-43.6-26.9-31.7a.6.6,0,0,0,0,.8h.8l11.9-11.9L-2.3-30.9h.8a.6.6,0,0,0,0-.8Z" style="fill:#a2a2a2"/><g style="clip-path:url(#a)"><rect x="-1189.5" y="-169.8" width="1540" height="1009.53" style="fill:#a2a2a2"/></g></svg>