<svg xmlns="http://www.w3.org/2000/svg" xmlns:xlink="http://www.w3.org/1999/xlink" viewBox="0 0 27.4 27.4"><defs><clipPath id="a"><path d="M14.6,13.5,26.5,1.6a.6.6,0,0,0,0-.8.5.5,0,0,0-.7,0l-12,11.9L1.9.8a.5.5,0,0,0-.7,0,.6.6,0,0,0,0,.8L13.1,13.5,1.2,25.4a.6.6,0,0,0,0,.8h.7L13.8,14.3l12,11.9h.7a.6.6,0,0,0,0-.8Z" style="fill:#a2a2a2"/></clipPath><clipPath id="b"><rect x="-1161.4" y="-112.7" width="1540" height="1009.53" style="fill:#a2a2a2"/></clipPath></defs><title>close</title><path d="M14.6,13.5,26.5,1.6a.6.6,0,0,0,0-.8.5.5,0,0,0-.7,0l-12,11.9L1.9.8a.5.5,0,0,0-.7,0,.6.6,0,0,0,0,.8L13.1,13.5,1.2,25.4a.6.6,0,0,0,0,.8h.7L13.8,14.3l12,11.9h.7a.6.6,0,0,0,0-.8Z" style="fill:#a2a2a2"/><g style="clip-path:url(#a)"><rect x="-1161.4" y="-112.7" width="1540" height="1009.53" style="fill:#a2a2a2"/><g style="clip-path:url(#b)"><rect x="-4.3" y="-4.7" width="36.4" height="36.36" style="fill:#a2a2a2"/></g></g></svg>