<svg xmlns="http://www.w3.org/2000/svg" viewBox="0 0 20.7 20.7"><title>decline</title><path d="M13.8,10.4l5.1-5.1a1.5,1.5,0,0,0,.5-1.2,1.7,1.7,0,0,0-.5-1.3l-1-1h-.3a1.6,1.6,0,0,0-.9-.3,1.9,1.9,0,0,0-1.3.5L10.3,6.9,5.2,1.8A1.8,1.8,0,0,0,4,1.3a1.9,1.9,0,0,0-1.3.5l-1,1a2.1,2.1,0,0,0-.5,1.3,1.8,1.8,0,0,0,.5,1.2l5.1,5.1L1.7,15.5a2.1,2.1,0,0,0-.5,1.3,2.4,2.4,0,0,0,.5,1.3h.2l.8.8a1.6,1.6,0,0,0,1.3.6A1.6,1.6,0,0,0,5.2,19l5.1-5.1L15.4,19a1.8,1.8,0,0,0,1.3.6h0a1.6,1.6,0,0,0,1.2-.6l1-.9a1.8,1.8,0,0,0,.5-1.3,1.7,1.7,0,0,0-.5-1.3Z"/></svg>