<svg xmlns="http://www.w3.org/2000/svg" xmlns:xlink="http://www.w3.org/1999/xlink" viewBox="0 0 27.4 27.4"><defs><clipPath id="a"><path d="M-41.6,13.6l12-11.9a.6.6,0,0,0,0-.8.6.6,0,0,0-.8,0L-42.3,12.8-54.2.9a.6.6,0,0,0-.8,0,.6.6,0,0,0,0,.8l11.9,11.9L-55,25.5a.6.6,0,0,0,0,.8h.8l11.9-11.9,11.9,11.9h.8a.6.6,0,0,0,0-.8Z" style="fill:#a2a2a2"/></clipPath></defs><title>donation</title><path d="M19.7,1.8a7.2,7.2,0,0,0-6.2,3.6,7,7,0,0,0-8-3.2,6.8,6.8,0,0,0-5,5.3,7.3,7.3,0,0,0,2.2,7.4l10,10.4c.2.4.5.7.8.7s.7-.3,1-.7l5.9-6.2,4-4.2A7.5,7.5,0,0,0,19.7,1.8Z" style="fill:#a2a2a2"/><path d="M-41.6,13.6l12-11.9a.6.6,0,0,0,0-.8.6.6,0,0,0-.8,0L-42.3,12.8-54.2.9a.6.6,0,0,0-.8,0,.6.6,0,0,0,0,.8l11.9,11.9L-55,25.5a.6.6,0,0,0,0,.8h.8l11.9-11.9,11.9,11.9h.8a.6.6,0,0,0,0-.8Z" style="fill:#a2a2a2"/><g style="clip-path:url(#a)"><rect x="-1217.6" y="-112.6" width="1540" height="1009.53" style="fill:#a2a2a2"/></g></svg>