<svg xmlns="http://www.w3.org/2000/svg" xmlns:xlink="http://www.w3.org/1999/xlink" viewBox="0 0 27.4 27.4"><defs><clipPath id="a"><path d="M-69.4-14.8l11.9-11.9a.5.5,0,0,0,0-.7.4.4,0,0,0-.7,0l-12,11.9L-82.1-27.4a.4.4,0,0,0-.7,0,.5.5,0,0,0,0,.7l11.9,11.9L-82.8-2.9a.6.6,0,0,0,0,.8l.4.2.3-.2L-70.2-14l12,11.9.3.2.4-.2a.6.6,0,0,0,0-.8Z" style="fill:#a2a2a2"/></clipPath></defs><title>live_stream</title><path d="M23.3,4.9h0A12.4,12.4,0,0,0,13.7.4,12.4,12.4,0,0,0,4,4.9H4a13.1,13.1,0,0,0-2.9,8,12.7,12.7,0,0,0,2.7,7.8v4.2A2.1,2.1,0,0,0,5.9,27H21.4a2.1,2.1,0,0,0,2.1-2.1V20.7a12.1,12.1,0,0,0,2.7-7.8A12.5,12.5,0,0,0,23.3,4.9ZM22.1,5a20,20,0,0,1-3.7,1.1,12,12,0,0,0-2.2-4.4A11.9,11.9,0,0,1,22.1,5ZM9.2,12.4a21.8,21.8,0,0,1,.6-5.2,23.8,23.8,0,0,0,3.9.3,25.6,25.6,0,0,0,3.9-.3,21.8,21.8,0,0,1,.6,5.2Zm9,1a25.4,25.4,0,0,1-.5,4.9h-8a25.4,25.4,0,0,1-.5-4.9Zm-4.5-12c.9,0,1.6.8,2.1,1.4a10.8,10.8,0,0,1,1.5,3.4,21,21,0,0,1-3.6.3A22.2,22.2,0,0,1,10,6.2a10.8,10.8,0,0,1,1.6-3.4A2.9,2.9,0,0,1,13.7,1.4Zm-2.6.3A12,12,0,0,0,9,6.1,17.9,17.9,0,0,1,5.3,5,12.1,12.1,0,0,1,11.1,1.7ZM4.6,5.9A22,22,0,0,0,8.7,7.1a22,22,0,0,0-.6,5.3H2.2A11,11,0,0,1,4.6,5.9ZM4.1,19.3a11.8,11.8,0,0,1-1.9-5.9H8.1a25.4,25.4,0,0,0,.5,4.9H5.9A2.2,2.2,0,0,0,4.1,19.3Zm18.4,1.1h0v4.4a1,1,0,0,1-1.1,1H5.9a.9.9,0,0,1-1-1V20.5h0a1,1,0,0,1,1-1.1H21.4a1.1,1.1,0,0,1,1.1,1.1Zm.7-1.1a2,2,0,0,0-1.8-1H18.7a36.5,36.5,0,0,0,.6-4.9h3a.5.5,0,1,0,0-1h-3a28.3,28.3,0,0,0-.7-5.3,21,21,0,0,0,4.2-1.2,11.8,11.8,0,0,1,2.4,7A11.3,11.3,0,0,1,23.2,19.3Z" style="fill:#a2a2a2"/><path d="M20.1,23.2a.6.6,0,1,0,0-1.1H18.8v-.9h1.3a.5.5,0,1,0,0-1H18.3a.5.5,0,0,0-.5.5v3.9a.5.5,0,0,0,.5.5h1.8a.6.6,0,0,0,.6-.5.6.6,0,0,0-.6-.6H18.8v-.8Z" style="fill:#a2a2a2"/><path d="M9.3,24H7.9V20.7a.5.5,0,0,0-1,0v3.9a.5.5,0,0,0,.5.5H9.3a.5.5,0,0,0,.5-.5A.6.6,0,0,0,9.3,24Z" style="fill:#a2a2a2"/><path d="M12.9,24h-.4V21.2h.4a.5.5,0,1,0,0-1H11a.5.5,0,0,0,0,1h.4V24H11a.6.6,0,0,0-.5.6.5.5,0,0,0,.5.5h1.9a.5.5,0,0,0,.5-.5A.6.6,0,0,0,12.9,24Z" style="fill:#a2a2a2"/><path d="M16.6,20.2c-.2-.1-.5.1-.6.4l-.4,1.7-.4-1.7a.6.6,0,0,0-.7-.4.7.7,0,0,0-.4.6l1,3.9a.5.5,0,0,0,.5.4.7.7,0,0,0,.5-.4l.9-3.9C17.1,20.5,16.9,20.3,16.6,20.2Z" style="fill:#a2a2a2"/><path d="M24.1,12.5a.5.5,0,1,0,0,1A.5.5,0,0,0,24.1,12.5Z" style="fill:#a2a2a2"/><path d="M-69.4-14.8l11.9-11.9a.5.5,0,0,0,0-.7.4.4,0,0,0-.7,0l-12,11.9L-82.1-27.4a.4.4,0,0,0-.7,0,.5.5,0,0,0,0,.7l11.9,11.9L-82.8-2.9a.6.6,0,0,0,0,.8l.4.2.3-.2L-70.2-14l12,11.9.3.2.4-.2a.6.6,0,0,0,0-.8Z" style="fill:#a2a2a2"/><g style="clip-path:url(#a)"><rect x="-1245.4" y="-141" width="1540" height="1009.53" style="fill:#a2a2a2"/></g></svg>