<svg xmlns="http://www.w3.org/2000/svg" xmlns:xlink="http://www.w3.org/1999/xlink" viewBox="0 0 27.4 27.4"><defs><clipPath id="a"><path d="M-69.4-43.5l11.9-11.9a.6.6,0,0,0,0-.8.5.5,0,0,0-.7,0l-12,11.9L-82.1-56.2a.5.5,0,0,0-.7,0,.6.6,0,0,0,0,.8l11.9,11.9L-82.8-31.6a.6.6,0,0,0,0,.8h.7l11.9-11.9,12,11.9h.7a.6.6,0,0,0,0-.8Z" style="fill:#a2a2a2"/></clipPath></defs><title>play_btn</title><path d="M24.2,10.4,10.3,1.2A3.8,3.8,0,0,0,4.4,4.5V22.8a3.8,3.8,0,0,0,5.9,3.3L24.2,17A4,4,0,0,0,24.2,10.4Z" style="fill:#a2a2a2"/><path d="M-69.4-43.5l11.9-11.9a.6.6,0,0,0,0-.8.5.5,0,0,0-.7,0l-12,11.9L-82.1-56.2a.5.5,0,0,0-.7,0,.6.6,0,0,0,0,.8l11.9,11.9L-82.8-31.6a.6.6,0,0,0,0,.8h.7l11.9-11.9,12,11.9h.7a.6.6,0,0,0,0-.8Z" style="fill:#a2a2a2"/><g style="clip-path:url(#a)"><rect x="-1245.4" y="-169.7" width="1540" height="1009.53" style="fill:#a2a2a2"/></g></svg>