<svg xmlns="http://www.w3.org/2000/svg" viewBox="0 0 20.7 20.7"><title>Progress</title><path d="M20.3,9.7a6.3,6.3,0,0,0,0-1.4h0c0-.3-.3-.6-.7-.8a1.4,1.4,0,0,0,.7-.6,6.4,6.4,0,0,0,0-1.4h0c0-1-2.4-1.6-4.6-1.6s-4.6.6-4.6,1.6h0a3.2,3.2,0,0,0,0,1.4l.6.6c-.4.3-.6.5-.6.8h0a3.3,3.3,0,0,0,0,1.4.8.8,0,0,0,.5.5c-.4.3-.5.5-.5.8h0a3.3,3.3,0,0,0,0,1.4l.6.6a.9.9,0,0,0-.6.8h0a3.2,3.2,0,0,0,0,1.4c.2.5,1,1.4,4.4,1.4s4.5-.9,4.8-1.4a6.5,6.5,0,0,0,0-1.4h0c0-.3-.3-.6-.7-.9a1.4,1.4,0,0,0,.7-.6,6.4,6.4,0,0,0,0-1.4h0c0-.3-.2-.5-.6-.8ZM19.8,14c0,.4-1.7,1-4.1,1s-4.2-.6-4.2-1,.3-.4.7-.5h0a8,8,0,0,0,3.3.5,10.2,10.2,0,0,0,3.6-.5C19.5,13.6,19.8,13.8,19.8,14Zm0-2.9c0,.4-1.7,1-4.1,1s-4.2-.6-4.2-1,.2-.3.6-.5a8.3,8.3,0,0,0,3.4.5,10.1,10.1,0,0,0,3.7-.5C19.6,10.8,19.8,10.9,19.8,11.1ZM15.7,6.5c-2.5,0-4.2-.6-4.2-1s1.7-1,4.2-1.1,4.1.6,4.1,1S18.1,6.5,15.7,6.5Zm-.2,1.8a10.2,10.2,0,0,0,3.6-.5c.4.2.7.4.7.5s-1.7,1.1-4.1,1.1-4.2-.7-4.2-1.1.3-.3.7-.5A8,8,0,0,0,15.5,8.3Z"/><path d="M9.6,12.6a6.4,6.4,0,0,0,0-1.4h0c0-.3-.3-.6-.7-.8a2.3,2.3,0,0,0,.7-.6,6.5,6.5,0,0,0,0-1.4h0c0-1-2.3-1.5-4.6-1.5S.4,7.3.4,8.3h0c0,.5-.1,1.2.1,1.4s.2.4.5.6a.9.9,0,0,0-.6.8h0c0,.5-.1,1.1.1,1.3a.7.7,0,0,0,.4.6,1,1,0,0,0-.5.8h0c0,.5-.1,1.2.1,1.4s.9,1.4,4.3,1.4,4.5-.9,4.8-1.4a6.5,6.5,0,0,0,0-1.4h0a.9.9,0,0,0-.6-.8A1.7,1.7,0,0,0,9.6,12.6ZM.8,8.3c0-.4,1.7-1,4.2-1s4.1.6,4.1,1S7.5,9.4,5,9.4.8,8.8.8,8.3ZM9.1,14c0,.4-1.6,1-4.1,1S.8,14.4.8,14s.3-.4.6-.5a8.3,8.3,0,0,0,3.4.5,10.1,10.1,0,0,0,3.7-.5C8.9,13.6,9.1,13.8,9.1,14ZM5,12.2c-2.5,0-4.2-.6-4.2-1s.3-.3.7-.5a11.1,11.1,0,0,0,3.3.4,13.6,13.6,0,0,0,3.6-.4c.4.1.7.3.7.5S7.5,12.2,5,12.2Z"/></svg>