<svg xmlns="http://www.w3.org/2000/svg" xmlns:xlink="http://www.w3.org/1999/xlink" viewBox="0 0 27.4 27.4"><defs><clipPath id="a"><path d="M-69.4,13.7-57.5,1.8a.5.5,0,0,0,0-.7.5.5,0,0,0-.8,0L-70.2,13-82.1,1.1a.5.5,0,0,0-.8,0,.5.5,0,0,0,0,.7L-71,13.7-82.9,25.6a.6.6,0,0,0,0,.8l.4.2a.5.5,0,0,0,.4-.2l11.9-11.9,11.9,11.9.4.2.4-.2a.6.6,0,0,0,0-.8Z" style="fill:#a2a2a2"/></clipPath></defs><title>rising_charts</title><path d="M21.5,6.1A8.5,8.5,0,0,0,13.7.6,8.5,8.5,0,0,0,5.8,6.1,8.7,8.7,0,0,0,8,15.5V25.8a.8.8,0,0,0,.5.8.7.7,0,0,0,.9,0l4.3-3.3,4.2,3.3a.9.9,0,0,0,1,0,.8.8,0,0,0,.5-.8V15.5A8.7,8.7,0,0,0,21.5,6.1Zm-7.8,9.8a6.5,6.5,0,0,1-6.1-4.1A7,7,0,0,1,9,4.4,6.4,6.4,0,0,1,16.2,3a6.7,6.7,0,0,1-2.5,12.9Z" style="fill:#a2a2a2"/><path d="M17.9,7.6h0l-2.6-.4L14.1,4.8c-.1-.2-.2-.3-.4-.3l-.4.2L12.1,7.2l-2.6.3-.4.3a.7.7,0,0,0,.1.5l1.9,1.9-.4,2.7c-.1.1,0,.3.1.4s.4.2.5.1l2.4-1.3L16,13.4h.5a.8.8,0,0,0,.2-.5l-.5-2.6,1.9-1.9c.2-.1.2-.3.1-.5A.3.3,0,0,0,17.9,7.6Z" style="fill:#a2a2a2"/><path d="M-69.4,13.7-57.5,1.8a.5.5,0,0,0,0-.7.5.5,0,0,0-.8,0L-70.2,13-82.1,1.1a.5.5,0,0,0-.8,0,.5.5,0,0,0,0,.7L-71,13.7-82.9,25.6a.6.6,0,0,0,0,.8l.4.2a.5.5,0,0,0,.4-.2l11.9-11.9,11.9,11.9.4.2.4-.2a.6.6,0,0,0,0-.8Z" style="fill:#a2a2a2"/><g style="clip-path:url(#a)"><rect x="-1245.5" y="-112.5" width="1540" height="1009.53" style="fill:#a2a2a2"/></g></svg>