<svg xmlns="http://www.w3.org/2000/svg" xmlns:xlink="http://www.w3.org/1999/xlink" viewBox="0 0 27.4 27.4"><defs><clipPath id="a"><path d="M-13.6,13.6l12-11.9a.6.6,0,0,0,0-.8.6.6,0,0,0-.8,0L-14.3,12.8-26.2.9a.6.6,0,0,0-.8,0,.6.6,0,0,0,0,.8l11.9,11.9L-27,25.5a.6.6,0,0,0,0,.8h.8l11.9-11.9L-2.4,26.3h.8a.6.6,0,0,0,0-.8Z" style="fill:#a2a2a2"/></clipPath><clipPath id="b"><rect x="-1189.6" y="-112.6" width="1540" height="1009.53" style="fill:#a2a2a2"/></clipPath></defs><title>rising_votes</title><path d="M25.8,25.8H1.4c-.5,0-.8.2-.8.6s.3.5.8.5H25.8c.4,0,.8-.2.8-.5S26.2,25.8,25.8,25.8Z" style="fill:#a2a2a2"/><path d="M7.4,19.7a.7.7,0,0,0-.7-.7H2.4a.7.7,0,0,0-.7.7v5H7.4Z" style="fill:#a2a2a2"/><path d="M15.3,14.2a.7.7,0,0,0-.7-.8H10.3a.7.7,0,0,0-.7.8V24.7h5.7Z" style="fill:#a2a2a2"/><path d="M14.9,8.8h2.4V24.7h6.2V8.8h2.3a.8.8,0,0,0,.6-1.3L20.9,1.2a.8.8,0,0,0-1.1,0L14.4,7.5a.8.8,0,0,0-.2.8A.8.8,0,0,0,14.9,8.8Z" style="fill:#a2a2a2"/><path d="M-13.6,13.6l12-11.9a.6.6,0,0,0,0-.8.6.6,0,0,0-.8,0L-14.3,12.8-26.2.9a.6.6,0,0,0-.8,0,.6.6,0,0,0,0,.8l11.9,11.9L-27,25.5a.6.6,0,0,0,0,.8h.8l11.9-11.9L-2.4,26.3h.8a.6.6,0,0,0,0-.8Z" style="fill:#a2a2a2"/><g style="clip-path:url(#a)"><rect x="-1189.6" y="-112.6" width="1540" height="1009.53" style="fill:#a2a2a2"/><g style="clip-path:url(#b)"><rect x="-32.5" y="-4.6" width="36.4" height="36.36" style="fill:#a2a2a2"/></g></g></svg>