<svg xmlns="http://www.w3.org/2000/svg" viewBox="0 0 20.7 20.7"><title>settings</title><path d="M10.4,13.5a3.2,3.2,0,0,1-2.9-1.9,3.4,3.4,0,0,1,.7-3.5,3.1,3.1,0,0,1,3.4-.6,3,3,0,0,1,1.9,2.9,3.1,3.1,0,0,1-.9,2.2A2.9,2.9,0,0,1,10.4,13.5Zm8.8-5H17.7a6.4,6.4,0,0,0-.8-1.9L18,5.5a2.5,2.5,0,0,0,.4-.9,1.2,1.2,0,0,0-.4-.9l-.9-.9a1.5,1.5,0,0,0-.9-.4,1.2,1.2,0,0,0-.9.4L14.2,3.9a7.7,7.7,0,0,0-1.9-.8V1.6A1.2,1.2,0,0,0,11.1.4H9.8A1.1,1.1,0,0,0,8.6,1.6V3.1a7,7,0,0,0-2,.8l-1-1.1a1.6,1.6,0,0,0-.9-.3,1.4,1.4,0,0,0-.9.3l-.9.9a1.4,1.4,0,0,0-.3.9.9.9,0,0,0,.4.9L4.1,6.6a5.7,5.7,0,0,0-1,1.9H1.6A1.3,1.3,0,0,0,.3,9.7V11a1.2,1.2,0,0,0,1.2,1.2H3a6.4,6.4,0,0,0,.8,1.9L2.7,15.2a2.5,2.5,0,0,0-.4.9,1.2,1.2,0,0,0,.4.9l.9.9a1.5,1.5,0,0,0,1,.4,1.4,1.4,0,0,0,.9-.4l1.1-1.1a6.4,6.4,0,0,0,1.9.8v1.5a1.2,1.2,0,0,0,1.1,1.2h1.5a1.2,1.2,0,0,0,1.1-1.2V17.6a5.4,5.4,0,0,0,1.9-.8l1.1,1.1a1.5,1.5,0,0,0,.9.4,1.4,1.4,0,0,0,1-.4L18,17a2.5,2.5,0,0,0,.4-.9,1.2,1.2,0,0,0-.4-.9l-1.1-1.1a7.7,7.7,0,0,0,.8-1.9h1.5A1.2,1.2,0,0,0,20.4,11V9.7A1.2,1.2,0,0,0,19.2,8.5Z"/></svg>