<svg xmlns="http://www.w3.org/2000/svg" xmlns:xlink="http://www.w3.org/1999/xlink" viewBox="0 0 27.4 27.4"><defs><clipPath id="a"><path d="M14.6-14.8,26.5-26.7a.5.5,0,0,0,0-.7.4.4,0,0,0-.7,0l-12,11.9L1.9-27.4a.4.4,0,0,0-.7,0,.5.5,0,0,0,0,.7L13.1-14.8,1.2-2.9a.6.6,0,0,0,0,.8.5.5,0,0,0,.4.2l.3-.2L13.8-14l12,11.9.3.2a.5.5,0,0,0,.4-.2.6.6,0,0,0,0-.8Z" style="fill:#a2a2a2"/></clipPath><clipPath id="b"><rect x="-1161.4" y="-141" width="1540" height="1009.53" style="fill:#a2a2a2"/></clipPath></defs><title>share</title><path d="M14.6-14.8,26.5-26.7a.5.5,0,0,0,0-.7.4.4,0,0,0-.7,0l-12,11.9L1.9-27.4a.4.4,0,0,0-.7,0,.5.5,0,0,0,0,.7L13.1-14.8,1.2-2.9a.6.6,0,0,0,0,.8.5.5,0,0,0,.4.2l.3-.2L13.8-14l12,11.9.3.2a.5.5,0,0,0,.4-.2.6.6,0,0,0,0-.8Z" style="fill:#a2a2a2"/><g style="clip-path:url(#a)"><rect x="-1161.4" y="-141" width="1540" height="1009.53" style="fill:#a2a2a2"/><g style="clip-path:url(#b)"><rect x="-4.3" y="-32.9" width="36.4" height="36.36" style="fill:#a2a2a2"/></g></g><path d="M5.7,22.7a1.5,1.5,0,0,1-1.5-1.5h0V5.9A1.5,1.5,0,0,1,5.7,4.4h7.9L11.5,6.5H6.3V20.6H19.8V17.8l2.1-2.1v5.5a1.5,1.5,0,0,1-1.5,1.5H5.7Z" style="fill:#a2a2a2"/><path d="M19.7,4.2V1.6l6.9,6.8-6.9,6.9V12.6a13.1,13.1,0,0,0-6.9,1.5,10.9,10.9,0,0,0-4,4,18.5,18.5,0,0,1,2.7-8.2A12.7,12.7,0,0,1,19.7,4.2Z" style="fill:#a2a2a2"/></svg>