<svg xmlns="http://www.w3.org/2000/svg" xmlns:xlink="http://www.w3.org/1999/xlink" viewBox="0 0 27.4 27.4"><defs><clipPath id="a"><path d="M-41.6-14.8l12-11.9a.5.5,0,0,0,0-.7c-.3-.3-.6-.3-.8,0L-42.3-15.5-54.2-27.4a.5.5,0,0,0-.8,0,.5.5,0,0,0,0,.7l11.9,11.9L-55-2.9a.6.6,0,0,0,0,.8l.4.2.4-.2L-42.3-14-30.4-2.1a.5.5,0,0,0,.4.2l.4-.2a.6.6,0,0,0,0-.8Z" style="fill:#a2a2a2"/></clipPath></defs><title>streamer</title><path d="M26.6,23.8a.6.6,0,0,0-.6-.6H1.6a.6.6,0,0,0-.6.6.7.7,0,0,0,.6.7H26A.7.7,0,0,0,26.6,23.8ZM12,15.4c0,.3.3.4.6.2l4.1-3.1c.3-.3.3-.6,0-.8L12.6,8.5c-.3-.2-.6-.1-.6.3ZM1.9,3.8c-.2,0-.3.1-.3.2V20.5c0,.1.1.2.3.2H25.8a.2.2,0,0,0,.2-.2V4a.2.2,0,0,0-.2-.2ZM25.8,22H1.9A1.5,1.5,0,0,1,.4,20.5V4A1.5,1.5,0,0,1,1.9,2.5H25.8A1.5,1.5,0,0,1,27.2,4V20.5A1.5,1.5,0,0,1,25.8,22Z" style="fill:#a2a2a2"/><path d="M-41.6-14.8l12-11.9a.5.5,0,0,0,0-.7c-.3-.3-.6-.3-.8,0L-42.3-15.5-54.2-27.4a.5.5,0,0,0-.8,0,.5.5,0,0,0,0,.7l11.9,11.9L-55-2.9a.6.6,0,0,0,0,.8l.4.2.4-.2L-42.3-14-30.4-2.1a.5.5,0,0,0,.4.2l.4-.2a.6.6,0,0,0,0-.8Z" style="fill:#a2a2a2"/><g style="clip-path:url(#a)"><rect x="-1217.6" y="-141" width="1540" height="1009.53" style="fill:#a2a2a2"/></g></svg>