<svg xmlns="http://www.w3.org/2000/svg" xmlns:xlink="http://www.w3.org/1999/xlink" viewBox="0 0 27.4 27.4"><defs><clipPath id="a"><path d="M-41.4-43.6l11.9-11.9a.6.6,0,0,0,0-.8.6.6,0,0,0-.8,0L-42.2-44.4-54.1-56.3a.6.6,0,0,0-.8,0,.6.6,0,0,0,0,.8L-43-43.6-54.9-31.7a.6.6,0,0,0,0,.8h.8l11.9-11.9,11.9,11.9h.8a.6.6,0,0,0,0-.8Z" style="fill:#a2a2a2"/></clipPath></defs><title>stream-activity</title><path d="M10.6,24.6h0A11.4,11.4,0,0,1,2.3,13.7v-.2l.5.6v.5l.8.8h.5l.4.5h.4l.5.8.9.5.4-.5v.9l-.4.9.4.9L8,20.7l.9.4.9,2.2Zm10.5-17h.4l.5-.5V6.7l-.5-.4v.8Zm3.4,2.6c-.1-.1-.1-.3-.2-.4h-.1l-.5-.5v.9h.8Zm-3-3.9-.4-.9h-.4l.4.9Zm5.3,7.4A13.1,13.1,0,1,1,13.7.6,13.1,13.1,0,0,1,26.8,13.7Zm-.9,0A12.2,12.2,0,1,0,13.7,25.9,12.2,12.2,0,0,0,25.9,13.7Zm-6.1-2.6v.4l-.4.4-.5.9h-.4L18,14.1V15l-.4.4v.5l.4.4.5.9.9.4h.8l.9-.4.4.4-.4.9.4.4v1.3h-.4l-.4.9v.4l-.9,1.3v.4A10.7,10.7,0,0,1,13.7,25l-2.5-.2v-.2l.4-.4v-.5l.9-.9V22h.4l.9-.5V20.2l.9-.4-.5-.9-.9-.4L11.9,18l-.8-.8h-.9l-.9-.9H8l-.4-.4-.9.4-.4.4H5.8l-.4-.8v-.5H4.9v-.8l.5-.5-.9.5-.4.4-.5-.4v-.9l.5-.9h.8l.5.4.4.5.5-.5-.5-.8.9-.9.4-.9.9-.4V9.8h.4l1.4-.5-.5-.4H8.9l.4-.5h.9l.4-.4v.4l-.4.5h.4l.9.4-.4-.9h-.5l.5-.8-.9-.5-.4-.8-.5.4-.4-.4V5.8H8l-.4.5.4.4-.9.9V8H6.7V7.1H6.3l-.5-.4V6.3l1.3-.9H8V4.9l.9-.4.4.4-.9.5h.5l.4.4h.5l.4-.4.4-.5-.4-.4H9.8l.4-.4-.4-.5H8.4L8,4.1H7.7a8.3,8.3,0,0,1,1.6-.9h.5l.2-.3h.6v.4h.9l.4.4-.4.9.4,1.3.9.5.4-.5.5-.9h.9l.8-.4V3.6l.5-.4L15,2.8l.3-.3a9.3,9.3,0,0,1,4.6,1.8v.2l.4.9-.4.4.4.9h.5v.9h-.5l-.4.8V7.6l-.9-.9h-.4l.4.4h-.4V8h.4V7.6h.5V8l.4.4h-.4l.4.5.4.4v.5h-.8l-.5.4v.9ZM6.7,15H6.3v.4Zm0-.4h.4l-.8-.5H5.8Zm1.3,0H7.6l-.5.4H8Zm9.2-9.2-.5-.5H15.4l.5.5.4.4Zm7,6.1h-.5l-.4-.9-.5.9-.4-.4.4-.5-1.3-.8h-.8l.4.4h-.4v.9h-.5l-.4.4h.9l.4-.4H22l.4.8.4.5h.5l.4-.5.5.5h.4Z" style="fill:#a2a2a2"/><path d="M-41.4-43.6l11.9-11.9a.6.6,0,0,0,0-.8.6.6,0,0,0-.8,0L-42.2-44.4-54.1-56.3a.6.6,0,0,0-.8,0,.6.6,0,0,0,0,.8L-43-43.6-54.9-31.7a.6.6,0,0,0,0,.8h.8l11.9-11.9,11.9,11.9h.8a.6.6,0,0,0,0-.8Z" style="fill:#a2a2a2"/><g style="clip-path:url(#a)"><rect x="-1217.5" y="-169.8" width="1540" height="1009.53" style="fill:#a2a2a2"/></g></svg>